<svg width="182" height="182" viewBox="0 0 182 182" fill="none" xmlns="http://www.w3.org/2000/svg">
    <path d="M158.878 128.583C159.724 131.19 162.063 140.56 161.798 145.344C161.616 148.738 160.327 149.797 160.378 150.312C160.429 150.827 162.078 152.223 162.966 153.116C167.008 157.186 167.361 162.121 165.268 165.31C162.993 168.768 155.904 171.731 151.646 172.4C147.584 173.037 135.068 176.611 130.111 169.422C129.126 167.993 129.545 166.274 130.143 161.251C130.312 159.824 129.991 159.533 129.068 159.085C121.028 155.184 122.226 148.767 120.946 143.897C119.882 139.849 119.901 139.811 119.672 139.475C117.798 136.758 105.931 131.484 106.497 125.997C106.799 123.085 108.67 121.796 108.79 121.393C108.904 121.008 101.783 112.839 113.621 110.976C113.035 108.033 109.291 105.391 116.502 101.131C118.747 99.8049 121.962 100.279 124.564 100.465C128.333 100.738 131.935 102.051 135.484 103.356C139.375 104.788 140.831 105.41 146.204 109.604C151.97 114.114 156.5 121.265 158.878 128.583Z" fill="white"/>
    <path d="M161.149 150.097C166.913 139.256 158.298 117.026 145.576 107.469C138.449 102.153 121.047 96.2996 114.09 101.183C112.872 101.951 111.94 103.099 111.437 104.449C110.935 105.8 110.89 107.277 111.31 108.656C112.07 110.897 112.749 110.051 110.873 110.54C105.711 111.88 103.694 117.313 107.652 121.236C104.999 123.086 105.236 126.864 106.685 129.741C109.205 134.837 118.926 138.7 119.319 141.04C120.487 148.695 121.369 156.917 129.439 160.193C128.631 165.137 127.756 169.527 131.872 172.179C137.529 175.904 145.881 175.177 152.5 173.318C168.292 168.959 173.199 160.711 161.149 150.097ZM151.9 171.165C145.942 172.841 138.057 173.733 132.916 170.513C129.896 168.693 130.351 165.298 130.849 160.685C133.618 161.48 137.615 161.578 137.615 161.16C137.621 160.866 134.69 160.773 131.473 159.562C123.192 156.519 122.646 148.967 121.483 140.69C120.84 136.678 111.103 133.577 108.614 128.775C107.47 126.551 107.067 123.76 109.315 122.514C110.788 123.319 112.389 123.863 114.047 124.123L114.378 122.723C111.529 121.892 108.714 120.726 107.819 117.88C107.006 115.466 108.997 113.294 111.43 112.693C116.753 111.361 127.874 116.424 134.174 118.585C133.606 119.694 133.138 120.851 132.777 122.043L134.611 122.6C136.613 115.972 140.42 112.652 139.968 112.173C139.676 111.85 136.948 113.902 134.888 117.308C130.258 115.235 125.708 113.016 120.762 111.552C118.589 110.929 111.346 110.484 113.527 105.251C116.379 98.3771 131.596 102.711 138.308 105.763C155.649 113.746 164.224 138.705 159.746 148.772C157.289 154.338 149.758 158.34 143.889 160.014C141.144 160.786 139.543 160.924 139.557 161.106C139.575 162.107 154.496 160.003 160.366 151.394C170.545 161.573 165.846 167.137 151.9 171.165Z" fill="#20201E"/>
    <path d="M42.6083 37.0959C42.1333 32.5068 44.27 27.5728 48.2813 25.2978C53.6057 22.2748 62.884 23.4832 91.0695 19.6913C102.027 18.2171 106.158 16.9431 111.35 16.6382C117.426 16.2815 118.77 18.1006 120.875 19.4428C123.731 21.2628 124.925 26.1959 125.412 29.5511L136.438 133.461C136.827 137.127 136.606 141.031 134.357 143.952C133.807 144.667 133.201 145.278 132.565 145.627C130.16 146.946 69.0933 154.45 66.6855 154.745C66.6088 154.755 66.5769 154.759 66.5001 154.767C65.4862 154.872 57.9013 155.442 55.9307 149.232C54.3683 144.3 54.8051 156 42.6083 37.0959Z" fill="#FFFCF1"/>
    <path d="M56.8581 42.3739C55.6751 38.3599 57.5169 34.5806 60.6692 33.3303C63.4656 32.2219 67.4177 31.9535 109.313 27.0431C109.313 27.0431 114.919 26.2168 116.315 29.1761C118.408 33.6142 117.763 31.6331 128.704 131.813C129.078 135.227 127.368 138.631 123.739 139.434C123.547 139.477 125.591 139.222 73.9761 145.45C73.9761 145.45 70.2105 145.44 69.1076 143.175C66.9209 138.684 68.699 150.095 56.8581 42.3739Z" fill="white"/>
    <path d="M137.774 135.272L125.853 26.4016C125.14 19.8978 119.648 15.1176 113.499 15.8556L51.627 23.3012C45.5427 24.0292 41.1757 29.9442 41.89 36.4853L53.811 145.356C54.4671 151.351 59.2246 155.977 64.913 155.977C65.8312 155.977 61.8135 156.432 128.035 148.456C134.121 147.724 138.489 141.809 137.774 135.272ZM54.5345 24.8828C117.617 17.2898 113.951 17.6938 114.746 17.6938C119.518 17.6938 123.406 21.6441 123.949 26.6063L135.67 133.668C135.119 138.436 131.631 142.352 127.036 142.905L70.4849 149.711C64.9694 150.373 60.1555 146.006 59.5258 140.247L48.1299 36.1568C47.8228 33.8364 48.2823 31.4792 49.4384 29.444C50.5946 27.4088 52.3841 25.8072 54.5345 24.8828ZM127.809 146.55L65.9358 153.999C60.8053 154.616 56.3062 150.541 55.7156 145.148L43.7965 36.2769C43.2177 30.9862 46.5437 26.1877 51.2921 25.2923C49.6875 26.6057 48.4401 28.3026 47.6653 30.226C46.8905 32.1494 46.6134 34.2371 46.8595 36.296L58.2554 140.391C58.9634 146.857 64.4198 151.733 70.6369 150.983L127.189 144.177C129.085 143.92 130.883 143.177 132.408 142.021C133.933 140.866 135.134 139.336 135.895 137.58C135.51 142.191 132.201 146.024 127.809 146.553V146.55Z" fill="#20201E"/>
    <path d="M121.225 57.8166C118.279 30.9606 118.495 32.5104 118.178 31.4138C117.807 29.9947 117.003 28.7266 115.878 27.7864C114.752 26.8463 113.361 26.281 111.899 26.1695C111.069 26.1495 114.518 25.9156 61.8677 32.1254C58.2386 32.554 55.4513 36.3406 56.0318 40.7604C56.0318 40.7604 66.5878 136.839 66.9045 139.478C67.0578 140.888 67.6064 142.226 68.4871 143.338C69.3678 144.45 70.5447 145.29 71.8822 145.762C73.1799 146.085 74.5352 146.1 75.8398 145.806C75.9308 145.796 123.433 139.716 123.402 139.486C123.369 139.223 75.2629 144.801 73.8906 144.855C70.8457 144.972 68.4461 142.255 68.1139 139.317C67.8145 136.682 57.2995 40.6212 57.2995 40.6212C56.8008 36.7819 59.1559 33.7334 62.0178 33.394C115.095 27.1086 112.049 26.9494 114.082 28.0814C114.95 28.5949 115.685 29.3054 116.228 30.1553C116.77 31.0053 117.106 31.971 117.207 32.9745C117.235 33.1856 116.861 29.3763 128.409 131.948C128.601 133.315 128.378 134.708 127.769 135.947C127.159 137.185 126.191 138.212 124.991 138.893C124.043 139.362 122.673 139.599 123.842 139.473C124.895 139.276 125.877 138.807 126.692 138.112C127.506 137.417 128.124 136.52 128.483 135.511C129.328 133.435 130.022 138.018 121.225 57.8166Z" fill="#20201E"/>
    <path d="M112.91 38.1852C112.339 36.1729 110.999 34.4665 109.179 33.4359C106.958 32.2684 108.565 32.3976 69.3043 37.2706C66.4879 37.621 64.4513 40.1326 63.8771 42.9563C63.6236 44.2691 63.6048 45.6164 63.8216 46.9357C71.1416 113.738 70.6557 109.744 71.1161 111.171C72.3674 115.044 75.3831 116.764 77.8447 116.506C85.1174 115.744 112.62 111.877 113.418 111.738C121.171 110.392 90.2834 114.143 77.7464 115.332C75.7862 115.514 73.3365 114.088 72.2955 110.8C71.8978 109.545 72.492 114.107 65.0901 46.7956C64.8917 45.6116 64.9034 44.4019 65.1247 43.222C65.5797 40.9698 67.1631 38.8304 69.4563 38.5392C108.386 33.6051 106.349 34.021 107.01 34.0911C108.83 34.2849 110.788 35.7455 111.689 38.5692C112.06 39.7285 111.486 35.7354 119.3 103.543C119.709 107.092 117.99 110.025 115.77 111.032C115.07 111.349 114.112 111.536 114.946 111.467C117.393 111.406 120.412 108.065 120.011 103.477C119.838 101.477 113.62 40.4083 112.91 38.1852Z" fill="#20201E"/>
    <path d="M74.1094 130.706C74.1094 119.53 76.3762 123.565 113.729 118.273C114.728 118.039 115.771 118.079 116.748 118.388C123.855 121.397 123.573 133.409 116.918 135.305C115.121 135.817 120.094 134.793 80.1973 139.946C80.1973 139.946 76.2033 140.921 75.2669 137.927C74.5002 135.596 74.1095 133.159 74.1094 130.706Z" fill="#F8D348"/>
    <path d="M75.3076 123.626C73.9528 125.182 73.2487 127.199 73.3411 129.26C73.18 143.939 78.7528 140.551 86.274 139.634C113.119 136.358 116.054 135.694 116.031 135.502C115.994 135.185 100.069 136.63 86.1211 138.365C81.4692 138.944 77.6881 140.472 76.0884 138.041C74.4886 135.611 74.4249 129.487 74.7816 127.521C74.9195 126.392 75.4247 125.339 76.2194 124.526C77.014 123.712 78.0542 123.182 79.1796 123.017L114.909 118.831C121.443 118.649 124.174 131.254 118.171 134.619C116.946 135.306 115.01 135.649 116.658 135.529C125.603 134.861 123.895 116.608 114.095 117.627C75.8791 121.592 77.3351 121.529 75.3076 123.626Z" fill="#20201E"/>
    <path d="M66.8948 171.584C68.0778 172.295 69.1761 175.375 73.1155 176.687C76.4907 177.812 79.0123 176.695 81.1845 174.632C85.0728 170.924 87.8278 166.187 89.1288 160.974C90.2108 156.599 93.6269 151.135 88.7712 145.959C85.6863 142.672 81.9462 143.239 78.7557 142.675C75.0711 142.024 78.5974 140.346 71.5112 134.973C68.4114 132.655 65.1968 130.495 61.8798 128.501C59.6958 126.681 59.1407 127.021 52.8462 122.145C43.6479 115.018 41.2801 112.075 36.0166 113.363C34.4005 113.759 33.2284 114.294 32.7497 117.04C32.2574 119.922 32.7654 122.885 34.1894 125.438C32.4103 124.582 31.0135 123.016 29.1571 122.344C26.1149 121.252 22.4385 123.135 21.2564 126.145C20.7291 127.679 20.6921 129.339 21.1506 130.896C21.6091 132.452 22.5404 133.827 23.8154 134.83C16.1614 131.943 13.4541 137.725 16.2178 142.989C18.9687 148.229 25.3351 151.033 32.1191 154.734C30.9034 156.425 28.592 157.049 27.3616 158.73C26.4052 160.038 25.3414 164.042 26.0139 166.122C27.0149 169.202 30.7932 170.664 33.7589 170.654C35.8847 170.647 37.9813 170.167 40.1035 170.032C46.9212 169.601 53.5014 172.731 60.381 172.586C66.0011 172.471 65.487 170.738 66.8948 171.584Z" fill="white"/>
    <path d="M91.9336 150.749C90.9153 141.339 80.3993 142.325 77.47 141.831C74.6135 133.406 68.2499 131.705 55.2232 122.543C48.755 117.936 44.7537 113.149 39.9434 112.085C34.3178 110.802 29.9271 115.019 32.2357 121.988C32.6398 123.139 32.7062 122.307 30.0517 121.411C23.6299 119.292 17.4846 125.983 20.3857 131.876C20.9199 132.968 21.1629 133.041 21.0336 133.021C14.0266 132.089 10.0872 142.148 21.0091 149.597C33.3914 157.669 31.5714 152.364 27.4182 157.261C22.264 163.148 25.0231 170.754 32.1202 171.624C34.046 171.781 35.9835 171.717 37.895 171.436C47.3499 169.872 57.1142 176.474 66.5345 172.164C78.7686 190.554 93.3377 163.372 91.9336 150.749ZM21.6934 128.791C21.7336 127.93 21.9694 127.089 22.383 126.332C22.7966 125.575 23.377 124.922 24.0803 124.423C30.4439 119.796 32.7417 128.55 47.6493 134.16C45.2566 137.627 43.3068 141.38 41.8453 145.33C36.3125 141.976 30.9754 137.873 25.2342 134.697C23.8319 133.922 21.5414 131.343 21.6934 128.791ZM89.6276 154.955C88.6648 160.567 86.5473 166.611 83.122 171.127C77.8213 178.176 73.0683 178.225 67.8804 171.461C74.2814 167.639 76.318 159.771 75.8047 159.582C75.2341 159.354 73.1038 165.868 67.3417 169.366C58.5029 174.703 48.9097 167.778 37.6593 169.214C35.2023 169.479 32.2849 169.843 30.1209 168.754C23.5179 165.446 27.2371 153.771 42.5943 154.05C46.4882 154.094 48.795 155.028 48.9361 154.694C49.4466 153.911 40.4876 150.326 32.2903 153.849C27.6211 151.541 19.5558 147.362 17.3017 142.685C15.1641 138.374 17.3163 134.768 20.7506 135.223C24.0803 135.654 34.3597 143.167 41.3649 146.757C41.1337 147.49 40.1054 151.002 40.554 151.14C41.0919 151.304 43.1639 145.532 46.8804 139.02C50.5731 132.5 54.2586 127.586 53.8191 127.215C53.5579 126.994 51.2484 129.175 48.5611 132.874C45.8825 131.642 43.2925 130.225 40.8098 128.634C37.3445 126.403 35.4853 125.267 34.1959 121.332C33.3241 118.619 33.3851 115.963 35.8948 114.552C39.0507 113.03 42.5506 115.388 45.3397 117.532C51.1182 122.056 47.5083 120.364 66.5928 132.386C70.1017 134.596 72.9628 136.358 75.2378 140.547C79.0452 147.491 76.4818 155.577 77.0014 155.707C77.2525 155.771 79.4201 149.683 77.9241 143.394C83.4405 144.407 91.4176 144.114 89.6276 154.955Z" fill="#20201E"/>
    <path d="M63.8825 69.1598C65.0654 77.6783 65.0427 78.1688 65.5914 79.1698C67.2413 82.1928 73.5867 82.8607 76.9273 81.2782C78.0356 80.7882 78.9844 79.9974 79.6661 78.9955C80.3477 77.9936 80.735 76.8207 80.7839 75.6098C80.7157 74.571 80.4921 73.5483 80.1205 72.5759C73.2955 51.7005 73.5821 55.9848 74.8116 51.3319C76.4343 49.9235 77.8868 48.3302 79.1395 46.5845C79.305 46.4029 79.4235 46.1835 79.4844 45.9455C79.5453 45.7075 79.5469 45.4582 79.489 45.2195C78.9684 40.7277 78.488 43.4368 82.674 39.1534C83.3437 38.4673 83.2391 37.8621 82.4738 37.3098C81.3299 36.4826 81.0878 36.7638 80.732 34.7618C80.5761 33.888 80.3129 33.0368 79.9485 32.2274C77.7186 33.0831 75.5427 34.0735 73.4329 35.1931C73.2454 34.3504 74.15 32.9954 74.473 32.2219C76.4841 27.4171 78.0393 28.8549 72.623 26.468C71.1579 30.0874 69.5345 33.6364 67.7527 37.115C67.2297 35.6838 66.9827 34.1665 67.0247 32.6433C67.1958 31.7333 67.4415 32.06 68.8447 27.6137C68.9912 27.1487 68.9985 27.2988 65.0318 26.4835C63.2841 30.3111 62.5772 34.5321 62.9825 38.7203C61.9505 37.1341 59.9476 36.6882 59.2333 34.2203C58.9939 33.3931 58.832 33.1156 57.9119 33.2557C55.6788 33.597 55.6424 33.5751 55.5032 33.6943C54.8662 34.2403 56.8973 38.5346 57.4569 39.5047C62.2608 47.843 59.7447 39.3272 63.8825 69.1598Z" fill="white"/>
    <path d="M103.592 75.0129C102.978 72.0299 101.26 71.8561 98.4958 73.1656C98.1118 73.3476 98.0572 73.4968 98.1072 73.8663C98.2082 74.6205 98.3556 75.3679 98.5486 76.104C95.1124 77.4572 95.1816 77.2979 95.3062 77.7784C97.7296 86.9921 97.6722 86.5371 97.5312 86.7655C96.7723 87.2181 95.9481 87.5512 95.0878 87.7529C94.5673 87.8939 94.379 88.0168 94.3225 88.6092C94.2312 89.578 94.3594 90.555 94.6975 91.4675L95.3208 113.481L109.493 111.843C110.445 109.511 111.615 113.986 103.592 75.0129Z" fill="white"/>
    <path d="M88.0196 41.1637C87.9168 41.9244 87.6156 42.8808 86.8494 42.9209C86.2706 42.9518 85.0849 41.9599 84.7009 43.587C84.6535 43.995 84.5404 44.3927 84.366 44.7645C81.353 44.9092 83.092 43.3085 81.7461 48.552C84.7218 49.4811 83.3786 48.6093 83.0829 51.2155C83.0483 51.5213 85.4425 51.726 85.6946 52.1628C85.9093 52.5341 85.9057 52.1219 83.9829 62.5514C83.5197 65.0666 83.4633 66.024 84.8929 69.6594C89.6795 81.8534 88.8969 81.9972 91.5286 84.0229C92.5642 84.82 93.9856 85.3451 94.3915 86.5863C94.6035 87.2324 94.6062 87.6419 95.3388 87.6674C96.1863 87.6302 97.0136 87.3968 97.7557 86.9858L95.2077 77.4163C95.9439 77.2188 98.4291 76.377 98.7221 75.9466C99.0507 75.4661 98.5547 73.8736 98.2135 73.2066C103.174 72.2839 99.937 72.7844 101.717 67.8949C102.584 65.5116 102.593 65.3697 102.83 65.2113C103.267 64.9201 105.891 65.3642 106.399 65.4616C107.461 55.4325 108.551 54.7755 109.493 46.3634C109.904 42.6715 109.485 41.9736 104.808 39.1498C102.379 37.6829 101.611 37.4045 98.3327 37.1943C93.6744 36.8967 88.6111 36.7884 88.0196 41.1637Z" fill="white"/>
    <path d="M103.064 61.5995L93.54 60.4192L93.8367 58.0851L95.0716 58.2416L94.9323 59.3372L103.217 60.3637L103.064 61.5995Z" fill="#20201E"/>
    <path d="M96.2572 62.011L96.0889 63.2454L99.8082 63.7526L99.9765 62.5182L96.2572 62.011Z" fill="#20201E"/>
    <path d="M108.329 48.6065L108.525 47.4663L102.162 46.3642L101.963 47.5045L101.144 47.3625L100.917 48.6756L99.48 48.4409L99.7221 47.044L98.9031 46.9021L99.1106 45.6726L85.062 43.1665L84.8945 44.1111L92.594 45.4834C92.5203 45.9056 92.7023 45.8283 91.7195 45.6581L91.0561 49.4801L91.8751 49.622L91.6786 50.7614L98.0431 51.8697L98.2406 50.7313L99.0596 50.8724L99.278 49.6111L100.715 49.845L100.481 51.1909L101.3 51.3338L101.103 52.4731L107.472 53.5714L107.669 52.4321L108.488 52.5732L109.151 48.7512L108.329 48.6065Z" fill="#20201E"/>
    <path d="M85.3991 83.9837L74.835 54.5443C75.472 51.5849 74.521 53.3058 80.1885 46.2715L79.8545 43.0091L84.4045 38.4263C81.0776 34.8364 82.0285 36.4307 80.4296 31.2992L74.5292 33.8691L77.5959 28.218L72.7729 25.1049C68.0664 34.3568 68.9354 32.5669 67.9726 34.7964C67.7206 32.5159 67.4121 34.0929 70.0584 26.9158L64.7804 25.2286C61.8283 32.8098 62.3234 30.0607 62.3234 37.2734C60.2631 34.9893 60.9274 36.1623 59.4887 31.9453L54.3545 32.7889C55.4711 37.8631 54.4737 35.498 59.0756 43.4186C61.0257 48.2998 59.769 41.1436 65.1981 86.0912L68.0473 85.6126L69.374 91.1709L73.702 89.8432L74.5037 92.959L83.4217 89.896L82.2924 85.6308L85.3991 83.9837ZM60.4943 42.7862C56.0999 35.2887 56.8989 37.1323 56.2227 34.0593L58.4349 33.6953C59.5388 36.9303 58.3985 35.2523 63.874 41.3256C63.874 29.9406 63.4017 33.0519 65.694 27.1578L68.0263 27.9031L66.1872 32.8908L67.0617 40.8078C68.9003 36.1995 71.0066 31.7025 73.3699 27.3398L75.532 28.7348C71.2113 36.6983 72.2232 34.2322 70.8091 39.7613C76.22 34.3013 74.2453 35.6791 79.4541 33.4113L80.1585 35.67L71.2286 42.2693L70.8018 44.5561L67.6705 44.1011L66.6586 51.1918L68.2001 51.4111L68.9909 45.8656L72.0585 46.3115L72.6464 43.1574L80.9683 37.0067L82.2424 38.3808L78.2265 42.4267L78.5696 45.7846C72.9276 52.7916 74.0332 50.8442 73.2161 54.6398L79.3622 72.0718L76.8797 72.7752L77.5167 74.8891L74.6702 75.7373L75.5302 78.4181L72.8693 79.3045L71.8684 77.0877L68.525 77.9886L67.9499 75.9866L65.7168 76.7838C61.3861 41.7187 62.489 47.8731 60.4943 42.7862Z" fill="#20201E"/>
    <path d="M116.947 109.769L116.598 103.494C116.484 101.458 116.104 99.4466 115.468 97.51L105.943 68.5425C105.752 67.9596 105.251 67.5323 104.645 67.4345L103.724 67.2858C103.347 67.2249 103.09 66.8723 103.146 66.4947C103.2 66.1315 103.526 65.8724 103.892 65.9023L105.09 66.0002C106.122 66.0844 107.045 65.3606 107.208 64.3386L111.463 37.794C111.549 37.2561 111.199 36.7448 110.667 36.6299C110.13 36.514 109.779 35.995 109.873 35.4534L109.982 34.8199C110.107 34.0973 109.633 33.4071 108.913 33.265L108.767 33.2362C108.13 33.1103 107.71 32.4998 107.819 31.8597C107.93 31.2093 107.494 30.5916 106.843 30.4784L95.4417 28.4928C94.7591 28.3739 94.1065 28.822 93.9723 29.5018C93.8372 30.186 93.1774 30.6347 92.4914 30.5088L92.4145 30.4947C91.7092 30.3652 91.0331 30.8336 90.9065 31.5393L90.8762 31.7081C90.768 32.3111 90.1957 32.7154 89.5912 32.6159C88.9851 32.5161 88.4116 32.923 88.3055 33.528L87.0423 40.7309C86.9179 41.4401 86.2291 41.9039 85.5251 41.7524L85.4608 41.7386C84.7951 41.5953 84.1429 42.0315 84.0211 42.7016L83.9775 42.9414C83.8782 43.4877 83.3426 43.8402 82.8016 43.7154C82.2659 43.5919 81.7344 43.9364 81.6283 44.4758L80.9081 48.1386C80.7975 48.7013 81.1553 49.2498 81.7149 49.3753C82.2817 49.5023 82.6401 50.0625 82.5179 50.6304L82.4845 50.7854C82.3491 51.4147 82.7267 52.0408 83.3465 52.2146L83.5375 52.2681C84.2354 52.4639 84.6763 53.1511 84.5632 53.8671L82.6228 66.1563C82.5496 66.6195 82.2368 67.0094 81.8005 67.1812C81.1301 67.4452 80.7941 68.197 81.0446 68.8726L86.3387 83.1505C86.6933 84.1071 86.2644 85.1767 85.347 85.6231C84.4748 86.0475 84.0376 87.0407 84.3137 87.9706L84.4458 88.4153C84.8318 89.7154 84.1241 91.0886 82.8413 91.5287L79.1549 92.7933C76.3646 93.7506 74.5496 96.4446 74.7105 99.3902L75.556 114.867C75.5802 115.318 75.7768 115.741 76.105 116.051C76.4331 116.36 76.8677 116.531 77.3186 116.529C77.4829 116.529 76.3928 116.66 92.8058 114.603C94.6926 114.366 96.0729 112.7 95.9495 110.803L95.8599 109.426C95.7846 108.27 96.6357 107.26 97.7879 107.139C99.0886 107.003 99.9697 105.75 99.6584 104.48L96.0287 89.6704C95.8431 88.9133 96.2861 88.1443 97.034 87.925C97.781 87.7059 98.224 86.9385 98.0399 86.1821L96.3954 79.4224C96.1512 78.4184 96.725 77.3965 97.7093 77.0824L98.0937 76.9597C98.8543 76.717 99.3008 75.9305 99.1192 75.1529L98.9525 74.439C98.857 74.0298 99.1042 73.6189 99.5104 73.5116C99.9425 73.3975 100.382 73.6708 100.47 74.1089L100.821 75.8509C101.021 76.8429 100.449 77.8281 99.4881 78.1458C98.4977 78.4733 97.9252 79.5067 98.1727 80.5199L104.015 104.444C104.195 105.182 104.886 105.678 105.643 105.613C106.4 105.549 107.091 106.045 107.271 106.783L107.757 108.777C108.247 110.784 110.205 112.071 112.241 111.724L115.968 111.09C116.271 111.04 116.542 110.874 116.725 110.627C116.907 110.381 116.987 110.074 116.947 109.769ZM101.739 65.3854C101.633 66.0868 100.987 66.5755 100.283 66.4856L94.4012 65.7343C93.7385 65.6496 93.2714 65.0417 93.3602 64.3795C93.4483 63.7234 92.9902 63.1192 92.3347 63.0269L90.9022 62.825C90.6287 62.7864 90.438 62.5336 90.4761 62.26C90.5144 61.9851 90.3217 61.7315 90.0466 61.6946L89.7701 61.6575C89.344 61.6003 88.9522 61.8995 88.8951 62.3256L88.8286 62.822C88.7353 63.5188 89.2217 64.1603 89.9178 64.2584L90.1719 64.2943C91.0097 64.4124 91.5946 65.1851 91.4829 66.0238C91.2596 67.7013 91.0243 69.5105 90.8099 71.1426C90.7524 71.5801 91.0602 71.9812 91.4977 72.039C91.9352 72.0968 92.3367 71.7889 92.3944 71.3513L92.4431 70.9823C92.5267 70.3479 93.1041 69.8981 93.7397 69.9722L99.1574 70.6038C99.5261 70.6467 99.8252 70.9221 99.8983 71.286C99.9878 71.7308 99.7151 72.1683 99.2762 72.2837L98.6954 72.4365C97.9132 72.6423 97.4368 73.4332 97.6207 74.2209L97.6358 74.2856C97.821 75.0791 97.3653 75.8817 96.589 76.1292L96.2267 76.2447C95.239 76.5596 94.6632 77.5849 94.9083 78.5922L96.7006 85.9553C96.7979 86.3552 96.5637 86.7611 96.1686 86.8768C95.7475 87.0001 95.3085 86.7472 95.2039 86.321L93.7311 80.3158C93.5943 79.7584 93.0362 79.4134 92.4765 79.5403C91.9204 79.6663 91.3651 79.3265 91.2243 78.7739L90.0855 74.306C89.9394 73.7327 89.3598 73.3831 88.7846 73.5213C88.2558 73.6484 87.715 73.3632 87.5211 72.8551L84.9921 66.2264C84.9373 66.0829 84.7758 66.0117 84.6329 66.068C84.4342 66.1463 84.2257 65.979 84.259 65.7681L86.321 52.7088C86.4306 52.0145 86.0032 51.3481 85.3264 51.1581L85.2117 51.1259C84.571 50.9461 84.1808 50.299 84.3208 49.6485L84.3595 49.4686C84.4834 48.8929 84.1203 48.3248 83.5459 48.1954C82.9785 48.0677 82.6161 47.5113 82.7284 46.9407L82.8417 46.3655C82.9491 45.8199 83.4863 45.471 84.0285 45.5947C84.5759 45.7195 85.1169 45.3628 85.2178 44.8105L85.3897 43.8697C85.4433 43.5761 85.7292 43.3852 86.0209 43.4482C86.3027 43.509 86.4837 43.7846 86.4276 44.0674L86.0427 46.0065C85.8413 47.0215 86.5063 48.0061 87.5232 48.1982C88.537 48.3898 89.5133 47.7202 89.6998 46.7055L90.613 41.7382C90.7351 41.0737 91.3763 40.6369 92.0394 40.7663L92.3284 40.8228C92.8326 40.9212 93.3202 40.5888 93.4128 40.0835C93.5052 39.5798 93.9899 39.2477 94.4929 39.3433L99.5245 40.3C99.9185 40.3749 100.188 40.7411 100.142 41.1395C100.096 41.5435 100.373 41.9133 100.774 41.9817L103.451 42.4382C103.86 42.508 104.129 42.9034 104.045 43.3095C103.96 43.7145 104.228 44.1091 104.635 44.1803L106.376 44.4842C107.691 44.7138 108.578 45.9571 108.366 47.2752L106.709 57.6196C106.656 57.9505 106.351 58.1803 106.018 58.1397C105.673 58.0976 105.429 57.7817 105.476 57.4373L105.541 56.9553C105.624 56.3451 105.191 55.7853 104.58 55.7117L93.1434 54.3352C92.4963 54.2573 91.9065 54.7132 91.8188 55.3591L91.7853 55.6052C91.7148 56.1243 91.2357 56.4871 90.717 56.4144C90.2003 56.3419 89.7226 56.7015 89.6494 57.218L89.5275 58.0769C89.467 58.5029 89.7637 58.8971 90.1898 58.9569L90.4484 58.9932C90.7312 59.0329 90.9926 58.8359 91.0323 58.5531C91.072 58.2704 91.3333 58.0734 91.616 58.1129L92.0428 58.1726C92.5628 58.2453 93.0428 57.8818 93.1138 57.3616L93.1492 57.1023C93.2384 56.448 93.8362 55.9863 94.4918 56.0653L102.822 57.0686C103.433 57.1422 103.865 57.7013 103.782 58.3109C103.7 58.9196 104.131 59.4783 104.74 59.5529L104.981 59.5823C105.735 59.6746 106.262 60.3749 106.142 61.1255L105.895 62.6672C105.731 63.6918 104.805 64.4172 103.771 64.3316L103.137 64.2791C102.452 64.2224 101.841 64.7062 101.739 65.3854Z" fill="#20201E"/>
    <path d="M93.2172 46.3157L92.9883 47.6355L94.3081 47.8644L94.537 46.5446L93.2172 46.3157Z" fill="white"/>
    <path d="M94.3066 47.8647L94.0781 49.1846L95.398 49.4131L95.6265 48.0932L94.3066 47.8647Z" fill="white"/>
    <path d="M102.642 48.021L102.413 49.3409L103.733 49.5694L103.961 48.2495L102.642 48.021Z" fill="white"/>
    <path d="M103.732 49.5695L103.504 50.8894L104.824 51.1178L105.052 49.7979L103.732 49.5695Z" fill="white"/>
    <path d="M49.283 129.112C50.3822 128.305 58.3529 122.486 58.2556 122.378C61.5115 126.068 61.0838 127.463 62.1895 126.389C62.7355 125.859 65.1342 123.75 65.8768 123.92C67.3201 124.245 72.6599 133.305 75.8522 136.769C76.148 137.089 76.1689 137.283 75.7922 137.594C72.2204 140.542 72.0721 140.563 72.0666 140.922C72.0593 141.32 72.8046 141.911 74.3617 144.723C75.2653 146.356 68.1099 148.851 64.995 152.116C64.5735 152.558 64.1093 152.957 63.6091 153.307C61.1657 155.02 59.6542 149.878 58.19 149.561C57.6249 149.438 57.4174 149.666 53.6646 151.901C53.1677 152.197 52.8893 152.215 52.4061 151.602C50.7485 149.505 45.6273 142.666 44.2948 140.483C44.2066 140.338 44.0786 140.195 44.0978 140.027C44.1169 139.859 44.2732 139.745 44.3856 139.619C46.1993 137.58 46.9916 137.825 47.2336 137.192C47.614 136.201 42.9139 133.617 45.4528 131.649C46.6722 130.704 47.9052 130.123 49.283 129.112Z" fill="#FFF8D9"/>
    <path d="M33.0088 99.5001C32.9945 99.5991 32.9764 99.5977 33.2908 100.265C34.2699 102.344 32.7595 104.16 31.9997 106.329C31.6775 107.254 34.4385 111.042 35.1847 112.465C36.1529 114.31 37.3614 118.227 38.579 118.38C39.762 118.529 42.1798 115.3 43.1544 116.761C44.888 119.361 45.8171 121.23 46.819 120.711C47.3195 120.453 47.092 119.973 48.8856 119.009C57.0929 114.6 57.1566 114.585 57.2694 114.25C57.4596 113.691 56.6479 113.222 55.3284 110.086C55.2019 109.785 55.2374 109.657 55.5441 109.477C58.1531 107.964 58.9639 107.475 58.9366 106.776C58.912 106.13 52.3354 94.476 52.0005 93.8881C51.7685 93.4795 51.5947 93.4486 51.2361 93.6151C50.7435 93.8471 50.2573 94.0921 49.7779 94.3498C48.6186 94.973 47.1455 94.6356 46.4695 93.5063C45.8012 92.39 44.3436 92.0398 43.2382 92.7262C35.4247 97.5777 33.0661 99.102 33.0088 99.5001Z" fill="#FFF8D9"/>
    <path d="M59.5264 106.252C51.9188 92.1909 52.4484 92.0835 50.7677 93.1655C50.7677 93.1655 48.1205 94.8518 48.105 94.8636C47.5192 93.8966 46.9949 92.8936 46.5353 91.8606C45.9893 90.7604 45.3413 90.6075 44.3513 91.3856C44.1556 91.5357 45.1339 90.8614 32.807 98.6201C32.5776 98.7679 32.4119 98.9963 32.3425 99.2602C32.2732 99.5241 32.3051 99.8045 32.4321 100.046L34.3221 103.801C32.1645 105.209 30.8159 105.698 31.4302 106.877C38.0732 119.617 37.5608 119.064 38.1878 119.232C38.7393 119.379 38.6674 119.296 42.6468 116.971C45.3823 121.484 45.2221 121.404 45.7527 121.546C46.3414 121.701 45.7345 122.135 57.4316 114.951C57.6575 114.809 57.8226 114.588 57.8949 114.33C57.9672 114.073 57.9415 113.799 57.8229 113.56C57.7911 113.487 57.0403 111.75 56.0775 109.89L59.0368 108.135C59.3432 107.943 59.5645 107.641 59.6555 107.291C59.7465 106.941 59.7003 106.569 59.5264 106.252ZM52.7797 106.144L54.7116 109.816L46.5435 114.991C43.8135 109.799 44.9646 110.168 40.2645 113.145L35.5807 104.249C35.6808 103.982 35.2167 104.34 38.8567 102.033C39.7867 101.444 38.9331 100.534 37.2596 97.3524C46.235 91.7368 45.2886 92.2164 45.375 92.4029C45.4615 92.5895 45.375 92.423 46.9875 95.4924C47.6364 96.9338 48.3935 96.2204 51.5994 94.1501C51.624 94.1975 56.295 102.992 56.295 102.992C53.1082 105.014 52.2965 105.228 52.7797 106.144ZM33.6415 99.6101L36.4461 97.8611L38.2479 101.286L35.3987 103.093L33.6415 99.6101ZM56.6017 113.962L46.0966 120.211C42.5303 114.327 44.0246 114.69 38.55 117.89L32.635 106.433L34.8782 104.968C39.8313 114.38 39.5192 114.025 40.0006 114.154C40.4428 114.274 40.3937 114.199 43.879 111.992C45.4387 114.954 45.8992 116.532 46.8911 115.905L55.0365 110.745C55.7827 112.141 56.4006 113.511 56.6017 113.962ZM58.3844 107.04C55.3704 108.817 55.3968 108.806 55.3022 108.878L53.6751 105.784L56.7573 103.833C58.4854 107.016 58.5127 106.966 58.3826 107.04H58.3844Z" fill="#20201E"/>
    <path d="M68.2677 116.495C68.1885 117.079 68.2941 117.334 68.9629 117.49C71.0723 117.981 72.1125 117.521 72.3181 118.218C72.4228 118.575 72.067 119.179 72.0324 121.203C71.9987 123.182 77.8291 122.392 81.2625 123.283C82.875 123.702 83.9361 123.847 84.1954 122.154C84.6905 118.921 84.6504 118.854 84.8743 118.653C86.7296 116.951 89.655 117.069 89.9518 114.568C90.1769 112.672 90.3844 110.77 90.5887 108.876C90.7008 107.835 89.8581 106.947 88.8229 106.795C88.0228 106.677 87.5414 105.933 87.6533 105.132C87.8146 103.978 87.9593 102.551 87.5279 102.21C87.3321 102.081 87.1071 102.004 86.8736 101.985C74.8179 100.026 75.5432 100.101 75.2401 100.194C73.5648 100.704 75.7761 104.592 73.1071 104.18C68.9511 103.541 70.2451 101.93 68.2677 116.495Z" fill="#FFF8D9"/>
    <path d="M88.1578 105.916L88.5627 102.431C88.5991 102.167 88.5296 101.899 88.3691 101.686C88.2087 101.472 87.9705 101.331 87.7064 101.293C73.9909 99.3763 74.8254 99.3818 74.3695 99.8868C74.0683 100.222 74.1301 100.297 73.6779 103.687C70.8851 103.281 69.7048 102.838 69.4254 104.101C69.4045 104.192 69.5301 103.702 67.6255 116.691C67.5993 116.859 67.6072 117.03 67.6485 117.194C67.6899 117.359 67.7639 117.514 67.8662 117.649C67.9685 117.784 68.097 117.898 68.244 117.983C68.391 118.067 68.5536 118.122 68.722 118.142L71.6668 118.476C71.4183 120.193 71.3292 121.785 71.3301 121.803C71.3119 121.935 71.32 122.07 71.3539 122.198C71.3878 122.327 71.4468 122.448 71.5275 122.554C71.6083 122.66 71.7092 122.749 71.8245 122.816C71.9397 122.883 72.067 122.926 72.1991 122.943C84.243 124.49 83.6023 124.371 84.0555 124.029C84.4814 123.707 84.3831 123.688 85.2385 119.354C89.3126 119.791 89.2607 119.876 89.6793 119.56C90.158 119.196 89.9059 119.799 91.5221 107.449C91.6959 106.135 90.1325 106.227 88.1578 105.916ZM84.4941 102.145L87.266 102.523L86.8929 105.731L84.0646 105.327L84.4941 102.145ZM70.7695 104.559C73.454 104.97 74.8163 105.568 74.9446 103.862C74.9446 103.862 75.3368 100.885 75.3386 100.859C75.9975 100.998 74.2357 100.743 83.5441 102.022C82.8834 106.916 82.2883 106.046 87.0339 106.724C87.1249 106.861 87.1932 106.099 85.9419 115.352C81.028 114.65 81.9289 113.971 81.25 119.002L72.898 117.808C73.5714 112.823 74.2475 113.681 69.4773 112.999C70.5502 105.95 70.502 104.515 70.7695 104.559ZM72.0099 117.238C71.9189 117.219 71.8224 117.211 68.8895 116.885L69.3354 113.945L72.3957 114.382L72.0099 117.238ZM88.8403 118.458C83.3184 117.867 84.3959 117.051 83.232 122.927L72.6177 121.705C72.6505 121.227 72.7415 120.031 72.918 118.774C82.0026 120.072 81.3264 119.981 81.4192 119.981C82.3292 119.981 82.2018 119.137 82.6468 115.845L86.0029 116.324C87.0749 116.482 86.8492 115.827 88.0158 107.187L90.2271 107.534L88.8403 118.458Z" fill="#20201E"/>
    <path d="M64.2827 96.8905C62.0521 96.8288 63.6273 93.8063 61.9563 92.3274C61.8433 92.2287 61.7576 92.2504 59.3529 92.0085C59.2849 92.0017 59.2152 91.9905 59.15 91.97C58.7019 91.8287 58.5458 91.3074 58.6153 90.8426C60.8166 76.1293 60.404 77.9715 60.6805 77.6619C61.343 76.9193 62.9719 77.6018 63.8227 77.6309C64.6736 77.6601 64.3742 76.741 64.3796 76.2377C64.4031 74.4545 65.5458 73.4368 67.3137 73.6719C68.8302 73.8735 71.2575 74.2063 75.1677 74.7244C76.2069 74.8619 76.4667 75.2691 75.9826 78.1701C75.8557 78.9305 76.324 79.6697 77.0741 79.8477C77.7889 80.0174 78.2713 80.6922 78.1999 81.4234C77.3148 90.4876 77.3175 93.0899 75.953 92.9071C73.4205 92.5677 73.4259 92.5331 73.1957 92.6723C72.2739 93.2302 72.4677 97.8111 71.1728 97.7547C67.9514 97.6155 66.1068 96.9939 64.8465 96.9129C64.6888 96.9023 64.4955 96.8964 64.2827 96.8905Z" fill="#FFF8D9"/>
    <path d="M76.2374 79.0487C76.6424 75.6426 77.1128 74.3031 75.8789 74.1348C63.9724 72.4767 64.7004 72.4631 64.2709 73.0464C64.0452 73.3512 64.0998 73.2575 63.5957 77.0722C61.0277 76.6236 60.0703 76.2623 59.8492 78.0141C58.0665 92.1646 57.8035 91.4766 58.2813 92.0936C58.658 92.5795 58.861 92.5031 61.4781 92.7807C61.2151 94.6216 61.0941 96.3351 61.0932 96.367C61.069 96.4969 61.0711 96.6305 61.0994 96.7596C61.1277 96.8888 61.1816 97.0109 61.258 97.1189C61.3343 97.2268 61.4316 97.3183 61.544 97.388C61.6563 97.4577 61.7815 97.5041 61.9122 97.5245C70.3078 98.5692 71.5163 98.5628 71.6137 98.5628C72.7457 98.5628 72.6538 97.2215 73.3718 93.333L76.4713 93.637C76.6019 93.6502 76.7339 93.6374 76.8595 93.5991C76.9851 93.5608 77.1019 93.4979 77.2029 93.4141C77.304 93.3302 77.3873 93.2271 77.4481 93.1107C77.5089 92.9943 77.5459 92.8669 77.5569 92.7361L79.1139 80.5348C79.2877 79.2399 77.971 79.3254 76.2374 79.0487ZM62.672 92.1482C63.3809 86.8547 63.946 87.7192 59.8902 87.1432C59.8902 87.1432 61.1296 78.0641 61.1369 78.0132C63.4637 78.349 64.715 78.9541 64.8679 77.2069C64.8679 77.2069 65.2865 74.0137 65.291 73.9682C65.5313 74.0392 65.038 73.9609 72.238 74.9356C71.5536 80.0388 70.964 79.2198 75.0735 79.804C75.2237 80.0689 75.3156 78.9341 73.987 89.1498C69.6718 88.5355 70.4962 87.8175 69.8319 93.1683L62.672 92.1482ZM74.9698 78.8813L72.6566 78.5528L73.1252 75.0529L75.3893 75.3551L74.9698 78.8813ZM59.2786 91.2628C59.3223 91.1718 59.4752 89.9506 59.7582 88.0295L62.2698 88.3863L61.8476 91.5376C61.782 91.5258 61.1869 91.4648 59.2786 91.2628ZM76.3229 92.3393C71.5309 91.8697 72.5009 91.0244 71.3516 97.2533L62.3799 96.2869C62.4191 95.7891 62.5328 94.455 62.7285 93.0609C70.0558 94.1029 69.8647 94.0838 69.9602 94.0838C70.883 94.0838 70.7365 92.8316 71.1323 89.6466L74.0234 90.0579C75.0071 90.2035 74.8214 89.3809 76.0372 80.3091L77.8181 80.5939L76.3229 92.3393Z" fill="#20201E"/>
    <path d="M76.5484 136.454C76.5484 136.454 67.0899 123.618 66.9807 123.487C66.3965 122.814 65.6557 122.802 64.7057 123.499C64.7057 123.499 61.8847 125.549 61.8228 125.6C59.5578 122.468 58.9436 120.653 56.9752 122.394C56.7796 122.567 57.8188 121.751 44.2543 131.537C43.9706 131.742 43.7793 132.05 43.7224 132.396C43.6655 132.741 43.7474 133.095 43.9504 133.38L46.4693 136.994C43.8976 138.913 43.4281 139.071 43.3079 139.823C43.1869 140.59 42.8802 139.997 52.0239 152.701C52.2271 152.983 52.5334 153.174 52.8764 153.232C53.2194 153.29 53.5716 153.211 53.8567 153.012L57.8816 150.295C61.4497 154.607 61.3969 154.795 62.2332 154.795C62.812 154.795 61.9156 155.55 75.0396 146.29C75.3195 146.093 75.5112 145.795 75.5736 145.459C75.6361 145.123 75.5642 144.775 75.3736 144.491C75.329 144.418 74.2943 142.721 73.0003 140.969C76.3782 138.659 76.7077 138.618 76.8569 137.713C76.8925 137.493 76.8835 137.268 76.8305 137.052C76.7775 136.836 76.6816 136.633 76.5484 136.454ZM68.5468 137.349L71.1548 140.943L62.2323 147.42C58.4503 142.209 59.8426 142.46 54.6666 146.219L48.2865 137.429C48.383 137.069 47.8634 137.535 51.7837 134.686C51.8875 134.611 51.9755 134.516 52.0426 134.406C52.1097 134.297 52.1545 134.175 52.1745 134.048C52.1945 133.922 52.1894 133.792 52.1593 133.667C52.1293 133.543 52.0749 133.425 51.9993 133.321L49.5096 129.89C59.263 122.89 58.17 123.49 58.4085 123.818C61.8501 128.568 60.8181 128.519 65.8277 124.807C65.8413 124.827 72.1895 133.497 72.1895 133.497L68.7634 135.983C68.6592 136.058 68.5709 136.153 68.5036 136.263C68.4363 136.372 68.3913 136.494 68.3712 136.621C68.3511 136.748 68.3562 136.877 68.3864 137.002C68.4165 137.127 68.471 137.245 68.5468 137.349ZM45.5738 132.708L48.5332 130.59L50.8946 133.845L47.8916 136.029L45.5738 132.708ZM73.7365 145.107L62.3014 152.947C57.4639 147.101 59.1674 147.36 53.2015 151.39L45.1625 140.118L47.4948 138.377C54.3326 147.797 53.8967 147.404 54.4664 147.496C54.9942 147.58 54.8149 147.596 58.787 144.713C60.9374 147.676 61.6681 149.318 62.7592 148.524L71.6717 142.054C72.5817 143.298 73.3725 144.53 73.7365 145.108V145.107ZM71.9165 139.634C71.7017 139.78 72.0821 140.175 69.6506 136.825L72.9093 134.459L75.1352 137.432L71.9165 139.634Z" fill="#20201E"/>
    <path d="M81.1725 102.3C81.9915 102.712 82.3118 103.574 83.2036 105.438C83.5531 104.675 83.7705 102.363 86.2831 101.633C86.5561 101.555 86.7026 101.371 86.4578 101.224C85.8645 100.867 84.0845 100.661 83.382 98.6165C82.3018 95.4734 83.5321 100.697 79.5654 101.576C80.0571 101.905 80.6003 102.15 81.1725 102.3Z" fill="white"/>
    <path d="M85.5583 100.456C82.4643 99.1007 83.4316 93.4541 82.3642 98.0851C81.5697 101.623 78.8716 101.179 78.9317 101.733C78.9098 102.231 81.6407 101.869 82.5771 104.895C83.2978 107.176 83.094 107.05 83.7929 104.901C85.1961 100.531 89.4139 102.076 85.5583 100.456ZM83.1859 104.702C83.0112 104.084 82.7076 103.511 82.2952 103.019C81.8829 102.528 81.3711 102.129 80.7935 101.85C80.192 101.57 80.2257 101.822 80.8508 101.446C81.3891 101.098 81.8524 100.646 82.2137 100.117C82.575 99.5876 82.8269 98.9915 82.9548 98.3636C83.1552 99.0903 83.5515 99.7481 84.1003 100.265C84.6492 100.782 85.3295 101.138 86.067 101.295C84.6765 101.738 83.6518 103.266 83.1859 104.702Z" fill="#20201E"/>
    <path d="M114.027 123.487C114.391 131.662 122.721 135.713 129.24 138.963C130.286 139.485 130.585 139.814 130.464 141.633C130.046 147.901 134.675 154.794 136.482 155.966C139.506 157.927 145.779 153.287 147.289 149.714C149.035 145.578 147.764 139.961 146.449 135.686C145.947 134.055 144.337 128.985 143.331 127.617C141.914 125.693 135.403 122.447 133.157 121.592C130.32 120.512 127.179 119.899 124.911 117.88C122.454 115.696 120.66 113.775 117.505 116.045C116.368 116.913 115.458 118.043 114.853 119.339C114.247 120.635 113.964 122.058 114.027 123.487Z" fill="white"/>
    <path d="M146.109 131.559C143.652 122.246 133.65 121.831 127.323 118.043C125.104 116.759 123.977 115.007 121.919 114.27C118.793 113.06 113.121 116.792 113.281 123.198C113.57 130.89 121.998 138.445 129.479 140.124C129.093 149.46 135.332 156.29 135.978 155.731C136.419 155.367 133.466 151.552 132.038 145.963C130.519 140.398 131.168 135.613 130.603 135.522C130.395 135.483 129.995 136.35 129.721 137.888C120.147 135.575 111.027 123.465 117.891 117.549C121.622 114.439 122.251 117.755 126.183 119.953C132.968 123.965 141.911 123.828 144.594 131.998C148.967 146.946 149.435 145.941 146.109 131.559Z" fill="#20201E"/>
</svg>
