<svg width="526" height="363" viewBox="0 0 526 363" fill="none" xmlns="http://www.w3.org/2000/svg">
    <path d="M19.1982 50.9673C-0.339128 38.6294 28.2205 22.7077 29.9518 12C29.9518 12 174.658 2.63785 267.5 2.49999C363.923 2.35682 514.223 12 514.223 12C514.223 24.8492 512.39 51.2615 505.057 54.1169C490.879 59.6381 526.218 74.9464 514.223 88.0246V163.335L524 187.606V222.942L492.225 240.788L514.223 251.495C489.125 294.636 552.232 337.157 478.17 337.157V360C478.17 360 354.159 345 273.5 345C192.841 345 65.0881 360 65.0881 360V337.157C-33.2875 368.499 53.1268 233.225 15.2861 217.945V187.606L19.1982 167.328C19.1982 133.306 3.11848 133.434 4.03798 108.726L24.4522 88.0246L4.03798 73.7477C8.31546 69.5836 37.0031 62.2112 19.1982 50.9673Z" fill="white" stroke="#20201E" stroke-width="4"/>
</svg>
