<svg width="204" height="32" viewBox="0 0 204 32" fill="none" xmlns="http://www.w3.org/2000/svg">
    <path d="M17.8967 11.8488C19.1575 11.8488 20.3245 12.3792 21.2229 13.2681C22.1155 14.1522 22.7424 15.3932 22.9286 16.8205L23.6038 22.0137C23.7829 23.3885 23.4588 24.717 22.7936 25.7525C22.1226 26.7943 21.1063 27.5414 19.9024 27.7485C19.8057 27.7645 19.7105 27.7772 19.6124 27.7868L19.3466 27.8122L19.0026 27.8425L18.6714 27.8712L18.353 27.8967L18.1227 27.9142L17.972 27.9253L17.8256 27.9349L17.6821 27.9445L17.5413 27.9524L17.3366 27.9636L17.1376 27.9731L16.9457 27.9811L16.7013 27.9907L16.525 27.9954L16.3573 27.9986H16.2478L16.0915 28.0002H15.9351L15.8257 27.9986L15.6579 27.9954L15.5414 27.9923L15.3011 27.9843L15.0481 27.9731L14.8491 27.9636L14.6444 27.9524L14.5037 27.9445L14.3601 27.9349L14.2137 27.9253L14.0631 27.9142L13.8328 27.8967L13.5144 27.8712L13.1832 27.8425L12.8392 27.8122L12.5734 27.7868C11.3609 27.6705 10.3019 27.003 9.57272 26.0121C8.84778 25.0293 8.44978 23.7278 8.54928 22.3419C8.55781 22.232 8.56776 22.122 8.58197 22.0121L9.25716 16.8189C9.44337 15.3916 10.0702 14.1507 10.9629 13.2665C11.8612 12.3776 12.7393 12.0002 14.0002 12.0002L17.9024 11.8472L17.8967 11.8488Z" fill="url(#paint0_linear_2976_1971)" stroke="#20201E"/>
    <path fill-rule="evenodd" clip-rule="evenodd" d="M13.6187 19.9312C14.0758 19.9312 14.4464 20.8805 14.4464 22.0515C14.4464 23.2225 14.0758 24.1718 13.6187 24.1718C13.1616 24.1718 12.791 23.2225 12.791 22.0515C12.791 20.8805 13.1616 19.9312 13.6187 19.9312ZM18.5848 19.9312C19.0419 19.9312 19.4125 20.8805 19.4125 22.0515C19.4125 23.2225 19.0419 24.1718 18.5848 24.1718C18.1277 24.1718 17.7571 23.2225 17.7571 22.0515C17.7571 20.8805 18.1277 19.9312 18.5848 19.9312Z" fill="#20201E"/>
    <path d="M14.0225 4.23928C16.5327 3.68092 20.5284 3.87818 24.2845 7.27767C28.1065 10.736 28.0462 11.7048 27.9845 13.7458C27.8381 14.6048 27.6429 15.1966 27.4004 15.5211C27.0674 15.9681 26.5837 16.361 25.9608 16.6871C24.794 17.298 23.1004 17.6861 21.0394 17.8484C19.1664 17.9947 18.0699 17.9168 17.1499 17.85C16.9691 17.8373 15.2037 17.7848 14.2593 17.9677C13.3035 18.1522 12.56 18.3988 11.8783 18.6231C10.7358 18.9985 9.75842 19.3119 8.35332 19.2578C7.11902 19.2101 6.17607 19.0415 5.51012 18.7074C4.74657 18.3256 4.29591 17.7418 4.12224 16.9067C3.83233 15.5115 3.78353 12.4716 7.2281 8.5487C10.3368 5.01081 13.8503 4.27746 14.0225 4.23928Z" fill="#20201E"/>
    <mask id="mask0_2976_1971" style="mask-type:luminance" maskUnits="userSpaceOnUse" x="3" y="3" width="27" height="18">
        <path d="M14.0225 4.23928C16.5327 3.68092 20.5284 3.87818 24.2845 7.27767C28.1065 10.736 28.0462 11.7048 27.9845 13.7458C27.8381 14.6048 27.6429 15.1966 27.4004 15.5211C27.0674 15.9681 26.5837 16.361 25.9608 16.6871C24.794 17.298 23.1004 17.6861 21.0394 17.8484C19.1664 17.9947 18.0699 17.9168 17.1499 17.85C16.9691 17.8373 15.2037 17.7848 14.2593 17.9677C13.3035 18.1522 12.56 18.3988 11.8783 18.6231C10.7358 18.9985 9.75842 19.3119 8.35332 19.2578C7.11902 19.2101 6.17607 19.0415 5.51012 18.7074C4.74657 18.3256 4.29591 17.7418 4.12224 16.9067C3.83233 15.5115 3.78353 12.4716 7.2281 8.5487C10.3368 5.01081 13.8503 4.27746 14.0225 4.23928Z" fill="white" stroke="#20201E" stroke-width="2"/>
    </mask>
    <g mask="url(#mask0_2976_1971)">
        <path fill-rule="evenodd" clip-rule="evenodd" d="M17.0741 11.2166C18.7938 11.2166 20.1879 12.2102 20.1879 13.4358C20.1879 14.6615 18.7938 15.655 17.0741 15.655C15.3544 15.655 13.9603 14.6615 13.9603 13.4358C13.9603 12.2102 15.3544 11.2166 17.0741 11.2166ZM25.4898 7.00491C27.2376 7.00491 28.6545 8.5676 28.6545 10.4953C28.6545 12.423 27.2376 13.9856 25.4898 13.9856C23.7419 13.9856 22.325 12.423 22.325 10.4953C22.325 8.5676 23.7419 7.00491 25.4898 7.00491ZM7.92514 5.26294C10.0994 5.26294 11.862 7.20687 11.862 9.60484C11.862 12.0028 10.0994 13.9467 7.92514 13.9467C5.75087 13.9467 3.98828 12.0028 3.98828 9.60484C3.98828 7.20687 5.75087 5.26294 7.92514 5.26294Z" fill="white"/>
    </g>
    <path d="M197.653 23.4099C196.893 23.4099 196.247 23.2965 195.713 23.0699C195.193 22.8299 194.8 22.4565 194.533 21.9499C194.28 21.4299 194.153 20.7499 194.153 19.9099V8.60986H197.113V19.4299C197.113 19.7499 197.167 20.0099 197.273 20.2099C197.393 20.4099 197.553 20.5499 197.753 20.6299C197.953 20.6965 198.18 20.7299 198.433 20.7299H203.113V23.4099H197.653Z" fill="#20201E"/>
    <path d="M185.889 23.53C184.876 23.53 183.989 23.4366 183.229 23.25C182.469 23.05 181.829 22.69 181.309 22.17C180.802 21.6366 180.422 20.8766 180.169 19.89C179.916 18.9033 179.789 17.6166 179.789 16.03C179.789 14.4433 179.916 13.1566 180.169 12.17C180.436 11.17 180.822 10.4033 181.329 9.86997C181.836 9.33664 182.469 8.96997 183.229 8.76997C183.989 8.56997 184.876 8.46997 185.889 8.46997C186.902 8.46997 187.789 8.56997 188.549 8.76997C189.309 8.96997 189.942 9.33664 190.449 9.86997C190.956 10.4033 191.336 11.17 191.589 12.17C191.842 13.1566 191.969 14.4433 191.969 16.03C191.969 17.6166 191.842 18.9033 191.589 19.89C191.336 20.8766 190.956 21.6366 190.449 22.17C189.942 22.69 189.309 23.05 188.549 23.25C187.789 23.4366 186.902 23.53 185.889 23.53ZM185.889 20.87C186.489 20.87 186.989 20.8033 187.389 20.67C187.789 20.5366 188.102 20.3033 188.329 19.97C188.569 19.6233 188.742 19.1366 188.849 18.51C188.956 17.87 189.009 17.0433 189.009 16.03C189.009 14.9633 188.956 14.11 188.849 13.47C188.742 12.83 188.569 12.3433 188.329 12.01C188.102 11.6633 187.789 11.43 187.389 11.31C186.989 11.19 186.489 11.13 185.889 11.13C185.316 11.13 184.829 11.19 184.429 11.31C184.029 11.43 183.702 11.6633 183.449 12.01C183.209 12.3433 183.029 12.83 182.909 13.47C182.802 14.11 182.749 14.9633 182.749 16.03C182.749 17.0433 182.796 17.87 182.889 18.51C182.996 19.1366 183.169 19.6233 183.409 19.97C183.649 20.3033 183.969 20.5366 184.369 20.67C184.782 20.8033 185.289 20.87 185.889 20.87Z" fill="#20201E"/>
    <path d="M173.626 23.53C172.759 23.53 171.992 23.43 171.326 23.23C170.672 23.03 170.112 22.6633 169.646 22.13C169.192 21.5966 168.846 20.8366 168.606 19.85C168.379 18.85 168.266 17.5566 168.266 15.97C168.266 14.4366 168.386 13.1833 168.626 12.21C168.879 11.2233 169.239 10.4633 169.706 9.92997C170.172 9.3833 170.739 9.0033 171.406 8.78997C172.072 8.57664 172.826 8.46997 173.666 8.46997C174.332 8.46997 174.952 8.50997 175.526 8.58997C176.112 8.65664 176.639 8.7433 177.106 8.84997C177.572 8.9433 177.966 9.04997 178.286 9.16997V11.47C178.046 11.4166 177.719 11.3633 177.306 11.31C176.906 11.2566 176.446 11.2166 175.926 11.19C175.406 11.15 174.859 11.13 174.286 11.13C173.726 11.13 173.246 11.1966 172.846 11.33C172.459 11.45 172.146 11.6833 171.906 12.03C171.679 12.3633 171.506 12.85 171.386 13.49C171.279 14.13 171.226 14.9633 171.226 15.99C171.226 16.9766 171.272 17.79 171.366 18.43C171.472 19.07 171.639 19.57 171.866 19.93C172.092 20.2766 172.399 20.5233 172.786 20.67C173.186 20.8033 173.686 20.87 174.286 20.87C175.299 20.87 176.119 20.85 176.746 20.81C177.386 20.77 177.899 20.7233 178.286 20.67V22.95C177.926 23.07 177.512 23.1766 177.046 23.27C176.579 23.35 176.066 23.41 175.506 23.45C174.946 23.5033 174.319 23.53 173.626 23.53Z" fill="#20201E"/>
    <path d="M160.381 23.53C159.368 23.53 158.481 23.4366 157.721 23.25C156.961 23.05 156.321 22.69 155.801 22.17C155.295 21.6366 154.915 20.8766 154.661 19.89C154.408 18.9033 154.281 17.6166 154.281 16.03C154.281 14.4433 154.408 13.1566 154.661 12.17C154.928 11.17 155.315 10.4033 155.821 9.86997C156.328 9.33664 156.961 8.96997 157.721 8.76997C158.481 8.56997 159.368 8.46997 160.381 8.46997C161.395 8.46997 162.281 8.56997 163.041 8.76997C163.801 8.96997 164.435 9.33664 164.941 9.86997C165.448 10.4033 165.828 11.17 166.081 12.17C166.335 13.1566 166.461 14.4433 166.461 16.03C166.461 17.6166 166.335 18.9033 166.081 19.89C165.828 20.8766 165.448 21.6366 164.941 22.17C164.435 22.69 163.801 23.05 163.041 23.25C162.281 23.4366 161.395 23.53 160.381 23.53ZM160.381 20.87C160.981 20.87 161.481 20.8033 161.881 20.67C162.281 20.5366 162.595 20.3033 162.821 19.97C163.061 19.6233 163.235 19.1366 163.341 18.51C163.448 17.87 163.501 17.0433 163.501 16.03C163.501 14.9633 163.448 14.11 163.341 13.47C163.235 12.83 163.061 12.3433 162.821 12.01C162.595 11.6633 162.281 11.43 161.881 11.31C161.481 11.19 160.981 11.13 160.381 11.13C159.808 11.13 159.321 11.19 158.921 11.31C158.521 11.43 158.195 11.6633 157.941 12.01C157.701 12.3433 157.521 12.83 157.401 13.47C157.295 14.11 157.241 14.9633 157.241 16.03C157.241 17.0433 157.288 17.87 157.381 18.51C157.488 19.1366 157.661 19.6233 157.901 19.97C158.141 20.3033 158.461 20.5366 158.861 20.67C159.275 20.8033 159.781 20.87 160.381 20.87Z" fill="#20201E"/>
    <path d="M146.121 23.4099V11.2699H142.061V8.60986H153.161V11.2699H149.081V23.4099H146.121Z" fill="#20201E"/>
    <path d="M134.854 23.53C133.841 23.53 132.954 23.4366 132.194 23.25C131.434 23.05 130.794 22.69 130.274 22.17C129.767 21.6366 129.387 20.8766 129.134 19.89C128.881 18.9033 128.754 17.6166 128.754 16.03C128.754 14.4433 128.881 13.1566 129.134 12.17C129.401 11.17 129.787 10.4033 130.294 9.86997C130.801 9.33664 131.434 8.96997 132.194 8.76997C132.954 8.56997 133.841 8.46997 134.854 8.46997C135.867 8.46997 136.754 8.56997 137.514 8.76997C138.274 8.96997 138.907 9.33664 139.414 9.86997C139.921 10.4033 140.301 11.17 140.554 12.17C140.807 13.1566 140.934 14.4433 140.934 16.03C140.934 17.6166 140.807 18.9033 140.554 19.89C140.301 20.8766 139.921 21.6366 139.414 22.17C138.907 22.69 138.274 23.05 137.514 23.25C136.754 23.4366 135.867 23.53 134.854 23.53ZM134.854 20.87C135.454 20.87 135.954 20.8033 136.354 20.67C136.754 20.5366 137.067 20.3033 137.294 19.97C137.534 19.6233 137.707 19.1366 137.814 18.51C137.921 17.87 137.974 17.0433 137.974 16.03C137.974 14.9633 137.921 14.11 137.814 13.47C137.707 12.83 137.534 12.3433 137.294 12.01C137.067 11.6633 136.754 11.43 136.354 11.31C135.954 11.19 135.454 11.13 134.854 11.13C134.281 11.13 133.794 11.19 133.394 11.31C132.994 11.43 132.667 11.6633 132.414 12.01C132.174 12.3433 131.994 12.83 131.874 13.47C131.767 14.11 131.714 14.9633 131.714 16.03C131.714 17.0433 131.761 17.87 131.854 18.51C131.961 19.1366 132.134 19.6233 132.374 19.97C132.614 20.3033 132.934 20.5366 133.334 20.67C133.747 20.8033 134.254 20.87 134.854 20.87Z" fill="#20201E"/>
    <path d="M116.595 23.4099V8.60986H122.715C123.301 8.60986 123.848 8.6832 124.355 8.82986C124.861 8.9632 125.308 9.2032 125.695 9.54986C126.081 9.89653 126.381 10.3765 126.595 10.9899C126.821 11.6032 126.935 12.3899 126.935 13.3499C126.935 14.0299 126.868 14.6099 126.735 15.0899C126.601 15.5699 126.421 15.9632 126.195 16.2699C125.981 16.5765 125.735 16.8232 125.455 17.0099C125.175 17.1965 124.888 17.3499 124.595 17.4699L127.355 23.4099H124.335L121.955 17.9299C121.795 17.9299 121.608 17.9299 121.395 17.9299C121.195 17.9165 120.988 17.9099 120.775 17.9099C120.561 17.9099 120.348 17.9099 120.135 17.9099C119.921 17.9099 119.728 17.9032 119.555 17.8899V23.4099H116.595ZM119.555 15.5499H122.195C122.461 15.5499 122.701 15.5165 122.915 15.4499C123.128 15.3832 123.315 15.2699 123.475 15.1099C123.635 14.9365 123.755 14.7099 123.835 14.4299C123.928 14.1499 123.975 13.7899 123.975 13.3499C123.975 12.9365 123.928 12.5965 123.835 12.3299C123.755 12.0499 123.635 11.8365 123.475 11.6899C123.315 11.5299 123.128 11.4232 122.915 11.3699C122.701 11.3032 122.461 11.2699 122.195 11.2699H119.555V15.5499Z" fill="#20201E"/>
    <path d="M104.173 23.4099V8.60986H110.413C110.893 8.60986 111.38 8.66986 111.873 8.78986C112.38 8.89653 112.84 9.1232 113.253 9.46986C113.68 9.8032 114.02 10.3099 114.273 10.9899C114.54 11.6699 114.673 12.5699 114.673 13.6899C114.673 14.8099 114.54 15.7165 114.273 16.4099C114.02 17.1032 113.686 17.6299 113.273 17.9899C112.86 18.3499 112.413 18.5899 111.933 18.7099C111.453 18.8299 110.986 18.8899 110.533 18.8899C110.293 18.8899 110.013 18.8832 109.693 18.8699C109.373 18.8432 109.046 18.8099 108.713 18.7699C108.393 18.7299 108.093 18.6965 107.813 18.6699C107.533 18.6299 107.306 18.5965 107.133 18.5699V23.4099H104.173ZM107.133 16.2299H110.073C110.42 16.2299 110.713 16.1499 110.953 15.9899C111.206 15.8165 111.393 15.5499 111.513 15.1899C111.633 14.8165 111.693 14.3232 111.693 13.7099C111.693 13.1099 111.626 12.6365 111.493 12.2899C111.373 11.9299 111.193 11.6699 110.953 11.5099C110.726 11.3499 110.453 11.2699 110.133 11.2699H107.133V16.2299Z" fill="#20201E"/>
    <path d="M90.683 23.5099C90.363 23.5099 89.9963 23.4765 89.583 23.4099C89.1697 23.3565 88.7697 23.2232 88.383 23.0099C88.0097 22.7965 87.6963 22.4765 87.443 22.0499C87.203 21.6099 87.083 21.0099 87.083 20.2499V11.9899C87.083 11.3365 87.183 10.7899 87.383 10.3499C87.583 9.90986 87.8497 9.5632 88.183 9.30986C88.5163 9.05653 88.883 8.87653 89.283 8.76986C89.683 8.6632 90.0763 8.60986 90.463 8.60986C91.463 8.60986 92.343 8.6232 93.103 8.64986C93.8763 8.67653 94.5697 8.70986 95.183 8.74986C95.7963 8.77653 96.3563 8.81653 96.863 8.86986V11.3499H91.343C90.9297 11.3499 90.6097 11.4499 90.383 11.6499C90.1563 11.8499 90.043 12.1565 90.043 12.5699V14.7099L95.903 14.8699V17.2099L90.043 17.3699V19.4099C90.043 19.7565 90.0963 20.0299 90.203 20.2299C90.323 20.4165 90.4763 20.5499 90.663 20.6299C90.863 20.6965 91.0697 20.7299 91.283 20.7299H96.863V23.2099C96.2763 23.2765 95.623 23.3299 94.903 23.3699C94.1963 23.4099 93.4763 23.4432 92.743 23.4699C92.023 23.4965 91.3363 23.5099 90.683 23.5099Z" fill="#20201E"/>
    <path d="M74.5439 23.4099V8.60986H80.6639C81.2506 8.60986 81.7973 8.6832 82.3039 8.82986C82.8106 8.9632 83.2573 9.2032 83.6439 9.54986C84.0306 9.89653 84.3306 10.3765 84.5439 10.9899C84.7706 11.6032 84.8839 12.3899 84.8839 13.3499C84.8839 14.0299 84.8173 14.6099 84.6839 15.0899C84.5506 15.5699 84.3706 15.9632 84.1439 16.2699C83.9306 16.5765 83.6839 16.8232 83.4039 17.0099C83.1239 17.1965 82.8373 17.3499 82.5439 17.4699L85.3039 23.4099H82.2839L79.9039 17.9299C79.7439 17.9299 79.5573 17.9299 79.3439 17.9299C79.1439 17.9165 78.9373 17.9099 78.7239 17.9099C78.5106 17.9099 78.2973 17.9099 78.0839 17.9099C77.8706 17.9099 77.6773 17.9032 77.5039 17.8899V23.4099H74.5439ZM77.5039 15.5499H80.1439C80.4106 15.5499 80.6506 15.5165 80.8639 15.4499C81.0773 15.3832 81.2639 15.2699 81.4239 15.1099C81.5839 14.9365 81.7039 14.7099 81.7839 14.4299C81.8773 14.1499 81.9239 13.7899 81.9239 13.3499C81.9239 12.9365 81.8773 12.5965 81.7839 12.3299C81.7039 12.0499 81.5839 11.8365 81.4239 11.6899C81.2639 11.5299 81.0773 11.4232 80.8639 11.3699C80.6506 11.3032 80.4106 11.2699 80.1439 11.2699H77.5039V15.5499Z" fill="#20201E"/>
    <path d="M66.2797 23.53C65.2664 23.53 64.3797 23.4366 63.6197 23.25C62.8597 23.05 62.2197 22.69 61.6997 22.17C61.193 21.6366 60.813 20.8766 60.5597 19.89C60.3064 18.9033 60.1797 17.6166 60.1797 16.03C60.1797 14.4433 60.3064 13.1566 60.5597 12.17C60.8264 11.17 61.213 10.4033 61.7197 9.86997C62.2264 9.33664 62.8597 8.96997 63.6197 8.76997C64.3797 8.56997 65.2664 8.46997 66.2797 8.46997C67.293 8.46997 68.1797 8.56997 68.9397 8.76997C69.6997 8.96997 70.333 9.33664 70.8397 9.86997C71.3464 10.4033 71.7264 11.17 71.9797 12.17C72.233 13.1566 72.3597 14.4433 72.3597 16.03C72.3597 17.6166 72.233 18.9033 71.9797 19.89C71.7264 20.8766 71.3464 21.6366 70.8397 22.17C70.333 22.69 69.6997 23.05 68.9397 23.25C68.1797 23.4366 67.293 23.53 66.2797 23.53ZM66.2797 20.87C66.8797 20.87 67.3797 20.8033 67.7797 20.67C68.1797 20.5366 68.493 20.3033 68.7197 19.97C68.9597 19.6233 69.133 19.1366 69.2397 18.51C69.3464 17.87 69.3997 17.0433 69.3997 16.03C69.3997 14.9633 69.3464 14.11 69.2397 13.47C69.133 12.83 68.9597 12.3433 68.7197 12.01C68.493 11.6633 68.1797 11.43 67.7797 11.31C67.3797 11.19 66.8797 11.13 66.2797 11.13C65.7064 11.13 65.2197 11.19 64.8197 11.31C64.4197 11.43 64.093 11.6633 63.8397 12.01C63.5997 12.3433 63.4197 12.83 63.2997 13.47C63.193 14.11 63.1397 14.9633 63.1397 16.03C63.1397 17.0433 63.1864 17.87 63.2797 18.51C63.3864 19.1366 63.5597 19.6233 63.7997 19.97C64.0397 20.3033 64.3597 20.5366 64.7597 20.67C65.173 20.8033 65.6797 20.87 66.2797 20.87Z" fill="#20201E"/>
    <path d="M48.1377 23.4099V8.60986H54.3777C54.8577 8.60986 55.3444 8.66986 55.8377 8.78986C56.3444 8.89653 56.8044 9.1232 57.2177 9.46986C57.6444 9.8032 57.9844 10.3099 58.2377 10.9899C58.5044 11.6699 58.6377 12.5699 58.6377 13.6899C58.6377 14.8099 58.5044 15.7165 58.2377 16.4099C57.9844 17.1032 57.651 17.6299 57.2377 17.9899C56.8244 18.3499 56.3777 18.5899 55.8977 18.7099C55.4177 18.8299 54.951 18.8899 54.4977 18.8899C54.2577 18.8899 53.9777 18.8832 53.6577 18.8699C53.3377 18.8432 53.011 18.8099 52.6777 18.7699C52.3577 18.7299 52.0577 18.6965 51.7777 18.6699C51.4977 18.6299 51.271 18.5965 51.0977 18.5699V23.4099H48.1377ZM51.0977 16.2299H54.0377C54.3844 16.2299 54.6777 16.1499 54.9177 15.9899C55.171 15.8165 55.3577 15.5499 55.4777 15.1899C55.5977 14.8165 55.6577 14.3232 55.6577 13.7099C55.6577 13.1099 55.591 12.6365 55.4577 12.2899C55.3377 11.9299 55.1577 11.6699 54.9177 11.5099C54.691 11.3499 54.4177 11.2699 54.0977 11.2699H51.0977V16.2299Z" fill="#20201E"/>
    <path d="M40.82 23.53C40.4333 23.53 40.0333 23.5167 39.62 23.49C39.22 23.4767 38.8067 23.45 38.38 23.41C37.9667 23.3567 37.5733 23.3033 37.2 23.25C36.8267 23.1833 36.4867 23.11 36.18 23.03V20.69C36.58 20.73 37.0333 20.7633 37.54 20.79C38.0467 20.8167 38.5733 20.8367 39.12 20.85C39.6667 20.8633 40.1867 20.87 40.68 20.87C41.1867 20.87 41.62 20.83 41.98 20.75C42.3533 20.6567 42.64 20.5033 42.84 20.29C43.04 20.0633 43.14 19.7567 43.14 19.37V18.83C43.14 18.39 43.0067 18.0567 42.74 17.83C42.4867 17.59 42.12 17.47 41.64 17.47H40.38C38.9667 17.47 37.88 17.1633 37.12 16.55C36.3733 15.9233 36 14.8633 36 13.37V12.65C36 11.21 36.4133 10.1567 37.24 9.48999C38.0667 8.82332 39.2467 8.48999 40.78 8.48999C41.3267 8.48999 41.8667 8.51666 42.4 8.56999C42.9467 8.62332 43.4667 8.68999 43.96 8.76999C44.4667 8.83666 44.9 8.90999 45.26 8.98999V11.33C44.6467 11.29 43.96 11.25 43.2 11.21C42.4533 11.17 41.76 11.15 41.12 11.15C40.6667 11.15 40.26 11.1967 39.9 11.29C39.5533 11.37 39.2867 11.53 39.1 11.77C38.9133 12.01 38.82 12.35 38.82 12.79V13.19C38.82 13.71 38.9667 14.0833 39.26 14.31C39.5533 14.5367 39.9867 14.65 40.56 14.65H42.02C42.9133 14.65 43.6467 14.8167 44.22 15.15C44.8067 15.47 45.24 15.9167 45.52 16.49C45.8133 17.0633 45.96 17.7167 45.96 18.45V19.29C45.96 20.45 45.74 21.3367 45.3 21.95C44.8733 22.5633 44.2733 22.9833 43.5 23.21C42.74 23.4233 41.8467 23.53 40.82 23.53Z" fill="#20201E"/>
    <defs>
        <linearGradient id="paint0_linear_2976_1971" x1="16.0005" y1="19" x2="15.7172" y2="29.9927" gradientUnits="userSpaceOnUse">
            <stop stop-color="white"/>
            <stop offset="1" stop-color="#D8D8D8"/>
        </linearGradient>
    </defs>
</svg>
