<svg width="48" height="48" viewBox="0 0 48 48" fill="none" xmlns="http://www.w3.org/2000/svg">
    <circle cx="24" cy="24" r="23" stroke="#20201E" stroke-width="2"/>
    <path d="M33.2415 15.5219C31.5418 14.7421 29.7192 14.1675 27.8135 13.8384C27.7788 13.8321 27.7442 13.8479 27.7263 13.8797C27.4919 14.2966 27.2323 14.8405 27.0504 15.268C25.0008 14.9611 22.9616 14.9611 20.954 15.268C20.7722 14.831 20.5031 14.2966 20.2676 13.8797C20.2498 13.849 20.2151 13.8331 20.1804 13.8384C18.2758 14.1664 16.4532 14.741 14.7525 15.5219C14.7378 15.5283 14.7251 15.5389 14.7168 15.5526C11.2596 20.7175 10.3126 25.7554 10.7772 30.7308C10.7793 30.7551 10.793 30.7784 10.8119 30.7932C13.0928 32.4683 15.3022 33.4852 17.4706 34.1592C17.5053 34.1698 17.5421 34.1571 17.5642 34.1285C18.0771 33.428 18.5344 32.6895 18.9264 31.9127C18.9495 31.8673 18.9275 31.8133 18.8802 31.7953C18.1549 31.5202 17.4643 31.1847 16.8 30.8038C16.7475 30.7731 16.7433 30.698 16.7916 30.662C16.9314 30.5572 17.0712 30.4482 17.2047 30.3382C17.2289 30.3181 17.2625 30.3139 17.2909 30.3266C21.6551 32.3191 26.3798 32.3191 30.6925 30.3266C30.7209 30.3128 30.7545 30.3171 30.7797 30.3372C30.9133 30.4472 31.0531 30.5572 31.1939 30.662C31.2422 30.698 31.2391 30.7731 31.1865 30.8038C30.5222 31.1921 29.8316 31.5202 29.1053 31.7942C29.0581 31.8122 29.037 31.8673 29.0602 31.9127C29.4606 32.6884 29.9178 33.427 30.4213 34.1275C30.4424 34.1571 30.4802 34.1698 30.5149 34.1592C32.6938 33.4852 34.9032 32.4683 37.1841 30.7932C37.2041 30.7784 37.2167 30.7562 37.2188 30.7319C37.7749 24.9797 36.2875 19.9831 33.2761 15.5537C33.2688 15.5389 33.2562 15.5283 33.2415 15.5219ZM19.5781 27.7013C18.2642 27.7013 17.1816 26.495 17.1816 25.0136C17.1816 23.5322 18.2432 22.3259 19.5781 22.3259C20.9235 22.3259 21.9957 23.5427 21.9746 25.0136C21.9746 26.495 20.913 27.7013 19.5781 27.7013ZM28.4389 27.7013C27.1251 27.7013 26.0424 26.495 26.0424 25.0136C26.0424 23.5322 27.104 22.3259 28.4389 22.3259C29.7844 22.3259 30.8565 23.5427 30.8355 25.0136C30.8355 26.495 29.7844 27.7013 28.4389 27.7013Z" fill="#20201E"/>
</svg>
