<svg width="39" height="30" viewBox="0 0 39 30" fill="none" xmlns="http://www.w3.org/2000/svg">
    <path d="M7.48913 0C9.6558 0 11.4457 0.642572 12.8587 1.92772C14.2717 3.13253 14.9783 4.65864 14.9783 6.50603C14.9783 7.46988 14.7899 8.51405 14.413 9.63855C14.1304 10.6827 13.7065 11.9277 13.1413 13.3735L7.06522 30H0.282608L5.22826 12.6506C3.62681 12.249 2.35507 11.5261 1.41304 10.4819C0.471014 9.35743 0 8.03213 0 6.50603C0 4.57832 0.706522 3.01205 2.11957 1.80723C3.53261 0.602409 5.32246 0 7.48913 0ZM31.5109 0C33.6775 0 35.4674 0.642572 36.8804 1.92772C38.2935 3.13253 39 4.65864 39 6.50603C39 7.46988 38.8116 8.51405 38.4348 9.63855C38.1522 10.6827 37.7283 11.9277 37.163 13.3735L31.087 30H24.3043L29.25 12.6506C27.6486 12.249 26.3768 11.5261 25.4348 10.4819C24.4928 9.35743 24.0217 8.03213 24.0217 6.50603C24.0217 4.57832 24.7283 3.01205 26.1413 1.80723C27.5543 0.602409 29.3442 0 31.5109 0Z" fill="black"/>
</svg>
