<svg width="1440" height="717" viewBox="0 0 1440 717" fill="none" xmlns="http://www.w3.org/2000/svg">
    <g opacity="0.16">
        <path d="M401.451 18.988C439.606 48.5893 482.405 71.7231 520.117 92.2035C554.069 110.611 583.265 126.448 602.398 143.032C622.747 160.693 628.83 176.53 622.083 194.523C593.661 269.562 623.189 314.918 651.612 358.864C677.49 398.747 702.042 436.474 683.684 495.345C671.74 533.569 638.119 554.962 588.906 555.542C544.337 556.04 492.69 539.622 447.015 510.436C397.249 478.596 360.642 435.147 343.832 388.051C330.119 349.494 302.36 327.273 258.897 320.142C247.064 318.235 234.456 317.405 221.406 317.405C192.21 317.405 160.359 321.385 127.071 325.448C84.0502 330.755 40.3661 336.228 0.110352 333.408V341.7C41.6932 344.436 86.0409 338.964 128.951 333.657C223.618 321.8 305.457 311.684 333.326 390.123C370.485 494.516 493.907 563.834 586.915 563.834C587.689 563.834 588.353 563.834 589.127 563.834C615.116 563.502 637.345 557.947 655.261 547.251C674.504 535.808 687.665 518.976 694.411 497.252C713.654 435.562 687.112 394.767 661.454 355.298C633.917 312.845 605.384 268.899 632.59 196.844C649.51 152.235 595.209 122.8 526.421 85.5702C489.04 65.3385 446.684 42.3706 409.193 13.2668C403.884 8.9551 398.355 4.56051 392.825 0.0830078H377.784C385.636 6.55052 393.488 12.8522 401.451 18.988Z" fill="white"/>
        <path d="M577.736 159.034C561.037 144.607 533.167 129.516 500.985 112.021C462.167 90.9598 418.151 67.0798 378.006 35.986C363.076 24.5435 348.478 12.3547 334.211 0.0830078H323.926C339.741 13.7643 355.998 27.2797 372.476 40.0489C413.174 71.5573 457.411 95.5202 496.561 116.747C528.412 134.076 555.949 149.002 572.096 162.849C586.141 174.954 585.478 180.842 583.376 186.231C550.752 272.382 585.146 325.365 615.448 372.048C640.111 410.023 659.575 440.039 644.534 488.38C636.572 513.835 618.877 525.195 587.137 525.195C552.742 525.195 509.943 510.85 472.673 486.721C429.542 458.861 397.802 421.051 383.314 380.091C361.306 318.318 307.005 286.975 221.849 286.975C189.224 286.975 154.498 291.287 120.878 295.433C88.1424 299.495 54.301 303.724 23.7774 303.724C15.483 303.724 7.7415 303.393 0.442383 302.812V308.699C7.7415 309.28 15.483 309.611 23.7774 309.611C54.854 309.611 89.0271 305.383 122.094 301.237C155.383 297.091 189.777 292.862 221.738 292.862C302.913 292.862 354.781 322.712 375.683 381.666C390.613 423.705 423.238 462.593 467.475 491.199C506.072 516.157 550.752 531.082 587.026 531.082C622.084 531.082 643.318 517.566 651.944 489.789C667.648 439.459 647.631 408.614 622.305 369.643C592.556 323.873 558.936 271.967 590.676 187.972C593.109 181.422 594.325 173.379 577.736 159.034Z" fill="white"/>
        <path d="M469.355 146.763L468.139 146.099C427.441 124.044 381.324 99.0027 337.75 65.2556C310.655 44.3606 284.997 21.8072 260.114 0.0830078H249.94C251.156 1.16093 252.483 2.32176 253.7 3.39968C278.804 25.3726 304.794 48.0918 332.11 69.3185C376.236 103.397 422.575 128.604 463.605 150.826L464.821 151.489C499.105 170.145 518.459 201.156 515.141 232.499C507.842 302.563 539.471 351.318 564.908 390.455C572.538 402.229 578.4 417.984 582.381 437.22C584.593 447.834 578.51 458.115 566.677 464.085C554.954 470.055 540.024 470.387 527.859 464.914C520.781 461.764 514.477 458.447 509.058 454.881C474.443 432.494 448.896 402.146 437.284 369.311C408.751 289.131 332.221 244.936 221.628 244.936C184.358 244.936 147.309 249.497 111.477 253.974C80.9539 257.788 49.4349 261.685 23.5563 261.685C14.1559 261.685 6.52498 261.188 0.221191 260.359V266.163C6.74616 266.992 14.3771 267.407 23.5563 267.407C49.9879 267.407 81.9492 263.427 112.805 259.612C148.305 255.218 185.022 250.657 221.628 250.657C328.35 250.657 402.226 293.277 429.763 370.721C441.818 404.634 468.25 436.059 503.971 459.193C509.722 462.924 516.468 466.49 523.878 469.806C530.845 472.957 538.586 474.45 546.328 474.45C554.844 474.45 563.47 472.543 570.99 468.729C585.367 461.432 592.666 448.994 590.012 436.142C586.031 416.408 579.838 400.073 571.875 387.719C546.881 349.163 515.694 301.237 522.882 232.747C526.311 199.581 505.851 166.58 469.355 146.763Z" fill="white"/>
        <path d="M200.504 37.5614C226.272 60.1147 252.925 83.4973 281.789 105.802C330.118 143.28 379.222 169.897 422.463 193.362L423.68 194.025C438.389 201.985 446.572 215.169 445.245 228.436V228.933C444.582 234.986 439.826 239.961 432.417 242.366C425.117 244.687 417.155 243.775 411.072 239.961C361.306 208.867 295.835 192.45 221.738 192.45C178.717 192.45 137.024 197.591 100.196 202.151L99.3115 202.234C62.5947 206.712 25.878 197.259 0.331055 178.271V186.314C7.51958 191.04 15.3717 195.103 23.9979 198.503C47.6647 207.872 74.207 211.106 100.639 207.955L101.523 207.872C138.019 203.312 179.491 198.254 221.738 198.254C294.065 198.254 357.877 214.257 406.206 244.439C411.515 247.755 417.818 249.414 424.343 249.414C428.104 249.414 431.864 248.833 435.624 247.672C445.577 244.522 452.323 237.474 453.208 229.348V228.85C454.756 213.594 445.356 198.42 428.546 189.299L427.329 188.636C384.309 165.336 335.537 138.886 287.651 101.739C259.007 79.5173 232.354 56.3006 206.697 33.7472C192.652 21.7243 179.602 10.5305 167.326 0.0830078H156.93C170.644 11.5255 185.021 24.046 200.504 37.5614Z" fill="white"/>
        <path d="M80.8433 176.862C85.0458 176.862 89.3589 176.613 93.5614 176.115L94.225 176.032C132.379 171.306 175.621 165.917 221.517 165.917C225.388 165.917 229.369 165.999 233.129 165.999C246.401 166.248 258.013 160.776 263.432 151.655C268.851 142.368 266.418 132.169 257.017 124.873L256.243 124.292C226.604 101.324 199.62 77.6931 173.52 54.8081C149.521 33.8301 128.177 15.4226 108.713 0.0830078H101.082C121.32 15.8372 143.77 35.1568 169.317 57.5443C195.528 80.4293 222.512 104.144 252.262 127.194L253.036 127.775C260.778 133.828 262.879 142.285 258.345 149.997C253.921 157.542 244.299 162.102 233.351 161.854C229.48 161.771 225.499 161.688 221.517 161.688C175.179 161.688 131.716 167.077 93.3402 171.804L92.6767 171.887C88.6953 172.384 84.714 172.633 80.8433 172.633C52.5315 172.633 26.3211 160.112 14.1559 140.793C9.28979 133.164 4.6449 125.204 0.221191 117.161V127.858C3.0966 132.833 6.0826 137.808 9.1792 142.617C22.2291 163.429 50.4303 176.862 80.8433 176.862Z" fill="white"/>
        <path d="M383.758 1083.89C415.608 1021.45 445.579 962.415 504.083 932.98C580.392 894.424 677.05 897.906 754.796 900.642C815.622 902.798 868.264 904.705 894.254 885.634C906.308 876.762 911.948 864.242 911.396 847.327C909.847 797.162 868.928 760.015 786.536 733.814C722.282 713.416 634.471 699.569 501.65 689.039C362.303 677.928 306.454 589.124 257.129 510.768C230.476 468.314 205.261 428.265 169.54 405.712C137.136 385.314 92.7885 374.867 37.4921 374.618C25.5481 374.535 13.1618 375.033 0.333008 375.945V384.236C12.277 383.324 23.8892 382.91 35.0591 382.91C87.8118 382.91 131.607 392.694 162.351 412.097C196.193 433.489 220.965 472.709 247.065 514.333C272.502 554.796 298.823 596.669 337.53 630.914C382.099 670.382 435.405 692.107 500.433 697.247C632.038 707.695 718.964 721.376 782.113 741.442C860.191 766.234 898.788 800.893 900.226 847.493C900.668 862.003 896.134 872.534 886.402 879.664C863.841 896.165 813.521 894.424 755.239 892.351C675.944 889.531 577.184 886.049 497.889 926.098C436.51 957.026 405.876 1017.22 373.473 1080.99C344.608 1137.62 313.753 1198.31 257.24 1243.92H272.612C325.586 1198.06 355.667 1139.11 383.758 1083.89Z" fill="white"/>
        <path d="M478.424 904.373C548.982 868.719 631.595 864.656 687.665 864.656C711.885 864.656 734.778 865.485 756.896 866.231C775.587 866.895 793.281 867.558 808.875 867.558C849.131 867.558 859.526 862.914 862.07 860.924C864.282 859.183 865.498 854.457 865.277 848.155C864.724 829.914 857.093 815.072 841.389 801.639C825.574 788.041 800.912 775.935 768.398 765.57C708.457 746.582 624.628 733.481 496.561 723.366C331.557 710.265 267.081 607.863 215.324 525.526C190.883 486.638 167.659 449.823 139.679 432.162C115.459 416.822 80.2903 409.111 35.1685 409.111C23.888 409.111 12.1652 409.609 0 410.604V416.408C12.0546 415.413 23.888 414.915 35.1685 414.915C78.4102 414.915 111.809 422.212 134.702 436.639C161.465 453.554 184.247 489.706 208.357 528.097C260.888 611.677 326.359 715.737 495.676 729.17C622.969 739.286 706.134 752.221 765.301 770.96C796.82 780.993 820.487 792.601 835.528 805.536C850.016 817.891 856.983 831.572 857.536 848.404C857.757 854.042 856.651 856.53 856.319 857.11C854.882 857.857 845.592 861.837 808.875 861.837C793.392 861.837 775.808 861.173 757.228 860.593C734.999 859.764 711.996 859.017 687.555 859.017C630.489 859.017 546.328 863.246 474 899.73C401.452 936.379 368.495 1001.14 333.548 1069.71C307.005 1121.86 279.578 1175.76 234.014 1215.89C221.849 1226.59 208.91 1235.87 194.864 1244H207.251C218.863 1236.79 229.701 1228.66 239.986 1219.62C286.435 1178.74 314.083 1124.35 340.847 1071.78C375.352 1003.96 407.976 940.027 478.424 904.373Z" fill="white"/>
        <path d="M416.603 835.635L417.156 835.304C427.109 830.329 432.196 821.706 430.427 812.833C428.657 803.961 420.474 796.83 408.972 794.177C237.111 754.46 163.788 637.962 115.348 560.766C104.731 543.934 94.6674 527.931 85.1564 514.996C84.714 514.333 84.2716 513.753 83.8293 513.172C74.0971 500.071 55.6281 491.945 35.7214 491.945H35.1685C24.441 491.945 12.6076 492.692 0 494.101V499.988C12.6076 498.496 24.441 497.75 35.1685 497.75H35.7214C52.7527 497.75 68.6781 504.798 77.0831 516.074C77.5255 516.655 77.9679 517.235 78.4102 517.898C87.8106 530.751 97.764 546.588 108.381 563.42C132.601 601.976 162.792 649.985 209.573 694.594C265.091 747.578 329.566 782.071 406.76 799.898C415.497 801.888 421.469 807.112 422.796 813.828C424.123 820.545 420.363 826.846 412.843 830.66L412.179 830.992C310.655 882.318 267.856 966.147 230.254 1040.19C207.03 1085.8 183.031 1132.89 149.853 1162.16C135.587 1174.77 120.435 1183.47 102.188 1189.61C81.728 1196.49 56.7341 1200.39 25.7681 1201.46C22.5609 1201.55 19.2431 1201.63 15.9254 1201.63C10.7275 1201.63 5.41904 1201.46 0.110593 1201.22V1207.02C5.41904 1207.27 10.7275 1207.43 15.9254 1207.43C19.3537 1207.43 22.7821 1207.35 26.0999 1207.27C58.0612 1206.19 83.9399 1202.13 105.284 1194.91C124.638 1188.45 140.674 1179.24 155.604 1165.98C189.666 1135.96 213.886 1088.37 237.443 1042.26C274.823 968.883 317.069 885.883 416.603 835.635Z" fill="white"/>
        <path d="M24.2198 1173.85C50.5409 1172.94 71.1111 1169.87 87.3682 1164.4C100.639 1159.92 111.367 1153.7 122.205 1144.17C151.401 1118.46 174.183 1073.61 196.302 1030.16C217.978 987.538 242.64 939.198 280.795 895.003C316.185 853.96 304.904 799.566 254.584 768.389C160.691 710.348 109.376 628.84 75.5348 574.944C70.337 566.653 62.7061 555.127 57.1764 547.002C48.1078 533.486 28.5329 526.024 8.62624 528.594C5.97201 528.926 3.0966 529.34 0.221191 529.672V535.559C3.53897 535.062 6.85675 534.647 9.84276 534.315C12.0546 534.067 14.1559 533.901 16.2571 533.901C30.413 533.901 43.5735 539.788 50.0985 549.572C55.5175 557.698 63.1484 569.14 68.3463 577.432C102.519 631.825 154.277 713.996 249.387 772.95C296.72 802.302 307.337 853.462 274.049 891.935C235.452 936.628 210.679 985.217 188.892 1028.17C166.995 1071.12 144.323 1115.56 116.122 1140.52C106.169 1149.31 96.2156 1155.03 84.0505 1159.18C68.7887 1164.32 48.9926 1167.22 23.7774 1168.13C21.2338 1168.21 18.5796 1168.3 16.0359 1168.3C10.8381 1168.3 5.52964 1168.05 0.221191 1167.72V1173.6C5.52964 1173.94 10.8381 1174.18 16.0359 1174.18C18.6902 1174.02 21.455 1174.02 24.2198 1173.85Z" fill="white"/>
        <path d="M21.234 1125.43C38.7077 1124.85 52.4212 1123.02 60.8262 1120.21C64.4758 1118.96 67.7936 1117.3 72.8808 1112.83C94.7782 1093.51 116.676 1050.72 135.808 1012.91C158.701 968.053 184.579 917.142 226.383 868.719C243.968 848.404 238.327 821.373 213.223 805.868C108.271 740.861 53.3059 653.467 16.9209 595.674L16.8103 595.508C13.2714 589.952 7.29936 585.641 0.221433 583.236V592.854C2.98625 594.43 5.3087 596.586 6.85699 599.073L6.96759 599.239C43.7949 657.695 99.3125 746.085 206.256 812.335C226.936 825.187 231.692 847.492 217.094 864.324C174.626 913.494 148.526 964.819 125.412 1010.09C106.501 1047.24 85.046 1089.36 64.3652 1107.6C59.8309 1111.58 57.8402 1112.25 56.1813 1112.83C52.0894 1114.24 42.0255 1116.64 20.5705 1117.39C19.0222 1117.47 17.4739 1117.47 15.9256 1117.47C10.8383 1117.47 5.52988 1117.14 0.11084 1116.56V1124.93C5.52988 1125.51 10.7277 1125.76 15.9256 1125.76C17.8057 1125.51 19.4646 1125.51 21.234 1125.43Z" fill="white"/>
        <path d="M117.007 893.76C117.671 858.852 101.745 822.534 73.2124 794.011C45.2324 766.151 19.0219 729.253 0.221191 699.9V718.64C18.1372 745.256 40.5875 775.272 64.365 798.986C115.459 849.98 128.398 932.897 51.7574 986.212C33.8414 998.732 16.4783 1009.18 0.221191 1017.47V1027.42C18.6902 1018.55 38.5969 1006.78 59.2777 992.431C96.3262 966.644 116.233 932.565 117.007 893.76Z" fill="white"/>
        <path d="M1106.26 1152.96C1204.02 1110.84 1268.94 1052.46 1304.66 974.604C1338.28 901.305 1342.93 818.637 1342.93 740.198C1342.93 643.434 1397.45 601.395 1460.49 552.64C1503.95 519.059 1553.16 481 1589.55 419.725C1614.21 378.1 1626.15 334.652 1623.94 294.023C1621.95 256.627 1608.24 222.051 1584.46 194.191C1551.62 155.718 1502.07 133.33 1448.54 132.833C1447.66 132.833 1446.77 132.833 1445.78 132.833C1381.52 132.833 1329.55 154.971 1287.08 200.493C1246.82 243.61 1214.2 307.704 1184.23 402.146C1180.58 413.589 1177.15 424.617 1173.83 435.23C1150.16 510.933 1133.02 565.658 1103.83 604.297C1074.08 643.683 1032.71 666.402 960.829 682.654C926.656 690.365 904.538 690.78 891.156 683.815C872.023 673.947 869.48 648.741 866.051 613.916C861.849 571.794 856.209 514.084 814.736 454.633C769.393 389.543 790.848 342.612 811.529 297.34C834.532 247.175 856.209 199.747 777.024 137.808C722.281 95.0227 702.817 48.6722 718.963 0.0830078H707.572C701.379 19.8172 700.826 39.4685 705.913 58.7052C713.655 88.3894 734.999 116.913 769.062 143.612C843.601 201.902 823.916 244.936 801.133 294.769C780.674 339.544 757.449 390.289 805.004 458.613C845.37 516.571 850.79 570.965 855.103 614.662C858.752 651.809 861.406 678.674 884.963 690.78C901.441 699.237 926.546 699.237 964.147 690.697C1038.02 673.948 1082.81 649.404 1113.67 608.443C1143.64 568.726 1160.89 513.504 1184.89 437.137C1188.21 426.524 1191.64 415.496 1195.29 404.053C1224.92 310.689 1257 247.507 1296.48 205.219C1337.29 161.439 1387.05 140.461 1448.65 141.041C1498.42 141.539 1544.65 162.517 1575.39 198.586C1624.72 256.379 1626.38 337.72 1579.71 416.325C1544.1 476.274 1497.65 512.094 1452.75 546.836C1420.78 571.462 1390.7 594.762 1368.47 624.446C1343.59 657.613 1332.09 694.428 1332.09 740.198C1332.09 895.004 1314.28 1053.87 1100.95 1145.74C1052.4 1166.64 1019.11 1189.94 1002.19 1214.98C995.777 1224.43 991.685 1234.05 989.915 1243.83H1001.08C1007.5 1210.75 1042.89 1180.24 1106.26 1152.96Z" fill="white"/>
        <path d="M1399.88 740.198C1399.88 902.549 1379.42 1084.55 1134.68 1190.02C1093.65 1207.68 1067.55 1226.5 1059.37 1243.92H1067.55C1075.96 1228.41 1100.51 1211.41 1138.44 1195.08C1386.72 1088.03 1407.51 904.208 1407.51 740.281C1407.51 663.252 1446.99 632.738 1506.83 586.554C1554.05 550.07 1607.58 508.778 1648.61 439.625C1652.37 433.323 1655.79 427.022 1659 420.637V403.307C1654.02 414.667 1648.16 425.944 1641.53 437.22C1601.05 505.378 1547.97 546.339 1501.3 582.491C1440.25 629.587 1399.88 660.764 1399.88 740.198Z" fill="white"/>
        <path d="M845.26 371.384C843.38 392.445 849.683 412.677 865.166 434.981C912.058 502.31 918.251 565.078 922.785 610.848C923.449 617.564 924.223 625.193 925.108 632.323C925.55 635.64 927.872 638.625 931.633 640.449C935.282 642.273 939.927 642.854 944.13 641.859H944.24C1010.26 626.934 1035.26 608.36 1054.17 583.32C1079.38 549.987 1095.64 497.749 1118.31 425.446C1121.63 414.833 1125.06 403.722 1128.71 392.279C1160.12 293.194 1195.29 224.787 1239.3 177.11C1292.61 119.4 1362.06 90.0477 1445.67 90.0477C1446.77 90.0477 1447.99 90.0477 1449.1 90.0477C1522.09 90.711 1588.88 120.312 1632.24 171.057C1642.85 183.495 1651.7 196.679 1658.89 210.526V195.601C1653.03 185.982 1646.39 176.779 1638.76 167.907C1593.97 115.42 1524.85 84.9069 1449.21 84.2435C1447.99 84.2435 1446.88 84.2435 1445.67 84.2435C1359.41 84.2435 1287.85 114.342 1233 173.794C1188.43 222.051 1152.93 291.038 1121.19 390.87C1117.54 402.395 1114.11 413.423 1110.68 424.119C1088.23 495.925 1071.97 547.748 1047.31 580.418C1029.4 604.215 1005.51 621.793 941.918 636.221L943.024 639.04L941.807 636.303C939.816 636.801 937.605 636.552 935.835 635.64C934.066 634.728 932.96 633.318 932.739 631.743C931.854 624.695 931.08 617.067 930.416 610.35C925.882 564 919.578 500.569 871.913 432.162C857.093 410.853 851.011 391.616 852.78 371.716C854.55 352.479 863.286 333.326 872.576 313.094C884.299 287.39 898.897 255.467 897.017 220.227C894.695 179.017 870.696 141.124 823.584 104.226C799.696 85.4873 784.987 66.4993 780.121 47.6772C776.471 33.6643 778.019 18.9051 784.655 3.89718C785.208 2.57051 785.871 1.32676 786.535 0.0830078H778.241C777.909 0.746342 777.577 1.40968 777.356 2.07301C770.167 18.0759 768.619 33.8301 772.6 48.8381C777.798 68.7381 793.171 88.804 818.164 108.289C921.347 189.05 889.054 259.695 865.388 311.27C855.987 331.916 847.029 351.401 845.26 371.384Z" fill="white"/>
        <path d="M1148.62 129.931C1222.82 49.6672 1325.56 7.21385 1445.89 7.21385C1447.55 7.21385 1449.1 7.21385 1450.76 7.21385C1528.39 7.9601 1600.83 29.5185 1659.11 67.9918V60.2806C1600.28 22.968 1528.17 2.15593 1450.87 1.40968C1449.21 1.40968 1447.55 1.40968 1445.89 1.40968C1322.91 1.40968 1217.96 44.6922 1142.31 126.614C1089.67 183.661 1048.86 261.52 1013.91 371.716C1010.26 383.324 1006.73 394.435 1003.41 405.131L1003.3 405.546C1001.75 410.438 996.661 412.511 992.238 412.843C987.925 413.174 982.284 411.931 979.298 407.453C976.423 402.893 973.326 398.249 970.23 393.772C962.931 383.241 963.262 379.178 963.484 377.188C964.258 368.897 970.672 354.801 977.529 339.876C1003.3 283.575 1056.82 166.497 903.764 46.7651C894.253 39.3856 890.271 33.996 889.165 32.006C889.276 31.5914 889.497 31.011 889.829 30.0989C892.594 23.963 898.455 17.6614 901.662 14.8422L921.901 0.0830078H910.842L896.022 10.8622L895.801 11.1109C894.806 11.9401 886.29 19.7343 882.419 28.3576C881.534 30.2647 881.313 31.5085 881.203 32.1718V32.6693L881.424 33.1668C882.64 36.2347 887.728 42.7022 898.123 50.8281C1047.98 167.989 995.445 282.912 970.119 338.052C963.152 353.308 956.516 367.819 955.742 376.857C955.521 379.344 955.079 384.485 963.373 396.508C966.47 400.903 969.456 405.463 972.331 410.023C976.091 415.993 984.275 419.393 993.012 418.647C1001.75 417.901 1008.72 413.34 1010.71 406.873L1010.82 406.458C1014.14 395.762 1017.67 384.651 1021.32 373.043C1056.05 263.675 1096.53 186.397 1148.62 129.931Z" fill="white"/>
        <path d="M1524.19 689.785C1517.33 698.823 1510.36 711.924 1510.36 740.198C1510.36 868.056 1510.36 1102.88 1228.46 1243.83H1242.29C1518.1 1100.72 1518.21 867.724 1518.21 740.198C1518.21 713.25 1524.63 700.979 1530.93 692.604C1541.22 678.923 1561.12 663.583 1586.23 644.181C1608.9 626.685 1633.89 607.366 1659.11 583.983V574.696C1632.13 600.483 1604.92 621.461 1580.7 640.201C1555.15 659.852 1535.02 675.44 1524.19 689.785Z" fill="white"/>
        <path d="M1015.57 102.568C1023.76 114.674 1039.46 122.385 1057.49 123.297C1075.51 124.209 1092.32 118.073 1102.61 106.88L1103.16 106.299C1146.51 59.3684 1198.71 23.7142 1257.88 0H1241.84C1186.66 23.9629 1137.89 58.4563 1096.75 102.983L1096.19 103.563C1087.46 113.016 1073.19 118.239 1057.93 117.493C1042.67 116.747 1029.4 110.196 1022.43 99.9147C1016.13 90.628 1008.94 81.3413 1001.2 72.3863C981.842 49.9988 983.169 21.1438 1003.19 0.0829168H993.896C974.985 22.7192 974.653 52.3205 994.67 75.5372C1002.3 84.4093 1009.38 93.5301 1015.57 102.568Z" fill="white"/>
        <path d="M1572.41 710.099C1570.41 712.753 1565.77 718.971 1565.77 740.198C1565.77 854.126 1565.77 1088.45 1320.48 1243.83H1332.31C1383.29 1210.59 1426.64 1172.03 1461.26 1128.91C1495.43 1086.38 1521.98 1038.28 1540.22 986.046C1573.4 891.024 1573.4 800.313 1573.4 740.281C1573.4 720.547 1577.49 715.074 1579.04 713.084C1585.79 704.129 1604.37 689.785 1625.82 673.201C1636.22 665.158 1647.39 656.535 1659 647.166V638.625C1645.4 649.819 1632.24 659.935 1620.29 669.221C1598.51 685.888 1579.59 700.481 1572.41 710.099Z" fill="white"/>
        <path d="M970.783 484.482C961.383 486.97 957.07 497.003 957.733 515.327C958.729 543.768 968.129 562.092 983.28 565.575C984.828 565.907 986.598 566.155 988.478 566.155C995.224 566.155 1004.07 563.253 1014.14 552.806C1027.74 538.544 1013.36 511.016 999.316 496.92C989.142 486.804 979.078 482.327 970.783 484.482ZM1007.94 549.489C999.98 557.781 992.128 561.512 985.713 560.02C977.087 558.03 966.691 545.095 965.585 515.162C964.811 493.852 971.447 490.452 973.437 489.955C973.99 489.789 974.543 489.789 975.096 489.789C979.741 489.789 986.598 493.769 993.233 500.485C1008.27 515.742 1017.9 539.042 1007.94 549.489Z" fill="white"/>
        <path d="M1345.14 477.683C1347.9 477.849 1350.78 477.932 1353.65 477.932C1373.45 477.932 1394.8 474.366 1415.92 467.567C1454.07 455.295 1487.69 433.405 1510.48 406.043C1537.46 373.705 1549.29 333.905 1544.76 291.037V290.789C1544.32 288.799 1534.36 241.785 1494.22 221.304C1476.97 212.432 1456.62 209.945 1433.95 213.759C1407.96 218.153 1377.99 236.644 1349.56 265.748C1323.46 292.613 1300.57 326.443 1286.97 358.697C1277.9 380.007 1273.14 400.073 1273.25 416.739C1273.25 435.561 1279.23 450.072 1290.95 459.773C1303.45 470.22 1322.25 476.439 1345.14 477.683ZM1294.38 360.439C1307.76 328.764 1330.21 295.515 1355.87 269.147C1383.18 241.204 1411.49 223.46 1435.71 219.397C1442.02 218.319 1447.99 217.822 1453.85 217.822C1467.12 217.822 1479.18 220.558 1489.9 226.031C1526.4 244.687 1536.69 289.13 1537.13 291.535C1546.97 384.65 1479.4 440.785 1412.93 462.178C1366.04 477.268 1319.37 474.781 1296.7 455.876C1276.57 439.21 1275.8 404.385 1294.38 360.439Z" fill="white"/>
        <path d="M1330.65 432.826L1331.43 433.323C1335.3 435.976 1343.7 437.635 1353.54 437.635C1376.66 437.635 1414.81 428.514 1446.55 402.81C1469.78 383.905 1496.54 350.075 1491.56 296.096L1491.45 295.598C1490.57 292.282 1487.14 280.756 1479.84 269.894C1469.22 254.057 1459.94 252.233 1453.96 252.233C1451.53 252.233 1448.88 252.482 1445.89 252.979C1439.48 254.057 1422.89 261.271 1401.32 281.42C1381.19 300.159 1362.39 324.536 1348.46 349.992C1337.29 370.389 1330.21 389.709 1327.89 406.043C1325.45 423.207 1329.21 430.421 1330.43 432.245L1330.65 432.826ZM1338.73 406.873C1340.94 391.367 1347.79 372.711 1358.63 353.06C1372.24 328.35 1390.37 304.719 1409.95 286.56C1430.41 267.572 1444.89 261.602 1448.43 261.022C1450.65 260.69 1452.53 260.442 1454.07 260.442C1460.38 260.442 1466.79 268.65 1470.11 273.542C1476.63 283.244 1479.84 293.608 1480.73 296.925C1485.37 347.753 1460.38 379.51 1438.7 397.171C1409.39 420.968 1374.67 429.343 1353.77 429.343C1346.02 429.343 1341.6 428.182 1339.83 427.602C1338.73 425.529 1336.85 419.476 1338.73 406.873Z" fill="white"/>
        <path d="M1080.71 1069.88C1115.88 1044.25 1149.06 1020.13 1173.83 993.26C1201.48 963.41 1216.41 932.731 1221.16 896.745C1222.93 883.395 1224.92 869.714 1226.8 856.613C1232.44 817.974 1237.75 781.491 1237.09 751.309C1236.32 716.235 1227.47 694.843 1209.11 684.064C1192.63 674.279 1169.63 673.616 1138.66 681.908C1074.74 699.072 1060.58 758.274 1045.65 820.959C1030.61 884.225 1015.02 949.729 947.668 977.423C894.031 999.479 835.749 996.079 773.927 992.431C682.578 987.124 588.132 981.569 512.265 1064.98C461.503 1120.79 420.915 1187.78 391.83 1243.92H403.663C432.306 1188.86 472.009 1123.85 521.334 1069.63C593.661 990.192 680.808 995.333 773.043 1000.72C833.758 1004.29 896.464 1007.94 952.977 984.72C985.381 971.37 1009.38 948.9 1026.3 915.982C1041.12 887.293 1048.97 854.375 1056.49 822.452C1070.87 762.171 1084.36 705.29 1142.31 689.785C1169.41 682.571 1188.98 682.82 1202.25 690.614C1236.87 711.094 1226.69 781.408 1215.86 855.784C1213.98 868.968 1211.98 882.566 1210.22 895.999C1200.48 971.204 1144.19 1012.08 1073.08 1063.99C1033.6 1092.76 988.809 1125.35 945.899 1168.71C923.227 1191.6 906.528 1216.8 896.022 1243.92H907.744C917.034 1220.62 931.854 1196.74 954.746 1173.69C997.103 1130.74 1041.56 1098.48 1080.71 1069.88Z" fill="white"/>
        <path d="M1048.75 1045.25C1083.7 1019.79 1113.89 997.82 1136.12 973.691C1159.45 948.485 1171.51 923.776 1175.49 893.511C1177.26 879.996 1179.25 866.397 1181.13 853.296V853.048C1186.44 816.73 1191.41 782.32 1191.19 754.708C1191.08 745.256 1190.42 736.964 1188.98 730.082C1187.88 724.195 1183.23 719.054 1176.48 715.986C1169.74 712.918 1161.67 712.338 1154.37 714.245L1154.03 714.328C1143.09 717.23 1128.82 723.78 1115.88 748.075C1104.49 769.468 1097.85 797.411 1090.78 827.012C1074.63 894.921 1056.27 971.95 969.676 1007.52C922.011 1027.09 873.129 1029.41 840.504 1029.41C816.837 1029.41 793.17 1028 770.278 1026.68C747.827 1025.35 726.704 1024.1 705.913 1024.1C645.308 1024.1 595.541 1034.3 550.088 1084.3C505.961 1132.73 469.576 1190.19 441.043 1243.83H449.338C477.539 1191.1 513.26 1134.96 556.392 1087.54C599.965 1039.69 647.631 1029.91 705.802 1029.91C726.262 1029.91 747.275 1031.15 769.614 1032.48C792.618 1033.81 816.395 1035.22 840.504 1035.22C873.903 1035.22 924.112 1032.89 973.326 1012.66C1063.13 975.681 1081.82 897.242 1098.41 828.09C1105.37 798.737 1112.01 771.043 1123.07 750.231C1134.9 728.092 1147.18 722.371 1156.69 719.8L1157.02 719.718C1162.22 718.391 1167.86 718.805 1172.61 720.961C1177.37 723.117 1180.58 726.765 1181.46 730.911C1182.79 737.545 1183.45 745.588 1183.56 754.708C1183.78 781.988 1178.81 816.233 1173.61 852.384V852.633C1171.73 865.817 1169.74 879.415 1167.97 892.931C1164.21 922.2 1152.49 946.08 1129.93 970.375C1108.03 994.006 1078.17 1015.81 1043.44 1041.02C1002.85 1070.62 956.737 1104.12 911.726 1149.56C883.525 1178 863.507 1209.67 852.116 1243.75H860.079C871.359 1210.92 890.824 1180.4 917.919 1152.96C962.488 1108.02 1008.27 1074.68 1048.75 1045.25Z" fill="white"/>
        <path d="M740.196 680.663C739.644 680.663 739.091 680.663 738.538 680.663C711.995 680.415 682.135 673.781 652.275 661.675C627.724 651.643 616.554 637.049 621.641 621.461C627.392 603.965 653.492 589.455 679.702 589.206C679.924 589.206 680.145 589.206 680.366 589.206C714.428 589.206 788.194 613.418 805.004 638.708C810.312 646.668 809.649 654.213 803.013 660.598C789.521 673.781 767.734 680.663 740.196 680.663ZM680.476 597.498C680.255 597.498 680.034 597.498 679.813 597.498C658.247 597.747 637.014 609.355 632.369 623.451C628.498 635.225 637.456 646.253 657.473 654.379C715.534 678.01 770.499 678.425 794.276 655.457C798.258 651.643 798.479 647.497 795.05 642.356C781.448 621.792 713.544 597.498 680.476 597.498Z" fill="white"/>
        <path d="M1267.95 651.228C1241.07 651.228 1219.29 635.391 1212.43 610.931C1207.23 592.44 1208.34 570.55 1215.53 549.407C1222.49 528.843 1234.44 511.845 1248.26 502.642C1259.21 495.345 1271.15 493.106 1282.77 496.091C1333.2 509.026 1348.46 540.866 1332.31 599.24C1327.78 615.491 1319.04 628.924 1306.99 638.045C1295.93 646.502 1281.99 651.228 1267.95 651.228ZM1272.81 503.139C1267.06 503.139 1261.31 505.046 1255.56 508.86C1231.56 524.78 1212.65 571.048 1223.27 609.19C1229.02 629.67 1246.49 642.854 1267.95 642.854C1286.86 642.854 1312.18 630.997 1321.47 597.581C1340.27 529.507 1310.63 512.011 1279.23 503.968C1277.01 503.471 1274.91 503.139 1272.81 503.139Z" fill="white"/>
    </g>
</svg>
