<svg width="53" height="95" viewBox="0 0 53 95" fill="none" xmlns="http://www.w3.org/2000/svg">
    <path d="M0.5 2.37798C0.5 2.07611 0.765473 1.84308 1.0648 1.8822L51.1873 8.43368C51.4363 8.46622 51.6225 8.67837 51.6225 8.92946V11.8673C51.6225 12.1692 51.357 12.4022 51.0577 12.3631L0.935195 5.81159C0.686222 5.77905 0.5 5.5669 0.5 5.31581V2.37798Z" fill="#B1BAC2" stroke="#A8ADB3"/>
    <path d="M38.1867 16.5322H37.6867V17.0322V20.0578C37.626 20.074 37.5585 20.0919 37.4848 20.1111C37.1301 20.2036 36.6336 20.3269 36.0675 20.4501C34.9253 20.6988 33.5368 20.9387 32.4577 20.9387C31.3786 20.9387 29.9901 20.6988 28.8479 20.4501C28.2818 20.3269 27.7853 20.2036 27.4306 20.1111C27.3569 20.0919 27.2894 20.074 27.2287 20.0578V12.7678C27.2287 12.7 27.2245 12.6149 27.2039 12.521C27.153 12.289 26.9761 11.6673 26.4417 11.0981C25.8926 10.5133 25.0075 10.029 23.6319 10.029C21.807 10.029 20.8675 10.8799 20.4169 11.6367C20.2018 11.998 19.9087 12.1968 19.6678 12.1968H18.7727C18.4918 12.1968 18.266 11.9654 18.2729 11.6846L18.531 1.10209C18.5381 0.809032 18.7947 0.584964 19.0861 0.617336L44.9839 3.49487C45.2371 3.52301 45.4287 3.73704 45.4287 3.99181V16.0322C45.4287 16.3084 45.2048 16.5322 44.9287 16.5322H38.1867Z" fill="#BFC5CC" stroke="#A8ADB3"/>
    <path d="M36.0186 6.19336L36.6379 10.5288" stroke="#A6AEB7" stroke-linecap="round"/>
    <path d="M39.1162 6.19336L39.7356 10.5288" stroke="#A6AEB7" stroke-linecap="round"/>
    <path d="M42.2119 6.19336L42.8313 10.5288" stroke="#A6AEB7" stroke-linecap="round"/>
    <path d="M25.3711 21.1366C25.3711 20.2231 26.186 19.5057 27.1105 19.6128C28.6971 19.7965 30.8284 20 32.5 20C34.209 20 36.4693 19.7872 38.128 19.6003C39.0471 19.4968 39.8549 20.2112 39.8549 21.1208V30.0871H25.3711V21.1366Z" fill="#B1BAC2" stroke="#A8ADB3"/>
    <path d="M22.8936 27.1702C22.8936 26.2971 23.6357 25.6034 24.5119 25.6594C26.7643 25.8035 30.3477 26.0018 33.0003 26C35.6017 25.9982 39.1113 25.8028 41.3325 25.6601C42.2089 25.6038 42.9516 26.2977 42.9516 27.1707V36.8998H22.8936V27.1702Z" fill="#B1BAC2" stroke="#A8ADB3"/>
    <path d="M19.1768 32.6856C19.1768 31.8282 19.8917 31.1434 20.7496 31.1795C23.6768 31.3026 29.0819 31.5042 33.0005 31.5C36.8666 31.4958 42.1951 31.2985 45.0952 31.178C45.9526 31.1424 46.667 31.8271 46.667 32.6837V92.9997C46.667 93.8282 45.9955 94.4997 45.167 94.4997H20.6768C19.8483 94.4997 19.1768 93.8282 19.1768 92.9997V32.6856Z" fill="#B1BAC2" stroke="#A8ADB3"/>
    <path d="M19.1768 64.532H46.667V92.9997C46.667 93.8281 45.9955 94.4997 45.167 94.4997H20.6768C19.8483 94.4997 19.1768 93.8281 19.1768 92.9997V64.532Z" fill="#F8D348" stroke="#C3A120"/>
    <ellipse cx="0.484036" cy="0.482379" rx="0.484036" ry="0.482379" transform="matrix(-0.963436 0.267938 0.269938 0.962878 22.708 40.4963)" fill="#9FA6AD"/>
    <ellipse cx="0.363027" cy="0.361784" rx="0.363027" ry="0.361784" transform="matrix(-0.963436 0.267938 0.269938 0.962878 28.0488 54.1223)" fill="#9FA6AD"/>
    <path d="M32 31.5117C32 31.5117 34.2513 31.5078 39 31.5C41.3245 31.4962 43.2893 31.3765 44.69 31.2551C45.9094 31.1495 47 32.1019 47 33.3259V93C47 94.1046 46.1046 95 45 95H32V31.5117Z" fill="#8C939D" fill-opacity="0.3"/>
</svg>
