<svg width="104" height="103" viewBox="0 0 104 103" fill="none" xmlns="http://www.w3.org/2000/svg">
    <path d="M76.3711 28.8193C76.3711 27.9909 77.0427 27.3193 77.8711 27.3193H89.3549C90.1834 27.3193 90.8549 27.9909 90.8549 28.8193V38.0871H76.3711V28.8193Z" fill="#B1BAC2" stroke="#A8ADB3"/>
    <path d="M73.8936 35.0127C73.8936 34.1843 74.5651 33.5127 75.3936 33.5127H92.4516C93.28 33.5127 93.9516 34.1843 93.9516 35.0127V44.8998H73.8936V35.0127Z" fill="#B1BAC2" stroke="#A8ADB3"/>
    <rect x="70.1768" y="39.0869" width="27.4903" height="63.4128" rx="1.5" fill="#B1BAC2" stroke="#A8ADB3"/>
    <path d="M70.1768 72.532H97.667V101C97.667 101.828 96.9955 102.5 96.167 102.5H71.6768C70.8483 102.5 70.1768 101.828 70.1768 101V72.532Z" fill="#F8D348" stroke="#C3A120"/>
    <ellipse cx="0.484036" cy="0.482379" rx="0.484036" ry="0.482379" transform="matrix(-0.963436 0.267938 0.269938 0.962878 73.708 48.4966)" fill="#9FA6AD"/>
    <ellipse cx="0.363027" cy="0.361784" rx="0.363027" ry="0.361784" transform="matrix(-0.963436 0.267938 0.269938 0.962878 79.0488 62.1223)" fill="#9FA6AD"/>
    <path d="M83.3037 38.5869H96.1682C97.2728 38.5869 98.1682 39.4823 98.1682 40.5869V103H83.3037V38.5869Z" fill="#8C939D" fill-opacity="0.3"/>
    <path d="M51.5 9.37798C51.5 9.07611 51.7655 8.84308 52.0648 8.8822L102.187 15.4337C102.436 15.4662 102.623 15.6784 102.623 15.9295V18.8673C102.623 19.1692 102.357 19.4022 102.058 19.3631L51.9352 12.8116C51.6862 12.779 51.5 12.5669 51.5 12.3158V9.37798Z" fill="#B1BAC2" stroke="#A8ADB3"/>
    <path d="M89.1867 23.5322H88.6867V24.0322V26.9387H78.2287V19.7678C78.2287 19.7 78.2245 19.6149 78.2039 19.521L78.2039 19.521C78.153 19.289 77.9761 18.6673 77.4417 18.0981C76.8926 17.5133 76.0075 17.029 74.6319 17.029C72.807 17.029 71.8675 17.8799 71.4169 18.6367C71.2018 18.998 70.9087 19.1968 70.6678 19.1968H69.7727C69.4918 19.1968 69.266 18.9654 69.2729 18.6846L69.531 8.10209C69.5381 7.80903 69.7947 7.58496 70.0861 7.61734L95.9839 10.4949C96.2371 10.523 96.4287 10.737 96.4287 10.9918V23.0322C96.4287 23.3084 96.2048 23.5322 95.9287 23.5322H89.1867Z" fill="#BFC5CC" stroke="#A8ADB3"/>
    <path d="M87.0186 13.1934L87.6379 17.5288" stroke="#A6AEB7" stroke-linecap="round"/>
    <path d="M90.1162 13.1934L90.7356 17.5288" stroke="#A6AEB7" stroke-linecap="round"/>
    <path d="M93.2119 13.1934L93.8313 17.5288" stroke="#A6AEB7" stroke-linecap="round"/>
    <path d="M27.9855 1C33.122 1.00017 44.0932 3.7679 49.4327 6.42111C49.7822 6.59482 49.9845 6.96373 49.9603 7.35334L49.6448 12.4287C49.3607 16.7147 33.6666 14.6908 25.855 13.1431L30.471 12.0716L9.87679 8.49993L14.1377 8.14277L1 3.85679L15.5579 2.78582L11.2971 1.7138L27.6304 2.42866C28.6956 2.42866 34.3767 2.7853 27.9855 1Z" fill="#F84848" stroke="#7B1F1F"/>
    <path d="M39.1159 6C41.3187 6.00007 45.9114 7.08223 48.4079 8.17016C48.7731 8.32931 48.9833 8.70613 48.9574 9.10367L48.8405 10.898C48.713 12.7349 41.6666 11.8675 38.1594 11.2042L40.2319 10.745L30.9855 9.21426L32.8985 9.06119L27 7.22434L33.5362 6.76535L31.6232 6.30592L38.9565 6.61228C39.4348 6.61228 41.9855 6.76513 39.1159 6Z" fill="#F8D348"/>
</svg>
