<svg width="182" height="182" viewBox="0 0 182 182" fill="none" xmlns="http://www.w3.org/2000/svg">
    <path d="M11.0768 44.4223C12.2753 43.6943 13.5402 43.0873 14.8024 42.4785C19.3369 40.2945 20.6819 40.5166 23.9087 41.8952C26.2256 42.8853 35.0226 46.5362 35.9207 48.844C36.1937 49.5483 36.1255 49.4191 36.1846 58.5063C36.2047 61.5294 35.7742 61.341 35.4821 62.8962C35.059 65.1512 35.7396 65.942 33.0834 67.3206C29.5904 69.2918 25.7707 70.6174 21.8075 71.2336C20.6404 71.5779 19.4156 71.6824 18.207 71.5407C16.9984 71.399 15.8309 71.0141 14.7751 70.4091C13.0752 69.6047 6.28841 65.6835 5.38387 64.0455C4.83787 63.0509 4.93888 62.6705 4.71138 53.8016C4.50845 45.8328 3.77863 48.8467 11.0768 44.4223Z" fill="#FFFCF1"/>
    <path d="M34.2034 45.3068C21.4689 39.9059 20.9365 39.1816 18.5105 40.1926L6.49848 45.1976C5.63735 45.555 4.90166 46.1599 4.38457 46.9357C3.86748 47.7114 3.59225 48.6233 3.59376 49.5556V63.0827C3.59242 64.0153 3.86803 64.9272 4.38565 65.7029C4.90327 66.4786 5.63957 67.0831 6.50121 67.4398C19.658 72.9244 19.0592 72.8134 20.3396 72.8134C21.6199 72.8134 20.8455 72.9954 34.1779 67.4398C35.0391 67.0827 35.7748 66.478 36.2919 65.7024C36.809 64.9267 37.0842 64.015 37.0827 63.0827V49.653C37.0835 48.7256 36.8107 47.8187 36.2986 47.0456C35.7864 46.2725 35.0576 45.6677 34.2034 45.3068ZM19.2439 41.9507C19.5901 41.8066 19.9616 41.7329 20.3366 41.734C20.7116 41.7351 21.0826 41.8109 21.4279 41.9571C34.5702 47.5381 33.6083 47.1013 33.9286 47.3197L20.3414 52.4912L6.75237 47.2187C7.08361 46.9985 6.1281 47.4171 19.2439 41.9507ZM7.23467 65.6799C6.72175 65.4668 6.28364 65.1062 5.97584 64.6438C5.66804 64.1815 5.50441 63.6382 5.50567 63.0827C5.50567 48.5837 5.36644 49.1079 5.83873 48.227L19.7053 53.6069C19.7053 72.6159 19.8973 70.9579 19.2585 70.6922L7.23467 65.6799ZM35.1717 63.0827C35.1727 63.6381 35.009 64.1813 34.7012 64.6436C34.3934 65.1059 33.9554 65.4666 33.4427 65.6799L21.4225 70.6922C20.7855 70.9588 20.9748 72.6241 20.9748 53.6096L34.8441 48.3316C35.3027 49.1889 35.1753 48.6146 35.1753 63.0827H35.1717Z" fill="#20201E"/>
    <path d="M51.5968 72.3447C50.5048 70.9797 46.0776 68.7912 42.9336 67.8521C41.4181 67.3997 39.4476 65.9812 39.0037 64.4632C38.4184 62.4616 37.1565 60.4901 35.7691 59.1925C32.6706 56.2996 33.061 55.0411 31.0371 55.4278C30.7708 55.5143 30.5259 55.6563 30.3187 55.8446C30.1114 56.0328 29.9466 56.263 29.835 56.5198C28.7139 58.4836 32.2347 60.927 32.8471 62.4558C32.9847 62.795 33.0257 63.1657 32.9654 63.5268C32.8461 64.242 32.1999 64.8231 31.4755 64.7925C30.6664 64.7583 29.8159 64.239 29.3263 63.7024C28.6165 62.9244 28.1815 61.9662 27.5118 61.1717C25.9448 59.3135 23.9846 59.8131 23.2248 61.2546C22.8307 62.0026 23.5169 63.3002 23.9855 64.0028C26.8065 68.2288 27.1942 68.8813 27.9895 69.7103C29.8095 71.6158 32.434 72.2983 33.6315 72.0763C34.1622 71.9208 34.675 71.711 35.162 71.4506C35.3696 71.3397 35.6237 71.3579 35.8116 71.4997C36.0282 71.663 36.108 71.9526 36.019 72.2088C35.8485 72.6995 35.7535 73.2142 35.7382 73.7352C35.9966 77.5153 42.9636 81.047 45.3478 82.3802C46.9967 83.3038 48.3717 80.8723 47.7511 79.8249C47.2351 78.954 44.3513 78.6419 42.4422 76.6326C41.9416 76.1059 41.683 75.5908 41.5991 75.1311C41.4163 74.1289 42.4072 73.33 43.4062 73.1299C44.4051 72.9298 45.4168 73.2948 46.323 73.76C47.0867 74.1521 47.8142 74.613 48.4964 75.1375C49.6221 75.9747 50.2918 76.2295 51.3174 75.1548C52.1628 74.2776 52.4158 73.373 51.5968 72.3447Z" fill="#FFFCF1"/>
    <path d="M52.4643 73.2457C52.4523 72.9053 52.3379 72.5765 52.1361 72.3021C51.9343 72.0278 51.6545 71.8206 51.3332 71.7078C48.9299 69.1707 44.1087 66.0403 40.3222 66.8338C41.0784 62.7497 35.9942 58.2571 33.2715 55.9265C32.9712 55.6717 33.1423 55.5161 32.4962 55.1876C30.9292 54.3923 28.9681 55.9456 29.3903 57.4899C29.9236 59.5829 32.3142 61.7615 32.4288 63.3785C32.4862 64.2376 32.0603 64.5206 31.3032 64.3104C29.6097 63.8335 27.2191 60.3064 26.2727 59.8759C24.1688 58.9304 21.9584 61.1499 23.2096 63.0982C23.5127 63.5423 25.1416 68.2179 28.9426 71.099C30.7335 72.4276 32.8047 73.2921 34.8685 72.4713C34.7607 73.5226 34.9171 74.5843 35.3236 75.5598C35.7301 76.5354 36.3738 77.394 37.1963 78.0577C38.9544 79.6202 43.7592 82.0445 45.0678 82.5404C45.289 83.0209 46.3973 83.384 47.6158 81.8443C48.8161 80.33 47.9653 79.2517 47.4566 79.1889C46.5602 78.3772 43.1377 76.3351 42.488 75.0648C42.0994 74.2785 42.67 73.6943 43.4726 73.556C44.9495 73.2921 47.7496 75.2731 49.3576 75.8719C50.3467 77.1878 52.6372 75.1658 52.4643 73.2457ZM24.0596 63.5087C23.8712 62.8808 23.2897 61.9216 24.2088 61.0298C24.5274 60.7613 24.9114 60.5816 25.3217 60.5091C25.7321 60.4365 26.1543 60.4737 26.5457 60.6167C26.937 62.5004 29.758 66.4243 32.2523 65.9165C31.5625 67.8057 32.5781 69.6639 33.9813 71.1035C29.8226 72.2956 24.9632 64.6007 24.0596 63.5059V63.5087ZM42.4862 77.2588C46.3455 80.0479 47.3547 79.1161 47.4538 79.9533C47.4984 80.3327 47.3219 80.6813 46.8705 81.2509C45.6429 82.8052 45.4473 82.2319 45.1415 82.0299C41.5716 79.0851 36.1207 77.0768 36.4055 73.0345C37.7167 73.8769 39.2717 74.257 40.8236 74.1147C40.5861 75.4515 41.4187 76.448 42.4862 77.2588ZM49.6333 75.5589C48.9408 74.5087 45.5792 71.8361 43.418 71.9971C43.4955 71.7004 43.5029 71.3898 43.4397 71.0897C43.3766 70.7897 43.2445 70.5084 43.054 70.2681C42.7273 69.9132 42.0903 69.3645 42.5708 70.5785C42.666 70.8546 42.6847 71.1513 42.6248 71.4372C42.5648 71.723 42.4286 71.9873 42.2304 72.2019C40.0856 74.6853 32.1677 69.5492 33.3498 65.9939C33.8512 64.3513 35.1643 64.5543 35.2344 64.365C35.3117 64.2385 34.6884 63.8927 33.9422 64.1366C34.0855 63.2004 33.8615 62.2451 33.317 61.4703C32.4003 60.1402 31.2928 58.9524 30.0301 57.9449C29.9978 57.6094 30.0526 57.2712 30.1892 56.9631C30.3258 56.6549 30.5396 56.3872 30.8099 56.1859C31.3004 55.8678 31.894 55.7496 32.4689 55.8556C34.0159 58.1979 38.7615 62.2656 38.8298 65.9247C38.8528 66.2477 38.808 66.5719 38.6983 66.8766C38.5886 67.1812 38.4164 67.4596 38.1928 67.6938C37.6886 66.9018 37.2304 66.0814 36.8205 65.2368C36.2445 64.3914 35.5247 64.2767 35.4555 64.4642C35.3645 64.6462 35.6957 65.0102 35.8859 65.7054C36.0597 66.871 36.5388 67.9699 37.2746 68.8904C37.6744 69.4114 38.2102 69.8121 38.823 70.0483C39.4359 70.2844 40.102 70.347 40.7481 70.229C41.6844 69.9769 42.5426 69.8595 41.7491 69.4173C41.082 69.0233 40.3458 69.3927 39.5596 68.8886C39.4422 68.8176 39.4613 68.8422 39.5077 68.7721C43.4771 66.812 48.6878 70.9051 51.2667 72.2365C52.2013 73.4832 50.7371 75.8756 49.6333 75.5625V75.5589Z" fill="#20201E"/>
    <path d="M152.322 44.3604C153.52 43.6324 154.784 43.0245 156.047 42.4166C160.582 40.2326 161.927 40.4538 165.154 41.8324C167.471 42.8225 176.268 46.4734 177.166 48.7812C177.439 49.4855 177.371 49.3563 177.43 58.4435C177.45 61.4666 177.019 61.2782 176.727 62.8334C176.304 65.0884 176.985 65.8792 174.328 67.2578C170.835 69.2288 167.016 70.5543 163.053 71.1708C161.885 71.5151 160.661 71.6196 159.452 71.4779C158.243 71.3362 157.076 70.9513 156.02 70.3463C154.32 69.5419 147.534 65.6207 146.629 63.9827C146.083 62.9881 146.184 62.6077 145.956 53.7388C145.754 45.7727 145.024 48.7839 152.322 44.3604Z" fill="#FFFCF1"/>
    <path d="M175.526 45.3068C162.747 39.8868 162.24 39.188 159.832 40.1926L147.82 45.1976C146.959 45.555 146.223 46.1599 145.706 46.9358C145.189 47.7116 144.914 48.6233 144.916 49.5556V63.0828C144.914 64.0149 145.189 64.9266 145.706 65.7023C146.223 66.4779 146.959 67.0827 147.82 67.4398C160.977 72.9253 160.378 72.8134 161.658 72.8134C162.999 72.8134 162.75 72.7542 175.497 67.4398C176.358 67.0827 177.093 66.478 177.611 65.7024C178.128 64.9267 178.403 64.015 178.401 63.0828V49.653C178.402 48.7261 178.13 47.8194 177.619 47.0464C177.107 46.2733 176.379 45.6683 175.526 45.3068ZM160.565 41.9507C160.912 41.8071 161.283 41.7337 161.658 41.7348C162.033 41.7358 162.404 41.8114 162.749 41.9571C175.895 47.5318 174.931 47.0986 175.253 47.3134L161.665 52.4885L148.076 47.216C148.399 47.0021 147.343 47.4644 160.565 41.9507ZM148.553 65.6772C148.04 65.4639 147.602 65.1033 147.295 64.641C146.987 64.1787 146.823 63.6354 146.824 63.08C146.824 48.5482 146.691 49.097 147.157 48.2243L161.025 53.6042C161.025 72.6132 161.216 70.9552 160.577 70.6894L148.553 65.6772ZM176.49 63.08C176.492 63.6355 176.328 64.1788 176.02 64.6411C175.712 65.1035 175.274 65.464 174.761 65.6772L162.74 70.6894C162.103 70.9561 162.293 72.6214 162.293 53.6069L176.162 48.3289C176.625 49.1889 176.497 48.6147 176.497 63.0828L176.49 63.08Z" fill="#20201E"/>
    <path d="M158.959 59.7585C158.761 59.157 157.649 57.7565 156.799 57.7565C155.07 57.7456 153.386 62.3293 151.227 62.473C150.923 62.5015 150.618 62.4393 150.35 62.2943C150.082 62.1493 149.863 61.9281 149.72 61.6586C149.127 60.3373 151.464 57.7361 152.344 56.0413C152.73 55.2976 152.414 54.4653 151.793 53.9017C151.466 53.6046 151.077 53.3155 150.636 53.3543C150.052 53.4058 149.498 53.8741 149.042 54.3085C142.025 60.9797 143.196 59.6193 142.709 63.0791C142.48 64.0688 141.647 65.1047 140.632 65.1495C139.73 65.1894 138.832 65.3192 137.952 65.5379C137.078 65.851 136.6 66.1986 133.113 68.4345C132.248 68.9896 130.609 69.5128 130.305 70.8742C130.072 71.9134 130.859 73.7862 131.958 73.6879C132.863 73.6078 132.556 72.8052 136.508 71.4238C137.203 71.122 137.957 70.9796 138.715 71.007C139.093 71.03 139.453 71.1757 139.741 71.4221C140.029 71.6684 140.228 72.002 140.309 72.372C140.422 73.3776 138.237 76.2213 136.296 76.67C135.684 76.8119 134.923 76.852 134.635 77.408C134.371 77.9258 134.707 78.5364 135.034 79.0178C136.019 80.4738 136.663 80.3354 137.426 79.865C143.641 76.043 144.069 75.8537 144.706 75.1139C145.342 74.3808 146.306 72.3223 146.501 70.7527C146.569 70.1974 146.703 69.6072 147.166 69.2926C148.608 68.5382 150.11 71.2809 154.227 67.5035C155.387 66.4388 156.295 65.0329 158.075 62.524C158.662 61.6977 159.273 60.7131 158.959 59.7585Z" fill="#FFFCF1"/>
    <path d="M159.555 59.5984C159.511 59.0372 159.268 58.5101 158.871 58.1118C158.473 57.7135 157.946 57.4701 157.385 57.4253C156.997 57.3768 156.603 57.4305 156.242 57.5812C155.881 57.7319 155.566 57.9743 155.327 58.2843C154.497 59.127 151.282 63.0391 150.238 62.0099C148.236 60.4975 155.491 55.4351 152.137 53.161C150.896 52.3002 149.327 52.9927 149.275 53.5642C146.267 56.0794 142.222 59.7276 142.016 63.637C141.953 64.779 142.349 64.6179 141.693 64.5233C137.929 64.0274 133.321 67.0904 131.07 69.4655C130.825 69.5329 130.604 69.6675 130.433 69.8541C128.71 71.6641 131.777 75.3141 133.041 73.6306C134.636 73.0309 137.458 71.0516 138.924 71.3146C139.743 71.4566 140.289 72.0472 139.908 72.8234C139.261 74.0892 135.825 76.1476 134.94 76.9475C134.386 77.0149 133.587 78.096 134.78 79.6029C136.044 81.1945 137.135 80.7331 137.328 80.3C140.119 79.121 142.761 77.6157 145.199 75.8155C146.022 75.1521 146.666 74.2935 147.073 73.3179C147.479 72.3423 147.636 71.2805 147.528 70.229C149.59 71.048 151.661 70.1871 153.454 68.8567C156.078 66.8684 157.281 64.6771 158.748 61.7296C159.371 60.462 159.585 60.2945 159.555 59.5984ZM132.769 73.3203C131.669 73.6315 130.2 71.2327 131.138 69.9951C133.912 68.5628 138.947 64.5743 142.897 66.5317C142.943 66.5999 142.961 66.5763 142.845 66.6482C142.047 67.1414 141.32 66.7828 140.655 67.176C140.4 67.3188 140.32 67.4708 140.357 67.5609C140.394 67.651 140.553 67.691 140.761 67.7429C141.613 68.1113 142.57 68.1547 143.451 67.8648C146.01 66.7128 146.272 64.2549 146.517 63.4686C146.707 62.7734 147.04 62.413 146.948 62.2283C146.883 62.0399 146.162 62.1555 145.583 63.0009C145.172 63.8447 144.714 64.665 144.211 65.4579C144.147 65.4178 144.083 65.3796 144.018 65.3423C141.982 61.7842 147.854 56.437 149.579 54.1156C150.009 53.5414 149.866 53.6233 150.101 53.5969C150.354 53.5524 150.613 53.5591 150.864 53.6164C151.114 53.6737 151.351 53.7806 151.559 53.9307C151.767 54.0808 151.944 54.2712 152.077 54.4905C152.211 54.7098 152.299 54.9536 152.337 55.2076C152.414 55.9129 152.526 55.4479 150.861 57.075C149.806 58.156 148.599 59.5056 148.42 61.0034C148.305 62.2438 148.767 61.847 148.038 61.8224C147.396 61.7878 147.128 62.0663 147.167 62.1318C147.208 62.2447 147.5 62.2064 147.908 62.3803C148.978 62.8298 149.752 64.5788 148.602 66.3934C147.627 67.964 145.006 70.1935 142.667 70.5511C140.312 70.9652 139.378 69.3836 139.83 68.3453C139.992 67.9376 140.247 67.7474 140.187 67.6473C140.089 67.3834 138.603 68.0696 138.982 69.7676C136.859 69.5993 133.46 72.2701 132.769 73.3203ZM136.931 80.0907C136.312 80.0625 135.958 79.5501 135.533 79.0123C134.889 78.1933 134.866 77.8794 135.026 77.3589C136.355 77.2415 142.099 74.8345 141.586 71.8761C143.138 72.0184 144.693 71.6383 146.004 70.7959C146.308 75.1812 139.373 77.5845 136.93 80.0907H136.931ZM148.421 68.8585C149.827 67.4153 150.837 65.5562 150.15 63.6715C152.072 64.0619 153.881 62.0208 154.932 60.3728C156.282 58.2279 155.418 58.4117 156.326 58.2798C158.027 58.015 159.042 59.3026 158.587 60.5621C157.904 62.6123 152.263 69.9651 148.421 68.8585Z" fill="#20201E"/>
    <path d="M68.584 125.138C68.4685 124.003 68.0744 122.907 67.9862 121.771C67.9143 120.85 68.0444 119.925 68.0481 119.001C68.0635 114.75 65.288 112.125 62.417 112.3C61.9865 110.008 61.4233 107.494 59.5468 106.108C58.7488 105.479 57.8126 105.05 56.8156 104.855C55.8186 104.66 54.7896 104.706 53.8138 104.988C53.529 100.914 50.88 96.6791 46.6658 97.2933C40.9328 98.1296 29.9391 112.541 27.6386 117.131C25.6047 121.192 24.6602 126.054 25.8623 130.351C23.8876 127.327 19.8799 130.699 19.809 137.112C19.7577 137.787 19.8473 138.465 20.0721 139.104C20.2969 139.743 20.652 140.327 21.1148 140.821C22.5329 142.851 24.0948 144.777 25.7886 146.583C27.6732 148.373 33.438 152.288 37.3765 153.453C43.2396 155.187 47.8097 152.849 48.6833 150.785C48.9563 150.138 48.9563 149.677 49.2293 146.549C49.3339 145.33 49.2638 144.164 48.0999 143.785C56.4956 141.661 59.029 133.56 59.2101 133.364C60.2081 132.472 61.4256 131.863 62.7373 131.599C66.4683 131.411 68.9608 128.856 68.584 125.138ZM31.1703 137.988C33.043 139.594 35.0394 141.05 37.1408 142.343C34.8898 141.287 32.8628 139.809 31.1703 137.988ZM38.6187 143.084C40.7587 144 43.0876 144.388 45.4091 144.216C42.8711 145.259 41.4051 144.449 38.6187 143.085V143.084Z" fill="white"/>
    <path d="M68.0922 120.738C70.3754 117.571 67.811 111.795 64.3321 111.494C64.1574 107.517 59.2361 103.257 54.7471 104.257C54.7263 102.186 53.912 100.203 52.472 98.7153C51.032 97.2278 49.0761 96.3494 47.0075 96.2614C43.8753 96.144 41.7195 98.136 39.7193 100.545C32.9553 108.889 22.6596 117.885 24.4596 128.482C18.9996 129.599 15.5825 137.645 23.2028 145.361C28.287 150.351 38.8285 157.535 45.4978 154.775C46.6751 154.299 47.7325 153.568 48.5943 152.636C49.4561 151.703 50.101 150.591 50.4828 149.38C50.9663 147.694 50.7977 145.888 50.0105 144.32C54.7334 142.361 58.0313 137.604 60.4846 133.085C63.079 132.302 65.991 132.321 68.064 129.961C70.3427 127.427 70.1807 123.487 68.0922 120.738ZM63.5741 114.923C63.8481 114.37 64.0529 113.785 64.1838 113.182C65.6771 113.958 67.2778 117.011 66.8446 119.417C65.5368 118.31 63.9843 117.531 62.3156 117.142C61.6067 116.958 62.3638 117.342 63.5741 114.923ZM62.1663 111.87C62.0982 113.735 61.3079 115.502 59.9623 116.796C57.7108 116.661 55.453 116.917 53.2884 117.551C44.1783 120.216 48.4044 121.898 44.9773 118.316C49.5473 114.82 54.1146 110.806 54.697 105.898C58.2779 105.441 62.0862 109.029 62.1663 111.87ZM48.7975 148.881C48.4537 149.795 47.9194 150.625 47.2299 151.317C46.5405 152.008 45.7118 152.544 44.799 152.891C39.1342 155.098 29.025 147.935 24.7225 143.813C18.176 137.367 20.7322 131.082 24.7872 129.954C27.1795 138.673 38.8922 147.707 48.5882 144.824C49.1761 146.1 49.251 147.552 48.7975 148.881ZM66.5107 128.625C64.3075 131.275 59.1306 130.129 52.8079 135.716C51.6513 136.743 51.1444 137.44 51.2399 137.546C51.4875 137.824 53.9527 135.622 58.2952 133.868C55.1775 138.617 52.1873 142.428 46.7509 143.32C37.6955 144.653 26.4297 134.984 26.467 126.087C26.4424 118.37 33.757 110.931 38.772 105.052C42.028 101.281 44.8745 96.0366 49.9923 99.2489C52.9953 101.095 54.1237 105.933 51.0297 110.222C48.9272 112.839 46.5333 115.207 43.8944 117.282C39.5637 113.449 34.7944 113.819 34.7862 114.398C34.7726 115.292 39.2962 114.506 45.1548 121.268C44.1319 121.898 37.1996 126.695 37.5736 127.219C37.7929 127.527 41.6586 124.994 45.2731 123.049C64.0828 112.94 70.2817 124.089 66.5107 128.625Z" fill="#20201E"/>
    <path d="M39.4419 110.412C39.5911 113.884 39.9633 117.735 42.5359 120.066C44.6944 122.019 47.8139 122.354 50.5785 123.251C57.4608 125.485 57.054 128.468 84.4378 138.051C90.4774 140.165 91.5622 139.545 95.7718 137.664C101.698 135.015 107.288 132.951 112.88 129.656C115.692 127.998 119.238 126.964 122.107 125.407C126.971 122.768 132.774 122.196 137.539 119.381C139.177 118.414 139.666 116.833 140.211 115.013C140.552 113.593 140.563 112.113 140.241 110.689C139.036 103.095 140.856 95.507 140.188 87.8475C139.477 79.6843 141.468 71.5055 140.396 63.4515C140.221 62.1395 139.911 60.8039 139.081 59.7731C138.816 59.4442 138.518 59.141 138.191 58.8686C137.288 58.015 135.888 58.0059 134.772 57.4599C133.766 57.089 132.808 56.6002 131.917 56.0039C128.865 53.4996 120.997 53.081 104.752 45.0402C101.577 43.4686 95.1967 40.9352 91.6877 40.4347C86.1931 39.6512 84.173 41.9226 79.0924 44.1566C67.9977 49.0369 60.9925 52.0809 54.8928 54.9583C48.6584 57.9003 41.5586 57.7602 40.4675 63.3685C40.1654 64.9155 39.4528 78.9159 39.3482 81.7806C39.0097 91.109 39.0224 100.666 39.4419 110.412Z" fill="#FFFCF1"/>
    <path d="M76.6427 69.7321C75.706 70.3915 75.9238 71.357 76.9441 71.8779C77.1901 72.0035 77.4434 72.1153 77.7028 72.2128C78.4727 72.4749 78.4872 70.674 78.5327 70.2108C78.6065 69.4491 78.8057 68.8312 78.4809 68.8039C77.6619 68.732 77.2424 69.3017 76.6427 69.7321Z" fill="#FFFCF1"/>
    <path d="M141.511 63.1811C141.561 61.983 141.241 60.7985 140.594 59.7889C139.947 58.7793 139.005 57.9937 137.895 57.5391L92.8966 39.6375C89.7489 38.3854 91.7755 38.2725 42.8794 58.2607C41.7559 58.6998 40.7853 59.4577 40.0868 60.4412C39.3884 61.4246 38.9926 62.5908 38.9482 63.7962V115.639C38.9003 116.817 39.2097 117.982 39.8357 118.981C40.4617 119.98 41.3752 120.767 42.4562 121.237L87.4567 140.148C88.2047 140.46 89.0078 140.619 89.8185 140.616C90.6292 140.612 91.4308 140.445 92.1759 140.126L137.683 120.512C138.778 120.058 139.72 119.299 140.398 118.326C141.075 117.353 141.459 116.206 141.505 115.021L141.511 63.1811ZM139.265 100.34L124.787 106.554V89.8786L139.265 83.6124V100.34ZM106.463 114.452V97.7756L123.233 90.5448C123.614 90.6931 123.515 87.5054 123.515 107.099L106.463 114.452ZM123.515 108.487V124.197L106.463 131.548V115.837L123.515 108.487ZM89.8172 121.629C73.2261 114.66 74.8841 115.633 74.8841 114.732L90.1985 108.472L105.148 114.419C105.214 114.254 105.192 114.18 105.192 115.001L89.8172 121.629ZM90.7454 54.2167L105.669 60.957C102.203 62.5832 97.9508 64.597 91.2213 67.7948C89.8263 68.4563 92.5563 69.2462 74.8832 61.2009L90.7454 54.2167ZM73.3353 60.4956C68.7125 58.3945 63.7002 56.134 59.0301 54.0629L75.0943 47.4963L88.9727 53.6088L73.3353 60.4956ZM92.0057 53.3904L105.796 47.1642L121.849 53.5487C115.106 56.5945 111.643 58.167 107.193 60.2463L92.0057 53.3904ZM123.515 89.0414C123.084 89.2234 124.903 89.8441 107.657 82.9827V61.8525L123.515 69.0133V89.0414ZM105.192 113.065L90.8309 107.352V91.4275L105.192 97.1395V113.065ZM74.9105 77.6018C75.4501 76.3733 73.6893 77.9613 87.3065 71.1144C88.2165 70.6594 88.9791 70.2581 89.5906 69.9587V89.936C89.5906 90.1425 90.7345 89.5893 74.8841 96.0685C74.8841 76.7901 74.8195 77.5618 74.9105 77.6018ZM90.8637 89.3408V69.3581C94.8959 67.4471 102.381 63.9054 106.386 62.0263V82.9918L90.8637 89.3408ZM90.8309 90.0188L90.851 90.0697L90.8309 90.0616V90.0188ZM74.8841 97.4417L89.5597 91.4429V107.36L74.8841 113.358V97.4417ZM106.593 96.336L91.6372 90.3873L107.021 84.0992L121.559 89.8832L106.593 96.336ZM107.62 61.8361C106.619 61.8361 106.609 61.9216 107.198 61.6459L107.62 61.8361ZM88.7643 68.9641C85.9815 70.3364 80.5488 73.1665 74.2871 75.9384L57.8553 68.7048L73.3253 61.8907C80.2795 65.0493 86.2746 67.8139 88.7643 68.9641ZM73.6128 77.0304V96.7592L56.9098 89.7394V69.6739L73.6128 77.0304ZM55.6385 89.2052L41.2232 83.1465C41.3724 62.0172 41.3142 63.5369 41.4825 62.8799L55.6385 69.1143V89.2052ZM41.1522 84.5215L55.6385 90.5839V107.266L41.1522 101.154V84.5215ZM56.9098 91.1181L73.6128 98.1378C73.6128 115.312 73.5755 114.097 73.6128 114.188C73.6128 115.093 76.1335 115.88 56.9098 107.8V91.1181ZM73.6128 116.199V131.916L56.9098 124.897V109.18L73.6128 116.199ZM139.334 82.2237L124.787 88.4936V68.7748L139.353 62.1983C139.524 62.8808 139.481 61.4357 139.334 82.2237ZM138.84 61.0353C122.444 68.4381 124.046 67.5873 124.198 67.9267L108.717 60.9361C112.946 58.9678 116.538 57.3398 123.487 54.2021C138.449 60.1508 137.963 59.7131 138.84 61.0353ZM89.2302 41.7187C91.1412 40.9388 91.2868 41.392 104.154 46.5108L90.2576 52.7898L76.7296 46.8275L89.2302 41.7187ZM57.3975 54.7317C62.0313 56.7801 67.0727 59.0497 71.7755 61.1836L56.2791 68.0086L42.0012 61.7196C42.8666 60.4319 42.3589 60.8788 57.3975 54.7308V54.7317ZM41.0412 115.654V102.529L55.6421 108.646V124.363L43.3162 119.186C42.6278 118.892 42.0432 118.398 41.6377 117.769C41.2323 117.139 41.0245 116.403 41.0412 115.654ZM74.8841 132.45V116.734L89.2539 122.797V138.345C88.6014 138.242 89.5333 138.607 74.8841 132.45ZM90.5261 138.333V122.681L105.196 116.389V132.095C90.0747 138.61 91.1458 138.221 90.5261 138.333ZM136.805 118.469L124.787 123.649V107.939L139.149 101.729V115.005C139.134 115.747 138.905 116.469 138.489 117.083C138.073 117.698 137.488 118.179 136.805 118.469Z" fill="#20201E"/>
    <path d="M101.897 127.136C101.924 126.603 101.788 126.075 101.508 125.621C101.335 125.422 101.109 125.277 100.856 125.203C100.603 125.128 100.335 125.127 100.082 125.2C100.319 121.742 94.6646 122.203 95.2215 126.65C93.6918 127.421 93.9393 129.442 94.1186 131.25C94.1194 131.624 94.2327 131.988 94.4437 132.297C94.6546 132.605 94.9536 132.843 95.3016 132.979C96.1655 133.113 97.0497 132.975 97.8314 132.583C101.343 131.361 102.24 131.543 101.897 127.136ZM96.2689 125.274C96.7239 124.091 99.1017 123.104 99.2337 125.434C95.4044 126.545 96.7275 126.152 96.025 126.344C96.0577 125.978 96.1397 125.618 96.2689 125.274ZM97.5429 131.608C96.4564 131.922 95.6929 132.252 95.3589 131.695C95.1769 131.396 94.7465 128.286 95.6319 127.691C95.8012 127.584 99.7933 126.326 99.9626 126.276C100.897 125.918 100.884 126.26 101.015 127.229C101.533 131.012 100.919 130.578 97.5465 131.608H97.5429Z" fill="#20201E"/>
    <path d="M82.7624 8.15066C83.9608 7.42266 85.2248 6.81478 86.487 6.2069C91.0224 4.0229 92.3674 4.24403 95.5943 5.62359C97.9111 6.61276 106.708 10.2646 107.606 12.5714C107.879 13.2758 107.811 13.1475 107.87 22.2338C107.889 25.2578 107.46 25.0685 107.168 26.6237C106.745 28.8786 107.424 29.6694 104.769 31.0481C101.276 33.0189 97.4562 34.3444 93.4931 34.9611C92.3259 35.3052 91.101 35.4095 89.8924 35.2676C88.6838 35.1258 87.5164 34.7407 86.4606 34.1357C84.7607 33.3313 77.974 29.4101 77.0694 27.773C76.5234 26.7775 76.6244 26.398 76.3969 17.5282C76.194 9.56025 75.4642 12.5751 82.7624 8.15066Z" fill="#FFFCF1"/>
    <path d="M105.942 9.42284C93.2063 4.02381 92.6739 3.29854 90.2478 4.30955L78.2359 9.31455C77.3748 9.67196 76.6393 10.2769 76.1223 11.0527C75.6054 11.8285 75.3303 12.7403 75.332 13.6725V27.1997C75.3305 28.1318 75.6057 29.0434 76.1226 29.819C76.6395 30.5946 77.375 31.1994 78.2359 31.5568C91.3662 37.0313 90.7939 36.9303 92.0742 36.9303C93.3546 36.9303 92.6821 37.0723 105.913 31.5568C106.774 31.1997 107.509 30.595 108.027 29.8193C108.544 29.0436 108.819 28.1319 108.817 27.1997V13.7699C108.818 12.8429 108.546 11.9361 108.035 11.1629C107.523 10.3897 106.795 9.78446 105.942 9.42284ZM90.9822 6.06949C91.3286 5.92608 91.7 5.85287 92.075 5.85412C92.4499 5.85537 92.8208 5.93105 93.1662 6.07677C106.289 11.6505 105.352 11.2192 105.67 11.4321L92.0797 16.6073L78.4897 11.3357C78.8183 11.1173 77.8345 11.5504 90.9822 6.06949ZM78.9702 29.7968C78.4574 29.5836 78.0193 29.223 77.7115 28.7607C77.4038 28.2984 77.2401 27.7551 77.2412 27.1997C77.2412 12.667 77.1075 13.2166 77.5743 12.3439L91.4418 17.7239C91.4418 36.7247 91.6338 35.0748 90.994 34.8091L78.9702 29.7968ZM106.907 27.1997C106.908 27.7551 106.745 28.2984 106.437 28.7608C106.129 29.2231 105.691 29.5837 105.178 29.7968L93.1571 34.8091C92.5201 35.0757 92.7094 36.741 92.7094 17.7266L106.579 12.4486C107.041 13.3049 106.913 12.7316 106.913 27.1997H106.907Z" fill="#20201E"/>
    <path d="M98.6929 24.608C98.2861 23.5687 97.8611 23.3203 96.9011 23.3412C96.0229 23.3604 94.9901 23.6506 94.7171 24.4869C94.5351 25.0548 94.8281 29.0961 93.9336 30.5284C93.8263 30.7413 93.6652 30.9224 93.4662 31.0536C93.2672 31.1849 93.0373 31.2617 92.7994 31.2766C92.5615 31.2914 92.3239 31.2436 92.1102 31.1381C91.686 30.9286 91.3994 30.5152 91.1279 30.1278C89.1555 27.3129 91.0979 23.1121 88.51 23.1556C87.8703 23.1803 87.2628 23.4422 86.8057 23.8904C86.3486 24.3385 86.0748 24.9408 86.0375 25.5798C86.0002 26.2259 86.1412 26.873 86.0657 27.5181C85.7499 30.2181 85.1502 27.8439 86.6545 34.6116C87.0579 36.4285 87.0433 41.1264 86.6305 42.9412C86.3382 44.226 86.197 45.6283 86.0666 46.8902C85.7627 49.8814 86.2486 51.9953 89.1943 53.0928C90.0856 53.4248 89.9486 53.2874 89.0107 53.1288C88.7458 53.0839 88.4776 53.0563 88.2078 53.0464C85.3632 52.807 84.6589 58.9859 84.7626 61.6277C84.8272 63.2475 85.4242 63.5805 86.6845 63.5696C87.6245 63.5614 88.0832 63.4358 88.419 62.5968C89.0141 61.1153 88.9713 58.9814 91.0862 59.2407C92.0872 59.3636 92.3829 59.8541 92.4639 60.8169C92.5977 62.4048 91.2809 63.3376 92.8661 63.9054C95.0092 64.6716 96.1185 65.1703 96.3769 59.1288C96.5094 57.9513 96.3263 56.7635 95.8517 55.6858C95.6892 55.317 95.63 54.9081 95.7027 54.5116C95.8373 53.7781 96.4145 53.2906 97.1118 53.0262C97.5948 52.8431 98.0796 52.4489 98.52 51.5103C99.9377 48.4882 99.1733 42.9845 98.2151 39.7258C98.0759 39.2517 97.9494 39.1061 97.4635 39.0069C96.6413 38.839 96.786 38.5281 97.4294 37.9896C100.644 35.2995 99.8554 27.5834 98.6929 24.608Z" fill="#FFFCF1"/>
    <path d="M98.6765 23.6598C98.419 23.3701 98.0995 23.1424 97.7417 22.9935C97.3839 22.8447 96.9971 22.7786 96.6102 22.8002C96.2233 22.8218 95.8462 22.9306 95.5072 23.1183C95.1682 23.3061 94.876 23.568 94.6525 23.8845C94.2539 24.5397 94.4095 25.2559 94.2821 26.9667C93.8508 32.4767 91.7341 31.473 91.0525 29.1571C90.4355 26.9885 90.5793 24.1994 89.7375 23.3331C89.4901 23.1202 89.2013 22.9608 88.8893 22.865C88.5772 22.7692 88.2488 22.7389 87.9245 22.7762C87.6002 22.8135 87.2872 22.9174 87.005 23.0815C86.7229 23.2457 86.4777 23.4664 86.285 23.7298C85.4069 25.032 83.5741 35.8638 88.4053 38.976C86.437 40.341 85.8291 43.617 85.5989 46.0139C85.3541 48.4891 85.7272 51.0962 87.6846 52.6432C83.8726 54.7626 83.8189 62.5759 84.9874 63.6633C86.1294 64.7426 88.408 64.4032 88.6419 62.7706C89.1233 61.9225 89.379 60.9506 89.7831 60.3136C90.3718 59.3854 91.1171 59.5201 91.401 59.8077C91.8797 60.29 91.401 63.5869 91.9279 63.7707C92.4985 65.1831 95.0046 65.2522 95.7435 63.8617C96.5043 62.9517 98.0795 56.6873 96.1685 54.2731C96.1904 54.1866 96.2113 54.1002 96.2304 54.0128C100.674 52.9135 100.202 47.4462 99.9614 43.2912C99.8331 41.6168 99.5164 39.6148 98.1141 38.692C102.193 35.2277 100.202 25.3524 98.6765 23.6598ZM91.8014 58.0841C90.4455 58.3389 89.8213 56.7046 89.6438 56.7355C89.4928 56.7492 89.4427 57.5491 90.0269 58.2716C88.4171 58.8722 87.9403 61.2482 87.9958 62.8161C87.7989 63.0116 87.5602 63.1597 87.2977 63.2494C87.0351 63.339 86.7557 63.3678 86.4804 63.3337C86.2051 63.2995 85.9411 63.2032 85.7085 63.052C85.4759 62.9009 85.2806 62.6989 85.1375 62.4612C85.1002 62.3702 85.1484 62.5286 85.3969 61.1454C85.9993 58.0423 86.3787 54.1639 89.4236 53.5796C89.6611 53.6634 89.8932 53.7307 90.1188 53.7871C89.6955 54.4583 89.4384 55.2207 89.369 56.0112C89.4009 56.3615 89.5264 56.5253 89.6211 56.5189C89.7294 56.5135 89.8031 56.347 89.9368 56.1149C90.4437 55.1976 91.2272 54.6944 91.6704 53.5041C92.604 51.0608 90.6157 48.9423 90.4974 47.1587C90.4346 46.3188 91.088 44.9001 90.1125 45.7791C88.3425 47.3707 90.2745 50.2108 90.4373 52.0163C90.005 52.0088 89.573 52.0448 89.1479 52.1236C86.4179 50.3619 86.8874 46.6955 87.5363 43.414C87.8375 41.8507 88.3252 40.32 89.7385 39.592C90.1292 39.7177 90.5285 39.8151 90.9333 39.8832C90.9042 40.482 90.5866 42.9062 91.1699 42.7643C91.4429 42.7033 93.1273 39.7613 92.1008 36.3033C91.8313 35.4149 91.5067 34.5442 91.1289 33.6961C90.9315 33.6179 90.5638 34.1866 90.5948 35.1139C90.5948 35.9129 90.9324 37.3798 90.9324 38.2653C86.4861 37.8103 86.6062 31.0499 86.6554 26.5263C86.6963 23.9601 86.4734 24.405 86.7801 24.183C86.9808 23.992 87.2215 23.8481 87.4847 23.7617C87.748 23.6753 88.0271 23.6486 88.302 23.6834C88.5768 23.7183 88.8405 23.8138 89.0739 23.9632C89.3072 24.1126 89.5044 24.312 89.6511 24.547C89.8031 24.7854 88.4763 31.4839 92.0262 32.393C91.229 32.6487 91.0252 33.4377 91.2072 33.475C91.3118 33.5296 91.4802 33.2766 91.8442 33.1529C92.6213 32.8899 94.2748 33.5633 95.0765 35.5744C95.8856 37.7534 95.8727 40.1527 95.0401 42.3229C94.2985 43.9191 92.6523 44.3249 91.6895 43.3785C91.3865 43.0919 91.2973 42.8153 91.179 42.8325C90.9615 42.8325 90.9606 43.9819 92.099 44.607C91.179 44.698 89.7712 45.6572 91.4784 45.3833C96.1612 44.6061 95.9683 57.3043 91.8014 58.0814V58.0841ZM95.5033 58.9805C95.0483 63.8035 95.4123 63.1756 95.2303 63.374C95.0346 63.5605 94.8026 63.7048 94.5487 63.7978C94.2948 63.8909 94.0245 63.9306 93.7546 63.9147C93.4847 63.8987 93.2209 63.8274 92.9798 63.7051C92.7386 63.5828 92.5252 63.4121 92.3529 63.2038C92.8206 62.0044 93.3229 60.0698 92.5922 59.0087C93.8612 58.4244 94.8807 57.4072 95.4678 56.1395C95.6452 57.0762 95.6572 58.0368 95.5033 58.9778V58.9805ZM98.1896 41.0535C98.5309 42.2965 99.0268 48.6766 98.054 50.9379C97.7427 51.7221 97.1654 52.3719 96.4233 52.7734C96.639 50.2472 95.9683 45.9675 93.6442 44.8928C96.0475 44.5688 97.0021 41.9398 97.144 39.5083C97.4156 39.6791 97.6487 39.9045 97.8285 40.1702C98.0084 40.4359 98.131 40.7361 98.1887 41.0517L98.1896 41.0535ZM97.0731 37.5691C96.8001 35.5471 95.8336 33.3458 93.9226 32.5641C93.2984 32.2911 93.2165 32.4385 93.5304 32.3102C95.7144 31.4366 95.7627 26.3952 94.7444 24.6962C95.9073 23.6497 96.7627 23.3485 98.5837 24.3623C98.4344 27.2033 100.297 34.7062 97.0731 37.5673V37.5691Z" fill="#20201E"/>
    <path d="M68.3065 128.621C71.9374 124.156 64.4162 115.955 55.9305 118.031C50.688 119.314 36.8842 126.785 36.0925 129.165C35.7085 130.325 36.8205 131.507 37.432 132.563C38.0896 133.597 38.9461 134.49 39.9518 135.19C42.7637 137.305 45.9323 140.503 49.2629 139.369C51.3887 138.646 53.5035 135.183 55.5283 134.285C55.8267 134.154 66.491 130.852 68.3065 128.621Z" fill="white"/>
    <path d="M53.8184 119.531C48.4366 120.909 44.1196 123.71 39.7425 126.216C36.9124 127.836 36.9106 127.453 39.2465 125.505C61.3595 107.062 74.904 122.266 68.0662 129.96C66.714 131.482 65.0632 132.024 63.0694 132.468C54.7438 134.324 51.6416 137.994 51.2394 137.546C51.1484 137.44 51.6498 136.742 52.8074 135.716C59.0682 130.174 64.2843 131.302 66.5101 128.625C69.9117 124.535 65.3135 116.59 53.8184 119.531Z" fill="#20201E"/>
    <path d="M73.8016 103.394C73.3885 98.7447 74.6206 78.3134 73.9946 77.1905C73.6533 76.5808 71.9926 75.952 67.9276 74.0965C66.5171 73.4531 64.9492 73.1947 63.5469 72.514C61.1335 71.3437 59.4673 70.421 57.0913 69.1752C55.9575 68.5828 53.8153 68.5045 52.7606 67.7829C49.4535 65.6966 45.91 64.0113 42.2046 62.7624C40.8551 62.3548 40.3564 62.9745 40.098 64.3094C39.9505 65.0684 40.128 64.7517 40.1098 65.5115C39.9778 70.9715 39.7331 67.0813 39.9688 75.7609C40.1016 80.6458 40.2982 81.5366 39.8222 82.8152C40.9779 95.9874 37.5946 99.5592 42.7879 103.011C46.3997 105.41 56.4525 107.331 63.8635 111.232C66.6845 112.718 69.5674 114.225 72.7133 114.752C73.3758 114.863 73.8726 114.713 74.0082 113.415C74.2973 111.784 74.4347 110.13 74.4186 108.474C74.2785 106.796 73.8016 105.078 73.8016 103.394Z" fill="white"/>
    <path d="M45.214 99.6521C43.0626 98.7609 43.5941 98.5346 44.058 71.714C44.0909 69.8099 45.4179 68.8843 47.105 69.7677C60.4001 76.7273 69.4473 78.8149 69.7931 79.3409C69.9651 79.6029 69.4701 107.915 69.3381 108.348C68.8649 109.922 68.3299 108.803 67.7911 108.712C66.8407 108.496 65.9228 108.156 65.0611 107.7C62.1637 106.449 59.0333 105.55 56.1359 104.299C50.2727 101.769 53.6561 103.151 45.214 99.6521Z" fill="#F8D348"/>
    <path d="M49.3219 90.3555C49.3353 90.2029 49.3597 89.8427 49.3631 89.4544C49.3709 88.5536 48.6475 88.0785 47.9441 87.5157C47.5885 87.2312 47.2931 86.8787 47.0752 86.4789C46.9101 86.1789 46.8239 85.842 46.8244 85.4997C46.825 85.1573 46.9123 84.8207 47.0783 84.5213C47.2443 84.2219 47.4835 83.9694 47.7735 83.7876C48.0636 83.6057 48.395 83.5003 48.7368 83.4813C48.9898 83.4358 50.0427 83.3903 50.09 83.5241C48.7881 79.8942 47.65 77.6538 49.0136 77.9763C50.2526 78.2693 51.2363 77.7476 52.244 76.9694C53.4943 76.002 54.2878 79.3254 55.429 77.8512C55.793 77.3852 55.8221 76.4534 56.0268 76.174C56.2607 75.8555 57.067 75.8301 57.2389 77.0194C57.3251 77.6183 57.1924 78.7989 57.5557 79.3823C57.7673 79.722 58.2463 79.7424 58.6239 79.6099C58.9733 79.4873 59.2731 79.2413 59.6321 79.1506C60.7374 78.8714 61.4843 79.6307 61.3458 80.1689C61.2514 80.5349 61.4629 80.6365 61.8235 80.5232C62.1201 80.43 62.4315 80.3899 62.7434 80.4055C63.0113 80.4188 63.2787 80.537 63.4 80.7763C63.4381 80.8513 63.467 80.9312 63.4859 81.0143C63.5351 81.2316 63.5125 81.4589 63.4215 81.6622C63.0639 82.5104 62.2385 82.5722 62.2494 83.1701C62.2494 83.346 62.2358 83.2873 62.9498 84.7565C63.001 84.8618 63.0764 84.9545 63.1529 85.0432C63.4493 85.387 63.809 85.7577 64.263 85.7518C64.851 85.7442 65.0439 85.8101 65.4835 86.4252C65.6885 86.7388 65.8193 87.095 65.8661 87.4667C65.9129 87.8384 65.8745 88.2159 65.7537 88.5705C65.633 88.9252 65.433 89.2477 65.1691 89.5136C64.9052 89.7795 64.5842 89.9818 64.2305 90.1052C62.4423 90.694 64.7974 90.8532 64.2514 94.4578C64.053 95.7636 64.1185 97.5727 62.9119 98.0978C62.4988 98.2798 62.2549 98.4208 62.7117 99.0496C63.3341 99.9059 63.6899 99.7057 64.1677 101.642C64.4439 102.499 64.5143 103.409 64.3733 104.298C64.2441 106.18 65.1878 107.604 64.3788 107.384C63.3104 107.16 62.2748 106.81 61.2932 106.341C60.241 105.84 59.2124 105.297 58.1187 104.893C55.873 104.065 51.595 102.417 46.9478 100.232C44.8757 99.2571 48.0934 96.1731 51.1338 95.9547C52.1757 95.8801 51.5369 95.2422 50.8608 94.5433C48.8269 92.423 49.2309 91.402 49.3219 90.3555Z" fill="white"/>
    <path d="M49.4053 84.8836C48.4453 84.86 47.9702 85.7873 48.1732 85.8764C48.2933 85.9429 48.7064 85.4051 49.3908 85.4214C49.5307 85.4251 49.6682 85.4589 49.7939 85.5206C49.6257 85.5724 49.476 85.6714 49.3624 85.8057C49.2488 85.9401 49.176 86.1042 49.1529 86.2786C49.1297 86.453 49.157 86.6304 49.2316 86.7898C49.3062 86.9492 49.4249 87.0838 49.5737 87.1777C49.8785 87.3452 50.0951 87.2569 50.0915 87.1905C50.1024 87.0558 49.4262 86.7955 49.7275 86.1977C49.8139 86.0157 49.8603 86.0575 49.9313 86.0803C51.3564 86.7309 51.1143 86.7828 50.8895 86.0275C50.7901 85.7072 50.5942 85.4254 50.3285 85.2206C50.0628 85.0159 49.7404 84.8982 49.4053 84.8836Z" fill="#20201E"/>
    <path d="M75.109 77.8548C75.109 74.6598 73.289 75.8337 43.1816 61.9471C42.7659 61.7539 42.3083 61.6685 41.8509 61.6987C41.3935 61.7289 40.9511 61.8738 40.5645 62.12C38.7645 63.2584 39.3633 61.8525 39.0266 100.109C39.02 100.655 39.1766 101.19 39.4762 101.646C39.7758 102.102 40.2048 102.458 40.7082 102.669C73.4855 116.442 72.1943 116.468 73.9442 115.308C75.6941 114.147 75.1199 115.552 75.109 77.8548ZM72.1014 113.793C39.305 100.009 41.3234 100.919 41.1159 100.659C42.1524 100.234 43.5101 99.0824 43.2499 98.7484C42.9896 98.4145 41.3161 99.4846 40.9367 99.7585C41.2097 61.9935 41.1733 64.3705 41.2342 64.1775C41.6091 65.042 43.3809 68.2006 43.8441 67.8967C44.2691 67.6173 42.6748 64.7608 41.7884 63.6361C42.1806 63.5141 39.9912 62.6351 72.4554 76.9758C71.7766 77.2488 69.4697 78.409 69.6699 78.8458C69.8901 79.3245 72.4281 78.055 73.1561 77.5882C73.2189 77.7784 73.2271 75.2704 73.2608 113.02C73.2608 113.566 73.2562 112.96 71.8721 111.411C70.0667 109.38 67.2857 107.68 71.1605 112.048C71.7811 112.742 72.3535 113.36 72.793 113.777C72.6859 113.83 72.5684 113.859 72.4489 113.861C72.3295 113.864 72.2109 113.841 72.1014 113.793Z" fill="#20201E"/>
    <path d="M44.4989 83.4805C44.6518 63.293 43.5297 63.253 43.3787 83.4422C43.2941 86.3451 43.3214 98.5755 43.4333 98.5892C44.2887 98.7011 44.4889 83.8035 44.4989 83.4805Z" fill="#20201E"/>
    <path d="M69.2991 108.779C70.0863 108.87 70.2765 94.6125 70.2919 94.0319C70.4421 74.3322 69.3201 74.2922 69.1717 93.9946C69.1217 95.8228 69.0835 108.757 69.2991 108.779Z" fill="#20201E"/>
    <path d="M64.9124 107.107C65.2393 104.538 64.7517 101.931 63.5183 99.6539C62.6402 98.2316 62.3881 98.6738 62.9268 98.3799C64.3127 97.6246 64.5111 96.3633 64.4947 94.8C64.7149 94.1256 64.7962 93.4136 64.7337 92.707C64.6711 92.0004 64.466 91.3137 64.1307 90.6886C63.9296 90.3546 64.4556 90.7796 65.4439 89.8568C67.434 88.0669 65.7997 84.5151 63.6867 85.3451C63.4237 83.7789 62.2971 83.8754 62.8558 83.2857C63.0513 83.123 63.2313 82.9427 63.3936 82.747C64.5421 81.2264 63.8232 79.6312 61.9895 80.1499C61.3152 80.3856 61.7356 80.4456 61.6774 79.7358C61.6046 78.7539 60.2669 77.8457 58.2685 79.208C57.8044 79.5402 57.9254 79.572 57.8135 78.9514C57.6215 77.8712 57.3822 76.3461 56.8562 75.8956C56.5723 75.6053 56.1091 75.5225 55.6559 76.1495C55.3894 76.5819 55.1782 77.046 55.0271 77.5309C54.7323 78.248 54.6121 77.6119 53.7868 76.7647C53.0469 76.0048 52.1488 75.9939 51.6437 76.9121C51.4529 77.3205 51.3044 77.7474 51.2005 78.1861C51.1763 78.2968 51.1306 78.4016 51.0659 78.4946C50.4434 78.3508 49.8228 77.4299 48.9319 77.328C46.9709 77.206 48.5288 80.1881 49.598 83.0355C46.1919 82.4103 45.1117 87.3525 48.9911 88.6638C48.5206 91.2464 49.0593 93.8981 51.0841 95.5252C48.7053 95.8292 46.575 97.145 46.0336 99.511C34.4766 95.578 68.4451 110.168 68.8646 109.166C68.9246 109.01 67.3976 108.228 64.9124 107.107ZM62.47 97.5791C60.6828 98.5664 53.3764 97.8466 53.2945 94.6152C53.2544 93.0336 53.9315 91.5613 55.958 90.3519C55.8857 90.6149 55.8967 90.8938 55.9894 91.1503C56.0821 91.4068 56.2521 91.6283 56.4758 91.7842C57.809 92.4967 58.4478 91.6277 58.7717 93.1174C58.8227 93.3421 58.9128 93.4632 58.9765 93.4477C59.0402 93.4322 59.0848 93.323 59.143 93.1237C59.8865 90.5757 55.7232 91.7105 57.0664 90.2117C57.6643 89.521 61.2369 89.4255 62.3672 90.3337C63.5556 91.2965 60.9949 91.1782 60.5189 92.2938C60.3369 92.7288 60.3943 93.6042 60.5472 93.6479C60.7546 93.708 60.883 92.9062 61.105 92.6269C61.5482 92.069 63.2053 92.3775 63.562 91.0799C63.8466 91.8022 63.9491 92.5835 63.8605 93.3549C63.6494 96.0421 62.1033 95.6608 59.6262 95.548C47.4632 94.6917 60.8757 97.1095 62.9141 96.4052C63.5693 96.1959 63.653 95.8264 63.4601 96.4052C63.3801 96.6559 63.2515 96.8884 63.0816 97.0893C62.9117 97.2903 62.7039 97.4558 62.47 97.5764V97.5791ZM55.0134 89.8132C54.7102 89.6409 54.4503 89.4017 54.2537 89.1137C54.057 88.8257 53.9287 88.4966 53.8787 88.1515C55.6313 88.0195 55.3865 88.0013 55.3929 88.0896C55.4284 88.6001 55.3429 88.8558 55.9844 88.773C56.626 88.6902 56.4967 88.4345 56.4658 88.0341C57.6352 88.1551 57.708 88.3772 58.1038 88.2161C57.9427 88.9905 57.9345 88.8231 57.4877 88.9359C57.0215 89.0338 56.6015 89.2849 56.2947 89.6494C56.0144 89.7535 55.7409 89.8751 55.4757 90.0134C55.3168 89.9573 55.1623 89.8895 55.0134 89.8104V89.8132ZM59.6963 88.7248C57.8645 88.7394 58.5888 89.0442 58.4724 88.055C58.6762 88.0914 59.9502 87.9695 60.4207 87.9404C60.3825 88.0314 60.4361 88.1806 60.4707 88.4982C60.4953 88.7221 61.5791 88.8449 61.5418 88.4072C61.5272 88.248 61.5054 88.1069 61.4872 87.9786C61.8749 88.0286 62.6483 88.2034 62.6784 88.2043C61.8576 89.6193 62.2607 88.7676 59.6963 88.7248ZM62.915 86.701C63.1934 87.3079 62.8913 87.7593 62.642 87.6756C61.5985 87.4015 60.5061 87.3704 59.4488 87.5846C57.8891 87.7556 59.0994 87.8403 58.5515 86.5836C58.7722 86.1933 59.095 85.8704 59.4852 85.6496C59.8754 85.4288 60.3183 85.3183 60.7665 85.3299C61.2147 85.3416 61.6513 85.4751 62.0295 85.7159C62.4076 85.9568 62.7131 86.2961 62.9132 86.6973L62.915 86.701ZM58.1484 87.338C58.1147 87.975 57.5933 87.6437 56.879 87.5582C55.3647 87.3562 53.8022 87.8421 53.623 87.7029C53.2471 87.4999 53.7522 85.3705 55.8871 85.3833C57.2193 85.3815 58.2403 86.5836 58.1493 87.3307L58.1484 87.338ZM64.4183 86.1158C65.8497 86.6081 65.8015 89.5019 63.5401 90.0033C63.4755 89.9497 62.6975 89.3946 62.5464 89.3117C62.8913 88.9639 63.1169 88.5156 63.1907 88.0314C63.2373 87.9949 63.28 87.9538 63.3181 87.9085C63.3461 87.9994 63.4008 88.0797 63.4752 88.139C63.5495 88.1983 63.6401 88.2337 63.7349 88.2407C63.7768 88.2134 63.875 88.4118 63.8186 88.5291C63.7085 88.7958 63.2362 89.0351 63.3063 89.1771C63.3682 89.3591 64.0716 89.2799 64.3218 88.7221C64.3644 88.6238 64.3853 88.5175 64.3831 88.4104C64.3808 88.3034 64.3554 88.1981 64.3086 88.1017C64.2619 88.0054 64.1949 87.9202 64.1122 87.8522C64.0295 87.7841 63.9331 87.7348 63.8295 87.7074C63.9205 87.5764 64.3164 87.4799 64.4547 87.691C64.6868 88.0669 64.8387 87.9131 64.8187 87.5773C64.7841 86.9931 64.0224 86.882 63.5656 87.2206C63.572 86.9638 63.5171 86.7093 63.4055 86.478C63.3536 86.3706 63.9069 85.9329 64.4165 86.1085L64.4183 86.1158ZM52.0432 78.4418C52.1133 78.2043 52.359 77.1168 52.6029 77.0631C53.2899 76.5636 54.6822 80.7031 55.8661 77.3098C55.8971 77.2188 56.2301 76.2933 56.3584 76.316C56.6933 75.7901 57.4668 81.1591 57.2593 82.0099C57.2393 82.1009 57.2348 82.0408 50.6791 83.1556C50.741 83.3285 50.4061 82.4776 50.337 82.2947C50.519 82.2665 56.6642 81.0762 56.6369 80.8542C56.6032 80.563 52.5546 81.0653 50.2287 82.0163C46.9945 73.6798 50.9321 82.211 52.0432 78.4418ZM49.659 88.804C51.0668 88.955 51.5918 87.9795 51.1314 88.1342C49.3942 88.7193 46.9509 86.9512 47.5897 84.9547C48.0447 83.5332 49.8319 83.637 50.9303 84.4132C51.8403 85.0693 51.9495 85.8883 52.0887 85.8574C52.1488 85.8528 52.2125 85.6481 52.1497 85.275C52.0305 84.7988 51.8003 84.3576 51.4781 83.9873C57.9764 82.8143 57.7516 82.8589 57.9136 82.6223C58.1495 81.9153 58.191 81.1578 58.0337 80.4292C58.9774 79.8832 59.6281 79.2462 60.5199 79.5338C61.631 79.9633 59.1166 81.9471 59.588 82.2365C59.6836 82.3502 60.3069 81.8397 61.3507 81.2501C62.3653 80.7113 63.3654 80.6349 62.9232 81.6805C62.612 82.4476 62.076 82.4749 61.8021 83.1583C61.3389 84.284 62.6383 84.2931 62.8731 85.7063C62.5684 85.3885 62.195 85.1445 61.7815 84.9931C61.3681 84.8416 60.9255 84.7866 60.4875 84.8324C60.0496 84.8781 59.6279 85.0234 59.2547 85.257C58.8814 85.4906 58.5665 85.8065 58.334 86.1804C58.0277 85.7026 57.5854 85.3273 57.064 85.1027C56.5426 84.8782 55.966 84.8148 55.4083 84.9205C54.8506 85.0263 54.3373 85.2965 53.9343 85.6963C53.5314 86.0961 53.2572 86.6073 53.147 87.1641C53.127 87.4371 53.0661 87.9267 53.4792 88.1005C53.4481 88.5515 53.5591 89.0008 53.7966 89.3853C54.0341 89.7699 54.3861 90.0704 54.8032 90.2445C55.1408 90.381 54.9634 90.1162 53.9278 91.1181C53.4516 91.5682 53.0745 92.1126 52.8205 92.7166C52.5665 93.3207 52.4413 93.971 52.4527 94.6261C52.4463 95.5225 52.9751 95.8337 52.0505 95.1494C50.0276 93.6743 49.5644 91.3037 49.659 88.804ZM51.1305 101.384C51.8898 100.869 52.7605 100.542 53.6709 100.429C54.5813 100.316 55.5055 100.421 56.3675 100.735C60.073 101.986 61.0085 104.44 61.2943 104.317C61.4927 104.235 60.9676 102.729 59.4652 101.646C55.6705 98.8385 52.076 99.5356 50.7692 101.245C49.1713 100.631 47.7598 100.11 46.6233 99.7121C47.6597 97.4317 49.5353 96.7091 51.9568 96.0958C52.3731 96.3154 52.8122 96.4887 53.2662 96.6127C54.6704 98.3071 56.5422 98.4754 58.5952 98.7967C59.6897 98.9978 60.8123 98.9904 61.904 98.7748C63.6812 100.921 64.0798 104.011 64.2436 106.801C60.347 105.065 55.2109 102.956 51.1305 101.384Z" fill="#20201E"/>
    <path d="M69.5985 79.2171C69.8023 78.7066 44.9511 68.2725 44.73 68.7703C44.346 69.6339 69.2518 80.0743 69.5985 79.2171Z" fill="#20201E"/>
    <path d="M88.4622 115.972C88.0367 115.781 87.626 115.561 87.233 115.313C85.9748 114.52 85.1119 113.263 84.1174 112.157C83.9416 111.962 83.7609 111.771 83.5755 111.584C82.2324 110.038 81.119 108.306 80.2695 106.443C79.9282 105.573 79.8308 104.789 78.9536 100.132C78.1601 95.9193 77.4275 90.8379 81.0721 87.945C83.9686 85.6454 89.4787 86.3489 91.9011 87.419C95.0115 88.7931 99.3149 93.4332 100.595 99.482C101.155 102.121 101.539 109.081 100.467 111.557C98.3266 116.495 89.4714 116.298 88.4622 115.972Z" fill="#FFF8D9"/>
    <path fill-rule="evenodd" clip-rule="evenodd" d="M88.3701 97.6525L92.6735 100.208L90.8742 100.591L91.7865 104.888L89.9872 105.271L88.3701 97.6525ZM96.7525 103.831L92.449 101.276L94.2483 100.893L93.3361 96.5954L95.1354 96.2124L96.7525 103.831Z" fill="#20201E"/>
    <path d="M94.7431 88.3544C90.9603 84.83 87.7543 85.4424 82.7375 86.2241C74.9525 87.4335 76.3921 110.255 87.6615 116.028C89.3741 116.887 93.0487 116.517 94.9579 116.133C97.5159 115.587 98.5979 115.262 99.9119 113.709C103.67 108.699 101.647 94.4988 94.7431 88.3544ZM81.8475 87.9313C82.5173 87.499 86.0517 87.0459 86.6906 86.984C85.9542 87.48 85.325 88.119 84.8404 88.863C84.3558 89.6069 84.0257 90.4406 83.8696 91.3147C81.8202 91.7205 82.0286 91.9517 79.7536 91.5358C80.0903 90.2363 80.7173 88.6638 81.8475 87.9313ZM79.5343 92.5031C82.4099 92.1455 80.7364 92.1992 83.6457 92.3848C83.3565 94.414 83.3498 96.4735 83.6257 98.5046C81.4681 99.0506 81.8721 99.2417 79.3814 98.9678C79.0942 96.8181 79.1458 94.6368 79.5343 92.5031ZM79.517 99.9169C82.702 99.2499 81.701 99.6685 83.7731 99.5793C84.1058 101.641 84.6202 103.669 85.3101 105.64C82.6847 106.052 83.6857 106.023 81.0522 105.7C80.3582 103.826 79.8444 101.89 79.5179 99.9178L79.517 99.9169ZM81.4399 106.682C84.3591 106.149 84.3473 106.7 85.7096 106.706C86.3515 108.373 87.1871 109.959 88.1993 111.432C86.2265 112.093 86.6423 111.851 84.5147 111.87C83.2343 110.306 82.1993 108.557 81.4453 106.682H81.4399ZM85.2619 112.688C87.1838 112.059 87.9919 112.537 88.9401 112.363C90.0574 113.656 91.512 114.613 93.1415 115.127C89.5498 115.513 87.7088 115.168 85.2619 112.691V112.688ZM100.584 108.752C99.8956 113.593 97.8381 114.248 95.0953 114.816C89.2631 114.619 86.3311 107.282 85.0152 101.589C81.3516 85.7073 90.4479 82.7525 96.9845 92.8198C100 97.5519 101.273 103.187 100.584 108.756V108.752Z" fill="#20201E"/>
    <path d="M98.6353 101.874C98.992 104.991 98.9201 109.609 96.6506 111.735C96.3889 112.006 96.0759 112.222 95.7299 112.37C95.3839 112.519 95.0118 112.597 94.6352 112.601C94.2587 112.604 93.8852 112.533 93.5366 112.39C93.188 112.248 92.8712 112.037 92.6047 111.771C86.3002 106.688 83.5529 87.1105 91.1105 89.4301C94.0625 90.3355 96.2611 94.4569 97.4404 97.3107C98.5843 100.152 98.6926 100.098 97.7462 97.1987C93.9242 85.8374 85.3702 85.6572 85.676 96.2524C85.9672 103.925 91.8121 117.498 97.1256 112.24C99.5307 109.88 99.5707 105.186 98.9574 101.823C98.3614 98.8067 98.2512 98.8777 98.6353 101.874Z" fill="#20201E"/>
    <path d="M116.46 149.857C117.658 149.129 118.922 148.521 120.184 147.913C124.72 145.729 126.065 145.95 129.292 147.329C131.608 148.319 140.405 151.97 141.304 154.278C141.577 154.982 141.508 154.854 141.567 163.94C141.587 166.964 141.157 166.775 140.865 168.33C140.442 170.585 141.122 171.375 138.466 172.754C134.973 174.725 131.153 176.05 127.19 176.667C126.023 177.011 124.798 177.116 123.59 176.974C122.381 176.832 121.214 176.447 120.158 175.842C118.458 175.037 111.671 171.116 110.767 169.478C110.221 168.484 110.322 168.104 110.094 159.234C109.891 151.266 109.161 154.281 116.46 149.857Z" fill="#FFFCF1"/>
    <path d="M139.639 150.466C126.899 145.067 126.371 144.341 123.945 145.352L111.933 150.357C111.072 150.715 110.336 151.32 109.819 152.095C109.302 152.871 109.027 153.783 109.028 154.715V168.241C109.027 169.173 109.302 170.085 109.819 170.86C110.336 171.636 111.072 172.241 111.933 172.599C125.09 178.084 124.491 177.968 125.771 177.968C127.052 177.968 126.278 178.154 139.61 172.599C140.471 172.241 141.206 171.636 141.724 170.86C142.241 170.085 142.516 169.173 142.514 168.241V154.813C142.516 153.886 142.244 152.979 141.732 152.206C141.221 151.433 140.493 150.828 139.639 150.466ZM124.679 147.113C125.025 146.969 125.396 146.896 125.771 146.897C126.146 146.898 126.517 146.974 126.863 147.119C140.007 152.698 139.045 152.261 139.366 152.476L125.778 157.65L112.189 152.378C112.518 152.158 111.566 152.577 124.679 147.113ZM112.667 170.84C112.154 170.626 111.716 170.266 111.408 169.803C111.1 169.341 110.936 168.798 110.938 168.242C110.938 153.743 110.798 154.268 111.271 153.387L125.138 158.767C125.138 177.767 125.33 176.118 124.69 175.852L112.667 170.84ZM140.604 168.242C140.605 168.798 140.441 169.341 140.133 169.803C139.826 170.266 139.387 170.626 138.875 170.84L126.854 175.852C126.217 176.118 126.408 177.784 126.408 158.769L140.276 153.491C140.738 154.347 140.61 153.783 140.61 168.242H140.604Z" fill="#20201E"/>
    <path d="M63.1969 149.857C64.3954 149.129 65.6594 148.521 66.9216 147.913C71.4561 145.729 72.802 145.95 76.0288 147.329C78.3457 148.319 87.1427 151.97 88.0409 154.278C88.3139 154.982 88.2456 154.854 88.3048 163.94C88.3239 166.964 87.8943 166.775 87.6022 168.33C87.1782 170.585 87.8588 171.375 85.2035 172.754C81.7103 174.725 77.8907 176.05 73.9277 176.667C72.7604 177.011 71.5356 177.116 70.327 176.974C69.1184 176.832 67.951 176.447 66.8952 175.842C65.1953 175.037 58.4085 171.116 57.504 169.478C56.958 168.484 57.059 168.104 56.8315 159.234C56.6286 151.266 55.8987 154.281 63.1969 149.857Z" fill="#FFFCF1"/>
    <path d="M86.3763 150.549C73.6426 145.149 73.1076 144.425 70.6824 145.435L58.6704 150.44C57.8095 150.797 57.0741 151.402 56.5571 152.178C56.0402 152.953 55.7651 153.865 55.7666 154.797V168.322C55.7649 169.255 56.04 170.166 56.5569 170.942C57.0738 171.718 57.8094 172.323 58.6704 172.68C71.8272 178.167 71.2284 178.054 72.5088 178.054C73.8492 178.054 73.6081 177.992 86.3472 172.68C87.2084 172.323 87.9443 171.718 88.4614 170.943C88.9785 170.167 89.2536 169.255 89.2519 168.322V154.896C89.253 153.969 88.9809 153.062 88.4694 152.289C87.9579 151.516 87.2299 150.911 86.3763 150.549ZM71.4168 147.196C71.7631 147.052 72.1345 146.979 72.5094 146.98C72.8844 146.981 73.2553 147.056 73.6008 147.202C86.733 152.771 85.7802 152.343 86.1042 152.558L72.517 157.734L58.9243 152.461C59.2492 152.243 58.1936 152.708 71.4168 147.196ZM59.4048 170.923C58.8919 170.71 58.4538 170.349 58.146 169.887C57.8382 169.424 57.6746 168.881 57.6758 168.325C57.6758 153.793 57.542 154.342 58.0088 153.469L71.8763 158.85C71.8763 177.858 72.0683 176.201 71.4286 175.935L59.4048 170.923ZM87.3418 168.325C87.343 168.881 87.1793 169.424 86.8716 169.887C86.5638 170.349 86.1257 170.71 85.6128 170.923L73.5917 175.935C72.9547 176.201 73.1431 177.867 73.1431 158.853L87.0133 153.57C87.4756 154.431 87.3472 153.857 87.3472 168.325H87.3418Z" fill="#20201E"/>
    <path d="M130.767 150.667C130.698 149.513 129.044 146.266 127.562 143.264C127.168 142.238 126.41 141.394 125.432 140.892C124.911 140.537 124.315 140.306 123.691 140.217C123.066 140.128 122.429 140.184 121.83 140.379C121.166 140.519 121.367 140.136 121.777 139.596C121.904 139.428 122.031 139.219 122.167 138.956C124.155 135.115 122.245 133.84 121.519 130.766C121.336 129.428 120.988 128.118 120.482 126.867C119.487 124.228 119.343 122.308 116.061 124.169C115.182 124.668 115.118 125.022 115.434 125.826C115.938 127.11 117.386 131.14 117.125 132.499C117.103 132.773 117.005 133.034 116.842 133.255C116.679 133.475 116.457 133.645 116.202 133.746C115.947 133.847 115.669 133.874 115.399 133.825C114.864 133.728 114.424 133.341 114.048 132.947C113.106 131.959 113.083 130.706 112.88 129.658C112.568 128.063 111.314 125.452 109.74 125.272C109.353 125.267 108.973 125.381 108.652 125.598C108.332 125.816 108.086 126.127 107.948 126.49C107.554 128.161 111.224 137.513 112.357 138.813C112.511 138.977 112.676 139.13 112.85 139.27C113.994 140.191 116.608 141.719 115.326 142.437C115.135 142.543 114.947 142.706 114.815 142.88C114.555 143.222 114.365 143.614 114.26 144.033C114.128 144.559 114.133 145.109 114.274 145.633C114.707 148.048 118.857 152.913 119.803 153.558C121.651 154.826 124.022 154.21 123.213 152.121C122.933 151.547 122.583 151.01 122.17 150.523C120.184 147.748 122.023 145.634 123.546 146.064C124.814 146.418 125.093 148.081 125.484 148.997C126.057 150.269 126.895 151.404 127.941 152.327C128.217 152.555 128.556 152.693 128.913 152.722C129.27 152.751 129.627 152.669 129.936 152.488C130.245 152.306 130.49 152.034 130.639 151.708C130.787 151.382 130.832 151.019 130.767 150.667Z" fill="#FFFCF1"/>
    <path d="M131.006 149.365C130.668 146.407 127.397 139.417 123.089 139.26C124.995 135.376 121.601 126.665 120.024 124.411C120.231 122.333 116.093 122.177 115.299 124.341C114.806 125.713 116.99 130.749 116.88 132.238C116.839 133.106 116.105 133.376 115.424 132.826C114.601 132.16 113.128 128.071 112.036 126.826C112.006 126.549 111.923 126.281 111.79 126.036C111.657 125.792 111.478 125.576 111.261 125.401C111.045 125.226 110.796 125.096 110.529 125.018C110.262 124.939 109.983 124.914 109.706 124.944C108.12 125.026 107.431 126.623 107.941 127.31C106.889 128.436 109.861 136.898 111.28 138.966C111.615 139.508 112.055 139.977 112.574 140.346C113.094 140.714 113.683 140.974 114.305 141.11C114.513 141.862 114.625 141.929 114.534 141.847C114.088 142.362 113.776 142.979 113.626 143.643C113.475 144.307 113.491 144.999 113.672 145.655C114.331 148.385 118.694 154.076 119.838 153.742C119.962 153.953 120.141 154.127 120.355 154.247C122.072 155.315 124.751 153.783 123.425 152.119C122.97 150.663 121.51 147.429 122.929 147.221C124.687 146.964 125.524 150.58 126.859 151.696C127.124 153.152 130.63 153.971 130.844 152.06C131.085 151.183 131.14 150.265 131.006 149.365ZM109.795 130.906C108.585 126.529 107.838 127.726 108.455 126.657C108.586 126.426 108.777 126.234 109.007 126.1C109.237 125.966 109.498 125.896 109.764 125.896C110.139 125.889 110.509 125.973 110.844 126.142C111.178 126.31 111.466 126.558 111.683 126.863C111.659 127.833 112.915 131.351 113.269 132.277C113.427 132.784 113.694 133.249 114.052 133.641C114.409 134.033 114.848 134.342 115.337 134.546C113.972 135.769 113.827 138.095 114.044 139.811C111.7 137.535 110.789 134.48 109.795 130.906ZM123.041 152.489C122.998 153.096 122.976 153.297 122.162 153.569C121.413 153.711 120.642 153.69 119.902 153.509C119.72 152.832 115.649 147.115 115.218 145.289C115.052 144.693 115.096 144.058 115.344 143.491C116.495 145.354 118.725 147.213 120.895 147.222C120.484 148.815 121.91 151.621 123.041 152.489ZM130.199 151.87C129.786 152.59 128.116 152.044 127.58 151.741C126.943 151.384 127.41 151.696 126.714 149.607C126.133 148.001 125.454 145.987 123.506 145.663C123.792 144.994 123.562 144.42 123.433 144.45C123.304 144.458 123.282 144.779 123.025 145.158C121.312 147.731 115.606 144.145 115.443 138.408C115.227 133.598 118.156 134.818 118.235 134.723C118.295 134.669 118.212 134.348 117.71 134.066C119.375 132.391 117.776 129.593 116.891 127.528C116.567 126.686 116.124 125.896 115.575 125.179C116.013 124.318 116.718 123.632 118.556 123.723C119.03 123.747 119.225 123.98 119.574 124.313C119.275 127.158 124.465 136.626 120.764 139.717C119.983 138.003 119.935 135.792 118.84 134.972C117.874 134.249 118.418 135.427 118.52 136.388C118.766 138.703 118.832 140.719 120.848 142.33C121.466 142.813 121.892 143.037 122.256 143.344C122.976 143.89 123.198 144.4 123.424 144.39C123.81 144.349 123.569 143.294 123.086 142.586C122.65 142.058 122.182 141.558 121.684 141.088C123.013 140.574 124.505 140.815 125.989 142.498C127.453 144.129 130.974 150.439 130.199 151.87Z" fill="#20201E"/>
    <path d="M87.5835 130.427C87.0692 129.793 86.3438 129.364 85.5397 129.22C83.4703 129.117 83.2346 133.17 81.9443 134.771C81.7638 134.995 81.5703 135.171 81.3734 135.305C80.2094 136.1 79.014 134.523 79.5082 133.203C79.7523 132.747 79.9669 132.276 80.1509 131.794C80.5546 130.735 80.9619 129.635 80.9416 128.503C80.9329 128.021 80.8446 127.54 80.6766 127.08C80.3208 126.338 78.5172 125.921 77.5535 126.91C77.1182 127.458 76.8076 128.093 76.6435 128.773C75.9753 130.695 73.0929 135.318 74.8582 138.216C75.3487 139.022 76.2909 140.68 75.3841 140.421C71.9333 139.445 67.3934 149.202 67.3906 150.359C67.4114 150.705 67.5462 151.035 67.774 151.297C68.0018 151.559 68.3099 151.738 68.6501 151.806C70.5101 152.203 71.4128 150.077 72.0425 149.094C72.4517 148.456 72.8929 148.066 73.3015 147.851C74.1293 147.415 75.0859 148.096 75.2788 149.011C75.3761 149.473 75.349 149.953 75.2002 150.401C74.9336 151.276 74.0236 152.383 74.6406 153.328C75.2876 154.32 75.6516 154.385 76.2713 154.394C77.9239 154.42 77.235 154.551 78.9276 152.79C79.9694 151.418 80.9144 149.976 81.7559 148.473C82.3364 147.379 82.4925 146.109 82.1942 144.907C81.9701 144.003 81.501 143.186 80.8468 142.541C80.4558 142.155 79.9972 141.205 80.5248 141.357C80.5917 141.377 80.6798 141.387 80.7494 141.387C81.255 141.389 81.7562 141.334 82.2442 141.226C84.1502 140.804 85.5753 139.237 86.3477 137.445C86.5488 136.978 86.7233 136.499 86.8701 136.011C87.0284 135.435 87.1131 134.841 87.2705 134.265C87.5735 133.172 88.368 131.619 87.5835 130.427Z" fill="#FFFCF1"/>
    <path d="M88.2534 130.458C87.7392 128.967 85.7618 128.129 84.5561 129.238C83.4113 129.435 81.4712 135.633 80.3701 135.179C78.9213 134.673 81.8898 129.355 81.4075 127.588C81.3061 127.265 81.1372 126.968 80.912 126.715C80.6868 126.463 80.4105 126.261 80.1014 126.123C79.7923 125.985 79.4575 125.915 79.1191 125.917C78.7807 125.918 78.4465 125.992 78.1387 126.132C76.9949 126.709 70.2964 135.077 74.5779 139.861C71.9389 140.305 70.9379 141.82 69.7485 143.76C68.8658 145.23 66.7983 149.189 67.0331 150.83C67.246 152.483 69.8896 152.976 70.6085 151.722C71.0635 151.694 71.9662 150.824 72.7497 149.657C72.9009 149.355 73.1447 149.109 73.4456 148.955C73.7464 148.801 74.0886 148.747 74.4223 148.801C76.4034 149.402 73.6797 152.301 74.3895 152.964C74.435 153.301 74.5613 153.622 74.7577 153.9C74.954 154.177 75.2146 154.403 75.5172 154.559C75.8199 154.714 76.1555 154.794 76.4957 154.792C76.8358 154.789 77.1704 154.705 77.4708 154.545C79.1998 153.55 84.6389 146.843 82.0153 142.698C85.8483 142.216 86.8465 138.661 87.6701 135.167C87.7938 134.62 88.6338 130.871 88.2534 130.458ZM70.32 151.436C68.9614 151.671 68.1833 151.487 67.4826 150.299C68.8476 148.919 71.5221 143.103 73.0928 142.099C73.6579 141.734 74.2974 141.499 74.9647 141.413C74.8438 141.972 74.6284 142.506 74.3277 142.993C72.6523 145.663 73.4395 147.366 75.6836 143.821C76.8302 141.973 76.7219 139.964 77.1123 138.226C77.4763 136.564 77.9849 136.111 77.812 135.798C77.5682 135.321 75.9092 135.832 75.4579 138.422C72.9099 134.804 78.1187 128.507 77.7829 126.819C78.8895 126.849 79.7012 126.437 80.9679 128.093C79.9169 128.73 77.9012 133.418 78.4072 135.127C78.2416 135.218 77.8512 135.55 77.9458 135.724C78.0496 135.916 78.5118 135.822 78.8058 135.893C80.8569 135.893 79.6575 147.46 75.4388 147.312C73.9627 147.234 74.0601 145.892 73.7298 145.869C73.515 145.833 73.1392 146.479 73.3967 147.274C71.6168 147.755 70.2217 150.569 70.32 151.436ZM77.6355 153.882C76.3952 153.921 75.9438 153.997 74.9055 152.914C75.6163 152.509 76.1667 151.873 76.4648 151.111C76.763 150.349 76.7907 149.508 76.5435 148.728C78.8494 148.214 79.9697 145.731 80.6112 143.459C82.7297 146.498 78.1205 151.267 77.6355 153.881V153.882ZM87.0686 132.462C85.3004 137.025 85.2731 141.159 81.1709 141.164C81.4669 139.683 81.4302 138.154 81.0635 136.688C82.8525 136.087 84.2976 132.468 84.6798 130.62C84.9137 129.416 84.6307 129.7 85.1348 129.597C85.6151 129.57 86.0948 129.66 86.5325 129.859C86.9703 130.059 87.3532 130.361 87.6482 130.741C87.8721 130.99 87.7957 130.585 87.0686 132.462Z" fill="#20201E"/>
</svg>
