<svg width="48" height="48" viewBox="0 0 48 48" fill="none" xmlns="http://www.w3.org/2000/svg">
    <circle cx="24" cy="24" r="23" stroke="#20201E" stroke-width="2"/>
    <path fill-rule="evenodd" clip-rule="evenodd" d="M24.0003 10.9956C16.6337 10.9956 10.667 16.9623 10.667 24.3289C10.667 30.2289 14.4837 35.2123 19.7837 36.9789C20.4503 37.0956 20.7003 36.6956 20.7003 36.3456C20.7003 36.0289 20.6837 34.9789 20.6837 33.8623C17.3337 34.4789 16.467 33.0456 16.2003 32.2956C16.0503 31.9123 15.4003 30.7289 14.8337 30.4123C14.367 30.1623 13.7003 29.5456 14.817 29.5289C15.867 29.5123 16.617 30.4956 16.867 30.8956C18.067 32.9123 19.9837 32.3456 20.7503 31.9956C20.867 31.1289 21.217 30.5456 21.6003 30.2123C18.6337 29.8789 15.5337 28.7289 15.5337 23.6289C15.5337 22.1789 16.0503 20.9789 16.9003 20.0456C16.767 19.7123 16.3003 18.3456 17.0337 16.5123C17.0337 16.5123 18.1503 16.1623 20.7003 17.8789C21.767 17.5789 22.9003 17.4289 24.0337 17.4289C25.167 17.4289 26.3003 17.5789 27.367 17.8789C29.917 16.1456 31.0337 16.5123 31.0337 16.5123C31.767 18.3456 31.3003 19.7123 31.167 20.0456C32.017 20.9789 32.5337 22.1623 32.5337 23.6289C32.5337 28.7456 29.417 29.8789 26.4503 30.2123C26.9337 30.6289 27.3503 31.4289 27.3503 32.6789C27.3503 34.4623 27.3337 35.8956 27.3337 36.3456C27.3337 36.6956 27.5837 37.1123 28.2503 36.9789C30.8972 36.0854 33.1973 34.3842 34.8267 32.115C36.4562 29.8457 37.3329 27.1226 37.3337 24.3289C37.3337 16.9623 31.367 10.9956 24.0003 10.9956Z" fill="#20201E"/>
</svg>
