<svg width="44" height="44" viewBox="0 0 44 44" fill="none" xmlns="http://www.w3.org/2000/svg">
    <path d="M30.3923 12.3376C30.0018 11.9471 29.3687 11.9471 28.9782 12.3376L21.9064 19.4076L14.8365 12.3377C14.446 11.9472 13.8129 11.9472 13.4223 12.3377L12.2442 13.5158C11.8537 13.9064 11.8537 14.5395 12.2442 14.9301L19.3141 21.9999L12.2442 29.0698C11.8537 29.4604 11.8537 30.0935 12.2442 30.4841L13.4223 31.6622C13.8129 32.0527 14.446 32.0527 14.8365 31.6622L21.9064 24.5923L28.9782 31.6623C29.3687 32.0528 30.0018 32.0527 30.3923 31.6623L31.5705 30.4841C31.961 30.0935 31.961 29.4604 31.5705 29.0698L24.5006 21.9999L31.5705 14.9301C31.961 14.5395 31.961 13.9064 31.5705 13.5158L30.3923 12.3376Z" fill="#20201E"/>
    <rect x="1" y="1" width="42" height="42" rx="1" stroke="#20201E" stroke-width="2"/>
</svg>
