<svg width="44" height="44" viewBox="0 0 44 44" fill="none" xmlns="http://www.w3.org/2000/svg">
    <path d="M7 12C7 11.4477 7.44772 11 8 11H35.3333C35.8856 11 36.3333 11.4477 36.3333 12V13.6667C36.3333 14.219 35.8856 14.6667 35.3333 14.6667H8C7.44772 14.6667 7 14.219 7 13.6667V12ZM7 21.1667C7 20.6144 7.44772 20.1667 8 20.1667H35.3333C35.8856 20.1667 36.3333 20.6144 36.3333 21.1667V22.8333C36.3333 23.3856 35.8856 23.8333 35.3333 23.8333H8C7.44772 23.8333 7 23.3856 7 22.8333V21.1667ZM7 30.3333C7 29.781 7.44772 29.3333 8 29.3333H35.3333C35.8856 29.3333 36.3333 29.781 36.3333 30.3333V32C36.3333 32.5523 35.8856 33 35.3333 33H8C7.44772 33 7 32.5523 7 32V30.3333Z" fill="#20201E"/>
    <rect x="1" y="1" width="42" height="42" rx="1" stroke="#20201E" stroke-width="2"/>
</svg>
