<svg width="182" height="182" viewBox="0 0 182 182" fill="none" xmlns="http://www.w3.org/2000/svg">
    <path d="M163.128 128.939C157.451 123.282 150.769 123.782 149.987 123.593C149.52 115.327 142.829 100.895 137.548 93.6952C129.659 82.9408 122.289 80.2672 111.105 77.7029C107.738 76.9303 104.226 76.1559 100.853 76.9157C98.4919 77.4946 96.364 78.7809 94.754 80.6023C93.144 82.4237 92.1287 84.6934 91.844 87.1077C90.006 87.2754 88.2584 87.9813 86.8195 89.137C85.3807 90.2928 84.3145 91.8471 83.7545 93.6057C83.1944 95.3642 83.1652 97.2488 83.6706 99.0238C84.176 100.799 85.1936 102.385 86.596 103.585C83.2417 104.732 81.9987 109.181 83.2217 112.508C85.757 119.402 94.3237 121.089 98.7672 126.569C102.334 130.964 102.963 137.524 107.701 140.998C110.283 142.965 113.098 144.609 116.081 145.89C116.814 146.187 125.486 148.445 125.474 147.928C125.565 151.899 127.823 153.924 126.671 152.933C132.211 163.756 137.576 164.727 147.541 159.238C151.121 157.265 154.725 155.188 157.542 152.225C162.202 147.321 168.247 134.043 163.128 128.939Z" fill="white"/>
    <path d="M121.156 92.3293C121.611 92.5195 119.959 96.4425 119.882 100.58C119.769 106.683 122.184 105.005 118.899 106.204C116.502 99.5975 120.623 92.1036 121.156 92.3293Z" fill="#20201E"/>
    <path d="M165.802 132.335C164.182 127.111 156.395 123.434 150.258 123.019C149.546 113.676 144.879 103.937 139.941 95.9693C133.148 84.8755 123.005 78.6693 110.233 76.4953C104.56 75.5134 97.9698 75.3869 93.8685 79.5047C92.9211 80.4224 92.1784 81.5302 91.6893 82.7552C91.2001 83.9802 90.9755 85.2948 91.0302 86.6127C83.9622 87.5172 77.9189 96.1376 85.2972 103.116C80.2995 105.04 81.6226 112.164 84.7293 116.596C87.8588 120.944 91.9784 120.31 97.0435 126.208C102.295 132.239 100.662 136.225 107.514 141.86C112.398 145.818 118.028 148.321 124.629 148.389C124.454 149.656 124.689 150.947 125.301 152.071C128.751 159.099 133.462 164.72 141.072 163.196C158.527 159.681 168.049 139.829 165.802 132.335ZM163.644 137.765C162.452 142.457 160.239 146.829 157.164 150.569C154.088 154.308 150.225 157.323 145.85 159.397C138.233 162.791 132.977 163.05 126.707 151.38C126.139 150.482 125.918 149.408 126.086 148.359C133.522 147.983 139.257 143.796 139.046 143.489C138.836 143.163 134.418 146.42 127.576 146.911C117.141 147.73 107.137 141.275 103.757 134.218C102.409 131.424 101.465 128.453 98.4531 124.993C93.3207 119.019 88.8899 119.199 86.249 115.522C83.5809 111.729 82.1304 105.239 87.0872 104.572C88.5632 105.62 94.2507 108.981 95.8177 109.9C97.9498 111.123 98.5477 110.163 96.5357 108.769C91.0602 105.018 88.9572 103.781 87.6468 102.736C79.981 96.6136 85.1734 89.1771 91.2559 87.8739C92.3934 92.9936 101.784 94.6325 111.124 100.871C110.128 102.09 109.286 103.427 108.617 104.852L110.3 105.64C113.228 99.38 117.724 96.9039 117.378 96.3424C117.175 95.992 114.588 97.2642 112.38 99.4773C106.665 95.6098 99.0937 92.6988 95.0742 90.077C91.7873 87.9031 92.4789 83.525 95.1852 80.8178C101.205 74.5943 117.48 79.1798 124.996 83.6388C133.111 88.4236 137.281 94.5588 141.483 102.051C145.487 109.201 150.44 120.95 148.991 128.987C147.922 134.72 144.077 138.692 144.328 138.901C144.543 139.083 149.793 133.56 150.3 127.314C150.343 126.794 150.365 125.335 150.336 124.443C154.38 124.937 158.196 126.59 161.321 129.204C164.299 131.796 164.52 133.944 163.64 137.765H163.644Z" fill="#20201E"/>
    <path d="M91.4053 161.689C88.1293 152.513 80.4197 153.836 83.1243 150.921C89.5916 143.947 86.6496 130.446 70.2359 123.348C72.8749 121.059 75.5403 118.733 77.4677 115.823C82.945 107.555 78.5788 99.4956 72.4172 99.5511C73.0617 98.2283 73.3161 96.7494 73.1509 95.2873C72.9856 93.8252 72.4074 92.4404 71.484 91.2949C70.5605 90.1494 69.3299 89.2906 67.9362 88.8188C66.5425 88.3471 65.0432 88.2819 63.6139 88.6311C62.2552 88.9696 62.0268 88.5983 61.985 87.5937C61.8721 84.8782 59.3105 82.747 56.6305 82.2929C50.5645 81.2637 34.6276 88.4036 25.1391 105.862C23.9948 107.829 23.1501 109.955 22.6329 112.171C20.9458 120.512 28.0019 142.449 45.9289 157.428C40.9967 158.81 40.5872 168.687 43.2107 172.154C44.0869 173.219 45.1854 174.081 46.4294 174.678C53.6657 178.494 62.3863 177.621 70.4807 176.433C77.0272 175.473 90.3788 172.187 91.8402 165.695C92.0738 164.346 91.9231 162.958 91.4053 161.689Z" fill="white"/>
    <path d="M75.3118 142.044C75.6494 146.398 73.4918 149.272 73.2533 149.116C72.9312 148.908 74.7376 146.673 74.3854 142.116C74.0805 138.172 72.3206 135.299 72.5936 135.164C72.8275 135.02 75.0015 138.035 75.3118 142.044Z" fill="#20201E"/>
    <path d="M92.6171 162.156C92.0012 159.898 90.8639 157.816 89.2967 156.077C87.7294 154.339 85.776 152.992 83.5936 152.146C91.2803 144.658 85.9814 128.747 71.3614 123.481C72.9139 122.35 74.3216 121.032 75.5528 119.557C85.0632 108.683 80.3503 99.9351 73.6354 99.2935C75.2161 91.0881 68.7751 86.0294 62.8456 87.9249C62.5234 83.6006 58.14 80.8688 53.4043 81.3729C40.8773 82.727 24.4172 100.834 22.0366 111.72C19.8463 121.671 30.0537 146.761 44.7866 156.983C41.9238 158.948 40.5515 161.497 40.5833 165.34C40.6853 169.604 41.982 173.234 45.8395 174.975C55.7412 179.511 70.1966 177.676 80.6206 174.987C88.2082 173.034 94.4135 169.72 92.6171 162.156ZM86.6503 170.474C80.2903 173.917 59.4631 177.894 48.3948 173.75C45.6175 172.628 43.6364 171.442 42.9557 167.884C41.8155 162.307 43.5436 159.245 48.301 156.879C51.9001 155.095 56.2672 154.322 56.2026 153.932C56.1452 153.588 50.2193 153.974 45.9387 156.291C31.8291 146.27 21.7418 121.521 23.8402 112.126C26.7841 98.7493 51.3222 75.8583 59.9718 85.1084C61.6762 86.903 61.6289 88.6775 60.5369 90.8587C58.5791 94.4667 55.8603 97.6059 52.5689 100.059L53.276 101.023C57.0425 98.3144 61.9092 93.0819 62.74 89.2681C67.2809 87.9031 72.5243 91.1891 71.9738 97.7201C71.5925 103.241 67.1226 107.244 63.3006 110.787L64.0632 111.708C68.0453 108.692 71.961 105.247 73.3524 100.479C74.805 100.714 76.1397 101.42 77.1506 102.49C78.1615 103.559 78.7922 104.931 78.9453 106.394C79.6533 111.84 75.6329 117.16 71.9256 121.211C70.5424 122.805 69.697 122.762 69.767 122.959C69.3839 122.843 65.49 121.761 65.3745 122.134C65.1069 123.022 76.3918 124.979 82.2022 133.85C85.9832 139.541 86.9287 147.301 81.4096 151.595C75.5164 150.536 63.4644 152.651 63.5062 153.004C63.5718 153.558 72.8028 153.013 76.3372 153.08C78.762 153.016 81.1757 153.431 83.4407 154.298C89.3093 156.9 94.7538 166.177 86.6503 170.474Z" fill="#20201E"/>
    <path d="M120.243 133.747C121.491 132.648 122.325 131.155 122.609 129.516C125.118 119.441 120.823 109.764 118.431 102.469C116.486 96.5326 101.912 54.5061 100.748 51.8334C99.3167 48.5446 98.7834 45.2859 96.3565 42.4049C94.5597 40.1837 92.0534 38.6484 89.2585 38.0569C85.0142 37.2752 70.3195 39.7777 65.2736 41.1372C52.5582 44.5643 39.6025 45.2013 34.8951 47.9086C33.2718 48.9434 31.8978 50.325 30.8718 51.9539C29.8458 53.5828 29.1932 55.4187 28.961 57.3298C28.233 63 33.3444 76.0694 33.9286 79.3845C34.0806 80.2454 33.9487 81.0917 34.1106 81.9507C35.0279 86.7191 39.7044 93.3904 39.7044 96.3424C40.3141 98.4354 40.5707 100.552 41.4216 102.559C41.3979 102.493 41.4944 102.437 41.5572 102.468C41.9084 102.635 42.6546 106.909 43.9041 109.333C47.5013 116.312 47.5295 118.276 49.2731 122.917C50.4133 125.958 51.9175 128.858 52.9495 131.937C53.6966 134.166 54.1934 136.487 55.1162 138.645C57.7697 144.865 61.781 145.337 67.878 144.596C79.92 143.134 81.2696 143.171 83.5737 141.841C84.6766 142.414 84.1515 142.246 110.005 137.553C113.371 136.944 117.61 136.029 120.243 133.747Z" fill="#FFFCF1"/>
    <path d="M109.614 104.704C107.703 99.5602 111.358 107.616 101.293 81.6359C99.1471 76.0958 92.7343 56.4289 91.21 53.4395C90.8194 52.7843 90.5615 52.0586 90.4511 51.3038C90.2252 50.6389 89.8337 50.0425 89.3136 49.5708C88.7935 49.0991 88.1618 48.7675 87.4781 48.6074C86.1882 48.3855 84.8648 48.4567 83.6061 48.8158C48.1716 56.1513 47.2061 54.9128 44.0147 59.2945C42.1419 61.8679 43.9101 61.4002 55.9858 99.9169C56.4053 101.255 57.3262 102.465 57.7985 103.814C58.7795 106.616 57.8631 105.172 61.6396 115.694C64.8828 124.733 63.6498 123.386 64.7491 125.453C65.3609 126.578 66.3394 127.46 67.5218 127.951C68.9143 128.451 70.4352 128.463 71.8352 127.985C75.8438 127.013 88.3272 125.346 88.7276 125.284C90.4274 125.037 90.4766 124.588 101.559 122.7C110.356 121.2 110.669 121.107 111.316 120.711C112.301 119.925 113.03 118.864 113.409 117.662C113.684 116.025 110.182 106.23 109.614 104.704Z" fill="white"/>
    <path d="M77.0087 56.2214C81.5724 54.9747 80.7334 55.7582 83.4597 55.2805C84.2551 55.1412 84.6427 54.4615 86.5792 55.7427C88.5694 57.0522 90.8316 67.5818 93.9748 74.9055C94.5708 76.2942 94.7674 77.6674 95.2679 79.0915C97.8332 86.3979 99.1263 88.3735 98.8842 90.0279C98.4456 93.0309 95.1532 92.9199 92.5452 93.6907C88.1217 94.9992 83.4142 95.1721 79.0235 96.5881C78.7973 96.6158 78.5697 96.6295 78.3419 96.629C77.7959 96.72 71.0364 98.5792 64.7947 99.5811C60.8635 100.213 59.5495 93.2939 58.1845 88.419C57.684 86.6281 51.344 70.5093 51.2157 68.6465C51.0792 68.4491 50.6952 68.6638 50.7916 68.8831C50.8881 69.1025 51.3058 68.9641 51.2521 68.7303C50.6924 66.3169 49.504 64.9438 50.6797 62.7579C52.3177 59.7131 55.4781 60.8051 66.4072 58.3799C72.9356 56.933 73.5344 57.1696 77.0087 56.2214Z" fill="#F8D348"/>
    <path d="M98.5137 97.9458C99.279 98.9468 101.74 97.4298 103.707 103.492C109.329 120.817 108.872 113.664 73.8991 122.011C72.0591 122.45 70.6049 122.477 69.2426 120.538C68.198 119.053 66.6701 113.819 66.0422 111.741C63.1393 102.123 70.0562 104.552 78.1943 102.217C78.238 102.205 96.1067 98.3799 98.5137 97.9458Z" fill="#F8D348"/>
    <path d="M60.406 97.3398L49.6862 65.851C49.5145 65.3085 49.4583 64.7361 49.5209 64.1706C49.5836 63.605 49.7638 63.0589 50.05 62.5671C50.3362 62.0753 50.7221 61.6488 51.1828 61.315C51.6436 60.9811 52.1691 60.7473 52.7256 60.6285L83.5819 54.5825C84.5482 54.3796 85.5552 54.5337 86.4167 55.0162C87.2781 55.4987 87.9356 56.277 88.2674 57.2069C100.204 91.1936 99.8299 89.3927 98.6897 91.4229C97.443 93.6479 98.1637 93.0509 65.1462 100.106C64.1532 100.322 63.1155 100.157 62.2379 99.6451C61.3603 99.1329 60.7067 98.3103 60.406 97.3398ZM50.851 63.0328C49.8218 64.7945 50.214 63.2038 61.2905 97.054C61.5243 97.8027 62.0284 98.4376 62.7046 98.8349C63.3809 99.2323 64.1809 99.3637 64.9487 99.2034L95.774 92.5186C96.2137 92.4259 96.6285 92.2402 96.9906 91.9742C97.3527 91.7081 97.6537 91.3677 97.8735 90.9758C98.0934 90.5839 98.2269 90.1495 98.2651 89.7018C98.3034 89.2541 98.2456 88.8034 98.0954 88.3799C90.7827 67.6128 106.222 111.139 87.3857 57.5118C87.1267 56.7951 86.6177 56.196 85.9523 55.8245C85.2869 55.453 84.5098 55.3342 83.7639 55.4898C50.8937 62.2056 51.8702 61.2846 50.8501 63.03L50.851 63.0328Z" fill="#20201E"/>
    <path d="M90.4148 50.1044C89.293 49.0064 87.7979 48.3727 86.2288 48.3299C85.3807 48.3026 87.6211 47.7156 49.058 55.3878C47.715 55.5115 46.4299 55.9936 45.337 56.7838C44.5143 57.425 43.8736 58.2701 43.4783 59.2354C43.0831 60.2007 42.9471 61.2525 43.0839 62.2866C43.2113 63.2794 63.9374 125.052 64.2022 125.532C64.8758 126.899 66.0454 127.958 67.4728 128.494C69.4566 129.243 70.7351 128.788 72.9328 128.391C104.419 122.685 117.099 119.774 86.4654 125.059C68.8769 128.094 69.574 128.223 67.8368 127.554C65.7592 126.753 65.155 125.279 64.6718 123.823C44.5317 63.0628 44.2978 63.1865 44.1659 62.1337C44.057 61.2905 44.1696 60.4335 44.4928 59.6472C44.8159 58.8608 45.3383 58.1722 46.0086 57.6492C47.4082 56.59 45.0504 57.2761 82.607 50.0052C84.6499 49.6103 86.6028 48.9778 88.2217 49.8878C90.1172 50.9543 89.4529 50.2236 92.0309 57.2706C115.058 120.213 113.533 116.785 112.796 118.464C111.753 120.845 109.626 120.907 108.538 121.169C97.4209 123.85 110.159 121.437 111.144 120.962C112.184 120.439 112.996 119.553 113.428 118.472C113.86 117.391 113.881 116.189 113.487 115.093C105.486 91.6222 90.9944 50.8797 90.4148 50.1044Z" fill="#20201E"/>
    <path d="M72.4898 122.696C71.5011 122.696 70.5392 122.375 69.748 121.782C68.9568 121.189 68.3789 120.356 68.1009 119.407L64.965 109.611C64.7686 109.005 64.7021 108.364 64.7698 107.73C64.8375 107.096 65.0378 106.483 65.3578 105.932C65.6778 105.38 66.1103 104.903 66.6271 104.529C67.1439 104.156 67.7334 103.896 68.3575 103.765L97.816 97.8011C98.9188 97.5881 100.061 97.7822 101.032 98.3475C102.003 98.9128 102.735 99.8108 103.094 100.875C104.782 105.718 104.063 103.432 106.679 111.027C106.884 111.623 106.961 112.255 106.903 112.883C106.845 113.51 106.655 114.118 106.345 114.666C106.034 115.214 105.611 115.691 105.103 116.063C104.595 116.436 104.014 116.696 103.398 116.827C99.9581 117.558 73.4089 122.696 72.4898 122.696ZM98.7205 98.6438C98.1818 98.6438 100.194 98.308 68.5413 104.679C68.0448 104.784 67.5759 104.992 67.1652 105.29C66.7545 105.588 66.4112 105.97 66.1576 106.409C65.904 106.849 65.7459 107.337 65.6934 107.842C65.641 108.346 65.6954 108.857 65.8532 109.339L68.9881 119.135C69.2497 120.02 69.835 120.775 70.6276 121.248C71.4201 121.721 72.3618 121.878 73.2651 121.689C103.319 115.707 97.9734 117.032 103.204 115.921C103.691 115.817 104.151 115.611 104.553 115.316C104.955 115.022 105.29 114.645 105.535 114.211C105.78 113.778 105.931 113.297 105.976 112.8C106.022 112.304 105.962 111.804 105.799 111.333C103.177 103.72 103.908 106.038 102.216 101.184C101.97 100.449 101.501 99.8103 100.874 99.3551C100.248 98.8999 99.4949 98.6513 98.7205 98.6438Z" fill="#20201E"/>
    <path d="M124.421 120.335C123.542 111.152 116.742 96.3706 102.388 53.8982C99.8723 46.4735 98.0105 42.0063 93.6015 38.9933C88.2698 35.3278 83.5769 36.6955 42.7607 45.0785C38.6957 45.912 35.8156 46.2187 32.4158 49.1316C30.9164 50.3535 29.7517 51.9359 29.0306 53.7307C27.5664 58.47 29.1171 65.7709 30.3256 70.5657C32.92 80.7068 50.2882 128.608 55.0876 140.561C55.8866 142.378 57.2419 143.893 58.9581 144.89C60.6743 145.886 62.6626 146.312 64.6362 146.105C71.0062 145.28 113.641 137.946 114.024 137.843C120.651 136.173 125.381 130.053 124.421 120.335ZM37.8349 48.1961C39.8169 46.8238 38.8959 47.2443 54.0019 44.1721C59.7586 43.0027 84.9792 37.2279 90.4675 38.8632C92.9051 40.0594 95.0039 41.8478 96.5717 44.0647C99.3299 48.3235 102.448 59.5993 104.417 65.063C117.242 101.202 126.923 125.619 121.188 127.255C110.279 129.465 78.5164 135.278 67.5791 136.802C61.2273 137.712 60.4011 133.257 58.9842 129.496C55.8975 121.312 33.1921 62.677 34.5125 53.8955C34.5984 52.7559 34.9421 51.6507 35.5177 50.6634C36.0932 49.676 36.8856 48.8324 37.8349 48.1961ZM106.165 137.352C61.12 145.162 62.9081 145.259 59.8214 143.473C56.7601 141.736 56.3161 139.185 54.6289 134.803C29.6522 68.9523 23.4842 53.9491 36.5654 48.0796C30.3356 53.3194 34.5634 63.3458 44.0029 91.2737C50.5922 110.276 59.4419 133.658 60.3228 134.885C61.1049 136.078 62.2229 137.014 63.536 137.573C64.849 138.133 66.2983 138.291 67.7011 138.028C76.4607 136.775 121.868 127.97 121.96 127.952C119.218 136.556 111.802 136.336 106.165 137.352Z" fill="#20201E"/>
    <path d="M55.5328 77.0704C56.2344 78.9641 57.0425 81.2346 59.2028 81.8643C59.8174 82.0362 60.4661 82.046 61.0857 81.8928C61.7052 81.7395 62.2745 81.4284 62.7382 80.9898C63.154 86.2168 63.1022 86.8265 63.5863 87.5236C63.7535 87.7947 64.0172 87.9924 64.3244 88.0768C64.6315 88.1612 64.9593 88.1261 65.2416 87.9786C63.5817 89.1416 61.5879 95.7209 62.6745 98.7694C62.9983 99.0048 63.3702 99.1657 63.7635 99.2404C64.1568 99.3152 64.5618 99.3019 64.9495 99.2016C98.5794 92.0217 96.1879 92.535 96.9323 92.0126C96.6366 89.5729 95.0213 86.8748 91.3358 84.901C90.303 84.3468 92.1712 83.9054 90.4331 80.0998C90.0031 79.1057 89.5129 78.1387 88.9653 77.2042C88.0616 75.7318 89.1846 75.8683 89.5431 74.9956C89.7585 74.3406 89.7224 73.6289 89.4418 72.9991C89.1612 72.3693 88.6562 71.8665 88.0252 71.5886C89.2738 70.1917 90.6733 69.876 89.9644 66.8466C89.2628 63.8518 87.3409 61.6341 84.3388 62.7852C83.9284 61.3948 82.4924 60.6331 81.3276 59.7713C81.011 59.5356 81.0009 59.4128 81.081 59.0433C81.317 58.0457 81.1946 56.9968 80.7352 56.0804C80.1492 56.195 80.3184 56.3333 80.1592 55.5216C79.3184 55.0666 78.8024 55.5216 78.361 56.3097C76.1243 60.2946 77.9306 57.4617 77.1143 55.4379C77.0754 55.3042 77.0091 55.18 76.9194 55.0734C76.8298 54.9668 76.719 54.88 76.5939 54.8187C76.4689 54.7574 76.3324 54.7228 76.1932 54.7173C76.0541 54.7117 75.9153 54.7352 75.7857 54.7863C73.6927 55.2304 73.2277 57.3343 67.7186 61.2728C64.3725 63.6652 58.8561 65.3915 59.7015 71.1873C57.1735 70.6567 54.1396 73.3094 55.5328 77.0704Z" fill="white"/>
    <path d="M86.1232 89.8104C84.4115 90.6121 83.4943 91.857 80.7178 92.4176C78.2954 92.9071 76.753 92.2165 74.6545 92.4176C70.7861 92.7934 70.5195 96.9002 70.9144 96.7856C71.0646 96.7919 71.1874 93.3858 74.7173 93.0327C76.6429 92.8398 78.3792 93.5205 80.838 93.0209C85.2751 92.1191 86.8958 88.1424 90.0235 91.0571C90.8052 91.7851 91.1665 92.3866 91.2511 92.3311C91.4549 92.231 89.4529 88.2498 86.1232 89.8104Z" fill="#20201E"/>
    <path d="M91.3947 84.4605C91.9507 81.6313 90.5621 78.5574 88.9123 76.2214C89.3317 75.9712 89.6728 75.6087 89.8971 75.1748C90.1214 74.7409 90.2198 74.253 90.1814 73.7661C90.143 73.2792 89.9692 72.8128 89.6796 72.4195C89.3901 72.0262 88.9963 71.7216 88.5428 71.5403C92.7807 68.9923 89.1652 60.2727 84.6835 62.4303C84.1121 61.5552 83.4025 60.7785 82.5823 60.1308C81.2946 59.138 81.4976 59.7995 81.5294 58.5028C81.615 54.9538 79.0943 53.5087 77.6273 57.0641C77.6253 56.5436 77.5667 56.0249 77.4526 55.5171C77.4037 55.2858 77.3038 55.0684 77.1602 54.8807C77.0166 54.6929 76.8329 54.5396 76.6225 54.4318C76.4122 54.3241 76.1804 54.2646 75.9441 54.2578C75.7079 54.2509 75.473 54.2969 75.2568 54.3923C73.9773 54.8473 73.1729 55.9675 72.2019 56.8648C67.0914 61.5913 63.3695 63.3258 61.7369 64.6389C60.7843 65.3515 60.0507 66.3172 59.6198 67.4261C59.1888 68.535 59.0777 69.7426 59.299 70.9115C55.8829 70.6158 52.4158 74.2558 56.4553 80.2345C58.3153 82.9445 61.0371 83.0127 62.3703 81.6723C62.558 83.2427 62.6555 84.8227 62.6624 86.4043C62.6766 86.8947 62.8703 87.3628 63.2068 87.7197C63.5433 88.0767 63.9992 88.2977 64.4879 88.3408C64.7845 88.3535 64.5652 88.1852 63.7599 89.5838C61.7023 93.0719 62.2056 96.721 62.4859 96.7009C62.899 96.6718 62.4176 91.847 66.1477 87.9376C66.4607 91.7533 70.2718 92.059 71.1791 87.0349C71.7643 88.1802 72.7745 89.0509 73.9936 89.4608C75.2126 89.8707 76.5437 89.7871 77.702 89.228C82.8826 92.13 89.5975 89.592 91.17 85.2886C94.5724 86.6063 96.2259 90.7341 96.4534 90.674C97.0185 90.563 95.234 85.6308 91.3947 84.4605ZM87.7884 71.2355C86.8702 70.9234 87.0076 70.9989 86.9767 70.7059C88.6948 69.7431 88.7803 66.2633 86.4361 66.114C85.9811 66.114 86.235 66.3224 85.8474 65.022C85.9673 64.9248 86.1087 64.8575 86.2599 64.8259C86.411 64.7942 86.5675 64.7991 86.7164 64.84C86.9894 64.8992 87.1341 65.0011 87.1587 64.9683C87.2679 64.8682 86.4207 64.274 85.7373 64.6744C85.5547 64.0924 85.3141 63.5303 85.0193 62.9964C88.7849 61.8279 91.3902 69.137 87.7884 71.2355ZM86.9093 70.189C86.7592 69.1816 86.4443 67.5982 86.235 66.5899C88.045 66.5772 88.0687 69.1207 86.9093 70.189ZM84.8236 64.6435C85.4433 66.1905 86.074 69.1734 86.7346 70.8424C84.9483 70.0625 85.8901 69.3463 84.678 68.5392C84.8218 67.0213 83.768 64.8273 83.1665 63.8845C84.5952 63.9673 84.1748 63.0073 84.8236 64.6435ZM60.4465 67.8858C61.5749 64.7627 64.2804 64.8828 70.7514 59.4028C73.778 56.8493 75.2268 54.5324 76.3088 55.1349C77.8912 55.8001 76.1986 63.3922 77.3098 59.552C77.7311 58.0696 77.2115 58.551 78.4827 56.6082C79.4837 55.1012 80.7659 55.6745 80.6349 58.4764C80.5748 59.7504 80.3947 59.7413 81.0744 60.219C82.2825 60.9667 83.3084 61.9747 84.0774 63.1693C83.637 63.2583 83.189 63.3044 82.7397 63.3067C80.29 60.5011 77.7193 63.2512 75.427 64.1493C71.9917 65.5243 68.4646 65.7482 67.1578 67.5354C65.0772 69.1036 62.7547 70.3217 60.2818 71.1418C60.0392 70.0617 60.0961 68.9359 60.4465 67.8858ZM60.5676 75.0748C60.9871 76.266 61.3811 77.4726 61.7114 78.6893C61.5076 78.8493 61.2677 78.9571 61.0127 79.0032C60.7576 79.0494 60.4952 79.0325 60.2482 78.9541C58.7057 78.46 58.5319 75.4779 60.5676 75.0748ZM62.2192 80.8779C61.8094 81.3411 61.2493 81.6448 60.6375 81.7355C60.0257 81.8262 59.4016 81.6981 58.875 81.3738C57.5746 80.6731 56.6973 79.0424 55.9766 77.3234C54.4979 73.7043 56.9421 71.4311 59.4283 71.5758C60.2254 75.0711 60.9452 73.9992 59.0269 74.2066C56.8784 74.4114 57.0613 76.6354 57.3061 76.5344C57.4281 76.5444 56.8238 74.335 60.0407 74.6353C60.1171 74.6425 60.1572 74.7008 60.0944 74.6889C58.0969 75.1039 57.965 78.7748 60.0944 79.4373C60.387 79.5259 60.6957 79.5479 60.9979 79.5016C61.3 79.4553 61.588 79.3419 61.8407 79.1698C62.0056 79.7289 62.1321 80.2987 62.2192 80.8751V80.8779ZM60.3874 71.5959C61.6697 71.2651 62.9131 70.7987 64.0966 70.2045C67.459 68.5037 66.5536 67.7475 66.4334 69.8587C66.3579 71.8161 66.6355 74.3177 67.9213 75.8046C66.5869 77.6233 64.9566 79.2051 63.0983 80.4838C62.282 76.4844 60.8788 73.5615 60.3874 71.5922V71.5959ZM77.1523 87.9158C70.4893 82.8835 75.315 76.0667 75.0357 75.8974C74.2268 76.9492 73.6482 78.1594 73.3373 79.4493C73.0264 80.7392 72.9902 82.0801 73.2311 83.3849C73.7347 85.5368 75.0175 87.4258 76.832 88.6875C76.2372 88.8457 75.6165 88.8815 75.0075 88.7926C74.3985 88.7038 73.8139 88.4922 73.2891 88.1706C72.7643 87.849 72.3103 87.4242 71.9547 86.9219C71.599 86.4197 71.3491 85.8504 71.22 85.2486C70.9825 83.9982 70.887 85.8592 70.5284 86.9721C70.2445 87.8202 69.5511 89.4874 68.7221 89.8159C67.8321 90.1699 67.2097 89.1197 67.0723 88.1506C66.6173 85.2286 67.0231 87.0586 67.5536 84.2904C67.6756 83.5869 67.6365 83.1883 67.5782 83.1829C67.52 83.1774 67.4262 83.5533 67.2033 84.2012C66.9579 85.0334 66.5612 85.8133 66.033 86.5017V86.5226C64.8728 88.0887 63.6416 87.7702 63.5023 86.2896C63.5662 84.5073 63.4602 82.7229 63.1856 80.9607C65.2614 79.8201 67.0095 78.1657 68.2625 76.1559C68.8441 76.7081 69.5923 77.0522 70.3901 77.1341C71.6787 77.216 72.3466 76.3151 73.2029 75.5416C73.4823 75.2823 73.7826 75.0402 74.0483 74.7517C74.1148 74.9809 74.2329 75.1918 74.3935 75.3683C74.554 75.5448 74.7528 75.6822 74.9747 75.77C76.5463 76.3315 77.9613 75.2495 78.6911 75.0802C79.8041 74.8236 80.4138 75.9748 80.5375 75.8729C80.4277 75.4575 80.1707 75.0961 79.8143 74.8562C79.4578 74.6163 79.0263 74.5142 78.6001 74.5688C77.7884 74.6671 76.3688 75.5507 75.2777 75.0611C75.041 74.9052 74.8714 74.666 74.8025 74.391C74.7336 74.116 74.7703 73.8252 74.9055 73.576C75.3906 72.2429 77.4808 71.3784 78.7648 70.634C80.3674 69.7049 81.9353 68.9259 83.4304 69.0369C84.1693 69.0433 84.6271 69.3955 84.7044 69.9633C84.8919 71.3511 83.4959 71.9844 82.9144 72.5177C82.743 72.6527 82.606 72.8264 82.5146 73.0245C82.4231 73.2226 82.3798 73.4396 82.3883 73.6576C82.3967 73.8757 82.4566 74.0886 82.5631 74.2791C82.6695 74.4696 82.8196 74.6322 83.0009 74.7536C83.0828 74.7162 82.8189 74.3677 82.7552 73.7653C82.6587 72.5777 85.174 72.5941 85.4561 70.381C86.3424 72.0108 90.1226 71.928 89.2462 74.5006C88.5837 76.4398 77.3425 80.128 76.1877 84.7526C76.0549 85.2823 76.0057 85.2531 76.3452 84.7936C78.0669 82.464 76.4962 84.2003 80.057 86.0776C84.9938 88.6702 90.4693 84.9028 87.3179 79.6302C87.6023 79.4022 87.8241 79.1058 87.9627 78.7687C88.1013 78.4317 88.1522 78.0649 88.1105 77.7029C88.086 76.6282 87.8594 76.9121 88.2398 76.6791C95.5944 87.5163 83.748 92.2938 77.1523 87.9158ZM86.7492 84.4396C85.376 86.1986 82.9272 86.3397 80.8597 85.5134C82.0099 83.6816 85.9511 83.1792 86.7492 84.4396ZM80.9406 80.7596C82.0954 80.0316 83.0573 79.5028 84.2549 78.8704C84.8009 79.6566 84.1047 80.9516 83.3048 81.2746C82.9019 81.4178 82.467 81.4454 82.0492 81.3544C81.6315 81.2634 81.2475 81.0574 80.9406 80.7596ZM84.7963 78.5847C85.7418 78.0869 86.6873 77.5909 87.6173 77.0504C87.8949 79.6612 85.9502 80.1553 84.7963 78.5847ZM78.1433 83.6461C77.995 83.4886 77.8594 83.3321 77.7375 83.1783C78.546 82.4139 79.426 81.7289 80.3655 81.1327C80.566 81.4525 80.6575 81.8286 80.6266 82.2048C80.5956 82.581 80.4438 82.9371 80.1938 83.2199C79.9438 83.5027 79.609 83.697 79.2394 83.7738C78.8698 83.8506 78.4853 83.8058 78.1433 83.6461Z" fill="#20201E"/>
    <path d="M27.4537 85.3487C29.7177 85.5188 39.655 79.2338 40.3746 77.0805C43.687 67.1678 34.9508 48.564 23.5444 52.0181C20.4473 53.187 17.6717 55.0738 15.4454 57.5236C12.9256 60.5366 12.8974 62.9763 13.3933 66.0412C14.1098 70.5851 15.7718 74.9281 18.2718 78.7894C19.8962 81.008 23.9757 85.0912 27.4537 85.3487Z" fill="#FFFCF1"/>
    <path fill-rule="evenodd" clip-rule="evenodd" d="M27.0512 63.5589L31.043 66.0005L29.6025 66.372L31.0401 70.4931L29.5996 70.8646L27.0512 63.5589ZM35.0158 69.4678L31.024 67.0263L32.4645 66.6548L31.0269 62.5336L32.4673 62.1621L35.0158 69.4678Z" fill="#20201E"/>
    <path d="M23.6698 69.41C17.632 55.3742 28.6138 48.0196 35.5226 61.3857C35.942 62.0789 36.2492 62.8341 36.4326 63.6233C36.3652 63.6534 36.0076 62.8726 35.2068 61.5622C29.6039 52.3885 23.4678 54.0365 22.9118 60.4311C22.3576 66.7847 27.9222 78.9114 34.1466 77.9377C36.4471 77.5737 37.3544 75.2723 37.7138 72.9872C38.5692 67.5591 36.3543 64.4332 36.7183 64.2922C37.129 64.9888 37.4594 65.7297 37.7029 66.5008C41.868 79.501 30.3292 84.891 23.6698 69.41Z" fill="#20201E"/>
    <path d="M41.6278 69.4956C40.2264 58.9951 32.8008 48.4746 23.0811 51.3738C19.5794 52.4203 14.0165 56.3297 12.8954 59.8095C9.68586 69.2508 21.6633 91.0535 32.6006 84.8409C37.7512 81.9953 43.0619 80.6358 41.6278 69.4956ZM20.5995 54.0738C22.7899 52.8471 19.2427 54.2167 19.0525 60.6258C18.7012 60.8215 19.4374 60.3528 13.7199 64.2139C13.5588 60.6695 14.3896 57.6556 20.5995 54.0738ZM13.8318 65.5535C15.8092 63.3531 16.3607 62.9145 19.0516 61.9135C19.1094 63.9351 19.4119 65.9423 19.9525 67.8912C19.2345 68.3399 18.2535 69.1316 17.4409 69.7185C17.3499 69.7185 15.2869 71.0944 15.1959 71.1572C14.5336 69.3461 14.076 67.4664 13.8318 65.5535ZM19.3127 78.9741C17.8083 76.908 16.5683 74.6616 15.6218 72.2874C17.389 70.2463 17.7375 69.9215 20.2874 69.0115C20.9867 71.2133 22.0036 73.3013 23.3058 75.2095C21.5914 77.4481 22.05 77.6073 19.3082 78.9741H19.3127ZM20.0007 79.8359C20.9608 78.9587 21.686 78.0987 21.7779 78.0987C22.5132 77.4754 23.5142 76.7537 24.0529 76.2177C25.3708 77.9272 27.0191 79.3542 28.8996 80.4138C27.1387 82.7798 27.096 82.706 24.5634 83.6406C22.8238 82.6585 21.2764 81.3695 19.9962 79.8359H20.0007ZM31.9608 83.6898C31.0458 84.2337 30.0193 84.5629 28.9586 84.6524C27.8979 84.742 26.8307 84.5895 25.8374 84.2066C26.3516 83.8099 26.9231 83.3221 27.4172 82.9326C30.3474 80.8742 30.0835 81.0799 29.8806 80.9024C35.3206 83.3421 37.8267 80.1098 31.9563 83.6898H31.9608ZM31.0809 80.4811C20.2701 76.5308 16.4444 57.0431 23.4077 52.8526C39.9306 47.9923 47.7876 87.1996 31.0763 80.4811H31.0809Z" fill="#20201E"/>
    <path d="M149.405 111.281C154.254 106.425 156.255 102.371 152.922 96.882C150.933 93.606 149.163 90.0288 145.733 88.3207C140.916 85.9229 135.105 83.5278 130.288 86.6973C128.096 88.1378 120.86 96.1249 123.798 101.828C125.585 105.297 127.402 108.481 130.237 111.162C133.996 114.716 138.882 116.792 143.978 116.167C147.833 115.688 148.067 112.62 149.405 111.281Z" fill="#FFFCF1"/>
    <path fill-rule="evenodd" clip-rule="evenodd" d="M135.787 96.2688L140.973 96.8036L139.704 97.8696L143.13 101.321L141.861 102.387L135.787 96.2688ZM146.633 98.3786L141.447 97.8438L142.716 96.7778L139.29 93.3268L140.559 92.2608L146.633 98.3786Z" fill="#20201E"/>
    <path d="M155.064 100.779C152.365 87.6019 134.225 77.8412 125.607 90.2054C119.194 99.3199 123.001 104.219 130.612 112.123C132.185 113.612 134.031 114.783 136.05 115.57C138.774 116.642 141.691 117.135 144.616 117.016C147.477 116.693 148.529 114.488 151.502 110.373C153.972 106.925 155.894 104.846 155.064 100.779ZM152.488 97.9686C154.513 102.389 153.928 104.339 151.966 107.196C144.799 116.213 130.37 104.028 127.88 96.1686C123.866 83.2066 144.977 81.5067 152.483 97.9686H152.488ZM127.056 90.5976C126.364 92.9576 126.539 95.4875 127.551 97.7292C126.215 100.782 126.59 100.264 124.457 102.422C122.593 98.2352 124.287 94.2439 127.052 90.5967L127.056 90.5976ZM125.036 103.58C125.408 102.986 126.354 101.157 126.617 100.893C127.078 100.288 127.698 99.5966 128.157 99.0069C129.022 100.594 130.075 102.071 131.292 103.407C130.109 105.191 131.14 104.76 128.107 107.963C126.949 106.6 125.92 105.133 125.034 103.579L125.036 103.58ZM128.872 108.863C129.019 108.601 129.998 106.652 130.217 106.433C130.781 105.668 131.664 104.861 132.143 104.315C133.606 105.8 135.214 107.134 136.943 108.298C135.951 110.993 135.971 110.953 133.723 113.093C131.915 111.916 130.281 110.492 128.867 108.862L128.872 108.863ZM134.766 113.672C135.51 112.549 136.148 111.215 136.24 111.215C136.759 110.468 137.469 109.594 137.917 108.924C139.556 110.021 141.398 110.779 143.335 111.153C142.274 113.623 142.619 113.099 140.713 115.498C138.643 115.219 136.632 114.602 134.761 113.671L134.766 113.672ZM148.481 112.125C146.082 115.5 145.768 115.965 141.866 115.63C143.129 112.602 143.059 113.493 144.606 111.298C149.818 111.583 151.606 107.696 148.477 112.121L148.481 112.125Z" fill="#20201E"/>
    <path d="M135.135 103.537C128.091 97.5072 127.811 89.5229 132.578 88.0823C138.963 85.6817 145.773 91.9225 145.602 92.1154C145.431 92.3084 138.881 86.3943 132.849 88.804C127.789 90.3146 129.783 100.698 140.902 106.441C147.892 110.051 155.462 105.141 147.705 94.5552C146.76 93.2666 146.099 92.6578 146.151 92.6023C146.444 92.2383 153.56 99.7913 151.113 105.226C150.408 106.478 149.305 107.459 147.979 108.011C143.301 109.655 139 106.847 135.135 103.537Z" fill="#20201E"/>
    <path d="M38.2257 134.332C37.9446 131.771 37.1028 119.408 37.9709 117.497C38.8009 115.669 45.1035 111.775 47.6943 107.112C48.9182 104.91 49.9566 100.985 53.056 100.077C56.3684 99.107 58.981 101.988 60.9939 104.536C62.4409 106.093 63.3361 108.082 63.5419 110.197C64.6885 117.15 64.6612 119.884 59.6963 129.653C68.3768 134.557 72.1769 144.017 71.701 144.395C71.61 144.468 71.4708 144.272 71.5854 144.254C72.2677 145.363 72.7632 146.577 73.0524 147.847C73.4564 149.628 72.5428 150.184 70.6809 150.036C66.8516 149.731 56.5431 148.912 52.9859 147.567C49.1294 146.113 38.6753 138.411 38.2257 134.332Z" fill="white"/>
    <path d="M60.7755 129.364C67.5713 118.005 65.9861 103.496 57.2601 100.086C55.6643 99.3894 53.8872 99.2226 52.1896 99.6102C47.8489 100.805 49.3049 105.275 43.3426 110.959C41.458 112.752 39.8109 113.531 38.6006 115.164C38.3367 115.51 38.5942 115.45 38.0373 114.319C37.3241 112.884 36.1871 111.705 34.7804 110.939C33.0132 109.961 30.7427 109.799 30.7081 110.152C30.649 110.477 34.8432 111.288 36.4584 115.049C37.1265 116.893 37.4336 118.848 37.363 120.808C37.6451 135.972 38.3121 134.974 38.8572 118.401C39.4032 115.172 41.822 114.736 44.5083 112.213C51.7401 105.612 49.1666 99.4546 56.1026 101.622C65.2108 105.301 64.6712 118.887 59.4077 128.022C58.879 125.679 57.0326 124.193 56.8115 124.453C56.5922 124.682 57.5941 125.792 58.6133 128.227C57.7943 127.847 53.601 126.196 53.4318 126.715C53.1588 127.479 65.1562 131.223 70.5798 142.653C71.8629 144.982 72.9831 148.96 73.3389 148.895C74.0687 148.785 72.8002 136.38 60.7755 129.364Z" fill="#20201E"/>
    <path d="M134.736 141.771C131.387 144.529 118.208 138.532 115.824 126.66C98.1634 125.441 92.3331 109.042 100.482 104.975C103.155 103.641 106.047 104.561 108.796 105.106C116.296 106.593 119.449 105.457 123.441 107.454C125.374 108.808 126.318 111.154 127.864 112.938C129.255 114.341 130.773 115.611 132.399 116.732C135.884 119.494 142.741 132.077 134.603 141.928C134.458 141.526 134.579 142.169 134.736 141.771Z" fill="white"/>
    <path d="M128.836 112.749C124.993 108.35 124.887 105.439 117.715 105.036C114.562 105.019 111.418 104.692 108.33 104.058C104.963 103.371 101.204 102.663 98.3408 105.142C92.3011 110.428 98.2844 126.448 115.238 127.132C116.13 131.04 118.102 134.619 120.93 137.46C125.79 142.364 132.074 142.92 132.161 142.374C132.307 141.598 120.612 139.486 117.289 127.662C119.584 129.344 122.572 128.785 122.458 128.39C122.399 128.009 120.638 128.352 117.897 127.103C120.381 126.95 121.81 126.522 121.786 126.338C121.731 125.846 116.177 126.492 110.411 124.708C98.126 120.952 95.851 109.804 99.5684 106.546C101.802 104.589 105.257 105.324 107.959 105.884C116.574 107.71 120.545 105.745 123.825 109.132C125.077 110.406 125.743 111.637 127.894 113.666C130.497 116.096 132.497 117.057 132.62 116.866C132.782 116.632 131.084 115.301 128.836 112.749Z" fill="#20201E"/>
    <path d="M85.3065 16.5388C86.6218 16.8566 87.8673 17.4183 89.0153 18.1347C94.5622 21.596 95.5447 24.7515 94.0831 32.2047C93.3983 35.5284 91.9099 38.6338 89.7481 41.2496C87.5863 43.8654 84.8168 45.912 81.6816 47.2106C80.6673 47.6849 79.5675 47.9491 78.4484 47.9875C77.3293 48.0258 76.2141 47.8374 75.1697 47.4335C64.3115 44.1084 62.9866 38.5747 66.3745 28.7376C68.8716 21.4967 76.3818 16.2615 80.262 15.9293C81.9638 15.9352 83.6568 16.1403 85.3065 16.5388Z" fill="#FFFCF1"/>
    <path fill-rule="evenodd" clip-rule="evenodd" d="M76.3914 25.436L77.1214 30.058L75.9045 29.2024L73.6996 32.9692L72.4827 32.1135L76.3914 25.436ZM77.0582 35.3307L76.3283 30.7087L77.5452 31.5644L79.7501 27.7975L80.967 28.6532L77.0582 35.3307Z" fill="#20201E"/>
    <path d="M95.4683 25.1449C93.5227 18.5256 83.3999 10.2846 73.0232 18.531C65.9752 24.2413 60.1676 38.3354 67.0672 44.0283C69.5961 46.0613 75.5529 48.9132 78.2766 48.8877C88.1392 48.8358 97.3757 33.5369 95.4683 25.1449ZM94.1352 26.8639C92.8129 26.1486 92.1541 25.8884 92.0613 25.7956C91.1613 25.2659 90.0593 24.5407 89.2903 24.1803C89.3562 22.9918 89.1805 21.8022 88.7738 20.6834C88.3672 19.5647 87.738 18.5399 86.9243 17.6711C90.2777 19.3282 94.1852 23.1939 94.1352 26.8639ZM66.7032 41.7915C63.935 37.3908 65.462 31.1755 67.7388 26.7583C71.9548 18.5783 80.5197 14.254 85.3482 17.3708C95.1462 23.5879 78.5459 54.8873 66.7032 41.7915ZM72.5154 45.6354C74.7216 45.7738 76.9124 45.1846 78.7516 43.9582C79.9752 44.7816 81.2426 45.538 82.5481 46.2241C78.6897 48.1233 76.4402 47.4563 72.5172 45.6354H72.5154ZM83.7857 45.5444C81.6654 45.1676 81.0967 45.0357 79.7244 43.253C81.1653 42.0676 82.4526 40.7069 83.5564 39.2026C85.9033 40.4056 84.7867 39.2071 88.0682 41.8525C86.8346 43.2899 85.3915 44.5333 83.7875 45.5407L83.7857 45.5444ZM88.8162 40.9498C84.8959 39.2071 87.2292 40.3983 84.2662 38.208C85.546 36.3417 86.624 34.3449 87.4821 32.2511C91.0366 33.9537 89.3249 32.8562 92.2478 35.1858C91.3514 37.2441 90.1984 39.1808 88.8162 40.9498ZM92.6892 34.1248C88.8672 32.4076 90.163 32.7243 87.9271 31.1127C88.6143 29.2708 89.0553 27.3462 89.2384 25.3888C91.7537 26.0121 92.2023 26.3425 94.1033 28.1907C93.9206 30.2267 93.4436 32.2256 92.6873 34.1248H92.6892Z" fill="#20201E"/>
    <path d="M83.3863 34.2849C78.0782 43.4887 70.902 43.6434 68.4695 40.3128C65.0579 35.6472 69.8345 26.4062 70.2249 26.63C70.3159 26.6828 65.8369 35.5398 69.082 39.845C70.6008 41.8598 74.6202 42.4422 78.6752 38.7603C85.057 32.97 88.6342 20.4893 81.1722 19.3C77.9554 18.7867 75.7723 20.3801 73.7639 22.3203C72.5058 23.6309 71.3463 25.0328 70.295 26.5145C71.018 24.808 72.0692 23.2602 73.389 21.959C81.2942 13.658 91.2332 20.6777 83.3863 34.2849Z" fill="#20201E"/>
</svg>
