<svg width="182" height="182" viewBox="0 0 182 182" fill="none" xmlns="http://www.w3.org/2000/svg">
    <path d="M163.127 128.939C157.451 123.282 150.769 123.782 149.987 123.593C149.519 115.327 142.828 100.895 137.547 93.6952C129.659 82.9408 122.288 80.2672 111.105 77.7029C107.738 76.9303 104.226 76.1559 100.852 76.9157C98.4914 77.4946 96.3635 78.7809 94.7535 80.6023C93.1435 82.4237 92.1282 84.6934 91.8435 87.1077C90.0056 87.2754 88.2579 87.9813 86.819 89.137C85.3802 90.2928 84.3141 91.8471 83.754 93.6057C83.1939 95.3642 83.1647 97.2488 83.6701 99.0238C84.1756 100.799 85.1931 102.385 86.5955 103.585C83.2412 104.732 81.9982 109.181 83.2212 112.508C85.7565 119.402 94.3232 121.089 98.7667 126.569C102.333 130.964 102.963 137.524 107.7 140.998C110.283 142.965 113.097 144.609 116.08 145.89C116.814 146.187 125.485 148.445 125.473 147.928C125.564 151.899 127.822 153.924 126.67 152.933C132.21 163.756 137.576 164.727 147.54 159.238C151.121 157.265 154.724 155.188 157.542 152.225C162.201 147.321 168.246 134.043 163.127 128.939Z" fill="white"/>
    <path d="M121.155 92.3293C121.61 92.5195 119.959 96.4425 119.881 100.58C119.768 106.683 122.184 105.005 118.898 106.204C116.502 99.5975 120.623 92.1036 121.155 92.3293Z" fill="#20201E"/>
    <path d="M165.802 132.335C164.182 127.111 156.395 123.434 150.258 123.019C149.546 113.676 144.879 103.937 139.941 95.9693C133.148 84.8755 123.005 78.6693 110.233 76.4953C104.56 75.5134 97.9698 75.3869 93.8685 79.5047C92.9211 80.4224 92.1784 81.5302 91.6893 82.7552C91.2001 83.9802 90.9755 85.2948 91.0302 86.6127C83.9622 87.5172 77.9189 96.1376 85.2972 103.116C80.2995 105.04 81.6226 112.164 84.7293 116.596C87.8588 120.944 91.9784 120.31 97.0435 126.208C102.295 132.239 100.662 136.225 107.514 141.86C112.398 145.818 118.028 148.321 124.629 148.389C124.454 149.656 124.689 150.947 125.301 152.071C128.751 159.099 133.462 164.72 141.072 163.196C158.527 159.681 168.049 139.829 165.802 132.335ZM163.644 137.765C162.452 142.457 160.239 146.829 157.164 150.569C154.088 154.308 150.225 157.323 145.85 159.397C138.233 162.791 132.977 163.05 126.707 151.38C126.139 150.482 125.918 149.408 126.086 148.359C133.522 147.983 139.257 143.796 139.046 143.489C138.836 143.163 134.418 146.42 127.576 146.911C117.141 147.73 107.137 141.275 103.757 134.218C102.409 131.424 101.465 128.453 98.4531 124.993C93.3207 119.019 88.8899 119.199 86.249 115.522C83.5809 111.729 82.1304 105.239 87.0872 104.572C88.5632 105.62 94.2507 108.981 95.8177 109.9C97.9498 111.123 98.5477 110.163 96.5357 108.769C91.0602 105.018 88.9572 103.781 87.6468 102.736C79.981 96.6136 85.1734 89.1771 91.2559 87.8739C92.3934 92.9936 101.784 94.6325 111.124 100.871C110.128 102.09 109.286 103.427 108.617 104.852L110.3 105.64C113.228 99.38 117.724 96.9039 117.378 96.3424C117.175 95.992 114.588 97.2642 112.38 99.4773C106.665 95.6098 99.0937 92.6988 95.0742 90.077C91.7873 87.9031 92.4789 83.525 95.1852 80.8178C101.205 74.5943 117.48 79.1798 124.996 83.6388C133.111 88.4236 137.281 94.5588 141.483 102.051C145.487 109.201 150.44 120.95 148.991 128.987C147.922 134.72 144.077 138.692 144.328 138.901C144.543 139.083 149.793 133.56 150.3 127.314C150.343 126.794 150.365 125.335 150.336 124.443C154.38 124.937 158.196 126.59 161.321 129.204C164.299 131.796 164.52 133.944 163.64 137.765H163.644Z" fill="#20201E"/>
    <path d="M91.4043 161.689C88.1283 152.513 80.4188 153.836 83.1233 150.921C89.5907 143.947 86.6486 130.446 70.2349 123.348C72.8739 121.059 75.5393 118.733 77.4667 115.823C82.944 107.555 78.5778 99.4955 72.4162 99.551C73.0607 98.2283 73.3152 96.7494 73.1499 95.2873C72.9846 93.8252 72.4064 92.4404 71.483 91.2949C70.5595 90.1494 69.3289 89.2905 67.9352 88.8188C66.5415 88.347 65.0423 88.2819 63.6129 88.631C62.2542 88.9696 62.0258 88.5983 61.984 87.5936C61.8711 84.8782 59.3095 82.747 56.6295 82.2929C50.5635 81.2637 34.6266 88.4035 25.1381 105.862C23.9938 107.829 23.1491 109.955 22.6319 112.171C20.9448 120.512 28.0009 142.449 45.9279 157.428C40.9957 158.81 40.5862 168.687 43.2098 172.154C44.0859 173.219 45.1845 174.081 46.4284 174.678C53.6648 178.494 62.3853 177.621 70.4797 176.433C77.0263 175.473 90.3778 172.187 91.8393 165.695C92.0728 164.346 91.9221 162.958 91.4043 161.689Z" fill="white"/>
    <path d="M75.3113 142.044C75.6489 146.398 73.4913 149.272 73.2529 149.116C72.9307 148.908 74.7371 146.673 74.3849 142.116C74.08 138.172 72.3201 135.299 72.5931 135.164C72.827 135.02 75.001 138.035 75.3113 142.044Z" fill="#20201E"/>
    <path d="M92.6167 162.156C92.0007 159.898 90.8634 157.816 89.2962 156.077C87.729 154.339 85.7755 152.992 83.5931 152.146C91.2799 144.658 85.9809 128.747 71.3609 123.481C72.9134 122.35 74.3211 121.032 75.5523 119.557C85.0627 108.683 80.3498 99.9351 73.635 99.2935C75.2156 91.088 68.7746 86.0294 62.8451 87.9249C62.5229 83.6006 58.1395 80.8687 53.4038 81.3729C40.8768 82.727 24.4167 100.834 22.0361 111.72C19.8458 121.671 30.0532 146.761 44.7861 156.983C41.9233 158.948 40.551 161.497 40.5828 165.34C40.6848 169.604 41.9815 173.234 45.839 174.975C55.7407 179.511 70.1961 177.676 80.6201 174.987C88.2077 173.034 94.413 169.72 92.6167 162.156ZM86.6498 170.474C80.2898 173.917 59.4626 177.894 48.3943 173.75C45.617 172.628 43.6359 171.442 42.9552 167.884C41.815 162.307 43.5431 159.245 48.3006 156.879C51.8996 155.095 56.2667 154.322 56.2021 153.932C56.1448 153.588 50.2188 153.974 45.9382 156.291C31.8286 146.27 21.7413 121.521 23.8398 112.126C26.7836 98.7493 51.3218 75.8583 59.9713 85.1084C61.6757 86.903 61.6284 88.6775 60.5364 90.8587C58.5786 94.4667 55.8598 97.6059 52.5685 100.059L53.2755 101.023C57.042 98.3144 61.9087 93.0819 62.7395 89.268C67.2804 87.903 72.5239 91.1891 71.9733 97.7201C71.592 103.241 67.1221 107.244 63.3001 110.787L64.0627 111.708C68.0448 108.692 71.9606 105.247 73.352 100.479C74.8045 100.714 76.1393 101.42 77.1501 102.49C78.161 103.559 78.7917 104.931 78.9448 106.394C79.6528 111.84 75.6324 117.16 71.9251 121.211C70.5419 122.805 69.6965 122.762 69.7665 122.959C69.3834 122.843 65.4895 121.761 65.374 122.134C65.1064 123.022 76.3913 124.979 82.2017 133.85C85.9827 139.541 86.9282 147.301 81.4091 151.595C75.5159 150.536 63.4639 152.651 63.5058 153.004C63.5713 153.558 72.8023 153.013 76.3368 153.08C78.7616 153.016 81.1752 153.43 83.4402 154.298C89.3088 156.9 94.7533 166.177 86.6498 170.474Z" fill="#20201E"/>
    <path d="M120.243 133.747C121.49 132.648 122.325 131.155 122.609 129.516C125.117 119.441 120.822 109.764 118.431 102.469C116.485 96.5326 101.912 54.5061 100.748 51.8334C99.3162 48.5446 98.7829 45.2859 96.356 42.4049C94.5592 40.1837 92.0529 38.6484 89.258 38.0569C85.0137 37.2752 70.319 39.7777 65.2731 41.1372C52.5577 44.5643 39.602 45.2013 34.8946 47.9086C33.2713 48.9434 31.8973 50.325 30.8713 51.9539C29.8453 53.5828 29.1927 55.4187 28.9605 57.3298C28.2325 63 33.3439 76.0694 33.9282 79.3845C34.0801 80.2454 33.9482 81.0917 34.1102 81.9507C35.0274 86.7191 39.7039 93.3904 39.7039 96.3424C40.3136 98.4354 40.5702 100.552 41.4211 102.559C41.3974 102.493 41.4939 102.437 41.5567 102.468C41.9079 102.635 42.6541 106.909 43.9036 109.333C47.5008 116.312 47.529 118.276 49.2726 122.917C50.4128 125.958 51.917 128.858 52.949 131.937C53.6961 134.166 54.1929 136.487 55.1157 138.645C57.7692 144.865 61.7805 145.337 67.8775 144.596C79.9196 143.134 81.2691 143.171 83.5732 141.841C84.6761 142.414 84.1511 142.246 110.004 137.553C113.37 136.944 117.61 136.029 120.243 133.747Z" fill="#FFFCF1"/>
    <path d="M109.614 104.704C107.703 99.5602 111.358 107.616 101.293 81.6359C99.1471 76.0958 92.7343 56.4289 91.21 53.4395C90.8194 52.7843 90.5615 52.0586 90.4511 51.3038C90.2252 50.6389 89.8337 50.0426 89.3136 49.5708C88.7935 49.0991 88.1618 48.7676 87.4781 48.6074C86.1882 48.3855 84.8648 48.4567 83.6061 48.8158C48.1716 56.1513 47.2061 54.9128 44.0147 59.2945C42.1419 61.868 43.9101 61.4002 55.9858 99.9169C56.4053 101.255 57.3262 102.465 57.7985 103.814C58.7795 106.616 57.8631 105.172 61.6396 115.694C64.8828 124.734 63.6498 123.386 64.7491 125.453C65.3609 126.578 66.3394 127.46 67.5218 127.951C68.9143 128.451 70.4352 128.463 71.8352 127.985C75.8438 127.013 88.3272 125.346 88.7276 125.284C90.4274 125.037 90.4766 124.588 101.559 122.7C110.356 121.2 110.669 121.107 111.316 120.711C112.301 119.925 113.03 118.864 113.409 117.662C113.684 116.025 110.182 106.23 109.614 104.704Z" fill="white"/>
    <path d="M77.0087 56.2214C81.5724 54.9747 80.7334 55.7582 83.4597 55.2805C84.2551 55.1412 84.6427 54.4615 86.5792 55.7427C88.5694 57.0522 90.8316 67.5818 93.9748 74.9055C94.5708 76.2942 94.7674 77.6674 95.2679 79.0915C97.8332 86.3979 99.1263 88.3735 98.8842 90.0279C98.4456 93.0309 95.1532 92.9199 92.5452 93.6907C88.1217 94.9992 83.4142 95.1721 79.0235 96.5881C78.7973 96.6158 78.5697 96.6295 78.3419 96.629C77.7959 96.72 71.0364 98.5792 64.7947 99.5811C60.8635 100.213 59.5495 93.2939 58.1845 88.419C57.684 86.6281 51.344 70.5093 51.2157 68.6465C51.0792 68.4491 50.6952 68.6638 50.7916 68.8831C50.8881 69.1025 51.3058 68.9641 51.2521 68.7303C50.6924 66.3169 49.504 64.9438 50.6797 62.7579C52.3177 59.7131 55.4781 60.8051 66.4072 58.3799C72.9356 56.933 73.5344 57.1696 77.0087 56.2214Z" fill="#F8D348"/>
    <path d="M98.5142 97.9458C99.2795 98.9468 101.74 97.4298 103.708 103.492C109.33 120.817 108.873 113.664 73.8996 122.011C72.0596 122.45 70.6054 122.477 69.2431 120.538C68.1984 119.053 66.6705 113.819 66.0426 111.74C63.1397 102.123 70.0567 104.551 78.1948 102.217C78.2385 102.205 96.1072 98.3799 98.5142 97.9458Z" fill="#F8D348"/>
    <path d="M60.406 97.3397L49.6862 65.851C49.5145 65.3085 49.4583 64.7361 49.5209 64.1706C49.5836 63.605 49.7638 63.0588 50.05 62.5671C50.3362 62.0753 50.7221 61.6488 51.1828 61.3149C51.6436 60.9811 52.1691 60.7473 52.7256 60.6285L83.5819 54.5825C84.5482 54.3796 85.5552 54.5337 86.4167 55.0162C87.2781 55.4987 87.9356 56.277 88.2674 57.2069C100.204 91.1936 99.8299 89.3927 98.6897 91.4229C97.443 93.6479 98.1637 93.0509 65.1462 100.106C64.1532 100.322 63.1155 100.157 62.2379 99.6451C61.3603 99.1329 60.7067 98.3103 60.406 97.3397ZM50.851 63.0327C49.8218 64.7945 50.214 63.2038 61.2905 97.054C61.5243 97.8027 62.0284 98.4376 62.7046 98.8349C63.3809 99.2323 64.1809 99.3636 64.9487 99.2034L95.774 92.5186C96.2137 92.4258 96.6285 92.2402 96.9906 91.9742C97.3527 91.7081 97.6537 91.3677 97.8735 90.9758C98.0934 90.5839 98.2269 90.1495 98.2651 89.7018C98.3034 89.2541 98.2456 88.8034 98.0954 88.3799C90.7827 67.6128 106.222 111.139 87.3857 57.5118C87.1267 56.7951 86.6177 56.196 85.9523 55.8245C85.2869 55.453 84.5098 55.3342 83.7639 55.4898C50.8937 62.2056 51.8702 61.2846 50.8501 63.03L50.851 63.0327Z" fill="#20201E"/>
    <path d="M90.4148 50.1044C89.293 49.0064 87.7979 48.3726 86.2288 48.3299C85.3807 48.3026 87.6211 47.7156 49.058 55.3878C47.715 55.5115 46.4299 55.9936 45.337 56.7838C44.5143 57.425 43.8736 58.2701 43.4783 59.2354C43.0831 60.2007 42.9471 61.2525 43.0839 62.2865C43.2113 63.2794 63.9374 125.052 64.2022 125.532C64.8758 126.899 66.0454 127.958 67.4728 128.494C69.4566 129.243 70.7351 128.788 72.9328 128.391C104.419 122.685 117.099 119.774 86.4654 125.059C68.8769 128.094 69.574 128.223 67.8368 127.554C65.7592 126.753 65.155 125.279 64.6718 123.823C44.5317 63.0628 44.2978 63.1865 44.1659 62.1337C44.057 61.2905 44.1696 60.4335 44.4928 59.6471C44.8159 58.8608 45.3383 58.1722 46.0086 57.6492C47.4082 56.5899 45.0504 57.2761 82.607 50.0052C84.6499 49.6102 86.6028 48.9778 88.2217 49.8878C90.1172 50.9543 89.4529 50.2236 92.0309 57.2706C115.058 120.213 113.533 116.785 112.796 118.464C111.753 120.845 109.626 120.907 108.538 121.169C97.4209 123.85 110.159 121.437 111.144 120.962C112.184 120.439 112.996 119.553 113.428 118.472C113.86 117.391 113.881 116.189 113.487 115.093C105.486 91.6222 90.9944 50.8797 90.4148 50.1044Z" fill="#20201E"/>
    <path d="M72.4898 122.696C71.5011 122.696 70.5392 122.375 69.748 121.782C68.9568 121.189 68.3789 120.356 68.1009 119.407L64.965 109.611C64.7686 109.005 64.7021 108.364 64.7698 107.73C64.8375 107.096 65.0378 106.483 65.3578 105.932C65.6778 105.38 66.1103 104.903 66.6271 104.529C67.1439 104.156 67.7334 103.896 68.3575 103.765L97.816 97.8011C98.9188 97.5881 100.061 97.7822 101.032 98.3475C102.003 98.9127 102.735 99.8108 103.094 100.875C104.782 105.718 104.063 103.432 106.679 111.027C106.884 111.623 106.961 112.255 106.903 112.883C106.845 113.51 106.655 114.118 106.345 114.666C106.034 115.214 105.611 115.691 105.103 116.063C104.595 116.436 104.014 116.696 103.398 116.827C99.9581 117.558 73.4089 122.696 72.4898 122.696ZM98.7205 98.6438C98.1818 98.6438 100.194 98.308 68.5413 104.679C68.0448 104.784 67.5759 104.992 67.1652 105.29C66.7545 105.588 66.4112 105.97 66.1576 106.409C65.904 106.849 65.7459 107.337 65.6934 107.842C65.641 108.346 65.6954 108.857 65.8532 109.339L68.9881 119.135C69.2497 120.02 69.835 120.775 70.6276 121.248C71.4201 121.721 72.3618 121.878 73.2651 121.689C103.319 115.707 97.9734 117.032 103.204 115.921C103.691 115.817 104.151 115.611 104.553 115.316C104.955 115.022 105.29 114.645 105.535 114.211C105.78 113.778 105.931 113.297 105.976 112.8C106.022 112.304 105.962 111.804 105.799 111.333C103.177 103.72 103.908 106.038 102.216 101.184C101.97 100.449 101.501 99.8103 100.874 99.3551C100.248 98.8999 99.4949 98.6512 98.7205 98.6438Z" fill="#20201E"/>
    <path d="M124.421 120.335C123.542 111.152 116.742 96.3706 102.388 53.8982C99.8723 46.4735 98.0105 42.0063 93.6015 38.9933C88.2698 35.3278 83.5769 36.6955 42.7607 45.0784C38.6957 45.912 35.8156 46.2187 32.4158 49.1316C30.9164 50.3535 29.7517 51.9359 29.0306 53.7307C27.5664 58.47 29.1171 65.7709 30.3256 70.5657C32.92 80.7068 50.2882 128.608 55.0876 140.561C55.8866 142.378 57.2419 143.893 58.9581 144.89C60.6743 145.886 62.6626 146.312 64.6362 146.105C71.0062 145.28 113.641 137.946 114.024 137.843C120.651 136.173 125.381 130.053 124.421 120.335ZM37.8349 48.1961C39.8169 46.8238 38.8959 47.2443 54.0019 44.1721C59.7586 43.0027 84.9792 37.2279 90.4675 38.8632C92.9051 40.0594 95.0039 41.8477 96.5717 44.0647C99.3299 48.3235 102.448 59.5993 104.417 65.063C117.242 101.202 126.923 125.619 121.188 127.255C110.279 129.465 78.5164 135.278 67.5791 136.802C61.2273 137.712 60.4011 133.257 58.9842 129.496C55.8975 121.312 33.1921 62.6769 34.5125 53.8954C34.5984 52.7558 34.9421 51.6507 35.5177 50.6634C36.0932 49.676 36.8856 48.8324 37.8349 48.1961ZM106.165 137.352C61.12 145.162 62.9081 145.259 59.8214 143.473C56.7601 141.736 56.3161 139.185 54.6289 134.803C29.6522 68.9523 23.4842 53.9491 36.5654 48.0796C30.3356 53.3194 34.5634 63.3458 44.0029 91.2737C50.5922 110.276 59.4419 133.658 60.3228 134.885C61.1049 136.078 62.2229 137.014 63.536 137.573C64.849 138.133 66.2983 138.291 67.7011 138.028C76.4607 136.775 121.868 127.97 121.96 127.952C119.218 136.556 111.802 136.336 106.165 137.352Z" fill="#20201E"/>
    <path d="M55.5328 77.0704C56.2344 78.9641 57.0425 81.2346 59.2028 81.8643C59.8174 82.0362 60.4661 82.046 61.0857 81.8928C61.7052 81.7395 62.2745 81.4284 62.7382 80.9898C63.154 86.2168 63.1022 86.8265 63.5863 87.5236C63.7535 87.7947 64.0172 87.9924 64.3244 88.0768C64.6315 88.1612 64.9593 88.1261 65.2416 87.9786C63.5817 89.1416 61.5879 95.7209 62.6745 98.7694C62.9983 99.0048 63.3702 99.1657 63.7635 99.2404C64.1568 99.3152 64.5618 99.3019 64.9495 99.2016C98.5794 92.0217 96.1879 92.535 96.9323 92.0126C96.6366 89.5729 95.0213 86.8747 91.3358 84.901C90.303 84.3468 92.1712 83.9054 90.4331 80.0998C90.0031 79.1057 89.5129 78.1387 88.9653 77.2042C88.0616 75.7318 89.1846 75.8683 89.5431 74.9956C89.7585 74.3406 89.7224 73.6289 89.4418 72.9991C89.1612 72.3693 88.6562 71.8665 88.0252 71.5886C89.2738 70.1917 90.6733 69.876 89.9644 66.8466C89.2628 63.8518 87.3409 61.6341 84.3388 62.7852C83.9284 61.3948 82.4924 60.6331 81.3276 59.7713C81.011 59.5356 81.0009 59.4128 81.081 59.0433C81.317 58.0457 81.1946 56.9968 80.7352 56.0804C80.1492 56.195 80.3184 56.3333 80.1592 55.5216C79.3184 55.0666 78.8024 55.5216 78.361 56.3097C76.1243 60.2946 77.9306 57.4617 77.1143 55.4379C77.0754 55.3042 77.0091 55.18 76.9194 55.0734C76.8298 54.9668 76.719 54.88 76.5939 54.8187C76.4689 54.7574 76.3324 54.7228 76.1932 54.7173C76.0541 54.7117 75.9153 54.7352 75.7857 54.7863C73.6927 55.2304 73.2277 57.3343 67.7186 61.2728C64.3725 63.6652 58.8561 65.3915 59.7015 71.1873C57.1735 70.6567 54.1396 73.3094 55.5328 77.0704Z" fill="white"/>
    <path d="M86.1232 89.8104C84.4115 90.6121 83.4943 91.857 80.7178 92.4176C78.2954 92.9072 76.753 92.2165 74.6545 92.4176C70.7861 92.7934 70.5195 96.9002 70.9144 96.7856C71.0646 96.7919 71.1874 93.3858 74.7173 93.0327C76.6429 92.8398 78.3792 93.5205 80.838 93.0209C85.2751 92.1191 86.8958 88.1424 90.0235 91.0571C90.8052 91.7851 91.1665 92.3866 91.2511 92.3311C91.4549 92.231 89.4529 88.2498 86.1232 89.8104Z" fill="#20201E"/>
    <path d="M91.3947 84.4605C91.9507 81.6314 90.5621 78.5574 88.9123 76.2214C89.3317 75.9712 89.6728 75.6087 89.8971 75.1748C90.1214 74.741 90.2198 74.253 90.1814 73.7661C90.143 73.2792 89.9692 72.8128 89.6796 72.4195C89.3901 72.0262 88.9963 71.7217 88.5428 71.5404C92.7807 68.9924 89.1652 60.2727 84.6835 62.4304C84.1121 61.5552 83.4025 60.7785 82.5823 60.1308C81.2946 59.138 81.4976 59.7995 81.5294 58.5028C81.615 54.9538 79.0943 53.5087 77.6273 57.0641C77.6253 56.5436 77.5667 56.0249 77.4526 55.5171C77.4037 55.2858 77.3038 55.0684 77.1602 54.8807C77.0166 54.6929 76.8329 54.5396 76.6225 54.4318C76.4122 54.3241 76.1804 54.2646 75.9441 54.2578C75.7079 54.2509 75.473 54.2969 75.2568 54.3923C73.9773 54.8473 73.1729 55.9675 72.2019 56.8648C67.0914 61.5913 63.3695 63.3258 61.7369 64.6389C60.7843 65.3515 60.0507 66.3172 59.6198 67.4261C59.1888 68.535 59.0777 69.7426 59.299 70.9116C55.8829 70.6158 52.4158 74.2558 56.4553 80.2345C58.3153 82.9445 61.0371 83.0127 62.3703 81.6723C62.558 83.2428 62.6555 84.8227 62.6624 86.4043C62.6766 86.8947 62.8703 87.3628 63.2068 87.7198C63.5433 88.0767 63.9992 88.2977 64.4879 88.3408C64.7845 88.3535 64.5652 88.1852 63.7599 89.5838C61.7023 93.0719 62.2056 96.721 62.4859 96.7009C62.899 96.6718 62.4176 91.847 66.1477 87.9376C66.4607 91.7533 70.2718 92.059 71.1791 87.0349C71.7643 88.1802 72.7745 89.0509 73.9936 89.4608C75.2126 89.8707 76.5437 89.7871 77.702 89.228C82.8826 92.13 89.5975 89.592 91.17 85.2886C94.5724 86.6063 96.2259 90.7341 96.4534 90.674C97.0185 90.563 95.234 85.6308 91.3947 84.4605ZM87.7884 71.2355C86.8702 70.9234 87.0076 70.9989 86.9767 70.7059C88.6948 69.7431 88.7803 66.2633 86.4361 66.114C85.9811 66.114 86.235 66.3224 85.8474 65.022C85.9673 64.9248 86.1087 64.8575 86.2599 64.8259C86.411 64.7942 86.5675 64.7991 86.7164 64.84C86.9894 64.8992 87.1341 65.0011 87.1587 64.9683C87.2679 64.8682 86.4207 64.274 85.7373 64.6744C85.5547 64.0924 85.3141 63.5303 85.0193 62.9964C88.7849 61.8279 91.3902 69.137 87.7884 71.2355ZM86.9093 70.189C86.7592 69.1816 86.4443 67.5982 86.235 66.59C88.045 66.5772 88.0687 69.1207 86.9093 70.189ZM84.8236 64.6435C85.4433 66.1905 86.074 69.1734 86.7346 70.8424C84.9483 70.0625 85.8901 69.3464 84.678 68.5392C84.8218 67.0213 83.768 64.8273 83.1665 63.8845C84.5952 63.9673 84.1748 63.0073 84.8236 64.6435ZM60.4465 67.8858C61.5749 64.7627 64.2804 64.8828 70.7514 59.4028C73.778 56.8493 75.2268 54.5325 76.3088 55.1349C77.8912 55.8001 76.1986 63.3922 77.3098 59.552C77.7311 58.0696 77.2115 58.551 78.4827 56.6082C79.4837 55.1012 80.7659 55.6745 80.6349 58.4764C80.5748 59.7504 80.3947 59.7413 81.0744 60.2191C82.2825 60.9668 83.3084 61.9747 84.0774 63.1693C83.637 63.2584 83.189 63.3044 82.7397 63.3067C80.29 60.5012 77.7193 63.2512 75.427 64.1493C71.9917 65.5244 68.4646 65.7482 67.1578 67.5354C65.0772 69.1036 62.7547 70.3217 60.2818 71.1418C60.0392 70.0617 60.0961 68.9359 60.4465 67.8858ZM60.5676 75.0748C60.9871 76.266 61.3811 77.4726 61.7114 78.6893C61.5076 78.8493 61.2677 78.9571 61.0127 79.0032C60.7576 79.0494 60.4952 79.0325 60.2482 78.9541C58.7057 78.46 58.5319 75.4779 60.5676 75.0748ZM62.2192 80.8779C61.8094 81.3411 61.2493 81.6448 60.6375 81.7355C60.0257 81.8263 59.4016 81.6982 58.875 81.3738C57.5746 80.6731 56.6973 79.0424 55.9766 77.3234C54.4979 73.7043 56.9421 71.4312 59.4283 71.5758C60.2254 75.0712 60.9452 73.9992 59.0269 74.2067C56.8784 74.4114 57.0613 76.6354 57.3061 76.5344C57.4281 76.5444 56.8238 74.335 60.0407 74.6353C60.1171 74.6425 60.1572 74.7008 60.0944 74.689C58.0969 75.1039 57.965 78.7749 60.0944 79.4373C60.387 79.5259 60.6957 79.5479 60.9979 79.5016C61.3 79.4553 61.588 79.3419 61.8407 79.1698C62.0056 79.7289 62.1321 80.2987 62.2192 80.8751V80.8779ZM60.3874 71.5959C61.6697 71.2651 62.9131 70.7987 64.0966 70.2045C67.459 68.5037 66.5536 67.7475 66.4334 69.8587C66.3579 71.8161 66.6355 74.3177 67.9213 75.8046C66.5869 77.6234 64.9566 79.2051 63.0983 80.4838C62.282 76.4844 60.8788 73.5615 60.3874 71.5922V71.5959ZM77.1523 87.9158C70.4893 82.8835 75.315 76.0667 75.0357 75.8974C74.2268 76.9492 73.6482 78.1594 73.3373 79.4493C73.0264 80.7392 72.9902 82.0801 73.2311 83.3849C73.7347 85.5368 75.0175 87.4259 76.832 88.6875C76.2372 88.8457 75.6165 88.8815 75.0075 88.7927C74.3985 88.7038 73.8139 88.4922 73.2891 88.1706C72.7643 87.8491 72.3103 87.4242 71.9547 86.922C71.599 86.4197 71.3491 85.8504 71.22 85.2486C70.9825 83.9983 70.887 85.8592 70.5284 86.9721C70.2445 87.8203 69.5511 89.4874 68.7221 89.8159C67.8321 90.1699 67.2097 89.1197 67.0723 88.1506C66.6173 85.2286 67.0231 87.0586 67.5536 84.2904C67.6756 83.5869 67.6365 83.1884 67.5782 83.1829C67.52 83.1774 67.4262 83.5533 67.2033 84.2012C66.9579 85.0334 66.5612 85.8133 66.033 86.5017V86.5226C64.8728 88.0887 63.6416 87.7702 63.5023 86.2896C63.5662 84.5073 63.4602 82.7229 63.1856 80.9607C65.2614 79.8202 67.0095 78.1657 68.2625 76.1559C68.8441 76.7082 69.5923 77.0522 70.3901 77.1341C71.6787 77.216 72.3466 76.3151 73.2029 75.5416C73.4823 75.2823 73.7826 75.0402 74.0483 74.7517C74.1148 74.9809 74.2329 75.1918 74.3935 75.3683C74.554 75.5448 74.7528 75.6822 74.9747 75.77C76.5463 76.3315 77.9613 75.2495 78.6911 75.0803C79.8041 74.8236 80.4138 75.9748 80.5375 75.8729C80.4277 75.4575 80.1707 75.0961 79.8143 74.8562C79.4578 74.6163 79.0263 74.5142 78.6001 74.5688C77.7884 74.6671 76.3688 75.5507 75.2777 75.0612C75.041 74.9052 74.8714 74.666 74.8025 74.3911C74.7336 74.1161 74.7703 73.8252 74.9055 73.576C75.3906 72.2429 77.4808 71.3784 78.7648 70.634C80.3674 69.7049 81.9353 68.9259 83.4304 69.0369C84.1693 69.0433 84.6271 69.3955 84.7044 69.9633C84.8919 71.3511 83.4959 71.9844 82.9144 72.5177C82.743 72.6527 82.606 72.8264 82.5146 73.0245C82.4231 73.2227 82.3798 73.4396 82.3883 73.6577C82.3967 73.8757 82.4566 74.0886 82.5631 74.2791C82.6695 74.4696 82.8196 74.6322 83.0009 74.7536C83.0828 74.7163 82.8189 74.3677 82.7552 73.7653C82.6587 72.5778 85.174 72.5941 85.4561 70.381C86.3424 72.0108 90.1226 71.928 89.2462 74.5006C88.5837 76.4398 77.3425 80.128 76.1877 84.7527C76.0549 85.2823 76.0057 85.2531 76.3452 84.7936C78.0669 82.464 76.4962 84.2003 80.057 86.0776C84.9938 88.6702 90.4693 84.9028 87.3179 79.6303C87.6023 79.4022 87.8241 79.1058 87.9627 78.7688C88.1013 78.4317 88.1522 78.065 88.1105 77.7029C88.086 76.6282 87.8594 76.9121 88.2398 76.6791C95.5944 87.5163 83.748 92.2938 77.1523 87.9158ZM86.7492 84.4396C85.376 86.1986 82.9272 86.3397 80.8597 85.5134C82.0099 83.6816 85.9511 83.1793 86.7492 84.4396ZM80.9406 80.7596C82.0954 80.0316 83.0573 79.5029 84.2549 78.8704C84.8009 79.6566 84.1047 80.9516 83.3048 81.2746C82.9019 81.4178 82.467 81.4455 82.0492 81.3544C81.6315 81.2634 81.2475 81.0574 80.9406 80.7596ZM84.7963 78.5847C85.7418 78.0869 86.6873 77.5909 87.6173 77.0504C87.8949 79.6612 85.9502 80.1553 84.7963 78.5847ZM78.1433 83.6461C77.995 83.4887 77.8594 83.3321 77.7375 83.1783C78.546 82.4139 79.426 81.7289 80.3655 81.1327C80.566 81.4525 80.6575 81.8286 80.6266 82.2048C80.5956 82.581 80.4438 82.9371 80.1938 83.2199C79.9438 83.5027 79.609 83.697 79.2394 83.7738C78.8698 83.8506 78.4853 83.8058 78.1433 83.6461Z" fill="#20201E"/>
    <path d="M27.4537 85.3487C29.7177 85.5188 39.655 79.2338 40.3746 77.0805C43.687 67.1678 34.9508 48.5639 23.5444 52.0181C20.4473 53.187 17.6717 55.0738 15.4454 57.5236C12.9256 60.5366 12.8974 62.9763 13.3933 66.0412C14.1098 70.5851 15.7718 74.9281 18.2718 78.7894C19.8962 81.008 23.9757 85.0912 27.4537 85.3487Z" fill="#FFFCF1"/>
    <path fill-rule="evenodd" clip-rule="evenodd" d="M27.0512 63.5589L31.043 66.0004L29.6025 66.3719L31.0401 70.4931L29.5996 70.8646L27.0512 63.5589ZM35.0158 69.4678L31.024 67.0262L32.4645 66.6547L31.0269 62.5336L32.4673 62.1621L35.0158 69.4678Z" fill="#20201E"/>
    <path d="M23.6703 69.41C17.6325 55.3742 28.6143 48.0196 35.5231 61.3857C35.9425 62.0789 36.2496 62.8341 36.4331 63.6233C36.3657 63.6534 36.0081 62.8726 35.2073 61.5622C29.6044 52.3885 23.4683 54.0365 22.9123 60.4311C22.3581 66.7847 27.9227 78.9113 34.1471 77.9376C36.4476 77.5736 37.3549 75.2723 37.7143 72.9872C38.5697 67.5591 36.3548 64.4332 36.7188 64.2922C37.1295 64.9887 37.4598 65.7297 37.7034 66.5008C41.8685 79.501 30.3297 84.891 23.6703 69.41Z" fill="#20201E"/>
    <path d="M41.6283 69.4956C40.2269 58.9951 32.8013 48.4746 23.0815 51.3738C19.5799 52.4203 14.017 56.3297 12.8959 59.8095C9.68634 69.2508 21.6638 91.0535 32.6011 84.8409C37.7517 81.9953 43.0624 80.6358 41.6283 69.4956ZM20.6 54.0738C22.7903 52.8471 19.2432 54.2167 19.053 60.6258C18.7017 60.8214 19.4379 60.3528 13.7204 64.2139C13.5593 60.6695 14.3901 57.6555 20.6 54.0738ZM13.8323 65.5534C15.8097 63.3531 16.3612 62.9144 19.0521 61.9134C19.1098 63.9351 19.4123 65.9423 19.953 67.8912C19.235 68.3399 18.254 69.1316 17.4414 69.7185C17.3504 69.7185 15.2874 71.0944 15.1964 71.1572C14.534 69.346 14.0765 67.4664 13.8323 65.5534ZM19.3132 78.9741C17.8087 76.908 16.5688 74.6616 15.6223 72.2874C17.3895 70.2463 17.738 69.9214 20.2878 69.0114C20.9872 71.2132 22.0041 73.3012 23.3063 75.2094C21.5919 77.448 22.0505 77.6073 19.3087 78.9741H19.3132ZM20.0012 79.8359C20.9612 78.9586 21.6865 78.0987 21.7784 78.0987C22.5137 77.4753 23.5147 76.7537 24.0534 76.2177C25.3713 77.9272 27.0196 79.3541 28.9001 80.4137C27.1392 82.7797 27.0965 82.706 24.5639 83.6406C22.8243 82.6585 21.2769 81.3695 19.9966 79.8359H20.0012ZM31.9613 83.6897C31.0463 84.2337 30.0198 84.5629 28.9591 84.6524C27.8984 84.742 26.8312 84.5895 25.8379 84.2066C26.3521 83.8099 26.9236 83.3221 27.4177 82.9326C30.3479 80.8742 30.084 81.0799 29.8811 80.9024C35.321 83.3421 37.8272 80.1098 31.9568 83.6897H31.9613ZM31.0814 80.4811C20.2706 76.5308 16.4449 57.0431 23.4082 52.8526C39.9311 47.9923 47.788 87.1996 31.0768 80.4811H31.0814Z" fill="#20201E"/>
    <path d="M149.405 111.281C154.254 106.425 156.255 102.371 152.922 96.882C150.933 93.606 149.163 90.0288 145.733 88.3208C140.916 85.9229 135.105 83.5278 130.288 86.6973C128.096 88.1378 120.86 96.1249 123.798 101.828C125.585 105.297 127.402 108.481 130.237 111.162C133.996 114.716 138.882 116.792 143.978 116.167C147.833 115.688 148.067 112.62 149.405 111.281Z" fill="#FFFCF1"/>
    <path fill-rule="evenodd" clip-rule="evenodd" d="M135.787 96.2688L140.973 96.8036L139.704 97.8696L143.13 101.321L141.861 102.387L135.787 96.2688ZM146.633 98.3786L141.447 97.8438L142.716 96.7778L139.29 93.3268L140.559 92.2608L146.633 98.3786Z" fill="#20201E"/>
    <path d="M155.064 100.779C152.365 87.6019 134.225 77.8412 125.607 90.2054C119.193 99.3199 123.001 104.219 130.612 112.123C132.184 113.612 134.031 114.783 136.049 115.57C138.773 116.642 141.691 117.135 144.616 117.016C147.477 116.693 148.529 114.488 151.502 110.373C153.972 106.925 155.894 104.846 155.064 100.779ZM152.487 97.9686C154.512 102.389 153.927 104.339 151.965 107.196C144.799 116.213 130.37 104.028 127.879 96.1686C123.865 83.2066 144.976 81.5067 152.483 97.9686H152.487ZM127.056 90.5976C126.363 92.9576 126.539 95.4875 127.551 97.7292C126.215 100.782 126.59 100.264 124.457 102.422C122.592 98.2352 124.287 94.244 127.051 90.5967L127.056 90.5976ZM125.035 103.58C125.408 102.986 126.353 101.157 126.616 100.893C127.078 100.288 127.697 99.5966 128.157 99.0069C129.022 100.594 130.074 102.071 131.292 103.407C130.109 105.191 131.14 104.76 128.107 107.963C126.948 106.6 125.919 105.133 125.034 103.579L125.035 103.58ZM128.871 108.863C129.019 108.601 129.998 106.652 130.217 106.433C130.78 105.668 131.664 104.861 132.143 104.315C133.605 105.8 135.213 107.135 136.943 108.298C135.951 110.993 135.971 110.953 133.722 113.093C131.915 111.916 130.28 110.492 128.867 108.862L128.871 108.863ZM134.765 113.672C135.51 112.549 136.147 111.215 136.239 111.215C136.758 110.468 137.469 109.594 137.917 108.924C139.556 110.021 141.398 110.779 143.335 111.153C142.274 113.623 142.618 113.099 140.713 115.498C138.642 115.219 136.631 114.602 134.761 113.671L134.765 113.672ZM148.481 112.125C146.082 115.5 145.767 115.965 141.866 115.63C143.128 112.602 143.059 113.493 144.605 111.298C149.817 111.583 151.606 107.696 148.476 112.121L148.481 112.125Z" fill="#20201E"/>
    <path d="M135.135 103.537C128.091 97.5072 127.811 89.5229 132.578 88.0823C138.963 85.6818 145.773 91.9225 145.602 92.1155C145.431 92.3084 138.881 86.3943 132.849 88.804C127.789 90.3146 129.783 100.698 140.902 106.441C147.892 110.051 155.462 105.141 147.705 94.5552C146.76 93.2666 146.099 92.6578 146.151 92.6023C146.444 92.2383 153.56 99.7913 151.113 105.226C150.408 106.478 149.305 107.459 147.979 108.011C143.301 109.655 139 106.847 135.135 103.537Z" fill="#20201E"/>
    <path d="M38.2253 134.332C37.9441 131.771 37.1023 119.408 37.9705 117.497C38.8004 115.669 45.103 111.775 47.6938 107.112C48.9178 104.91 49.9561 100.985 53.0555 100.077C56.3679 99.107 58.9805 101.988 60.9935 104.536C62.4404 106.093 63.3356 108.082 63.5414 110.197C64.688 117.15 64.6608 119.884 59.6958 129.653C68.3763 134.557 72.1764 144.017 71.7005 144.395C71.6095 144.468 71.4703 144.272 71.5849 144.254C72.2672 145.363 72.7627 146.577 73.0519 147.847C73.4559 149.628 72.5423 150.184 70.6804 150.036C66.8511 149.731 56.5426 148.912 52.9855 147.567C49.1289 146.113 38.6748 138.411 38.2253 134.332Z" fill="white"/>
    <path d="M60.775 129.364C67.5708 118.005 65.9856 103.496 57.2596 100.086C55.6638 99.3894 53.8867 99.2226 52.1891 99.6102C47.8484 100.805 49.3044 105.275 43.3421 110.959C41.4575 112.752 39.8104 113.531 38.6001 115.164C38.3362 115.51 38.5937 115.45 38.0368 114.319C37.3236 112.884 36.1866 111.705 34.7799 110.939C33.0127 109.961 30.7422 109.799 30.7077 110.152C30.6485 110.477 34.8427 111.288 36.4579 115.049C37.126 116.893 37.4331 118.848 37.3625 120.808C37.6446 135.972 38.3116 134.974 38.8567 118.401C39.4027 115.172 41.8215 114.736 44.5078 112.213C51.7396 105.612 49.1661 99.4546 56.1021 101.622C65.2103 105.301 64.6707 118.887 59.4072 128.022C58.8785 125.679 57.0321 124.193 56.811 124.453C56.5917 124.682 57.5936 125.792 58.6128 128.227C57.7938 127.847 53.6005 126.196 53.4313 126.715C53.1583 127.479 65.1557 131.223 70.5793 142.653C71.8624 144.982 72.9826 148.96 73.3384 148.895C74.0682 148.785 72.7997 136.38 60.775 129.364Z" fill="#20201E"/>
    <path d="M134.736 141.771C131.387 144.529 118.208 138.532 115.824 126.66C98.1634 125.441 92.3331 109.042 100.482 104.975C103.155 103.641 106.047 104.561 108.796 105.106C116.296 106.593 119.449 105.457 123.441 107.454C125.374 108.808 126.318 111.154 127.864 112.938C129.255 114.341 130.773 115.611 132.399 116.732C135.884 119.494 142.741 132.077 134.603 141.928C134.458 141.526 134.579 142.169 134.736 141.771Z" fill="white"/>
    <path d="M128.836 112.749C124.993 108.35 124.888 105.439 117.715 105.036C114.562 105.019 111.419 104.692 108.33 104.058C104.963 103.371 101.204 102.663 98.3413 105.142C92.3016 110.428 98.2849 126.448 115.238 127.132C116.13 131.04 118.102 134.619 120.93 137.46C125.791 142.364 132.074 142.92 132.161 142.374C132.308 141.598 120.613 139.486 117.289 127.662C119.584 129.344 122.573 128.785 122.458 128.39C122.4 128.009 120.638 128.352 117.897 127.103C120.382 126.95 121.81 126.522 121.787 126.338C121.731 125.846 116.177 126.492 110.412 124.708C98.1265 120.952 95.8515 109.804 99.5689 106.546C101.802 104.589 105.257 105.324 107.959 105.884C116.575 107.71 120.545 105.745 123.826 109.132C125.077 110.406 125.743 111.637 127.894 113.666C130.498 116.096 132.497 117.057 132.62 116.866C132.783 116.632 131.085 115.301 128.836 112.749Z" fill="#20201E"/>
    <path d="M85.306 16.5388C86.6213 16.8565 87.8668 17.4183 89.0148 18.1346C94.5617 21.596 95.5443 24.7515 94.0826 32.2047C93.3978 35.5283 91.9094 38.6337 89.7476 41.2496C87.5858 43.8654 84.8163 45.912 81.6811 47.2106C80.6668 47.6849 79.567 47.9491 78.4479 47.9874C77.3289 48.0258 76.2136 47.8373 75.1692 47.4335C64.3111 44.1084 62.9861 38.5747 66.374 28.7376C68.8711 21.4967 76.3813 16.2615 80.2615 15.9293C81.9634 15.9352 83.6563 16.1403 85.306 16.5388Z" fill="#FFFCF1"/>
    <path fill-rule="evenodd" clip-rule="evenodd" d="M76.391 25.436L77.1209 30.058L75.904 29.2023L73.6991 32.9692L72.4822 32.1135L76.391 25.436ZM77.0577 35.3307L76.3278 30.7087L77.5447 31.5643L79.7496 27.7975L80.9665 28.6532L77.0577 35.3307Z" fill="#20201E"/>
    <path d="M95.4678 25.1449C93.5222 18.5256 83.3994 10.2846 73.0227 18.531C65.9747 24.2413 60.1671 38.3353 67.0667 44.0283C69.5956 46.0612 75.5525 48.9132 78.2761 48.8877C88.1387 48.8358 97.3752 33.5369 95.4678 25.1449ZM94.1347 26.8639C92.8124 26.1486 92.1536 25.8884 92.0608 25.7955C91.1608 25.2659 90.0588 24.5407 89.2898 24.1803C89.3557 22.9917 89.18 21.8022 88.7733 20.6834C88.3667 19.5647 87.7375 18.5399 86.9238 17.6711C90.2772 19.3282 94.1847 23.1939 94.1347 26.8639ZM66.7027 41.7915C63.9345 37.3908 65.4615 31.1755 67.7383 26.7583C71.9543 18.5783 80.5192 14.254 85.3477 17.3708C95.1457 23.5879 78.5455 54.8873 66.7027 41.7915ZM72.5149 45.6354C74.7211 45.7738 76.9119 45.1846 78.7511 43.9582C79.9747 44.7816 81.2421 45.538 82.5476 46.2241C78.6892 48.1233 76.4397 47.4563 72.5167 45.6354H72.5149ZM83.7852 45.5444C81.6649 45.1676 81.0962 45.0357 79.7239 43.253C81.1648 42.0676 82.4521 40.7069 83.5559 39.2026C85.9028 40.4056 84.7862 39.2071 88.0677 41.8525C86.8341 43.2899 85.391 44.5332 83.7871 45.5407L83.7852 45.5444ZM88.8157 40.9498C84.8954 39.2071 87.2287 40.3983 84.2657 38.2079C85.5455 36.3417 86.6235 34.3449 87.4817 32.2511C91.0361 33.9537 89.3244 32.8562 92.2473 35.1858C91.351 37.2441 90.1979 39.1808 88.8157 40.9498ZM92.6887 34.1248C88.8667 32.4076 90.1625 32.7243 87.9266 31.1127C88.6139 29.2708 89.0548 27.3462 89.238 25.3888C91.7532 26.0121 92.2018 26.3425 94.1028 28.1907C93.9201 30.2267 93.4431 32.2256 92.6869 34.1248H92.6887Z" fill="#20201E"/>
    <path d="M83.3853 34.2849C78.0773 43.4887 70.901 43.6434 68.4686 40.3128C65.057 35.6472 69.8336 26.4062 70.2239 26.63C70.3149 26.6828 65.8359 35.5398 69.081 39.845C70.5998 41.8598 74.6193 42.4422 78.6742 38.7603C85.056 32.97 88.6332 20.4893 81.1712 19.3C77.9544 18.7867 75.7713 20.3801 73.7629 22.3203C72.5048 23.6309 71.3454 25.0328 70.294 26.5144C71.017 24.808 72.0683 23.2602 73.388 21.959C81.2932 13.658 91.2322 20.6777 83.3853 34.2849Z" fill="#20201E"/>
</svg>
