<svg width="182" height="182" viewBox="0 0 182 182" fill="none" xmlns="http://www.w3.org/2000/svg">
    <path d="M16.8549 171.204C16.5288 171.153 16.2261 171.004 15.9875 170.776C15.749 170.548 15.586 170.253 15.5208 169.93C15.3866 169.205 15.863 167.549 16.5007 165.784C17.8204 162.131 16.9985 157.469 17.9969 153.716C18.4328 152.078 21.7143 145.112 23.9856 142.748C25.509 141.162 28.2626 139.619 30.5376 140.159C30.6286 140.18 29.9789 140.774 34.5316 135.394C39.5366 129.479 51.8052 119.415 62.1556 114.699C73.0173 109.75 91.3293 105.69 107.565 108.57C124.057 111.5 136.143 119.459 144.955 127.33C149.836 131.689 156.512 134.664 160.915 139.506C161.074 139.681 161.23 139.857 161.384 140.032C165.138 144.309 168.567 149.352 168.804 155.038C169.115 158.072 168.367 161.366 169.335 164.257C169.71 165.377 170.056 166.507 170.374 167.645C170.444 167.915 170.458 168.197 170.417 168.474C170.376 168.75 170.279 169.016 170.133 169.254C169.986 169.492 169.793 169.698 169.566 169.86C169.338 170.023 169.08 170.137 168.807 170.197C157.174 172.775 96.9458 184.534 16.8549 171.204Z" fill="#FDF2C8"/>
    <path d="M161.402 145.642C160.956 145.994 167.221 154.492 163.691 154.855C163.64 153.666 163.329 152.502 162.781 151.446C161.77 149.343 157.412 143.703 156.371 142.551C155.452 141.431 154.201 140.63 152.799 140.264C153.405 136.842 158.168 141.883 158.544 141.356C158.704 141.116 155.39 137.24 153.145 138.062C151.871 138.504 151.052 140.218 151.756 142.196C152.88 145.371 160.121 154.149 160.583 154.607C161.777 155.727 163.048 156.498 164.577 155.949C168.997 153.685 161.754 145.359 161.402 145.642ZM158.399 149.863C157.034 148.119 152.969 143.166 152.765 140.954C155.076 141.717 156.538 144.35 158.91 147.471C160.548 149.692 162.59 152.054 162.94 154.734C161.319 154.132 159.675 151.424 158.403 149.863H158.399Z" fill="#20201E"/>
    <path d="M140.151 161.062C139.671 152.417 125.662 147.829 125.487 149.152C125.377 149.614 130.501 150.665 135.117 155.279C139.519 159.744 138.533 163.729 136.482 164.421C136.954 161.835 135.311 159.416 133.275 157.771C130.428 155.461 126.591 154.549 123.018 153.676C118.058 152.509 110.564 151.191 107.494 155.37C105.546 147.262 121.26 149.528 121.391 148.964C121.71 147.91 106.323 145.394 105.424 153.37C105.277 154.688 105.523 156.019 106.131 157.197C106.739 158.376 107.681 159.348 108.839 159.992C111.8 161.812 115.354 161.379 118.621 161.798C127.019 162.792 129.96 166.249 134.78 166.547C138.384 166.721 140.277 164.48 140.151 161.062ZM123.716 160.814C115.936 158.692 110.893 160.749 108.119 156.738C110.009 152.619 118.481 154.259 122.643 155.249C127.038 156.304 133.241 157.744 135.036 162.138C135.377 162.915 135.467 163.778 135.294 164.609C132.015 164.667 129.121 162.287 123.716 160.814Z" fill="#20201E"/>
    <path d="M102.436 128.52C100.355 124.773 94.019 125.297 94.1418 125.925C94.1637 126.17 95.3776 126.137 97.133 126.672C99.1532 127.309 101.756 128.735 101.21 130.794C100.821 132.379 101.019 131.084 97.6098 129.687C92.8551 127.709 85.4086 128.447 83.1927 131.796C82.1571 129.823 83.7041 128.156 85.6843 127.174C87.3041 126.43 89.8703 125.579 87.6026 125.685C79.55 126.158 79.7465 134.064 85.2075 135.107C87.2595 135.499 89.4189 134.882 92.7304 134.883C95.1528 134.841 98.6454 135.775 101.027 133.8C102.939 132.266 103.328 130.075 102.436 128.52ZM92.7286 133.262C88.1977 133.262 85.6306 134.381 83.7624 132.555C85.5778 129.937 93.8634 128.191 100.286 132.296C98.3933 134.104 95.6324 133.243 92.7286 133.262Z" fill="#20201E"/>
    <path d="M24.8472 150.343C22.9626 153.833 21.6513 156.797 21.2554 156.672C20.8914 156.554 21.6194 153.275 23.5714 149.653C25.5233 146.031 27.8848 143.631 28.1842 143.877C28.5036 144.144 26.7327 146.853 24.8472 150.343Z" fill="#20201E"/>
    <path d="M70.6155 152.334C66.1738 146.655 55.7006 152.104 56.182 152.859C56.4259 153.293 62.9834 150.434 67.1521 151.997C69.529 153.097 69.5881 154.307 68.578 155.637C68.2932 156.013 67.2867 154.949 63.573 154.992C57.0693 155.045 50.105 158.758 46.7881 163.992C45.08 163.217 44.8097 161.974 45.5869 160.261C47.1503 156.814 51.5756 154.444 51.359 154.008C51.0369 153.249 42.5511 157.444 43.351 162.702C43.9998 165.743 47.3268 166.679 50.7065 166.193C54.251 165.65 74.8097 158.923 70.6155 152.334ZM47.9511 164.318C52.39 158.93 60.6638 155.38 67.5452 156.695C64.1545 159.647 52.1935 164.928 47.9511 164.318Z" fill="#20201E"/>
    <path d="M86.101 138.545C80.9959 137.976 78.2941 134.669 78.6271 134.411C78.9311 134.138 80.9294 136.846 86.2284 137.443C90.2624 137.898 94.6004 137.087 94.6604 137.534C94.7077 137.898 89.771 138.957 86.101 138.545Z" fill="#20201E"/>
    <path d="M170.15 163.8C168.365 158.535 168.45 160.257 169.12 158.805C172.258 151.655 162.317 134.754 152.285 133.47C120.025 94.9456 61.1074 98.6165 30.5642 139.196C24.2733 137.592 16.9624 150.116 16.7431 155.807C16.7263 157.294 17.1683 158.749 18.0089 159.975C17.3755 161.431 16.7764 162.902 16.2116 164.388C15.1397 167.209 14.8676 169.688 15.3844 169.833C16.2817 170.089 18.2136 164.425 19.5886 161.223C23.5608 162.914 28.675 156.385 27.9124 155.876C27.542 155.628 22.6481 160.731 20.4113 159.501C15.8613 157.309 21.8973 146.245 24.9877 143.316C26.7167 141.637 30.0236 140.125 30.9937 141.609C32.5243 143.318 30.9327 150.127 31.3941 150.306C31.8928 150.515 33.2932 146.995 33.3715 144.044C55.7002 114.422 94.0203 104.685 126.298 119.594C132.713 122.542 134.238 123.78 134.326 123.634C134.372 123.562 131.369 121.708 131.295 121.665C99.776 103.212 57.9124 110.592 33.2295 142.129C33.079 141.239 32.6144 140.432 31.9201 139.854C61.9737 102.514 117.118 96.9294 150.285 133.459C149.596 133.528 148.929 133.735 148.322 134.067C147.715 134.399 147.182 134.85 146.752 135.392C143.238 139.998 150.44 149.229 150.964 148.853C151.49 148.499 145.628 139.765 148.261 136.555C149.241 135.306 151.028 135.19 152.582 135.487C154.586 135.953 156.454 136.88 158.036 138.195C162.703 141.909 167.074 148.371 167.748 155.247C168.072 158.555 166.1 160.214 163.617 160.041C160.94 159.84 158.753 157.474 156.829 155.652C153.662 152.6 150.059 149.658 155.822 156.588C157.947 159.072 160.175 161.612 163.439 161.938C164.719 162.083 166.011 161.794 167.109 161.119C167.529 162.211 167.927 163.311 168.304 164.42C170.807 171.751 171.844 168.762 170.15 163.8Z" fill="#20201E"/>
    <path d="M117.769 61.9169C120.432 58.8629 120.42 59.398 122.7 60.3599C131.019 63.8679 158.713 78.0548 158.804 78.1049C163.689 80.9168 165.869 81.1916 163.749 86.1957C161.565 91.3572 155.687 102.805 152.222 107.086C150.609 108.906 149.188 110.888 147.983 113.001C146.12 116.532 141.158 119.012 142.672 119.659C148.905 122.319 150.322 124.983 151.985 130.567C152.071 130.858 152.043 130.979 151.742 131.153C150.661 131.779 148.102 133.059 147.044 132.385C146.169 131.825 145.92 129.847 144.193 127.448C143.188 126.146 141.853 125.138 140.325 124.527C138.798 123.917 137.135 123.727 135.51 123.978C132.507 124.648 133.919 124.64 104.57 140.782C96.4192 145.265 94.3781 144.347 92.1259 148.902C90.3377 152.516 90.2813 156.677 87.6787 157.632C86.624 158.018 84.2444 157.833 83.3107 156.872C81.7173 155.234 83.2343 149.464 83.8949 147.272C84.6284 144.84 84.0715 145.523 86.4047 143.417C88.2138 141.785 85.9087 140.555 58.2011 121.063C57.4452 120.661 56.6361 121.289 56.3538 122.097C54.067 128.644 57.7152 133.049 51.3679 132.431C50.0684 132.305 49.7135 132.037 49.2749 131.066C46.0953 123.982 49.3022 115.113 57.2829 110.864C61.2869 108.733 52.1568 113.893 91.3287 93.5685C101.685 88.2013 104.696 76.9055 117.769 61.9169Z" fill="#F8D348"/>
    <path d="M163.056 79.7493C156.639 75.557 148.517 72.3292 141.54 68.3561C136.157 65.1966 130.201 62.8252 124.537 59.8158C118.889 56.8128 118.857 58.3971 103.362 80.0178C95.163 91.4956 93.343 91.0515 78.7011 98.7738C57.4335 109.837 53.3394 111.011 51.8697 114.114C46.7 119.986 46.286 129.193 48.5937 132.455C49.4801 133.654 50.7541 133.876 52.2428 133.729C58.2042 133.02 54.8081 130.175 57.2678 121.845C63.8763 126.451 55.7163 119.934 85.8055 142.593C82.6914 144.935 81.7705 149.366 81.432 153.24C81.3019 155.497 81.432 157.691 84.2894 158.649C86.6991 159.49 89.3736 158.476 90.2144 156.52C90.936 154.841 91.5931 149.422 95.4114 145.969C97.5316 145.404 99.578 144.592 101.508 143.549C103.012 142.793 124.281 131.113 134.787 124.828C135.92 124.623 137.082 124.649 138.204 124.905C139.326 125.16 140.385 125.64 141.317 126.315C146.124 129.837 144.047 136.005 150.812 133.14C152.506 132.424 153.301 131.684 152.814 129.782C151.527 124.972 148.474 120.773 143.671 119.1C151.649 112.214 164.315 88.236 165.7 83.8553C166.404 81.5903 164.413 80.6894 163.056 79.7493ZM54.1138 129.047C53.9645 131.276 54.1675 131.328 52.0208 131.531C51.3164 131.597 50.7905 131.596 50.3828 131.088C49.0851 129.254 49.0178 122.342 52.0135 117.214C53.1577 118.609 54.4807 119.847 55.9483 120.896C54.8895 123.492 54.2695 126.247 54.1138 129.047ZM89.844 151.094C88.7766 153.636 88.4845 155.189 88.2643 155.625C87.6837 156.981 84.8427 157.172 83.8844 155.807C83.1837 154.994 83.3512 146.561 87.125 143.556C88.6499 144.676 90.382 145.482 92.221 145.928C93.9718 146.278 92.0517 145.782 89.844 151.094ZM148.099 124.739C149.303 126.558 150.184 128.572 150.701 130.691C150.062 131.037 149.392 131.321 148.699 131.539C146.101 132.127 147.713 128.16 142.452 124.623C137.373 121.372 135.462 125.061 142.231 120.241C144.599 121.109 146.646 122.678 148.099 124.739ZM163.923 83.3238C163.057 86.2804 150.654 111.638 142.174 118.334C138.534 121.264 104.596 139.802 100.613 141.771C96.5653 143.769 94.7435 144.354 92.6487 143.92C89.6456 143.297 90.4692 143.246 65.4251 124.65C61.4093 121.745 53.1874 117.122 53.8208 115.24C54.5806 113.056 60.9324 110.526 62.9963 109.491C100.929 89.7439 95.7882 94.8799 111.044 72.8179C112.553 70.6457 119.55 60.4473 121.611 60.8177C122.64 60.9997 157.889 78.8566 160.262 80.2417C164.004 82.4966 164.137 82.6104 163.923 83.3238Z" fill="#20201E"/>
    <path d="M154.305 72.7161C154.362 68.78 153.613 64.8739 152.104 61.238C150.595 57.6021 148.358 54.3134 145.531 51.5741C135.829 41.9399 120.552 48.1334 120.552 48.1334L119.106 49.8533C119.106 49.8533 118.211 48.1334 114.427 48.9597C110.642 49.786 104.813 58.6293 104.121 61.3502C103.157 65.1349 105.894 68.7094 105.894 68.7094C105.894 68.7094 105.589 68.5947 104.09 71.342C102.591 74.0893 105.058 82.0527 105.058 82.0527C105.058 82.0527 100.69 75.2769 100.624 70.2801C100.605 68.7913 100.494 63.8191 99.337 62.89C99.0758 62.4413 97.6289 61.4613 98.3069 58.2681C98.9384 55.1741 101.826 55.0785 102.979 53.4651C103.386 52.7977 103.536 52.0052 103.402 51.2352C103.268 50.4651 102.859 49.7699 102.251 49.2791C97.9738 46.0286 94.312 52.3731 94.119 52.0955C92.9324 50.2866 91.4833 48.6642 89.8193 47.2816C85.8699 44.3105 82.4428 45.1386 81.6011 46.6783C80.9695 47.8012 81.8522 48.9469 82.5311 50.0544C78.7473 49.5667 74.6733 50.5222 76.1465 53.4214C76.607 54.3314 77.901 54.4615 80.914 55.8548C78.2113 56.4808 75.363 56.9003 75.6934 58.9296C76.2184 61.7315 80.0923 60.4029 83.604 62.5314C84.2617 62.843 84.8009 63.3589 85.1413 64.0021C85.4816 64.6454 85.6047 65.3814 85.4922 66.1004C85.1128 68.612 84.2555 69.8151 86.506 72.6251C88.2986 74.8074 89.5407 77.3884 90.1278 80.1508C90.5027 82.7735 94.3438 89.2372 94.3438 89.2372L88.4416 93.5779L82.3445 91.9799C82.3445 91.9799 83.675 84.8947 81.804 81.3448C79.933 77.7948 78.4061 75.7701 73.4812 75.0448C68.5562 74.3196 66.304 74.6626 66.3422 78.3663C66.3804 82.07 67.0292 95.6991 67.1057 98.2953C67.1821 100.892 70.9996 101.77 72.5266 101.844C79.1595 102.176 70.6665 100.701 70.4754 106.822C70.3362 111.287 69.7929 120.069 69.7929 120.069C67.1765 120.143 64.6478 121.029 62.5575 122.604C59.0768 125.237 58.6309 129.744 60.3735 131.619C62.1162 133.493 76.7535 133.712 76.7535 133.712C76.7535 133.712 82.0188 134.158 83.4921 132.015C84.9654 129.873 84.9189 123.18 84.9189 123.18C84.9189 123.18 90.7202 129.16 95.3166 130.142C99.913 131.124 108.078 127.197 111.871 124.921C115.664 122.645 131.059 109.304 131.059 109.304C131.059 109.304 140.653 110.062 145.204 107.786C149.755 105.51 152.567 100.87 152.522 96.9877C152.496 94.6503 152.256 92.3202 151.808 90.0262C157.576 83.3813 156.549 74.3469 154.305 72.7161Z" fill="white"/>
    <path d="M114.463 54.7818C112.589 56.2335 110.818 57.8147 109.164 59.5138C107.586 61.4052 106.604 63.7222 106.342 66.1718C106.08 68.6214 106.551 71.0936 107.695 73.2757C108.16 74.1265 108.369 75.2204 108.918 76.0202C112.262 80.8915 116.36 85.4933 122.204 86.3942C126.681 87.0831 132.042 85.6735 134.895 82.1546C135.781 81.0626 136.351 79.9979 137.276 78.9377C140.796 74.8955 141.564 68.6966 136.237 61.068C134.564 58.928 132.623 57.0124 130.461 55.3687C126.002 51.564 118.66 51.2737 117.436 51.7396C115.935 52.3002 115.686 53.7516 114.463 54.7818Z" fill="#F8D348"/>
    <path d="M89.0072 120.666C94.4472 128.429 101.838 125.281 102.002 125.841C102.377 126.484 93.4334 129.959 87.6331 121.623C82.1367 113.724 86.9788 105.866 87.5858 106.409C88.0553 106.681 83.7656 113.191 89.0072 120.666Z" fill="#20201E"/>
    <path d="M155.238 73.4032C156.444 71.0417 154.1 61.8844 152.4 58.8614C146.692 48.714 137.774 44.7719 126.355 45.7729C122.012 46.5009 120.431 46.7648 118.633 48.6175C113.831 46.3644 109.463 50.4284 106.28 54.6954C102.88 59.2454 101.142 64.2695 104.614 68.7931C102.423 70.9007 102.514 73.6225 103.143 76.651C100.122 67.8313 102.286 66.418 100.959 63.3486C100.322 61.8471 98.0702 58.5893 100.806 56.5518C101.849 55.7638 103.703 55.1286 104.363 53.3049C105.875 48.9005 99.427 43.9984 94.493 50.9653C88.3004 39.8633 78.477 43.4369 79.9558 48.5011C74.685 47.8386 72.0315 53.5215 76.3713 55.6737C75.8033 55.8519 75.2946 56.1815 74.8999 56.627C74.5052 57.0726 74.2393 57.6173 74.1308 58.2026C73.7996 63.3978 80.7292 62.6707 82.7758 63.901C85.5568 65.5181 82.3791 67.6029 83.6194 70.4357C84.5858 72.7516 86.3931 72.4259 88.3978 77.7366C89.7555 81.352 90.1914 84.0921 93.3237 88.8504C91.3863 89.6496 89.6042 90.7824 88.0584 92.1974C86.3146 91.6314 84.5392 91.1677 82.7413 90.8088C84.4057 84.9156 82.8759 76.4308 76.1083 74.3833C73.6367 73.6771 67.8136 72.7098 66.0691 74.6563C64.8861 75.9776 65.0773 76.2033 65.2256 85.5908C65.3284 92.0564 65.6096 94.8665 65.8835 98.4218C66.3522 101.311 68.4579 102.441 71.3735 102.79C66.2257 107.878 68.8374 119.861 67.9356 119.889C61.4218 120.129 57.587 125.119 58.2313 129.86C58.7446 134.842 66.9246 134.256 71.4263 134.671C84.0298 135.701 86.1974 133.621 86.0346 125.696C86.0173 124.882 85.7179 125.355 88.386 127.544C92.5347 130.911 97.4114 132.499 102.471 130.689C109.569 128.15 120.692 121.333 131.581 110.386C143.029 111.419 153.216 107.991 153.528 96.8266C153.519 94.4731 153.279 92.1262 152.811 89.8196C156.326 85.0785 158.857 77.7894 155.238 73.4032ZM118.3 52.5669C120.757 51.4859 129.968 54.2204 136.075 63.0165C138.441 66.4426 139.905 69.6595 138.457 73.5406C136.487 79.007 131.944 84.8246 126.185 85.6354C119.42 86.7274 109.411 79.8424 107.188 68.7231C107.643 67.2279 107.261 63.0865 112.93 57.4727C115.57 54.8847 116.793 54.3578 118.3 52.5669ZM104.781 62.9719C105.303 58.9005 111.932 48.6439 117.484 49.9589C114.002 54.3478 106.675 57.7794 105.34 66.8412C104.796 65.629 104.602 64.2885 104.781 62.9719ZM76.6224 51.8599C77.1493 50.9562 78.8974 50.423 79.9485 50.5713C82.3454 50.9835 81.5919 51.1746 83.3646 52.162C85.1946 53.163 86.7462 54.073 88.032 54.9311C84.6159 57.7712 87.2358 57.8613 84.1481 56.6155C83.2154 56.2606 84.0735 56.5 78.4743 54.1276C77.84 53.95 77.2556 53.6276 76.7671 53.1857C76.4987 52.6834 76.3631 52.3249 76.6224 51.8599ZM86.344 70.7287C84.5649 68.764 86.1265 68.0051 86.1674 65.701C89.5535 66.3671 92.3609 65.0858 92.2499 64.7536C92.1252 64.3551 89.3852 65.2232 85.9709 64.3305C85.0163 61.3657 80.5591 60.645 77.7026 60.1654C75.0126 58.9542 76.3431 57.0341 79.9776 57.0632C84.9644 58.9488 85.2392 58.5802 85.0909 58.9934C84.7769 59.8706 84.7496 60.4594 84.9089 60.5185C85.262 60.6432 86.1965 58.6903 87.9519 56.7875C89.6809 54.8592 91.5346 53.7445 91.3763 53.4041C91.3035 53.2494 90.7192 53.3313 89.8757 53.7281C88.7209 54.2659 90.4753 54.1831 84.4302 50.4157C79.6072 47.2489 83.0543 45.0158 86.7161 46.2779C89.5872 47.2635 91.8494 49.9844 93.583 52.4659C92.2881 55.0303 92.218 57.0833 92.491 57.0769C92.7194 57.0942 92.9742 55.0003 94.8752 52.3767C98.2886 47.7266 101.54 48.6457 102.545 50.696C104.082 53.7527 99.9757 53.972 98.4087 56.3871C97.9688 57.0381 97.6808 57.7798 97.5661 58.5571C97.4514 59.3344 97.513 60.1276 97.7463 60.878C97.5091 61.422 97.1408 61.8988 96.6743 62.2657C95.1901 63.3868 92.3481 64.315 92.4664 64.6799C92.5711 65.0103 96.8635 64.1931 98.3232 62.3604C99.1285 64.063 99.5863 63.8072 99.4935 66.722C96.9154 70.1882 90.1032 72.1183 86.344 70.7287ZM93.3164 72.2293C95.6745 71.6827 97.821 70.4575 99.4907 68.7049C99.5519 70.7097 99.8984 72.6955 100.52 74.6026C97.3156 76.1357 93.9421 77.2868 90.469 78.0324C87.759 69.2672 85.7297 74.2386 93.3164 72.2293ZM90.6774 78.7149C94.2328 78.288 97.6633 77.1378 100.757 75.3351C101.012 76.0986 101.334 76.9731 101.659 77.7603C98.3956 79.3297 94.959 80.5105 91.4199 81.2783C91.176 80.4666 90.9404 79.6085 90.6746 78.7149H90.6774ZM83.6367 128.89C83.0907 134.089 75.7652 132.459 66.7107 132.247C64.6441 132.176 60.7702 131.869 60.2206 129.873C70.5846 131.013 80.2542 130.697 80.2506 130.281C80.2469 129.865 71.9505 129.873 60.1141 128.516C60.1504 127.686 60.3178 126.867 60.6101 126.089C62.4401 121.698 68.3223 120.183 72.5766 121.731C74.9908 122.61 75.9181 123.909 76.0837 123.742C76.2657 123.589 74.4148 120.873 70.4517 120.094C70.4745 116.049 69.9376 108.474 72.3582 105.214C73.6094 103.53 75.8671 102.54 77.8118 103.353C83.3673 105.677 84.0526 125.172 83.634 128.89H83.6367ZM122.1 108.762C122.071 109.198 129 110.106 129.478 110.164C121.919 116.676 110.981 125.088 101.715 128.536C95.7998 130.74 90.2715 127.455 85.9436 122.865C84.6696 92.8672 74.0044 103.235 69.0176 99.7022C68.7678 99.5368 68.5593 99.3162 68.4083 99.0574C68.2574 98.7986 68.1678 98.5086 68.1467 98.2098C67.8737 94.6763 67.6007 92.0018 67.4988 85.5453C67.3541 76.3862 67.2886 76.5017 67.8245 76.145C68.398 75.8831 69.0214 75.7487 69.6518 75.751C70.1933 82.9837 69.9357 97.2042 70.5573 97.1897C70.914 97.1815 71.531 83.2021 70.995 75.771C72.5136 75.8781 74.021 76.1085 75.5022 76.4599C82.0324 78.2999 83.0225 88.1416 80.2579 94.2049C79.5053 95.7828 78.9256 96.6 79.0612 96.7156C79.2751 96.8976 80.914 95.1686 81.9141 93.0437C88.2368 94.2522 95.0181 96.8348 99.2787 101.764C103.029 106.05 109.016 119.873 110.116 119.23C110.399 119.068 109.539 116.913 108.126 113.429C107.824 112.683 107.693 113.099 110.699 114.885C114.678 117.217 114.779 116.644 111.376 113.914C106.007 109.436 106.735 109.965 105.446 107.331C102.228 100.792 98.9547 96.4544 90.489 93.0728C91.8844 92.3094 93.1647 91.3523 94.2919 90.23C94.9571 91.1282 97.0883 93.6671 97.354 93.4268C97.6798 93.1429 94.4612 89.7395 91.9368 82.8963C91.3344 81.1919 91.2889 82.667 96.7744 80.8033C104.435 78.2098 100.11 76.4699 104.633 83.4086C107.034 87.0641 111.815 92.7944 117.221 95.4206C119.833 96.6683 121.434 96.8948 121.462 96.7856C121.644 96.2396 114.701 94.7063 109.241 86.6146C107.213 83.6216 105.662 79.6076 106.135 80.3856C108.288 84.1968 111.504 87.2987 115.391 89.3127C121.06 92.2247 128.747 92.8672 134.054 89.755C135.962 88.5789 137.64 87.0662 139.007 85.2905C138.336 88.0751 138.258 91.1282 140.016 93.3604C136.431 95.3526 132.482 96.6023 128.404 97.035C124.74 97.3653 122.455 96.7447 122.374 97.0605C122.229 97.3808 127.95 100.008 136.777 96.8876C136.714 97.5688 136.515 98.2304 136.189 98.8322C135.493 100.151 123.494 100.015 123.473 100.669C123.449 101.457 132.203 101.556 134.416 101.215C135.213 102.852 136.394 104.272 137.858 105.355C139.323 106.438 141.027 107.151 142.826 107.434C134.785 110.176 122.173 107.572 122.097 108.762H122.1ZM144.339 106.834C142.471 106.628 140.674 106.003 139.081 105.005C137.489 104.008 136.143 102.663 135.143 101.072C135.867 100.942 136.548 100.636 137.126 100.18C140.126 102.965 144.104 104.455 148.196 104.327C147.055 105.368 145.751 106.214 144.336 106.834H144.339ZM148.889 103.612C144.787 103.557 140.816 102.158 137.586 99.6276C137.872 99.129 138.068 98.5832 138.162 98.016C138.66 95.3324 137.317 97.0978 141.591 94.7072C144.693 96.4107 148.47 94.6289 151.09 91.8771C151.586 96.1459 151.681 100.431 148.885 103.612H148.889ZM155.383 78.9387C154.91 84.2167 149.267 93.2994 144.016 93.0792C137.764 92.818 141.023 78.5274 149.342 72.7862C150.536 72.0173 151.386 71.9872 151.38 71.7998C151.444 71.5222 148.983 70.8807 144.805 74.952C146.849 68.2389 144.147 63.8937 143.97 63.9765C143.275 64.2386 148.638 70.5977 138.983 83.1238C135.155 88.066 131.585 90.4675 125.046 90.2127C111.723 89.7659 104.18 76.8075 105.072 71.7816C105.285 71.1867 105.654 70.6602 106.141 70.2573C109.173 84.0211 126.201 95.8493 137.219 80.1135C142.267 72.7152 142 68.2399 137.577 61.959C132.333 54.5944 124.308 50.7906 119.637 50.9035C120.119 50.2689 120.71 49.7248 121.382 49.2964C123.157 48.9872 124.984 49.1814 126.655 49.857C137.441 53.6917 143.636 63.8309 143.854 63.7272C144.78 63.436 138.237 52.2666 127.187 48.3263C126.226 47.9915 126.245 48.0906 126.648 48.0224C139.373 46.9131 148.034 52.7799 151.697 62.9519C152.432 65.1486 153.469 70.2373 153.301 71.9481C153.301 72.0136 152.352 71.6897 152.304 71.9062C152.209 72.2129 155.923 73.2894 155.378 78.9387H155.383Z" fill="#20201E"/>
    <path d="M154.363 19.3683C153.074 17.0933 151.633 16.762 149.333 15.9403C145.661 14.6272 142.723 13.6562 139.464 14.4242C129.316 16.8157 124.145 31.828 129.37 38.1625C131.352 40.5667 139.256 43.0847 142.047 43.0847C151.47 43.0847 159.039 27.7985 154.363 19.3683Z" fill="#FFF8D9"/>
    <path fill-rule="evenodd" clip-rule="evenodd" d="M137.3 22.5018L138.48 26.9598L137.049 26.0501L134.875 29.4647L133.444 28.555L137.3 22.5018ZM138.822 31.9755L137.642 27.5175L139.072 28.4273L141.247 25.0126L142.677 25.9224L138.822 31.9755Z" fill="#20201E"/>
    <path d="M154.84 19.1016C153.41 16.4626 151.279 16.1068 149.518 15.4215C146.879 14.4788 143.558 13.3213 140.759 13.6325C128.237 15.4334 123.527 32.6761 129.129 38.6984C130.983 41.0471 140.266 44.1885 143.128 43.5214C152.925 42.2001 159.355 27.3753 154.84 19.1016ZM149.586 21.7488C150.314 21.8816 151.328 21.9945 152.134 22.2038C153.018 22.4304 154.068 22.8735 154.782 23.0956C155.078 24.9858 155.034 26.9136 154.654 28.7885C150.756 28.4573 151.656 28.2243 149.179 27.4035C149.625 25.5538 149.762 23.6432 149.586 21.7488ZM154.583 22.0673C151.267 21.767 151.902 21.5622 149.408 20.6386C149.092 18.8717 148.208 17.2565 146.889 16.0394C146.409 15.6536 145.433 15.2596 149.09 16.6009C151.209 17.429 153.534 17.6902 154.583 22.0654V22.0673ZM127.952 33.5879C127.549 30.6588 127.897 27.6756 128.961 24.9174C130.026 22.1593 131.773 19.7164 134.039 17.8176C142.229 10.9926 152.709 15.7992 147.548 30.1108C141.744 45.427 129.17 41.6441 127.952 33.5861V33.5879ZM136.456 41.1909C138.31 41.152 140.123 40.6298 141.714 39.6758C143.079 40.229 143.585 39.7176 146.325 41.1208C142.914 42.9226 140.492 42.4968 136.456 41.1891V41.1909ZM147.353 40.5102C145.107 39.9124 145.644 40.4784 142.647 38.9487C143.933 37.8177 145.053 36.5115 145.975 35.0684C147.821 35.5234 147.21 34.7727 151.451 36.3561C150.363 37.9901 148.972 39.3998 147.353 40.5084V40.5102ZM152.017 35.477C151.289 35.3651 150.117 35.295 149.212 35.0775C148.306 34.8601 147.234 34.3714 146.537 34.1348C147.568 32.3389 148.369 30.4205 148.922 28.4245C151.219 28.9705 149.574 28.1288 154.446 29.7131C153.92 31.7412 153.102 33.6821 152.017 35.4752V35.477Z" fill="#20201E"/>
    <path d="M134.322 38.895C138.79 40.4748 143.456 34.355 145.261 30.4156C147.949 24.4651 147.644 16.3243 141.19 16.1286C135.141 15.9321 131.143 24.3941 131.463 24.5352C131.659 24.6262 133.018 20.746 137.113 17.945C138.022 17.3058 139.083 16.9156 140.189 16.8131C141.296 16.7106 142.41 16.8994 143.421 17.3608C151.592 21.5731 139.726 44.2549 132.576 37.004C127.725 32.3157 132.495 22.2293 131.107 25.1849C128.878 29.9215 129.381 37.196 134.322 38.895Z" fill="#20201E"/>
    <path d="M116.206 31.4057C124.05 25.7928 119.683 4.5498 107.512 4.5498C104.39 4.78859 101.305 5.38241 98.3166 6.31975C90.5116 9.30365 90.8146 30.4493 102.671 34.1658C105.832 35.1613 113.726 33.1784 116.206 31.4057Z" fill="#FFF8D9"/>
    <path fill-rule="evenodd" clip-rule="evenodd" d="M106.37 15.6528L110.674 18.2079L108.874 18.5909L109.786 22.8888L107.987 23.2718L106.37 15.6528ZM114.752 21.8317L110.449 19.2766L112.248 18.8936L111.336 14.5958L113.135 14.2128L114.752 21.8317Z" fill="#20201E"/>
    <path d="M109.401 4.17843C106.714 3.61878 103.131 4.49875 100.431 5.1676C98.1113 5.78913 96.4715 6.03392 94.8535 8.57828C89.5419 16.9321 93.3548 32.1992 102.905 34.8063C105.737 35.6471 112.503 33.9127 115.616 32.423C124.502 28.1715 121.319 6.28508 109.401 4.17843ZM100.737 6.3961C105.076 5.28317 103.922 5.60076 103.257 6.05485C101.804 7.17067 100.721 8.70041 100.153 10.4429C97.6472 11.0799 98.1778 11.382 94.93 11.3128C96.4879 7.32157 98.3516 7.03401 100.737 6.3961ZM94.5796 12.3202C97.6782 11.7087 95.1893 11.8761 99.8094 11.544C99.3387 13.4703 99.1698 15.4581 99.3089 17.4362C96.9065 17.9449 97.6409 18.3353 93.787 18.2288C93.7191 16.2286 93.9879 14.2312 94.5824 12.3202H94.5796ZM93.8416 19.1852C94.5633 19.0342 95.5197 18.7703 96.3277 18.6665C97.3542 18.5355 98.6764 18.5874 99.3981 18.5018C99.619 20.6123 100.099 22.6875 100.827 24.6807C100.116 24.8391 98.9886 25.2158 98.0576 25.3405C97.1567 25.4615 96.0165 25.4024 95.2849 25.4315C94.509 23.4288 94.0239 21.3254 93.8443 19.1852H93.8416ZM95.6889 26.3897C100.014 25.2841 99.3489 25.9274 101.229 25.6963C101.873 27.2885 102.761 28.7707 103.861 30.0898C100.67 31.3192 101.358 30.8041 99.0059 31.1654C97.5896 29.8133 96.4614 28.1889 95.6889 26.3897ZM99.8968 31.9107C100.48 31.6656 101.081 31.4678 101.696 31.3192C102.712 31.1117 104.706 31.0598 104.665 30.9124C106.044 32.1217 107.753 32.8912 109.573 33.1219C103.855 34.3486 102.057 33.5332 99.8968 31.9061V31.9107ZM119.046 26.0503C118.372 28.2543 117.151 30.4374 115.066 31.3956C113.59 32.2473 111.895 32.6475 110.193 32.5468C99.2652 31.5221 95.5551 7.04493 107.089 5.21492C114.842 4.85092 122.137 15.2313 119.046 26.0457V26.0503Z" fill="#20201E"/>
    <path d="M117.261 17.257C116.12 13.142 119.601 24.4024 114.161 29.087C108.307 34.2959 102.422 22.7462 102.811 14.7882C103.282 6.03947 111.547 3.88004 116.129 14.3105C116.738 15.7282 116.948 16.5664 117.016 16.5482C116.921 15.741 116.721 14.9498 116.42 14.1949C113.247 5.59994 106.582 5.16223 103.845 9.13074C100.176 14.2695 102.246 23.8555 106.98 29.1771C112.168 34.9929 119.948 27.0122 117.261 17.257Z" fill="#20201E"/>
    <path d="M80.9236 37.4344C90.0673 29.5347 81.476 4.62524 66.4783 4.62524C62.0802 4.62524 53.7501 8.76483 53.2596 9.05785C49.7224 11.1618 48.6186 16.2168 48.6095 20.2854C48.5685 34.0974 59.251 44.8991 67.431 43.3821C71.8409 42.5531 78.5021 39.5237 80.9236 37.4344Z" fill="#FFF8D9"/>
    <path fill-rule="evenodd" clip-rule="evenodd" d="M66.4347 19.6635L70.9413 22.3391L69.0571 22.7402L70.0124 27.2409L68.1282 27.642L66.4347 19.6635ZM75.2128 26.134L70.7062 23.4583L72.5904 23.0572L71.6351 18.5565L73.5193 18.1554L75.2128 26.134Z" fill="#20201E"/>
    <path d="M70.4755 4.73175C65.6188 2.94997 60.5665 5.15945 55.7462 7.27975C53.3747 8.37721 51.1462 8.95233 49.4727 12.7862C44.1401 25.3542 54.6196 47.3534 69.5045 43.4432C72.998 42.4831 78.5381 40.1872 81.4992 37.6246C89.4963 30.705 83.7515 8.46275 70.4755 4.73175ZM53.1081 10.5002C54.1 9.64666 59.095 7.56094 60.227 7.11868C58.2207 8.89248 56.9145 11.3251 56.5443 13.9774C53.5759 15.3069 54.2574 15.5917 50.167 16.2087C50.4813 14.0305 51.5169 12.0205 53.1081 10.5002ZM49.9459 17.5518C53.6259 16.1422 50.5901 16.8693 56.3614 15.4352C56.1925 17.9613 56.4116 20.4984 57.0111 22.9581C54.0991 24.1238 55.1001 24.4524 50.2371 25.1585C49.7142 22.6572 49.6158 20.0858 49.9459 17.5518ZM50.5128 26.3506C51.3882 26.003 52.5339 25.4625 53.5285 25.1567C54.7907 24.7681 56.4669 24.5443 57.3505 24.2804C58.089 26.8869 59.1446 29.393 60.4937 31.7424C59.6337 32.0954 58.2978 32.8153 57.154 33.1747C56.0456 33.5242 54.5978 33.6989 53.6841 33.8927C52.2726 31.5428 51.2047 29.0031 50.5128 26.3506ZM54.403 35.0075C55.3566 34.5321 56.3361 34.1107 57.3369 33.7453C58.6564 33.3303 60.4309 33.1674 61.2208 32.9263C62.3784 34.7894 63.8189 36.461 65.4905 37.8812C61.7367 40.1262 62.4966 39.3245 59.6164 40.2918C57.54 38.9001 55.7666 37.1025 54.403 35.0075ZM60.8995 41.0407C61.5794 40.6052 62.2933 40.2255 63.0344 39.9051C64.3439 39.3927 66.7654 38.9305 66.6817 38.7457C68.6785 39.9752 71.0008 40.5714 73.3429 40.4556C66.385 43.2593 63.9526 42.6041 60.8995 41.0407ZM79.8721 37.0877C77.8811 38.4527 76.3841 39.4164 73.9926 39.5975C68.8966 39.9952 65.5296 37.4235 62.6404 33.253C52.2109 18.1087 57.8274 -0.31784 73.058 7.37075C85.5796 14.6771 86.3495 32.6396 79.8721 37.0832V37.0877Z" fill="#20201E"/>
    <path d="M79.5541 18.8223C78.6032 16.8103 79.5932 19.4875 79.9982 21.0791C81.0656 25.4053 81.0447 30.959 78.231 34.3779C72.0011 42.2084 62.0821 28.967 60.8354 18.8605C59.5314 7.80949 69.4113 3.17031 77.4884 15.3579C78.564 17.0087 79.0118 18.0179 79.0918 17.9806C78.798 16.985 78.3736 16.0328 77.8297 15.1486C71.9583 5.01215 63.479 5.94217 60.9037 11.5168C56.2891 21.4295 66.2991 36.6574 72.6718 37.642C79.6524 38.8569 83.933 28.1016 79.5541 18.8223Z" fill="#20201E"/>
    <path d="M24.2153 26.0903C21.0967 27.1359 14.3782 31.7924 13.2862 33.162C6.18817 42.0244 18.6461 69.0687 34.8313 68.7257C38.2047 68.6547 45.1671 64.0382 48.4349 60.704C58.2893 50.6458 40.5862 20.5994 24.2153 26.0903Z" fill="#FFF8D9"/>
    <path fill-rule="evenodd" clip-rule="evenodd" d="M29.8098 40.5045L35.4948 43.8797L33.1179 44.3857L34.323 50.0632L31.9461 50.5691L29.8098 40.5045ZM40.8831 48.6668L35.1982 45.2915L37.5751 44.7856L36.37 39.1081L38.7469 38.6021L40.8831 48.6668Z" fill="#20201E"/>
    <path d="M28.1467 50.0498C30.4854 53.4441 36.5478 59.805 40.6428 60.0907C43.0998 60.2618 44.8398 58.7093 45.8216 56.488C49.4908 48.1888 40.6346 35.6217 43.2409 39.2653C47.3122 44.9483 49.8466 55.4998 44.4521 59.9069C42.6039 61.4157 39.7201 61.6859 36.6143 59.7322C23.4839 51.4748 17.0074 31.7369 27.0028 28.743C34.8598 26.3898 42.9251 38.1925 42.572 38.4327C42.3272 38.6001 39.3525 33.3449 33.1799 30.2372C29.6619 28.4655 26.1311 29.4182 24.564 31.4029C21.0369 35.8692 24.5777 44.8719 28.1467 50.0498Z" fill="#20201E"/>
    <path d="M23.0576 25.9601C19.8945 27.5806 16.8799 29.4758 14.0486 31.624C5.07144 38.9367 15.3362 65.6098 31.9374 69.116C33.5045 69.3973 35.1134 69.3459 36.6594 68.9649C39.2219 68.1669 43.5553 65.81 48.2555 61.6576C49.0396 60.9405 49.7065 60.105 50.232 59.1815C57.0816 47.2742 39.312 18.8876 23.0576 25.9601ZM16.835 31.7669C18.16 30.8268 19.4604 29.9077 20.7708 29.0942C19.0273 31.5038 18.2409 34.475 18.564 37.4316C15.8513 39.3563 16.522 39.5428 12.629 40.8268C12.3888 34.6952 14.6155 33.3512 16.835 31.7669ZM12.7245 42.2491C13.549 41.7405 14.6892 40.8678 15.703 40.3172C16.6284 39.8149 17.8397 39.3726 18.706 38.9822C19.1471 41.8606 19.9985 44.6609 21.234 47.2978C18.7342 48.9194 19.4449 49.2552 14.9258 50.7049C13.7641 48.0154 13.0217 45.1637 12.7245 42.2491ZM15.47 51.897C16.2754 51.3883 17.2973 50.6521 18.2173 50.1752C19.4003 49.5637 21.0274 49.0505 21.8773 48.6282C23.2699 51.4263 24.9745 54.0577 26.9588 56.4724C26.1452 56.9602 24.9422 57.8948 23.873 58.4581C22.8474 58.9977 21.4706 59.4454 20.597 59.8303C18.5546 57.4169 16.8315 54.7505 15.47 51.897ZM21.5288 60.8723C25.6793 57.7519 25.3108 58.772 27.9343 57.6127C29.5762 59.5077 31.4829 61.156 33.5954 62.5067C30.4022 65.4232 31.011 64.4941 28.2191 66.0402C25.6861 64.7479 23.4158 62.9955 21.5242 60.8723H21.5288ZM34.2688 67.4962C32.6832 67.485 31.1121 67.1938 29.6278 66.6362C32.6308 63.8598 33.4571 64.3885 34.9895 63.2519C37.3129 64.3191 39.9183 64.6094 42.4197 64.08C40.4395 65.3713 36.6066 67.589 34.2597 67.4962H34.2688ZM48.8443 58.3825C48.3861 59.1441 47.8192 59.8348 47.1617 60.4328C45.2507 62.0826 44.6728 62.7578 42.3387 63.1992C36.9396 64.2475 33.0203 61.4629 29.2765 57.4916C21.5588 48.9822 14.4308 32.6177 24.4226 27.1987C38.3938 21.7377 55.6565 46.9074 48.8443 58.3825Z" fill="#20201E"/>
</svg>
