<svg width="39" height="30" viewBox="0 0 39 30" fill="none" xmlns="http://www.w3.org/2000/svg">
    <path d="M9.78546 17.3494C11.3927 17.751 12.6218 18.5141 13.4727 19.6386C14.4182 20.6827 14.8909 21.9679 14.8909 23.494C14.8909 25.4217 14.1818 26.988 12.7636 28.1928C11.3455 29.3976 9.59636 30 7.51636 30C5.24727 30 3.40364 29.3976 1.98545 28.1928C0.661818 26.9076 0 25.3414 0 23.494C0 22.5301 0.0945452 21.6064 0.283636 20.7229C0.567272 19.759 1.08727 18.3936 1.84364 16.6265L7.8 0H14.6073L9.78546 17.3494ZM33.8946 17.3494C35.5018 17.751 36.7309 18.5141 37.5818 19.6386C38.5273 20.6827 39 21.9679 39 23.494C39 25.4217 38.2909 26.988 36.8727 28.1928C35.4545 29.3976 33.7055 30 31.6255 30C29.3564 30 27.5127 29.3976 26.0945 28.1928C24.7709 26.9076 24.1091 25.3414 24.1091 23.494C24.1091 22.5301 24.2036 21.6064 24.3927 20.7229C24.6764 19.759 25.1964 18.3936 25.9527 16.6265L31.9091 0H38.7164L33.8946 17.3494Z" fill="black"/>
</svg>
