<svg width="394" height="351" viewBox="0 0 394 351" fill="none" xmlns="http://www.w3.org/2000/svg">
    <g clip-path="url(#clip0_894_320)">
        <path fill-rule="evenodd" clip-rule="evenodd" d="M194.948 160.957C204.223 172.771 205.581 182.98 199.023 191.585C189.186 204.491 163.463 207.693 154.519 187.859C145.575 168.024 149.972 152.909 167.128 145.507C184.284 138.105 195.804 132.271 216.387 138.889C230.11 143.301 241.647 153.338 251 169C228.144 151.255 211.311 143.424 200.5 145.507C184.284 148.631 156.009 162.653 161.568 175.256C167.128 187.859 183.425 194.245 189.186 187.859C193.027 183.601 194.948 174.634 194.948 160.957Z" fill="black" stroke="black" stroke-width="4"/>
        <path fill-rule="evenodd" clip-rule="evenodd" d="M240.576 164C259.22 183.159 264.442 200.422 256.244 215.789C243.946 238.84 200.744 255.025 172.274 250.121C153.294 246.851 140.869 240.639 135 231.484C163.933 243.908 186.116 247.178 201.548 241.293C224.697 232.465 244.25 226.804 244.25 203.132C244.25 187.351 243.025 174.307 240.576 164Z" fill="black" stroke="black" stroke-width="4"/>
        <path fill-rule="evenodd" clip-rule="evenodd" d="M163.765 236.803C143.599 224.564 131.469 208.858 127.375 189.686C121.233 160.927 129.972 140.955 156.315 121.715C182.659 102.476 215.517 97.7998 233.015 93.4332C250.514 89.0666 300.756 90.8384 305.906 89.9525C311.057 89.0666 308.289 94.2515 279.401 77.3621C250.514 60.4727 202.602 61.291 176.224 77.3621C149.845 93.4332 105.881 109.591 95.5413 146.494C85.2015 183.397 108.204 224.042 132.26 238.276C148.297 247.765 170.133 252.673 197.769 253L163.765 236.803Z" fill="#FFF5DD" stroke="black" stroke-width="4"/>
        <path fill-rule="evenodd" clip-rule="evenodd" d="M221.905 96.3565C261.217 100.696 286.507 106.984 297.775 115.221C314.676 127.575 342.097 147.833 342.097 163.211C342.097 178.588 312.19 266.696 287.172 276.504C270.493 283.042 231.102 299.809 169 326.803C198.252 327.614 227.561 325.921 256.928 321.725C300.979 315.432 358.236 286.496 368.674 244.417C379.112 202.338 373.855 143.606 355.991 118.294C338.126 92.9822 320.339 89.3957 291.048 83.4313C271.521 79.4551 248.473 83.7634 221.905 96.3565Z" fill="#FFF5DD" stroke="black" stroke-width="4"/>
        <path fill-rule="evenodd" clip-rule="evenodd" d="M222 96C261.317 100.327 286.61 106.597 297.879 114.81C314.782 127.129 332 126.594 332 141.927C332 157.26 327.173 110.538 297.879 104.591C278.349 100.626 253.056 97.7622 222 96Z" fill="black" stroke="black" stroke-width="4"/>
        <path fill-rule="evenodd" clip-rule="evenodd" d="M204.418 310.139C153.805 312.751 120.923 309.812 105.771 301.322C83.0435 288.587 50.2056 231.153 53.3027 178.172C55.3675 142.85 60.4734 109.793 68.6204 79C37.3568 117.463 20.7368 147.658 18.7605 169.585C15.796 202.474 19.0903 282.498 73.5086 319.497C127.927 356.495 215.822 352.754 252.657 340.215C277.213 331.856 303.661 319.382 332 302.792L204.418 310.139Z" fill="#FFF5DD" stroke="black" stroke-width="4"/>
        <path fill-rule="evenodd" clip-rule="evenodd" d="M57.5533 218.679C54.4109 205.393 52.8511 191.577 53.6447 178.051C55.7145 142.773 60.8329 109.756 69 79C48.2889 106.513 35.16 125.796 29.6133 136.847C23.3967 149.233 66.7055 257.376 57.5533 218.679Z" fill="black" stroke="black" stroke-width="4"/>
        <path fill-rule="evenodd" clip-rule="evenodd" d="M71.9543 263C38.0629 219.124 21.7689 178.313 23.0724 140.567C25.0277 83.9475 66.0885 38.8081 99.3282 21.6817C132.568 4.55535 205.592 2 226.272 2C246.952 2 277.731 6.57591 290.945 14.6245C304.16 22.6732 346 62.7509 346 65.8034C346 68.8559 298.603 29.3852 257.497 32.8108C216.391 36.2365 138.473 60.3637 118.901 65.3229C99.3282 70.2822 49.7926 110.886 46.5357 129.921C44.3645 142.611 52.8374 186.971 71.9543 263Z" fill="#FFF5DD" stroke="black" stroke-width="4"/>
        <path fill-rule="evenodd" clip-rule="evenodd" d="M330.804 87.8897C347.711 89.9655 359.744 105.266 357.682 122.065C355.82 137.223 343.118 148.421 328.233 148.938L322.094 158.832L301.536 149.885L303.056 137.499C298.013 131.269 295.407 123.103 296.458 114.547C298.52 97.7489 313.898 85.8138 330.804 87.8897Z" fill="#FFC43C" stroke="black" stroke-width="4"/>
        <path d="M299.137 157L320.436 166.041" stroke="black" stroke-width="4" stroke-linecap="round"/>
        <path d="M296.172 164.116L317.603 172.393" stroke="black" stroke-width="4" stroke-linecap="round"/>
        <path d="M310.057 140.512C319.061 119.546 320.282 109.6 313.72 110.675C303.877 112.288 309.793 125.021 319.567 124.33C329.34 123.64 335.988 114.308 330.505 112.736C325.022 111.164 323.117 124.707 331.128 129.327C339.139 133.948 345.386 124.357 343.394 120.693C341.401 117.029 323.975 129.834 323.614 146.194" stroke="black" stroke-width="4"/>
        <path fill-rule="evenodd" clip-rule="evenodd" d="M265 241L273.583 256.502V280.562L276.804 282.592L289.229 271.482L296.488 287L336 248.951L265 241Z" fill="#FFC43C" stroke="black" stroke-width="4"/>
        <path fill-rule="evenodd" clip-rule="evenodd" d="M314.603 254.702L273.753 256.635V281.027L276.966 283.085L289.361 271.822L314.603 254.702Z" fill="black" stroke="black" stroke-width="4"/>
        <path fill-rule="evenodd" clip-rule="evenodd" d="M229 42C238.941 42 247 50.0589 247 60V63.2306C247 73.1718 238.941 81.2306 229 81.2306L169.283 81.23L163.651 90L158.875 81.23L140 81.2306C130.059 81.2306 122 73.1718 122 63.2306V60C122 50.0589 130.059 42 140 42H229Z" fill="#FFC43C" stroke="black" stroke-width="4"/>
        <path d="M139.609 70.6981C135.353 70.6981 133.225 67.6271 133.225 61.4851C133.225 55.1724 135.353 52.0161 139.609 52.0161C143.864 52.0161 145.992 55.1724 145.992 61.4851C145.992 67.6271 143.864 70.6981 139.609 70.6981ZM139.581 63.8267C139.077 63.8267 138.669 63.6134 138.357 63.1869C138.045 62.7604 137.889 62.1931 137.889 61.4851C137.889 60.7774 138.045 60.2102 138.357 59.7835C138.669 59.3568 139.077 59.1434 139.581 59.1434C140.092 59.1434 140.505 59.3568 140.819 59.7835C141.133 60.2102 141.29 60.7774 141.29 61.4851C141.29 62.1931 141.133 62.7604 140.819 63.1869C140.505 63.6134 140.092 63.8267 139.581 63.8267ZM139.609 67.4736C141.545 67.4736 142.514 65.4774 142.514 61.4851C142.514 57.3221 141.545 55.2406 139.609 55.2406C137.638 55.2406 136.653 57.3221 136.653 61.4851C136.653 65.4774 137.638 67.4736 139.609 67.4736Z" fill="black"/>
        <path d="M154.898 70.6981C150.642 70.6981 148.515 67.6271 148.515 61.4851C148.515 55.1724 150.642 52.0161 154.898 52.0161C159.153 52.0161 161.281 55.1724 161.281 61.4851C161.281 67.6271 159.153 70.6981 154.898 70.6981ZM154.87 63.8267C154.366 63.8267 153.958 63.6134 153.646 63.1869C153.334 62.7604 153.178 62.1931 153.178 61.4851C153.178 60.7774 153.334 60.2102 153.646 59.7835C153.958 59.3568 154.366 59.1434 154.87 59.1434C155.381 59.1434 155.794 59.3568 156.108 59.7835C156.423 60.2102 156.58 60.7774 156.58 61.4851C156.58 62.1931 156.423 62.7604 156.108 63.1869C155.794 63.6134 155.381 63.8267 154.87 63.8267ZM154.898 67.4736C156.835 67.4736 157.803 65.4774 157.803 61.4851C157.803 57.3221 156.835 55.2406 154.898 55.2406C152.927 55.2406 151.942 57.3221 151.942 61.4851C151.942 65.4774 152.927 67.4736 154.898 67.4736Z" fill="black"/>
        <path d="M168.888 70.4422V52.272H172.251V70.4422H168.888ZM164.492 70.4422V67.448H169.142V70.4422H164.492ZM171.996 70.4422V67.448H176.163V70.4422H171.996ZM164.747 57.0321V53.8075L168.888 52.272V55.5477L164.747 57.0321Z" fill="black"/>
        <path d="M185.477 70.6981C181.221 70.6981 179.093 67.6271 179.093 61.4851C179.093 55.1724 181.221 52.0161 185.477 52.0161C189.732 52.0161 191.86 55.1724 191.86 61.4851C191.86 67.6271 189.732 70.6981 185.477 70.6981ZM185.448 63.8267C184.945 63.8267 184.537 63.6134 184.225 63.1869C183.913 62.7604 183.757 62.1931 183.757 61.4851C183.757 60.7774 183.913 60.2102 184.225 59.7835C184.537 59.3568 184.945 59.1434 185.448 59.1434C185.96 59.1434 186.373 59.3568 186.687 59.7835C187.001 60.2102 187.158 60.7774 187.158 61.4851C187.158 62.1931 187.001 62.7604 186.687 63.1869C186.373 63.6134 185.96 63.8267 185.448 63.8267ZM185.477 67.4736C187.413 67.4736 188.382 65.4774 188.382 61.4851C188.382 57.3221 187.413 55.2406 185.477 55.2406C183.506 55.2406 182.521 57.3221 182.521 61.4851C182.521 65.4774 183.506 67.4736 185.477 67.4736Z" fill="black"/>
        <path d="M200.766 70.6981C196.51 70.6981 194.383 67.6271 194.383 61.4851C194.383 55.1724 196.51 52.0161 200.766 52.0161C205.021 52.0161 207.149 55.1724 207.149 61.4851C207.149 67.6271 205.021 70.6981 200.766 70.6981ZM200.738 63.8267C200.234 63.8267 199.826 63.6134 199.514 63.1869C199.202 62.7604 199.046 62.1931 199.046 61.4851C199.046 60.7774 199.202 60.2102 199.514 59.7835C199.826 59.3568 200.234 59.1434 200.738 59.1434C201.249 59.1434 201.662 59.3568 201.976 59.7835C202.291 60.2102 202.448 60.7774 202.448 61.4851C202.448 62.1931 202.291 62.7604 201.976 63.1869C201.662 63.6134 201.249 63.8267 200.738 63.8267ZM200.766 67.4736C202.702 67.4736 203.671 65.4774 203.671 61.4851C203.671 57.3221 202.702 55.2406 200.766 55.2406C198.795 55.2406 197.81 57.3221 197.81 61.4851C197.81 65.4774 198.795 67.4736 200.766 67.4736Z" fill="black"/>
        <path d="M214.756 70.4422V52.272H218.119V70.4422H214.756ZM210.36 70.4422V67.448H215.01V70.4422H210.36ZM217.864 70.4422V67.448H222.031V70.4422H217.864ZM210.615 57.0321V53.8075L214.756 52.272V55.5477L210.615 57.0321Z" fill="black"/>
        <path d="M230.045 70.4422V52.272H233.408V70.4422H230.045ZM225.649 70.4422V67.448H230.3V70.4422H225.649ZM233.154 70.4422V67.448H237.32V70.4422H233.154ZM225.904 57.0321V53.8075L230.045 52.272V55.5477L225.904 57.0321Z" fill="black"/>
        <path d="M39.0432 274.454L14.4017 256.72" stroke="black" stroke-width="4"/>
        <path d="M41.9726 283.943L30.0252 304.594" stroke="black" stroke-width="4"/>
        <path d="M75.1738 273.265L55.4003 275.21" stroke="black" stroke-width="4"/>
        <path d="M10.7882 262.5C15.6418 262.5 19.5765 258.582 19.5765 253.75C19.5765 248.918 15.6418 245 10.7882 245C5.93463 245 2 248.918 2 253.75C2 258.582 5.93463 262.5 10.7882 262.5Z" fill="#FFF9EA" stroke="black" stroke-width="4"/>
        <path d="M28.8529 315C32.8976 315 36.1765 311.735 36.1765 307.708C36.1765 303.681 32.8976 300.417 28.8529 300.417C24.8083 300.417 21.5294 303.681 21.5294 307.708C21.5294 311.735 24.8083 315 28.8529 315Z" fill="black" stroke="black" stroke-width="4"/>
        <path d="M77.6765 281.944C81.7212 281.944 85 278.68 85 274.653C85 270.626 81.7212 267.361 77.6765 267.361C73.6318 267.361 70.353 270.626 70.353 274.653C70.353 278.68 73.6318 281.944 77.6765 281.944Z" fill="#FFF9EA" stroke="black" stroke-width="4"/>
        <path d="M44.4765 286.806C50.139 286.806 54.7294 282.235 54.7294 276.597C54.7294 270.959 50.139 266.389 44.4765 266.389C38.8139 266.389 34.2235 270.959 34.2235 276.597C34.2235 282.235 38.8139 286.806 44.4765 286.806Z" fill="#FFC43C" stroke="black" stroke-width="4"/>
        <path d="M138 230H113C106.373 230 101 235.373 101 242V267C101 273.627 106.373 279 113 279H138C144.627 279 150 273.627 150 267V242C150 235.373 144.627 230 138 230Z" fill="#3A5AFF" stroke="black" stroke-width="4"/>
        <path d="M131.202 239.8L123.07 270.18H118.983L127.116 239.8H131.202ZM116.974 243.851V249.112L107.917 254.294V254.673L116.974 259.855V265.117L104.92 257.026V251.941L116.974 243.851ZM133.046 243.851L145.1 251.941V257.026L133.046 265.117V259.855L141.867 254.673V254.294L133.046 249.112V243.851Z" fill="black"/>
        <path fill-rule="evenodd" clip-rule="evenodd" d="M52.8967 172L43 187.366L63 191L52.8967 172Z" fill="#3A5AFF" stroke="black" stroke-width="4"/>
        <path fill-rule="evenodd" clip-rule="evenodd" d="M83.5 99.25L73.2138 104.658L75.1782 93.2039L66.8565 85.0922L78.3569 83.4211L83.5 73L88.6431 83.4211L100.143 85.0922L91.8217 93.2039L93.7862 104.658L83.5 99.25Z" fill="#FFC43C" stroke="black" stroke-width="4"/>
        <path fill-rule="evenodd" clip-rule="evenodd" d="M365.778 192.225L351.925 180.73L345.974 199.792L365.778 192.225Z" fill="#FFC43C" stroke="black" stroke-width="4"/>
        <path fill-rule="evenodd" clip-rule="evenodd" d="M228.381 120.836L146 181.031L146.979 189.867L178.155 220L257 150.486L256.021 141.649L228.381 120.836Z" fill="#FFF9E9" stroke="black" stroke-width="4"/>
        <path fill-rule="evenodd" clip-rule="evenodd" d="M146.291 183.654L146.979 189.867L176.292 218.199C176.689 218.583 177.322 218.572 177.706 218.175C177.902 217.972 178.003 217.695 177.984 217.414L177.464 209.53L147.956 182.803C147.546 182.432 146.914 182.463 146.543 182.872C146.351 183.085 146.259 183.369 146.291 183.654Z" fill="#FFF9E9" stroke="black" stroke-width="4"/>
        <path fill-rule="evenodd" clip-rule="evenodd" d="M227.402 112L146 181.031L177.176 211.164L256.021 141.649L227.402 112Z" fill="#FFC43C" stroke="black" stroke-width="4"/>
        <path d="M153.968 187.202L233.596 120.438" stroke="black" stroke-width="4"/>
        <path d="M160.821 194.074L240.448 127.311" stroke="black" stroke-width="4"/>
        <path d="M168.653 201.929L248.28 135.165" stroke="black" stroke-width="4"/>
        <path d="M188.232 199.965L156.905 170.511" stroke="black" stroke-width="4"/>
        <path d="M199.98 192.111L168.653 162.656" stroke="black" stroke-width="4"/>
        <path d="M246.971 148.911L215.644 119.456" stroke="black" stroke-width="4"/>
        <path d="M237.181 156.765L206.833 128.292" stroke="black" stroke-width="4"/>
        <path d="M228.37 164.62L198.022 136.147" stroke="black" stroke-width="4"/>
        <path d="M201.938 176.401L178.443 153.82" stroke="black" stroke-width="4"/>
        <path d="M211.728 167.565L188.232 144.983" stroke="black" stroke-width="4"/>
        <path d="M346 245C370.537 235.213 385.87 219.879 392 199" stroke="black" stroke-width="4"/>
        <path d="M11 116C12.9636 88.4179 20.6302 66.4179 34 50" stroke="black" stroke-width="4"/>
        <path fill-rule="evenodd" clip-rule="evenodd" d="M106 301C127.429 321.282 148.559 333.494 169.389 337.636C190.218 341.777 204.597 344.899 212.525 347C226.896 345.663 238.089 343.893 246.106 341.691C254.122 339.489 265.42 335.081 280 328.466C229.46 332.919 193.987 332.325 173.579 326.684C153.171 321.042 130.645 312.481 106 301Z" fill="black" stroke="black" stroke-width="4"/>
        <path d="M39 84C85.4567 41.7765 127.074 22.216 163.851 25.3186C200.628 28.4211 236.344 30.877 271 32.6861" stroke="black" stroke-width="4"/>
        <path fill-rule="evenodd" clip-rule="evenodd" d="M208.5 314.25L198.214 319.658L200.178 308.204L191.857 300.092L203.357 298.421L208.5 288L213.643 298.421L225.143 300.092L216.822 308.204L218.786 319.658L208.5 314.25Z" fill="#FFF9E9" stroke="black" stroke-width="4"/>
    </g>
    <defs>
        <clipPath id="clip0_894_320">
            <rect width="394" height="351" fill="white"/>
        </clipPath>
    </defs>
</svg>
