<svg viewBox="0 0 368 188" fill="none" xmlns="http://www.w3.org/2000/svg">
    <path d="M184 186H186V184L186 4V2H184H44C20.804 2 2 20.804 2 44V184V186H4L184 186Z" fill="#A9B4EE" stroke="#FFF4CC" stroke-width="4"/>
    <rect x="186" y="186" width="184" height="94" transform="rotate(180 186 186)" fill="black" stroke="#FFF4CC" stroke-width="4"/>
    <path d="M2 94V96H4L184 96H186V94C186 43.1898 144.81 2 94 2C43.1898 2 2 43.1898 2 94Z" fill="black" stroke="#FFF4CC" stroke-width="4"/>
    <path d="M364 186H366V184V44C366 20.804 347.196 2 324 2H184H182V4V184V186H184H364Z" fill="#3A5AFF" stroke="#FFF4CC" stroke-width="4"/>
</svg>
