<svg width="44" height="44" viewBox="0 0 44 44" fill="none" xmlns="http://www.w3.org/2000/svg">
    <rect width="44" height="44" rx="22" fill="#FFC43B"/>
    <path d="M30.3923 12.3379C30.0018 11.9474 29.3687 11.9474 28.9782 12.3378L21.9064 19.4079L14.8365 12.338C14.446 11.9474 13.8129 11.9474 13.4223 12.338L12.2442 13.5161C11.8537 13.9066 11.8537 14.5398 12.2442 14.9303L19.3141 22.0002L12.2442 29.0701C11.8537 29.4606 11.8537 30.0938 12.2442 30.4843L13.4223 31.6624C13.8129 32.0529 14.446 32.0529 14.8365 31.6624L21.9064 24.5925L28.9782 31.6626C29.3687 32.053 30.0018 32.053 30.3923 31.6625L31.5705 30.4843C31.961 30.0938 31.961 29.4606 31.5705 29.0701L24.5006 22.0002L31.5705 14.9303C31.961 14.5398 31.961 13.9066 31.5705 13.5161L30.3923 12.3379Z" fill="black"/>
</svg>
