<svg width="48" height="48" viewBox="0 0 48 48" fill="none" xmlns="http://www.w3.org/2000/svg">
    <circle cx="24" cy="24" r="24" fill="url(#paint0_angular_2699_3079)"/>
    <path d="M33.241 15.5219C31.5413 14.7421 29.7187 14.1675 27.8131 13.8384C27.7784 13.8321 27.7437 13.8479 27.7258 13.8797C27.4914 14.2966 27.2318 14.8405 27.0499 15.268C25.0003 14.9611 22.9612 14.9611 20.9535 15.268C20.7717 14.831 20.5026 14.2966 20.2671 13.8797C20.2493 13.849 20.2146 13.8331 20.1799 13.8384C18.2753 14.1664 16.4527 14.741 14.752 15.5219C14.7373 15.5283 14.7246 15.5389 14.7163 15.5526C11.2592 20.7175 10.3121 25.7554 10.7767 30.7308C10.7788 30.7551 10.7925 30.7784 10.8114 30.7932C13.0923 32.4683 15.3017 33.4852 17.4701 34.1592C17.5049 34.1698 17.5416 34.1571 17.5637 34.1285C18.0766 33.428 18.5339 32.6895 18.9259 31.9127C18.9491 31.8673 18.927 31.8133 18.8797 31.7953C18.1544 31.5202 17.4638 31.1847 16.7995 30.8038C16.747 30.7731 16.7428 30.698 16.7911 30.662C16.9309 30.5572 17.0707 30.4482 17.2042 30.3382C17.2284 30.3181 17.262 30.3139 17.2904 30.3266C21.6546 32.3191 26.3793 32.3191 30.692 30.3266C30.7204 30.3128 30.7541 30.3171 30.7793 30.3372C30.9128 30.4472 31.0526 30.5572 31.1934 30.662C31.2418 30.698 31.2386 30.7731 31.1861 30.8038C30.5218 31.1921 29.8312 31.5202 29.1049 31.7942C29.0576 31.8122 29.0365 31.8673 29.0597 31.9127C29.4601 32.6884 29.9174 33.427 30.4208 34.1275C30.4419 34.1571 30.4797 34.1698 30.5144 34.1592C32.6933 33.4852 34.9027 32.4683 37.1836 30.7932C37.2036 30.7784 37.2163 30.7562 37.2184 30.7319C37.7744 24.9797 36.2871 19.9831 33.2756 15.5537C33.2683 15.5389 33.2557 15.5283 33.241 15.5219ZM19.5776 27.7013C18.2637 27.7013 17.1811 26.495 17.1811 25.0136C17.1811 23.5322 18.2427 22.3259 19.5776 22.3259C20.923 22.3259 21.9952 23.5427 21.9741 25.0136C21.9741 26.495 20.9125 27.7013 19.5776 27.7013ZM28.4384 27.7013C27.1246 27.7013 26.0419 26.495 26.0419 25.0136C26.0419 23.5322 27.1035 22.3259 28.4384 22.3259C29.7839 22.3259 30.856 23.5427 30.835 25.0136C30.835 26.495 29.7839 27.7013 28.4384 27.7013Z" fill="white"/>
    <defs>
        <radialGradient id="paint0_angular_2699_3079" cx="0" cy="0" r="1" gradientUnits="userSpaceOnUse" gradientTransform="translate(23.28 24) rotate(90) scale(24 23.28)">
            <stop offset="0.0729167" stop-color="#5A5A5A"/>
            <stop offset="0.244792" stop-color="#1E1E1E"/>
            <stop offset="0.40625" stop-color="#3A3A3A"/>
            <stop offset="0.567708" stop-color="#1E1E1E"/>
            <stop offset="0.744792" stop-color="#5E5E5E"/>
            <stop offset="0.921875" stop-color="#1E1E1E"/>
        </radialGradient>
    </defs>
</svg>
