<svg width="49" height="48" viewBox="0 0 49 48" fill="none" xmlns="http://www.w3.org/2000/svg">
    <circle cx="24.5" cy="24" r="24" fill="black"/>
    <path fill-rule="evenodd" clip-rule="evenodd" d="M24.5 10.9956C17.1334 10.9956 11.1667 16.9623 11.1667 24.3289C11.1667 30.2289 14.9834 35.2123 20.2834 36.9789C20.95 37.0956 21.2 36.6956 21.2 36.3456C21.2 36.0289 21.1834 34.9789 21.1834 33.8623C17.8334 34.4789 16.9667 33.0456 16.7 32.2956C16.55 31.9123 15.9 30.7289 15.3334 30.4123C14.8667 30.1623 14.2 29.5456 15.3167 29.5289C16.3667 29.5123 17.1167 30.4956 17.3667 30.8956C18.5667 32.9123 20.4834 32.3456 21.25 31.9956C21.3667 31.1289 21.7167 30.5456 22.1 30.2123C19.1334 29.8789 16.0334 28.7289 16.0334 23.6289C16.0334 22.1789 16.55 20.9789 17.4 20.0456C17.2667 19.7123 16.8 18.3456 17.5334 16.5123C17.5334 16.5123 18.65 16.1623 21.2 17.8789C22.2667 17.5789 23.4 17.4289 24.5334 17.4289C25.6667 17.4289 26.8 17.5789 27.8667 17.8789C30.4167 16.1456 31.5334 16.5123 31.5334 16.5123C32.2667 18.3456 31.8 19.7123 31.6667 20.0456C32.5167 20.9789 33.0334 22.1623 33.0334 23.6289C33.0334 28.7456 29.9167 29.8789 26.95 30.2123C27.4334 30.6289 27.85 31.4289 27.85 32.6789C27.85 34.4623 27.8334 35.8956 27.8334 36.3456C27.8334 36.6956 28.0834 37.1123 28.75 36.9789C31.3969 36.0854 33.697 34.3842 35.3264 32.115C36.9559 29.8457 37.8326 27.1226 37.8334 24.3289C37.8334 16.9623 31.8667 10.9956 24.5 10.9956Z" fill="white"/>
</svg>
