<svg width="35" height="32" viewBox="0 0 35 32" fill="none" xmlns="http://www.w3.org/2000/svg">
    <path d="M20.118 10.9626H14.8954C13.2023 10.9626 11.6312 11.6181 10.417 12.7245L20.118 10.9626ZM20.118 10.9626L20.1183 10.9647C21.8114 10.9647 23.3827 11.6203 24.5969 12.7268C25.8033 13.8273 26.6548 15.376 26.908 17.1639M20.118 10.9626L26.908 17.1639M26.908 17.1639L27.8855 24.0879L27.8855 24.088C28.1266 25.7929 27.69 27.4375 26.7976 28.7168C25.898 30.0032 24.5427 30.9168 22.9452 31.1703C22.8154 31.19 22.6884 31.2056 22.5581 31.2173L26.908 17.1639ZM22.5574 31.2174L22.1769 31.251L22.1733 31.2513L21.6795 31.2913L21.6789 31.2913L21.203 31.3293L21.2001 31.3295L20.7439 31.3631L20.7421 31.3633L20.4115 31.3864L20.4105 31.3865L20.1973 31.4011L20.1933 31.4013L19.9854 31.4138L19.9848 31.4138L19.7815 31.4263L19.7769 31.4266L19.5788 31.4369L19.5778 31.4369L19.2854 31.4516L19.2824 31.4518L19.0003 31.4642L18.9973 31.4644L18.7236 31.4748L18.7225 31.4749L18.3724 31.4875L18.1237 31.4937L18.12 31.4938L17.8852 31.4979L17.7312 31.4978L17.7265 31.4979L17.5048 31.5H17.5025H17.2817L17.1287 31.4979L17.1267 31.4979L16.8897 31.4938L16.8859 31.4937L16.7237 31.4896L16.721 31.4895L16.3809 31.4792L16.3759 31.479L16.0164 31.4644L16.0146 31.4643L15.7313 31.4518L15.7283 31.4516L15.4359 31.4369L15.435 31.4369L15.2368 31.4266L15.2322 31.4263L15.0289 31.4138L15.0283 31.4138L14.8204 31.4013L14.8164 31.4011L14.6032 31.3865L14.6022 31.3864L14.2716 31.3633L14.2698 31.3631L13.8136 31.3295L13.8107 31.3293L13.3348 31.2913L13.3342 31.2913L12.8404 31.2513L12.8368 31.251L12.4556 31.2173C10.846 31.0751 9.43472 30.2593 8.45809 29.0371L8.45776 29.0367C7.48691 27.8244 6.95058 26.215 7.08419 24.4959C7.09615 24.3542 7.10961 24.2186 7.12825 24.0857C7.12825 24.0857 7.12826 24.0857 7.12826 24.0856C7.12828 24.0855 7.12829 24.0855 7.1283 24.0854L8.10569 17.1617C8.10571 17.1616 8.10572 17.1616 8.10573 17.1615C8.35902 15.3737 9.2105 13.8251 10.4168 12.7246L22.5574 31.2174Z" fill="url(#paint0_angular_2678_633)" stroke="#1E1E1E"/>
    <path d="M13.9246 21.741C13.9246 21.741 13.9246 21.741 13.9246 21.741C13.9256 21.741 13.9325 21.7409 13.9487 21.7487C13.9671 21.7576 13.9977 21.777 14.0378 21.8171C14.1209 21.8999 14.2186 22.045 14.3115 22.2641C14.4964 22.7004 14.6228 23.3379 14.6228 24.0681C14.6228 24.7983 14.4964 25.4358 14.3115 25.872C14.2186 26.0911 14.1209 26.2362 14.0378 26.3191C13.9977 26.3592 13.9671 26.3786 13.9487 26.3875C13.9325 26.3953 13.9256 26.3952 13.9246 26.3952L13.9246 26.3952L13.9245 26.3952C13.9236 26.3952 13.9167 26.3953 13.9005 26.3875C13.8821 26.3786 13.8515 26.3592 13.8113 26.3191C13.7283 26.2362 13.6305 26.0911 13.5376 25.872C13.3527 25.4358 13.2263 24.7983 13.2263 24.0681C13.2263 23.3379 13.3527 22.7004 13.5376 22.2641C13.6305 22.045 13.7283 21.8999 13.8113 21.8171C13.8515 21.777 13.8821 21.7576 13.9005 21.7487C13.9167 21.7409 13.9236 21.741 13.9245 21.741C13.9245 21.741 13.9246 21.741 13.9246 21.741ZM21.1141 21.741L21.1142 21.741C21.1151 21.741 21.122 21.7409 21.1382 21.7487C21.1566 21.7576 21.1872 21.777 21.2273 21.8171C21.3104 21.8999 21.4082 22.045 21.501 22.2641C21.6859 22.7004 21.8123 23.3379 21.8123 24.0681C21.8123 24.7983 21.6859 25.4358 21.501 25.872C21.4082 26.0911 21.3104 26.2362 21.2273 26.3191C21.1872 26.3592 21.1566 26.3786 21.1382 26.3875C21.122 26.3953 21.1151 26.3952 21.1142 26.3952L21.1141 26.3952L21.114 26.3952C21.1131 26.3952 21.1062 26.3953 21.09 26.3875C21.0716 26.3786 21.041 26.3592 21.0009 26.3191C20.9178 26.2362 20.82 26.0911 20.7272 25.872C20.5422 25.4358 20.4158 24.7983 20.4158 24.0681C20.4158 23.3379 20.5422 22.7004 20.7272 22.2641C20.82 22.045 20.9178 21.8999 21.0009 21.8171C21.041 21.777 21.0716 21.7576 21.09 21.7487C21.1062 21.7409 21.1131 21.741 21.114 21.741L21.1141 21.741Z" fill="#1E1E1E" stroke="#1E1E1E"/>
    <path d="M14.6101 0.80887L14.6098 0.808937C14.6071 0.809498 14.6035 0.81021 14.5992 0.811079C14.269 0.8775 9.37432 1.86213 5.03527 6.40996C0.156828 11.5268 0.284043 15.4116 0.664699 17.0988L14.6101 0.80887ZM14.6101 0.80887C18.1258 0.0886574 23.7472 0.337301 29.0461 4.75429L29.0461 4.75433M14.6101 0.80887L29.0461 4.75433M29.0461 4.75433C31.81 7.05761 33.1027 8.47995 33.7115 9.62562C34.2947 10.7231 34.2686 11.593 34.2244 12.94C34.0156 14.0519 33.7527 14.7213 33.4889 15.0464L33.4884 15.047M29.0461 4.75433L33.4884 15.047M33.4884 15.047C33.0644 15.5713 32.43 16.054 31.576 16.4658C29.9693 17.2405 27.5899 17.7514 24.6321 17.9658M33.4884 15.047L33.8772 15.3614C33.3951 15.9575 32.6949 16.4814 31.7931 16.9162C30.1039 17.7306 27.652 18.2482 24.6683 18.4645M24.6683 18.4645L24.6324 17.9658C24.6323 17.9658 24.6322 17.9658 24.6321 17.9658M24.6683 18.4645C21.9567 18.6597 20.3693 18.5557 19.0374 18.4666L24.6683 18.4645ZM24.6321 17.9658C21.9535 18.1586 20.3919 18.0561 19.0707 17.9678L19.0697 17.9677C18.9208 17.958 18.2022 17.9364 17.3531 17.9473C16.5086 17.9582 15.4922 18.0016 14.7648 18.1314M24.6321 17.9658L14.7648 18.1314M14.7648 18.1314C13.3721 18.379 12.2834 18.709 11.3092 19.0042L11.2607 19.0189C9.61156 19.518 8.26518 19.913 6.32019 19.8441C4.55189 19.7811 3.2678 19.5588 2.39593 19.156L2.39537 19.1557C1.42011 18.7066 0.87924 18.0489 0.664714 17.0988L14.7648 18.1314ZM2.18623 19.6099C1.08083 19.1008 0.428392 18.3224 0.176975 17.2089L2.18623 19.6099Z" fill="url(#paint1_angular_2678_633)" stroke="url(#paint2_angular_2678_633)"/>
    <mask id="mask0_2678_633" style="mask-type:luminance" maskUnits="userSpaceOnUse" x="0" y="0" width="35" height="21">
        <path d="M14.6101 0.80887L14.6098 0.808937C14.6071 0.809498 14.6035 0.81021 14.5992 0.811079C14.269 0.8775 9.37432 1.86213 5.03527 6.40996C0.156828 11.5268 0.284043 15.4116 0.664699 17.0988L14.6101 0.80887ZM14.6101 0.80887C18.1258 0.0886574 23.7472 0.337301 29.0461 4.75429L29.0461 4.75433M14.6101 0.80887L29.0461 4.75433M29.0461 4.75433C31.81 7.05761 33.1027 8.47995 33.7115 9.62562C34.2947 10.7231 34.2686 11.593 34.2244 12.94C34.0156 14.0519 33.7527 14.7213 33.4889 15.0464L33.4884 15.047M29.0461 4.75433L33.4884 15.047M33.4884 15.047C33.0644 15.5713 32.43 16.054 31.576 16.4658C29.9693 17.2405 27.5899 17.7514 24.6321 17.9658M33.4884 15.047L33.8772 15.3614C33.3951 15.9575 32.6949 16.4814 31.7931 16.9162C30.1039 17.7306 27.652 18.2482 24.6683 18.4645M24.6683 18.4645L24.6324 17.9658C24.6323 17.9658 24.6322 17.9658 24.6321 17.9658M24.6683 18.4645C21.9567 18.6597 20.3693 18.5557 19.0374 18.4666L24.6683 18.4645ZM24.6321 17.9658C21.9535 18.1586 20.3919 18.0561 19.0707 17.9678L19.0697 17.9677C18.9208 17.958 18.2022 17.9364 17.3531 17.9473C16.5086 17.9582 15.4922 18.0016 14.7648 18.1314M24.6321 17.9658L14.7648 18.1314M14.7648 18.1314C13.3721 18.379 12.2834 18.709 11.3092 19.0042L11.2607 19.0189C9.61156 19.518 8.26518 19.913 6.32019 19.8441C4.55189 19.7811 3.2678 19.5588 2.39593 19.156L2.39537 19.1557C1.42011 18.7066 0.87924 18.0489 0.664714 17.0988L14.7648 18.1314ZM2.18623 19.6099C1.08083 19.1008 0.428392 18.3224 0.176975 17.2089L2.18623 19.6099Z" fill="url(#paint3_angular_2678_633)" stroke="#1E1E1E"/>
    </mask>
    <g mask="url(#mask0_2678_633)">
        <path fill-rule="evenodd" clip-rule="evenodd" d="M18.9273 9.62173C21.417 9.62173 23.4353 10.9465 23.4353 12.5807C23.4353 14.2148 21.417 15.5396 18.9273 15.5396C16.4376 15.5396 14.4193 14.2148 14.4193 12.5807C14.4193 10.9465 16.4376 9.62173 18.9273 9.62173ZM31.1108 4.0061C33.6412 4.0061 35.6925 6.08969 35.6925 8.65992C35.6925 11.2302 33.6412 13.3137 31.1108 13.3137C28.5804 13.3137 26.5291 11.2302 26.5291 8.65992C26.5291 6.08969 28.5804 4.0061 31.1108 4.0061ZM5.68214 1.68347C8.82987 1.68347 11.3816 4.27538 11.3816 7.47267C11.3816 10.67 8.82987 13.2619 5.68214 13.2619C2.53441 13.2619 -0.017334 10.67 -0.017334 7.47267C-0.017334 4.27538 2.53441 1.68347 5.68214 1.68347Z" fill="white"/>
    </g>
    <defs>
        <radialGradient id="paint0_angular_2678_633" cx="0" cy="0" r="1" gradientUnits="userSpaceOnUse" gradientTransform="translate(17.5 17) rotate(91.225) scale(15.0034 14.7897)">
            <stop offset="0.0729167" stop-color="white"/>
            <stop offset="0.244792" stop-color="#DBE1E3"/>
            <stop offset="0.434957" stop-color="white"/>
            <stop offset="0.532623" stop-color="#CED2D5"/>
            <stop offset="0.658692" stop-color="#E3E9EE"/>
            <stop offset="0.708863" stop-color="white"/>
            <stop offset="0.861413" stop-color="#D6DFE6"/>
            <stop offset="0.921875" stop-color="#D8D8D8"/>
        </radialGradient>
        <radialGradient id="paint1_angular_2678_633" cx="0" cy="0" r="1" gradientUnits="userSpaceOnUse" gradientTransform="translate(16.8515 10.1759) rotate(90) scale(10.1759 16.8515)">
            <stop offset="0.0729167" stop-color="#5A5A5A"/>
            <stop offset="0.244792" stop-color="#1E1E1E"/>
            <stop offset="0.40625" stop-color="#3A3A3A"/>
            <stop offset="0.567708" stop-color="#1E1E1E"/>
            <stop offset="0.744792" stop-color="#5E5E5E"/>
            <stop offset="0.921875" stop-color="#1E1E1E"/>
        </radialGradient>
        <radialGradient id="paint2_angular_2678_633" cx="0" cy="0" r="1" gradientUnits="userSpaceOnUse" gradientTransform="translate(16.8515 10.1759) rotate(90) scale(10.1759 16.8515)">
            <stop offset="0.0729167" stop-color="#5A5A5A"/>
            <stop offset="0.244792" stop-color="#1E1E1E"/>
            <stop offset="0.40625" stop-color="#3A3A3A"/>
            <stop offset="0.567708" stop-color="#1E1E1E"/>
            <stop offset="0.744792" stop-color="#5E5E5E"/>
            <stop offset="0.921875" stop-color="#1E1E1E"/>
        </radialGradient>
        <radialGradient id="paint3_angular_2678_633" cx="0" cy="0" r="1" gradientUnits="userSpaceOnUse" gradientTransform="translate(17.3606 18.462) rotate(105.079) scale(1.95729 3.09966)">
            <stop offset="0.0729167" stop-color="white"/>
            <stop offset="0.244792" stop-color="#DBE1E3"/>
            <stop offset="0.434957" stop-color="white"/>
            <stop offset="0.532623" stop-color="#CED2D5"/>
            <stop offset="0.658692" stop-color="#E3E9EE"/>
            <stop offset="0.708863" stop-color="white"/>
            <stop offset="0.861413" stop-color="#D6DFE6"/>
            <stop offset="0.921875" stop-color="#D8D8D8"/>
        </radialGradient>
    </defs>
</svg>
