<svg xmlns="http://www.w3.org/2000/svg" width="257" height="94" viewBox="0 0 257 94" fill="none">
    <path fill-rule="evenodd" clip-rule="evenodd" d="M27 0C12.0883 0 0 12.0883 0 27V29C0 43.9117 12.0883 56 27 56H186.002C186.207 56 186.401 56.0938 186.529 56.2547C190.513 61.2719 194.444 66.2227 200.347 65.5947C203.105 65.3013 206.092 62.827 209.034 60.39C210.118 59.4923 211.195 58.5997 212.253 57.823C214.118 56.454 216.439 56 218.752 56C221.271 56 223.911 56.4607 225.553 58.3699C229.032 62.4135 230.5 69.5489 230.5 75.1391C230.5 77.3241 230.286 79.6035 230.074 81.8615C229.914 83.5653 229.755 85.2569 229.69 86.8865C229.334 95.8279 240.951 95.9209 240.166 87.0069C240.048 85.6669 239.865 84.2778 239.679 82.8633C239.345 80.3245 239 77.7039 239 75.1391C239 70.8008 241.066 63.7736 243.32 57.3982C244.818 53.1599 247.881 49.7219 250.757 46.2675C254.655 41.5869 257 35.5673 257 29V27C257 12.0883 244.912 0 230 0H27Z" fill="url(#paint0_angular_2690_2591)"/>
    <defs>
        <radialGradient id="paint0_angular_2690_2591" cx="0" cy="0" r="1" gradientUnits="userSpaceOnUse" gradientTransform="translate(133 28) rotate(106.553) scale(68.4807 165.99)">
            <stop offset="0.0729167" stop-color="#5A5A5A"/>
            <stop offset="0.244792"/>
            <stop offset="0.40625" stop-color="#3A3A3A"/>
            <stop offset="0.567708"/>
            <stop offset="0.744792" stop-color="#5E5E5E"/>
            <stop offset="0.921875"/>
        </radialGradient>
    </defs>
</svg>