<svg width="117" height="122" viewBox="0 0 117 122" fill="none" xmlns="http://www.w3.org/2000/svg">
    <path d="M18.9918 73.3248C15.6319 83.0058 9.85902 99.6293 17.4317 107.333C21.3452 111.313 25.3879 109.417 43.9916 111.033C66.4417 112.982 71.4038 116.692 75.3147 112.916C79.2256 109.14 75.6196 104.241 70.8495 76.0515C68.0622 59.5746 67.7864 52.3827 61.1969 45.5171C58.91 43.1355 54.0894 38.1153 47.5899 37.9442C31.4307 37.5064 20.935 67.7314 18.9918 73.3248Z" fill="#FFF9EA"/>
    <path opacity="0.3" d="M47.6085 37.946C36.3444 37.6495 27.84 52.1997 23.0554 62.9588C32.2587 63.3806 41.9858 64.0826 52.1828 65.154C58.1165 65.7805 63.8625 66.4879 69.4208 67.2762C67.7055 56.741 66.4618 51.0157 61.1968 45.5171C58.91 43.1354 54.0894 38.1153 47.6085 37.946Z" fill="#FFF4CC"/>
    <path d="M18.9918 73.3248C15.6319 83.0058 9.85902 99.6293 17.4317 107.333C21.3452 111.313 25.3879 109.417 43.9916 111.033C66.4417 112.982 71.4038 116.692 75.3147 112.916C79.2256 109.14 75.6196 104.241 70.8495 76.0515C68.0622 59.5746 67.7864 52.3827 61.1969 45.5171C58.91 43.1355 54.0894 38.1153 47.5899 37.9442C31.4307 37.5064 20.935 67.7314 18.9918 73.3248Z" stroke="black" stroke-width="4" stroke-miterlimit="10"/>
    <path d="M52.4502 7.74277C42.225 6.53351 33.915 14.8826 27.1468 21.682C25.2934 23.5292 4.36364 44.9307 11.6958 54.9712C15.2787 59.8753 22.2482 57.4816 49.418 59.8662C73.9615 62.0178 80.0086 65.0019 83.9046 61.1063C91.7464 53.2691 76.9526 31.4807 73.3176 26.1394C66.9721 16.8222 61.5376 8.81862 52.4502 7.74277Z" fill="#FFC43B"/>
    <path d="M23.3262 33.7531C25.3076 35.1265 27.6663 35.9833 30.1356 36.2266C38.3149 37.0156 45.5983 30.8602 46.4071 22.4763C46.8828 17.545 45.0012 12.957 41.7136 9.84057C36.1963 12.5905 31.371 17.4365 27.1469 21.682C24.4856 24.3932 21.9889 27.2317 19.6672 30.1855C20.6525 31.5509 21.8904 32.7579 23.3262 33.7531Z" fill="white"/>
    <path d="M52.4502 7.74277C42.225 6.53351 33.915 14.8826 27.1468 21.682C25.2934 23.5292 4.36364 44.9307 11.6958 54.9711C15.2787 59.8753 22.2482 57.4816 49.418 59.8662C73.9615 62.0178 80.0086 65.0019 83.9046 61.1063C91.7464 53.2691 76.9526 31.4807 73.3176 26.1394C66.9721 16.8222 61.5376 8.81862 52.4502 7.74277Z" stroke="black" stroke-width="4" stroke-miterlimit="10"/>
    <path d="M71.1726 44.0719C73.5283 44.2991 75.6029 42.7743 75.8062 40.6661C76.0096 38.5579 74.2648 36.6646 71.9091 36.4374C69.5534 36.2101 67.4789 37.735 67.2756 39.8432C67.0722 41.9514 68.817 43.8446 71.1726 44.0719Z" fill="white"/>
    <path d="M65.3745 56.6951C69.8051 57.1225 73.6478 54.8672 73.9574 51.6578C74.267 48.4483 70.9263 45.5001 66.4957 45.0727C62.0651 44.6453 58.2224 46.9006 57.9128 50.11C57.6032 53.3194 60.9439 56.2677 65.3745 56.6951Z" fill="white"/>
    <path d="M98.3266 99.2255C99.0496 104.286 100.291 112.972 95.8498 116.022C93.5548 117.597 91.7574 116.282 82.4949 115.301C71.3129 114.114 68.5385 115.457 66.9831 113.237C65.4277 111.017 67.6598 108.96 72.6823 95.6171C75.6156 87.8163 76.4393 84.3233 80.3174 81.5909C81.6652 80.6437 84.5029 78.645 87.6925 79.1789C95.6537 80.5074 97.9106 96.3017 98.3266 99.2255Z" fill="#FFF9EA"/>
    <path opacity="0.3" d="M87.6925 79.1789C93.236 80.1087 96.0098 88.0414 97.3255 93.7634C92.7796 93.0919 87.9524 92.5215 82.858 92.0605C79.8947 91.8016 77.016 91.605 74.2193 91.4568C76.063 86.4649 77.2236 83.781 80.3188 81.5775C81.6653 80.6437 84.503 78.645 87.6925 79.1789Z" fill="#FFF4CC"/>
    <path d="M98.3266 99.2255C99.0496 104.286 100.291 112.972 95.8498 116.022C93.5548 117.597 91.7574 116.282 82.4949 115.301C71.3129 114.114 68.5385 115.457 66.9831 113.237C65.4277 111.017 67.6598 108.96 72.6823 95.6171C75.6156 87.8163 76.4393 84.3233 80.3174 81.5909C81.6652 80.6437 84.5029 78.645 87.6925 79.1789C95.6537 80.5074 97.9106 96.3017 98.3266 99.2255Z" stroke="black" stroke-width="4" stroke-miterlimit="10"/>
    <path d="M88.201 63.935C93.3219 64.3176 96.5942 69.1951 99.2594 73.17C99.9887 74.2533 108.196 86.7215 103.65 90.9361C101.429 92.9943 98.2448 91.1575 84.7162 89.7343C72.4987 88.4476 69.2515 89.3331 67.7168 87.0544C64.6236 82.471 73.9566 73.2177 76.2392 70.9493C80.2277 66.995 83.6534 63.5943 88.201 63.935Z" fill="#3A5AFF"/>
    <path d="M102.109 78.0439C101.397 78.7411 100.513 79.2799 99.5253 79.6194C98.5373 79.9588 97.4712 80.09 96.4081 80.0028C92.3296 79.6093 89.3519 75.9015 89.755 71.723C89.8453 70.5894 90.2042 69.4913 90.8077 68.5015C91.4113 67.5117 92.2457 66.6531 93.2555 65.9827C95.6933 67.8555 97.5932 70.6895 99.2593 73.17C100.301 74.7514 101.252 76.3782 102.109 78.0439Z" fill="white"/>
    <path d="M88.201 63.935C93.3219 64.3176 96.5942 69.1951 99.2594 73.17C99.9887 74.2533 108.196 86.7215 103.65 90.9361C101.429 92.9943 98.2448 91.1575 84.7162 89.7343C72.4987 88.4476 69.2515 89.3331 67.7168 87.0544C64.6236 82.471 73.9566 73.2177 76.2392 70.9493C80.2277 66.995 83.6534 63.5943 88.201 63.935Z" stroke="black" stroke-width="4" stroke-miterlimit="10"/>
    <path d="M75.5725 79.9311C76.7473 80.0444 77.7818 79.284 77.8832 78.2326C77.9847 77.1813 77.1146 76.2372 75.9398 76.1238C74.7651 76.0105 73.7305 76.7709 73.6291 77.8223C73.5277 78.8736 74.3978 79.8177 75.5725 79.9311Z" fill="white"/>
    <path d="M77.2098 86.6633C79.4189 86.8765 81.3348 85.7521 81.4892 84.152C81.6435 82.5519 79.9778 81.082 77.7687 80.8689C75.5596 80.6558 73.6437 81.7802 73.4893 83.3803C73.335 84.9804 75.0007 86.4502 77.2098 86.6633Z" fill="white"/>
</svg>
