<svg xmlns="http://www.w3.org/2000/svg" width="137" height="137" viewBox="0 0 137 137" fill="none">
  <path d="M27.0361 91.0483C25.5669 102.217 23.0405 121.396 33.4227 127.815C38.7881 131.132 42.8916 128.13 64.2519 125.378C90.0285 122.058 96.5112 124.833 100.016 119.85C103.521 114.868 98.2817 110.493 86.1521 81.4773C79.0633 64.5169 77.0297 56.8874 67.9565 51.1275C64.8079 49.1297 58.1709 44.9187 50.8025 46.3008C32.4802 49.7239 27.887 84.5949 27.0361 91.0483Z" fill="#FAF1D8"/>
  <path opacity="0.3" d="M50.8241 46.2982C38.0542 48.6937 31.9515 66.3117 29.1346 78.9771C39.6111 77.2121 50.7453 75.6207 62.4978 74.3115C69.3373 73.5529 75.9846 72.926 82.4397 72.431C77.9825 61.5705 75.2091 55.7436 67.9566 51.1275C64.808 49.1297 58.1709 44.9187 50.8241 46.2982Z" fill="#EBD08F"/>
  <path d="M27.0361 91.0483C25.5669 102.217 23.0405 121.396 33.4227 127.815C38.7881 131.132 42.8916 128.13 64.2519 125.378C90.0285 122.058 96.5112 124.833 100.016 119.85C103.521 114.868 98.2817 110.493 86.1521 81.4773C79.0633 64.5169 77.0297 56.8874 67.9565 51.1275C64.8079 49.1297 58.1709 44.9187 50.8025 46.3008C32.4802 49.7239 27.887 84.5949 27.0361 91.0483Z" stroke="black" stroke-width="4" stroke-miterlimit="10"/>
  <path d="M49.0481 12.8123C37.2308 13.9808 29.8622 24.9163 23.8604 33.8222C22.2134 36.2452 3.74382 64.1871 14.4147 73.1654C19.6286 77.5504 26.9126 73.3105 58.1141 69.319C86.2992 65.7105 93.8312 67.4475 97.2905 62.3406C104.254 52.0656 82.3571 32.313 76.9797 27.4727C67.5944 19.0307 59.5506 11.775 49.0481 12.8123Z" fill="#FFC43B"/>
  <path d="M22.4443 47.6594C25.0071 48.6519 27.8715 49.0007 30.7135 48.6664C40.1236 47.5409 46.8604 39.2001 45.7641 30.0338C45.1192 24.6423 41.8991 20.1859 37.4464 17.6428C31.8849 21.9141 27.6057 28.2618 23.8604 33.8222C21.5095 37.3643 19.3747 41.003 17.4647 44.723C18.9026 45.9468 20.5873 46.9403 22.4443 47.6594Z" fill="white"/>
  <path d="M49.0481 12.8123C37.2308 13.9808 29.8622 24.9163 23.8604 33.8222C22.2134 36.2452 3.74382 64.1871 14.4147 73.1654C19.6286 77.5504 26.9126 73.3105 58.1141 69.319C86.2992 65.7105 93.8312 67.4475 97.2905 62.3406C104.254 52.0656 82.3571 32.313 76.9797 27.4727C67.5944 19.0307 59.5506 11.775 49.0481 12.8123Z" stroke="black" stroke-width="4" stroke-miterlimit="10"/>
  <path d="M78.8567 47.1786C81.5668 46.8544 83.5404 44.7231 83.2647 42.4182C82.989 40.1132 80.5685 38.5075 77.8583 38.8316C75.1482 39.1558 73.1747 41.2871 73.4503 43.592C73.726 45.8969 76.1465 47.5027 78.8567 47.1786Z" fill="white"/>
  <path d="M75.3435 62.0828C80.4408 61.4731 84.2327 58.1344 83.813 54.6255C83.3934 51.1165 78.921 48.7662 73.8237 49.3759C68.7264 49.9855 64.9345 53.3243 65.3541 56.8332C65.7738 60.3421 70.2462 62.6924 75.3435 62.0828Z" fill="white"/>
  <path d="M122.68 99.6581C124.707 104.899 128.186 113.895 123.91 118.228C121.7 120.466 119.359 119.492 108.682 120.673C95.7912 122.096 92.9851 124.201 90.6998 122.2C88.4146 120.199 90.4383 117.46 92.9046 101.973C94.3431 92.9188 94.4351 88.9826 98.1527 85.1247C99.4453 83.7866 102.166 80.9643 105.889 80.7676C115.183 80.2719 121.51 96.6296 122.68 99.6581Z" fill="#FAF1D8"/>
  <path opacity="0.3" d="M105.89 80.7676C112.362 80.4275 117.389 88.2481 120.243 94.0543C114.957 94.4305 109.378 94.9827 103.525 95.7162C100.122 96.1529 96.8293 96.6357 93.641 97.1506C94.5238 91.3649 95.1895 88.2134 98.1511 85.11C99.4454 83.7866 102.166 80.9643 105.89 80.7676Z" fill="#EBD08F"/>
  <path d="M122.68 99.6581C124.707 104.899 128.186 113.895 123.91 118.228C121.7 120.466 119.359 119.492 108.682 120.673C95.7912 122.096 92.9851 124.201 90.6998 122.2C88.4146 120.199 90.4383 117.46 92.9046 101.973C94.3431 92.9188 94.4351 88.9826 98.1527 85.1247C99.4453 83.7866 102.166 80.9643 105.889 80.7676C115.183 80.2719 121.51 96.6296 122.68 99.6581Z" stroke="black" stroke-width="4" stroke-miterlimit="10"/>
  <path d="M102.812 64.3329C108.676 63.509 113.534 67.9404 117.49 71.5519C118.572 72.5355 130.811 83.9011 126.696 89.5057C124.685 92.243 120.655 91.0444 105.062 92.7795C90.9804 94.345 87.5316 96.0745 85.2557 94.0057C80.6707 89.846 88.9761 77.6966 91.0062 74.7195C94.5556 69.5275 97.6031 65.0634 102.812 64.3329Z" fill="#3A5AFF"/>
  <path d="M121.871 76.081C121.235 76.9986 120.367 77.7881 119.335 78.3892C118.302 78.9904 117.132 79.3875 115.912 79.5502C111.22 80.1114 106.975 76.8609 106.429 72.2924C106.259 71.0577 106.401 69.7961 106.844 68.5916C107.287 67.3871 108.022 66.2674 109 65.3067C112.197 66.7238 115.018 69.2988 117.49 71.5519C119.043 72.9933 120.506 74.5051 121.871 76.081Z" fill="white"/>
  <path d="M102.812 64.3329C108.676 63.509 113.534 67.9404 117.49 71.5519C118.572 72.5355 130.811 83.9011 126.696 89.5057C124.685 92.243 120.655 91.0444 105.062 92.7795C90.9804 94.345 87.5316 96.0745 85.2557 94.0057C80.6707 89.846 88.9761 77.6966 91.0062 74.7195C94.5556 69.5275 97.6031 65.0634 102.812 64.3329Z" stroke="black" stroke-width="4" stroke-miterlimit="10"/>
  <path d="M92.406 84.4912C93.7576 84.3296 94.7417 83.2667 94.6043 82.1173C94.4668 80.9679 93.2597 80.1671 91.9082 80.3287C90.5567 80.4904 89.5725 81.5532 89.71 82.7027C89.8475 83.8521 91.0545 84.6529 92.406 84.4912Z" fill="white"/>
  <path d="M95.8641 91.3011C98.4056 90.9971 100.296 89.3325 100.087 87.5831C99.8778 85.8337 97.6479 84.662 95.1063 84.9659C92.5648 85.2699 90.6741 86.9345 90.8834 88.6839C91.0926 90.4333 93.3225 91.6051 95.8641 91.3011Z" fill="white"/>
</svg>