<svg width="159" height="136" viewBox="0 0 159 136" fill="none" xmlns="http://www.w3.org/2000/svg">
    <path d="M35.1827 76.0366C34.4283 77.0389 33.7615 78.1042 33.1897 79.2207C32.0745 81.4354 31.3237 83.8152 30.9662 86.2688C30.5363 89.1777 30.648 92.1411 31.2959 95.0095C32.2911 95.5483 33.7753 96.3195 35.6228 97.1447C39.8558 99.0076 44.2763 100.411 48.8086 101.332C60.6767 103.908 72.8503 104.812 73.3704 104.851C73.3704 104.851 88.3682 105.927 101.024 104.581C105.649 104.148 110.203 103.146 114.582 101.597C115.361 101.325 115.999 101.066 116.43 100.893C116.524 100.004 116.626 98.7872 116.673 97.3415C116.762 94.7972 116.645 92.2499 116.324 89.7243C115.47 83.5379 112.12 77.7246 111.059 75.9565L37.7505 72.2575C36.9022 73.5189 36.0462 74.7786 35.1827 76.0366Z" fill="#FCF0DF"/>
    <path d="M42.7864 68.5433C40.2876 70.3655 30.9383 77.6104 30.8575 88.0937C30.85 89.109 30.9498 92.2912 31.1669 94.1334C31.233 94.6948 31.5794 95.1731 32.0766 95.442C39.6784 99.5535 53.3685 103.336 71.6846 104.73C94.0856 106.431 107.165 104.404 115.334 101.335C116.026 101.076 116.494 100.44 116.548 99.7024C116.683 97.8278 116.843 94.7921 116.791 93.6445C116.339 83.4186 110.476 75.8361 106.926 72.0161L42.7864 68.5433Z" stroke="black" stroke-width="4" stroke-miterlimit="10"/>
    <path d="M61.2062 35.7933L54.3367 38.6734L44.562 44.5426L36.3773 51.5782L28.0007 62.2754L22.7745 72.421L35.1184 75.8795L43.9845 77.8795L56.1301 79.9828L71.2289 81.6022L82.3735 82.1074L94.2864 81.9992L105.954 81.247L124.325 78.7503L124.171 76.2371L119.303 63.3961L110.2 50.3395L98.6848 40.7198L90.9204 36.6361L81.6885 33.8738L72.4624 33.5639L61.2062 35.7933Z" fill="#FFC43B"/>
    <path d="M115.362 70.2608C117.407 69.4274 119.144 67.9814 120.334 66.1215L119.299 63.3958L110.2 50.3395L98.6815 40.7196L94.2244 38.3793C92.069 43.1791 92.0565 49.8854 94.6563 56.4558C98.8249 66.9572 108.089 73.1367 115.362 70.2608Z" fill="#FCF0DF"/>
    <path d="M59.0987 36.6922C59.4511 37.8938 60.0351 39.015 60.8179 39.9927C63.1829 42.9848 66.7101 44.1427 68.6961 42.5761C70.6822 41.0095 70.3794 37.4096 68.1018 34.4439L61.2049 35.8098L59.0987 36.6922Z" fill="#FCF0DF"/>
    <path d="M38.3546 76.423C39.2199 75.5467 39.8404 74.4591 40.1543 73.2685C40.4682 72.0779 40.4645 70.8259 40.1437 69.6371C39.8228 68.4483 39.196 67.3643 38.3256 66.4929C37.4552 65.6215 36.3717 64.9933 35.1828 64.6707C33.994 64.3481 32.7414 64.3425 31.5497 64.6543C30.3581 64.9662 29.269 65.5846 28.3909 66.4481C27.5128 67.3116 26.8764 68.3899 26.545 69.5758C26.2136 70.7616 26.1988 72.0136 26.5021 73.2069L36.3662 75.9709L38.3546 76.423Z" fill="#FCF0DF"/>
    <path d="M91.4837 82.0247C91.5611 80.8133 91.3919 79.5987 90.9864 78.4545C90.5808 77.3103 89.9473 76.2601 89.1242 75.3675C88.3011 74.4749 87.3054 73.7584 86.1974 73.2613C85.0894 72.7642 83.892 72.4969 82.6777 72.4754C81.4634 72.454 80.2574 72.679 79.1326 73.1367C78.0078 73.5944 76.9876 74.2753 76.1336 75.1383C75.2796 76.0014 74.6096 77.0286 74.164 78.1578C73.7185 79.287 73.5067 80.4949 73.5415 81.7083L82.3735 82.1074L91.4837 82.0247Z" fill="#FCF0DF"/>
    <path d="M60.0275 64.8807C62.3635 63.9568 63.3413 60.8947 62.2116 58.0413C61.0819 55.1879 58.2724 53.6236 55.9364 54.5475C53.6005 55.4713 52.6226 58.5334 53.7523 61.3868C54.8821 64.2402 57.6915 65.8045 60.0275 64.8807Z" fill="#FCF0DF"/>
    <path d="M79.1826 33.6969C64.5201 32.2165 53.5665 38.8764 48.2144 42.1331C34.5115 50.4668 25.5104 66.9797 23.3035 71.343C23.0196 71.9043 23.3216 72.5551 23.9332 72.7022C30.0308 74.169 58.7094 80.9113 74.2827 81.801C90.8251 82.7482 107.42 81.7632 123.732 78.8668C124.289 78.7679 124.652 78.2311 124.523 77.6805C122.976 71.0929 118.437 56.5092 104.9 45.3643C100.708 41.8959 92.1005 35.0018 79.1826 33.6969Z" stroke="black" stroke-width="4" stroke-miterlimit="10"/>
    <mask id="path-10-inside-1_823_2543" fill="white">
        <path fill-rule="evenodd" clip-rule="evenodd" d="M131.012 22.7763C127.147 20.6508 122.281 22.0528 120.136 25.9098L114.824 35.464C112.572 39.5142 114.225 44.6141 118.424 46.5722L118.968 46.8257L119.993 50.4273C120.16 51.0111 120.805 51.3122 121.362 51.0653L124.794 49.5425L143.918 58.4602C148.03 60.3779 152.923 58.4994 154.694 54.3222L158.252 45.9324C159.85 42.1624 158.34 37.8016 154.752 35.8288L131.012 22.7763Z"/>
    </mask>
    <path fill-rule="evenodd" clip-rule="evenodd" d="M131.012 22.7763C127.147 20.6508 122.281 22.0528 120.136 25.9098L114.824 35.464C112.572 39.5142 114.225 44.6141 118.424 46.5722L118.968 46.8257L119.993 50.4273C120.16 51.0111 120.805 51.3122 121.362 51.0653L124.794 49.5425L143.918 58.4602C148.03 60.3779 152.923 58.4994 154.694 54.3222L158.252 45.9324C159.85 42.1624 158.34 37.8016 154.752 35.8288L131.012 22.7763Z" fill="#3A5AFF"/>
    <path d="M120.136 25.9098L123.637 27.8434L120.136 25.9098ZM131.012 22.7763L132.95 19.2759L131.012 22.7763ZM114.824 35.464L118.325 37.3977L114.824 35.464ZM118.968 46.8257L122.82 45.7274L122.321 43.9759L120.669 43.2052L118.968 46.8257ZM119.993 50.4273L116.141 51.5256L119.993 50.4273ZM121.362 51.0653L119.74 47.4147L121.362 51.0653ZM124.794 49.5425L126.495 45.9221L124.842 45.1514L123.173 45.8919L124.794 49.5425ZM154.694 54.3222L151.007 52.7707L154.694 54.3222ZM158.252 45.9324L154.564 44.381L154.564 44.381L158.252 45.9324ZM154.752 35.8288L156.689 32.3284L154.752 35.8288ZM123.637 27.8434C124.709 25.9149 127.142 25.2139 129.075 26.2767L132.95 19.2759C127.151 16.0877 119.852 18.1907 116.636 23.9762L123.637 27.8434ZM118.325 37.3977L123.637 27.8434L116.636 23.9762L111.324 33.5304L118.325 37.3977ZM120.125 42.9517C118.025 41.9727 117.199 39.4227 118.325 37.3977L111.324 33.5304C107.946 39.6057 110.425 47.2555 116.724 50.1926L120.125 42.9517ZM120.669 43.2052L120.125 42.9517L116.724 50.1926L117.267 50.4461L120.669 43.2052ZM123.845 49.329L122.82 45.7274L115.116 47.924L116.141 51.5256L123.845 49.329ZM119.74 47.4147C121.41 46.6742 123.347 47.5775 123.845 49.329L116.141 51.5256C116.972 54.4447 120.201 55.9502 122.983 54.7159L119.74 47.4147ZM123.173 45.8919L119.74 47.4147L122.983 54.7159L126.415 53.1931L123.173 45.8919ZM145.619 54.8398L126.495 45.9221L123.093 53.163L142.217 62.0807L145.619 54.8398ZM151.007 52.7707C150.121 54.8593 147.675 55.7986 145.619 54.8398L142.217 62.0807C148.386 64.9573 155.724 62.1394 158.381 55.8737L151.007 52.7707ZM154.564 44.381L151.007 52.7707L158.381 55.8737L161.939 47.4839L154.564 44.381ZM152.814 39.3291C154.608 40.3156 155.364 42.496 154.564 44.381L161.939 47.4839C164.337 41.8289 162.071 35.2876 156.689 32.3284L152.814 39.3291ZM129.075 26.2767L152.814 39.3291L156.689 32.3284L132.95 19.2759L129.075 26.2767Z" fill="black" mask="url(#path-10-inside-1_823_2543)"/>
    <path d="M135.037 43.2762C135.791 40.0719 139.55 41.1749 140.365 39.1517C140.858 37.9271 140.497 36.6469 139.002 35.8293C137.99 35.2761 136.852 35.3035 135.573 35.9034L135.147 34.6089C136.614 33.8957 138.094 33.6868 139.677 34.5526C141.743 35.6829 142.556 37.708 141.734 39.7489C140.655 42.4288 136.93 41.063 136.239 43.9335L135.037 43.2762ZM133.909 47.9868C133.382 47.6982 133.15 47.03 133.436 46.3201C133.722 45.6102 134.34 45.3635 134.853 45.6441C135.366 45.9247 135.598 46.6363 135.312 47.3462C135.026 48.0561 134.422 48.2673 133.909 47.9868Z" fill="white"/>
    <path fill-rule="evenodd" clip-rule="evenodd" d="M134.431 43.6213L134.547 43.1277C135.008 41.1661 136.417 40.5636 137.555 40.1851C137.72 40.1303 137.877 40.0805 138.028 40.0328C138.434 39.9047 138.793 39.7914 139.115 39.6358C139.544 39.4289 139.786 39.1992 139.906 38.9012C140.097 38.4282 140.109 37.9911 139.962 37.5998C139.81 37.1941 139.456 36.7546 138.778 36.3839C137.917 35.913 136.927 35.9158 135.748 36.469L135.279 36.6887L134.485 34.2801L134.967 34.0462C136.526 33.2884 138.157 33.0449 139.9 33.998C141.008 34.6039 141.829 35.4766 142.25 36.5353C142.677 37.6095 142.667 38.819 142.192 39.9994C141.856 40.8337 141.314 41.34 140.727 41.6767C140.197 41.9805 139.601 42.1619 139.071 42.3232C139.032 42.3352 138.992 42.3471 138.954 42.359C138.367 42.5383 137.872 42.703 137.481 42.9712C137.116 43.2216 136.857 43.5515 136.729 44.0857L136.56 44.7858L134.431 43.6213ZM135.037 43.2762C135.463 41.4675 136.846 41.0312 138.116 40.6303C139.096 40.321 140.01 40.0328 140.365 39.1517C140.858 37.9271 140.497 36.6469 139.002 35.8293C137.99 35.2761 136.852 35.3035 135.573 35.9034L135.147 34.6089C135.307 34.5309 135.468 34.4589 135.629 34.3937C136.939 33.8629 138.267 33.7815 139.677 34.5526C141.743 35.6829 142.556 37.708 141.734 39.7489C141.211 41.0475 140.067 41.3961 138.948 41.7371C137.927 42.0481 136.927 42.3528 136.438 43.3658C136.357 43.5344 136.29 43.7225 136.239 43.9336L135.037 43.2762ZM132.888 47.5327C132.749 47.0742 132.781 46.5593 132.978 46.0696C133.385 45.059 134.305 44.6681 135.076 45.0895C135.847 45.511 136.177 46.5862 135.77 47.5967C135.354 48.6299 134.438 48.9525 133.686 48.5414C133.315 48.3385 133.025 47.9876 132.888 47.5327ZM133.436 46.3201C133.15 47.03 133.382 47.6982 133.909 47.9868C134.422 48.2673 135.026 48.0561 135.312 47.3462C135.598 46.6363 135.366 45.9247 134.853 45.6441C134.34 45.3635 133.722 45.6102 133.436 46.3201Z" fill="white"/>
</svg>