<svg width="528" height="268" viewBox="0 0 528 268" fill="none" xmlns="http://www.w3.org/2000/svg">
    <path d="M266 4V2L264 2L44 2C20.804 2 2 20.804 2 44L2 184L2 186H4L264 186H266V184V4Z" fill="#FF3B53" stroke="#FFF4CC" stroke-width="4"/>
    <rect x="2" y="94" width="264" height="172" fill="black" stroke="#FFF4CC" stroke-width="4"/>
    <path d="M266 92V94H264L4 94H2V92C2 66.8369 17.0681 44.288 40.955 28.1184C64.8532 11.9412 97.7555 2 134 2C170.244 2 203.147 11.9412 227.045 28.1184C250.932 44.288 266 66.8369 266 92Z" fill="black" stroke="#FFF4CC" stroke-width="4"/>
    <path d="M264 2H262V4L262 264V266H264H524H526V264V44C526 20.804 507.196 2 484 2L264 2Z" fill="#FF3B53" stroke="#FFF4CC" stroke-width="4"/>
    <path d="M264 2H262V4C262 38.4063 268.777 72.4758 281.944 104.263C295.11 136.05 314.409 164.933 338.738 189.262C363.067 213.591 391.95 232.89 423.737 246.056C455.524 259.223 489.594 266 524 266L526 266L526 264L526 44C526 20.804 507.196 2 484 2H264Z" fill="#FFC6CD" stroke="#FFF4CC" stroke-width="4"/>
</svg>
