<svg width="204" height="32" viewBox="0 0 204 32" fill="none" xmlns="http://www.w3.org/2000/svg">
<path d="M17.8962 11.8488C19.157 11.8488 20.324 12.3792 21.2224 13.2681C22.1151 14.1522 22.7419 15.3932 22.9281 16.8205L23.6033 22.0137C23.7824 23.3885 23.4583 24.717 22.7931 25.7525C22.1222 26.7943 21.1058 27.5414 19.9019 27.7485C19.8052 27.7645 19.71 27.7772 19.6119 27.7868L19.3461 27.8122L19.0021 27.8425L18.6709 27.8712L18.3525 27.8967L18.1222 27.9142L17.9715 27.9253L17.8251 27.9349L17.6816 27.9445L17.5408 27.9524L17.3362 27.9636L17.1372 27.9731L16.9453 27.9811L16.7008 27.9907L16.5245 27.9954L16.3568 27.9986H16.2473L16.091 28.0002H15.9346L15.8252 27.9986L15.6574 27.9954L15.5409 27.9923L15.3007 27.9843L15.0476 27.9731L14.8486 27.9636L14.6439 27.9524L14.5032 27.9445L14.3597 27.9349L14.2132 27.9253L14.0626 27.9142L13.8323 27.8967L13.5139 27.8712L13.1827 27.8425L12.8387 27.8122L12.5729 27.7868C11.3604 27.6705 10.3014 27.003 9.57223 26.0121C8.84729 25.0293 8.44929 23.7278 8.54879 22.3419C8.55732 22.232 8.56727 22.122 8.58148 22.0121L9.25667 16.8189C9.44288 15.3916 10.0697 14.1507 10.9624 13.2665C11.8608 12.3776 12.7389 12.0002 13.9997 12.0002L17.9019 11.8472L17.8962 11.8488Z" fill="url(#paint0_linear_2976_2081)" stroke="white"/>
<path fill-rule="evenodd" clip-rule="evenodd" d="M13.6182 19.9312C14.0753 19.9312 14.4459 20.8805 14.4459 22.0515C14.4459 23.2225 14.0753 24.1718 13.6182 24.1718C13.1611 24.1718 12.7905 23.2225 12.7905 22.0515C12.7905 20.8805 13.1611 19.9312 13.6182 19.9312ZM18.5843 19.9312C19.0414 19.9312 19.412 20.8805 19.412 22.0515C19.412 23.2225 19.0414 24.1718 18.5843 24.1718C18.1272 24.1718 17.7566 23.2225 17.7566 22.0515C17.7566 20.8805 18.1272 19.9312 18.5843 19.9312Z" fill="#1E1E1E"/>
<path d="M14.0225 4.23928C16.5327 3.68092 20.5284 3.87818 24.2845 7.27767C28.1065 10.736 28.0462 11.7048 27.9845 13.7458C27.8381 14.6048 27.6429 15.1966 27.4004 15.5211C27.0674 15.9681 26.5837 16.361 25.9608 16.6871C24.794 17.298 23.1004 17.6861 21.0394 17.8484C19.1664 17.9947 18.0699 17.9168 17.1499 17.85C16.9691 17.8373 15.2037 17.7848 14.2593 17.9677C13.3035 18.1522 12.56 18.3988 11.8783 18.6231C10.7358 18.9985 9.75842 19.3119 8.35332 19.2578C7.11902 19.2101 6.17607 19.0415 5.51012 18.7074C4.74657 18.3256 4.29591 17.7418 4.12224 16.9067C3.83233 15.5115 3.78353 12.4716 7.2281 8.5487C10.3368 5.01081 13.8503 4.27746 14.0225 4.23928Z" fill="white"/>
<mask id="mask0_2976_2081" style="mask-type:luminance" maskUnits="userSpaceOnUse" x="3" y="3" width="27" height="18">
<path d="M14.0225 4.23928C16.5327 3.68092 20.5284 3.87818 24.2845 7.27767C28.1065 10.736 28.0462 11.7048 27.9845 13.7458C27.8381 14.6048 27.6429 15.1966 27.4004 15.5211C27.0674 15.9681 26.5837 16.361 25.9608 16.6871C24.794 17.298 23.1004 17.6861 21.0394 17.8484C19.1664 17.9947 18.0699 17.9168 17.1499 17.85C16.9691 17.8373 15.2037 17.7848 14.2593 17.9677C13.3035 18.1522 12.56 18.3988 11.8783 18.6231C10.7358 18.9985 9.75842 19.3119 8.35332 19.2578C7.11902 19.2101 6.17607 19.0415 5.51012 18.7074C4.74657 18.3256 4.29591 17.7418 4.12224 16.9067C3.83233 15.5115 3.78353 12.4716 7.2281 8.5487C10.3368 5.01081 13.8503 4.27746 14.0225 4.23928Z" fill="white" stroke="#1E1E1E" stroke-width="2"/>
</mask>
<g mask="url(#mask0_2976_2081)">
<path fill-rule="evenodd" clip-rule="evenodd" d="M17.0741 11.2164C18.7938 11.2164 20.1879 12.21 20.1879 13.4356C20.1879 14.6612 18.7938 15.6548 17.0741 15.6548C15.3544 15.6548 13.9603 14.6612 13.9603 13.4356C13.9603 12.21 15.3544 11.2164 17.0741 11.2164ZM25.4898 7.00467C27.2376 7.00467 28.6545 8.56736 28.6545 10.495C28.6545 12.4227 27.2376 13.9854 25.4898 13.9854C23.7419 13.9854 22.325 12.4227 22.325 10.495C22.325 8.56736 23.7419 7.00467 25.4898 7.00467ZM7.92514 5.2627C10.0994 5.2627 11.862 7.20663 11.862 9.60459C11.862 12.0026 10.0994 13.9465 7.92514 13.9465C5.75087 13.9465 3.98828 12.0026 3.98828 9.60459C3.98828 7.20663 5.75087 5.2627 7.92514 5.2627Z" fill="#1E1E1E"/>
</g>
<path d="M197.653 23.4104C196.893 23.4104 196.246 23.297 195.713 23.0704C195.193 22.8304 194.8 22.457 194.533 21.9504C194.28 21.4304 194.153 20.7504 194.153 19.9104V8.61035H197.113V19.4304C197.113 19.7504 197.166 20.0104 197.273 20.2104C197.393 20.4104 197.553 20.5504 197.753 20.6304C197.953 20.697 198.179 20.7304 198.433 20.7304H203.113V23.4104H197.653Z" fill="white"/>
<path d="M185.889 23.5302C184.875 23.5302 183.989 23.4369 183.229 23.2502C182.469 23.0502 181.829 22.6902 181.309 22.1702C180.802 21.6369 180.422 20.8769 180.169 19.8902C179.915 18.9035 179.789 17.6169 179.789 16.0302C179.789 14.4435 179.915 13.1569 180.169 12.1702C180.435 11.1702 180.822 10.4035 181.329 9.87021C181.835 9.33688 182.469 8.97021 183.229 8.77021C183.989 8.57021 184.875 8.47021 185.889 8.47021C186.902 8.47021 187.789 8.57021 188.549 8.77021C189.309 8.97021 189.942 9.33688 190.449 9.87021C190.955 10.4035 191.335 11.1702 191.589 12.1702C191.842 13.1569 191.969 14.4435 191.969 16.0302C191.969 17.6169 191.842 18.9035 191.589 19.8902C191.335 20.8769 190.955 21.6369 190.449 22.1702C189.942 22.6902 189.309 23.0502 188.549 23.2502C187.789 23.4369 186.902 23.5302 185.889 23.5302ZM185.889 20.8702C186.489 20.8702 186.989 20.8035 187.389 20.6702C187.789 20.5369 188.102 20.3035 188.329 19.9702C188.569 19.6235 188.742 19.1369 188.849 18.5102C188.955 17.8702 189.009 17.0435 189.009 16.0302C189.009 14.9635 188.955 14.1102 188.849 13.4702C188.742 12.8302 188.569 12.3435 188.329 12.0102C188.102 11.6635 187.789 11.4302 187.389 11.3102C186.989 11.1902 186.489 11.1302 185.889 11.1302C185.315 11.1302 184.829 11.1902 184.429 11.3102C184.029 11.4302 183.702 11.6635 183.449 12.0102C183.209 12.3435 183.029 12.8302 182.909 13.4702C182.802 14.1102 182.749 14.9635 182.749 16.0302C182.749 17.0435 182.795 17.8702 182.889 18.5102C182.995 19.1369 183.169 19.6235 183.409 19.9702C183.649 20.3035 183.969 20.5369 184.369 20.6702C184.782 20.8035 185.289 20.8702 185.889 20.8702Z" fill="white"/>
<path d="M173.625 23.5302C172.758 23.5302 171.992 23.4302 171.325 23.2302C170.672 23.0302 170.112 22.6635 169.645 22.1302C169.192 21.5969 168.845 20.8369 168.605 19.8502C168.378 18.8502 168.265 17.5569 168.265 15.9702C168.265 14.4369 168.385 13.1835 168.625 12.2102C168.878 11.2235 169.238 10.4635 169.705 9.93021C170.172 9.38355 170.738 9.00355 171.405 8.79022C172.072 8.57688 172.825 8.47021 173.665 8.47021C174.332 8.47021 174.952 8.51021 175.525 8.59021C176.112 8.65688 176.638 8.74355 177.105 8.85021C177.572 8.94355 177.965 9.05022 178.285 9.17022V11.4702C178.045 11.4169 177.718 11.3635 177.305 11.3102C176.905 11.2569 176.445 11.2169 175.925 11.1902C175.405 11.1502 174.858 11.1302 174.285 11.1302C173.725 11.1302 173.245 11.1969 172.845 11.3302C172.458 11.4502 172.145 11.6835 171.905 12.0302C171.678 12.3635 171.505 12.8502 171.385 13.4902C171.278 14.1302 171.225 14.9635 171.225 15.9902C171.225 16.9769 171.272 17.7902 171.365 18.4302C171.472 19.0702 171.638 19.5702 171.865 19.9302C172.092 20.2769 172.398 20.5235 172.785 20.6702C173.185 20.8035 173.685 20.8702 174.285 20.8702C175.298 20.8702 176.118 20.8502 176.745 20.8102C177.385 20.7702 177.898 20.7235 178.285 20.6702V22.9502C177.925 23.0702 177.512 23.1769 177.045 23.2702C176.578 23.3502 176.065 23.4102 175.505 23.4502C174.945 23.5035 174.318 23.5302 173.625 23.5302Z" fill="white"/>
<path d="M160.381 23.5302C159.367 23.5302 158.481 23.4369 157.721 23.2502C156.961 23.0502 156.321 22.6902 155.801 22.1702C155.294 21.6369 154.914 20.8769 154.661 19.8902C154.407 18.9035 154.281 17.6169 154.281 16.0302C154.281 14.4435 154.407 13.1569 154.661 12.1702C154.927 11.1702 155.314 10.4035 155.821 9.87021C156.327 9.33688 156.961 8.97021 157.721 8.77021C158.481 8.57021 159.367 8.47021 160.381 8.47021C161.394 8.47021 162.281 8.57021 163.041 8.77021C163.801 8.97021 164.434 9.33688 164.941 9.87021C165.447 10.4035 165.827 11.1702 166.081 12.1702C166.334 13.1569 166.461 14.4435 166.461 16.0302C166.461 17.6169 166.334 18.9035 166.081 19.8902C165.827 20.8769 165.447 21.6369 164.941 22.1702C164.434 22.6902 163.801 23.0502 163.041 23.2502C162.281 23.4369 161.394 23.5302 160.381 23.5302ZM160.381 20.8702C160.981 20.8702 161.481 20.8035 161.881 20.6702C162.281 20.5369 162.594 20.3035 162.821 19.9702C163.061 19.6235 163.234 19.1369 163.341 18.5102C163.447 17.8702 163.501 17.0435 163.501 16.0302C163.501 14.9635 163.447 14.1102 163.341 13.4702C163.234 12.8302 163.061 12.3435 162.821 12.0102C162.594 11.6635 162.281 11.4302 161.881 11.3102C161.481 11.1902 160.981 11.1302 160.381 11.1302C159.807 11.1302 159.321 11.1902 158.921 11.3102C158.521 11.4302 158.194 11.6635 157.941 12.0102C157.701 12.3435 157.521 12.8302 157.401 13.4702C157.294 14.1102 157.241 14.9635 157.241 16.0302C157.241 17.0435 157.287 17.8702 157.381 18.5102C157.487 19.1369 157.661 19.6235 157.901 19.9702C158.141 20.3035 158.461 20.5369 158.861 20.6702C159.274 20.8035 159.781 20.8702 160.381 20.8702Z" fill="white"/>
<path d="M146.12 23.4104V11.2704H142.06V8.61035H153.16V11.2704H149.08V23.4104H146.12Z" fill="white"/>
<path d="M134.853 23.5302C133.84 23.5302 132.953 23.4369 132.193 23.2502C131.433 23.0502 130.793 22.6902 130.273 22.1702C129.767 21.6369 129.387 20.8769 129.133 19.8902C128.88 18.9035 128.753 17.6169 128.753 16.0302C128.753 14.4435 128.88 13.1569 129.133 12.1702C129.4 11.1702 129.787 10.4035 130.293 9.87021C130.8 9.33688 131.433 8.97021 132.193 8.77021C132.953 8.57021 133.84 8.47021 134.853 8.47021C135.867 8.47021 136.753 8.57021 137.513 8.77021C138.273 8.97021 138.907 9.33688 139.413 9.87021C139.92 10.4035 140.3 11.1702 140.553 12.1702C140.807 13.1569 140.933 14.4435 140.933 16.0302C140.933 17.6169 140.807 18.9035 140.553 19.8902C140.3 20.8769 139.92 21.6369 139.413 22.1702C138.907 22.6902 138.273 23.0502 137.513 23.2502C136.753 23.4369 135.867 23.5302 134.853 23.5302ZM134.853 20.8702C135.453 20.8702 135.953 20.8035 136.353 20.6702C136.753 20.5369 137.067 20.3035 137.293 19.9702C137.533 19.6235 137.707 19.1369 137.813 18.5102C137.92 17.8702 137.973 17.0435 137.973 16.0302C137.973 14.9635 137.92 14.1102 137.813 13.4702C137.707 12.8302 137.533 12.3435 137.293 12.0102C137.067 11.6635 136.753 11.4302 136.353 11.3102C135.953 11.1902 135.453 11.1302 134.853 11.1302C134.28 11.1302 133.793 11.1902 133.393 11.3102C132.993 11.4302 132.667 11.6635 132.413 12.0102C132.173 12.3435 131.993 12.8302 131.873 13.4702C131.767 14.1102 131.713 14.9635 131.713 16.0302C131.713 17.0435 131.76 17.8702 131.853 18.5102C131.96 19.1369 132.133 19.6235 132.373 19.9702C132.613 20.3035 132.933 20.5369 133.333 20.6702C133.747 20.8035 134.253 20.8702 134.853 20.8702Z" fill="white"/>
<path d="M116.594 23.4104V8.61035H122.714C123.301 8.61035 123.848 8.68368 124.354 8.83035C124.861 8.96368 125.308 9.20368 125.694 9.55035C126.081 9.89702 126.381 10.377 126.594 10.9904C126.821 11.6037 126.934 12.3904 126.934 13.3504C126.934 14.0304 126.868 14.6104 126.734 15.0904C126.601 15.5704 126.421 15.9637 126.194 16.2704C125.981 16.577 125.734 16.8237 125.454 17.0104C125.174 17.197 124.888 17.3504 124.594 17.4704L127.354 23.4104H124.334L121.954 17.9304C121.794 17.9304 121.608 17.9304 121.394 17.9304C121.194 17.917 120.988 17.9104 120.774 17.9104C120.561 17.9104 120.348 17.9104 120.134 17.9104C119.921 17.9104 119.728 17.9037 119.554 17.8904V23.4104H116.594ZM119.554 15.5504H122.194C122.461 15.5504 122.701 15.517 122.914 15.4504C123.128 15.3837 123.314 15.2704 123.474 15.1104C123.634 14.937 123.754 14.7104 123.834 14.4304C123.928 14.1504 123.974 13.7904 123.974 13.3504C123.974 12.937 123.928 12.597 123.834 12.3304C123.754 12.0504 123.634 11.837 123.474 11.6904C123.314 11.5304 123.128 11.4237 122.914 11.3704C122.701 11.3037 122.461 11.2704 122.194 11.2704H119.554V15.5504Z" fill="white"/>
<path d="M104.172 23.4104V8.61035H110.412C110.892 8.61035 111.379 8.67035 111.872 8.79035C112.379 8.89702 112.839 9.12368 113.252 9.47035C113.679 9.80368 114.019 10.3104 114.272 10.9904C114.539 11.6704 114.672 12.5704 114.672 13.6904C114.672 14.8104 114.539 15.717 114.272 16.4104C114.019 17.1037 113.686 17.6304 113.272 17.9904C112.859 18.3504 112.412 18.5904 111.932 18.7104C111.452 18.8304 110.986 18.8904 110.532 18.8904C110.292 18.8904 110.012 18.8837 109.692 18.8704C109.372 18.8437 109.046 18.8104 108.712 18.7704C108.392 18.7304 108.092 18.697 107.812 18.6704C107.532 18.6304 107.306 18.597 107.132 18.5704V23.4104H104.172ZM107.132 16.2304H110.072C110.419 16.2304 110.712 16.1504 110.952 15.9904C111.206 15.817 111.392 15.5504 111.512 15.1904C111.632 14.817 111.692 14.3237 111.692 13.7104C111.692 13.1104 111.626 12.637 111.492 12.2904C111.372 11.9304 111.192 11.6704 110.952 11.5104C110.726 11.3504 110.452 11.2704 110.132 11.2704H107.132V16.2304Z" fill="white"/>
<path d="M90.6825 23.5104C90.3625 23.5104 89.9959 23.477 89.5825 23.4104C89.1692 23.357 88.7692 23.2237 88.3825 23.0104C88.0092 22.797 87.6959 22.477 87.4425 22.0504C87.2025 21.6104 87.0825 21.0104 87.0825 20.2504V11.9904C87.0825 11.337 87.1825 10.7904 87.3825 10.3504C87.5825 9.91035 87.8492 9.56368 88.1825 9.31035C88.5159 9.05702 88.8825 8.87702 89.2825 8.77035C89.6825 8.66368 90.0759 8.61035 90.4625 8.61035C91.4625 8.61035 92.3425 8.62368 93.1025 8.65035C93.8759 8.67702 94.5692 8.71035 95.1825 8.75035C95.7959 8.77702 96.3559 8.81702 96.8625 8.87035V11.3504H91.3425C90.9292 11.3504 90.6092 11.4504 90.3825 11.6504C90.1559 11.8504 90.0425 12.157 90.0425 12.5704V14.7104L95.9025 14.8704V17.2104L90.0425 17.3704V19.4104C90.0425 19.757 90.0959 20.0304 90.2025 20.2304C90.3225 20.417 90.4759 20.5504 90.6625 20.6304C90.8625 20.697 91.0692 20.7304 91.2825 20.7304H96.8625V23.2104C96.2759 23.277 95.6225 23.3304 94.9025 23.3704C94.1959 23.4104 93.4759 23.4437 92.7425 23.4704C92.0225 23.497 91.3359 23.5104 90.6825 23.5104Z" fill="white"/>
<path d="M74.5435 23.4104V8.61035H80.6635C81.2501 8.61035 81.7968 8.68368 82.3035 8.83035C82.8101 8.96368 83.2568 9.20368 83.6435 9.55035C84.0301 9.89702 84.3301 10.377 84.5435 10.9904C84.7701 11.6037 84.8835 12.3904 84.8835 13.3504C84.8835 14.0304 84.8168 14.6104 84.6835 15.0904C84.5501 15.5704 84.3701 15.9637 84.1435 16.2704C83.9301 16.577 83.6835 16.8237 83.4035 17.0104C83.1235 17.197 82.8368 17.3504 82.5435 17.4704L85.3035 23.4104H82.2835L79.9035 17.9304C79.7435 17.9304 79.5568 17.9304 79.3435 17.9304C79.1435 17.917 78.9368 17.9104 78.7235 17.9104C78.5101 17.9104 78.2968 17.9104 78.0835 17.9104C77.8701 17.9104 77.6768 17.9037 77.5035 17.8904V23.4104H74.5435ZM77.5035 15.5504H80.1435C80.4101 15.5504 80.6501 15.517 80.8635 15.4504C81.0768 15.3837 81.2635 15.2704 81.4235 15.1104C81.5835 14.937 81.7035 14.7104 81.7835 14.4304C81.8768 14.1504 81.9235 13.7904 81.9235 13.3504C81.9235 12.937 81.8768 12.597 81.7835 12.3304C81.7035 12.0504 81.5835 11.837 81.4235 11.6904C81.2635 11.5304 81.0768 11.4237 80.8635 11.3704C80.6501 11.3037 80.4101 11.2704 80.1435 11.2704H77.5035V15.5504Z" fill="white"/>
<path d="M66.2792 23.5302C65.2659 23.5302 64.3792 23.4369 63.6192 23.2502C62.8592 23.0502 62.2192 22.6902 61.6992 22.1702C61.1925 21.6369 60.8125 20.8769 60.5592 19.8902C60.3059 18.9035 60.1792 17.6169 60.1792 16.0302C60.1792 14.4435 60.3059 13.1569 60.5592 12.1702C60.8259 11.1702 61.2125 10.4035 61.7192 9.87021C62.2259 9.33688 62.8592 8.97021 63.6192 8.77021C64.3792 8.57021 65.2659 8.47021 66.2792 8.47021C67.2925 8.47021 68.1792 8.57021 68.9392 8.77021C69.6992 8.97021 70.3325 9.33688 70.8392 9.87021C71.3459 10.4035 71.7259 11.1702 71.9792 12.1702C72.2325 13.1569 72.3592 14.4435 72.3592 16.0302C72.3592 17.6169 72.2325 18.9035 71.9792 19.8902C71.7259 20.8769 71.3459 21.6369 70.8392 22.1702C70.3325 22.6902 69.6992 23.0502 68.9392 23.2502C68.1792 23.4369 67.2925 23.5302 66.2792 23.5302ZM66.2792 20.8702C66.8792 20.8702 67.3792 20.8035 67.7792 20.6702C68.1792 20.5369 68.4925 20.3035 68.7192 19.9702C68.9592 19.6235 69.1325 19.1369 69.2392 18.5102C69.3459 17.8702 69.3992 17.0435 69.3992 16.0302C69.3992 14.9635 69.3459 14.1102 69.2392 13.4702C69.1325 12.8302 68.9592 12.3435 68.7192 12.0102C68.4925 11.6635 68.1792 11.4302 67.7792 11.3102C67.3792 11.1902 66.8792 11.1302 66.2792 11.1302C65.7059 11.1302 65.2192 11.1902 64.8192 11.3102C64.4192 11.4302 64.0925 11.6635 63.8392 12.0102C63.5992 12.3435 63.4192 12.8302 63.2992 13.4702C63.1925 14.1102 63.1392 14.9635 63.1392 16.0302C63.1392 17.0435 63.1859 17.8702 63.2792 18.5102C63.3859 19.1369 63.5592 19.6235 63.7992 19.9702C64.0392 20.3035 64.3592 20.5369 64.7592 20.6702C65.1725 20.8035 65.6792 20.8702 66.2792 20.8702Z" fill="white"/>
<path d="M48.1372 23.4104V8.61035H54.3772C54.8572 8.61035 55.3439 8.67035 55.8372 8.79035C56.3439 8.89702 56.8039 9.12368 57.2172 9.47035C57.6439 9.80368 57.9839 10.3104 58.2372 10.9904C58.5039 11.6704 58.6372 12.5704 58.6372 13.6904C58.6372 14.8104 58.5039 15.717 58.2372 16.4104C57.9839 17.1037 57.6505 17.6304 57.2372 17.9904C56.8239 18.3504 56.3772 18.5904 55.8972 18.7104C55.4172 18.8304 54.9505 18.8904 54.4972 18.8904C54.2572 18.8904 53.9772 18.8837 53.6572 18.8704C53.3372 18.8437 53.0105 18.8104 52.6772 18.7704C52.3572 18.7304 52.0572 18.697 51.7772 18.6704C51.4972 18.6304 51.2705 18.597 51.0972 18.5704V23.4104H48.1372ZM51.0972 16.2304H54.0372C54.3839 16.2304 54.6772 16.1504 54.9172 15.9904C55.1705 15.817 55.3572 15.5504 55.4772 15.1904C55.5972 14.817 55.6572 14.3237 55.6572 13.7104C55.6572 13.1104 55.5905 12.637 55.4572 12.2904C55.3372 11.9304 55.1572 11.6704 54.9172 11.5104C54.6905 11.3504 54.4172 11.2704 54.0972 11.2704H51.0972V16.2304Z" fill="white"/>
<path d="M40.82 23.5302C40.4333 23.5302 40.0333 23.5169 39.62 23.4902C39.22 23.4769 38.8067 23.4502 38.38 23.4102C37.9667 23.3569 37.5733 23.3036 37.2 23.2502C36.8267 23.1836 36.4867 23.1102 36.18 23.0302V20.6902C36.58 20.7302 37.0333 20.7636 37.54 20.7902C38.0467 20.8169 38.5733 20.8369 39.12 20.8502C39.6667 20.8636 40.1867 20.8702 40.68 20.8702C41.1867 20.8702 41.62 20.8302 41.98 20.7502C42.3533 20.6569 42.64 20.5036 42.84 20.2902C43.04 20.0636 43.14 19.7569 43.14 19.3702V18.8302C43.14 18.3902 43.0067 18.0569 42.74 17.8302C42.4867 17.5902 42.12 17.4702 41.64 17.4702H40.38C38.9667 17.4702 37.88 17.1636 37.12 16.5502C36.3733 15.9236 36 14.8636 36 13.3702V12.6502C36 11.2102 36.4133 10.1569 37.24 9.49023C38.0667 8.82357 39.2467 8.49023 40.78 8.49023C41.3267 8.49023 41.8667 8.5169 42.4 8.57023C42.9467 8.62357 43.4667 8.69023 43.96 8.77023C44.4667 8.8369 44.9 8.91023 45.26 8.99024V11.3302C44.6467 11.2902 43.96 11.2502 43.2 11.2102C42.4533 11.1702 41.76 11.1502 41.12 11.1502C40.6667 11.1502 40.26 11.1969 39.9 11.2902C39.5533 11.3702 39.2867 11.5302 39.1 11.7702C38.9133 12.0102 38.82 12.3502 38.82 12.7902V13.1902C38.82 13.7102 38.9667 14.0836 39.26 14.3102C39.5533 14.5369 39.9867 14.6502 40.56 14.6502H42.02C42.9133 14.6502 43.6467 14.8169 44.22 15.1502C44.8067 15.4702 45.24 15.9169 45.52 16.4902C45.8133 17.0636 45.96 17.7169 45.96 18.4502V19.2902C45.96 20.4502 45.74 21.3369 45.3 21.9502C44.8733 22.5636 44.2733 22.9836 43.5 23.2102C42.74 23.4236 41.8467 23.5302 40.82 23.5302Z" fill="white"/>
<defs>
<linearGradient id="paint0_linear_2976_2081" x1="16" y1="19" x2="15.7167" y2="29.9927" gradientUnits="userSpaceOnUse">
<stop stop-color="white"/>
<stop offset="1" stop-color="#D8D8D8"/>
</linearGradient>
</defs>
</svg>
