<svg width="182" height="182" viewBox="0 0 182 182" fill="none" xmlns="http://www.w3.org/2000/svg">
    <path d="M11.0763 44.4223C12.2748 43.6943 13.5397 43.0873 14.8019 42.4785C19.3364 40.2945 20.6814 40.5166 23.9082 41.8952C26.2251 42.8853 35.0221 46.5362 35.9203 48.844C36.1933 49.5483 36.125 49.4191 36.1842 58.5063C36.2042 61.5294 35.7737 61.341 35.4816 62.8962C35.0585 65.1512 35.7392 65.942 33.0829 67.3206C29.5899 69.2918 25.7702 70.6174 21.8071 71.2336C20.6399 71.5779 19.4151 71.6824 18.2065 71.5407C16.9979 71.399 15.8305 71.0141 14.7746 70.4091C13.0747 69.6047 6.28792 65.6835 5.38338 64.0455C4.83738 63.0509 4.93839 62.6705 4.71089 53.8016C4.50796 45.8328 3.77814 48.8467 11.0763 44.4223Z" fill="url(#paint0_angular_2979_51)"/>
    <path d="M34.2032 45.3068C21.4686 39.9059 20.9363 39.1816 18.5102 40.1926L6.49823 45.1976C5.63711 45.555 4.90141 46.1599 4.38432 46.9357C3.86723 47.7114 3.59201 48.6233 3.59351 49.5556V63.0827C3.59217 64.0153 3.86779 64.9272 4.3854 65.7029C4.90302 66.4786 5.63933 67.0831 6.50096 67.4398C19.6577 72.9244 19.059 72.8134 20.3393 72.8134C21.6197 72.8134 20.8453 72.9954 34.1777 67.4398C35.0388 67.0827 35.7746 66.478 36.2917 65.7024C36.8088 64.9267 37.084 64.015 37.0824 63.0827V49.653C37.0832 48.7256 36.8105 47.8187 36.2983 47.0456C35.7862 46.2725 35.0574 45.6677 34.2032 45.3068ZM19.2437 41.9507C19.5899 41.8066 19.9613 41.7329 20.3363 41.734C20.7113 41.7351 21.0824 41.8109 21.4277 41.9571C34.5699 47.5381 33.608 47.1013 33.9284 47.3197L20.3412 52.4912L6.75212 47.2187C7.08336 46.9985 6.12786 47.4171 19.2437 41.9507ZM7.23442 65.6799C6.72151 65.4668 6.2834 65.1062 5.9756 64.6438C5.6678 64.1815 5.50416 63.6382 5.50542 63.0827C5.50542 48.5837 5.36619 49.1079 5.83848 48.227L19.7051 53.6069C19.7051 72.6159 19.8971 70.9579 19.2583 70.6922L7.23442 65.6799ZM35.1714 63.0827C35.1724 63.6381 35.0087 64.1813 34.7009 64.6436C34.3932 65.1059 33.9552 65.4666 33.4424 65.6799L21.4222 70.6922C20.7852 70.9588 20.9745 72.6241 20.9745 53.6096L34.8438 48.3316C35.3025 49.1889 35.1751 48.6146 35.1751 63.0827H35.1714Z" fill="#1E1E1E"/>
    <path d="M51.597 72.3447C50.505 70.9797 46.0779 68.7912 42.9338 67.8521C41.4183 67.3997 39.4478 65.9812 39.004 64.4632C38.4187 62.4616 37.1567 60.4901 35.7694 59.1925C32.6708 56.2996 33.0612 55.0411 31.0374 55.4278C30.7711 55.5143 30.5262 55.6563 30.3189 55.8446C30.1117 56.0328 29.9468 56.263 29.8353 56.5198C28.7141 58.4836 32.2349 60.927 32.8474 62.4558C32.9849 62.795 33.0259 63.1657 32.9657 63.5268C32.8464 64.242 32.2001 64.8231 31.4757 64.7925C30.6666 64.7583 29.8161 64.239 29.3266 63.7024C28.6168 62.9244 28.1818 61.9662 27.512 61.1717C25.945 59.3135 23.9849 59.8131 23.225 61.2546C22.831 62.0026 23.5171 63.3002 23.9858 64.0028C26.8068 68.2288 27.1944 68.8813 27.9898 69.7103C29.8098 71.6158 32.4342 72.2983 33.6318 72.0763C34.1624 71.9208 34.6753 71.711 35.1623 71.4506C35.3698 71.3397 35.624 71.3579 35.8119 71.4997C36.0284 71.663 36.1083 71.9526 36.0192 72.2088C35.8487 72.6995 35.7537 73.2142 35.7384 73.7352C35.9969 77.5153 42.9638 81.047 45.348 82.3802C46.997 83.3038 48.372 80.8723 47.7513 79.8249C47.2354 78.954 44.3516 78.6419 42.4424 76.6326C41.9419 76.1059 41.6832 75.5908 41.5994 75.1311C41.4165 74.1289 42.4075 73.33 43.4064 73.1299C44.4053 72.9298 45.417 73.2948 46.3233 73.76C47.0869 74.1521 47.8145 74.613 48.4966 75.1375C49.6223 75.9747 50.2921 76.2295 51.3176 75.1548C52.163 74.2776 52.416 73.373 51.597 72.3447Z" fill="url(#paint1_angular_2979_51)"/>
    <path d="M52.4643 73.2457C52.4523 72.9053 52.3379 72.5765 52.1361 72.3021C51.9343 72.0278 51.6545 71.8206 51.3332 71.7078C48.9299 69.1707 44.1087 66.0403 40.3222 66.8338C41.0784 62.7497 35.9942 58.2571 33.2715 55.9265C32.9712 55.6717 33.1423 55.5161 32.4962 55.1876C30.9292 54.3923 28.9681 55.9456 29.3903 57.4899C29.9236 59.5829 32.3142 61.7615 32.4288 63.3785C32.4862 64.2376 32.0603 64.5206 31.3032 64.3104C29.6097 63.8335 27.2191 60.3064 26.2727 59.8759C24.1688 58.9304 21.9584 61.1499 23.2096 63.0982C23.5127 63.5423 25.1416 68.2179 28.9426 71.099C30.7335 72.4276 32.8047 73.2921 34.8685 72.4713C34.7607 73.5226 34.9171 74.5843 35.3236 75.5598C35.7301 76.5354 36.3738 77.394 37.1963 78.0577C38.9544 79.6202 43.7592 82.0445 45.0678 82.5404C45.289 83.0209 46.3973 83.384 47.6158 81.8443C48.8161 80.33 47.9653 79.2517 47.4566 79.1889C46.5602 78.3772 43.1377 76.3351 42.488 75.0648C42.0994 74.2785 42.67 73.6943 43.4726 73.556C44.9495 73.2921 47.7496 75.2731 49.3576 75.8719C50.3467 77.1878 52.6372 75.1658 52.4643 73.2457ZM24.0596 63.5087C23.8712 62.8808 23.2897 61.9216 24.2088 61.0298C24.5274 60.7613 24.9114 60.5816 25.3217 60.5091C25.7321 60.4365 26.1543 60.4737 26.5457 60.6167C26.937 62.5004 29.758 66.4243 32.2523 65.9165C31.5625 67.8057 32.5781 69.6639 33.9813 71.1035C29.8226 72.2956 24.9632 64.6007 24.0596 63.5059V63.5087ZM42.4862 77.2588C46.3455 80.0479 47.3547 79.1161 47.4538 79.9533C47.4984 80.3327 47.3219 80.6813 46.8705 81.2509C45.6429 82.8052 45.4473 82.2319 45.1415 82.0299C41.5716 79.0851 36.1207 77.0768 36.4055 73.0345C37.7167 73.8769 39.2717 74.257 40.8236 74.1147C40.5861 75.4515 41.4187 76.448 42.4862 77.2588ZM49.6333 75.5589C48.9408 74.5087 45.5792 71.8361 43.418 71.9971C43.4955 71.7004 43.5029 71.3898 43.4397 71.0897C43.3766 70.7897 43.2445 70.5084 43.054 70.2681C42.7273 69.9132 42.0903 69.3645 42.5708 70.5785C42.666 70.8546 42.6847 71.1513 42.6248 71.4372C42.5648 71.723 42.4286 71.9873 42.2304 72.2019C40.0856 74.6853 32.1677 69.5492 33.3498 65.9939C33.8512 64.3513 35.1643 64.5543 35.2344 64.365C35.3117 64.2385 34.6884 63.8927 33.9422 64.1366C34.0855 63.2004 33.8615 62.2451 33.317 61.4703C32.4003 60.1402 31.2928 58.9524 30.0301 57.9449C29.9978 57.6094 30.0526 57.2712 30.1892 56.9631C30.3258 56.6549 30.5396 56.3872 30.8099 56.1859C31.3004 55.8678 31.894 55.7496 32.4689 55.8556C34.0159 58.1979 38.7615 62.2656 38.8298 65.9247C38.8528 66.2477 38.808 66.5719 38.6983 66.8766C38.5886 67.1812 38.4164 67.4596 38.1928 67.6938C37.6886 66.9018 37.2304 66.0814 36.8205 65.2368C36.2445 64.3914 35.5247 64.2767 35.4555 64.4642C35.3645 64.6462 35.6957 65.0102 35.8859 65.7054C36.0597 66.871 36.5388 67.9699 37.2746 68.8904C37.6744 69.4114 38.2102 69.8121 38.823 70.0483C39.4359 70.2844 40.102 70.347 40.7481 70.229C41.6844 69.9769 42.5426 69.8595 41.7491 69.4173C41.082 69.0233 40.3458 69.3927 39.5596 68.8886C39.4422 68.8176 39.4613 68.8422 39.5077 68.7721C43.4771 66.812 48.6878 70.9051 51.2667 72.2365C52.2013 73.4832 50.7371 75.8756 49.6333 75.5625V75.5589Z" fill="#1E1E1E"/>
    <path d="M152.321 44.3604C153.52 43.6324 154.784 43.0245 156.047 42.4166C160.582 40.2326 161.927 40.4538 165.153 41.8324C167.47 42.8225 176.267 46.4734 177.165 48.7812C177.438 49.4855 177.37 49.3563 177.429 58.4435C177.449 61.4666 177.019 61.2782 176.727 62.8334C176.304 65.0884 176.984 65.8792 174.328 67.2578C170.835 69.2288 167.015 70.5543 163.052 71.1708C161.885 71.5151 160.66 71.6196 159.452 71.4779C158.243 71.3362 157.076 70.9513 156.02 70.3463C154.32 69.5419 147.533 65.6207 146.628 63.9827C146.082 62.9881 146.184 62.6077 145.956 53.7388C145.753 45.7727 145.023 48.7839 152.321 44.3604Z" fill="url(#paint2_angular_2979_51)"/>
    <path d="M175.525 45.3068C162.746 39.8868 162.239 39.188 159.832 40.1926L147.82 45.1976C146.959 45.555 146.223 46.1599 145.706 46.9358C145.189 47.7116 144.914 48.6233 144.916 49.5556V63.0828C144.914 64.0149 145.189 64.9266 145.706 65.7023C146.223 66.4779 146.959 67.0827 147.82 67.4398C160.976 72.9253 160.378 72.8134 161.658 72.8134C162.998 72.8134 162.75 72.7542 175.496 67.4398C176.357 67.0827 177.093 66.478 177.61 65.7024C178.127 64.9267 178.403 64.015 178.401 63.0828V49.653C178.402 48.7261 178.13 47.8194 177.618 47.0464C177.107 46.2733 176.379 45.6683 175.525 45.3068ZM160.565 41.9507C160.911 41.8071 161.283 41.7337 161.658 41.7348C162.033 41.7358 162.404 41.8114 162.749 41.9571C175.895 47.5318 174.931 47.0986 175.252 47.3134L161.664 52.4885L148.075 47.216C148.398 47.0021 147.343 47.4644 160.565 41.9507ZM148.553 65.6772C148.04 65.4639 147.602 65.1033 147.294 64.641C146.987 64.1787 146.823 63.6354 146.824 63.08C146.824 48.5482 146.69 49.097 147.157 48.2243L161.025 53.6042C161.025 72.6132 161.216 70.9552 160.577 70.6894L148.553 65.6772ZM176.49 63.08C176.491 63.6355 176.328 64.1788 176.02 64.6411C175.712 65.1035 175.274 65.464 174.761 65.6772L162.74 70.6894C162.103 70.9561 162.293 72.6214 162.293 53.6069L176.162 48.3289C176.625 49.1889 176.496 48.6147 176.496 63.0828L176.49 63.08Z" fill="#1E1E1E"/>
    <path d="M158.959 59.7585C158.761 59.157 157.649 57.7565 156.799 57.7565C155.07 57.7456 153.386 62.3293 151.227 62.473C150.923 62.5015 150.618 62.4393 150.35 62.2943C150.082 62.1493 149.863 61.9281 149.72 61.6586C149.127 60.3373 151.464 57.7361 152.344 56.0413C152.73 55.2976 152.414 54.4653 151.793 53.9017C151.466 53.6046 151.077 53.3155 150.636 53.3543C150.052 53.4058 149.498 53.8741 149.042 54.3085C142.025 60.9797 143.196 59.6193 142.709 63.0791C142.48 64.0688 141.647 65.1047 140.632 65.1495C139.73 65.1894 138.832 65.3192 137.952 65.5379C137.078 65.851 136.6 66.1986 133.113 68.4345C132.248 68.9896 130.609 69.5128 130.305 70.8742C130.072 71.9134 130.859 73.7862 131.958 73.6879C132.863 73.6078 132.556 72.8052 136.508 71.4238C137.203 71.122 137.957 70.9796 138.715 71.007C139.093 71.03 139.453 71.1757 139.741 71.4221C140.029 71.6684 140.228 72.002 140.309 72.372C140.422 73.3776 138.237 76.2213 136.296 76.67C135.684 76.8119 134.923 76.852 134.635 77.408C134.371 77.9258 134.707 78.5364 135.034 79.0178C136.019 80.4738 136.663 80.3354 137.426 79.865C143.641 76.043 144.069 75.8537 144.706 75.1139C145.342 74.3808 146.306 72.3223 146.501 70.7527C146.569 70.1974 146.703 69.6072 147.166 69.2926C148.608 68.5382 150.11 71.2809 154.227 67.5035C155.387 66.4388 156.295 65.0329 158.075 62.524C158.662 61.6977 159.273 60.7131 158.959 59.7585Z" fill="url(#paint3_angular_2979_51)"/>
    <path d="M159.555 59.5984C159.511 59.0372 159.268 58.5101 158.87 58.1118C158.472 57.7135 157.946 57.4701 157.384 57.4253C156.996 57.3768 156.602 57.4305 156.241 57.5812C155.881 57.7319 155.565 57.9743 155.327 58.2843C154.496 59.127 151.281 63.0391 150.237 62.0099C148.235 60.4975 155.491 55.4351 152.136 53.161C150.895 52.3002 149.326 52.9927 149.274 53.5642C146.267 56.0794 142.221 59.7276 142.015 63.637C141.953 64.779 142.348 64.6179 141.692 64.5233C137.929 64.0274 133.32 67.0904 131.069 69.4655C130.824 69.5329 130.604 69.6675 130.432 69.8541C128.709 71.6641 131.777 75.3141 133.04 73.6306C134.635 73.0309 137.457 71.0516 138.923 71.3146C139.742 71.4566 140.288 72.0472 139.908 72.8234C139.261 74.0892 135.825 76.1476 134.939 76.9475C134.385 77.0149 133.587 78.096 134.779 79.6029C136.043 81.1945 137.134 80.7331 137.327 80.3C140.119 79.121 142.761 77.6157 145.199 75.8155C146.021 75.1521 146.665 74.2935 147.072 73.3179C147.479 72.3423 147.635 71.2805 147.527 70.229C149.589 71.048 151.661 70.1871 153.453 68.8567C156.078 66.8684 157.281 64.6771 158.748 61.7296C159.37 60.462 159.585 60.2945 159.555 59.5984ZM132.769 73.3203C131.669 73.6315 130.2 71.2327 131.137 69.9951C133.912 68.5628 138.947 64.5743 142.896 66.5317C142.943 66.5999 142.961 66.5763 142.844 66.6482C142.046 67.1414 141.319 66.7828 140.655 67.176C140.399 67.3188 140.319 67.4708 140.356 67.5609C140.394 67.651 140.552 67.691 140.761 67.7429C141.612 68.1113 142.569 68.1547 143.45 67.8648C146.009 66.7128 146.271 64.2549 146.516 63.4686C146.706 62.7734 147.04 62.413 146.948 62.2283C146.882 62.0399 146.161 62.1555 145.583 63.0009C145.171 63.8447 144.713 64.665 144.21 65.4579C144.147 65.4178 144.082 65.3796 144.017 65.3423C141.982 61.7842 147.854 56.437 149.578 54.1156C150.009 53.5414 149.865 53.6233 150.101 53.5969C150.354 53.5524 150.613 53.5591 150.863 53.6164C151.114 53.6737 151.35 53.7806 151.558 53.9307C151.767 54.0808 151.943 54.2712 152.077 54.4905C152.21 54.7098 152.299 54.9536 152.337 55.2076C152.414 55.9129 152.526 55.4479 150.861 57.075C149.806 58.156 148.598 59.5056 148.42 61.0034C148.304 62.2438 148.767 61.847 148.038 61.8224C147.395 61.7878 147.128 62.0663 147.167 62.1318C147.208 62.2447 147.5 62.2064 147.908 62.3803C148.978 62.8298 149.751 64.5788 148.602 66.3934C147.626 67.964 145.006 70.1935 142.666 70.5511C140.312 70.9652 139.377 69.3836 139.83 68.3453C139.992 67.9376 140.246 67.7474 140.186 67.6473C140.089 67.3834 138.603 68.0696 138.981 69.7676C136.858 69.5993 133.46 72.2701 132.769 73.3203ZM136.93 80.0907C136.312 80.0625 135.958 79.5501 135.533 79.0123C134.888 78.1933 134.866 77.8794 135.026 77.3589C136.354 77.2415 142.098 74.8345 141.586 71.8761C143.138 72.0184 144.692 71.6383 146.003 70.7959C146.308 75.1812 139.373 77.5845 136.929 80.0907H136.93ZM148.421 68.8585C149.827 67.4153 150.836 65.5562 150.15 63.6715C152.072 64.0619 153.881 62.0208 154.932 60.3728C156.281 58.2279 155.418 58.4117 156.325 58.2798C158.027 58.015 159.042 59.3026 158.587 60.5621C157.904 62.6123 152.263 69.9651 148.421 68.8585Z" fill="#1E1E1E"/>
    <path d="M68.5838 125.138C68.4682 124.003 68.0742 122.907 67.9859 121.771C67.914 120.85 68.0442 119.925 68.0478 119.001C68.0633 114.75 65.2878 112.125 62.4167 112.3C61.9863 110.008 61.423 107.494 59.5466 106.108C58.7486 105.479 57.8123 105.05 56.8154 104.855C55.8184 104.66 54.7894 104.706 53.8136 104.988C53.5288 100.914 50.8798 96.6791 46.6655 97.2933C40.9325 98.1296 29.9388 112.541 27.6383 117.131C25.6045 121.192 24.6599 126.054 25.862 130.351C23.8873 127.327 19.8797 130.699 19.8087 137.112C19.7574 137.787 19.847 138.465 20.0718 139.104C20.2966 139.743 20.6517 140.327 21.1146 140.821C22.5326 142.851 24.0945 144.777 25.7883 146.583C27.6729 148.373 33.4378 152.288 37.3763 153.453C43.2394 155.187 47.8094 152.849 48.683 150.785C48.956 150.138 48.956 149.677 49.229 146.549C49.3337 145.33 49.2636 144.164 48.0997 143.785C56.4954 141.661 59.0288 133.56 59.2099 133.364C60.2078 132.472 61.4253 131.863 62.7371 131.599C66.4681 131.411 68.9605 128.856 68.5838 125.138ZM31.1701 137.988C33.0428 139.594 35.0391 141.05 37.1406 142.343C34.8896 141.287 32.8626 139.809 31.1701 137.988ZM38.6184 143.084C40.7584 144 43.0873 144.388 45.4088 144.216C42.8708 145.259 41.4048 144.449 38.6184 143.085V143.084Z" fill="white"/>
    <path d="M68.0925 120.738C70.3757 117.571 67.8113 111.795 64.3324 111.494C64.1576 107.517 59.2364 103.257 54.7473 104.257C54.7266 102.186 53.9123 100.203 52.4722 98.7153C51.0322 97.2278 49.0763 96.3494 47.0078 96.2614C43.8756 96.144 41.7198 98.136 39.7196 100.545C32.9556 108.889 22.6598 117.885 24.4598 128.482C18.9998 129.599 15.5827 137.645 23.2031 145.361C28.2873 150.351 38.8287 157.535 45.4981 154.775C46.6753 154.299 47.7327 153.568 48.5945 152.636C49.4563 151.703 50.1012 150.591 50.4831 149.38C50.9665 147.694 50.7979 145.888 50.0108 144.32C54.7337 142.361 58.0315 137.604 60.4849 133.085C63.0793 132.302 65.9913 132.321 68.0643 129.961C70.3429 127.427 70.1809 123.487 68.0925 120.738ZM63.5743 114.923C63.8484 114.37 64.0532 113.785 64.184 113.182C65.6773 113.958 67.278 117.011 66.8449 119.417C65.537 118.31 63.9846 117.531 62.3158 117.142C61.6069 116.958 62.364 117.342 63.5743 114.923ZM62.1666 111.87C62.0985 113.735 61.3082 115.502 59.9625 116.796C57.711 116.661 55.4532 116.917 53.2886 117.551C44.1786 120.216 48.4046 121.898 44.9776 118.316C49.5476 114.82 54.1149 110.806 54.6973 105.898C58.2781 105.441 62.0865 109.029 62.1666 111.87ZM48.7977 148.881C48.454 149.795 47.9196 150.625 47.2302 151.317C46.5408 152.008 45.7121 152.544 44.7992 152.891C39.1345 155.098 29.0253 147.935 24.7228 143.813C18.1762 137.367 20.7324 131.082 24.7874 129.954C27.1798 138.673 38.8924 147.707 48.5884 144.824C49.1764 146.1 49.2513 147.552 48.7977 148.881ZM66.5109 128.625C64.3078 131.275 59.1308 130.129 52.8081 135.716C51.6515 136.743 51.1446 137.44 51.2402 137.546C51.4877 137.824 53.9529 135.622 58.2954 133.868C55.1778 138.617 52.1875 142.428 46.7512 143.32C37.6957 144.653 26.4299 134.984 26.4673 126.087C26.4427 118.37 33.7573 110.931 38.7723 105.052C42.0283 101.281 44.8747 96.0366 49.9926 99.2489C52.9956 101.095 54.124 105.933 51.03 110.222C48.9274 112.839 46.5335 115.207 43.8947 117.282C39.564 113.449 34.7947 113.819 34.7865 114.398C34.7728 115.292 39.2964 114.506 45.155 121.268C44.1322 121.898 37.1998 126.695 37.5738 127.219C37.7931 127.527 41.6588 124.994 45.2733 123.049C64.083 112.94 70.2819 124.089 66.5109 128.625Z" fill="#1E1E1E"/>
    <path d="M39.4421 110.412C39.5914 113.884 39.9636 117.735 42.5361 120.066C44.6947 122.019 47.8141 122.354 50.5787 123.251C57.4611 125.485 57.0543 128.468 84.438 138.051C90.4777 140.165 91.5624 139.545 95.7721 137.664C101.698 135.015 107.288 132.951 112.88 129.656C115.692 127.998 119.238 126.964 122.107 125.407C126.971 122.768 132.774 122.196 137.539 119.381C139.177 118.414 139.666 116.833 140.211 115.013C140.553 113.593 140.563 112.113 140.241 110.689C139.036 103.095 140.856 95.507 140.188 87.8475C139.477 79.6843 141.468 71.5055 140.396 63.4515C140.222 62.1395 139.912 60.8039 139.081 59.7731C138.817 59.4442 138.519 59.141 138.192 58.8686C137.288 58.015 135.888 58.0059 134.772 57.4599C133.766 57.089 132.808 56.6002 131.917 56.0039C128.865 53.4996 120.997 53.081 104.752 45.0402C101.577 43.4686 95.1969 40.9352 91.688 40.4347C86.1934 39.6512 84.1732 41.9226 79.0927 44.1566C67.9979 49.0369 60.9928 52.0809 54.893 54.9583C48.6586 57.9003 41.5588 57.7602 40.4677 63.3685C40.1656 64.9155 39.4531 78.9159 39.3484 81.7806C39.0099 91.109 39.0226 100.666 39.4421 110.412Z" fill="url(#paint4_angular_2979_51)"/>
    <path d="M76.6429 69.7321C75.7062 70.3915 75.9241 71.357 76.9443 71.8779C77.1903 72.0035 77.4436 72.1153 77.7031 72.2128C78.4729 72.4749 78.4875 70.674 78.533 70.2108C78.6067 69.4491 78.806 68.8312 78.4811 68.8039C77.6621 68.732 77.2426 69.3017 76.6429 69.7321Z" fill="url(#paint5_angular_2979_51)"/>
    <path d="M141.51 63.1811C141.561 61.983 141.241 60.7985 140.594 59.7889C139.947 58.7793 139.005 57.9937 137.895 57.5391L92.8964 39.6375C89.7487 38.3854 91.7753 38.2725 42.8791 58.2607C41.7557 58.6998 40.785 59.4577 40.0866 60.4412C39.3881 61.4246 38.9924 62.5908 38.9479 63.7962V115.639C38.9 116.817 39.2094 117.982 39.8355 118.981C40.4615 119.98 41.375 120.767 42.456 121.237L87.4564 140.148C88.2044 140.46 89.0076 140.619 89.8183 140.616C90.6289 140.612 91.4306 140.445 92.1757 140.126L137.683 120.512C138.778 120.058 139.72 119.299 140.397 118.326C141.075 117.353 141.459 116.206 141.505 115.021L141.51 63.1811ZM139.265 100.34L124.786 106.554V89.8786L139.265 83.6124V100.34ZM106.463 114.452V97.7756L123.233 90.5448C123.613 90.6931 123.515 87.5054 123.515 107.099L106.463 114.452ZM123.515 108.487V124.197L106.463 131.548V115.837L123.515 108.487ZM89.8169 121.629C73.2258 114.66 74.8839 115.633 74.8839 114.732L90.1982 108.472L105.148 114.419C105.214 114.254 105.191 114.18 105.191 115.001L89.8169 121.629ZM90.7452 54.2167L105.669 60.957C102.203 62.5832 97.9505 64.597 91.2211 67.7948C89.826 68.4563 92.556 69.2462 74.8829 61.2009L90.7452 54.2167ZM73.335 60.4956C68.7122 58.3945 63.6999 56.134 59.0298 54.0629L75.0941 47.4963L88.9725 53.6088L73.335 60.4956ZM92.0055 53.3904L105.796 47.1642L121.849 53.5487C115.106 56.5945 111.642 58.167 107.192 60.2463L92.0055 53.3904ZM123.515 89.0414C123.084 89.2234 124.903 89.8441 107.657 82.9827V61.8525L123.515 69.0133V89.0414ZM105.191 113.065L90.8307 107.352V91.4275L105.191 97.1395V113.065ZM74.9102 77.6018C75.4499 76.3733 73.689 77.9613 87.3063 71.1144C88.2163 70.6594 88.9788 70.2581 89.5904 69.9587V89.936C89.5904 90.1425 90.7342 89.5893 74.8839 96.0685C74.8839 76.7901 74.8192 77.5618 74.9102 77.6018ZM90.8634 89.3408V69.3581C94.8957 67.4471 102.38 63.9054 106.385 62.0263V82.9918L90.8634 89.3408ZM90.8307 90.0188L90.8507 90.0697L90.8307 90.0616V90.0188ZM74.8839 97.4417L89.5594 91.4429V107.36L74.8839 113.358V97.4417ZM106.593 96.336L91.6369 90.3873L107.021 84.0992L121.559 89.8832L106.593 96.336ZM107.62 61.8361C106.619 61.8361 106.609 61.9216 107.198 61.6459L107.62 61.8361ZM88.7641 68.9641C85.9813 70.3364 80.5486 73.1665 74.2869 75.9384L57.855 68.7048L73.325 61.8907C80.2792 65.0493 86.2743 67.8139 88.7641 68.9641ZM73.6126 77.0304V96.7592L56.9095 89.7394V69.6739L73.6126 77.0304ZM55.6383 89.2052L41.2229 83.1465C41.3722 62.0172 41.3139 63.5369 41.4823 62.8799L55.6383 69.1143V89.2052ZM41.152 84.5215L55.6383 90.5839V107.266L41.152 101.154V84.5215ZM56.9095 91.1181L73.6126 98.1378C73.6126 115.312 73.5753 114.097 73.6126 114.188C73.6126 115.093 76.1333 115.88 56.9095 107.8V91.1181ZM73.6126 116.199V131.916L56.9095 124.897V109.18L73.6126 116.199ZM139.334 82.2237L124.786 88.4936V68.7748L139.353 62.1983C139.524 62.8808 139.481 61.4357 139.334 82.2237ZM138.84 61.0353C122.444 68.4381 124.046 67.5873 124.198 67.9267L108.717 60.9361C112.946 58.9678 116.538 57.3398 123.487 54.2021C138.448 60.1508 137.963 59.7131 138.84 61.0353ZM89.23 41.7187C91.141 40.9388 91.2866 41.392 104.154 46.5108L90.2574 52.7898L76.7293 46.8275L89.23 41.7187ZM57.3973 54.7317C62.031 56.7801 67.0724 59.0497 71.7753 61.1836L56.2789 68.0086L42.001 61.7196C42.8664 60.4319 42.3586 60.8788 57.3973 54.7308V54.7317ZM41.0409 115.654V102.529L55.6419 108.646V124.363L43.3159 119.186C42.6275 118.892 42.0429 118.398 41.6375 117.769C41.232 117.139 41.0243 116.403 41.0409 115.654ZM74.8839 132.45V116.734L89.2537 122.797V138.345C88.6012 138.242 89.533 138.607 74.8839 132.45ZM90.5258 138.333V122.681L105.196 116.389V132.095C90.0745 138.61 91.1455 138.221 90.5258 138.333ZM136.805 118.469L124.786 123.649V107.939L139.149 101.729V115.005C139.134 115.747 138.905 116.469 138.489 117.083C138.073 117.698 137.488 118.179 136.805 118.469Z" fill="#1E1E1E"/>
    <path d="M101.897 127.136C101.924 126.603 101.788 126.075 101.508 125.621C101.335 125.422 101.109 125.277 100.856 125.203C100.603 125.128 100.335 125.127 100.082 125.2C100.319 121.742 94.6646 122.203 95.2215 126.65C93.6918 127.421 93.9393 129.442 94.1186 131.25C94.1194 131.624 94.2327 131.988 94.4437 132.297C94.6546 132.605 94.9536 132.843 95.3016 132.979C96.1655 133.113 97.0497 132.975 97.8314 132.583C101.343 131.361 102.24 131.543 101.897 127.136ZM96.2689 125.274C96.7239 124.091 99.1017 123.104 99.2337 125.434C95.4044 126.545 96.7275 126.152 96.025 126.344C96.0577 125.978 96.1397 125.618 96.2689 125.274ZM97.5429 131.608C96.4564 131.922 95.6929 132.252 95.3589 131.695C95.1769 131.396 94.7465 128.286 95.6319 127.691C95.8012 127.584 99.7933 126.326 99.9626 126.276C100.897 125.918 100.884 126.26 101.015 127.229C101.533 131.012 100.919 130.578 97.5465 131.608H97.5429Z" fill="#1E1E1E"/>
    <path d="M82.7616 8.15066C83.9601 7.42266 85.2241 6.81478 86.4863 6.2069C91.0217 4.0229 92.3667 4.24403 95.5935 5.62359C97.9104 6.61276 106.707 10.2646 107.606 12.5714C107.879 13.2758 107.81 13.1475 107.869 22.2338C107.889 25.2578 107.459 25.0685 107.167 26.6237C106.744 28.8786 107.424 29.6694 104.768 31.0481C101.275 33.0189 97.4554 34.3444 93.4924 34.9611C92.3251 35.3052 91.1003 35.4095 89.8917 35.2676C88.6831 35.1258 87.5157 34.7407 86.4599 34.1357C84.76 33.3313 77.9732 29.4101 77.0687 27.773C76.5227 26.7775 76.6237 26.398 76.3962 17.5282C76.1933 9.56025 75.4634 12.5751 82.7616 8.15066Z" fill="url(#paint6_angular_2979_51)"/>
    <path d="M105.941 9.42284C93.2058 4.02381 92.6734 3.29854 90.2474 4.30955L78.2354 9.31455C77.3743 9.67196 76.6388 10.2769 76.1218 11.0527C75.6049 11.8285 75.3299 12.7403 75.3316 13.6725V27.1997C75.33 28.1318 75.6052 29.0434 76.1221 29.819C76.639 30.5946 77.3745 31.1994 78.2354 31.5568C91.3658 37.0313 90.7934 36.9303 92.0737 36.9303C93.3541 36.9303 92.6816 37.0723 105.912 31.5568C106.773 31.1997 107.509 30.595 108.026 29.8193C108.543 29.0436 108.818 28.1319 108.817 27.1997V13.7699C108.818 12.8429 108.546 11.9361 108.034 11.1629C107.523 10.3897 106.795 9.78446 105.941 9.42284ZM90.9817 6.06949C91.3281 5.92608 91.6996 5.85287 92.0745 5.85412C92.4494 5.85537 92.8203 5.93105 93.1657 6.07677C106.289 11.6505 105.352 11.2192 105.669 11.4321L92.0792 16.6073L78.4893 11.3357C78.8178 11.1173 77.8341 11.5504 90.9817 6.06949ZM78.9697 29.7968C78.4569 29.5836 78.0188 29.223 77.7111 28.7607C77.4033 28.2984 77.2396 27.7551 77.2407 27.1997C77.2407 12.667 77.107 13.2166 77.5738 12.3439L91.4413 17.7239C91.4413 36.7247 91.6333 35.0748 90.9936 34.8091L78.9697 29.7968ZM106.907 27.1997C106.908 27.7551 106.744 28.2984 106.437 28.7608C106.129 29.2231 105.691 29.5837 105.178 29.7968L93.1566 34.8091C92.5196 35.0757 92.7089 36.741 92.7089 17.7266L106.578 12.4486C107.041 13.3049 106.912 12.7316 106.912 27.1997H106.907Z" fill="#1E1E1E"/>
    <path d="M98.6931 24.608C98.2863 23.5687 97.8614 23.3203 96.9013 23.3412C96.0232 23.3604 94.9903 23.6506 94.7173 24.4869C94.5353 25.0548 94.8283 29.0961 93.9338 30.5284C93.8265 30.7413 93.6654 30.9224 93.4664 31.0536C93.2675 31.1849 93.0376 31.2617 92.7997 31.2766C92.5618 31.2914 92.3241 31.2436 92.1104 31.1381C91.6862 30.9286 91.3996 30.5152 91.1281 30.1278C89.1558 27.3129 91.0981 23.1121 88.5102 23.1556C87.8706 23.1803 87.263 23.4422 86.806 23.8904C86.3489 24.3385 86.075 24.9408 86.0377 25.5798C86.0004 26.2259 86.1415 26.873 86.066 27.5181C85.7502 30.2181 85.1505 27.8439 86.6547 34.6116C87.0582 36.4285 87.0436 41.1264 86.6307 42.9412C86.3384 44.226 86.1972 45.6283 86.0669 46.8902C85.7629 49.8814 86.2489 51.9953 89.1945 53.0928C90.0859 53.4248 89.9488 53.2874 89.011 53.1288C88.746 53.0839 88.4779 53.0563 88.2081 53.0464C85.3634 52.807 84.6591 58.9859 84.7628 61.6277C84.8274 63.2475 85.4244 63.5805 86.6848 63.5696C87.6248 63.5614 88.0834 63.4358 88.4192 62.5968C89.0144 61.1153 88.9716 58.9814 91.0864 59.2407C92.0874 59.3636 92.3832 59.8541 92.4642 60.8169C92.5979 62.4048 91.2812 63.3376 92.8664 63.9054C95.0094 64.6716 96.1187 65.1703 96.3772 59.1288C96.5097 57.9513 96.3266 56.7635 95.8519 55.6858C95.6895 55.317 95.6303 54.9081 95.703 54.5116C95.8375 53.7781 96.4147 53.2906 97.112 53.0262C97.595 52.8431 98.0798 52.4489 98.5202 51.5103C99.938 48.4882 99.1736 42.9845 98.2154 39.7258C98.0761 39.2517 97.9496 39.1061 97.4637 39.0069C96.6416 38.839 96.7862 38.5281 97.4297 37.9896C100.644 35.2995 99.8556 27.5834 98.6931 24.608Z" fill="url(#paint7_angular_2979_51)"/>
    <path d="M98.6767 23.6598C98.4193 23.3701 98.0997 23.1424 97.7419 22.9935C97.3841 22.8447 96.9973 22.7786 96.6104 22.8002C96.2235 22.8218 95.8465 22.9306 95.5075 23.1183C95.1685 23.3061 94.8763 23.568 94.6527 23.8845C94.2541 24.5397 94.4097 25.2559 94.2823 26.9667C93.851 32.4767 91.7343 31.473 91.0527 29.1571C90.4358 26.9885 90.5795 24.1994 89.7378 23.3331C89.4903 23.1202 89.2015 22.9608 88.8895 22.865C88.5775 22.7692 88.249 22.7389 87.9247 22.7762C87.6005 22.8135 87.2874 22.9174 87.0053 23.0815C86.7231 23.2457 86.478 23.4664 86.2853 23.7298C85.4071 25.032 83.5744 35.8638 88.4056 38.976C86.4372 40.341 85.8293 43.617 85.5991 46.0139C85.3543 48.4891 85.7274 51.0962 87.6848 52.6432C83.8728 54.7626 83.8192 62.5759 84.9876 63.6633C86.1296 64.7426 88.4083 64.4032 88.6422 62.7706C89.1235 61.9225 89.3793 60.9506 89.7833 60.3136C90.3721 59.3854 91.1174 59.5201 91.4013 59.8077C91.8799 60.29 91.4013 63.5869 91.9282 63.7707C92.4987 65.1831 95.0049 65.2522 95.7438 63.8617C96.5045 62.9517 98.0798 56.6873 96.1688 54.2731C96.1906 54.1866 96.2115 54.1002 96.2306 54.0128C100.674 52.9135 100.202 47.4462 99.9616 43.2912C99.8333 41.6168 99.5167 39.6148 98.1143 38.692C102.193 35.2277 100.202 25.3524 98.6767 23.6598ZM91.8017 58.0841C90.4458 58.3389 89.8215 56.7046 89.6441 56.7355C89.493 56.7492 89.443 57.5491 90.0272 58.2716C88.4174 58.8722 87.9405 61.2482 87.9961 62.8161C87.7992 63.0116 87.5604 63.1597 87.2979 63.2494C87.0354 63.339 86.7559 63.3678 86.4806 63.3337C86.2053 63.2995 85.9414 63.2032 85.7087 63.052C85.4761 62.9009 85.2809 62.6989 85.1377 62.4612C85.1004 62.3702 85.1487 62.5286 85.3971 61.1454C85.9995 58.0423 86.379 54.1639 89.4238 53.5796C89.6614 53.6634 89.8934 53.7307 90.1191 53.7871C89.6958 54.4583 89.4387 55.2207 89.3692 56.0112C89.4011 56.3615 89.5267 56.5253 89.6213 56.5189C89.7296 56.5135 89.8033 56.347 89.9371 56.1149C90.444 55.1976 91.2275 54.6944 91.6706 53.5041C92.6043 51.0608 90.6159 48.9423 90.4976 47.1587C90.4349 46.3188 91.0882 44.9001 90.1127 45.7791C88.3428 47.3707 90.2747 50.2108 90.4376 52.0163C90.0053 52.0088 89.5733 52.0448 89.1481 52.1236C86.4181 50.3619 86.8877 46.6955 87.5365 43.414C87.8377 41.8507 88.3255 40.32 89.7387 39.592C90.1294 39.7177 90.5288 39.8151 90.9335 39.8832C90.9044 40.482 90.5868 42.9062 91.1701 42.7643C91.4431 42.7033 93.1275 39.7613 92.1011 36.3033C91.8316 35.4149 91.507 34.5442 91.1292 33.6961C90.9317 33.6179 90.5641 34.1866 90.595 35.1139C90.595 35.9129 90.9326 37.3798 90.9326 38.2653C86.4864 37.8103 86.6065 31.0499 86.6556 26.5263C86.6966 23.9601 86.4736 24.405 86.7803 24.183C86.981 23.992 87.2217 23.8481 87.485 23.7617C87.7482 23.6753 88.0274 23.6486 88.3022 23.6834C88.5771 23.7183 88.8408 23.8138 89.0741 23.9632C89.3074 24.1126 89.5046 24.312 89.6513 24.547C89.8033 24.7854 88.4765 31.4839 92.0264 32.393C91.2293 32.6487 91.0254 33.4377 91.2074 33.475C91.3121 33.5296 91.4804 33.2766 91.8444 33.1529C92.6216 32.8899 94.2751 33.5633 95.0768 35.5744C95.8859 37.7534 95.873 40.1527 95.0404 42.3229C94.2987 43.9191 92.6525 44.3249 91.6897 43.3785C91.3867 43.0919 91.2975 42.8153 91.1792 42.8325C90.9617 42.8325 90.9608 43.9819 92.0992 44.607C91.1792 44.698 89.7715 45.6572 91.4786 45.3833C96.1615 44.6061 95.9686 57.3043 91.8017 58.0814V58.0841ZM95.5035 58.9805C95.0485 63.8035 95.4126 63.1756 95.2306 63.374C95.0348 63.5605 94.8028 63.7048 94.5489 63.7978C94.2951 63.8909 94.0247 63.9306 93.7548 63.9147C93.4849 63.8987 93.2212 63.8274 92.98 63.7051C92.7389 63.5828 92.5255 63.4121 92.3531 63.2038C92.8209 62.0044 93.3232 60.0698 92.5925 59.0087C93.8615 58.4244 94.8809 57.4072 95.4681 56.1395C95.6454 57.0762 95.6574 58.0368 95.5035 58.9778V58.9805ZM98.1899 41.0535C98.5311 42.2965 99.0271 48.6766 98.0543 50.9379C97.7429 51.7221 97.1657 52.3719 96.4236 52.7734C96.6392 50.2472 95.9686 45.9675 93.6444 44.8928C96.0477 44.5688 97.0023 41.9398 97.1443 39.5083C97.4158 39.6791 97.6489 39.9045 97.8288 40.1702C98.0086 40.4359 98.1313 40.7361 98.189 41.0517L98.1899 41.0535ZM97.0733 37.5691C96.8003 35.5471 95.8339 33.3458 93.9229 32.5641C93.2986 32.2911 93.2167 32.4385 93.5307 32.3102C95.7147 31.4366 95.7629 26.3952 94.7446 24.6962C95.9076 23.6497 96.763 23.3485 98.5839 24.3623C98.4347 27.2033 100.297 34.7062 97.0733 37.5673V37.5691Z" fill="#1E1E1E"/>
    <path d="M68.3065 128.621C71.9374 124.156 64.4162 115.955 55.9305 118.031C50.688 119.314 36.8842 126.785 36.0925 129.165C35.7085 130.325 36.8205 131.507 37.432 132.563C38.0896 133.597 38.9461 134.49 39.9518 135.19C42.7637 137.305 45.9323 140.503 49.2629 139.369C51.3887 138.646 53.5035 135.183 55.5283 134.285C55.8267 134.154 66.491 130.852 68.3065 128.621Z" fill="white"/>
    <path d="M53.8184 119.531C48.4366 120.909 44.1196 123.71 39.7425 126.216C36.9124 127.836 36.9106 127.453 39.2465 125.505C61.3595 107.062 74.904 122.266 68.0662 129.96C66.714 131.482 65.0632 132.024 63.0694 132.468C54.7438 134.324 51.6416 137.994 51.2394 137.546C51.1484 137.44 51.6498 136.742 52.8074 135.716C59.0682 130.174 64.2843 131.302 66.5101 128.625C69.9117 124.535 65.3135 116.59 53.8184 119.531Z" fill="#1E1E1E"/>
    <path d="M73.8012 103.394C73.388 98.7447 74.6201 78.3134 73.9941 77.1905C73.6528 76.5808 71.9921 75.952 67.9271 74.0965C66.5166 73.4531 64.9487 73.1947 63.5464 72.514C61.133 71.3437 59.4668 70.421 57.0908 69.1752C55.957 68.5828 53.8148 68.5045 52.7601 67.7829C49.4531 65.6966 45.9095 64.0113 42.2041 62.7624C40.8546 62.3548 40.3559 62.9745 40.0975 64.3094C39.9501 65.0684 40.1275 64.7517 40.1093 65.5115C39.9774 70.9715 39.7326 67.0813 39.9683 75.7609C40.1011 80.6458 40.2977 81.5366 39.8217 82.8152C40.9774 95.9874 37.5941 99.5592 42.7874 103.011C46.3992 105.41 56.452 107.331 63.863 111.232C66.684 112.718 69.5669 114.225 72.7128 114.752C73.3753 114.863 73.8721 114.713 74.0077 113.415C74.2968 111.784 74.4342 110.13 74.4181 108.474C74.278 106.796 73.8012 105.078 73.8012 103.394Z" fill="white"/>
    <path d="M45.2133 99.6521C43.0619 98.7609 43.5933 98.5346 44.0572 71.714C44.0902 69.8099 45.4172 68.8843 47.1043 69.7677C60.3994 76.7273 69.4466 78.8149 69.7924 79.3409C69.9644 79.6029 69.4693 107.915 69.3374 108.348C68.8642 109.922 68.3291 108.803 67.7904 108.712C66.8399 108.496 65.922 108.156 65.0604 107.7C62.163 106.449 59.0326 105.55 56.1351 104.299C50.272 101.769 53.6554 103.151 45.2133 99.6521Z" fill="url(#paint8_angular_2979_51)"/>
    <path d="M49.3219 90.3555C49.3353 90.2029 49.3597 89.8427 49.3631 89.4544C49.3709 88.5536 48.6475 88.0785 47.9441 87.5157C47.5885 87.2312 47.2931 86.8787 47.0752 86.4789C46.9101 86.1789 46.8239 85.842 46.8244 85.4997C46.825 85.1573 46.9123 84.8207 47.0783 84.5213C47.2443 84.2219 47.4835 83.9694 47.7735 83.7876C48.0636 83.6057 48.395 83.5003 48.7368 83.4813C48.9898 83.4358 50.0427 83.3903 50.09 83.5241C48.7881 79.8942 47.65 77.6538 49.0136 77.9763C50.2526 78.2693 51.2363 77.7476 52.244 76.9694C53.4943 76.002 54.2878 79.3254 55.429 77.8512C55.793 77.3852 55.8221 76.4534 56.0268 76.174C56.2607 75.8555 57.067 75.8301 57.2389 77.0194C57.3251 77.6183 57.1924 78.7989 57.5557 79.3823C57.7673 79.722 58.2463 79.7424 58.6239 79.6099C58.9733 79.4873 59.2731 79.2413 59.6321 79.1506C60.7374 78.8714 61.4843 79.6307 61.3458 80.1689C61.2514 80.5349 61.4629 80.6365 61.8235 80.5232C62.1201 80.43 62.4315 80.3899 62.7434 80.4055C63.0113 80.4188 63.2787 80.537 63.4 80.7763C63.4381 80.8513 63.467 80.9312 63.4859 81.0143C63.5351 81.2316 63.5125 81.4589 63.4215 81.6622C63.0639 82.5104 62.2385 82.5722 62.2494 83.1701C62.2494 83.346 62.2358 83.2873 62.9498 84.7565C63.001 84.8618 63.0764 84.9545 63.1529 85.0432C63.4493 85.387 63.809 85.7577 64.263 85.7518C64.851 85.7442 65.0439 85.8101 65.4835 86.4252C65.6885 86.7388 65.8193 87.095 65.8661 87.4667C65.9129 87.8384 65.8745 88.2159 65.7537 88.5705C65.633 88.9252 65.433 89.2477 65.1691 89.5136C64.9052 89.7795 64.5842 89.9818 64.2305 90.1052C62.4423 90.694 64.7974 90.8532 64.2514 94.4578C64.053 95.7636 64.1185 97.5727 62.9119 98.0978C62.4988 98.2798 62.2549 98.4208 62.7117 99.0496C63.3341 99.9059 63.6899 99.7057 64.1677 101.642C64.4439 102.499 64.5143 103.409 64.3733 104.298C64.2441 106.18 65.1878 107.604 64.3788 107.384C63.3104 107.16 62.2748 106.81 61.2932 106.341C60.241 105.84 59.2124 105.297 58.1187 104.893C55.873 104.065 51.595 102.417 46.9478 100.232C44.8757 99.2571 48.0934 96.1731 51.1338 95.9547C52.1757 95.8801 51.5369 95.2422 50.8608 94.5433C48.8269 92.423 49.2309 91.402 49.3219 90.3555Z" fill="white"/>
    <path d="M49.4048 84.8836C48.4448 84.86 47.9698 85.7873 48.1727 85.8764C48.2928 85.9429 48.706 85.4051 49.3903 85.4214C49.5302 85.4251 49.6677 85.4589 49.7934 85.5206C49.6253 85.5724 49.4755 85.6714 49.3619 85.8057C49.2483 85.9401 49.1756 86.1042 49.1524 86.2786C49.1292 86.453 49.1565 86.6304 49.2311 86.7898C49.3057 86.9492 49.4244 87.0838 49.5732 87.1777C49.878 87.3452 50.0946 87.2569 50.091 87.1905C50.1019 87.0558 49.4258 86.7955 49.727 86.1977C49.8134 86.0157 49.8598 86.0575 49.9308 86.0803C51.3559 86.7309 51.1138 86.7828 50.889 86.0275C50.7896 85.7072 50.5937 85.4254 50.328 85.2206C50.0623 85.0159 49.7399 84.8982 49.4048 84.8836Z" fill="#1E1E1E"/>
    <path d="M75.1087 77.8548C75.1087 74.6598 73.2887 75.8337 43.1814 61.9471C42.7657 61.7539 42.3081 61.6685 41.8507 61.6987C41.3933 61.7289 40.9509 61.8738 40.5642 62.12C38.7642 63.2584 39.363 61.8525 39.0263 100.109C39.0198 100.655 39.1763 101.19 39.4759 101.646C39.7756 102.102 40.2046 102.458 40.708 102.669C73.4853 116.442 72.194 116.468 73.9439 115.308C75.6939 114.147 75.1197 115.552 75.1087 77.8548ZM72.1012 113.793C39.3048 100.009 41.3232 100.919 41.1157 100.659C42.1522 100.234 43.5099 99.0824 43.2496 98.7484C42.9894 98.4145 41.3159 99.4846 40.9364 99.7585C41.2094 61.9935 41.173 64.3705 41.234 64.1775C41.6089 65.042 43.3807 68.2006 43.8439 67.8967C44.2688 67.6173 42.6745 64.7608 41.7882 63.6361C42.1804 63.5141 39.9909 62.6351 72.4552 76.9758C71.7763 77.2488 69.4695 78.409 69.6697 78.8458C69.8899 79.3245 72.4279 78.055 73.1559 77.5882C73.2187 77.7784 73.2269 75.2704 73.2605 113.02C73.2605 113.566 73.256 112.96 71.8719 111.411C70.0664 109.38 67.2855 107.68 71.1602 112.048C71.7809 112.742 72.3533 113.36 72.7928 113.777C72.6856 113.83 72.5682 113.859 72.4487 113.861C72.3292 113.864 72.2106 113.841 72.1012 113.793Z" fill="#1E1E1E"/>
    <path d="M44.4991 83.4805C44.652 63.293 43.53 63.253 43.3789 83.4422C43.2943 86.3451 43.3216 98.5755 43.4335 98.5892C44.2889 98.7011 44.4891 83.8035 44.4991 83.4805Z" fill="#1E1E1E"/>
    <path d="M69.2994 108.779C70.0865 108.87 70.2767 94.6125 70.2922 94.0319C70.4423 74.3322 69.3203 74.2922 69.172 93.9946C69.1219 95.8228 69.0837 108.757 69.2994 108.779Z" fill="#1E1E1E"/>
    <path d="M64.9122 107.107C65.2391 104.538 64.7515 101.931 63.5181 99.6539C62.6399 98.2316 62.3878 98.6738 62.9266 98.3799C64.3125 97.6246 64.5109 96.3633 64.4945 94.8C64.7147 94.1256 64.796 93.4136 64.7334 92.707C64.6709 92.0004 64.4658 91.3137 64.1305 90.6886C63.9294 90.3546 64.4554 90.7796 65.4436 89.8568C67.4338 88.0669 65.7994 84.5151 63.6864 85.3451C63.4234 83.7789 62.2968 83.8754 62.8556 83.2857C63.051 83.123 63.231 82.9427 63.3934 82.747C64.5418 81.2264 63.8229 79.6312 61.9893 80.1499C61.315 80.3856 61.7354 80.4456 61.6771 79.7358C61.6043 78.7539 60.2666 77.8457 58.2683 79.208C57.8042 79.5402 57.9252 79.572 57.8133 78.9514C57.6213 77.8712 57.3819 76.3461 56.856 75.8956C56.572 75.6053 56.1088 75.5225 55.6557 76.1495C55.3892 76.5819 55.178 77.046 55.0269 77.5309C54.732 78.248 54.6119 77.6119 53.7865 76.7647C53.0467 76.0048 52.1485 75.9939 51.6435 76.9121C51.4527 77.3205 51.3042 77.7474 51.2003 78.1861C51.1761 78.2968 51.1303 78.4016 51.0656 78.4946C50.4432 78.3508 49.8226 77.4299 48.9317 77.328C46.9706 77.206 48.5285 80.1881 49.5978 83.0355C46.1917 82.4103 45.1115 87.3525 48.9908 88.6638C48.5204 91.2464 49.0591 93.8981 51.0838 95.5252C48.7051 95.8292 46.5748 97.145 46.0333 99.511C34.4763 95.578 68.4448 110.168 68.8643 109.166C68.9244 109.01 67.3974 108.228 64.9122 107.107ZM62.4697 97.5791C60.6825 98.5664 53.3761 97.8466 53.2942 94.6152C53.2542 93.0336 53.9312 91.5613 55.9578 90.3519C55.8855 90.6149 55.8964 90.8938 55.9892 91.1503C56.0819 91.4068 56.2518 91.6283 56.4756 91.7842C57.8087 92.4967 58.4475 91.6277 58.7715 93.1174C58.8225 93.3421 58.9126 93.4632 58.9763 93.4477C59.04 93.4322 59.0845 93.323 59.1428 93.1237C59.8863 90.5757 55.723 91.7105 57.0662 90.2117C57.664 89.521 61.2367 89.4255 62.3669 90.3337C63.5554 91.2965 60.9946 91.1782 60.5187 92.2938C60.3367 92.7288 60.394 93.6042 60.5469 93.6479C60.7544 93.708 60.8827 92.9062 61.1047 92.6269C61.5479 92.069 63.205 92.3775 63.5617 91.0799C63.8464 91.8022 63.9489 92.5835 63.8602 93.3549C63.6491 96.0421 62.103 95.6608 59.626 95.548C47.4629 94.6917 60.8754 97.1095 62.9138 96.4052C63.569 96.1959 63.6527 95.8264 63.4598 96.4052C63.3799 96.6559 63.2513 96.8884 63.0814 97.0893C62.9115 97.2903 62.7037 97.4558 62.4697 97.5764V97.5791ZM55.0132 89.8132C54.71 89.6409 54.4501 89.4017 54.2534 89.1137C54.0567 88.8257 53.9285 88.4966 53.8784 88.1515C55.6311 88.0195 55.3863 88.0013 55.3927 88.0896C55.4282 88.6001 55.3426 88.8558 55.9842 88.773C56.6257 88.6902 56.4965 88.4345 56.4656 88.0341C57.6349 88.1551 57.7077 88.3772 58.1036 88.2161C57.9425 88.9905 57.9343 88.8231 57.4875 88.9359C57.0213 89.0338 56.6013 89.2849 56.2945 89.6494C56.0142 89.7535 55.7407 89.8751 55.4755 90.0134C55.3166 89.9573 55.162 89.8895 55.0132 89.8104V89.8132ZM59.6961 88.7248C57.8642 88.7394 58.5886 89.0442 58.4721 88.055C58.676 88.0914 59.95 87.9695 60.4204 87.9404C60.3822 88.0314 60.4359 88.1806 60.4705 88.4982C60.495 88.7221 61.5789 88.8449 61.5415 88.4072C61.527 88.248 61.5051 88.1069 61.4869 87.9786C61.8746 88.0286 62.6481 88.2034 62.6781 88.2043C61.8573 89.6193 62.2604 88.7676 59.6961 88.7248ZM62.9147 86.701C63.1932 87.3079 62.8911 87.7593 62.6417 87.6756C61.5983 87.4015 60.5059 87.3704 59.4485 87.5846C57.8888 87.7556 59.0991 87.8403 58.5513 86.5836C58.772 86.1933 59.0947 85.8704 59.4849 85.6496C59.8751 85.4288 60.3181 85.3183 60.7663 85.3299C61.2145 85.3416 61.6511 85.4751 62.0292 85.7159C62.4074 85.9568 62.7129 86.2961 62.9129 86.6973L62.9147 86.701ZM58.1482 87.338C58.1145 87.975 57.5931 87.6437 56.8787 87.5582C55.3645 87.3562 53.802 87.8421 53.6227 87.7029C53.2469 87.4999 53.7519 85.3705 55.8868 85.3833C57.219 85.3815 58.2401 86.5836 58.1491 87.3307L58.1482 87.338ZM64.4181 86.1158C65.8495 86.6081 65.8013 89.5019 63.5399 90.0033C63.4753 89.9497 62.6972 89.3946 62.5462 89.3117C62.891 88.9639 63.1166 88.5156 63.1905 88.0314C63.2371 87.9949 63.2798 87.9538 63.3179 87.9085C63.3458 87.9994 63.4006 88.0797 63.4749 88.139C63.5493 88.1983 63.6398 88.2337 63.7346 88.2407C63.7765 88.2134 63.8748 88.4118 63.8184 88.5291C63.7083 88.7958 63.236 89.0351 63.306 89.1771C63.3679 89.3591 64.0713 89.2799 64.3216 88.7221C64.3642 88.6238 64.3851 88.5175 64.3828 88.4104C64.3805 88.3034 64.3551 88.1981 64.3084 88.1017C64.2616 88.0054 64.1946 87.9202 64.1119 87.8522C64.0293 87.7841 63.9328 87.7348 63.8293 87.7074C63.9203 87.5764 64.3161 87.4799 64.4545 87.691C64.6865 88.0669 64.8385 87.9131 64.8185 87.5773C64.7839 86.9931 64.0222 86.882 63.5654 87.2206C63.5718 86.9638 63.5169 86.7093 63.4052 86.478C63.3534 86.3706 63.9066 85.9329 64.4162 86.1085L64.4181 86.1158ZM52.043 78.4418C52.113 78.2043 52.3587 77.1168 52.6026 77.0631C53.2897 76.5636 54.682 80.7031 55.8659 77.3098C55.8968 77.2188 56.2299 76.2933 56.3582 76.316C56.6931 75.7901 57.4666 81.1591 57.2591 82.0099C57.2391 82.1009 57.2345 82.0408 50.6789 83.1556C50.7408 83.3285 50.4059 82.4776 50.3367 82.2947C50.5187 82.2665 56.6639 81.0762 56.6366 80.8542C56.603 80.563 52.5544 81.0653 50.2284 82.0163C46.9943 73.6798 50.9319 82.211 52.043 78.4418ZM49.6588 88.804C51.0665 88.955 51.5916 87.9795 51.1311 88.1342C49.394 88.7193 46.9506 86.9512 47.5894 84.9547C48.0444 83.5332 49.8317 83.637 50.93 84.4132C51.84 85.0693 51.9492 85.8883 52.0885 85.8574C52.1485 85.8528 52.2122 85.6481 52.1494 85.275C52.0302 84.7988 51.8001 84.3576 51.4779 83.9873C57.9762 82.8143 57.7514 82.8589 57.9134 82.6223C58.1492 81.9153 58.1907 81.1578 58.0335 80.4292C58.9772 79.8832 59.6278 79.2462 60.5196 79.5338C61.6307 79.9633 59.1164 81.9471 59.5878 82.2365C59.6833 82.3502 60.3067 81.8397 61.3504 81.2501C62.3651 80.7113 63.3652 80.6349 62.9229 81.6805C62.6117 82.4476 62.0757 82.4749 61.8018 83.1583C61.3386 84.284 62.6381 84.2931 62.8729 85.7063C62.5681 85.3885 62.1948 85.1445 61.7813 84.9931C61.3678 84.8416 60.9252 84.7866 60.4873 84.8324C60.0494 84.8781 59.6277 85.0234 59.2544 85.257C58.8812 85.4906 58.5663 85.8065 58.3338 86.1804C58.0274 85.7026 57.5851 85.3273 57.0638 85.1027C56.5424 84.8782 55.9658 84.8148 55.4081 84.9205C54.8504 85.0263 54.337 85.2965 53.9341 85.6963C53.5311 86.0961 53.2569 86.6073 53.1468 87.1641C53.1268 87.4371 53.0658 87.9267 53.4789 88.1005C53.4479 88.5515 53.5589 89.0008 53.7964 89.3853C54.0339 89.7699 54.3859 90.0704 54.803 90.2445C55.1406 90.381 54.9632 90.1162 53.9276 91.1181C53.4514 91.5682 53.0743 92.1126 52.8203 92.7166C52.5663 93.3207 52.441 93.971 52.4525 94.6261C52.4461 95.5225 52.9748 95.8337 52.0502 95.1494C50.0273 93.6743 49.5641 91.3037 49.6588 88.804ZM51.1302 101.384C51.8895 100.869 52.7602 100.542 53.6706 100.429C54.5811 100.316 55.5053 100.421 56.3673 100.735C60.0728 101.986 61.0083 104.44 61.294 104.317C61.4924 104.235 60.9673 102.729 59.4649 101.646C55.6702 98.8385 52.0757 99.5356 50.769 101.245C49.171 100.631 47.7596 100.11 46.623 99.7121C47.6595 97.4317 49.535 96.7091 51.9565 96.0958C52.3728 96.3154 52.8119 96.4887 53.266 96.6127C54.6701 98.3071 56.542 98.4754 58.595 98.7967C59.6894 98.9978 60.812 98.9904 61.9037 98.7748C63.681 100.921 64.0795 104.011 64.2433 106.801C60.3467 105.065 55.2107 102.956 51.1302 101.384Z" fill="#1E1E1E"/>
    <path d="M69.5977 79.2171C69.8016 78.7066 44.9504 68.2725 44.7292 68.7703C44.3452 69.6339 69.251 80.0743 69.5977 79.2171Z" fill="#1E1E1E"/>
    <path d="M88.4622 115.972C88.0367 115.781 87.626 115.561 87.233 115.313C85.9748 114.52 85.1119 113.263 84.1174 112.157C83.9416 111.962 83.7609 111.771 83.5755 111.584C82.2324 110.038 81.119 108.306 80.2695 106.443C79.9282 105.573 79.8308 104.789 78.9536 100.132C78.1601 95.9193 77.4275 90.8379 81.0721 87.945C83.9686 85.6454 89.4787 86.3489 91.9011 87.419C95.0115 88.7931 99.3149 93.4332 100.595 99.482C101.155 102.121 101.539 109.081 100.467 111.557C98.3266 116.495 89.4714 116.298 88.4622 115.972Z" fill="url(#paint9_angular_2979_51)"/>
    <path fill-rule="evenodd" clip-rule="evenodd" d="M88.3701 97.6525L92.6735 100.208L90.8742 100.591L91.7865 104.888L89.9872 105.271L88.3701 97.6525ZM96.7525 103.831L92.449 101.276L94.2483 100.893L93.3361 96.5954L95.1354 96.2124L96.7525 103.831Z" fill="#1E1E1E"/>
    <path d="M94.7429 88.3544C90.96 84.83 87.7541 85.4424 82.7373 86.2241C74.9522 87.4335 76.3918 110.255 87.6613 116.028C89.3739 116.887 93.0485 116.517 94.9577 116.133C97.5157 115.587 98.5977 115.262 99.9117 113.709C103.67 108.699 101.647 94.4988 94.7429 88.3544ZM81.8473 87.9313C82.5171 87.499 86.0515 87.0459 86.6903 86.984C85.954 87.48 85.3248 88.119 84.8402 88.863C84.3556 89.6069 84.0254 90.4406 83.8693 91.3147C81.82 91.7205 82.0284 91.9517 79.7534 91.5358C80.0901 90.2363 80.7171 88.6638 81.8473 87.9313ZM79.5341 92.5031C82.4097 92.1455 80.7362 92.1992 83.6455 92.3848C83.3563 94.414 83.3495 96.4735 83.6254 98.5046C81.4678 99.0506 81.8719 99.2417 79.3812 98.9678C79.094 96.8181 79.1456 94.6368 79.5341 92.5031ZM79.5168 99.9169C82.7018 99.2499 81.7008 99.6685 83.7729 99.5793C84.1056 101.641 84.6199 103.669 85.3098 105.64C82.6845 106.052 83.6855 106.023 81.052 105.7C80.3579 103.826 79.8442 101.89 79.5177 99.9178L79.5168 99.9169ZM81.4396 106.682C84.3589 106.149 84.3471 106.7 85.7093 106.706C86.3513 108.373 87.1869 109.959 88.1991 111.432C86.2262 112.093 86.6421 111.851 84.5145 111.87C83.2341 110.306 82.1991 108.557 81.4451 106.682H81.4396ZM85.2616 112.688C87.1835 112.059 87.9916 112.537 88.9398 112.363C90.0571 113.656 91.5117 114.613 93.1413 115.127C89.5495 115.513 87.7086 115.168 85.2616 112.691V112.688ZM100.584 108.752C99.8953 113.593 97.8378 114.248 95.0951 114.816C89.2629 114.619 86.3309 107.282 85.015 101.589C81.3513 85.7073 90.4477 82.7525 96.9842 92.8198C99.9999 97.5519 101.273 103.187 100.584 108.756V108.752Z" fill="#1E1E1E"/>
    <path d="M98.635 101.874C98.9917 104.991 98.9198 109.609 96.6503 111.735C96.3886 112.006 96.0756 112.222 95.7296 112.37C95.3837 112.519 95.0115 112.597 94.635 112.601C94.2585 112.604 93.885 112.533 93.5364 112.39C93.1878 112.248 92.871 112.037 92.6044 111.771C86.3 106.688 83.5527 87.1105 91.1102 89.4301C94.0623 90.3355 96.2608 94.4569 97.4402 97.3107C98.5841 100.152 98.6923 100.098 97.7459 97.1987C93.9239 85.8374 85.3699 85.6572 85.6757 96.2524C85.9669 103.925 91.8118 117.498 97.1253 112.24C99.5305 109.88 99.5705 105.186 98.9572 101.823C98.3611 98.8067 98.251 98.8777 98.635 101.874Z" fill="#1E1E1E"/>
    <path d="M116.459 149.857C117.658 149.129 118.922 148.521 120.184 147.913C124.719 145.729 126.064 145.95 129.291 147.329C131.608 148.319 140.405 151.97 141.303 154.278C141.576 154.982 141.508 154.854 141.567 163.94C141.586 166.964 141.157 166.775 140.864 168.33C140.441 170.585 141.121 171.375 138.466 172.754C134.973 174.725 131.153 176.05 127.19 176.667C126.023 177.011 124.798 177.116 123.589 176.974C122.381 176.832 121.213 176.447 120.157 175.842C118.458 175.037 111.671 171.116 110.766 169.478C110.22 168.484 110.321 168.104 110.094 159.234C109.891 151.266 109.161 154.281 116.459 149.857Z" fill="url(#paint10_angular_2979_51)"/>
    <path d="M139.639 150.466C126.899 145.067 126.371 144.341 123.945 145.352L111.933 150.357C111.072 150.715 110.336 151.32 109.819 152.095C109.302 152.871 109.027 153.783 109.028 154.715V168.241C109.027 169.173 109.302 170.085 109.819 170.86C110.336 171.636 111.072 172.241 111.933 172.599C125.09 178.084 124.491 177.968 125.771 177.968C127.052 177.968 126.278 178.154 139.61 172.599C140.471 172.241 141.206 171.636 141.723 170.86C142.24 170.085 142.516 169.173 142.514 168.241V154.813C142.516 153.886 142.244 152.979 141.732 152.206C141.221 151.433 140.492 150.828 139.639 150.466ZM124.678 147.113C125.025 146.969 125.396 146.896 125.771 146.897C126.146 146.898 126.517 146.974 126.862 147.119C140.006 152.698 139.044 152.261 139.366 152.476L125.778 157.65L112.189 152.378C112.518 152.158 111.566 152.577 124.678 147.113ZM112.666 170.84C112.153 170.626 111.715 170.266 111.408 169.803C111.1 169.341 110.936 168.798 110.937 168.242C110.937 153.743 110.798 154.268 111.27 153.387L125.138 158.767C125.138 177.767 125.33 176.118 124.69 175.852L112.666 170.84ZM140.603 168.242C140.605 168.798 140.441 169.341 140.133 169.803C139.825 170.266 139.387 170.626 138.874 170.84L126.854 175.852C126.217 176.118 126.407 177.784 126.407 158.769L140.276 153.491C140.738 154.347 140.61 153.783 140.61 168.242H140.603Z" fill="#1E1E1E"/>
    <path d="M63.1967 149.857C64.3952 149.129 65.6592 148.521 66.9213 147.913C71.4559 145.729 72.8017 145.95 76.0286 147.329C78.3455 148.319 87.1424 151.97 88.0406 154.278C88.3136 154.982 88.2454 154.854 88.3045 163.94C88.3236 166.964 87.8941 166.775 87.602 168.33C87.1779 170.585 87.8586 171.375 85.2032 172.754C81.7101 174.725 77.8905 176.05 73.9274 176.667C72.7602 177.011 71.5354 177.116 70.3268 176.974C69.1182 176.832 67.9508 176.447 66.8949 175.842C65.1951 175.037 58.4083 171.116 57.5037 169.478C56.9577 168.484 57.0587 168.104 56.8312 159.234C56.6283 151.266 55.8985 154.281 63.1967 149.857Z" fill="url(#paint11_angular_2979_51)"/>
    <path d="M86.3763 150.549C73.6426 145.149 73.1076 144.425 70.6824 145.435L58.6704 150.44C57.8095 150.797 57.0741 151.402 56.5571 152.178C56.0402 152.953 55.7651 153.865 55.7666 154.797V168.322C55.7649 169.255 56.04 170.166 56.5569 170.942C57.0738 171.718 57.8094 172.323 58.6704 172.68C71.8272 178.167 71.2284 178.054 72.5088 178.054C73.8492 178.054 73.6081 177.992 86.3472 172.68C87.2084 172.323 87.9443 171.718 88.4614 170.943C88.9785 170.167 89.2536 169.255 89.2519 168.322V154.896C89.253 153.969 88.9809 153.062 88.4694 152.289C87.9579 151.516 87.2299 150.911 86.3763 150.549ZM71.4168 147.196C71.7631 147.052 72.1345 146.979 72.5094 146.98C72.8844 146.981 73.2553 147.056 73.6008 147.202C86.733 152.771 85.7802 152.343 86.1042 152.558L72.517 157.734L58.9243 152.461C59.2492 152.243 58.1936 152.708 71.4168 147.196ZM59.4048 170.923C58.8919 170.71 58.4538 170.349 58.146 169.887C57.8382 169.424 57.6746 168.881 57.6758 168.325C57.6758 153.793 57.542 154.342 58.0088 153.469L71.8763 158.85C71.8763 177.858 72.0683 176.201 71.4286 175.935L59.4048 170.923ZM87.3418 168.325C87.343 168.881 87.1793 169.424 86.8716 169.887C86.5638 170.349 86.1257 170.71 85.6128 170.923L73.5917 175.935C72.9547 176.201 73.1431 177.867 73.1431 158.853L87.0133 153.57C87.4756 154.431 87.3472 153.857 87.3472 168.325H87.3418Z" fill="#1E1E1E"/>
    <path d="M130.767 150.667C130.699 149.513 129.044 146.266 127.562 143.264C127.168 142.238 126.41 141.394 125.432 140.892C124.911 140.537 124.315 140.306 123.691 140.217C123.066 140.128 122.43 140.184 121.83 140.379C121.166 140.519 121.367 140.136 121.777 139.596C121.904 139.428 122.031 139.219 122.167 138.956C124.156 135.115 122.246 133.84 121.519 130.766C121.336 129.428 120.988 128.118 120.482 126.867C119.487 124.228 119.343 122.308 116.061 124.169C115.182 124.668 115.119 125.022 115.434 125.826C115.938 127.11 117.386 131.14 117.125 132.499C117.103 132.773 117.005 133.034 116.842 133.255C116.679 133.475 116.457 133.645 116.202 133.746C115.947 133.847 115.669 133.874 115.399 133.825C114.864 133.728 114.424 133.341 114.049 132.947C113.106 131.959 113.083 130.706 112.88 129.658C112.569 128.063 111.314 125.452 109.74 125.272C109.353 125.267 108.973 125.381 108.652 125.598C108.332 125.816 108.086 126.127 107.949 126.49C107.555 128.161 111.225 137.513 112.358 138.813C112.512 138.977 112.676 139.13 112.85 139.27C113.994 140.191 116.608 141.719 115.326 142.437C115.135 142.543 114.948 142.706 114.815 142.88C114.555 143.222 114.366 143.614 114.261 144.033C114.129 144.559 114.133 145.109 114.274 145.633C114.707 148.048 118.857 152.913 119.803 153.558C121.651 154.826 124.022 154.21 123.213 152.121C122.933 151.547 122.583 151.01 122.17 150.523C120.185 147.748 122.024 145.634 123.546 146.064C124.815 146.418 125.093 148.081 125.484 148.997C126.057 150.269 126.895 151.404 127.941 152.327C128.217 152.555 128.556 152.693 128.913 152.722C129.27 152.751 129.627 152.669 129.936 152.488C130.245 152.306 130.49 152.034 130.639 151.708C130.788 151.382 130.832 151.019 130.767 150.667Z" fill="url(#paint12_angular_2979_51)"/>
    <path d="M131.006 149.365C130.668 146.407 127.397 139.417 123.089 139.26C124.995 135.376 121.601 126.665 120.024 124.411C120.231 122.333 116.093 122.177 115.299 124.341C114.806 125.713 116.99 130.749 116.88 132.238C116.839 133.106 116.105 133.376 115.424 132.826C114.601 132.16 113.128 128.071 112.036 126.826C112.006 126.549 111.923 126.281 111.79 126.036C111.657 125.792 111.478 125.576 111.261 125.401C111.045 125.226 110.796 125.096 110.529 125.018C110.262 124.939 109.983 124.914 109.706 124.944C108.12 125.026 107.431 126.623 107.941 127.31C106.889 128.436 109.861 136.898 111.28 138.966C111.615 139.508 112.055 139.977 112.574 140.346C113.094 140.714 113.683 140.974 114.305 141.11C114.513 141.862 114.625 141.929 114.534 141.847C114.088 142.362 113.776 142.979 113.626 143.643C113.475 144.307 113.491 144.999 113.672 145.655C114.331 148.385 118.694 154.076 119.838 153.742C119.962 153.953 120.141 154.127 120.355 154.247C122.072 155.315 124.751 153.783 123.425 152.119C122.97 150.663 121.51 147.429 122.929 147.221C124.687 146.964 125.524 150.58 126.859 151.696C127.124 153.152 130.63 153.971 130.844 152.06C131.085 151.183 131.14 150.265 131.006 149.365ZM109.795 130.906C108.585 126.529 107.838 127.726 108.455 126.657C108.586 126.426 108.777 126.234 109.007 126.1C109.237 125.966 109.498 125.896 109.764 125.896C110.139 125.889 110.509 125.973 110.844 126.142C111.178 126.31 111.466 126.558 111.683 126.863C111.659 127.833 112.915 131.351 113.269 132.277C113.427 132.784 113.694 133.249 114.052 133.641C114.409 134.033 114.848 134.342 115.337 134.546C113.972 135.769 113.827 138.095 114.044 139.811C111.7 137.535 110.789 134.48 109.795 130.906ZM123.041 152.489C122.998 153.096 122.976 153.297 122.162 153.569C121.413 153.711 120.642 153.69 119.902 153.509C119.72 152.832 115.649 147.115 115.218 145.289C115.052 144.693 115.096 144.058 115.344 143.491C116.495 145.354 118.725 147.213 120.895 147.222C120.484 148.815 121.91 151.621 123.041 152.489ZM130.199 151.87C129.786 152.59 128.116 152.044 127.58 151.741C126.943 151.384 127.41 151.696 126.714 149.607C126.133 148.001 125.454 145.987 123.506 145.663C123.792 144.994 123.562 144.42 123.433 144.45C123.304 144.458 123.282 144.779 123.025 145.158C121.312 147.731 115.606 144.145 115.443 138.408C115.227 133.598 118.156 134.818 118.235 134.723C118.295 134.669 118.212 134.348 117.71 134.066C119.375 132.391 117.776 129.593 116.891 127.528C116.567 126.686 116.124 125.896 115.575 125.179C116.013 124.318 116.718 123.632 118.556 123.723C119.03 123.747 119.225 123.98 119.574 124.313C119.275 127.158 124.465 136.626 120.764 139.717C119.983 138.003 119.935 135.792 118.84 134.972C117.874 134.249 118.418 135.427 118.52 136.388C118.766 138.703 118.832 140.719 120.848 142.33C121.466 142.813 121.892 143.037 122.256 143.344C122.976 143.89 123.198 144.4 123.424 144.39C123.81 144.349 123.569 143.294 123.086 142.586C122.65 142.058 122.182 141.558 121.684 141.088C123.013 140.574 124.505 140.815 125.989 142.498C127.453 144.129 130.974 150.439 130.199 151.87Z" fill="#1E1E1E"/>
    <path d="M87.5838 130.427C87.0695 129.793 86.344 129.364 85.5399 129.22C83.4706 129.117 83.2349 133.17 81.9445 134.771C81.764 134.995 81.5705 135.171 81.3736 135.305C80.2096 136.1 79.0142 134.523 79.5084 133.203C79.7525 132.747 79.9671 132.276 80.1511 131.794C80.5548 130.735 80.9622 129.635 80.9418 128.503C80.9331 128.021 80.8449 127.54 80.6769 127.08C80.3211 126.338 78.5174 125.921 77.5538 126.91C77.1184 127.458 76.8079 128.093 76.6438 128.773C75.9755 130.695 73.0932 135.318 74.8585 138.216C75.349 139.022 76.2912 140.68 75.3843 140.421C71.9336 139.445 67.3936 149.202 67.3909 150.359C67.4116 150.705 67.5464 151.035 67.7742 151.297C68.0021 151.559 68.3101 151.738 68.6503 151.806C70.5104 152.203 71.4131 150.077 72.0428 149.094C72.452 148.456 72.8932 148.066 73.3018 147.851C74.1296 147.415 75.0861 148.096 75.279 149.011C75.3764 149.473 75.3493 149.953 75.2005 150.401C74.9339 151.276 74.0239 152.383 74.6408 153.328C75.2879 154.32 75.6519 154.385 76.2716 154.394C77.9241 154.42 77.2353 154.551 78.9279 152.79C79.9696 151.418 80.9147 149.976 81.7561 148.473C82.3367 147.379 82.4928 146.109 82.1945 144.907C81.9703 144.003 81.5013 143.186 80.847 142.541C80.4561 142.155 79.9975 141.205 80.5251 141.357C80.5919 141.377 80.68 141.387 80.7497 141.387C81.2553 141.389 81.7565 141.334 82.2445 141.226C84.1504 140.804 85.5755 139.237 86.348 137.445C86.549 136.978 86.7235 136.499 86.8703 136.011C87.0287 135.435 87.1133 134.841 87.2707 134.265C87.5738 133.172 88.3682 131.619 87.5838 130.427Z" fill="url(#paint13_angular_2979_51)"/>
    <path d="M88.2536 130.458C87.7395 128.967 85.7621 128.129 84.5563 129.238C83.4115 129.435 81.4714 135.633 80.3703 135.179C78.9216 134.673 81.89 129.355 81.4077 127.588C81.3063 127.265 81.1374 126.968 80.9123 126.715C80.6871 126.463 80.4108 126.261 80.1017 126.123C79.7926 125.985 79.4577 125.915 79.1193 125.917C78.781 125.918 78.4468 125.992 78.139 126.132C76.9951 126.709 70.2966 135.077 74.5782 139.861C71.9392 140.305 70.9382 141.82 69.7488 143.76C68.8661 145.23 66.7986 149.189 67.0333 150.83C67.2463 152.483 69.8898 152.976 70.6087 151.722C71.0637 151.694 71.9664 150.824 72.75 149.657C72.9011 149.355 73.1449 149.109 73.4458 148.955C73.7467 148.801 74.0889 148.747 74.4225 148.801C76.4036 149.402 73.68 152.301 74.3898 152.964C74.4353 153.301 74.5615 153.622 74.7579 153.9C74.9543 154.177 75.2148 154.403 75.5175 154.559C75.8201 154.714 76.1558 154.794 76.4959 154.792C76.8361 154.789 77.1706 154.705 77.471 154.545C79.2 153.55 84.6391 146.843 82.0156 142.698C85.8485 142.216 86.8468 138.661 87.6703 135.167C87.7941 134.62 88.634 130.871 88.2536 130.458ZM70.3203 151.436C68.9616 151.671 68.1836 151.487 67.4829 150.299C68.8479 148.919 71.5224 143.103 73.093 142.099C73.6581 141.734 74.2976 141.499 74.9649 141.413C74.8441 141.972 74.6287 142.506 74.3279 142.993C72.6526 145.663 73.4397 147.366 75.6838 143.821C76.8304 141.973 76.7221 139.964 77.1125 138.226C77.4765 136.564 77.9852 136.111 77.8123 135.798C77.5684 135.321 75.9095 135.832 75.4581 138.422C72.9101 134.804 78.119 128.507 77.7832 126.819C78.8897 126.849 79.7014 126.437 80.9682 128.093C79.9171 128.73 77.9015 133.418 78.4074 135.127C78.2418 135.218 77.8514 135.55 77.9461 135.724C78.0498 135.916 78.5121 135.822 78.806 135.893C80.8571 135.893 79.6578 147.46 75.439 147.312C73.963 147.234 74.0604 145.892 73.73 145.869C73.5153 145.833 73.1394 146.479 73.397 147.274C71.617 147.755 70.222 150.569 70.3203 151.436ZM77.6358 153.882C76.3954 153.921 75.9441 153.997 74.9058 152.914C75.6166 152.509 76.167 151.873 76.4651 151.111C76.7632 150.349 76.791 149.508 76.5437 148.728C78.8497 148.214 79.9699 145.731 80.6115 143.459C82.7299 146.498 78.1208 151.267 77.6358 153.881V153.882ZM87.0688 132.462C85.3007 137.025 85.2734 141.159 81.1711 141.164C81.4671 139.683 81.4305 138.154 81.0637 136.688C82.8528 136.087 84.2979 132.468 84.6801 130.62C84.9139 129.416 84.6309 129.7 85.1351 129.597C85.6154 129.57 86.095 129.66 86.5328 129.859C86.9706 130.059 87.3534 130.361 87.6485 130.741C87.8723 130.99 87.7959 130.585 87.0688 132.462Z" fill="#1E1E1E"/>
    <defs>
        <radialGradient id="paint0_angular_2979_51" cx="0" cy="0" r="1" gradientUnits="userSpaceOnUse" gradientTransform="translate(19.9142 56.2247) rotate(90) scale(15.3773 15.3229)">
            <stop offset="0.0729167" stop-color="#FBFBFD"/>
            <stop offset="0.244792" stop-color="#C8D4DA"/>
            <stop offset="0.434957" stop-color="white"/>
            <stop offset="0.532623" stop-color="#AEC0CE"/>
            <stop offset="0.658692" stop-color="#E3E9EE"/>
            <stop offset="0.708863" stop-color="#FAFBFC"/>
            <stop offset="0.861413" stop-color="#D6DFE6"/>
            <stop offset="0.921875" stop-color="#B8C9D3"/>
        </radialGradient>
        <radialGradient id="paint1_angular_2979_51" cx="0" cy="0" r="1" gradientUnits="userSpaceOnUse" gradientTransform="translate(37.1676 68.9726) rotate(90) scale(13.613 14.0599)">
            <stop offset="0.0729167" stop-color="#FBFBFD"/>
            <stop offset="0.244792" stop-color="#C8D4DA"/>
            <stop offset="0.434957" stop-color="white"/>
            <stop offset="0.532623" stop-color="#AEC0CE"/>
            <stop offset="0.658692" stop-color="#E3E9EE"/>
            <stop offset="0.708863" stop-color="#FAFBFC"/>
            <stop offset="0.861413" stop-color="#D6DFE6"/>
            <stop offset="0.921875" stop-color="#B8C9D3"/>
        </radialGradient>
        <radialGradient id="paint2_angular_2979_51" cx="0" cy="0" r="1" gradientUnits="userSpaceOnUse" gradientTransform="translate(161.159 56.1621) rotate(90) scale(15.3771 15.3229)">
            <stop offset="0.0729167" stop-color="#FBFBFD"/>
            <stop offset="0.244792" stop-color="#C8D4DA"/>
            <stop offset="0.434957" stop-color="white"/>
            <stop offset="0.532623" stop-color="#AEC0CE"/>
            <stop offset="0.658692" stop-color="#E3E9EE"/>
            <stop offset="0.708863" stop-color="#FAFBFC"/>
            <stop offset="0.861413" stop-color="#D6DFE6"/>
            <stop offset="0.921875" stop-color="#B8C9D3"/>
        </radialGradient>
        <radialGradient id="paint3_angular_2979_51" cx="0" cy="0" r="1" gradientUnits="userSpaceOnUse" gradientTransform="translate(144.222 66.7695) rotate(90) scale(13.4199 13.9585)">
            <stop offset="0.0729167" stop-color="#FBFBFD"/>
            <stop offset="0.244792" stop-color="#C8D4DA"/>
            <stop offset="0.434957" stop-color="white"/>
            <stop offset="0.532623" stop-color="#AEC0CE"/>
            <stop offset="0.658692" stop-color="#E3E9EE"/>
            <stop offset="0.708863" stop-color="#FAFBFC"/>
            <stop offset="0.861413" stop-color="#D6DFE6"/>
            <stop offset="0.921875" stop-color="#B8C9D3"/>
        </radialGradient>
        <radialGradient id="paint4_angular_2979_51" cx="0" cy="0" r="1" gradientUnits="userSpaceOnUse" gradientTransform="translate(88.3908 89.8279) rotate(90) scale(49.5512 49.2812)">
            <stop offset="0.0729167" stop-color="#FBFBFD"/>
            <stop offset="0.244792" stop-color="#C8D4DA"/>
            <stop offset="0.434957" stop-color="white"/>
            <stop offset="0.532623" stop-color="#AEC0CE"/>
            <stop offset="0.658692" stop-color="#E3E9EE"/>
            <stop offset="0.708863" stop-color="#FAFBFC"/>
            <stop offset="0.861413" stop-color="#D6DFE6"/>
            <stop offset="0.921875" stop-color="#B8C9D3"/>
        </radialGradient>
        <radialGradient id="paint5_angular_2979_51" cx="0" cy="0" r="1" gradientUnits="userSpaceOnUse" gradientTransform="translate(77.0212 70.5182) rotate(90) scale(1.72048 1.54444)">
            <stop offset="0.0729167" stop-color="#FBFBFD"/>
            <stop offset="0.244792" stop-color="#C8D4DA"/>
            <stop offset="0.434957" stop-color="white"/>
            <stop offset="0.532623" stop-color="#AEC0CE"/>
            <stop offset="0.658692" stop-color="#E3E9EE"/>
            <stop offset="0.708863" stop-color="#FAFBFC"/>
            <stop offset="0.861413" stop-color="#D6DFE6"/>
            <stop offset="0.921875" stop-color="#B8C9D3"/>
        </radialGradient>
        <radialGradient id="paint6_angular_2979_51" cx="0" cy="0" r="1" gradientUnits="userSpaceOnUse" gradientTransform="translate(91.5994 19.9523) rotate(90) scale(15.3768 15.3228)">
            <stop offset="0.0729167" stop-color="#FBFBFD"/>
            <stop offset="0.244792" stop-color="#C8D4DA"/>
            <stop offset="0.434957" stop-color="white"/>
            <stop offset="0.532623" stop-color="#AEC0CE"/>
            <stop offset="0.658692" stop-color="#E3E9EE"/>
            <stop offset="0.708863" stop-color="#FAFBFC"/>
            <stop offset="0.861413" stop-color="#D6DFE6"/>
            <stop offset="0.921875" stop-color="#B8C9D3"/>
        </radialGradient>
        <radialGradient id="paint7_angular_2979_51" cx="0" cy="0" r="1" gradientUnits="userSpaceOnUse" gradientTransform="translate(92.006 43.7546) rotate(90) scale(20.5994 7.25287)">
            <stop offset="0.0729167" stop-color="#FBFBFD"/>
            <stop offset="0.244792" stop-color="#C8D4DA"/>
            <stop offset="0.434957" stop-color="white"/>
            <stop offset="0.532623" stop-color="#AEC0CE"/>
            <stop offset="0.658692" stop-color="#E3E9EE"/>
            <stop offset="0.708863" stop-color="#FAFBFC"/>
            <stop offset="0.861413" stop-color="#D6DFE6"/>
            <stop offset="0.921875" stop-color="#B8C9D3"/>
        </radialGradient>
        <radialGradient id="paint8_angular_2979_51" cx="0" cy="0" r="1" gradientUnits="userSpaceOnUse" gradientTransform="translate(56.3413 88.7498) rotate(90) scale(20.4328 12.7014)">
            <stop offset="0.0729167" stop-color="#FBFBFD"/>
            <stop offset="0.244792" stop-color="#C8D4DA"/>
            <stop offset="0.434957" stop-color="white"/>
            <stop offset="0.532623" stop-color="#AEC0CE"/>
            <stop offset="0.658692" stop-color="#E3E9EE"/>
            <stop offset="0.708863" stop-color="#FAFBFC"/>
            <stop offset="0.861413" stop-color="#D6DFE6"/>
            <stop offset="0.921875" stop-color="#B8C9D3"/>
        </radialGradient>
        <radialGradient id="paint9_angular_2979_51" cx="0" cy="0" r="1" gradientUnits="userSpaceOnUse" gradientTransform="translate(89.3835 101.267) rotate(90) scale(14.8491 11.0779)">
            <stop offset="0.362857" stop-color="#D6DFE6"/>
            <stop offset="0.370506" stop-color="#FAFBFC"/>
            <stop offset="0.865074" stop-color="#D7E0E7"/>
            <stop offset="0.871776" stop-color="#F7F8F9"/>
        </radialGradient>
        <radialGradient id="paint10_angular_2979_51" cx="0" cy="0" r="1" gradientUnits="userSpaceOnUse" gradientTransform="translate(125.297 161.658) rotate(90) scale(15.3769 15.3228)">
            <stop offset="0.0729167" stop-color="#FBFBFD"/>
            <stop offset="0.244792" stop-color="#C8D4DA"/>
            <stop offset="0.434957" stop-color="white"/>
            <stop offset="0.532623" stop-color="#AEC0CE"/>
            <stop offset="0.658692" stop-color="#E3E9EE"/>
            <stop offset="0.708863" stop-color="#FAFBFC"/>
            <stop offset="0.861413" stop-color="#D6DFE6"/>
            <stop offset="0.921875" stop-color="#B8C9D3"/>
        </radialGradient>
        <radialGradient id="paint11_angular_2979_51" cx="0" cy="0" r="1" gradientUnits="userSpaceOnUse" gradientTransform="translate(72.0345 161.658) rotate(90) scale(15.3769 15.3228)">
            <stop offset="0.0729167" stop-color="#FBFBFD"/>
            <stop offset="0.244792" stop-color="#C8D4DA"/>
            <stop offset="0.434957" stop-color="white"/>
            <stop offset="0.532623" stop-color="#AEC0CE"/>
            <stop offset="0.658692" stop-color="#E3E9EE"/>
            <stop offset="0.708863" stop-color="#FAFBFC"/>
            <stop offset="0.861413" stop-color="#D6DFE6"/>
            <stop offset="0.921875" stop-color="#B8C9D3"/>
        </radialGradient>
        <radialGradient id="paint12_angular_2979_51" cx="0" cy="0" r="1" gradientUnits="userSpaceOnUse" gradientTransform="translate(119.015 138.821) rotate(90) scale(15.3934 11.0953)">
            <stop offset="0.0729167" stop-color="#FBFBFD"/>
            <stop offset="0.244792" stop-color="#C8D4DA"/>
            <stop offset="0.434957" stop-color="white"/>
            <stop offset="0.532623" stop-color="#AEC0CE"/>
            <stop offset="0.658692" stop-color="#E3E9EE"/>
            <stop offset="0.708863" stop-color="#FAFBFC"/>
            <stop offset="0.861413" stop-color="#D6DFE6"/>
            <stop offset="0.921875" stop-color="#B8C9D3"/>
        </radialGradient>
        <radialGradient id="paint13_angular_2979_51" cx="0" cy="0" r="1" gradientUnits="userSpaceOnUse" gradientTransform="translate(77.3474 140.367) rotate(90) scale(14.0393 9.95653)">
            <stop offset="0.0729167" stop-color="#FBFBFD"/>
            <stop offset="0.244792" stop-color="#C8D4DA"/>
            <stop offset="0.434957" stop-color="white"/>
            <stop offset="0.532623" stop-color="#AEC0CE"/>
            <stop offset="0.658692" stop-color="#E3E9EE"/>
            <stop offset="0.708863" stop-color="#FAFBFC"/>
            <stop offset="0.861413" stop-color="#D6DFE6"/>
            <stop offset="0.921875" stop-color="#B8C9D3"/>
        </radialGradient>
    </defs>
</svg>
