<svg width="182" height="182" viewBox="0 0 182 182" fill="none" xmlns="http://www.w3.org/2000/svg">
    <path d="M11.0765 44.4226C12.275 43.6946 13.5399 43.0876 14.8021 42.4788C19.3366 40.2948 20.6816 40.5168 23.9084 41.8955C26.2253 42.8856 35.0223 46.5365 35.9204 48.8442C36.1934 49.5486 36.1252 49.4194 36.1843 58.5066C36.2044 61.5296 35.7739 61.3413 35.4818 62.8965C35.0587 65.1514 35.7393 65.9422 33.0831 67.3209C29.5901 69.2921 25.7704 70.6176 21.8072 71.2339C20.6401 71.5782 19.4153 71.6826 18.2067 71.5409C16.9981 71.3993 15.8306 71.0144 14.7748 70.4094C13.0749 69.605 6.2881 65.6838 5.38356 64.0458C4.83756 63.0512 4.93857 62.6708 4.71107 53.8019C4.50814 45.8331 3.77832 48.847 11.0765 44.4226Z" fill="#FFF4CC"/>
    <path d="M34.2033 45.3071C21.4687 39.9062 20.9364 39.1819 18.5103 40.1929L6.49832 45.1979C5.6372 45.5552 4.90151 46.1601 4.38442 46.9359C3.86733 47.7117 3.5921 48.6235 3.5936 49.5559V63.083C3.59226 64.0156 3.86788 64.9275 4.3855 65.7032C4.90311 66.4789 5.63942 67.0834 6.50105 67.4401C19.6578 72.9247 19.0591 72.8136 20.3394 72.8136C21.6198 72.8136 20.8454 72.9956 34.1778 67.4401C35.0389 67.083 35.7746 66.4783 36.2918 65.7026C36.8089 64.927 37.0841 64.0152 37.0825 63.083V49.6532C37.0833 48.7259 36.8106 47.819 36.2984 47.0459C35.7863 46.2728 35.0575 45.668 34.2033 45.3071ZM19.2438 41.951C19.59 41.8068 19.9614 41.7332 20.3364 41.7342C20.7114 41.7353 21.0824 41.8112 21.4278 41.9574C34.57 47.5384 33.6081 47.1016 33.9285 47.32L20.3412 52.4915L6.75221 47.219C7.08345 46.9988 6.12795 47.4174 19.2438 41.951ZM7.23451 65.6802C6.7216 65.467 6.28349 65.1064 5.97569 64.6441C5.66789 64.1818 5.50425 63.6384 5.50551 63.083C5.50551 48.584 5.36628 49.1081 5.83857 48.2273L19.7052 53.6072C19.7052 72.6162 19.8972 70.9582 19.2583 70.6924L7.23451 65.6802ZM35.1715 63.083C35.1725 63.6384 35.0088 64.1816 34.701 64.6439C34.3933 65.1062 33.9553 65.4668 33.4425 65.6802L21.4223 70.6924C20.7853 70.9591 20.9746 72.6244 20.9746 53.6099L34.8439 48.3319C35.3026 49.1891 35.1752 48.6149 35.1752 63.083H35.1715Z" fill="#402E32"/>
    <path d="M51.597 72.345C50.505 70.98 46.0779 68.7914 42.9338 67.8523C40.5223 67.1325 40.5132 67.9597 39.0208 68.5658C40.1583 65.6237 38.1481 61.4177 35.7694 59.1928C32.6709 56.2999 33.0612 55.0413 31.0374 55.4281C30.7711 55.5145 30.5262 55.6566 30.319 55.8449C30.1117 56.0331 29.9468 56.2633 29.8353 56.5201C28.7142 58.4839 32.235 60.9272 32.8474 62.456C32.985 62.7953 33.0259 63.166 32.9657 63.5271C32.9055 63.8882 32.7464 64.2255 32.5061 64.5017C31.5051 65.2224 30.0364 64.4808 29.3266 63.7027C28.6168 62.9247 28.1818 61.9664 27.5121 61.172C25.945 59.3138 23.9849 59.8134 23.2251 61.2548C22.831 62.0028 23.5172 63.3005 23.9858 64.003C26.8068 68.2291 27.1945 68.8815 27.9898 69.7105C29.8098 71.6161 32.4343 72.2986 33.6318 72.0765C34.288 71.8842 34.9171 71.609 35.5037 71.2575C35.7257 71.4395 35.9556 71.6115 36.1935 71.7735C35.9131 72.3908 35.7584 73.0578 35.7385 73.7355C35.9969 77.5156 42.9639 81.0473 45.3481 82.3805C46.997 83.3041 48.372 80.8726 47.7514 79.8252C47.2354 78.9543 44.3516 78.6422 42.4424 76.6329C41.2949 75.4253 41.4187 74.2787 42.0056 73.7209C42.428 73.4317 42.9045 73.2307 43.4065 73.1302C43.9084 73.0296 44.4255 73.0315 44.9267 73.1358C46.207 73.6275 47.4094 74.3018 48.4967 75.1378C49.6223 75.975 50.2921 76.2298 51.3177 75.1551C52.1631 74.2778 52.416 73.3733 51.597 72.345Z" fill="#FFC43B"/>
    <path d="M52.4642 73.2459C52.4522 72.9055 52.3378 72.5767 52.136 72.3024C51.9342 72.028 51.6544 71.8209 51.3331 71.708C48.9298 69.1709 44.1086 66.0405 40.3221 66.834C41.0783 62.75 35.9942 58.2573 33.2714 55.9268C32.9711 55.672 33.1422 55.5164 32.4961 55.1879C30.9291 54.3925 28.968 55.9459 29.3903 57.4902C29.9235 59.5832 32.3141 61.7617 32.4288 63.3788C32.4861 64.2378 32.0602 64.5208 31.3031 64.3106C29.6096 63.8338 27.219 60.3066 26.2726 59.8762C24.1687 58.9307 21.9583 61.1502 23.2096 63.0985C23.5126 63.5426 25.1415 68.2182 28.9426 71.0992C30.7334 72.4278 32.8046 73.2923 34.8685 72.4715C34.7606 73.5229 34.9171 74.5845 35.3236 75.5601C35.7301 76.5357 36.3738 77.3943 37.1963 78.058C38.9544 79.6205 43.7592 82.0447 45.0678 82.5406C45.2889 83.0211 46.3973 83.3842 47.6158 81.8445C48.8161 80.3303 47.9652 79.2519 47.4565 79.1891C46.5602 78.3774 43.1377 76.3354 42.4879 75.065C42.0993 74.2788 42.6699 73.6945 43.4725 73.5562C44.9495 73.2923 47.7495 75.2734 49.3575 75.8722C50.3467 77.188 52.6371 75.166 52.4642 73.2459ZM24.0595 63.5089C23.8711 62.881 23.2896 61.9219 24.2087 61.0301C24.5274 60.7615 24.9113 60.5819 25.3216 60.5093C25.732 60.4368 26.1542 60.4739 26.5456 60.6169C26.9369 62.5006 29.7579 66.4245 32.2522 65.9168C31.5625 67.8059 32.578 69.6641 33.9812 71.1038C29.8225 72.2959 24.9631 64.6009 24.0595 63.5062V63.5089ZM42.4861 77.259C46.3454 80.0482 47.3546 79.1163 47.4538 79.9535C47.4984 80.333 47.3218 80.6815 46.8705 81.2512C45.6429 82.8055 45.4472 82.2322 45.1415 82.0301C41.5715 79.0854 36.1206 77.077 36.4055 73.0348C37.7166 73.8771 39.2716 74.2573 40.8235 74.115C40.586 75.4517 41.4187 76.4482 42.4861 77.259ZM49.6332 75.5591C48.9407 74.509 45.5792 71.8363 43.4179 71.9974C43.4954 71.7007 43.5029 71.3901 43.4397 71.09C43.3765 70.7899 43.2445 70.5087 43.0539 70.2684C42.7272 69.9135 42.0902 69.3648 42.5707 70.5787C42.666 70.8548 42.6846 71.1516 42.6247 71.4374C42.5648 71.7233 42.4285 71.9875 42.2304 72.2021C40.0855 74.6855 32.1676 69.5495 33.3497 65.9941C33.8511 64.3516 35.1642 64.5545 35.2343 64.3652C35.3117 64.2387 34.6883 63.8929 33.9421 64.1368C34.0854 63.2007 33.8615 62.2454 33.3169 61.4705C32.4002 60.1405 31.2927 58.9526 30.03 57.9452C29.9977 57.6096 30.0525 57.2715 30.1891 56.9633C30.3258 56.6552 30.5396 56.3875 30.8099 56.1861C31.3003 55.868 31.8939 55.7498 32.4688 55.8558C34.0158 58.1981 38.7615 62.2658 38.8297 65.925C38.8527 66.2479 38.808 66.5722 38.6983 66.8768C38.5886 67.1815 38.4164 67.4598 38.1927 67.694C37.6885 66.902 37.2303 66.0816 36.8204 65.237C36.2444 64.3916 35.5246 64.2769 35.4554 64.4644C35.3644 64.6464 35.6957 65.0104 35.8859 65.7056C36.0596 66.8713 36.5387 67.9701 37.2745 68.8906C37.6743 69.4117 38.2101 69.8123 38.823 70.0485C39.4358 70.2847 40.1019 70.3472 40.748 70.2293C41.6844 69.9772 42.5425 69.8598 41.749 69.4175C41.082 69.0235 40.3458 69.393 39.5595 68.8888C39.4421 68.8178 39.4613 68.8424 39.5077 68.7723C43.4771 66.8122 48.6877 70.9054 51.2667 72.2367C52.2013 73.4834 50.7371 75.8758 49.6332 75.5628V75.5591Z" fill="#402E32"/>
    <path d="M152.321 44.3607C153.52 43.6327 154.784 43.0248 156.047 42.4169C160.581 40.2329 161.926 40.4541 165.153 41.8327C167.47 42.8228 176.267 46.4737 177.165 48.7815C177.438 49.4858 177.37 49.3566 177.429 58.4438C177.449 61.4669 177.019 61.2785 176.727 62.8337C176.303 65.0887 176.984 65.8795 174.328 67.2581C170.835 69.2291 167.015 70.5546 163.052 71.1711C161.885 71.5154 160.66 71.6199 159.451 71.4782C158.243 71.3365 157.075 70.9516 156.019 70.3467C154.32 69.5422 147.533 65.621 146.628 63.983C146.082 62.9884 146.183 62.608 145.956 53.7392C145.753 45.773 145.023 48.7842 152.321 44.3607Z" fill="#FFF4CC"/>
    <path d="M175.525 45.3071C162.746 39.8871 162.239 39.1882 159.831 40.1929L147.819 45.1979C146.958 45.5553 146.223 46.1602 145.706 46.936C145.189 47.7118 144.914 48.6236 144.916 49.5559V63.083C144.914 64.0152 145.189 64.9269 145.706 65.7025C146.223 66.4782 146.958 67.083 147.819 67.4401C160.976 72.9256 160.377 72.8137 161.658 72.8137C162.998 72.8137 162.75 72.7545 175.496 67.4401C176.357 67.083 177.093 66.4783 177.61 65.7026C178.127 64.927 178.403 64.0153 178.401 63.083V49.6532C178.402 48.7263 178.13 47.8197 177.618 47.0466C177.107 46.2736 176.379 45.6685 175.525 45.3071V45.3071ZM160.565 41.951C160.911 41.8073 161.283 41.7339 161.658 41.735C162.033 41.7361 162.403 41.8117 162.749 41.9574C175.895 47.532 174.931 47.0989 175.252 47.3136L161.664 52.4888L148.075 47.2163C148.398 47.0024 147.343 47.4647 160.565 41.951ZM148.553 65.6774C148.04 65.4642 147.602 65.1036 147.294 64.6413C146.986 64.179 146.823 63.6357 146.824 63.0803C146.824 48.5485 146.69 49.0972 147.157 48.2245L161.024 53.6045C161.024 72.6135 161.216 70.9554 160.577 70.6897L148.553 65.6774ZM176.49 63.0803C176.491 63.6357 176.328 64.179 176.02 64.6414C175.712 65.1037 175.274 65.4643 174.761 65.6774L162.74 70.6897C162.103 70.9563 162.293 72.6216 162.293 53.6072L176.161 48.3292C176.625 49.1891 176.496 48.6149 176.496 63.083L176.49 63.0803Z" fill="#402E32"/>
    <path d="M158.959 59.7588C158.761 59.1573 157.649 57.7568 156.799 57.7568C155.07 57.7459 153.386 62.3295 151.227 62.4733C150.923 62.5018 150.618 62.4395 150.35 62.2946C150.082 62.1496 149.863 61.9284 149.72 61.6589C148.953 59.9517 153.079 56.1079 152.632 54.843C152.257 54.3202 151.8 53.8612 151.278 53.4834C150.466 53.063 149.663 53.7173 149.042 54.3088C142.025 60.98 143.196 59.6196 142.709 63.0794C142.544 63.791 142.578 64.5341 142.806 65.2279C141.183 65.0387 139.539 65.1438 137.952 65.5382C137.078 65.8512 136.6 66.1989 133.113 68.4347C132.248 68.9898 130.609 69.5131 130.305 70.8744C130.072 71.9137 130.859 73.7864 131.958 73.6882C132.863 73.6081 132.556 72.8055 136.508 71.4241C137.203 71.1223 137.957 70.9798 138.715 71.0073C139.093 71.0303 139.453 71.176 139.741 71.4223C140.029 71.6687 140.228 72.0022 140.309 72.3723C140.422 73.3778 138.237 76.2216 136.296 76.6702C135.684 76.8122 134.923 76.8522 134.635 77.4082C134.371 77.926 134.707 78.5366 135.034 79.018C136.02 80.474 136.663 80.3357 137.426 79.8652C143.641 76.0432 144.069 75.854 144.706 75.1141C145.47 74.2332 146.708 71.4386 146.515 69.878C146.705 69.6545 146.924 69.4576 147.166 69.2929C148.608 68.5385 150.11 71.2812 154.227 67.5038C155.387 66.4391 156.295 65.0332 158.075 62.5243C158.662 61.698 159.273 60.7134 158.959 59.7588Z" fill="#FFC43B"/>
    <path d="M159.555 59.5986C159.511 59.0374 159.268 58.5104 158.87 58.1121C158.472 57.7138 157.946 57.4704 157.385 57.4255C156.996 57.377 156.602 57.4308 156.242 57.5815C155.881 57.7321 155.565 57.9745 155.327 58.2846C154.496 59.1272 151.281 63.0393 150.237 62.0101C148.235 60.4977 155.491 55.4354 152.137 53.1613C150.895 52.3004 149.326 52.9929 149.275 53.5644C146.267 56.0797 142.221 59.7278 142.016 63.6372C141.953 64.7793 142.349 64.6182 141.692 64.5235C137.929 64.0276 133.32 67.0907 131.069 69.4658C130.825 69.5331 130.604 69.6677 130.432 69.8543C128.709 71.6643 131.777 75.3143 133.04 73.6308C134.635 73.0311 137.457 71.0519 138.923 71.3149C139.742 71.4568 140.288 72.0474 139.908 72.8237C139.261 74.0895 135.825 76.1479 134.939 76.9478C134.385 77.0151 133.587 78.0962 134.779 79.6032C136.043 81.1947 137.134 80.7334 137.327 80.3002C140.119 79.1212 142.761 77.6159 145.199 75.8157C146.022 75.1523 146.666 74.2937 147.072 73.3181C147.479 72.3425 147.635 71.2807 147.527 70.2293C149.589 71.0483 151.661 70.1874 153.453 68.857C156.078 66.8686 157.281 64.6773 158.748 61.7298C159.37 60.4622 159.585 60.2948 159.555 59.5986ZM132.769 73.3205C131.669 73.6317 130.2 71.233 131.137 69.9954C133.912 68.563 138.947 64.5745 142.896 66.5319C142.943 66.6002 142.961 66.5765 142.845 66.6484C142.046 67.1416 141.319 66.7831 140.655 67.1762C140.399 67.3191 140.319 67.471 140.357 67.5611C140.394 67.6512 140.552 67.6913 140.761 67.7431C141.612 68.1116 142.569 68.155 143.451 67.8651C146.01 66.713 146.272 64.2551 146.516 63.4689C146.707 62.7736 147.04 62.4133 146.948 62.2285C146.882 62.0402 146.161 62.1557 145.583 63.0011C145.171 63.845 144.713 64.6653 144.21 65.4581C144.147 65.4181 144.082 65.3799 144.018 65.3425C141.982 61.7844 147.854 56.4373 149.579 54.1159C150.009 53.5417 149.865 53.6236 150.101 53.5972C150.354 53.5527 150.613 53.5593 150.863 53.6166C151.114 53.674 151.35 53.7808 151.559 53.9309C151.767 54.0811 151.943 54.2714 152.077 54.4907C152.21 54.71 152.299 54.9539 152.337 55.2079C152.414 55.9131 152.526 55.4481 150.861 57.0752C149.806 58.1563 148.598 59.5058 148.42 61.0037C148.305 62.244 148.767 61.8472 148.038 61.8227C147.395 61.7881 147.128 62.0665 147.167 62.1321C147.208 62.2449 147.5 62.2067 147.908 62.3805C148.978 62.83 149.751 64.5791 148.602 66.3936C147.627 67.9643 145.006 70.1938 142.666 70.5514C140.312 70.9654 139.377 69.3839 139.83 68.3456C139.992 67.9379 140.246 67.7477 140.186 67.6476C140.089 67.3837 138.603 68.0698 138.982 69.7679C136.859 69.5995 133.46 72.2704 132.769 73.3205ZM136.93 80.0909C136.312 80.0627 135.958 79.5504 135.533 79.0126C134.888 78.1936 134.866 77.8796 135.026 77.3591C136.354 77.2417 142.098 74.8348 141.586 71.8763C143.138 72.0187 144.692 71.6385 146.003 70.7962C146.308 75.1815 139.373 77.5848 136.93 80.0909H136.93ZM148.421 68.8588C149.827 67.4155 150.836 65.5564 150.15 63.6718C152.072 64.0622 153.881 62.021 154.932 60.373C156.282 58.2282 155.418 58.412 156.325 58.28C158.027 58.0152 159.042 59.3029 158.587 60.5623C157.904 62.6125 152.263 69.9653 148.421 68.8588Z" fill="#402E32"/>
    <path d="M68.584 125.138C68.4684 124.003 68.0744 122.907 67.9861 121.771C67.9142 120.85 68.0443 119.925 68.048 119.002C68.0634 114.75 65.2879 112.125 62.4169 112.3C61.9865 110.008 61.4232 107.494 59.5467 106.108C58.7487 105.479 57.8125 105.05 56.8155 104.855C55.8185 104.661 54.7896 104.706 53.8137 104.988C53.5289 100.914 50.8799 96.6793 46.6657 97.2935C40.9327 98.1298 29.939 112.541 27.6385 117.132C25.6047 121.192 24.6601 126.054 25.8622 130.351C23.8875 127.327 19.8798 130.7 19.8089 137.112C19.7576 137.787 19.8472 138.466 20.072 139.104C20.2968 139.743 20.6519 140.328 21.1147 140.822C22.5328 142.852 24.0947 144.777 25.7885 146.584C27.6731 148.373 33.4379 152.288 37.3764 153.453C43.2395 155.187 47.8096 152.849 48.6832 150.785C48.9562 150.138 48.9562 149.678 49.2292 146.549C49.3338 145.331 49.2637 144.164 48.0999 143.785C56.4955 141.661 59.029 133.561 59.21 133.364C60.208 132.473 61.4255 131.863 62.7372 131.599C66.4682 131.411 68.9607 128.856 68.584 125.138ZM31.1702 137.988C33.0429 139.594 35.0393 141.05 37.1407 142.343C34.8897 141.288 32.8628 139.809 31.1702 137.988V137.988ZM38.6186 143.084C40.7586 144 43.0875 144.388 45.409 144.216C42.871 145.259 41.405 144.449 38.6186 143.086V143.084Z" fill="white"/>
    <path d="M68.0926 120.738C70.3758 117.571 67.8114 111.795 64.3324 111.494C64.1577 107.517 59.2364 103.257 54.7474 104.257C54.7267 102.187 53.9124 100.203 52.4723 98.7155C51.0323 97.2279 49.0764 96.3496 47.0079 96.2616C43.8757 96.1442 41.7199 98.1362 39.7197 100.545C32.9556 108.889 22.6599 117.885 24.4599 128.482C18.9999 129.599 15.5828 137.645 23.2032 145.362C28.2873 150.351 38.8288 157.536 45.4982 154.775C46.6754 154.299 47.7328 153.569 48.5946 152.636C49.4564 151.703 50.1013 150.591 50.4832 149.38C50.9666 147.694 50.798 145.888 50.0109 144.321C54.7338 142.361 58.0316 137.604 60.485 133.086C63.0794 132.302 65.9914 132.321 68.0644 129.961C70.343 127.427 70.181 123.487 68.0926 120.738ZM63.5744 114.923C63.8485 114.37 64.0533 113.785 64.1841 113.182C65.6774 113.958 67.2781 117.011 66.845 119.417C65.5371 118.311 63.9847 117.531 62.3159 117.142C61.607 116.959 62.3641 117.343 63.5744 114.923ZM62.1667 111.87C62.0985 113.736 61.3083 115.502 59.9626 116.796C57.7111 116.662 55.4533 116.917 53.2887 117.551C44.1787 120.216 48.4047 121.898 44.9777 118.316C49.5477 114.82 54.115 110.806 54.6974 105.898C58.2782 105.441 62.0866 109.029 62.1667 111.87ZM48.7978 148.881C48.4541 149.795 47.9197 150.625 47.2303 151.317C46.5409 152.008 45.7122 152.545 44.7993 152.891C39.1345 155.099 29.0254 147.935 24.7229 143.814C18.1763 137.367 20.7325 131.082 24.7875 129.954C27.1799 138.673 38.8925 147.708 48.5885 144.825C49.1764 146.1 49.2514 147.552 48.7978 148.881V148.881ZM66.511 128.625C64.3079 131.276 59.1309 130.129 52.8082 135.716C51.6516 136.743 51.1447 137.44 51.2403 137.546C51.4878 137.824 53.953 135.622 58.2955 133.868C55.1778 138.618 52.1876 142.429 46.7512 143.32C37.6958 144.654 26.43 134.984 26.4673 126.087C26.4428 118.37 33.7574 110.931 38.7724 105.052C42.0283 101.281 44.8748 96.0368 49.9927 99.2491C52.9957 101.096 54.1241 105.933 51.0301 110.222C48.9275 112.839 46.5336 115.208 43.8948 117.283C39.5641 113.449 34.7948 113.819 34.7866 114.398C34.7729 115.292 39.2965 114.506 45.1551 121.268C44.1323 121.898 37.1999 126.696 37.5739 127.219C37.7932 127.527 41.6589 124.994 45.2734 123.049C64.0831 112.94 70.282 124.089 66.511 128.625Z" fill="#402E32"/>
    <path d="M39.4421 110.412C39.5914 113.885 39.9636 117.735 42.5361 120.066C44.6947 122.019 47.8142 122.354 50.5787 123.251C57.4611 125.485 57.0543 128.468 84.438 138.052C90.4777 140.165 91.5624 139.545 95.7721 137.664C101.698 135.015 107.288 132.951 112.88 129.656C115.692 127.998 119.238 126.964 122.107 125.407C126.971 122.768 132.774 122.197 137.539 119.381C139.177 118.414 139.666 116.833 140.211 115.013C140.553 113.593 140.563 112.113 140.241 110.689C139.036 103.096 140.856 95.5072 140.188 87.8478C139.419 79.0208 141.81 70.1756 140.071 61.4896C139.678 60.4702 139.031 59.5681 138.192 58.8688C137.288 58.0152 135.888 58.0061 134.772 57.4601C133.766 57.0892 132.808 56.6005 131.917 56.0041C128.865 53.4998 120.997 53.0812 104.752 45.0405C101.577 43.4689 95.1969 40.9354 91.688 40.4349C86.1934 39.6514 84.1732 41.9228 79.0927 44.1568C67.9979 49.0372 60.9928 52.0811 54.893 54.9585C48.6586 57.9006 41.5588 57.7604 40.4677 63.3688C40.1656 64.9158 39.4531 78.9161 39.3484 81.7808C39.0099 91.1092 39.0226 100.666 39.4421 110.412Z" fill="#FFF4CC"/>
    <path d="M75.4991 70.909C76.1518 71.4693 76.8978 71.9107 77.7031 72.2131C78.4729 72.4751 78.4875 70.6742 78.533 70.211C78.6067 69.4494 78.806 68.8315 78.4811 68.8042C77.6621 68.7323 77.2426 69.302 76.6429 69.7324C76.3417 69.9444 75.3134 70.4395 75.4991 70.909Z" fill="#FFAA9C"/>
    <path d="M96.9268 126.626C95.0386 126.832 94.6291 127.46 94.5445 128.675C94.4234 130.404 94.9567 132.286 95.2807 132.548C95.3998 132.616 95.5328 132.656 95.6698 132.666C95.8067 132.675 95.944 132.654 96.0714 132.602C101.741 131.232 101.604 131.019 101.605 129.478C101.605 128.852 101.597 126.525 101.181 126.051C100.356 125.11 97.0861 126.303 95.9413 126.961L96.9268 126.626Z" fill="#FFAA9C"/>
    <path d="M128.611 72.0211H128.691C128.584 71.1174 130.02 70.9154 130.39 70.8108C130.558 70.7634 134.441 69.0372 135.135 69.6496C135.562 70.0254 135.175 71.0856 135.226 72.1576C135.367 75.0022 139.538 78.8479 132.965 80.5296C130.802 81.0828 129.251 81.7808 129.633 80.0937C130.24 77.4228 127.036 76.2435 128.611 72.0211Z" fill="#FFAA9C"/>
    <path d="M141.51 63.1813C141.561 61.9833 141.241 60.7987 140.594 59.7891C139.947 58.7795 139.005 57.9939 137.895 57.5393L92.8965 39.6378C89.7488 38.3856 91.7753 38.2728 42.8792 58.2609C41.7557 58.7 40.7851 59.4579 40.0866 60.4414C39.3882 61.4249 38.9924 62.591 38.948 63.7965V115.639C38.9001 116.817 39.2095 117.982 39.8355 118.981C40.4616 119.98 41.375 120.767 42.4561 121.237L87.4565 140.148C88.2045 140.461 89.0077 140.62 89.8183 140.616C90.629 140.612 91.4306 140.446 92.1757 140.126L137.683 120.512C138.778 120.058 139.72 119.299 140.398 118.326C141.075 117.353 141.459 116.206 141.505 115.021L141.51 63.1813ZM139.265 100.34L124.786 106.555V89.8789L139.265 83.6126V100.34ZM106.463 114.453V97.7759L123.233 90.545C123.614 90.6933 123.515 87.5056 123.515 107.1L106.463 114.453ZM123.515 108.487V124.197L106.463 131.548V115.838L123.515 108.487ZM89.817 121.629C73.2259 114.66 74.8839 115.633 74.8839 114.732L90.1983 108.472L105.148 114.419C105.214 114.254 105.191 114.18 105.191 115.001L89.817 121.629ZM90.7452 54.2169L105.669 60.9573C102.203 62.5834 97.9506 64.5973 91.2211 67.795C89.8261 68.4566 92.5561 69.2465 74.883 61.2011L90.7452 54.2169ZM73.3351 60.4959C68.7123 58.3947 63.7 56.1343 59.0299 54.0631L75.0941 47.4965L88.9725 53.609L73.3351 60.4959ZM92.0056 53.3906L105.796 47.1644L121.849 53.549C115.106 56.5947 111.642 58.1672 107.193 60.2466L92.0056 53.3906ZM123.515 89.0417C123.084 89.2237 124.903 89.8443 107.657 82.9829V61.8527L123.515 69.0135V89.0417ZM105.191 113.066L90.8308 107.353V91.4277L105.191 97.1398V113.066ZM74.9103 77.6021C75.4499 76.3736 73.6891 77.9615 87.3063 71.1147C88.2163 70.6597 88.9789 70.2584 89.5904 69.959V89.9362C89.5904 90.1428 90.7343 89.5895 74.8839 96.0687C74.8839 76.7904 74.8193 77.562 74.9103 77.6021ZM90.8635 89.3411V69.3584C94.8957 67.4474 102.38 63.9057 106.385 62.0265V82.992L90.8635 89.3411ZM90.8308 90.019L90.8508 90.07L90.8308 90.0618V90.019ZM74.8839 97.4419L89.5595 91.4432V107.36L74.8839 113.358V97.4419ZM106.593 96.3362L91.637 90.3876L107.021 84.0995L121.559 89.8834L106.593 96.3362ZM107.62 61.8363C106.619 61.8363 106.609 61.9219 107.198 61.6461L107.62 61.8363ZM88.7641 68.9644C85.9814 70.3366 80.5487 73.1667 74.287 75.9386L57.8551 68.705L73.3251 61.8909C80.2793 65.0495 86.2744 67.8141 88.7641 68.9644ZM73.6126 77.0306V96.7594L56.9096 89.7397V69.6742L73.6126 77.0306ZM55.6383 89.2055L41.223 83.1467C41.3722 62.0174 41.314 63.5371 41.4824 62.8801L55.6383 69.1145V89.2055ZM41.152 84.5217L55.6383 90.5841V107.266L41.152 101.154V84.5217ZM56.9096 91.1183L73.6126 98.138C73.6126 115.312 73.5753 114.098 73.6126 114.189C73.6126 115.093 76.1333 115.88 56.9096 107.8V91.1183ZM73.6126 116.199V131.916L56.9096 124.898V109.18L73.6126 116.199ZM139.334 82.224L124.786 88.4939V68.7751L139.353 62.1985C139.524 62.881 139.481 61.4359 139.334 82.224ZM138.84 61.0355C122.444 68.4384 124.046 67.5875 124.198 67.927L108.717 60.9363C112.946 58.968 116.538 57.34 123.487 54.2023C138.448 60.151 137.963 59.7133 138.84 61.0355ZM89.2301 41.719C91.1411 40.9391 91.2867 41.3923 104.154 46.511L90.2574 52.79L76.7294 46.8277L89.2301 41.719ZM57.3973 54.732C62.0311 56.7804 67.0725 59.0499 71.7754 61.1839L56.279 68.0089L42.0011 61.7198C42.8665 60.4322 42.3587 60.879 57.3973 54.731V54.732ZM41.041 115.655V102.529L55.642 108.646V124.363L43.316 119.186C42.6276 118.892 42.043 118.398 41.6376 117.769C41.2321 117.14 41.0243 116.403 41.041 115.655V115.655ZM74.8839 132.451V116.734L89.2537 122.797V138.345C88.6013 138.243 89.5331 138.608 74.8839 132.451ZM90.5259 138.334V122.682L105.196 116.389V132.096C90.0745 138.61 91.1456 138.222 90.5259 138.334V138.334ZM136.805 118.469L124.786 123.649V107.94L139.149 101.729V115.005C139.134 115.747 138.905 116.469 138.489 117.084C138.073 117.698 137.488 118.18 136.805 118.469Z" fill="#402E32"/>
    <path d="M101.897 127.136C101.924 126.603 101.788 126.075 101.508 125.621C101.335 125.422 101.109 125.277 100.856 125.203C100.603 125.128 100.335 125.128 100.082 125.201C100.319 121.743 94.6646 122.203 95.2215 126.65C93.6918 127.421 93.9393 129.442 94.1186 131.25C94.1194 131.624 94.2327 131.989 94.4437 132.297C94.6547 132.605 94.9536 132.843 95.3016 132.979C96.1655 133.113 97.0497 132.975 97.8314 132.583C101.343 131.361 102.24 131.543 101.897 127.136ZM96.2689 125.274C96.7239 124.091 99.1017 123.104 99.2337 125.434C95.4044 126.545 96.7276 126.152 96.025 126.344C96.0577 125.978 96.1398 125.618 96.2689 125.274V125.274ZM97.5429 131.609C96.4564 131.923 95.6929 132.252 95.3589 131.695C95.1769 131.397 94.7465 128.286 95.6319 127.691C95.8012 127.585 99.7933 126.326 99.9626 126.276C100.897 125.919 100.884 126.26 101.015 127.229C101.533 131.013 100.919 130.579 97.5466 131.609H97.5429Z" fill="#402E32"/>
    <path d="M98.2272 128.05C97.4847 128.03 97.6084 130.396 98.3464 130.297C99.0845 130.199 98.9716 128.071 98.2272 128.05Z" fill="#402E32"/>
    <path d="M78.9407 68.341C78.5057 68.0361 77.8714 68.4384 77.1289 68.8761C75.3426 65.9577 74.3215 63.2441 73.3242 66.45C73.1485 67.0124 72.6116 68.3037 72.659 68.3947C72.6672 68.4092 72.6535 68.4293 72.6289 68.4165C68.0207 64.9239 66.956 64.8102 71.9655 69.231C72.2003 69.3857 72.3705 69.7151 72.8755 69.676C73.0502 69.6574 73.2152 69.5868 73.3491 69.4731C73.483 69.3595 73.5796 69.2082 73.6263 69.039C74.0322 67.5657 74.0085 67.9897 74.4371 66.6375L76.2107 69.524C74.0558 71.0328 74.8011 71.4705 76.8477 72.3386C78.5812 73.0848 78.7314 73.2887 79.231 69.6669C79.281 69.3065 79.372 68.6422 78.9407 68.341ZM77.9088 71.6479C77.8769 71.7881 77.977 71.8299 77.4283 71.5569C77.3373 71.5114 76.0706 70.9263 75.9796 70.8954C76.7009 70.2894 77.4828 69.7594 78.3128 69.3138C78.2864 69.615 78.1317 70.6397 77.9088 71.647V71.6479Z" fill="#402E32"/>
    <path d="M136.834 76.1069C136.652 74.4999 135.366 73.8838 135.368 70.778C135.362 68.958 135.914 68.4657 131.951 69.9026C129.67 70.7352 128.643 71.061 128.254 72.8482C127.623 75.6765 129.276 77.3373 129.488 78.4247C129.998 80.8817 127.61 82.7636 132.931 80.9427C135.373 80.12 137.101 78.6868 136.834 76.1069ZM135.678 78.978C134.61 79.1747 133.565 79.4796 132.559 79.888C128.858 81.1538 129.75 81.7635 130.309 80.07C130.863 78.2345 130.299 77.4246 129.742 76.2398C129.143 74.7543 128.909 73.147 129.059 71.5524C129.799 71.8672 133.509 70.8244 134.968 69.595C134.616 70.3776 134.441 71.2283 134.456 72.0864C134.47 72.9444 134.674 73.7887 135.052 74.559C136.136 76.7876 135.979 76.2917 135.681 78.978H135.678Z" fill="#402E32"/>
    <path d="M133.671 72.7845C133.534 72.3869 130.025 73.5944 130.162 73.9921C130.298 74.3898 133.807 73.1822 133.671 72.7845Z" fill="#402E32"/>
    <path d="M134.075 74.6691C133.943 74.2705 130.666 75.3525 130.799 75.7511C130.932 76.1497 134.207 75.0677 134.075 74.6691Z" fill="#402E32"/>
    <path d="M132.951 76.5073C131.104 77.0834 130.248 78.0134 133.14 77.1143C136.013 76.2152 134.803 75.9277 132.951 76.5073Z" fill="#402E32"/>
    <path d="M82.7618 8.15087C83.9602 7.42287 85.2242 6.81499 86.4864 6.20711C91.0218 4.02311 92.3668 4.24424 95.5937 5.6238C97.9105 6.61297 106.708 10.2648 107.606 12.5717C107.879 13.276 107.81 13.1477 107.87 22.234C107.889 25.258 107.459 25.0687 107.167 26.6239C106.744 28.8789 107.424 29.6696 104.768 31.0483C101.275 33.0191 97.4556 34.3446 93.4925 34.9613C92.3252 35.3054 91.1004 35.4097 89.8918 35.2678C88.6832 35.126 87.5158 34.741 86.46 34.1359C84.7601 33.3315 77.9733 29.4103 77.0688 27.7732C76.5228 26.7777 76.6238 26.3982 76.3963 17.5284C76.1934 9.56046 75.4636 12.5753 82.7618 8.15087Z" fill="#FFF4CC"/>
    <path d="M105.941 9.42306C93.2058 4.02403 92.6735 3.29876 90.2474 4.30977L78.2354 9.31477C77.3744 9.67218 76.6388 10.2771 76.1219 11.0529C75.605 11.8287 75.3299 12.7405 75.3316 13.6728V27.1999C75.3301 28.132 75.6052 29.0436 76.1221 29.8192C76.6391 30.5949 77.3745 31.1996 78.2354 31.557C91.3658 37.0315 90.7934 36.9305 92.0738 36.9305C93.3542 36.9305 92.6817 37.0725 105.912 31.557C106.773 31.1999 107.509 30.5952 108.026 29.8195C108.543 29.0439 108.818 28.1321 108.817 27.1999V13.7701C108.818 12.8431 108.546 11.9363 108.034 11.1631C107.523 10.3899 106.795 9.78467 105.941 9.42306V9.42306ZM90.9818 6.06971C91.3282 5.92629 91.6996 5.85309 92.0745 5.85434C92.4494 5.85559 92.8204 5.93127 93.1658 6.07699C106.289 11.6507 105.352 11.2194 105.669 11.4323L92.0793 16.6075L78.4893 11.3359C78.8178 11.1175 77.8341 11.5506 90.9818 6.06971ZM78.9698 29.797C78.4569 29.5838 78.0189 29.2232 77.7111 28.7609C77.4033 28.2986 77.2397 27.7553 77.2408 27.1999C77.2408 12.6672 77.107 13.2168 77.5739 12.3442L91.4413 17.7241C91.4413 36.7249 91.6334 35.075 90.9936 34.8093L78.9698 29.797ZM106.907 27.1999C106.908 27.7553 106.744 28.2986 106.437 28.761C106.129 29.2233 105.691 29.5839 105.178 29.797L93.1567 34.8093C92.5197 35.076 92.709 36.7413 92.709 17.7268L106.578 12.4488C107.041 13.3051 106.912 12.7318 106.912 27.1999H106.907Z" fill="#402E32"/>
    <path d="M98.6931 24.6082C98.2864 23.569 97.8614 23.3206 96.9013 23.3415C96.0232 23.3606 94.9903 23.6509 94.7173 24.4872C94.5353 25.055 94.8284 29.0963 93.9338 30.5287C93.8266 30.7415 93.6654 30.9226 93.4664 31.0539C93.2675 31.1851 93.0376 31.262 92.7997 31.2768C92.5618 31.2916 92.3241 31.2439 92.1104 31.1383C91.8967 31.0328 91.7143 30.8731 91.5815 30.6752C88.8742 27.897 91.2721 23.1094 88.5102 23.1559C87.8706 23.1805 87.263 23.4425 86.806 23.8906C86.3489 24.3388 86.075 24.9411 86.0378 25.5801C86.0004 26.2262 86.1415 26.8732 86.066 27.5184C85.7502 30.2184 85.1505 27.8442 86.6547 34.6118C87.0397 36.3454 87.5019 37.8487 89.5249 38.7978C86.7949 39.6168 86.3963 43.7018 86.0669 46.8905C85.7629 49.8816 86.2489 51.9956 89.1945 53.093C90.8116 53.6955 90.8435 53.3078 90.7215 53.6836C89.9382 53.296 89.0815 53.0789 88.2081 53.0466C85.3634 52.8073 84.6591 58.9862 84.7629 61.6279C84.8275 63.2477 85.4244 63.5808 86.6848 63.5699C87.6248 63.5617 88.0834 63.4361 88.4192 62.5971C89.0144 61.1156 88.9716 58.9816 91.0864 59.241C92.0874 59.3638 92.3832 59.8543 92.4642 60.8171C92.5979 62.4051 91.2812 63.3378 92.8664 63.9056C95.0094 64.6719 96.1187 65.1705 96.3772 59.1291C96.5331 57.7432 96.2519 56.3432 95.5727 55.1251C95.7218 54.5089 95.8183 53.8811 95.8612 53.2486C96.6984 53.114 97.6885 53.2832 98.5202 51.5105C99.938 48.4884 99.1736 42.9848 98.2154 39.726C98.0761 39.2519 97.9497 39.1063 97.4637 39.0071C96.0732 38.7232 96.2261 39.0445 96.1897 38.6923C100.816 37.0934 99.9862 27.9179 98.6931 24.6082Z" fill="#FFC43B"/>
    <path d="M98.6767 23.66C98.4193 23.3704 98.0998 23.1426 97.742 22.9938C97.3842 22.8449 96.9974 22.7789 96.6105 22.8005C96.2235 22.8221 95.8465 22.9308 95.5075 23.1186C95.1685 23.3063 94.8763 23.5683 94.6527 23.8848C94.2542 24.54 94.4098 25.2561 94.2824 26.9669C93.851 32.477 91.7344 31.4733 91.0528 29.1573C90.4358 26.9888 90.5796 24.1996 89.7378 23.3333C89.4904 23.1204 89.2016 22.9611 88.8895 22.8653C88.5775 22.7694 88.249 22.7392 87.9248 22.7765C87.6005 22.8137 87.2874 22.9177 87.0053 23.0818C86.7231 23.2459 86.478 23.4666 86.2853 23.7301C85.4071 25.0323 83.5744 35.864 88.4056 38.9762C86.4373 40.3412 85.8294 43.6172 85.5991 46.0141C85.3544 48.4893 85.7275 51.0965 87.6849 52.6435C83.8729 54.7629 83.8192 62.5761 84.9876 63.6636C86.1297 64.7429 88.4083 64.4034 88.6422 62.7709C89.1236 61.9228 89.3793 60.9509 89.7833 60.3139C90.3721 59.3857 91.1174 59.5204 91.4013 59.8079C91.88 60.2902 91.4013 63.5872 91.9282 63.771C92.4988 65.1833 95.0049 65.2525 95.7438 63.862C96.5046 62.952 98.0798 56.6875 96.1688 54.2733C96.1906 54.1869 96.2116 54.1004 96.2307 54.013C100.674 52.9138 100.202 47.4465 99.9617 43.2914C99.8334 41.617 99.5167 39.615 98.1144 38.6923C102.193 35.2279 100.202 25.3526 98.6767 23.66ZM91.8017 58.0844C90.4458 58.3392 89.8215 56.7048 89.6441 56.7358C89.493 56.7494 89.443 57.5493 90.0272 58.2718C88.4174 58.8724 87.9406 61.2485 87.9961 62.8164C87.7992 63.0118 87.5605 63.16 87.2979 63.2496C87.0354 63.3393 86.7559 63.3681 86.4806 63.3339C86.2053 63.2997 85.9414 63.2034 85.7088 63.0523C85.4761 62.9012 85.2809 62.6991 85.1378 62.4615C85.1005 62.3705 85.1487 62.5288 85.3971 61.1456C85.9995 58.0425 86.379 54.1641 89.4239 53.5799C89.6614 53.6636 89.8934 53.7309 90.1191 53.7874C89.6958 54.4585 89.4387 55.221 89.3693 56.0114C89.4011 56.3618 89.5267 56.5256 89.6213 56.5192C89.7296 56.5137 89.8033 56.3472 89.9371 56.1151C90.444 55.1979 91.2275 54.6946 91.6707 53.5044C92.6043 51.061 90.616 48.9425 90.4977 47.1589C90.4349 46.319 91.0883 44.9003 90.1127 45.7794C88.3428 47.371 90.2747 50.2111 90.4376 52.0165C90.0053 52.0091 89.5733 52.045 89.1481 52.1239C86.4181 50.3621 86.8877 46.6957 87.5365 43.4143C87.8377 41.8509 88.3255 40.3203 89.7387 39.5923C90.1295 39.718 90.5288 39.8153 90.9336 39.8835C90.9044 40.4823 90.5869 42.9065 91.1702 42.7645C91.4432 42.7036 93.1276 39.7615 92.1011 36.3035C91.8316 35.4151 91.507 34.5444 91.1292 33.6964C90.9317 33.6181 90.5641 34.1869 90.595 35.1142C90.595 35.9131 90.9327 37.3801 90.9327 38.2655C86.4864 37.8105 86.6065 31.0501 86.6557 26.5265C86.6966 23.9603 86.4737 24.4053 86.7803 24.1832C86.9811 23.9923 87.2218 23.8484 87.485 23.762C87.7482 23.6756 88.0274 23.6488 88.3023 23.6836C88.5771 23.7185 88.8408 23.8141 89.0741 23.9634C89.3075 24.1128 89.5046 24.3122 89.6514 24.5472C89.8033 24.7857 88.4766 31.4842 92.0265 32.3933C91.2293 32.649 91.0255 33.4379 91.2075 33.4753C91.3121 33.5299 91.4805 33.2769 91.8445 33.1531C92.6216 32.8901 94.2751 33.5635 95.0768 35.5746C95.8859 37.7537 95.873 40.153 95.0404 42.3232C94.2987 43.9193 92.6526 44.3252 91.6898 43.3788C91.3867 43.0921 91.2976 42.8155 91.1793 42.8328C90.9618 42.8328 90.9609 43.9821 92.0993 44.6073C91.1793 44.6983 89.7715 45.6574 91.4787 45.3835C96.1615 44.6064 95.9686 57.3045 91.8017 58.0817V58.0844ZM95.5036 58.9807C95.0486 63.8037 95.4126 63.1758 95.2306 63.3742C95.0349 63.5608 94.8029 63.7051 94.549 63.7981C94.2951 63.8911 94.0248 63.9309 93.7549 63.9149C93.4849 63.899 93.2212 63.8276 92.9801 63.7053C92.7389 63.583 92.5255 63.4124 92.3532 63.204C92.8209 62.0047 93.3232 60.07 92.5925 59.0089C93.8615 58.4246 94.881 57.4074 95.4681 56.1397C95.6455 57.0765 95.6575 58.0371 95.5036 58.978V58.9807ZM98.1899 41.0537C98.5312 42.2968 99.0271 48.6768 98.0543 50.9382C97.7429 51.7224 97.1657 52.3721 96.4236 52.7736C96.6393 50.2475 95.9686 45.9677 93.6445 44.893C96.0478 44.5691 97.0024 41.9401 97.1443 39.5086C97.4159 39.6794 97.649 39.9048 97.8288 40.1705C98.0087 40.4362 98.1313 40.7363 98.189 41.0519L98.1899 41.0537ZM97.0733 37.5693C96.8003 35.5473 95.8339 33.346 93.9229 32.5643C93.2987 32.2913 93.2168 32.4388 93.5307 32.3105C95.7147 31.4369 95.7629 26.3955 94.7446 24.6965C95.9076 23.65 96.763 23.3488 98.5839 24.3625C98.4347 27.2035 100.297 34.7065 97.0733 37.5675V37.5693Z" fill="#402E32"/>
    <path d="M68.3064 128.621C71.9373 124.157 64.4162 115.955 55.9304 118.032C50.6879 119.315 36.8841 126.785 36.0924 129.165C35.7084 130.326 36.8204 131.508 37.4319 132.563C38.0895 133.597 38.946 134.49 39.9517 135.19C42.7636 137.305 45.9323 140.503 49.2629 139.369C51.3886 138.646 53.5035 135.183 55.5282 134.285C55.8267 134.154 66.491 130.853 68.3064 128.621Z" fill="white"/>
    <path d="M53.8183 119.531C48.4366 120.909 44.1195 123.71 39.7424 126.216C36.9123 127.836 36.9105 127.454 39.2465 125.505C61.3595 107.062 74.9039 122.266 68.0662 129.96C66.7139 131.482 65.0632 132.025 63.0694 132.469C54.7438 134.324 51.6416 137.994 51.2394 137.546C51.1484 137.44 51.6498 136.742 52.8073 135.716C59.0681 130.175 64.2842 131.302 66.5101 128.625C69.9117 124.535 65.3134 116.59 53.8183 119.531Z" fill="#402E32"/>
    <path d="M73.801 103.394C73.3879 98.745 74.62 78.3137 73.9939 77.1908C73.6527 76.5811 71.9919 75.9523 67.9269 74.0968C66.5164 73.4534 64.9485 73.1949 63.5462 72.5143C61.1329 71.344 59.4667 70.4213 57.0907 69.1755C55.9568 68.5831 53.8147 68.5048 52.76 67.7832C49.4529 65.6969 45.9093 64.0116 42.204 62.7627C40.8544 62.355 40.3558 62.9747 40.0973 64.3097C39.9499 65.0686 40.1274 64.752 40.1092 65.5118C39.9772 70.9718 39.7324 67.0816 39.9681 75.7611C40.101 80.646 40.2975 81.5369 39.8216 82.8155C40.9773 95.9877 37.5939 99.5595 42.7873 103.011C46.3991 105.41 56.4519 107.331 63.8629 111.232C66.6839 112.718 69.5668 114.225 72.7126 114.752C73.3751 114.863 73.872 114.714 74.0076 113.415C74.2966 111.784 74.434 110.13 74.418 108.474C74.2778 106.797 73.801 105.079 73.801 103.394Z" fill="white"/>
    <path d="M45.2134 99.6523C42.9748 98.725 43.6409 98.5175 44.1132 68.3201C45.2225 68.2573 46.1206 69.2528 47.1043 69.7679C60.3994 76.7276 69.4467 78.8151 69.7925 79.3411C69.9644 79.6032 69.4694 107.915 69.3375 108.348C68.8643 109.923 68.3292 108.803 67.7905 108.712C66.84 108.496 65.9221 108.156 65.0605 107.7C62.163 106.449 59.0326 105.55 56.1352 104.299C50.2721 101.769 53.6554 103.151 45.2134 99.6523Z" fill="#FFAA9C"/>
    <path d="M49.322 90.3557C49.3548 89.9817 49.454 88.3592 49.1464 88.1362C48.7084 88.0113 48.2998 87.8004 47.9442 87.5159C47.5886 87.2314 47.2932 86.879 47.0752 86.4791C46.9102 86.1792 46.8239 85.8423 46.8245 85.4999C46.8251 85.1576 46.9124 84.821 47.0784 84.5215C47.2444 84.2221 47.4836 83.9697 47.7736 83.7878C48.0636 83.6059 48.3951 83.5006 48.7369 83.4816C48.9899 83.4361 50.0427 83.3906 50.09 83.5244C48.3756 78.7441 46.9451 76.3736 51.1384 79.0926C52.0365 77.1935 52.0402 77.127 52.244 76.9696C53.4944 76.0023 54.2879 79.3256 55.429 77.8514C55.793 77.3855 55.8221 76.4536 56.0269 76.1743C56.2608 75.8558 57.067 75.8303 57.239 77.0197C57.3509 77.7977 57.0934 79.5577 58.0343 79.7142C58.4235 79.7096 58.8012 79.5822 59.1136 79.3502C60.4941 78.6395 61.5051 79.5504 61.3458 80.1692C61.294 80.3703 61.0728 80.6023 61.203 80.8116C61.7808 80.4452 62.4787 80.3182 63.1485 80.4576C63.3183 80.6019 63.4367 80.7973 63.4859 81.0146C63.5351 81.2318 63.5126 81.4592 63.4215 81.6625C63.0639 82.5106 62.2385 82.5725 62.2495 83.1704C62.2495 83.3524 62.2349 83.2832 63.0275 84.9166C63.275 85.1346 63.4304 85.4384 63.4625 85.7666C64.7456 85.7666 64.8885 85.5928 65.4836 86.4254C65.6885 86.7391 65.8193 87.0952 65.8662 87.4669C65.913 87.8386 65.8745 88.2161 65.7538 88.5708C65.633 88.9254 65.4331 89.2479 65.1692 89.5138C64.9053 89.7797 64.5843 89.9821 64.2305 90.1055C62.4424 90.6942 64.7975 90.8535 64.2515 94.458C64.0531 95.7639 64.1186 97.5729 62.912 98.098C62.4988 98.28 62.2549 98.421 62.7117 99.0499C63.3342 99.9062 63.69 99.706 64.1677 101.642C64.4439 102.499 64.5144 103.409 64.3734 104.299C64.2442 106.181 65.1879 107.604 64.3789 107.385C62.738 107.04 61.1742 106.398 59.7652 105.489C59.6742 105.448 53.7009 103.407 46.9478 100.232C44.8757 99.2573 48.0935 96.1733 51.1338 95.9549C52.1758 95.8803 51.5369 95.2424 50.8608 94.5435C48.827 92.4232 49.231 91.4022 49.322 90.3557Z" fill="#FFF9EA"/>
    <path d="M49.4048 84.8839C48.4447 84.8602 47.9697 85.7875 48.1727 85.8767C48.2928 85.9431 48.7059 85.4053 49.3902 85.4217C49.5302 85.4253 49.6677 85.4592 49.7934 85.5209C49.6252 85.5727 49.4755 85.6717 49.3618 85.806C49.2482 85.9404 49.1755 86.1045 49.1523 86.2789C49.1292 86.4533 49.1565 86.6307 49.2311 86.7901C49.3057 86.9494 49.4244 87.0841 49.5731 87.178C49.878 87.3455 50.0946 87.2572 50.0909 87.1908C50.1019 87.0561 49.4257 86.7958 49.7269 86.1979C49.8134 86.0159 49.8598 86.0578 49.9308 86.0806C51.3558 86.7312 51.1138 86.7831 50.889 86.0278C50.7896 85.7074 50.5936 85.4256 50.328 85.2209C50.0623 85.0161 49.7399 84.8984 49.4048 84.8839V84.8839Z" fill="#402E32"/>
    <path d="M75.1087 77.8551C75.1087 74.66 73.2887 75.8339 43.1813 61.9473C42.7656 61.7541 42.308 61.6687 41.8506 61.6989C41.3932 61.7291 40.9508 61.874 40.5642 62.1202C38.7642 63.2587 39.363 61.8527 39.0263 100.109C39.0197 100.655 39.1763 101.19 39.4759 101.646C39.7755 102.102 40.2045 102.458 40.7079 102.669C73.4852 116.443 72.1939 116.468 73.9439 115.308C75.6938 114.148 75.1196 115.552 75.1087 77.8551ZM72.1011 113.793C39.3047 100.009 41.3231 100.919 41.1156 100.66C42.1521 100.234 43.5098 99.0826 43.2496 98.7487C42.9893 98.4147 41.3158 99.4848 40.9364 99.7588C41.2094 61.9938 41.1729 64.3707 41.2339 64.1778C41.6088 65.0423 43.3806 68.2009 43.8438 67.8969C44.2688 67.6176 42.6745 64.7611 41.7881 63.6363C42.1803 63.5144 39.9909 62.6353 72.4551 76.976C71.7763 77.249 69.4694 78.4092 69.6696 78.846C69.8898 79.3247 72.4278 78.0553 73.1558 77.5884C73.2186 77.7786 73.2268 75.2707 73.2605 113.02C73.2605 113.566 73.2559 112.96 71.8718 111.411C70.0664 109.38 67.2854 107.68 71.1602 112.048C71.7808 112.743 72.3532 113.361 72.7927 113.777C72.6856 113.83 72.5681 113.859 72.4486 113.862C72.3292 113.864 72.2106 113.841 72.1011 113.793V113.793Z" fill="#402E32"/>
    <path d="M44.499 83.4807C44.6519 63.2932 43.5299 63.2532 43.3788 83.4424C43.2942 86.3453 43.3215 98.5757 43.4334 98.5894C44.2888 98.7013 44.489 83.8037 44.499 83.4807Z" fill="#402E32"/>
    <path d="M69.2992 108.78C70.0864 108.871 70.2766 94.6127 70.292 94.0321C70.4422 74.3324 69.3202 74.2924 69.1718 93.9948C69.1218 95.823 69.0836 108.757 69.2992 108.78Z" fill="#402E32"/>
    <path d="M64.9121 107.107C65.239 104.538 64.7514 101.931 63.518 99.6541C62.6399 98.2318 62.3878 98.674 62.9265 98.3801C64.3124 97.6248 64.5108 96.3636 64.4944 94.8002C64.7146 94.1258 64.7959 93.4138 64.7334 92.7072C64.6708 92.0006 64.4657 91.314 64.1304 90.6888C63.9293 90.3548 64.4553 90.7798 65.4436 89.8571C67.4337 88.0671 65.7994 84.5154 63.6864 85.3453C63.4234 83.7792 62.2968 83.8756 62.8555 83.2859C63.0509 83.1233 63.231 82.9429 63.3933 82.7472C64.5418 81.2266 63.8229 79.6314 61.9892 80.1501C61.3149 80.3858 61.7353 80.4458 61.6771 79.736C61.6043 78.7541 60.2666 77.846 58.2682 79.2082C57.8041 79.5404 57.9251 79.5722 57.8132 78.9516C57.6212 77.8714 57.3819 76.3463 56.8559 75.8958C56.572 75.6055 56.1088 75.5227 55.6556 76.1497C55.3891 76.5821 55.1779 77.0462 55.0268 77.5311C54.732 78.2482 54.6118 77.6121 53.7865 76.7649C53.0466 76.005 52.1485 75.9941 51.6434 76.9123C51.4526 77.3207 51.3041 77.7476 51.2002 78.1863C51.176 78.297 51.1303 78.4018 51.0656 78.4948C50.4431 78.351 49.8225 77.4301 48.9316 77.3282C46.9706 77.2062 48.5285 80.1883 49.5977 83.0357C46.1916 82.4105 45.1114 87.3527 48.9908 88.664C48.5203 91.2466 49.059 93.8984 51.0838 95.5254C48.705 95.8294 46.5747 97.1452 46.0333 99.5112C34.4763 95.5782 68.4447 110.168 68.8643 109.166C68.9243 109.01 67.3973 108.228 64.9121 107.107ZM62.4697 97.5793C60.6824 98.5667 53.3761 97.8468 53.2942 94.6154C53.2541 93.0339 53.9312 91.5615 55.9577 90.3521C55.8854 90.6151 55.8964 90.894 55.9891 91.1505C56.0818 91.407 56.2518 91.6285 56.4755 91.7844C57.8087 92.497 58.4475 91.6279 58.7714 93.1176C58.8224 93.3424 58.9125 93.4634 58.9762 93.4479C59.0399 93.4324 59.0845 93.3232 59.1427 93.1239C59.8862 90.5759 55.7229 91.7107 57.0661 90.212C57.664 89.5213 61.2366 89.4257 62.3669 90.3339C63.5553 91.2967 60.9946 91.1784 60.5186 92.294C60.3366 92.729 60.394 93.6044 60.5469 93.6481C60.7543 93.7082 60.8826 92.9065 61.1047 92.6271C61.5479 92.0693 63.205 92.3777 63.5617 91.0801C63.8463 91.8024 63.9488 92.5837 63.8602 93.3551C63.649 96.0423 62.103 95.661 59.6259 95.5482C47.4629 94.6919 60.8754 97.1098 62.9138 96.4054C63.569 96.1961 63.6527 95.8267 63.4598 96.4054C63.3798 96.6561 63.2512 96.8886 63.0813 97.0896C62.9114 97.2905 62.7036 97.456 62.4697 97.5766V97.5793ZM55.0131 89.8134C54.7099 89.6412 54.45 89.4019 54.2533 89.1139C54.0567 88.8259 53.9284 88.4968 53.8784 88.1517C55.631 88.0198 55.3862 88.0016 55.3926 88.0898C55.4281 88.6003 55.3426 88.8561 55.9841 88.7732C56.6257 88.6904 56.4964 88.4347 56.4655 88.0343C57.6349 88.1553 57.7077 88.3774 58.1035 88.2163C57.9424 88.9907 57.9342 88.8233 57.4874 88.9361C57.0212 89.034 56.6012 89.2852 56.2944 89.6496C56.0141 89.7537 55.7406 89.8753 55.4754 90.0136C55.3165 89.9575 55.162 89.8897 55.0131 89.8106V89.8134ZM59.696 88.725C57.8642 88.7396 58.5885 89.0444 58.4721 88.0552C58.6759 88.0916 59.9499 87.9697 60.4204 87.9406C60.3821 88.0316 60.4358 88.1808 60.4704 88.4984C60.495 88.7223 61.5788 88.8451 61.5415 88.4074C61.5269 88.2482 61.5051 88.1071 61.4869 87.9788C61.8745 88.0289 62.648 88.2036 62.6781 88.2045C61.8573 89.6195 62.2604 88.7678 59.696 88.725ZM62.9147 86.7012C63.1931 87.3081 62.891 87.7595 62.6417 87.6758C61.5982 87.4017 60.5058 87.3706 59.4485 87.5848C57.8887 87.7559 59.099 87.8405 58.5512 86.5838C58.7719 86.1935 59.0947 85.8706 59.4849 85.6498C59.8751 85.429 60.318 85.3185 60.7662 85.3302C61.2144 85.3418 61.651 85.4753 62.0292 85.7162C62.4073 85.957 62.7128 86.2963 62.9129 86.6975L62.9147 86.7012ZM58.1481 87.3382C58.1144 87.9752 57.593 87.6439 56.8786 87.5584C55.3644 87.3564 53.8019 87.8423 53.6227 87.7031C53.2468 87.5001 53.7519 85.3708 55.8867 85.3835C57.219 85.3817 58.24 86.5838 58.149 87.3309L58.1481 87.3382ZM64.418 86.116C65.8494 86.6084 65.8012 89.5021 63.5398 90.0036C63.4752 89.9499 62.6972 89.3948 62.5461 89.312C62.891 88.9641 63.1166 88.5158 63.1904 88.0316C63.237 87.9952 63.2797 87.954 63.3178 87.9087C63.3458 87.9996 63.4005 88.08 63.4749 88.1392C63.5492 88.1985 63.6398 88.2339 63.7346 88.2409C63.7764 88.2136 63.8747 88.412 63.8183 88.5294C63.7082 88.796 63.2359 89.0353 63.306 89.1773C63.3679 89.3593 64.0713 89.2801 64.3215 88.7223C64.3641 88.624 64.385 88.5177 64.3827 88.4107C64.3805 88.3036 64.3551 88.1983 64.3083 88.1019C64.2616 88.0056 64.1946 87.9205 64.1119 87.8524C64.0292 87.7843 63.9328 87.735 63.8292 87.7076C63.9202 87.5766 64.3161 87.4801 64.4544 87.6912C64.6864 88.0671 64.8384 87.9133 64.8184 87.5775C64.7838 86.9933 64.0221 86.8823 63.5653 87.2208C63.5717 86.964 63.5168 86.7095 63.4052 86.4782C63.3533 86.3708 63.9066 85.9331 64.4162 86.1088L64.418 86.116ZM52.0429 78.442C52.113 78.2045 52.3587 77.117 52.6026 77.0634C53.2896 76.5638 54.6819 80.7034 55.8658 77.31C55.8968 77.219 56.2298 76.2935 56.3581 76.3162C56.693 75.7903 57.4665 81.1593 57.259 82.0101C57.239 82.1011 57.2345 82.0411 50.6788 83.1558C50.7407 83.3287 50.4058 82.4779 50.3367 82.2949C50.5187 82.2667 56.6639 81.0765 56.6366 80.8544C56.6029 80.5632 52.5543 81.0655 50.2284 82.0165C46.9942 73.68 50.9318 82.2112 52.0429 78.442ZM49.6587 88.8042C51.0665 88.9552 51.5915 87.9797 51.1311 88.1344C49.3939 88.7195 46.9505 86.9514 47.5894 84.9549C48.0444 83.5335 49.8316 83.6372 50.93 84.4134C51.84 85.0695 51.9492 85.8885 52.0884 85.8576C52.1485 85.853 52.2122 85.6483 52.1494 85.2752C52.0302 84.799 51.8 84.3578 51.4778 83.9875C57.9761 82.8146 57.7513 82.8591 57.9133 82.6225C58.1492 81.9155 58.1906 81.158 58.0334 80.4295C58.9771 79.8835 59.6278 79.2465 60.5196 79.534C61.6307 79.9635 59.1163 81.9473 59.5877 82.2367C59.6833 82.3505 60.3066 81.84 61.3504 81.2503C62.365 80.7116 63.3651 80.6351 62.9229 81.6807C62.6116 82.4478 62.0757 82.4751 61.8017 83.1585C61.3386 84.2842 62.638 84.2933 62.8728 85.7065C62.5681 85.3887 62.1947 85.1448 61.7812 84.9933C61.3678 84.8418 60.9252 84.7869 60.4872 84.8326C60.0493 84.8783 59.6276 85.0236 59.2544 85.2572C58.8811 85.4909 58.5662 85.8067 58.3337 86.1807C58.0274 85.7028 57.5851 85.3275 57.0637 85.1029C56.5423 84.8784 55.9657 84.815 55.408 84.9208C54.8503 85.0265 54.337 85.2967 53.934 85.6965C53.5311 86.0963 53.2569 86.6075 53.1467 87.1644C53.1267 87.4374 53.0657 87.9269 53.4789 88.1008C53.4478 88.5517 53.5588 89.001 53.7963 89.3855C54.0338 89.7701 54.3858 90.0706 54.8029 90.2447C55.1405 90.3812 54.9631 90.1164 53.9275 91.1183C53.4513 91.5684 53.0742 92.1128 52.8202 92.7169C52.5662 93.3209 52.441 93.9712 52.4524 94.6264C52.446 95.5227 52.9747 95.8339 52.0502 95.1496C50.0273 93.6745 49.5641 91.3039 49.6587 88.8042ZM51.1302 101.384C51.8895 100.869 52.7601 100.542 53.6706 100.429C54.581 100.316 55.5052 100.421 56.3672 100.735C60.0727 101.986 61.0082 104.44 61.294 104.317C61.4923 104.235 60.9673 102.729 59.4649 101.646C55.6702 98.8387 52.0757 99.5358 50.7689 101.245C49.1709 100.631 47.7595 100.11 46.6229 99.7123C47.6594 97.4319 49.5349 96.7093 51.9565 96.096C52.3728 96.3156 52.8119 96.4889 53.2659 96.6129C54.6701 98.3073 56.5419 98.4757 58.5949 98.7969C59.6894 98.998 60.812 98.9906 61.9037 98.775C63.6809 100.921 64.0795 104.011 64.2433 106.801C60.3467 105.065 55.2106 102.957 51.1302 101.384Z" fill="#402E32"/>
    <path d="M69.5977 79.2173C69.8015 78.7068 44.9503 68.2727 44.7292 68.7705C44.3452 69.6341 69.251 80.0745 69.5977 79.2173Z" fill="#402E32"/>
    <path d="M88.462 115.972C87.3544 115.475 86.3474 114.779 85.4909 113.919C84.9278 113.082 84.2864 112.3 83.5753 111.584C82.2322 110.038 81.1188 108.306 80.2693 106.443C79.928 105.573 79.8307 104.789 78.9534 100.132C78.1599 95.9194 77.4274 90.838 81.0719 87.9451C83.9684 85.6455 89.4785 86.349 91.9009 87.4191C95.0113 88.7932 99.3147 93.4333 100.595 99.4821C101.155 102.121 101.539 109.081 100.467 111.557C98.3264 116.495 89.4712 116.298 88.462 115.972Z" fill="#FFC43B"/>
    <path fill-rule="evenodd" clip-rule="evenodd" d="M88.3701 97.6526L92.6735 100.208L90.8742 100.591L91.7865 104.889L89.9872 105.272L88.3701 97.6526ZM96.7525 103.832L92.449 101.276L94.2483 100.893L93.3361 96.5956L95.1354 96.2126L96.7525 103.832Z" fill="#402E32"/>
    <path d="M94.7428 88.3546C90.96 84.8302 87.754 85.4426 82.7372 86.2243C74.9521 87.4337 76.3918 110.256 87.6612 116.028C89.3738 116.887 93.0484 116.517 94.9576 116.133C97.5156 115.587 98.5976 115.262 99.9116 113.709C103.67 108.699 101.647 94.4989 94.7428 88.3546ZM81.8472 87.9315C82.517 87.4992 86.0514 87.046 86.6902 86.9842C85.9539 87.4802 85.3247 88.1192 84.8401 88.8631C84.3555 89.6071 84.0254 90.4408 83.8692 91.3149C81.8199 91.7207 82.0283 91.9518 79.7533 91.536C80.09 90.2365 80.717 88.664 81.8472 87.9315V87.9315ZM79.534 92.5033C82.4096 92.1457 80.7361 92.1994 83.6454 92.385C83.3562 94.4142 83.3495 96.4737 83.6254 98.5048C81.4678 99.0508 81.8718 99.2419 79.3811 98.9679C79.0939 96.8183 79.1455 94.637 79.534 92.5033V92.5033ZM79.5167 99.9171C82.7017 99.2501 81.7007 99.6687 83.7728 99.5795C84.1055 101.641 84.6198 103.669 85.3098 105.64C82.6844 106.052 83.6854 106.023 81.0519 105.7C80.3579 103.826 79.8441 101.89 79.5176 99.918L79.5167 99.9171ZM81.4395 106.682C84.3588 106.149 84.347 106.7 85.7093 106.706C86.3512 108.373 87.1868 109.96 88.199 111.432C86.2261 112.093 86.642 111.851 84.5144 111.87C83.234 110.306 82.199 108.557 81.445 106.682H81.4395ZM85.2615 112.688C87.1835 112.059 87.9915 112.537 88.9398 112.363C90.057 113.656 91.5117 114.613 93.1412 115.127C89.5495 115.514 87.7085 115.168 85.2615 112.692V112.688ZM100.584 108.752C99.8952 113.593 97.8377 114.248 95.095 114.817C89.2628 114.619 86.3308 107.283 85.0149 101.59C81.3513 85.7074 90.4476 82.7527 96.9842 92.82C99.9998 97.5521 101.273 103.187 100.584 108.756V108.752Z" fill="#402E32"/>
    <path d="M98.6349 101.874C98.9916 104.991 98.9197 109.609 96.6502 111.735C96.3885 112.006 96.0755 112.222 95.7295 112.371C95.3835 112.519 95.0114 112.597 94.6349 112.601C94.2583 112.604 93.8849 112.533 93.5363 112.39C93.1877 112.248 92.8709 112.038 92.6043 111.772C86.2998 106.688 83.5526 87.1106 91.1101 89.4302C94.0621 90.3357 96.2607 94.4571 97.4401 97.3108C98.5839 100.152 98.6922 100.098 97.7458 97.1989C93.9238 85.8376 85.3698 85.6574 85.6756 96.2525C85.9668 103.925 91.8117 117.498 97.1252 112.24C99.5303 109.88 99.5704 105.186 98.957 101.824C98.361 98.8069 98.2509 98.8778 98.6349 101.874Z" fill="#402E32"/>
    <path d="M116.459 149.857C117.658 149.129 118.922 148.521 120.184 147.913C124.719 145.729 126.064 145.95 129.291 147.329C131.608 148.319 140.405 151.97 141.303 154.278C141.576 154.982 141.508 154.854 141.567 163.94C141.586 166.964 141.156 166.775 140.864 168.33C140.441 170.585 141.121 171.376 138.466 172.754C134.972 174.725 131.153 176.051 127.19 176.667C126.023 177.012 124.798 177.116 123.589 176.974C122.381 176.832 121.213 176.447 120.157 175.842C118.457 175.038 111.671 171.116 110.766 169.478C110.22 168.484 110.321 168.104 110.094 159.235C109.891 151.267 109.161 154.281 116.459 149.857Z" fill="#FFF4CC"/>
    <path d="M139.639 150.467C126.899 145.068 126.371 144.341 123.945 145.353L111.933 150.358C111.072 150.715 110.336 151.32 109.819 152.096C109.302 152.871 109.027 153.783 109.028 154.715V168.241C109.027 169.173 109.302 170.085 109.819 170.861C110.336 171.636 111.072 172.241 111.933 172.599C125.09 178.084 124.491 177.968 125.771 177.968C127.051 177.968 126.278 178.154 139.609 172.599C140.471 172.241 141.206 171.636 141.723 170.861C142.24 170.085 142.516 169.173 142.514 168.241V154.813C142.516 153.886 142.244 152.979 141.732 152.206C141.221 151.433 140.492 150.828 139.639 150.467V150.467ZM124.678 147.113C125.024 146.97 125.396 146.896 125.771 146.897C126.146 146.898 126.517 146.974 126.862 147.12C140.006 152.698 139.044 152.261 139.366 152.476L125.777 157.65L112.188 152.379C112.518 152.158 111.566 152.577 124.678 147.113V147.113ZM112.666 170.84C112.153 170.627 111.715 170.266 111.408 169.804C111.1 169.341 110.936 168.798 110.937 168.243C110.937 153.744 110.798 154.268 111.27 153.387L125.138 158.767C125.138 177.768 125.33 176.118 124.69 175.852L112.666 170.84ZM140.603 168.243C140.604 168.798 140.441 169.341 140.133 169.804C139.825 170.266 139.387 170.627 138.874 170.84L126.854 175.852C126.217 176.119 126.407 177.784 126.407 158.77L140.276 153.492C140.738 154.347 140.61 153.784 140.61 168.243H140.603Z" fill="#402E32"/>
    <path d="M63.1968 149.857C64.3952 149.129 65.6592 148.521 66.9214 147.913C71.4559 145.729 72.8018 145.95 76.0287 147.329C78.3455 148.319 87.1425 151.97 88.0407 154.278C88.3137 154.982 88.2454 154.854 88.3046 163.94C88.3237 166.964 87.8942 166.775 87.602 168.33C87.178 170.585 87.8587 171.376 85.2033 172.754C81.7101 174.725 77.8906 176.051 73.9275 176.667C72.7602 177.012 71.5354 177.116 70.3268 176.974C69.1182 176.832 67.9508 176.447 66.895 175.842C65.1951 175.038 58.4083 171.116 57.5038 169.478C56.9578 168.484 57.0588 168.104 56.8313 159.235C56.6284 151.267 55.8986 154.281 63.1968 149.857Z" fill="#FFF4CC"/>
    <path d="M86.3763 150.549C73.6426 145.15 73.1076 144.425 70.6824 145.435L58.6704 150.44C57.8095 150.798 57.0741 151.402 56.5571 152.178C56.0402 152.954 55.7651 153.865 55.7666 154.797V168.323C55.7649 169.255 56.04 170.167 56.5569 170.943C57.0738 171.718 57.8094 172.323 58.6704 172.681C71.8272 178.167 71.2284 178.054 72.5088 178.054C73.8492 178.054 73.6081 177.992 86.3472 172.681C87.2084 172.323 87.9443 171.719 88.4614 170.943C88.9785 170.167 89.2536 169.255 89.2519 168.323V154.897C89.253 153.969 88.9809 153.063 88.4694 152.29C87.9579 151.516 87.2299 150.911 86.3763 150.549V150.549ZM71.4168 147.196C71.7631 147.052 72.1345 146.979 72.5094 146.98C72.8844 146.981 73.2553 147.057 73.6008 147.202C86.733 152.772 85.7802 152.343 86.1042 152.559L72.517 157.734L58.9243 152.461C59.2492 152.243 58.1936 152.708 71.4168 147.196ZM59.4048 170.923C58.8919 170.71 58.4538 170.349 58.146 169.887C57.8382 169.424 57.6746 168.881 57.6758 168.325C57.6758 153.794 57.542 154.342 58.0088 153.47L71.8763 158.85C71.8763 177.859 72.0683 176.201 71.4286 175.935L59.4048 170.923ZM87.3418 168.325C87.343 168.881 87.1793 169.424 86.8716 169.887C86.5638 170.349 86.1257 170.71 85.6128 170.923L73.5917 175.935C72.9547 176.201 73.1431 177.868 73.1431 158.853L87.0133 153.571C87.4756 154.432 87.3473 153.857 87.3473 168.325H87.3418Z" fill="#402E32"/>
    <path d="M130.767 150.667C130.699 149.513 129.044 146.266 127.562 143.264C127.168 142.239 126.41 141.394 125.433 140.893C124.911 140.537 124.315 140.306 123.691 140.217C123.066 140.128 122.43 140.184 121.83 140.379C120.478 140.663 120.757 140.717 120.396 140.28C121.215 140.206 121.621 140.013 122.167 138.956C124.156 135.115 122.246 133.84 121.52 130.766C121.336 129.428 120.988 128.119 120.482 126.867C119.488 124.228 119.343 122.309 116.061 124.169C115.182 124.668 115.119 125.022 115.434 125.827C115.939 127.11 117.386 131.14 117.125 132.5C117.103 132.773 117.005 133.035 116.842 133.255C116.679 133.475 116.457 133.646 116.202 133.746C115.947 133.847 115.669 133.875 115.4 133.825C115.13 133.776 114.879 133.652 114.676 133.468C113.108 132.431 113.121 130.901 112.88 129.659C112.569 128.063 111.314 125.452 109.741 125.272C109.353 125.267 108.973 125.381 108.653 125.598C108.332 125.816 108.086 126.128 107.949 126.49C107.555 128.161 111.225 137.513 112.358 138.813C113.076 139.58 114.026 140.089 115.062 140.264C115.537 143.001 116.042 141.894 115.028 142.63C114.657 143.025 114.393 143.508 114.261 144.033C114.129 144.559 114.133 145.109 114.274 145.633C114.707 148.048 118.857 152.913 119.803 153.558C121.652 154.826 124.022 154.21 123.213 152.121C122.934 151.547 122.583 151.01 122.17 150.523C120.185 147.748 122.024 145.635 123.546 146.064C124.815 146.418 125.093 148.082 125.484 148.997C126.057 150.269 126.895 151.404 127.941 152.327C128.217 152.555 128.557 152.693 128.913 152.722C129.27 152.751 129.628 152.669 129.936 152.488C130.245 152.306 130.49 152.034 130.639 151.708C130.788 151.383 130.832 151.019 130.767 150.667Z" fill="#FFC43B"/>
    <path d="M131.006 149.366C130.668 146.407 127.397 139.417 123.089 139.26C124.995 135.376 121.601 126.666 120.024 124.412C120.231 122.333 116.093 122.178 115.299 124.341C114.806 125.713 116.991 130.749 116.88 132.238C116.839 133.107 116.105 133.376 115.424 132.826C114.601 132.16 113.128 128.072 112.036 126.826C112.006 126.549 111.923 126.281 111.79 126.036C111.657 125.792 111.478 125.576 111.261 125.401C111.045 125.227 110.796 125.096 110.529 125.018C110.262 124.939 109.983 124.914 109.706 124.944C108.12 125.026 107.431 126.623 107.941 127.31C106.889 128.436 109.861 136.899 111.28 138.966C111.615 139.508 112.055 139.978 112.574 140.346C113.094 140.714 113.683 140.974 114.305 141.11C114.513 141.862 114.625 141.929 114.534 141.847C114.088 142.362 113.776 142.979 113.626 143.643C113.475 144.308 113.491 144.999 113.672 145.656C114.331 148.386 118.694 154.077 119.838 153.742C119.962 153.953 120.141 154.127 120.355 154.247C122.072 155.315 124.751 153.783 123.425 152.119C122.97 150.663 121.51 147.429 122.929 147.222C124.687 146.964 125.524 150.58 126.859 151.696C127.124 153.152 130.63 153.971 130.844 152.06C131.085 151.183 131.14 150.265 131.006 149.366V149.366ZM109.795 130.906C108.585 126.529 107.838 127.727 108.455 126.657C108.586 126.426 108.777 126.234 109.007 126.1C109.237 125.966 109.498 125.896 109.764 125.896C110.139 125.889 110.509 125.973 110.844 126.142C111.178 126.31 111.466 126.558 111.683 126.863C111.659 127.833 112.915 131.351 113.27 132.278C113.427 132.784 113.694 133.249 114.052 133.641C114.409 134.033 114.848 134.342 115.337 134.546C113.972 135.769 113.827 138.095 114.044 139.811C111.7 137.536 110.789 134.48 109.795 130.906ZM123.041 152.489C122.998 153.097 122.976 153.297 122.162 153.569C121.413 153.711 120.642 153.69 119.902 153.509C119.72 152.832 115.649 147.115 115.218 145.289C115.052 144.693 115.097 144.058 115.344 143.492C116.495 145.354 118.725 147.213 120.895 147.223C120.484 148.815 121.91 151.621 123.041 152.489ZM130.199 151.87C129.786 152.59 128.116 152.044 127.58 151.742C126.943 151.384 127.41 151.696 126.714 149.608C126.133 148.001 125.454 145.987 123.506 145.663C123.792 144.994 123.562 144.42 123.433 144.451C123.304 144.458 123.282 144.779 123.025 145.159C121.312 147.731 115.606 144.145 115.443 138.408C115.227 133.598 118.156 134.818 118.235 134.723C118.295 134.669 118.212 134.348 117.71 134.066C119.375 132.391 117.776 129.593 116.891 127.528C116.567 126.687 116.124 125.896 115.575 125.18C116.013 124.318 116.718 123.633 118.556 123.724C119.03 123.747 119.225 123.98 119.574 124.313C119.276 127.158 124.465 136.626 120.764 139.717C119.983 138.003 119.935 135.792 118.84 134.972C117.874 134.25 118.418 135.427 118.52 136.388C118.766 138.703 118.832 140.719 120.848 142.33C121.466 142.814 121.892 143.037 122.256 143.344C122.976 143.89 123.199 144.4 123.424 144.391C123.81 144.35 123.569 143.294 123.086 142.586C122.65 142.058 122.182 141.558 121.684 141.088C123.013 140.574 124.505 140.815 125.989 142.498C127.453 144.129 130.974 150.439 130.199 151.87V151.87Z" fill="#402E32"/>
    <path d="M87.5839 130.428C87.0695 129.793 86.3441 129.364 85.54 129.22C83.4707 129.117 83.235 133.17 81.9446 134.771C81.0255 135.911 79.7697 135.811 79.443 135.288C79.2351 134.605 79.2581 133.872 79.5085 133.203C80.0205 132.246 80.4028 131.225 80.6451 130.167C81.0305 129.176 81.0418 128.079 80.677 127.081C80.3212 126.338 78.5175 125.921 77.5538 126.91C77.1185 127.458 76.808 128.093 76.6438 128.773C75.8813 130.967 72.2349 136.677 75.904 139.329C75.6811 140.785 75.8276 140.548 75.3844 140.421C71.9337 139.445 67.3937 149.202 67.391 150.359C67.4117 150.706 67.5465 151.035 67.7743 151.297C68.0021 151.559 68.3102 151.738 68.6504 151.806C70.5104 152.203 71.4132 150.077 72.0429 149.094C73.023 147.565 74.1868 147.462 74.6464 147.771C74.9634 148.121 75.1817 148.549 75.2791 149.011C75.3765 149.473 75.3494 149.953 75.2006 150.401C74.934 151.277 74.024 152.383 74.6409 153.329C75.2879 154.321 75.6519 154.385 76.2717 154.394C77.9242 154.42 77.2353 154.551 78.9279 152.79C79.9697 151.418 80.9147 149.976 81.7562 148.473C82.3367 147.379 82.4928 146.109 82.1946 144.907C81.8963 143.705 81.1647 142.656 80.1401 141.96C80.3676 141.087 80.1947 141.304 80.6451 141.386C82.1775 141.415 83.6749 140.926 84.8948 139.998C85.7724 138.789 86.4403 137.442 86.8704 136.011C87.0288 135.435 87.1134 134.841 87.2708 134.265C87.5739 133.172 88.3683 131.62 87.5839 130.428Z" fill="#FFC43B"/>
    <path d="M88.2536 130.458C87.7395 128.967 85.7621 128.129 84.5563 129.238C83.4115 129.436 81.4714 135.633 80.3703 135.18C78.9216 134.673 81.89 129.356 81.4077 127.588C81.3063 127.266 81.1374 126.968 80.9123 126.715C80.6871 126.463 80.4108 126.261 80.1017 126.123C79.7926 125.986 79.4577 125.915 79.1193 125.917C78.781 125.918 78.4468 125.992 78.139 126.132C76.9951 126.709 70.2966 135.077 74.5782 139.862C71.9392 140.305 70.9382 141.82 69.7488 143.76C68.8661 145.231 66.7986 149.189 67.0333 150.83C67.2463 152.483 69.8898 152.976 70.6087 151.722C71.0637 151.694 71.9664 150.824 72.75 149.658C72.9011 149.355 73.1449 149.109 73.4458 148.955C73.7467 148.801 74.0889 148.747 74.4225 148.801C76.4036 149.402 73.68 152.301 74.3898 152.964C74.4353 153.301 74.5615 153.622 74.7579 153.9C74.9543 154.177 75.2148 154.404 75.5175 154.559C75.8201 154.714 76.1558 154.794 76.4959 154.792C76.8361 154.789 77.1706 154.705 77.471 154.545C79.2 153.55 84.6391 146.843 82.0156 142.698C85.8485 142.216 86.8468 138.661 87.6703 135.167C87.7941 134.62 88.634 130.871 88.2536 130.458ZM70.3203 151.436C68.9616 151.671 68.1836 151.488 67.4829 150.299C68.8479 148.92 71.5224 143.103 73.093 142.099C73.6581 141.734 74.2976 141.5 74.9649 141.413C74.8441 141.972 74.6287 142.506 74.3279 142.993C72.6526 145.663 73.4397 147.366 75.6838 143.821C76.8304 141.973 76.7221 139.964 77.1125 138.226C77.4765 136.565 77.9852 136.111 77.8123 135.798C77.5684 135.322 75.9095 135.832 75.4581 138.422C72.9101 134.805 78.119 128.507 77.7832 126.819C78.8897 126.849 79.7014 126.437 80.9682 128.093C79.9171 128.73 77.9015 133.418 78.4074 135.127C78.2418 135.218 77.8514 135.55 77.9461 135.724C78.0498 135.917 78.5121 135.822 78.806 135.893C80.8571 135.893 79.6578 147.46 75.439 147.313C73.963 147.234 74.0604 145.892 73.73 145.869C73.5153 145.833 73.1394 146.479 73.397 147.274C71.617 147.755 70.222 150.569 70.3203 151.436ZM77.6358 153.882C76.3954 153.921 75.9441 153.997 74.9058 152.915C75.6166 152.51 76.167 151.873 76.4651 151.111C76.7632 150.349 76.791 149.508 76.5437 148.729C78.8497 148.214 79.9699 145.731 80.6115 143.46C82.7299 146.498 78.1208 151.267 77.6358 153.881V153.882ZM87.0688 132.462C85.3007 137.025 85.2734 141.159 81.1711 141.165C81.4671 139.683 81.4305 138.154 81.0637 136.688C82.8528 136.087 84.2979 132.468 84.6801 130.62C84.9139 129.417 84.6309 129.7 85.1351 129.597C85.6154 129.57 86.095 129.66 86.5328 129.86C86.9706 130.059 87.3534 130.362 87.6485 130.741C87.8723 130.99 87.7959 130.585 87.0688 132.462Z" fill="#402E32"/>
</svg>
