<svg width="182" height="182" viewBox="0 0 182 182" fill="none" xmlns="http://www.w3.org/2000/svg">
    <path d="M16.855 171.204C16.529 171.154 16.2262 171.004 15.9877 170.777C15.7491 170.549 15.5862 170.253 15.5209 169.93C15.3867 169.205 15.8631 167.549 16.5009 165.784C17.8205 162.131 16.9986 157.47 17.997 153.716C18.4329 152.078 21.7144 145.112 23.9857 142.748C25.5091 141.162 28.2627 139.62 30.5377 140.159C30.6287 140.18 29.979 140.774 34.5317 135.394C39.5367 129.479 51.8054 119.415 62.1557 114.699C73.0175 109.751 91.3294 105.69 107.565 108.57C124.057 111.501 136.143 119.46 144.955 127.33C149.836 131.689 156.512 134.665 160.915 139.506C161.074 139.681 161.231 139.857 161.384 140.032C165.139 144.309 168.567 149.352 168.804 155.039C169.115 158.072 168.367 161.366 169.335 164.258C169.71 165.377 170.057 166.507 170.374 167.645C170.444 167.915 170.459 168.197 170.417 168.474C170.376 168.75 170.279 169.016 170.133 169.254C169.986 169.492 169.794 169.699 169.566 169.861C169.338 170.023 169.08 170.137 168.807 170.197C157.174 172.775 96.9459 184.534 16.855 171.204Z" fill="url(#paint0_angular_2831_1493)"/>
    <path d="M161.402 145.642C160.956 145.994 167.222 154.493 163.692 154.855C163.64 153.666 163.329 152.503 162.782 151.446C161.771 149.343 157.413 143.704 156.372 142.552C155.452 141.431 154.201 140.631 152.799 140.264C153.405 136.842 158.168 141.883 158.544 141.356C158.704 141.117 155.39 137.24 153.146 138.063C151.872 138.504 151.053 140.218 151.756 142.196C152.88 145.371 160.121 154.15 160.583 154.607C161.777 155.728 163.048 156.498 164.577 155.95C168.997 153.686 161.754 145.359 161.402 145.642ZM158.399 149.863C157.034 148.119 152.969 143.166 152.765 140.955C155.077 141.717 156.538 144.351 158.911 147.471C160.549 149.692 162.591 152.054 162.94 154.735C161.319 154.132 159.675 151.424 158.404 149.863H158.399Z" fill="#1E1E1E"/>
    <path d="M140.151 161.062C139.671 152.417 125.662 147.83 125.487 149.153C125.377 149.614 130.501 150.665 135.117 155.28C139.519 159.744 138.533 163.729 136.482 164.422C136.954 161.835 135.312 159.417 133.275 157.771C130.428 155.461 126.591 154.549 123.018 153.676C118.058 152.509 110.564 151.191 107.495 155.371C105.546 147.263 121.26 149.529 121.391 148.964C121.711 147.911 106.323 145.394 105.424 153.371C105.278 154.688 105.524 156.02 106.131 157.198C106.739 158.376 107.681 159.348 108.84 159.993C111.8 161.813 115.354 161.379 118.621 161.798C127.02 162.793 129.96 166.249 134.78 166.547C138.385 166.721 140.277 164.481 140.151 161.062ZM123.716 160.814C115.937 158.692 110.893 160.75 108.119 156.738C110.009 152.619 118.481 154.26 122.643 155.25C127.039 156.304 133.241 157.744 135.036 162.138C135.377 162.915 135.467 163.779 135.294 164.609C132.015 164.667 129.122 162.288 123.716 160.814Z" fill="#1E1E1E"/>
    <path d="M102.436 128.52C100.356 124.773 94.0193 125.297 94.1422 125.925C94.164 126.171 95.378 126.137 97.1334 126.672C99.1536 127.309 101.756 128.735 101.21 130.794C100.822 132.379 101.019 131.085 97.6102 129.687C92.8555 127.709 85.4089 128.447 83.1931 131.796C82.1575 129.823 83.7045 128.156 85.6847 127.174C87.3045 126.43 89.8707 125.579 87.6029 125.686C79.5503 126.158 79.7469 134.064 85.2078 135.107C87.2599 135.499 89.4193 134.882 92.7308 134.883C95.1532 134.841 98.6458 135.776 101.027 133.8C102.939 132.266 103.329 130.075 102.436 128.52ZM92.729 133.262C88.1981 133.262 85.631 134.381 83.7627 132.555C85.5782 129.937 93.8637 128.192 100.287 132.297C98.3937 134.104 95.6328 133.243 92.729 133.262Z" fill="#1E1E1E"/>
    <path d="M24.8476 150.343C22.963 153.833 21.6517 156.798 21.2558 156.672C20.8918 156.555 21.6198 153.275 23.5718 149.653C25.5237 146.031 27.8852 143.632 28.1845 143.877C28.504 144.144 26.7331 146.853 24.8476 150.343Z" fill="#1E1E1E"/>
    <path d="M70.616 152.334C66.1743 146.656 55.7011 152.104 56.1825 152.859C56.4264 153.293 62.9838 150.434 67.1526 151.997C69.5295 153.098 69.5886 154.307 68.5785 155.637C68.2937 156.013 67.2872 154.949 63.5735 154.992C57.0698 155.045 50.1055 158.759 46.7886 163.992C45.0805 163.217 44.8102 161.975 45.5874 160.261C47.1508 156.814 51.5761 154.444 51.3595 154.008C51.0374 153.25 42.5516 157.445 43.3515 162.703C44.0003 165.743 47.3273 166.679 50.707 166.193C54.2515 165.65 74.8102 158.923 70.616 152.334ZM47.9516 164.318C52.3905 158.931 60.6643 155.38 67.5457 156.695C64.155 159.648 52.194 164.928 47.9516 164.318Z" fill="#1E1E1E"/>
    <path d="M86.1006 138.546C80.9955 137.976 78.2937 134.669 78.6268 134.412C78.9307 134.139 80.9291 136.846 86.228 137.444C90.262 137.899 94.6 137.087 94.6601 137.535C94.7074 137.898 89.7706 138.957 86.1006 138.546Z" fill="#1E1E1E"/>
    <path d="M170.15 163.8C168.365 158.536 168.45 160.257 169.12 158.805C172.258 151.655 162.317 134.755 152.285 133.47C120.025 94.9458 61.1074 98.6167 30.5642 139.196C24.2733 137.592 16.9624 150.116 16.7431 155.808C16.7263 157.294 17.1683 158.749 18.0089 159.975C17.3755 161.431 16.7764 162.902 16.2116 164.388C15.1397 167.209 14.8676 169.688 15.3844 169.833C16.2817 170.089 18.2136 164.425 19.5886 161.223C23.5608 162.915 28.675 156.385 27.9124 155.876C27.542 155.628 22.6481 160.732 20.4113 159.501C15.8613 157.309 21.8973 146.245 24.9877 143.316C26.7167 141.637 30.0236 140.125 30.9937 141.61C32.5243 143.319 30.9327 150.127 31.3941 150.307C31.8928 150.515 33.2932 146.995 33.3715 144.044C55.7002 114.423 94.0203 104.686 126.298 119.594C132.713 122.542 134.238 123.78 134.326 123.634C134.372 123.563 131.369 121.708 131.295 121.665C99.776 103.212 57.9124 110.592 33.2295 142.129C33.079 141.239 32.6144 140.432 31.9201 139.854C61.9737 102.514 117.118 96.9296 150.285 133.459C149.596 133.528 148.929 133.735 148.322 134.068C147.715 134.4 147.182 134.85 146.752 135.393C143.238 139.998 150.44 149.229 150.964 148.853C151.49 148.499 145.628 139.765 148.261 136.556C149.241 135.306 151.028 135.191 152.582 135.487C154.586 135.953 156.454 136.881 158.036 138.195C162.703 141.909 167.074 148.371 167.748 155.247C168.072 158.556 166.1 160.214 163.617 160.041C160.94 159.841 158.753 157.475 156.829 155.652C153.662 152.6 150.059 149.659 155.822 156.588C157.947 159.073 160.175 161.612 163.439 161.938C164.719 162.083 166.011 161.795 167.109 161.119C167.529 162.211 167.927 163.312 168.304 164.421C170.807 171.752 171.844 168.762 170.15 163.8Z" fill="#1E1E1E"/>
    <path d="M117.769 61.9171C120.433 58.8632 120.42 59.3982 122.701 60.3601C131.02 63.8682 158.714 78.0551 158.805 78.1051C163.69 80.917 165.869 81.1918 163.75 86.1959C161.566 91.3574 155.687 102.805 152.223 107.086C150.61 108.906 149.189 110.888 147.984 113.001C146.121 116.533 141.159 119.012 142.673 119.659C148.906 122.319 150.323 124.983 151.985 130.568C152.072 130.858 152.044 130.98 151.743 131.154C150.661 131.78 148.103 133.059 147.045 132.385C146.17 131.825 145.92 129.848 144.194 127.448C143.189 126.146 141.853 125.138 140.326 124.528C138.799 123.917 137.136 123.728 135.511 123.978C132.508 124.648 133.919 124.641 104.571 140.782C96.42 145.265 94.3788 144.348 92.1266 148.902C90.3384 152.517 90.282 156.677 87.6794 157.632C86.6247 158.019 84.2451 157.833 83.3114 156.872C81.718 155.234 83.235 149.465 83.8956 147.272C84.6291 144.84 84.0722 145.523 86.4054 143.418C88.2145 141.785 85.9095 140.556 58.2018 121.063C57.4459 120.662 56.6368 121.289 56.3545 122.098C54.0678 128.644 57.716 133.049 51.3686 132.431C50.0691 132.306 49.7142 132.037 49.2756 131.066C46.0961 123.982 49.3029 115.113 57.2836 110.864C61.2876 108.733 52.1576 113.894 91.3294 93.5687C101.685 88.2016 104.696 76.9057 117.769 61.9171Z" fill="url(#paint1_angular_2831_1493)"/>
    <path d="M163.057 79.7496C156.639 75.5572 148.517 72.3294 141.54 68.3564C136.157 65.1969 130.201 62.8254 124.537 59.816C118.89 56.813 118.857 58.3974 103.362 80.018C95.1632 91.4959 93.3432 91.0518 78.7013 98.774C57.4337 109.837 53.3396 111.012 51.87 114.114C46.7003 119.986 46.2862 129.194 48.594 132.455C49.4803 133.654 50.7543 133.876 52.2431 133.729C58.2045 133.02 54.8084 130.175 57.2681 121.845C63.8765 126.452 55.7165 119.934 85.8057 142.593C82.6917 144.936 81.7708 149.366 81.4322 153.24C81.3021 155.497 81.4322 157.691 84.2896 158.649C86.6993 159.49 89.3738 158.476 90.2146 156.52C90.9363 154.841 91.5933 149.422 95.4117 145.969C97.5319 145.404 99.5783 144.592 101.509 143.549C103.012 142.793 124.281 131.114 134.787 124.828C135.92 124.624 137.082 124.65 138.204 124.905C139.326 125.161 140.385 125.64 141.318 126.315C146.124 129.837 144.048 136.005 150.812 133.14C152.506 132.424 153.301 131.684 152.814 129.782C151.528 124.972 148.474 120.773 143.672 119.101C151.649 112.214 164.315 88.2363 165.7 83.8555C166.404 81.5905 164.413 80.6896 163.057 79.7496ZM54.114 129.047C53.9648 131.277 54.1677 131.328 52.021 131.531C51.3167 131.597 50.7907 131.596 50.383 131.088C49.0854 129.254 49.018 122.342 52.0138 117.214C53.158 118.609 54.481 119.847 55.9486 120.896C54.8897 123.493 54.2698 126.247 54.114 129.047ZM89.8443 151.094C88.7768 153.636 88.4847 155.189 88.2645 155.625C87.6839 156.981 84.8429 157.172 83.8847 155.807C83.184 154.994 83.3514 146.561 87.1252 143.556C88.6501 144.676 90.3823 145.483 92.2212 145.928C93.972 146.278 92.0519 145.782 89.8443 151.094ZM148.099 124.739C149.303 126.558 150.184 128.572 150.701 130.691C150.063 131.037 149.392 131.321 148.699 131.539C146.101 132.127 147.713 128.161 142.452 124.624C137.374 121.372 135.463 125.061 142.231 120.241C144.599 121.109 146.646 122.678 148.099 124.739ZM163.923 83.3241C163.057 86.2807 150.654 111.638 142.174 118.334C138.534 121.265 104.596 139.802 100.613 141.772C96.5655 143.769 94.7437 144.354 92.6489 143.92C89.6459 143.298 90.4694 143.247 65.4253 124.65C61.4095 121.745 53.1877 117.122 53.821 115.24C54.5809 113.056 60.9327 110.527 62.9965 109.491C100.929 89.7441 95.7884 94.8802 111.045 72.8181C112.553 70.6459 119.55 60.4476 121.611 60.818C122.64 61 157.89 78.8569 160.262 80.2419C164.004 82.4969 164.138 82.6106 163.923 83.3241Z" fill="#1E1E1E"/>
    <path d="M154.304 72.7164C154.361 68.7803 153.612 64.8741 152.104 61.2383C150.595 57.6024 148.358 54.3136 145.531 51.5744C135.829 41.9402 120.551 48.1336 120.551 48.1336L119.105 49.8535C119.105 49.8535 118.211 48.1336 114.426 48.9599C110.642 49.7862 104.813 58.6296 104.12 61.3505C103.157 65.1352 105.893 68.7097 105.893 68.7097C105.893 68.7097 105.588 68.595 104.09 71.3423C102.591 74.0896 105.058 82.053 105.058 82.053C105.058 82.053 100.69 75.2771 100.623 70.2803C100.604 68.7916 100.493 63.8193 99.3366 62.8902C99.0754 62.4416 97.6285 61.4615 98.3065 58.2683C98.938 55.1743 101.825 55.0788 102.978 53.4653C103.385 52.7979 103.536 52.0055 103.402 51.2354C103.268 50.4653 102.859 49.7702 102.25 49.2793C97.9734 46.0288 94.3116 52.3733 94.1187 52.0958C92.9321 50.2868 91.483 48.6644 89.8189 47.2819C85.8695 44.3107 82.4425 45.1388 81.6007 46.6786C80.9692 47.8015 81.8519 48.9472 82.5307 50.0547C78.747 49.5669 74.6729 50.5224 76.1462 53.4217C76.6066 54.3317 77.9007 54.4618 80.9137 55.855C78.211 56.4811 75.3627 56.9006 75.693 58.9299C76.2181 61.7318 80.0919 60.4032 83.6036 62.5317C84.2613 62.8432 84.8006 63.3591 85.1409 64.0024C85.4812 64.6456 85.6043 65.3817 85.4919 66.1007C85.1124 68.6123 84.2552 69.8153 86.5056 72.6254C88.2982 74.8077 89.5403 77.3886 90.1274 80.1511C90.5023 82.7737 94.3434 89.2374 94.3434 89.2374L88.4412 93.5781L82.3442 91.9802C82.3442 91.9802 83.6746 84.8949 81.8036 81.345C79.9327 77.7951 78.4057 75.7703 73.4808 75.0451C68.5559 74.3198 66.3036 74.6629 66.3418 78.3666C66.3801 82.0703 67.0289 95.6993 67.1053 98.2956C67.1818 100.892 70.9992 101.77 72.5262 101.845C79.1592 102.177 70.6662 100.702 70.4751 106.822C70.3358 111.288 69.7926 120.069 69.7926 120.069C67.1761 120.143 64.6474 121.029 62.5571 122.604C59.0764 125.237 58.6305 129.744 60.3731 131.619C62.1158 133.493 76.7531 133.712 76.7531 133.712C76.7531 133.712 82.0184 134.158 83.4917 132.016C84.965 129.873 84.9186 123.18 84.9186 123.18C84.9186 123.18 90.7198 129.16 95.3162 130.142C99.9126 131.124 108.078 127.197 111.871 124.921C115.664 122.645 131.058 109.304 131.058 109.304C131.058 109.304 140.652 110.062 145.203 107.786C149.754 105.51 152.566 100.87 152.522 96.9879C152.495 94.6505 152.256 92.3204 151.807 90.0264C157.576 83.3816 156.548 74.3471 154.304 72.7164Z" fill="white"/>
    <path d="M114.463 54.782C112.588 56.2337 110.817 57.8149 109.164 59.514C107.585 61.4054 106.603 63.7224 106.341 66.172C106.08 68.6217 106.551 71.0938 107.694 73.2759C108.159 74.1268 108.368 75.2206 108.917 76.0205C112.261 80.8917 116.36 85.4936 122.203 86.3945C126.68 87.0834 132.042 85.6738 134.895 82.1548C135.78 81.0628 136.351 79.9981 137.275 78.9379C140.795 74.8957 141.563 68.6968 136.236 61.0683C134.564 58.9282 132.623 57.0127 130.46 55.369C126.001 51.5642 118.66 51.2739 117.436 51.7399C115.934 52.3004 115.686 53.7519 114.463 54.782Z" fill="url(#paint2_angular_2831_1493)"/>
    <path d="M89.0072 120.666C94.4472 128.429 101.838 125.282 102.002 125.841C102.377 126.485 93.4334 129.959 87.6331 121.623C82.1367 113.724 86.9788 105.866 87.5858 106.409C88.0553 106.681 83.7656 113.191 89.0072 120.666Z" fill="#1E1E1E"/>
    <path d="M155.238 73.4034C156.444 71.042 154.099 61.8847 152.4 58.8616C146.692 48.7142 137.774 44.7721 126.354 45.7731C122.012 46.5011 120.43 46.765 118.632 48.6178C113.831 46.3646 109.463 50.4287 106.28 54.6957C102.879 59.2457 101.142 64.2698 104.614 68.7934C102.422 70.9009 102.513 73.6228 103.143 76.6512C100.122 67.8315 102.286 66.4183 100.959 63.3489C100.322 61.8474 98.0698 58.5896 100.805 56.5521C101.848 55.764 103.703 55.1288 104.362 53.3052C105.875 48.9008 99.4267 43.9986 94.4926 50.9656C88.3001 39.8636 78.4766 43.4371 79.9554 48.5013C74.6847 47.8388 72.0311 53.5218 76.3709 55.6739C75.8029 55.8521 75.2943 56.1817 74.8995 56.6273C74.5048 57.0728 74.2389 57.6175 74.1305 58.2028C73.7992 63.398 80.7289 62.6709 82.7755 63.9012C85.5564 65.5183 82.3787 67.6031 83.619 70.4359C84.5855 72.7519 86.3927 72.4261 88.3975 77.7369C89.7552 81.3523 90.1911 84.0923 93.3233 88.8507C91.386 89.6498 89.6039 90.7826 88.058 92.1977C86.3142 91.6316 84.5388 91.168 82.7409 90.809C84.4053 84.9158 82.8756 76.431 76.1079 74.3835C73.6363 73.6773 67.8133 72.71 66.0688 74.6565C64.8858 75.9778 65.0769 76.2035 65.2252 85.5911C65.328 92.0566 65.6092 94.8667 65.8831 98.4221C66.3518 101.311 68.4575 102.442 71.3732 102.79C66.2253 107.878 68.837 119.862 67.9352 119.889C61.4214 120.129 57.5867 125.12 58.231 129.861C58.7442 134.842 66.9242 134.256 71.426 134.671C84.0295 135.701 86.1971 133.621 86.0342 125.697C86.0169 124.882 85.7175 125.355 88.3856 127.544C92.5343 130.911 97.411 132.499 102.471 130.689C109.569 128.15 120.692 121.333 131.581 110.386C143.028 111.42 153.216 107.992 153.528 96.8268C153.519 94.4733 153.278 92.1265 152.811 89.8198C156.325 85.0787 158.857 77.7896 155.238 73.4034ZM118.3 52.5672C120.757 51.4861 129.968 54.2206 136.075 63.0167C138.441 66.4429 139.904 69.6597 138.457 73.5409C136.486 79.0072 131.944 84.8249 126.184 85.6357C119.419 86.7277 109.41 79.8426 107.187 68.7233C107.642 67.2282 107.261 63.0868 112.929 57.473C115.57 54.8849 116.793 54.3581 118.3 52.5672ZM104.781 62.9721C105.303 58.9008 111.932 48.6442 117.484 49.9591C114.002 54.348 106.675 57.7797 105.34 66.8414C104.796 65.6292 104.602 64.2888 104.781 62.9721ZM76.6221 51.8601C77.1489 50.9565 78.8971 50.4232 79.9481 50.5715C82.345 50.9838 81.5916 51.1749 83.3642 52.1622C85.1943 53.1632 86.7458 54.0732 88.0316 54.9314C84.6155 57.7715 87.2354 57.8616 84.1478 56.6158C83.215 56.2609 84.0731 56.5002 78.4739 54.1278C77.8396 53.9502 77.2552 53.6278 76.7667 53.186C76.4983 52.6837 76.3627 52.3251 76.6221 51.8601ZM86.3436 70.729C84.5645 68.7643 86.1261 68.0053 86.167 65.7012C89.5532 66.3673 92.3605 65.086 92.2495 64.7539C92.1248 64.3553 89.3848 65.2235 85.9705 64.3307C85.0159 61.366 80.5587 60.6452 77.7022 60.1657C75.0123 58.9545 76.3427 57.0344 79.9772 57.0635C84.964 58.949 85.2388 58.5805 85.0905 58.9936C84.7766 59.8708 84.7493 60.4596 84.9085 60.5188C85.2616 60.6434 86.1962 58.6906 87.9516 56.7878C89.6806 54.8595 91.5342 53.7447 91.3759 53.4044C91.3031 53.2497 90.7189 53.3316 89.8753 53.7283C88.7205 54.2661 90.475 54.1833 84.4299 50.4159C79.6069 47.2491 83.0539 45.016 86.7158 46.2782C89.5868 47.2637 91.8491 49.9846 93.5826 52.4662C92.2877 55.0305 92.2176 57.0835 92.4906 57.0771C92.719 57.0944 92.9738 55.0005 94.8748 52.377C98.2882 47.7269 101.54 48.646 102.544 50.6962C104.081 53.7529 99.9754 53.9722 98.4084 56.3874C97.9684 57.0384 97.6804 57.78 97.5658 58.5573C97.4511 59.3347 97.5126 60.1279 97.7459 60.8782C97.5087 61.4223 97.1404 61.899 96.6739 62.266C95.1897 63.3871 92.3478 64.3153 92.4661 64.6802C92.5707 65.0105 96.8632 64.1933 98.3228 62.3606C99.1282 64.0632 99.5859 63.8075 99.4931 66.7222C96.9151 70.1884 90.1028 72.1185 86.3436 70.729ZM93.316 72.2295C95.6742 71.6829 97.8206 70.4577 99.4904 68.7051C99.5515 70.7099 99.8981 72.6958 100.52 74.6028C97.3152 76.1359 93.9417 77.2871 90.4686 78.0326C87.7586 69.2675 85.7293 74.2388 93.316 72.2295ZM90.677 78.7151C94.2325 78.2883 97.6629 77.1381 100.757 75.3354C101.012 76.0989 101.334 76.9734 101.659 77.7605C98.3953 79.33 94.9586 80.5108 91.4196 81.2786C91.1757 80.4669 90.94 79.6087 90.6743 78.7151H90.677ZM83.6363 128.891C83.0903 134.09 75.7648 132.46 66.7103 132.248C64.6437 132.177 60.7699 131.869 60.2202 129.873C70.5842 131.014 80.2539 130.697 80.2502 130.281C80.2466 129.865 71.9501 129.873 60.1137 128.516C60.15 127.686 60.3174 126.867 60.6097 126.09C62.4397 121.698 68.3219 120.183 72.5762 121.731C74.9904 122.61 75.9177 123.909 76.0833 123.742C76.2653 123.589 74.4144 120.874 70.4513 120.095C70.4741 116.049 69.9372 108.474 72.3578 105.214C73.609 103.53 75.8668 102.541 77.8114 103.353C83.367 105.677 84.0522 125.172 83.6336 128.891H83.6363ZM122.099 108.762C122.07 109.198 129 110.106 129.478 110.164C121.918 116.676 110.981 125.088 101.714 128.536C95.7994 130.74 90.2711 127.456 85.9432 122.866C84.6692 92.8674 74.004 103.235 69.0172 99.7024C68.7674 99.537 68.559 99.3164 68.408 99.0576C68.257 98.7989 68.1675 98.5089 68.1463 98.21C67.8733 94.6765 67.6003 92.002 67.4984 85.5456C67.3537 76.3864 67.2882 76.502 67.8242 76.1453C68.3976 75.8834 69.021 75.7489 69.6515 75.7512C70.1929 82.9839 69.9354 97.2045 70.5569 97.1899C70.9136 97.1817 71.5306 83.2023 70.9946 75.7713C72.5132 75.8783 74.0206 76.1087 75.5018 76.4601C82.032 78.3002 83.0221 88.1418 80.2575 94.2051C79.5049 95.7831 78.9253 96.6002 79.0609 96.7158C79.2747 96.8978 80.9136 95.1688 81.9137 93.044C88.2364 94.2524 95.0177 96.835 99.2783 101.764C103.028 106.051 109.015 119.873 110.116 119.23C110.399 119.068 109.539 116.913 108.125 113.429C107.823 112.684 107.692 113.099 110.699 114.885C114.677 117.217 114.778 116.644 111.376 113.914C106.007 109.437 106.735 109.965 105.445 107.331C102.228 100.793 98.9544 96.4546 90.4886 93.0731C91.884 92.3096 93.1644 91.3525 94.2915 90.2302C94.9567 91.1284 97.088 93.6673 97.3537 93.4271C97.6795 93.1432 94.4608 89.7398 91.9364 82.8966C91.334 81.1921 91.2885 82.6672 96.774 80.8036C104.434 78.2101 100.11 76.4701 104.633 83.4089C107.033 87.0644 111.814 92.7946 117.221 95.4209C119.832 96.6685 121.434 96.8951 121.461 96.7859C121.643 96.2399 114.701 94.7065 109.241 86.6148C107.213 83.6218 105.662 79.6078 106.134 80.3859C108.288 84.197 111.504 87.2989 115.391 89.313C121.06 92.225 128.747 92.8674 134.054 89.7552C135.962 88.5791 137.64 87.0664 139.007 85.2908C138.336 88.0754 138.257 91.1284 140.015 93.3606C136.431 95.3528 132.482 96.6026 128.404 97.0352C124.739 97.3656 122.454 96.7449 122.374 97.0607C122.229 97.381 127.95 100.008 136.777 96.8878C136.714 97.5691 136.514 98.2306 136.189 98.8325C135.493 100.151 123.493 100.015 123.473 100.669C123.449 101.457 132.203 101.556 134.415 101.215C135.213 102.852 136.394 104.273 137.858 105.355C139.322 106.438 141.026 107.151 142.825 107.434C134.785 110.177 122.173 107.572 122.097 108.762H122.099ZM144.339 106.834C142.471 106.628 140.674 106.003 139.081 105.006C137.489 104.008 136.142 102.663 135.142 101.072C135.867 100.942 136.548 100.636 137.125 100.18C140.126 102.966 144.103 104.456 148.195 104.327C147.054 105.368 145.751 106.215 144.336 106.834H144.339ZM148.889 103.613C144.786 103.558 140.815 102.158 137.586 99.6278C137.872 99.1292 138.067 98.5834 138.162 98.0162C138.659 95.3326 137.316 97.098 141.591 94.7074C144.693 96.411 148.469 94.6292 151.089 91.8773C151.586 96.1462 151.681 100.431 148.884 103.613H148.889ZM155.383 78.939C154.909 84.217 149.266 93.2997 144.016 93.0795C137.763 92.8183 141.023 78.5276 149.342 72.7865C150.536 72.0175 151.386 71.9875 151.379 71.8C151.443 71.5225 148.983 70.8809 144.805 74.9523C146.849 68.2392 144.147 63.8939 143.969 63.9768C143.275 64.2388 148.638 70.5979 138.983 83.1241C135.154 88.0663 131.584 90.4678 125.046 90.213C111.723 89.7661 104.18 76.8077 105.071 71.7818C105.285 71.187 105.654 70.6605 106.141 70.2576C109.173 84.0213 126.201 95.8495 137.219 80.1138C142.267 72.7155 141.999 68.2401 137.577 61.9593C132.332 54.5947 124.308 50.7909 119.637 50.9037C120.119 50.2692 120.709 49.7251 121.381 49.2966C123.157 48.9874 124.984 49.1816 126.655 49.8572C137.441 53.6919 143.635 63.8312 143.854 63.7274C144.779 63.4362 138.236 52.2669 127.187 48.3266C126.225 47.9917 126.244 48.0909 126.647 48.0226C139.373 46.9133 148.033 52.7801 151.697 62.9521C152.431 65.1488 153.469 70.2376 153.3 71.9484C153.3 72.0139 152.351 71.6899 152.304 71.9065C152.208 72.2132 155.922 73.2897 155.378 78.939H155.383Z" fill="#1E1E1E"/>
    <path d="M154.363 19.3685C153.074 17.0935 151.633 16.7623 149.333 15.9405C145.661 14.6274 142.723 13.6564 139.464 14.4245C129.316 16.816 124.145 31.8282 129.37 38.1628C131.352 40.567 139.256 43.0849 142.047 43.0849C151.47 43.0849 159.039 27.7988 154.363 19.3685Z" fill="url(#paint3_angular_2831_1493)"/>
    <path fill-rule="evenodd" clip-rule="evenodd" d="M137.3 22.5021L138.48 26.9601L137.05 26.0504L134.875 29.465L133.445 28.5553L137.3 22.5021ZM138.822 31.9758L137.642 27.5178L139.072 28.4275L141.247 25.0129L142.677 25.9226L138.822 31.9758Z" fill="#1E1E1E"/>
    <path d="M154.84 19.1018C153.41 16.4628 151.279 16.107 149.518 15.4218C146.879 14.479 143.558 13.3215 140.759 13.6327C128.237 15.4336 123.527 32.6763 129.129 38.6987C130.983 41.0474 140.266 44.1887 143.128 43.5217C152.925 42.2004 159.355 27.3755 154.84 19.1018ZM149.586 21.749C150.314 21.8819 151.328 21.9947 152.134 22.204C153.018 22.4306 154.068 22.8738 154.782 23.0958C155.078 24.986 155.034 26.9138 154.654 28.7888C150.756 28.4575 151.656 28.2246 149.179 27.4038C149.625 25.5541 149.762 23.6435 149.586 21.749ZM154.583 22.0675C151.267 21.7672 151.902 21.5625 149.407 20.6388C149.092 18.872 148.208 17.2567 146.889 16.0397C146.409 15.6538 145.433 15.2598 149.09 16.6011C151.209 17.4292 153.534 17.6904 154.583 22.0657V22.0675ZM127.951 33.5881C127.549 30.6591 127.896 27.6758 128.961 24.9177C130.026 22.1595 131.773 19.7167 134.039 17.8178C142.229 10.9928 152.709 15.7994 147.547 30.111C141.744 45.4272 129.17 41.6443 127.951 33.5863V33.5881ZM136.455 41.1912C138.31 41.1523 140.123 40.63 141.714 39.676C143.079 40.2293 143.585 39.7179 146.325 41.1211C142.914 42.9229 140.492 42.497 136.455 41.1893V41.1912ZM147.353 40.5105C145.107 39.9126 145.644 40.4786 142.647 38.9489C143.933 37.8179 145.053 36.5117 145.975 35.0687C147.821 35.5237 147.21 34.7729 151.45 36.3563C150.363 37.9904 148.972 39.4001 147.353 40.5087V40.5105ZM152.017 35.4773C151.289 35.3653 150.117 35.2953 149.212 35.0778C148.306 34.8603 147.233 34.3716 146.536 34.135C147.568 32.3392 148.369 30.4207 148.922 28.4248C151.219 28.9708 149.574 28.129 154.446 29.7133C153.92 31.7414 153.101 33.6823 152.017 35.4755V35.4773Z" fill="#1E1E1E"/>
    <path d="M134.322 38.8952C138.79 40.475 143.456 34.3553 145.262 30.4159C147.95 24.4654 147.645 16.3245 141.19 16.1289C135.141 15.9323 131.144 24.3944 131.463 24.5354C131.66 24.6264 133.018 20.7462 137.113 17.9452C138.022 17.306 139.083 16.9158 140.19 16.8133C141.296 16.7108 142.41 16.8996 143.421 17.361C151.592 21.5734 139.726 44.2551 132.576 37.0043C127.726 32.3159 132.495 22.2295 131.107 25.1852C128.878 29.9217 129.381 37.1963 134.322 38.8952Z" fill="#1E1E1E"/>
    <path d="M116.207 31.406C124.05 25.7931 119.683 4.55005 107.513 4.55005C104.39 4.78884 101.305 5.38265 98.3172 6.32C90.5122 9.30389 90.8152 30.4496 102.672 34.166C105.833 35.1615 113.726 33.1786 116.207 31.406Z" fill="url(#paint4_angular_2831_1493)"/>
    <path fill-rule="evenodd" clip-rule="evenodd" d="M106.37 15.6531L110.674 18.2081L108.874 18.5911L109.786 22.889L107.987 23.272L106.37 15.6531ZM114.752 21.8319L110.449 19.2769L112.248 18.8939L111.336 14.596L113.135 14.213L114.752 21.8319Z" fill="#1E1E1E"/>
    <path d="M109.401 4.17867C106.714 3.61902 103.131 4.49899 100.431 5.16784C98.1116 5.78937 96.4718 6.03416 94.8538 8.57852C89.5421 16.9323 93.355 32.1994 102.905 34.8065C105.737 35.6474 112.503 33.9129 115.616 32.4233C124.503 28.1717 121.319 6.28532 109.401 4.17867ZM100.737 6.39634C105.076 5.28341 103.922 5.601 103.258 6.05509C101.804 7.17091 100.722 8.70065 100.154 10.4431C97.6475 11.0801 98.178 11.3822 94.9302 11.3131C96.4881 7.32181 98.3518 7.03425 100.737 6.39634ZM94.5799 12.3204C97.6784 11.7089 95.1896 11.8764 99.8096 11.5442C99.3389 13.4706 99.1701 15.4583 99.3091 17.4365C96.9067 17.9452 97.6411 18.3355 93.7873 18.2291C93.7193 16.2289 93.9882 14.2315 94.5826 12.3204H94.5799ZM93.8419 19.1855C94.5635 19.0344 95.5199 18.7705 96.328 18.6668C97.3545 18.5357 98.6767 18.5876 99.3983 18.5021C99.6192 20.6125 100.099 22.6878 100.827 24.681C100.116 24.8393 98.9888 25.2161 98.0579 25.3407C97.157 25.4618 96.0168 25.4026 95.2851 25.4317C94.5093 23.4291 94.0242 21.3256 93.8446 19.1855H93.8419ZM95.6892 26.39C100.014 25.2843 99.3492 25.9277 101.229 25.6965C101.873 27.2887 102.761 28.771 103.861 30.09C100.671 31.3194 101.358 30.8044 99.0061 31.1656C97.5899 29.8136 96.4616 28.1891 95.6892 26.39ZM99.897 31.9109C100.48 31.6658 101.081 31.468 101.696 31.3194C102.713 31.1119 104.706 31.0601 104.665 30.9127C106.044 32.122 107.753 32.8914 109.573 33.1221C103.856 34.3488 102.057 33.5335 99.897 31.9064V31.9109ZM119.046 26.0505C118.372 28.2545 117.152 30.4376 115.067 31.3959C113.59 32.2475 111.896 32.6477 110.194 32.547C99.2655 31.5224 95.5554 7.04517 107.09 5.21516C114.842 4.85116 122.137 15.2315 119.046 26.046V26.0505Z" fill="#1E1E1E"/>
    <path d="M117.261 17.2573C116.12 13.1423 119.601 24.4026 114.161 29.0873C108.307 34.2961 102.422 22.7464 102.811 14.7885C103.282 6.03972 111.547 3.88029 116.129 14.3107C116.738 15.7285 116.948 16.5666 117.016 16.5484C116.921 15.7412 116.721 14.95 116.42 14.1951C113.247 5.60019 106.582 5.16248 103.845 9.13099C100.176 14.2698 102.246 23.8557 106.98 29.1774C112.167 34.9932 119.948 27.0125 117.261 17.2573Z" fill="#1E1E1E"/>
    <path d="M80.9236 37.4346C90.0673 29.5349 81.476 4.62549 66.4783 4.62549C62.0802 4.62549 53.7501 8.76508 53.2596 9.0581C49.7224 11.162 48.6186 16.2171 48.6095 20.2857C48.5685 34.0977 59.251 44.8994 67.431 43.3824C71.8409 42.5534 78.5021 39.524 80.9236 37.4346Z" fill="url(#paint5_angular_2831_1493)"/>
    <path fill-rule="evenodd" clip-rule="evenodd" d="M66.4347 19.6637L70.9413 22.3394L69.0571 22.7405L70.0124 27.2412L68.1282 27.6422L66.4347 19.6637ZM75.2128 26.1342L70.7062 23.4585L72.5904 23.0575L71.6351 18.5567L73.5193 18.1557L75.2128 26.1342Z" fill="#1E1E1E"/>
    <path d="M70.4758 4.73199C65.6192 2.95021 60.5668 5.15969 55.7466 7.27999C53.3751 8.37745 51.1465 8.95257 49.473 12.7864C44.1404 25.3544 54.62 47.3537 69.5049 43.4434C72.9984 42.4833 78.5384 40.1874 81.4996 37.6249C89.4967 30.7052 83.7518 8.46299 70.4758 4.73199ZM53.1085 10.5005C54.1004 9.6469 59.0954 7.56118 60.2274 7.11892C58.2211 8.89273 56.9149 11.3253 56.5446 13.9776C53.5762 15.3071 54.2578 15.5919 50.1674 16.2089C50.4817 14.0307 51.5172 12.0208 53.1085 10.5005ZM49.9462 17.5521C53.6263 16.1425 50.5905 16.8696 56.3617 15.4354C56.1929 17.9615 56.412 20.4986 57.0115 22.9584C54.0995 24.1241 55.1005 24.4526 50.2374 25.1588C49.7146 22.6575 49.6162 20.086 49.9462 17.5521ZM50.5132 26.3509C51.3886 26.0032 52.5343 25.4627 53.5289 25.1569C54.7911 24.7684 56.4673 24.5445 57.3509 24.2806C58.0894 26.8872 59.145 29.3933 60.494 31.7426C59.6341 32.0957 58.2982 32.8155 57.1543 33.175C56.046 33.5244 54.5982 33.6991 53.6845 33.8929C52.273 31.5431 51.205 29.0033 50.5132 26.3509ZM54.4034 35.0077C55.3569 34.5323 56.3364 34.1109 57.3373 33.7455C58.6568 33.3306 60.4313 33.1677 61.2211 32.9265C62.3788 34.7896 63.8193 36.4612 65.4909 37.8815C61.7371 40.1264 62.497 39.3247 59.6168 40.2921C57.5404 38.9003 55.767 37.1028 54.4034 35.0077ZM60.8999 41.041C61.5797 40.6055 62.2937 40.2257 63.0348 39.9053C64.3443 39.393 66.7658 38.9307 66.682 38.746C68.6789 39.9755 71.0011 40.5716 73.3432 40.4559C66.3854 43.2596 63.953 42.6044 60.8999 41.041ZM79.8725 37.088C77.8814 38.453 76.3845 39.4166 73.993 39.5977C68.897 39.9954 65.53 37.4237 62.6407 33.2532C52.2112 18.109 57.8277 -0.317596 73.0584 7.37099C85.58 14.6774 86.3499 32.6399 79.8725 37.0834V37.088Z" fill="#1E1E1E"/>
    <path d="M79.554 18.8226C78.603 16.8105 79.5931 19.4878 79.9981 21.0794C81.0655 25.4055 81.0446 30.9592 78.2309 34.3781C72.001 42.2086 62.082 28.9672 60.8353 18.8608C59.5313 7.80974 69.4111 3.17056 77.4883 15.3582C78.5639 17.0089 79.0116 18.0181 79.0917 17.9808C78.7978 16.9853 78.3734 16.033 77.8295 15.1489C71.9582 5.01239 63.4788 5.94242 60.9035 11.5171C56.2889 21.4297 66.2989 36.6577 72.6717 37.6423C79.6523 38.8571 83.9329 28.1018 79.554 18.8226Z" fill="#1E1E1E"/>
    <path d="M24.2152 26.0906C21.0966 27.1362 14.378 31.7926 13.286 33.1622C6.18805 42.0247 18.646 69.069 34.8312 68.7259C38.2046 68.6549 45.167 64.0385 48.4348 60.7043C58.2892 50.646 40.5861 20.5996 24.2152 26.0906Z" fill="url(#paint6_angular_2831_1493)"/>
    <path fill-rule="evenodd" clip-rule="evenodd" d="M29.8098 40.5047L35.4948 43.88L33.1179 44.3859L34.323 50.0634L31.9461 50.5694L29.8098 40.5047ZM40.8831 48.667L35.1982 45.2918L37.5751 44.7858L36.37 39.1083L38.7469 38.6024L40.8831 48.667Z" fill="#1E1E1E"/>
    <path d="M28.1464 50.05C30.4851 53.4443 36.5475 59.8052 40.6425 60.0909C43.0995 60.262 44.8394 58.7096 45.8213 56.4883C49.4904 48.1891 40.6343 35.6219 43.2405 39.2656C47.3119 44.9485 49.8462 55.5 44.4517 59.9071C42.6035 61.4159 39.7197 61.6862 36.6139 59.7324C23.4835 51.4751 17.007 31.7372 27.0025 28.7433C34.8594 26.39 42.9248 38.1927 42.5717 38.4329C42.3269 38.6004 39.3521 33.3451 33.1796 30.2375C29.6615 28.4657 26.1307 29.4185 24.5637 31.4032C21.0365 35.8695 24.5773 44.8721 28.1464 50.05Z" fill="#1E1E1E"/>
    <path d="M23.0576 25.9604C19.8945 27.5808 16.8799 29.476 14.0486 31.6242C5.07144 38.937 15.3362 65.61 31.9374 69.1162C33.5045 69.3976 35.1134 69.3461 36.6594 68.9652C39.2219 68.1671 43.5553 65.8102 48.2555 61.6579C49.0396 60.9408 49.7065 60.1053 50.232 59.1818C57.0816 47.2744 39.312 18.8879 23.0576 25.9604ZM16.835 31.7671C18.16 30.8271 19.4604 29.908 20.7708 29.0944C19.0273 31.504 18.2409 34.4753 18.564 37.4318C15.8513 39.3565 16.522 39.543 12.629 40.8271C12.3888 34.6955 14.6155 33.3514 16.835 31.7671ZM12.7245 42.2494C13.549 41.7407 14.6892 40.868 15.703 40.3175C16.6284 39.8151 17.8397 39.3729 18.706 38.9825C19.1471 41.8609 19.9985 44.6612 21.234 47.2981C18.7342 48.9197 19.4449 49.2555 14.9258 50.7051C13.7641 48.0156 13.0217 45.1639 12.7245 42.2494ZM15.47 51.8972C16.2754 51.3885 17.2973 50.6523 18.2173 50.1755C19.4003 49.564 21.0274 49.0507 21.8773 48.6285C23.2699 51.4265 24.9745 54.058 26.9588 56.4727C26.1452 56.9604 24.9422 57.895 23.873 58.4583C22.8474 58.9979 21.4706 59.4457 20.597 59.8306C18.5546 57.4171 16.8315 54.7507 15.47 51.8972ZM21.5288 60.8725C25.6793 57.7521 25.3108 58.7723 27.9343 57.6129C29.5762 59.5079 31.4829 61.1562 33.5954 62.5069C30.4022 65.4235 31.011 64.4943 28.2191 66.0404C25.6861 64.7482 23.4158 62.9957 21.5242 60.8725H21.5288ZM34.2688 67.4964C32.6832 67.4852 31.1121 67.1941 29.6278 66.6365C32.6308 63.8601 33.4571 64.3888 34.9895 63.2522C37.3129 64.3193 39.9183 64.6097 42.4197 64.0803C40.4395 65.3716 36.6066 67.5892 34.2597 67.4964H34.2688ZM48.8443 58.3828C48.3861 59.1444 47.8192 59.835 47.1617 60.433C45.2507 62.0828 44.6728 62.7581 42.3387 63.1994C36.9396 64.2477 33.0203 61.4631 29.2765 57.4919C21.5588 48.9825 14.4308 32.6179 24.4226 27.1989C38.3938 21.738 55.6565 46.9077 48.8443 58.3828Z" fill="#1E1E1E"/>
    <defs>
        <radialGradient id="paint0_angular_2831_1493" cx="0" cy="0" r="1" gradientUnits="userSpaceOnUse" gradientTransform="translate(90.645 142.53) rotate(99.1426) scale(32.381 69.6839)">
            <stop offset="0.362857" stop-color="#D6DFE6"/>
            <stop offset="0.370506" stop-color="#FAFBFC"/>
            <stop offset="0.865074" stop-color="#D7E0E7"/>
            <stop offset="0.871776" stop-color="#F7F8F9"/>
        </radialGradient>
        <radialGradient id="paint1_angular_2831_1493" cx="0" cy="0" r="1" gradientUnits="userSpaceOnUse" gradientTransform="translate(104.563 108.714) rotate(90) scale(49.1066 56.5011)">
            <stop offset="0.0729167" stop-color="#FBFBFD"/>
            <stop offset="0.244792" stop-color="#C8D4DA"/>
            <stop offset="0.434957" stop-color="white"/>
            <stop offset="0.532623" stop-color="#AEC0CE"/>
            <stop offset="0.658692" stop-color="#E3E9EE"/>
            <stop offset="0.708863" stop-color="#FAFBFC"/>
            <stop offset="0.861413" stop-color="#D6DFE6"/>
            <stop offset="0.921875" stop-color="#B8C9D3"/>
        </radialGradient>
        <radialGradient id="paint2_angular_2831_1493" cx="0" cy="0" r="1" gradientUnits="userSpaceOnUse" gradientTransform="translate(139 71) rotate(136.384) scale(22.5624 21.1417)">
            <stop offset="0.0729167" stop-color="#FBFBFD"/>
            <stop offset="0.244792" stop-color="#C8D4DA"/>
            <stop offset="0.434957" stop-color="white"/>
            <stop offset="0.532623" stop-color="#AEC0CE"/>
            <stop offset="0.658692" stop-color="#E3E9EE"/>
            <stop offset="0.708863" stop-color="#FAFBFC"/>
            <stop offset="0.861413" stop-color="#D6DFE6"/>
            <stop offset="0.921875" stop-color="#B8C9D3"/>
        </radialGradient>
        <radialGradient id="paint3_angular_2831_1493" cx="0" cy="0" r="1" gradientUnits="userSpaceOnUse" gradientTransform="translate(141.118 28.6188) rotate(90) scale(14.4662 13.8131)">
            <stop offset="0.362857" stop-color="#D6DFE6"/>
            <stop offset="0.370506" stop-color="#FAFBFC"/>
            <stop offset="0.865074" stop-color="#D7E0E7"/>
            <stop offset="0.871776" stop-color="#F7F8F9"/>
        </radialGradient>
        <radialGradient id="paint4_angular_2831_1493" cx="0" cy="0" r="1" gradientUnits="userSpaceOnUse" gradientTransform="translate(106.175 19.4915) rotate(90) scale(14.9414 13.1574)">
            <stop offset="0.362857" stop-color="#D6DFE6"/>
            <stop offset="0.370506" stop-color="#FAFBFC"/>
            <stop offset="0.865074" stop-color="#D7E0E7"/>
            <stop offset="0.871776" stop-color="#F7F8F9"/>
        </radialGradient>
        <radialGradient id="paint5_angular_2831_1493" cx="0" cy="0" r="1" gradientUnits="userSpaceOnUse" gradientTransform="translate(66.1047 24.0751) rotate(90) scale(19.4496 17.4953)">
            <stop offset="0.362857" stop-color="#D6DFE6"/>
            <stop offset="0.370506" stop-color="#FAFBFC"/>
            <stop offset="0.865074" stop-color="#D7E0E7"/>
            <stop offset="0.871776" stop-color="#F7F8F9"/>
        </radialGradient>
        <radialGradient id="paint6_angular_2831_1493" cx="0" cy="0" r="1" gradientUnits="userSpaceOnUse" gradientTransform="translate(30.6589 47.0776) rotate(90) scale(21.6516 19.412)">
            <stop offset="0.362857" stop-color="#D6DFE6"/>
            <stop offset="0.370506" stop-color="#FAFBFC"/>
            <stop offset="0.865074" stop-color="#D7E0E7"/>
            <stop offset="0.871776" stop-color="#F7F8F9"/>
        </radialGradient>
    </defs>
</svg>
