<svg width="49" height="48" viewBox="0 0 49 48" fill="none" xmlns="http://www.w3.org/2000/svg">
    <circle cx="24.5" cy="24" r="24" fill="black"/>
    <path d="M35.1033 18.5603C35.1195 18.7954 35.1195 19.0305 35.1195 19.2677C35.1195 26.4969 29.6161 34.8344 19.5529 34.8344V34.8301C16.5802 34.8344 13.6692 33.9829 11.1667 32.3773C11.5989 32.4293 12.0333 32.4553 12.4688 32.4564C14.9324 32.4586 17.3255 31.632 19.2636 30.1099C16.9225 30.0655 14.8695 28.539 14.1524 26.3106C14.9725 26.4688 15.8175 26.4363 16.6224 26.2163C14.07 25.7007 12.2338 23.4581 12.2338 20.8538C12.2338 20.8299 12.2338 20.8072 12.2338 20.7844C12.9943 21.208 13.8458 21.4431 14.7168 21.4691C12.3128 19.8625 11.5718 16.6644 13.0235 14.1641C15.8012 17.582 19.8995 19.6599 24.299 19.8798C23.8581 17.9796 24.4604 15.9884 25.8818 14.6527C28.0853 12.5813 31.551 12.6875 33.6223 14.8899C34.8476 14.6483 36.022 14.1987 37.0966 13.5617C36.6882 14.8282 35.8335 15.9039 34.6916 16.5875C35.776 16.4597 36.8356 16.1693 37.8333 15.7263C37.0988 16.8269 36.1736 17.7857 35.1033 18.5603Z" fill="white"/>
</svg>
