<svg viewBox="0 0 436 354" fill="none" xmlns="http://www.w3.org/2000/svg">
    <g clip-path="url(#clip0_888_183)">
        <path d="M210.677 67.6616V108.925" stroke="black" stroke-width="4"/>
        <path d="M105.605 93.2057L154.704 136.434" stroke="black" stroke-width="4"/>
        <path d="M74.1812 173.768H134.082" stroke="black" stroke-width="4"/>
        <path d="M112.478 244.506L137.028 225.839" stroke="black" stroke-width="4"/>
        <path d="M214.605 280.857V234.681" stroke="black" stroke-width="4"/>
        <path d="M290.217 247.453L253.884 216.997" stroke="black" stroke-width="4"/>
        <path d="M346.19 172.786H294.145" stroke="black" stroke-width="4"/>
        <path d="M331.46 86.3284L294.145 110.89" stroke="black" stroke-width="4"/>
        <path d="M331.46 51.9421L310.839 37.2051" stroke="black" stroke-width="4"/>
        <path d="M258.794 62.7492L238.172 48.0122" stroke="black" stroke-width="4"/>
        <path d="M145.866 52.9246L141.938 21.4856" stroke="black" stroke-width="4"/>
        <path d="M112.478 72.5739L134.082 69.6265" stroke="black" stroke-width="4"/>
        <path d="M167.469 283.804L185.145 296.577" stroke="black" stroke-width="4"/>
        <path d="M142.92 286.752L132.118 304.436" stroke="black" stroke-width="4"/>
        <path d="M301.019 300.506L295.127 318.191" stroke="black" stroke-width="4"/>
        <path d="M363.866 269.067H341.28" stroke="black" stroke-width="4"/>
        <path d="M294.761 113.404H172.846V208.717H294.761V113.404Z" fill="black" stroke="black" stroke-width="4"/>
        <path d="M291.811 109.474H169.897V204.786H291.811V109.474Z" fill="#FFF9EA" stroke="black" stroke-width="4"/>
        <path d="M291.811 109.474H169.897V129.126H291.811V109.474Z" fill="#FFC43C" stroke="black" stroke-width="4"/>
        <path d="M181.203 123.23C183.647 123.23 185.628 121.251 185.628 118.809C185.628 116.367 183.647 114.387 181.203 114.387C178.76 114.387 176.779 116.367 176.779 118.809C176.779 121.251 178.76 123.23 181.203 123.23Z" fill="black"/>
        <path d="M194.074 123.23C196.517 123.23 198.498 121.251 198.498 118.809C198.498 116.367 196.517 114.387 194.074 114.387C191.63 114.387 189.65 116.367 189.65 118.809C189.65 121.251 191.63 123.23 194.074 123.23Z" fill="black"/>
        <path d="M206.945 123.23C209.388 123.23 211.369 121.251 211.369 118.809C211.369 116.367 209.388 114.387 206.945 114.387C204.501 114.387 202.52 116.367 202.52 118.809C202.52 121.251 204.501 123.23 206.945 123.23Z" fill="black"/>
        <path d="M236.753 139.935H183.661V146.813H236.753V139.935Z" fill="#FFF9EA" stroke="black" stroke-width="4"/>
        <path d="M236.753 153.691H183.661V160.569H236.753V153.691Z" fill="#FFF9EA" stroke="black" stroke-width="4"/>
        <path d="M219.056 167.448H183.661V174.326H219.056V167.448Z" fill="#FFF9EA" stroke="black" stroke-width="4"/>
        <path d="M219.056 188.082H183.661V194.96H219.056V188.082Z" fill="#FFF9EA" stroke="black" stroke-width="4"/>
        <path opacity="0.4" d="M278.047 139.935H248.551V194.96H278.047V139.935Z" fill="#FFC43C"/>
        <path d="M258.939 141.029H137.025V236.341H258.939V141.029Z" fill="black" stroke="black" stroke-width="4"/>
        <path d="M255.989 137.098H134.075V232.411H255.989V137.098Z" fill="#FFF9EA" stroke="black" stroke-width="4"/>
        <path d="M255.989 137.098H134.075V156.75H255.989V137.098Z" fill="#FFC43C" stroke="black" stroke-width="4"/>
        <path d="M145.382 150.855C147.825 150.855 149.806 148.875 149.806 146.433C149.806 143.991 147.825 142.011 145.382 142.011C142.938 142.011 140.957 143.991 140.957 146.433C140.957 148.875 142.938 150.855 145.382 150.855Z" fill="black"/>
        <path d="M158.252 150.855C160.696 150.855 162.677 148.875 162.677 146.433C162.677 143.991 160.696 142.011 158.252 142.011C155.809 142.011 153.828 143.991 153.828 146.433C153.828 148.875 155.809 150.855 158.252 150.855Z" fill="black"/>
        <path d="M171.123 150.855C173.567 150.855 175.547 148.875 175.547 146.433C175.547 143.991 173.567 142.011 171.123 142.011C168.68 142.011 166.699 143.991 166.699 146.433C166.699 148.875 168.68 150.855 171.123 150.855Z" fill="black"/>
        <path opacity="0.4" d="M200.931 167.559H147.84V174.437H200.931V167.559Z" fill="#FFC43C"/>
        <path opacity="0.4" d="M200.931 181.315H147.84V188.194H200.931V181.315Z" fill="#FFC43C"/>
        <path opacity="0.4" d="M183.234 195.072H147.84V201.95H183.234V195.072Z" fill="#FFC43C"/>
        <path opacity="0.4" d="M183.234 215.706H147.84V222.585H183.234V215.706Z" fill="#FFC43C"/>
        <path opacity="0.4" d="M242.225 167.559H212.73V222.585H242.225V167.559Z" fill="#FFC43C"/>
        <path d="M209.145 67.8996C227.348 67.8996 242.104 53.1579 242.104 34.973C242.104 16.788 227.348 2.04626 209.145 2.04626C190.943 2.04626 176.187 16.788 176.187 34.973C176.187 53.1579 190.943 67.8996 209.145 67.8996Z" fill="#FFF9EA" stroke="black" stroke-width="4"/>
        <path fill-rule="evenodd" clip-rule="evenodd" d="M222.118 50.3744C222.118 39.1863 216.066 30.1166 208.6 30.1166C201.134 30.1166 195.082 39.1863 195.082 50.3744H222.118Z" fill="#FFF9EA" stroke="black" stroke-width="4"/>
        <path d="M208.6 33.4929C213.266 33.4929 217.049 29.7138 217.049 25.0521C217.049 20.3904 213.266 16.6114 208.6 16.6114C203.934 16.6114 200.151 20.3904 200.151 25.0521C200.151 29.7138 203.934 33.4929 208.6 33.4929Z" fill="#FFC43B" stroke="black" stroke-width="4"/>
        <path d="M354.262 98.3691C371.106 98.3691 384.761 84.7275 384.761 67.8996C384.761 51.0718 371.106 37.4302 354.262 37.4302C337.418 37.4302 323.763 51.0718 323.763 67.8996C323.763 84.7275 337.418 98.3691 354.262 98.3691Z" fill="#FFF9EA" stroke="black" stroke-width="4"/>
        <path d="M310.973 301.827C327.817 301.827 341.472 288.185 341.472 271.357C341.472 254.529 327.817 240.888 310.973 240.888C294.129 240.888 280.474 254.529 280.474 271.357C280.474 288.185 294.129 301.827 310.973 301.827Z" fill="#FFF9EA" stroke="black" stroke-width="4"/>
        <path fill-rule="evenodd" clip-rule="evenodd" d="M324.466 286.715C324.466 275.527 318.413 266.458 310.948 266.458C303.482 266.458 297.429 275.527 297.429 286.715H324.466Z" fill="#FFF9EA" stroke="black" stroke-width="4"/>
        <path d="M310.947 269.834C315.614 269.834 319.396 266.055 319.396 261.393C319.396 256.731 315.614 252.952 310.947 252.952C306.281 252.952 302.499 256.731 302.499 261.393C302.499 266.055 306.281 269.834 310.947 269.834Z" fill="#FFC43B" stroke="black" stroke-width="4"/>
        <path d="M210.129 345.074C227.789 345.074 242.104 330.772 242.104 313.13C242.104 295.488 227.789 281.186 210.129 281.186C192.47 281.186 178.155 295.488 178.155 313.13C178.155 330.772 192.47 345.074 210.129 345.074Z" fill="#FFF9EA" stroke="black" stroke-width="4"/>
        <path fill-rule="evenodd" clip-rule="evenodd" d="M224.165 328.663C224.165 317.475 218.113 308.406 210.647 308.406C203.181 308.406 197.129 317.475 197.129 328.663H224.165Z" fill="#3A5AFF" stroke="black" stroke-width="4"/>
        <path d="M210.647 311.782C215.313 311.782 219.096 308.003 219.096 303.341C219.096 298.679 215.313 294.9 210.647 294.9C205.981 294.9 202.198 298.679 202.198 303.341C202.198 308.003 205.981 311.782 210.647 311.782Z" fill="#FFF9EA" stroke="black" stroke-width="4"/>
        <path d="M87.6412 281.186C102.855 281.186 115.189 268.864 115.189 253.665C115.189 238.466 102.855 226.144 87.6412 226.144C72.4271 226.144 60.0936 238.466 60.0936 253.665C60.0936 268.864 72.4271 281.186 87.6412 281.186Z" fill="#FFC43B" stroke="black" stroke-width="4"/>
        <path d="M42.3845 211.401C64.6622 211.401 82.7219 193.359 82.7219 171.103C82.7219 148.847 64.6622 130.804 42.3845 130.804C20.1067 130.804 2.047 148.847 2.047 171.103C2.047 193.359 20.1067 211.401 42.3845 211.401Z" fill="#FFF9EA" stroke="black" stroke-width="4"/>
        <path fill-rule="evenodd" clip-rule="evenodd" d="M60.4096 193.611C60.4096 178.694 52.3398 166.601 42.3851 166.601C32.4305 166.601 24.3607 178.694 24.3607 193.611H60.4096Z" fill="#FFF9EA" stroke="black" stroke-width="4"/>
        <path d="M42.3851 171.103C48.6068 171.103 53.6504 166.064 53.6504 159.848C53.6504 153.633 48.6068 148.594 42.3851 148.594C36.1635 148.594 31.1199 153.633 31.1199 159.848C31.1199 166.064 36.1635 171.103 42.3851 171.103Z" fill="#FFC43B" stroke="black" stroke-width="4"/>
        <path d="M88.133 101.318C101.445 101.318 112.237 90.5365 112.237 77.2371C112.237 63.9377 101.445 53.1564 88.133 53.1564C74.8207 53.1564 64.0289 63.9377 64.0289 77.2371C64.0289 90.5365 74.8207 101.318 88.133 101.318Z" fill="#FFF9EA" stroke="black" stroke-width="4"/>
        <path d="M151.099 86.5745C161.694 86.5745 170.284 77.9935 170.284 67.4082C170.284 56.823 161.694 48.2419 151.099 48.2419C140.503 48.2419 131.914 56.823 131.914 67.4082C131.914 77.9935 140.503 86.5745 151.099 86.5745Z" fill="#FFC43B" stroke="black" stroke-width="4"/>
        <path d="M141.26 29.5671C148.596 29.5671 154.542 23.6264 154.542 16.2981C154.542 8.96989 148.596 3.02917 141.26 3.02917C133.925 3.02917 127.979 8.96989 127.979 16.2981C127.979 23.6264 133.925 29.5671 141.26 29.5671Z" fill="#3A5AFF" stroke="black" stroke-width="4"/>
        <path d="M272.111 91.4889C282.163 91.4889 290.312 83.3479 290.312 73.3055C290.312 63.2631 282.163 55.1221 272.111 55.1221C262.059 55.1221 253.91 63.2631 253.91 73.3055C253.91 83.3479 262.059 91.4889 272.111 91.4889Z" fill="black" stroke="black" stroke-width="4"/>
        <path d="M293.756 48.2419C305.438 48.2419 314.908 38.7807 314.908 27.1098C314.908 15.4389 305.438 5.97778 293.756 5.97778C282.074 5.97778 272.603 15.4389 272.603 27.1098C272.603 38.7807 282.074 48.2419 293.756 48.2419Z" fill="#FFC43B" stroke="black" stroke-width="4"/>
        <path d="M384.269 288.066C395.408 288.066 404.438 279.045 404.438 267.917C404.438 256.789 395.408 247.768 384.269 247.768C373.13 247.768 364.1 256.789 364.1 267.917C364.1 279.045 373.13 288.066 384.269 288.066Z" fill="#FFC43B" stroke="black" stroke-width="4"/>
        <path d="M153.067 291.998C162.575 291.998 170.284 284.297 170.284 274.797C170.284 265.298 162.575 257.597 153.067 257.597C143.558 257.597 135.849 265.298 135.849 274.797C135.849 284.297 143.558 291.998 153.067 291.998Z" fill="#FFF9EA" stroke="black" stroke-width="4"/>
        <path d="M123.551 328.364C130.887 328.364 136.833 322.424 136.833 315.096C136.833 307.767 130.887 301.827 123.551 301.827C116.216 301.827 110.27 307.767 110.27 315.096C110.27 322.424 116.216 328.364 123.551 328.364Z" fill="black" stroke="black" stroke-width="4"/>
        <path d="M291.296 351.954C300.533 351.954 308.022 344.473 308.022 335.245C308.022 326.017 300.533 318.536 291.296 318.536C282.059 318.536 274.571 326.017 274.571 335.245C274.571 344.473 282.059 351.954 291.296 351.954Z" fill="#FFC43B" stroke="black" stroke-width="4"/>
        <path d="M390.172 214.35C414.352 214.35 433.953 194.767 433.953 170.611C433.953 146.455 414.352 126.873 390.172 126.873C365.993 126.873 346.391 146.455 346.391 170.611C346.391 194.767 365.993 214.35 390.172 214.35Z" fill="#FFF9EA" stroke="black" stroke-width="4"/>
        <path fill-rule="evenodd" clip-rule="evenodd" d="M408.391 193.611C408.391 178.694 400.321 166.601 390.366 166.601C380.412 166.601 372.342 178.694 372.342 193.611H408.391Z" fill="#3A5AFF" stroke="black" stroke-width="4"/>
        <path d="M390.366 171.103C396.588 171.103 401.632 166.064 401.632 159.848C401.632 153.633 396.588 148.594 390.366 148.594C384.145 148.594 379.101 153.633 379.101 159.848C379.101 166.064 384.145 171.103 390.366 171.103Z" fill="#FFF9EA" stroke="black" stroke-width="4"/>
    </g>
    <defs>
        <clipPath id="clip0_888_183">
            <rect width="436" height="354" fill="white"/>
        </clipPath>
    </defs>
</svg>
