<svg viewBox="0 0 426 385" fill="none" xmlns="http://www.w3.org/2000/svg">
    <path fill-rule="evenodd" clip-rule="evenodd" d="M255.498 140.279C293.673 140.279 324.62 109.335 324.62 71.1635C324.62 32.992 293.673 2.04785 255.498 2.04785C250.573 2.04785 242.241 2.04785 230.5 2.04785C201.083 27.6014 186.375 50.64 186.375 71.1635C186.375 94.5899 201.083 117.628 230.5 140.279C245.144 140.279 253.476 140.279 255.498 140.279Z" fill="#FFF9EA" stroke="black" stroke-width="4"/>
    <path fill-rule="evenodd" clip-rule="evenodd" d="M286.731 132.088L286.732 132.837C284.666 133.885 282.541 134.833 280.362 135.673L254.986 135.672V132.088H286.731ZM304.607 119.802C303.377 121.044 302.099 122.24 300.778 123.386L274.442 123.384V119.801L304.607 119.802ZM314.299 107.514C313.543 108.734 312.75 109.929 311.922 111.097L285.707 111.097V107.513L314.299 107.514ZM320.315 95.2274C319.866 96.4382 319.383 97.6331 318.868 98.8108L294.923 98.8099V95.2261L320.315 95.2274ZM323.621 82.9401C323.414 84.1456 323.176 85.3404 322.907 86.5237L296.971 86.5226V82.9389L323.621 82.9401ZM324.616 70.6515L324.62 71.1636C324.62 72.1932 324.598 73.2176 324.553 74.2363L296.971 74.2354V70.6516L324.616 70.6515ZM323.437 58.3638C323.659 59.5482 323.851 60.7432 324.011 61.9481L296.971 61.9482V58.3644L323.437 58.3638ZM319.926 46.077C320.386 47.2562 320.814 48.4511 321.21 49.6607L292.875 49.6609V46.0772L319.926 46.077ZM313.653 33.79C314.407 34.9607 315.127 36.1556 315.81 37.3734L289.803 37.3737V33.7899L313.653 33.79ZM303.573 21.5024C304.763 22.6551 305.913 23.8503 307.018 25.0854L280.587 25.0865V21.5027L303.573 21.5024ZM286.185 9.21533C288.37 10.2999 290.49 11.4967 292.537 12.7983L264.202 12.7992V9.21546L286.185 9.21533Z" fill="black"/>
    <path d="M231.945 140.279C270.12 140.279 301.067 109.335 301.067 71.1635C301.067 32.992 270.12 2.04785 231.945 2.04785C193.769 2.04785 162.822 32.992 162.822 71.1635C162.822 109.335 193.769 140.279 231.945 140.279Z" fill="#FFC43C" stroke="black" stroke-width="4"/>
    <path d="M231.945 127.48C263.051 127.48 288.267 102.266 288.267 71.1635C288.267 40.0608 263.051 14.847 231.945 14.847C200.839 14.847 175.623 40.0608 175.623 71.1635C175.623 102.266 200.839 127.48 231.945 127.48Z" fill="#FBD57E" stroke="black" stroke-width="4"/>
    <path fill-rule="evenodd" clip-rule="evenodd" d="M211.452 43.0082L232.068 71.1135L219.503 68.6713L213.661 98.7219L201.096 96.2797L211.452 43.0082ZM248.341 105.462L227.725 77.3571L240.29 79.7993L246.132 49.7487L258.697 52.1909L248.341 105.462Z" fill="black"/>
    <path fill-rule="evenodd" clip-rule="evenodd" d="M42.1992 159.628L50.2231 176.78C62.0519 185.477 73.4315 200.281 81.2747 218.756C87.8421 234.227 90.8351 249.692 90.4839 262.856L100.819 284.952L74.1414 296.852L73.7755 297.019L73.3139 297.219L71.9676 297.819L71.9352 297.741C52.7565 304.247 26.0607 282.615 11.5199 248.362C-3.24725 213.577 0.0580635 178.816 18.8158 170.191L19.3889 169.938L42.1992 159.628Z" fill="#FFC43C" stroke="black" stroke-width="4"/>
    <path d="M83.4426 282.842L84.727 286.187L55.6723 297.341C55.4166 297.257 55.1607 297.17 54.9044 297.079L53.8059 294.217L83.4426 282.842ZM69.0667 275.271L70.3511 278.616L41.6385 289.639C41.131 289.251 40.6245 288.853 40.1192 288.443L39.43 286.646L69.0667 275.271ZM54.1466 267.836L55.4311 271.182L31.5843 280.335C30.7376 279.407 29.899 278.449 29.0699 277.462L54.1466 267.836ZM43.1867 259.667L44.4712 263.013L23.9914 270.875C23.2882 269.883 22.5947 268.869 21.912 267.834L43.1867 259.667ZM36.8709 247.906L38.1553 251.252L16.863 259.425C16.2909 258.376 15.73 257.311 15.1811 256.231L36.8709 247.906ZM30.419 237.459L31.7034 240.805L11.5894 248.526C11.5662 248.471 11.543 248.417 11.5199 248.362C11.0734 247.311 10.6434 246.259 10.2299 245.208L30.419 237.459ZM26.0152 225.988L27.2997 229.334L7.325 237.001C6.96251 235.849 6.61987 234.701 6.29697 233.557L26.0152 225.988ZM25.4355 213.049L26.72 216.395L4.235 225.025C3.99338 223.821 3.77441 222.625 3.57797 221.438L25.4355 213.049ZM23.8998 200.477L25.1842 203.823L2.51066 212.524C2.41876 211.254 2.35477 209.998 2.31854 208.76L23.8998 200.477ZM28.1002 185.703L29.3846 189.049L2.60937 199.326C2.74166 197.948 2.914 196.601 3.12608 195.289L28.1002 185.703ZM29.7764 171.433L31.0609 174.779L6.16474 184.334C6.88233 182.627 7.69792 181.03 8.61031 179.556L29.7764 171.433Z" fill="black"/>
    <path d="M98.5996 285.965C120.465 276.684 126.098 240.677 111.182 205.54C96.2655 170.403 66.4481 149.442 44.5829 158.722C22.7176 168.002 17.0844 204.01 32.0007 239.147C46.917 274.284 76.7343 295.245 98.5996 285.965Z" fill="#FFF9EA" stroke="black" stroke-width="4"/>
    <path d="M95.3748 277.709C113.191 270.147 117.154 239.331 104.227 208.879C91.2991 178.427 66.3765 159.87 48.5604 167.432C30.7442 174.994 26.7812 205.81 39.7086 236.262C52.6361 266.714 77.5587 285.271 95.3748 277.709Z" fill="#FFF9EA" stroke="black" stroke-width="4"/>
    <path d="M61.4004 184.834L65.6233 193.802C67.1477 193.332 68.7037 193.035 70.2926 192.904C73.2981 192.647 76.2638 192.978 79.1974 193.876L77.1254 203.975C74.8701 203.365 72.7873 203.083 70.8736 203.14C68.9604 203.189 67.3053 203.614 65.9058 204.424C64.006 205.532 62.7363 206.852 62.0982 208.384C61.4568 209.928 61.5379 211.561 62.3467 213.268C62.8841 214.395 63.7733 215.219 65.0148 215.738C66.2586 216.248 67.782 216.45 69.5836 216.344L77.641 215.681C81.8461 215.3 85.4689 215.634 88.5181 216.673C91.5784 217.664 93.8614 219.342 95.366 221.729C97.7746 225.48 98.1553 229.4 96.472 233.594C95.4841 236.069 93.8333 238.553 91.5139 241.053L96.2725 248.51L87.6975 255.415L83.3362 248.134C81.2273 249.669 79.0843 251.054 76.909 252.283C74.0159 253.925 71.2927 255.165 68.7443 255.991L65.1344 245.524C68.2109 244.691 71.1409 243.62 73.9213 242.324C76.6951 241.034 79.1213 239.615 81.1991 238.075C83.6061 236.303 85.2063 234.558 86.004 232.834C86.7973 231.125 86.7486 229.532 85.8638 228.037C84.7101 226.068 82.5067 225.373 79.2478 225.951L70.6623 227.281C66.4157 227.876 62.7292 227.496 59.6142 226.123C56.5151 224.69 54.231 222.3 52.7592 218.977C50.7066 214.25 50.4853 209.743 52.06 205.558C53.136 202.711 54.995 200.221 57.6324 198.089L53.5164 188.732L61.4004 184.834Z" fill="black"/>
    <path fill-rule="evenodd" clip-rule="evenodd" d="M351.686 233.147L388.623 256.132L394.119 269.51C391.802 271.234 390.644 273.02 390.644 274.866C390.644 276.712 390.891 278.632 391.387 280.625C375.139 287.648 361.905 297.924 351.686 311.452C341.467 324.981 331.031 344.625 320.38 370.383C317.279 370.987 315.086 371.681 313.8 372.467C312.514 373.252 311.165 374.648 309.753 376.653L258.91 349.512L252.452 335.496C263.14 309.428 277.133 287.433 294.432 269.51C311.73 251.588 325.37 239.467 335.351 233.147C338.815 235.811 341.901 237.143 344.608 237.143C347.315 237.143 349.675 235.811 351.686 233.147Z" fill="#FFF9EA" stroke="black" stroke-width="4"/>
    <path fill-rule="evenodd" clip-rule="evenodd" d="M301.931 350.786L310.829 375.229C310.474 375.663 310.116 376.138 309.753 376.653L306.997 375.182L298.563 352.012L301.931 350.786ZM313.195 349.763L320.551 369.969C320.494 370.107 320.437 370.245 320.38 370.383C319.167 370.619 318.093 370.869 317.158 371.133L309.827 350.988L313.195 349.763ZM289.642 348.739L297.403 370.061L292.669 367.534L286.274 349.964L289.642 348.739ZM275.306 339.523L283.772 362.784L279.038 360.257L271.938 340.749L275.306 339.523ZM319.339 333.38L327.137 354.8C326.435 356.337 325.733 357.902 325.031 359.493L315.971 334.605L319.339 333.38ZM263.017 334.403L270.833 355.876L266.1 353.349L259.649 335.629L263.017 334.403ZM326.508 320.068L333.978 340.591C333.243 342.031 332.507 343.501 331.77 345.001L323.14 321.294L326.508 320.068ZM334.7 308.805L341.355 327.087C340.578 328.408 339.8 329.763 339.021 331.152L331.332 310.031L334.7 308.805ZM343.916 296.518L350.123 313.567C349.288 314.721 348.451 315.916 347.613 317.152L340.548 297.744L343.916 296.518ZM351.084 281.159L358.988 302.871C358.058 303.842 357.147 304.834 356.256 305.847L347.716 282.385L351.084 281.159ZM360.301 269.896L369.006 293.809C368.008 294.59 367.027 295.389 366.064 296.207L356.933 271.121L360.301 269.896ZM370.541 261.704L379.603 286.598C378.548 287.22 377.509 287.858 376.485 288.513L367.173 262.93L370.541 261.704ZM383.854 258.632L390.852 277.862C390.975 278.766 391.154 279.688 391.386 280.625C390.418 281.044 389.461 281.474 388.514 281.915L380.486 259.858L383.854 258.632Z" fill="black"/>
    <path fill-rule="evenodd" clip-rule="evenodd" d="M345.542 219.836L387.974 256.199C385.658 257.923 384.499 259.708 384.499 261.555C384.499 263.401 384.747 265.32 385.242 267.314C366.983 277.572 352.744 289.465 342.525 302.994C332.305 316.522 322.876 334.548 314.235 357.072C311.135 357.676 308.942 358.37 307.656 359.156C306.37 359.941 305.021 361.336 303.609 363.342L252.765 336.201C253.406 332.563 253.145 329.56 251.982 327.193C250.819 324.826 248.928 323.157 246.307 322.185C256.996 296.117 270.989 274.122 288.288 256.199C305.586 238.277 319.226 226.156 329.206 219.836C332.671 222.5 335.757 223.832 338.464 223.832C341.171 223.832 343.53 222.5 345.542 219.836Z" fill="#FBD57E" stroke="black" stroke-width="4"/>
    <path d="M295.925 279.077C299.676 281.607 305.786 279.108 309.573 273.494C313.359 267.881 313.388 261.28 309.637 258.75C305.886 256.221 299.776 258.72 295.99 264.333C292.203 269.947 292.174 276.548 295.925 279.077Z" fill="#FFF9EA" stroke="black" stroke-width="4"/>
    <path d="M302.615 274.438C304.794 275.548 308.245 273.144 310.321 269.069C312.398 264.993 312.315 260.79 310.136 259.679C307.956 258.569 304.506 260.973 302.429 265.048C300.352 269.124 300.435 273.328 302.615 274.438Z" fill="#3A5AFF" stroke="black" stroke-width="4"/>
    <path d="M325.496 294.995C329.625 296.747 335.075 293.214 337.669 287.104C340.263 280.993 339.019 274.619 334.89 272.867C330.761 271.114 325.311 274.647 322.717 280.758C320.122 286.868 321.367 293.242 325.496 294.995Z" fill="#FFF9EA" stroke="black" stroke-width="4"/>
    <path d="M331.086 289.288C333.416 289.956 336.308 287.003 337.545 282.691C338.781 278.38 337.894 274.343 335.563 273.674C333.233 273.006 330.341 275.96 329.104 280.271C327.868 284.583 328.755 288.62 331.086 289.288Z" fill="#3A5AFF" stroke="black" stroke-width="4"/>
    <path d="M305.569 284.465C304.598 287.344 305.191 289.332 307.348 290.43C309.505 291.527 311.382 290.751 312.98 288.102" stroke="black" stroke-width="4"/>
    <path d="M97.784 54.5326L97.951 54.5547L125.772 59.154L130.262 59.8963L127.296 63.3479L108.918 84.7326C107.996 85.8049 106.38 85.9272 105.308 85.0058C104.282 84.1244 104.125 82.6074 104.92 81.5388L105.034 81.3959L117.042 67.4221L103.392 72.382L102.694 72.7084C76.7576 84.9078 61.5172 103.678 56.7628 129.191L56.6205 129.974C56.3741 131.366 55.0457 132.295 53.6534 132.049C52.2611 131.802 51.3322 130.474 51.5787 129.082C56.4634 101.487 72.8445 81.0942 100.505 68.0803L101.347 67.6882L101.545 67.6066L115.294 62.6106L97.1157 59.6058C95.7766 59.3844 94.8531 58.1612 94.9855 56.8296L95.0075 56.6627C95.229 55.3237 96.4523 54.4003 97.784 54.5326Z" fill="black"/>
    <path d="M401.019 184.602L400.912 184.732L382.269 205.885L379.26 209.3L377.904 204.955L369.506 178.039C369.085 176.69 369.838 175.254 371.187 174.833C372.478 174.431 373.848 175.102 374.333 176.342L374.394 176.515L379.882 194.102L382.909 179.899L383.002 179.134C386.4 150.676 378.556 127.806 359.437 110.255L358.848 109.719C357.798 108.772 357.715 107.154 358.661 106.104C359.608 105.054 361.227 104.97 362.277 105.917C383.093 124.682 391.708 149.379 388.087 179.73L387.974 180.652L387.938 180.863L384.889 195.169L397.071 181.347C397.968 180.329 399.495 180.194 400.554 181.012L400.684 181.119C401.703 182.016 401.837 183.543 401.019 184.602Z" fill="black"/>
    <path d="M129.493 343.733L129.432 343.576L119.967 317.016L118.439 312.729L122.896 313.65L150.512 319.355C151.896 319.641 152.787 320.995 152.501 322.379C152.227 323.704 150.976 324.576 149.656 324.399L149.476 324.368L131.431 320.642L142.387 330.174L143.011 330.627C166.256 347.395 190.064 351.623 214.685 343.412L215.439 343.157C216.776 342.697 218.232 343.409 218.692 344.746C219.151 346.083 218.44 347.539 217.103 347.999C190.597 357.105 164.818 352.666 140.024 334.785L139.273 334.239L139.106 334.105L128.07 324.503L134.255 341.857C134.71 343.136 134.088 344.537 132.859 345.066L132.702 345.128C131.424 345.584 130.023 344.961 129.493 343.733Z" fill="black"/>
</svg>
