<svg xmlns="http://www.w3.org/2000/svg" width="114" height="141" viewBox="0 0 114 141" fill="none">
    <path d="M76.2386 40.9813C76.7954 42.4075 75.5078 44.1552 74.3303 45.6199C60.2749 63.0923 39.1905 68.0628 29.6826 70.3091C28.7872 70.5213 26.9393 70.9293 25.5716 69.9555C22.654 67.8756 23.526 60.6155 25.6429 55.9815C30.3522 45.6919 43.7827 42.7709 53.6368 40.6303C60.6851 39.0957 74.7139 37.0708 76.2386 40.9813Z" fill="#C29A6C"/>
    <path d="M72.494 47.4464C70.8042 47.6346 69.0924 47.8468 67.3586 48.0831C60.2571 49.0497 54.2645 50.2278 52.7333 50.6002C43.6758 52.7504 35.4048 63.1917 31.2293 69.179" stroke="#A8825D" stroke-miterlimit="10"/>
    <path d="M67.5906 51.8205C66.1128 51.6178 64.5857 51.451 63.0093 51.3201C59.0393 50.9812 53.4465 50.4885 50.51 51.0817C43.0847 52.5772 39.2029 63.6768 38.1066 67.1587" stroke="#A8825D" stroke-miterlimit="10"/>
    <path d="M61.764 56.2331C60.974 55.5857 60.135 55.0008 59.2548 54.4837C57.8553 53.6618 53.8279 51.2515 51.0701 51.8527C47.7717 52.5732 45.1369 57.8604 45.2871 64.6277" stroke="#A8825D" stroke-miterlimit="10"/>
    <path d="M77.7547 41.907C75.2 44.8464 72.4505 47.6096 69.5248 50.1781C53.9656 63.8252 36.593 69.1167 24.7841 71.3656" stroke="black" stroke-width="4" stroke-miterlimit="10"/>
    <path d="M39.0346 46.0348C41.2168 48.5523 43.108 51.3088 44.6722 54.2515C46.939 58.5615 48.4679 63.221 49.1952 68.0352C52.7038 89.9132 46.1789 107.228 57.1866 120.599C58.7201 122.454 63.8623 128.702 69.589 127.642C76.1331 126.428 80.698 116.181 81.8726 108.7C83.477 98.4883 79.0742 91.4314 66.605 72.4097C57.8199 59.0067 50.7694 48.4215 46.5992 42.1823L39.0346 46.0348Z" fill="#FFF9EA"/>
    <path opacity="0.6" d="M44.672 54.2515C43.1079 51.3088 41.2167 48.5523 39.0345 46.0348L41.5536 44.7475C42.5191 45.7737 43.4288 46.8512 44.2788 47.9753C45.7277 49.8884 50.209 56.217 52.5823 70.2021C54.1487 79.4182 54.081 87.7623 54.0241 92.642C53.913 101.759 53.0771 103.661 54.564 107.739C54.8536 108.529 59.3969 120.349 69.1123 120.625C72.9997 120.736 76.888 118.976 79.9196 115.894C77.7601 121.536 74.156 126.791 69.5851 127.64C63.8576 128.692 58.72 122.454 57.1865 120.599C46.1788 107.228 52.7037 89.9132 49.1951 68.0352C48.4678 63.221 46.9388 58.5615 44.672 54.2515Z" fill="#EFD0A9"/>
    <path d="M39.0346 46.0348C41.2168 48.5523 43.108 51.3088 44.6722 54.2515C46.939 58.5615 48.4679 63.221 49.1952 68.0352C52.7038 89.9132 46.1789 107.228 57.1866 120.599C58.7201 122.454 63.8623 128.702 69.589 127.642C76.1331 126.428 80.698 116.181 81.8726 108.7C83.477 98.4883 79.0742 91.4314 66.605 72.4097C57.8199 59.0067 50.7694 48.4215 46.5992 42.1823L39.0346 46.0348Z" stroke="black" stroke-width="4" stroke-miterlimit="10"/>
    <path d="M23.4079 71.2534C26.8133 72.6175 28.9134 65.6496 39.8242 57.5018C59.7115 42.6663 77.6848 47.1568 78.6517 39.9281C79.5984 32.9218 63.3666 23.3176 51.1395 19.5964C44.0549 17.4478 37.2355 15.3769 31.0091 18.3933C13.548 26.8591 15.6248 68.1576 23.4079 71.2534Z" fill="#3A5AFF"/>
    <path opacity="0.4" d="M27.736 20.5422C26.8018 24.4845 26.383 28.5329 26.4901 32.5858C26.8265 45.0678 42.8386 46.6651 47.0258 52.3754C37.9448 57.4142 26.419 72.4508 23.4079 71.2534C16.1496 68.3656 13.8571 32.2696 27.736 20.5422Z" fill="#1636DE"/>
    <path d="M23.4079 71.2534C26.8133 72.6175 28.9134 65.6496 39.8242 57.5018C59.7115 42.6663 77.6848 47.1568 78.6517 39.9281C79.5984 32.9218 63.3666 23.3176 51.1395 19.5964C44.0549 17.4478 37.2355 15.3769 31.0091 18.3933C13.548 26.8591 15.6248 68.1576 23.4079 71.2534Z" stroke="black" stroke-width="4" stroke-miterlimit="10"/>
</svg>