<svg xmlns="http://www.w3.org/2000/svg" width="51" height="33" viewBox="0 0 51 33" fill="none">
    <path d="M39.4792 32.1836C37.8464 32.1836 36.3569 31.9401 35.0105 31.4531C33.6641 30.9375 32.5183 30.2357 31.573 29.3477C30.6277 28.431 29.8829 27.3281 29.3386 26.0391C28.823 24.75 28.5652 23.3177 28.5652 21.7422C28.5652 20.1094 28.8516 18.4049 29.4246 16.6289C30.0261 14.8529 30.8855 13.0625 32.0027 11.2578C33.1199 9.45312 34.4662 7.67708 36.0417 5.92969C37.6459 4.15365 39.4649 2.44922 41.4988 0.816406L46.4402 4.68359C45.4949 5.65755 44.6355 6.58854 43.8621 7.47656C43.1173 8.36458 42.4298 9.2526 41.7996 10.1406C41.1694 11.0286 40.5821 11.9453 40.0378 12.8906C39.5222 13.8359 39.0496 14.8385 38.6199 15.8984L50.3074 21.7422C50.3074 23.2891 50.0066 24.707 49.405 25.9961C48.8321 27.2852 48.0587 28.388 47.0847 29.3047C46.1108 30.2214 44.9649 30.9375 43.6472 31.4531C42.3295 31.9401 40.9402 32.1836 39.4792 32.1836ZM11.4207 32.1836C9.78784 32.1836 8.29826 31.9401 6.9519 31.4531C5.60555 30.9375 4.45972 30.2357 3.5144 29.3477C2.56909 28.431 1.8243 27.3281 1.28003 26.0391C0.764404 24.75 0.506592 23.3177 0.506592 21.7422C0.506592 20.1094 0.79305 18.4049 1.36597 16.6289C1.96753 14.8529 2.8269 13.0625 3.94409 11.2578C5.06128 9.45312 6.40763 7.67708 7.98315 5.92969C9.58732 4.15365 11.4063 2.44922 13.4402 0.816406L18.3816 4.68359C17.4363 5.65755 16.5769 6.58854 15.8035 7.47656C15.0587 8.36458 14.3712 9.2526 13.741 10.1406C13.1108 11.0286 12.5235 11.9453 11.9792 12.8906C11.4636 13.8359 10.991 14.8385 10.5613 15.8984L22.2488 21.7422C22.2488 23.2891 21.948 24.707 21.3464 25.9961C20.7735 27.2852 20.0001 28.388 19.0261 29.3047C18.0522 30.2214 16.9063 30.9375 15.5886 31.4531C14.2709 31.9401 12.8816 32.1836 11.4207 32.1836Z" fill="white"/>
</svg>