<svg width="104" height="223" viewBox="0 0 104 223" fill="none" xmlns="http://www.w3.org/2000/svg">
<path d="M90.823 126.219C89.4033 129.234 88.412 132.449 87.8798 135.761C86.7975 142.481 88.1599 145.97 88.4447 154.538C88.6584 160.774 88.8482 166.511 87.087 172.545C84.1106 182.749 77.3745 187.532 76.5627 188.09C65.578 195.626 54.446 186.781 53.6865 186.153V165.622C54.6359 166.64 58.9083 170.909 64.4387 169.772C68.7965 168.878 71.4359 165.132 73.0404 162.855C80.5978 152.166 78.8224 137.065 78.6989 135.924C78.266 132.48 77.3877 129.112 76.088 125.913L90.823 126.219Z" fill="#FFF9EA"/>
<path d="M90.823 126.219C89.4033 129.234 88.412 132.449 87.8798 135.761C86.7975 142.481 88.1599 145.97 88.4447 154.538C88.6584 160.774 88.8482 166.511 87.087 172.545C84.1106 182.749 77.3745 187.532 76.5627 188.09C65.578 195.626 54.446 186.781 53.6865 186.153V165.622C54.6359 166.64 58.9083 170.909 64.4387 169.772C68.7965 168.878 71.4359 165.132 73.0404 162.855C80.5978 152.166 78.8224 137.065 78.6989 135.924C78.266 132.48 77.3877 129.112 76.088 125.913L90.823 126.219Z" stroke="black" stroke-width="4" stroke-miterlimit="10"/>
<path d="M87.1062 96.6944C93.3724 101.779 104.514 123.971 101.49 130.489C99.0214 133.206 94.1604 130.365 82.924 130.301C72.4804 130.242 68.0514 132.648 65.9247 130.118C62.9672 124.267 79.5061 90.5275 87.1062 96.6944Z" fill="#FF3B53"/>
<path d="M87.1062 96.6944C93.3724 101.779 104.514 123.971 101.49 130.489C99.0214 133.206 94.1604 130.365 82.924 130.301C72.4804 130.242 68.0514 132.648 65.9247 130.118C62.9672 124.267 79.5061 90.5275 87.1062 96.6944Z" stroke="black" stroke-width="4" stroke-miterlimit="10"/>
<path d="M48.5311 43.9497C49.1103 52.3501 49.9268 65.8352 50.373 82.4679C51.2322 114.256 49.8461 124.094 50.0739 139.872C50.1689 146.751 50.5202 151.801 50.7528 155.606C52.1199 177.916 55.3005 200.731 57.375 214.245C55.9176 217.625 56.2119 218.905 56.7199 219.453C57.5079 220.318 58.7706 219.167 62.3689 219.315C64.7863 219.377 67.1934 219.667 69.5608 220.18C70.8852 220.486 71.583 220.862 72.841 220.817C74.192 220.712 75.5021 220.288 76.6719 219.577C81.2861 216.691 77.1039 194.045 77.1039 194.045C74.8823 182.012 75.0532 169.619 73.2682 157.513C73.2682 157.513 67.8803 120.996 66.5226 81.4549C66.1856 71.7599 66.0099 59.0012 66.5226 43.9497H48.5311Z" fill="#FFF9EA"/>
<path d="M48.5311 43.9497C49.1008 52.4835 49.8888 65.9291 50.373 82.4679C52.5899 156.619 46.3427 212.308 54.0662 219.33C54.7356 219.933 54.9635 219.686 56.7199 219.468C58.5983 219.3 60.485 219.254 62.3689 219.33C69.537 219.473 74.099 220.649 75.9551 220.002C85.5775 216.657 69.0908 148.302 66.5226 81.4698C65.9055 65.514 66.1951 52.4193 66.5226 43.9645L48.5311 43.9497Z" stroke="black" stroke-width="4" stroke-miterlimit="10"/>
<path d="M51.1038 3.76123C38.994 15.7095 17.4612 67.8315 23.3144 83.1399C28.0852 89.5291 37.4702 82.8484 59.1787 82.7051C79.3301 82.5667 87.9128 88.2098 92.0238 82.2653C97.7441 68.5282 65.7866 -10.727 51.1038 3.76123Z" fill="#FFC43B"/>
<path d="M51.1038 3.76123C38.994 15.7095 17.4612 67.8314 23.3144 83.1399C28.0852 89.5291 37.4702 82.8484 59.1787 82.7051C79.3301 82.5667 87.9128 88.2098 92.0238 82.2653C97.7441 68.5282 65.7866 -10.727 51.1038 3.76123Z" stroke="black" stroke-width="4" stroke-miterlimit="10"/>
<path d="M28.1995 100.494C28.7692 106.301 29.5572 115.452 30.0461 126.684C32.2346 177.136 26.0111 215.026 33.7394 219.795C34.8265 220.467 34.7553 219.587 42.042 219.795C51.4793 220.057 51.8685 221.534 53.1123 220.481C59.4876 215.09 47.8905 177.328 46.191 125.997C45.8302 115.022 46.0059 106.058 46.191 100.475L28.1995 100.494Z" fill="#FFF9EA"/>
<path d="M28.1995 100.499C28.7692 106.3 29.5572 115.452 30.0461 126.688C32.2346 177.14 26.0111 215.031 33.7394 219.799C33.8903 219.886 34.0494 219.958 34.2141 220.012C36.4215 220.965 38.3441 221 40.2951 221C44.8476 221 47.1214 221 49.8937 220.476C50.3162 220.397 53.0031 219.883 53.9145 219.463C61.6191 215.935 48.2892 171.062 46.1958 125.982C45.6641 114.498 45.9679 105.317 46.1958 100.464L28.1995 100.499Z" stroke="black" stroke-width="4" stroke-miterlimit="10"/>
<path d="M30.777 73.1485C18.6672 81.2821 -2.86087 116.747 2.98755 127.163C7.75838 131.511 17.1434 126.965 38.8518 126.867C59.0033 126.773 67.586 130.607 71.6922 126.57C77.4125 117.216 45.4693 63.2954 30.777 73.1485Z" fill="#FFC43B"/>
<path d="M30.777 73.1485C18.6672 81.2821 -2.86087 116.747 2.98755 127.163C7.75838 131.511 17.1434 126.965 38.8518 126.867C59.0033 126.773 67.586 130.607 71.6922 126.57C77.4125 117.216 45.4693 63.2954 30.777 73.1485Z" stroke="black" stroke-width="4" stroke-miterlimit="10"/>
</svg>
