<svg viewBox="0 0 352 329" fill="none" xmlns="http://www.w3.org/2000/svg">
    <path d="M108.743 94.2362C108.117 87.1861 109.986 56.2038 109.036 54.5009C108.518 53.5764 106 52.6229 99.8342 49.8092C97.6949 48.8336 95.3168 48.4416 93.1899 47.4095C89.5296 45.6349 87.0025 44.2356 83.3988 42.3465C81.679 41.4481 78.43 41.3295 76.8304 40.2352C71.8145 37.0715 66.4399 34.5159 60.82 32.6221C58.7731 32.0039 58.0168 32.9436 57.6248 34.968C57.4012 36.1188 57.6704 35.6386 57.6427 36.7908C57.4426 45.0705 57.0713 39.1712 57.4288 52.3331C57.6303 59.7406 57.9284 61.0915 57.2066 63.0303C58.9595 83.0049 53.8279 88.4212 61.7047 93.6553C67.1827 97.2928 82.4299 100.206 93.6702 106.122C97.9489 108.375 102.321 110.66 107.093 111.459C108.098 111.628 108.851 111.401 109.057 109.432C109.495 106.959 109.704 104.451 109.679 101.939C109.467 99.3958 108.743 96.7905 108.743 94.2362Z" fill="white"/>
    <path d="M65.384 88.562C61.9887 87.1558 62.999 86.8412 63.7153 41.0494C65.3978 40.9542 66.76 42.4638 68.252 43.2449C88.4168 53.7986 102.139 56.9642 102.663 57.7618C102.924 58.1592 102.173 101.092 101.973 101.749C101.255 104.136 100.444 102.439 99.6268 102.301C98.1853 101.973 96.7931 101.457 95.4862 100.766C91.0917 98.8687 86.3438 97.5054 81.9492 95.6079C73.0565 91.7717 78.1881 93.8678 65.384 88.562Z" fill="#3A5AFF"/>
    <path d="M71.6161 74.4645C71.6658 73.8974 71.8162 71.437 71.3497 71.0989C70.6855 70.9094 70.0656 70.5897 69.5263 70.1583C68.987 69.7268 68.539 69.1924 68.2084 68.586C67.9581 68.1312 67.8273 67.6203 67.8281 67.1012C67.829 66.582 67.9614 66.0716 68.2132 65.6175C68.4649 65.1635 68.8277 64.7807 69.2676 64.5049C69.7075 64.2291 70.2102 64.0693 70.7286 64.0405C71.1123 63.9715 72.7092 63.9025 72.781 64.1054C70.1807 56.8566 68.011 53.2618 74.371 57.3851C75.7332 54.5051 75.7388 54.4044 76.0479 54.1657C77.9443 52.6988 79.1479 57.7383 80.8787 55.5028C81.4307 54.7963 81.4749 53.3833 81.7854 52.9596C82.1402 52.4766 83.363 52.438 83.6239 54.2416C83.7936 55.4214 83.403 58.0902 84.8302 58.3276C85.4204 58.3206 85.9933 58.1275 86.4671 57.7756C88.5609 56.6979 90.0943 58.0792 89.8528 59.0175C89.7741 59.3225 89.4387 59.6744 89.6361 59.9918C90.5125 59.4361 91.5709 59.2436 92.5869 59.455C92.8444 59.6737 93.024 59.97 93.0986 60.2995C93.1733 60.6289 93.139 60.9737 93.001 61.282C92.4586 62.5681 91.2067 62.662 91.2233 63.5686C91.2233 63.8446 91.2012 63.7397 92.4034 66.2167C92.7787 66.5472 93.0145 67.0078 93.0631 67.5055C95.0092 67.5055 95.2259 67.242 96.1285 68.5046C96.4393 68.9802 96.6378 69.5203 96.7087 70.084C96.7797 70.6476 96.7215 71.22 96.5383 71.7578C96.3552 72.2956 96.0519 72.7847 95.6517 73.1879C95.2514 73.5911 94.7645 73.8979 94.228 74.0851C91.5159 74.9779 95.0879 75.2194 94.2597 80.6853C93.9589 82.6655 94.0582 85.4088 92.2281 86.205C91.6015 86.481 91.2316 86.6949 91.9244 87.6485C92.8685 88.947 93.4082 88.6434 94.1328 91.5799C94.5517 92.8795 94.6585 94.2594 94.4447 95.6079C94.2487 98.4616 95.68 100.62 94.453 100.287C91.9642 99.7652 89.5924 98.7909 87.4553 97.4129C87.3173 97.3508 78.2576 94.2556 68.0151 89.441C64.8724 87.9631 69.7528 83.2865 74.3641 82.9553C75.9444 82.8421 74.9755 81.8748 73.95 80.815C70.8653 77.5998 71.4781 76.0515 71.6161 74.4645Z" fill="#FFF9EA"/>
    <path d="M71.7416 66.167C70.2855 66.1311 69.5651 67.5375 69.8728 67.6728C70.055 67.7736 70.6816 66.9579 71.7196 66.9827C71.9318 66.9882 72.1404 67.0395 72.331 67.1331C72.076 67.2117 71.8488 67.3618 71.6765 67.5656C71.5042 67.7694 71.3939 68.0183 71.3587 68.2828C71.3236 68.5473 71.365 68.8164 71.4782 69.0581C71.5913 69.2998 71.7713 69.504 71.997 69.6465C72.4593 69.9005 72.7878 69.7666 72.7823 69.6658C72.7989 69.4616 71.7734 69.0668 72.2302 68.16C72.3614 67.884 72.4317 67.9475 72.5394 67.982C74.7008 68.9688 74.3337 69.0475 73.9928 67.9019C73.842 67.4161 73.5448 66.9886 73.1418 66.6781C72.7389 66.3676 72.2499 66.1891 71.7416 66.167Z" fill="#402E32"/>
    <path d="M110.727 55.5084C110.727 50.6635 107.966 52.4436 62.3023 31.3857C61.6719 31.0927 60.9778 30.9632 60.284 31.009C59.5903 31.0548 58.9193 31.2746 58.3328 31.6479C55.6028 33.3742 56.511 31.2422 56.0003 89.2548C55.9903 90.0822 56.2278 90.8938 56.6822 91.5854C57.1367 92.277 57.7874 92.8171 58.5509 93.1365C108.265 114.023 106.306 114.062 108.96 112.302C111.614 110.543 110.743 112.672 110.727 55.5084ZM106.165 110.005C56.4226 89.103 59.4839 90.4829 59.1692 90.0896C60.7413 89.4438 62.8006 87.6982 62.4058 87.1917C62.0111 86.6853 59.4729 88.3081 58.8974 88.7235C59.3114 31.4561 59.2562 35.0605 59.3487 34.768C59.9173 36.0789 62.6046 40.8687 63.3071 40.4078C63.9517 39.9841 61.5335 35.6525 60.1892 33.9469C60.7841 33.762 57.4633 32.429 106.702 54.1754C105.673 54.5894 102.174 56.3488 102.477 57.0112C102.811 57.737 106.661 55.812 107.765 55.1041C107.86 55.3925 107.873 51.5894 107.924 108.833C107.924 109.661 107.917 108.742 105.817 106.394C103.079 103.314 98.8612 100.736 104.738 107.36C105.679 108.412 106.548 109.349 107.214 109.981C107.052 110.062 106.874 110.105 106.692 110.109C106.511 110.113 106.331 110.078 106.165 110.005Z" fill="#402E32"/>
    <path d="M64.3011 64.0392C64.533 33.4267 62.8312 33.3659 62.6021 63.9812C62.4737 68.3832 62.5151 86.9295 62.6849 86.9502C63.9823 87.12 64.2859 64.529 64.3011 64.0392Z" fill="#402E32"/>
    <path d="M101.916 102.403C103.11 102.541 103.398 80.9199 103.422 80.0395C103.649 50.1666 101.948 50.1059 101.723 79.9829C101.647 82.7552 101.589 102.368 101.916 102.403Z" fill="#402E32"/>
    <path d="M95.2617 99.8664C95.7576 95.9708 95.018 92.0178 93.1473 88.5648C91.8154 86.4079 91.433 87.0786 92.2501 86.6329C94.3522 85.4875 94.6531 83.5749 94.6282 81.2042C94.9622 80.1816 95.0855 79.1019 94.9906 78.0304C94.8957 76.9589 94.5846 75.9177 94.0761 74.9696C93.7711 74.4632 94.5689 75.1076 96.0678 73.7084C99.0863 70.9941 96.6074 65.6082 93.4026 66.8667C93.0037 64.4918 91.295 64.6381 92.1425 63.7439C92.4389 63.4972 92.7119 63.2237 92.9582 62.9269C94.7 60.6211 93.6096 58.202 90.8285 58.9886C89.8058 59.346 90.4434 59.4371 90.3551 58.3607C90.2447 56.8718 88.2158 55.4946 85.1849 57.5604C84.481 58.064 84.6645 58.1123 84.4948 57.1712C84.2035 55.5332 83.8405 53.2205 83.0428 52.5374C82.6122 52.0972 81.9096 51.9716 81.2223 52.9224C80.8181 53.5781 80.4977 54.2818 80.2686 55.0171C79.8214 56.1045 79.6392 55.14 78.3873 53.8552C77.2652 52.703 75.903 52.6864 75.137 54.0788C74.8476 54.6982 74.6224 55.3455 74.4648 56.0107C74.4281 56.1785 74.3587 56.3375 74.2605 56.4785C73.3165 56.2605 72.3752 54.864 71.024 54.7094C68.0496 54.5245 70.4125 59.0466 72.0343 63.3644C66.8682 62.4164 65.2299 69.9108 71.1137 71.8993C70.4001 75.8155 71.2172 79.8367 74.2881 82.304C70.6803 82.7649 67.4492 84.7603 66.628 88.3481C49.0994 82.384 100.62 104.509 101.256 102.989C101.347 102.752 99.0311 101.567 95.2617 99.8664ZM91.5573 85.4185C88.8465 86.9158 77.7649 85.8242 77.6407 80.9241C77.5799 78.5257 78.6068 76.293 81.6805 74.4591C81.5708 74.8579 81.5875 75.2808 81.7281 75.6698C81.8687 76.0588 82.1265 76.3946 82.4659 76.6311C84.4879 77.7116 85.4568 76.3937 85.9481 78.6527C86.0254 78.9935 86.162 79.1771 86.2587 79.1536C86.3553 79.1302 86.4229 78.9646 86.5112 78.6624C87.6389 74.7985 81.3244 76.5193 83.3616 74.2466C84.2684 73.1992 89.6871 73.0543 91.4013 74.4315C93.2039 75.8914 89.32 75.712 88.5981 77.4038C88.3221 78.0635 88.409 79.391 88.6409 79.4572C88.9556 79.5483 89.1502 78.3326 89.487 77.9089C90.1591 77.063 92.6725 77.5308 93.2135 75.563C93.6452 76.6584 93.8007 77.8432 93.6662 79.0129C93.346 83.0878 91.001 82.5096 87.2441 82.3385C68.7963 81.04 89.1391 84.7065 92.2308 83.6384C93.2246 83.321 93.3515 82.7608 93.0589 83.6384C92.9377 84.0186 92.7426 84.3711 92.4849 84.6758C92.2273 84.9806 91.912 85.2315 91.5573 85.4144V85.4185ZM80.2479 73.6421C79.7879 73.381 79.3938 73.0182 79.0955 72.5815C78.7972 72.1448 78.6027 71.6457 78.5267 71.1224C81.185 70.9223 80.8137 70.8947 80.8234 71.0285C80.8772 71.8027 80.7475 72.1905 81.7205 72.0649C82.6936 71.9393 82.4976 71.5515 82.4507 70.9444C84.2242 71.1279 84.3346 71.4646 84.935 71.2204C84.6907 72.3947 84.6783 72.1408 84.0006 72.3119C83.2935 72.4603 82.6565 72.8412 82.1912 73.3938C81.7661 73.5517 81.3512 73.7361 80.949 73.9457C80.708 73.8607 80.4736 73.7579 80.2479 73.638V73.6421ZM87.3504 71.9917C84.572 72.0138 85.6707 72.4761 85.494 70.9761C85.8032 71.0313 87.7355 70.8464 88.449 70.8022C88.3911 70.9402 88.4725 71.1665 88.525 71.6481C88.5622 71.9876 90.206 72.1739 90.1495 71.5101C90.1274 71.2687 90.0942 71.0548 90.0666 70.8602C90.6546 70.9361 91.8278 71.201 91.8733 71.2024C90.6284 73.3482 91.2398 72.0566 87.3504 71.9917ZM92.2322 68.9228C92.6545 69.8432 92.1963 70.5276 91.8181 70.4007C90.2355 69.9851 88.5787 69.9379 86.975 70.2627C84.6093 70.5221 86.445 70.6504 85.6141 68.7448C85.9489 68.1529 86.4384 67.6634 87.0302 67.3285C87.622 66.9936 88.2938 66.826 88.9736 66.8437C89.6534 66.8615 90.3156 67.0638 90.8891 67.4291C91.4627 67.7944 91.926 68.3088 92.2294 68.9172L92.2322 68.9228ZM85.0027 69.8887C84.9516 70.8547 84.1607 70.3524 83.0773 70.2227C80.7806 69.9163 78.4108 70.6532 78.1389 70.4421C77.5689 70.1343 78.3349 66.9053 81.5729 66.9246C83.5935 66.9219 85.1421 68.7448 85.0041 69.8777L85.0027 69.8887ZM94.5123 68.0355C96.6833 68.782 96.6102 73.1702 93.1804 73.9305C93.0824 73.8491 91.9023 73.0074 91.6732 72.8818C92.1962 72.3543 92.5384 71.6745 92.6504 70.9402C92.7211 70.885 92.7858 70.8225 92.8436 70.7539C92.886 70.8918 92.9691 71.0136 93.0818 71.1034C93.1946 71.1933 93.3319 71.247 93.4758 71.2576C93.5392 71.2162 93.6883 71.517 93.6027 71.6951C93.4357 72.0994 92.7194 72.4623 92.8257 72.6776C92.9195 72.9536 93.9864 72.8335 94.366 71.9876C94.4306 71.8386 94.4623 71.6774 94.4588 71.5151C94.4554 71.3527 94.4169 71.193 94.346 71.0469C94.2751 70.9008 94.1734 70.7717 94.048 70.6685C93.9226 70.5653 93.7763 70.4904 93.6193 70.449C93.7573 70.2503 94.3577 70.104 94.5675 70.4241C94.9194 70.994 95.1499 70.7608 95.1196 70.2516C95.0671 69.3657 93.9119 69.1974 93.219 69.7107C93.2287 69.3214 93.1455 68.9354 92.9761 68.5847C92.8974 68.4218 93.7366 67.7581 94.5095 68.0244L94.5123 68.0355ZM75.7429 56.3985C75.8491 56.0383 76.2218 54.3893 76.5917 54.3079C77.6338 53.5503 79.7455 59.8276 81.5411 54.6818C81.588 54.5438 82.0932 53.1404 82.2878 53.1749C82.7957 52.3773 83.9689 60.519 83.6542 61.8092C83.6238 61.9472 83.6169 61.8561 73.674 63.5465C73.7678 63.8087 73.2599 62.5185 73.155 62.2411C73.431 62.1983 82.7516 60.3934 82.7101 60.0567C82.6591 59.6151 76.5185 60.3768 72.9907 61.8189C68.0855 49.1773 74.0576 62.1142 75.7429 56.3985ZM72.1267 72.1118C74.2619 72.3409 75.0583 70.8616 74.3599 71.0962C71.7251 71.9835 68.0192 69.3022 68.9882 66.2747C69.6783 64.1192 72.389 64.2765 74.0549 65.4536C75.4351 66.4485 75.6007 67.6905 75.8119 67.6436C75.903 67.6367 75.9996 67.3262 75.9044 66.7604C75.7235 66.0383 75.3745 65.3693 74.8858 64.8078C84.7418 63.0291 84.4009 63.0967 84.6466 62.7379C85.0043 61.6657 85.0672 60.5171 84.8288 59.4122C86.26 58.5843 87.2469 57.6183 88.5995 58.0544C90.2847 58.7057 86.4712 61.714 87.1862 62.1528C87.3311 62.3253 88.2765 61.5512 89.8596 60.657C91.3985 59.84 92.9154 59.7241 92.2446 61.3097C91.7726 62.4729 90.9596 62.5143 90.5442 63.5507C89.8417 65.2577 91.8126 65.2715 92.1687 67.4145C91.7065 66.9325 91.1402 66.5626 90.5131 66.3329C89.886 66.1032 89.2147 66.0199 88.5505 66.0892C87.8862 66.1586 87.2466 66.3789 86.6806 66.7331C86.1145 67.0874 85.6369 67.5664 85.2842 68.1334C84.8195 67.4088 84.1487 66.8397 83.3579 66.4992C82.5672 66.1587 81.6927 66.0625 80.8468 66.2229C80.0009 66.3833 79.2223 66.793 78.6111 67.3993C78 68.0055 77.5841 68.7807 77.4171 69.6252C77.3867 70.0391 77.2942 70.7815 77.9208 71.0451C77.8737 71.7289 78.0421 72.4102 78.4023 72.9934C78.7625 73.5765 79.2964 74.0322 79.929 74.2962C80.4411 74.5032 80.172 74.1017 78.6013 75.621C77.879 76.3035 77.307 77.1291 76.9218 78.045C76.5366 78.961 76.3466 79.9472 76.364 80.9406C76.3543 82.2999 77.1562 82.7718 75.7539 81.7341C72.6857 79.4972 71.9832 75.9025 72.1267 72.1118ZM74.3585 91.188C75.5102 90.4073 76.8307 89.911 78.2116 89.74C79.5925 89.5689 80.9942 89.728 82.3016 90.2041C87.9218 92.1015 89.3407 95.8219 89.774 95.6356C90.0749 95.5114 89.2785 93.2276 86.9998 91.5854C81.2444 87.3283 75.7926 88.3854 73.8106 90.9769C71.3869 90.0468 69.2463 89.2561 67.5224 88.6531C69.0944 85.195 71.939 84.0993 75.6118 83.1692C76.2432 83.5022 76.9092 83.765 77.5979 83.953C79.7275 86.5225 82.5666 86.7778 85.6804 87.2649C87.3403 87.5699 89.043 87.5586 90.6988 87.2318C93.3943 90.4856 93.9988 95.1719 94.2473 99.4028C88.3372 96.7699 80.5474 93.5726 74.3585 91.188Z" fill="#402E32"/>
    <path d="M102.368 57.5742C102.678 56.8001 64.9856 40.9777 64.6502 41.7325C64.0678 43.0421 101.843 58.8741 102.368 57.5742Z" fill="#402E32"/>
    <path d="M312.743 63.2362C312.117 56.1861 313.986 25.2038 313.036 23.5009C312.518 22.5764 310 21.6229 303.834 18.8092C301.695 17.8336 299.317 17.4416 297.19 16.4095C293.53 14.6349 291.002 13.2356 287.399 11.3465C285.679 10.4481 282.43 10.3295 280.83 9.23517C275.814 6.07152 270.44 3.51585 264.82 1.62206C262.773 1.00385 262.017 1.94359 261.625 3.96795C261.401 5.11882 261.67 4.6386 261.643 5.79085C261.443 14.0705 261.071 8.17124 261.429 21.3331C261.63 28.7406 261.928 30.0915 261.207 32.0303C262.959 52.0049 257.828 57.4212 265.705 62.6553C271.183 66.2928 286.43 69.2058 297.67 75.1216C301.949 77.375 306.321 79.6602 311.093 80.4592C312.098 80.6275 312.851 80.4012 313.057 78.4321C313.495 75.959 313.704 73.4506 313.679 70.939C313.467 68.3958 312.743 65.7905 312.743 63.2362Z" fill="white"/>
    <path d="M269.384 57.562C265.989 56.1558 266.999 55.8412 267.715 10.0494C269.398 9.95419 270.76 11.4638 272.252 12.2449C292.417 22.7986 306.139 25.9642 306.663 26.7618C306.924 27.1592 306.173 70.0918 305.973 70.7487C305.255 73.136 304.444 71.4386 303.627 71.3006C302.185 70.9731 300.793 70.4571 299.486 69.7661C295.092 67.8687 290.344 66.5054 285.949 64.6079C277.057 60.7717 282.188 62.8678 269.384 57.562Z" fill="#FFC43B"/>
    <path d="M275.616 43.4645C275.666 42.8974 275.816 40.437 275.35 40.0989C274.685 39.9094 274.066 39.5897 273.526 39.1583C272.987 38.7268 272.539 38.1924 272.208 37.586C271.958 37.1312 271.827 36.6203 271.828 36.1012C271.829 35.582 271.961 35.0716 272.213 34.6175C272.465 34.1635 272.828 33.7807 273.268 33.5049C273.708 33.2291 274.21 33.0693 274.729 33.0405C275.112 32.9715 276.709 32.9025 276.781 33.1054C274.181 25.8566 272.011 22.2618 278.371 26.3851C279.733 23.5051 279.739 23.4044 280.048 23.1657C281.944 21.6988 283.148 26.7383 284.879 24.5028C285.431 23.7963 285.475 22.3833 285.785 21.9596C286.14 21.4766 287.363 21.438 287.624 23.2416C287.794 24.4214 287.403 27.0902 288.83 27.3276C289.42 27.3206 289.993 27.1275 290.467 26.7756C292.561 25.6979 294.094 27.0792 293.853 28.0175C293.774 28.3225 293.439 28.6744 293.636 28.9918C294.512 28.4361 295.571 28.2436 296.587 28.455C296.844 28.6737 297.024 28.97 297.099 29.2995C297.173 29.6289 297.139 29.9737 297.001 30.282C296.459 31.5681 295.207 31.662 295.223 32.5686C295.223 32.8446 295.201 32.7397 296.403 35.2167C296.779 35.5472 297.014 36.0078 297.063 36.5055C299.009 36.5055 299.226 36.242 300.129 37.5046C300.439 37.9802 300.638 38.5203 300.709 39.084C300.78 39.6476 300.721 40.22 300.538 40.7578C300.355 41.2956 300.052 41.7847 299.652 42.1879C299.251 42.5911 298.765 42.8979 298.228 43.0851C295.516 43.9779 299.088 44.2194 298.26 49.6853C297.959 51.6655 298.058 54.4088 296.228 55.205C295.601 55.481 295.232 55.6949 295.924 56.6485C296.868 57.947 297.408 57.6434 298.133 60.5799C298.552 61.8795 298.659 63.2594 298.445 64.6079C298.249 67.4616 299.68 69.6199 298.453 69.2873C295.964 68.7652 293.592 67.7909 291.455 66.4129C291.317 66.3508 282.258 63.2556 272.015 58.441C268.872 56.9631 273.753 52.2865 278.364 51.9553C279.944 51.8421 278.976 50.8748 277.95 49.815C274.865 46.5998 275.478 45.0515 275.616 43.4645Z" fill="#FFF9EA"/>
    <path d="M275.742 35.167C274.286 35.1311 273.565 36.5375 273.873 36.6728C274.055 36.7736 274.682 35.9579 275.72 35.9827C275.932 35.9882 276.14 36.0395 276.331 36.1331C276.076 36.2117 275.849 36.3618 275.676 36.5656C275.504 36.7694 275.394 37.0183 275.359 37.2828C275.324 37.5473 275.365 37.8164 275.478 38.0581C275.591 38.2998 275.771 38.504 275.997 38.6465C276.459 38.9005 276.788 38.7666 276.782 38.6658C276.799 38.4616 275.773 38.0668 276.23 37.16C276.361 36.884 276.432 36.9475 276.539 36.982C278.701 37.9688 278.334 38.0475 277.993 36.9019C277.842 36.4161 277.545 35.9886 277.142 35.6781C276.739 35.3676 276.25 35.1891 275.742 35.167Z" fill="#402E32"/>
    <path d="M314.727 24.5084C314.727 19.6635 311.966 21.4436 266.302 0.385742C265.672 0.0927431 264.978 -0.036816 264.284 0.00900564C263.59 0.0548273 262.919 0.274558 262.333 0.647934C259.603 2.37423 260.511 0.242235 260 58.2548C259.99 59.0822 260.228 59.8938 260.682 60.5854C261.137 61.277 261.787 61.8171 262.551 62.1365C312.265 83.0232 310.306 83.0619 312.96 81.3024C315.614 79.543 314.743 81.6723 314.727 24.5084ZM310.165 79.0049C260.423 58.103 263.484 59.4829 263.169 59.0896C264.741 58.4438 266.801 56.6982 266.406 56.1917C266.011 55.6853 263.473 57.3081 262.897 57.7235C263.311 0.456124 263.256 4.06052 263.349 3.76797C263.917 5.07891 266.605 9.86867 267.307 9.40777C267.952 8.98413 265.534 4.65251 264.189 2.94691C264.784 2.762 261.463 1.42897 310.702 23.1754C309.673 23.5894 306.174 25.3488 306.477 26.0112C306.811 26.737 310.661 24.812 311.765 24.1041C311.86 24.3925 311.873 20.5894 311.924 77.8333C311.924 78.6612 311.917 77.7422 309.817 75.3936C307.079 72.3135 302.861 69.7358 308.738 76.3595C309.679 77.4124 310.548 78.3494 311.214 78.9814C311.052 79.0616 310.874 79.1052 310.692 79.1093C310.511 79.1133 310.331 79.0777 310.165 79.0049Z" fill="#402E32"/>
    <path d="M268.301 33.0392C268.533 2.42665 266.831 2.36593 266.602 32.9812C266.474 37.3832 266.515 55.9295 266.685 55.9502C267.982 56.12 268.286 33.529 268.301 33.0392Z" fill="#402E32"/>
    <path d="M305.916 71.4027C307.11 71.5407 307.398 49.9199 307.422 49.0395C307.649 19.1666 305.948 19.1059 305.723 48.9829C305.647 51.7552 305.589 71.3682 305.916 71.4027Z" fill="#402E32"/>
    <path d="M299.262 68.8664C299.758 64.9708 299.018 61.0178 297.147 57.5648C295.815 55.4079 295.433 56.0786 296.25 55.6329C298.352 54.4875 298.653 52.5749 298.628 50.2042C298.962 49.1816 299.085 48.1019 298.991 47.0304C298.896 45.9589 298.585 44.9177 298.076 43.9696C297.771 43.4632 298.569 44.1076 300.068 42.7084C303.086 39.9941 300.607 34.6082 297.403 35.8667C297.004 33.4918 295.295 33.6381 296.142 32.7439C296.439 32.4972 296.712 32.2237 296.958 31.9269C298.7 29.6211 297.61 27.202 294.829 27.9886C293.806 28.346 294.443 28.4371 294.355 27.3607C294.245 25.8718 292.216 24.4946 289.185 26.5604C288.481 27.064 288.665 27.1123 288.495 26.1712C288.204 24.5332 287.841 22.2205 287.043 21.5374C286.612 21.0972 285.91 20.9716 285.222 21.9224C284.818 22.5781 284.498 23.2818 284.269 24.0171C283.821 25.1045 283.639 24.14 282.387 22.8552C281.265 21.703 279.903 21.6864 279.137 23.0788C278.848 23.6982 278.622 24.3455 278.465 25.0107C278.428 25.1785 278.359 25.3375 278.261 25.4785C277.316 25.2605 276.375 23.864 275.024 23.7094C272.05 23.5245 274.413 28.0466 276.034 32.3644C270.868 31.4164 269.23 38.9108 275.114 40.8993C274.4 44.8155 275.217 48.8367 278.288 51.304C274.68 51.7649 271.449 53.7603 270.628 57.3481C253.099 51.384 304.62 73.5085 305.256 71.9892C305.347 71.7519 303.031 70.5665 299.262 68.8664ZM295.557 54.4185C292.847 55.9158 281.765 54.8242 281.641 49.9241C281.58 47.5257 282.607 45.293 285.681 43.4591C285.571 43.8579 285.587 44.2808 285.728 44.6698C285.869 45.0588 286.126 45.3946 286.466 45.6311C288.488 46.7116 289.457 45.3937 289.948 47.6527C290.025 47.9935 290.162 48.1771 290.259 48.1536C290.355 48.1302 290.423 47.9646 290.511 47.6624C291.639 43.7985 285.324 45.5193 287.362 43.2466C288.268 42.1992 293.687 42.0543 295.401 43.4315C297.204 44.8914 293.32 44.712 292.598 46.4038C292.322 47.0635 292.409 48.391 292.641 48.4572C292.956 48.5483 293.15 47.3326 293.487 46.9089C294.159 46.063 296.672 46.5308 297.214 44.563C297.645 45.6584 297.801 46.8432 297.666 48.0129C297.346 52.0878 295.001 51.5096 291.244 51.3385C272.796 50.04 293.139 53.7065 296.231 52.6384C297.225 52.321 297.352 51.7608 297.059 52.6384C296.938 53.0186 296.743 53.3711 296.485 53.6758C296.227 53.9806 295.912 54.2315 295.557 54.4144V54.4185ZM284.248 42.6421C283.788 42.381 283.394 42.0182 283.095 41.5815C282.797 41.1448 282.603 40.6457 282.527 40.1224C285.185 39.9223 284.814 39.8947 284.823 40.0285C284.877 40.8027 284.747 41.1905 285.721 41.0649C286.694 40.9393 286.498 40.5515 286.451 39.9444C288.224 40.1279 288.335 40.4646 288.935 40.2204C288.691 41.3947 288.678 41.1408 288.001 41.3119C287.294 41.4603 286.657 41.8412 286.191 42.3938C285.766 42.5517 285.351 42.7361 284.949 42.9457C284.708 42.8607 284.474 42.7579 284.248 42.638V42.6421ZM291.35 40.9917C288.572 41.0138 289.671 41.4761 289.494 39.9761C289.803 40.0313 291.735 39.8464 292.449 39.8022C292.391 39.9402 292.473 40.1665 292.525 40.6481C292.562 40.9876 294.206 41.1739 294.149 40.5101C294.127 40.2687 294.094 40.0548 294.067 39.8602C294.655 39.9361 295.828 40.201 295.873 40.2024C294.628 42.3482 295.24 41.0566 291.35 40.9917ZM296.232 37.9228C296.655 38.8432 296.196 39.5276 295.818 39.4007C294.236 38.9851 292.579 38.9379 290.975 39.2627C288.609 39.5221 290.445 39.6504 289.614 37.7448C289.949 37.1529 290.438 36.6634 291.03 36.3285C291.622 35.9936 292.294 35.826 292.974 35.8437C293.653 35.8615 294.316 36.0638 294.889 36.4291C295.463 36.7944 295.926 37.3088 296.229 37.9172L296.232 37.9228ZM289.003 38.8887C288.952 39.8547 288.161 39.3524 287.077 39.2227C284.781 38.9163 282.411 39.6532 282.139 39.4421C281.569 39.1343 282.335 35.9053 285.573 35.9246C287.593 35.9219 289.142 37.7448 289.004 38.8777L289.003 38.8887ZM298.512 37.0355C300.683 37.782 300.61 42.1702 297.18 42.9305C297.082 42.8491 295.902 42.0074 295.673 41.8818C296.196 41.3543 296.538 40.6745 296.65 39.9402C296.721 39.885 296.786 39.8225 296.844 39.7539C296.886 39.8918 296.969 40.0136 297.082 40.1034C297.195 40.1933 297.332 40.247 297.476 40.2576C297.539 40.2162 297.688 40.517 297.603 40.6951C297.436 41.0994 296.719 41.4623 296.826 41.6776C296.92 41.9536 297.986 41.8335 298.366 40.9876C298.431 40.8386 298.462 40.6774 298.459 40.5151C298.455 40.3527 298.417 40.193 298.346 40.0469C298.275 39.9008 298.173 39.7717 298.048 39.6685C297.923 39.5653 297.776 39.4904 297.619 39.449C297.757 39.2503 298.358 39.104 298.567 39.4241C298.919 39.994 299.15 39.7608 299.12 39.2516C299.067 38.3657 297.912 38.1974 297.219 38.7107C297.229 38.3214 297.145 37.9354 296.976 37.5847C296.897 37.4218 297.737 36.7581 298.51 37.0244L298.512 37.0355ZM279.743 25.3985C279.849 25.0383 280.222 23.3893 280.592 23.3079C281.634 22.5503 283.745 28.8276 285.541 23.6818C285.588 23.5438 286.093 22.1404 286.288 22.1749C286.796 21.3773 287.969 29.519 287.654 30.8092C287.624 30.9472 287.617 30.8561 277.674 32.5465C277.768 32.8087 277.26 31.5185 277.155 31.2411C277.431 31.1983 286.752 29.3934 286.71 29.0567C286.659 28.6151 280.519 29.3768 276.991 30.8189C272.085 18.1773 278.058 31.1142 279.743 25.3985ZM276.127 41.1118C278.262 41.3409 279.058 39.8616 278.36 40.0962C275.725 40.9835 272.019 38.3022 272.988 35.2747C273.678 33.1192 276.389 33.2765 278.055 34.4536C279.435 35.4485 279.601 36.6905 279.812 36.6436C279.903 36.6367 280 36.3262 279.904 35.7604C279.724 35.0383 279.375 34.3693 278.886 33.8078C288.742 32.0291 288.401 32.0967 288.647 31.7379C289.004 30.6657 289.067 29.5171 288.829 28.4122C290.26 27.5843 291.247 26.6183 292.599 27.0544C294.285 27.7057 290.471 30.714 291.186 31.1528C291.331 31.3253 292.277 30.5512 293.86 29.657C295.399 28.84 296.915 28.7241 296.245 30.3097C295.773 31.4729 294.96 31.5143 294.544 32.5507C293.842 34.2577 295.813 34.2715 296.169 36.4145C295.706 35.9325 295.14 35.5626 294.513 35.3329C293.886 35.1032 293.215 35.0199 292.55 35.0892C291.886 35.1586 291.247 35.3789 290.681 35.7331C290.114 36.0874 289.637 36.5664 289.284 37.1334C288.82 36.4088 288.149 35.8397 287.358 35.4992C286.567 35.1587 285.693 35.0625 284.847 35.2229C284.001 35.3833 283.222 35.793 282.611 36.3993C282 37.0055 281.584 37.7807 281.417 38.6252C281.387 39.0391 281.294 39.7815 281.921 40.0451C281.874 40.7289 282.042 41.4102 282.402 41.9934C282.762 42.5765 283.296 43.0322 283.929 43.2962C284.441 43.5032 284.172 43.1017 282.601 44.621C281.879 45.3035 281.307 46.1291 280.922 47.045C280.537 47.961 280.347 48.9472 280.364 49.9406C280.354 51.2999 281.156 51.7718 279.754 50.7341C276.686 48.4972 275.983 44.9025 276.127 41.1118ZM278.359 60.188C279.51 59.4073 280.831 58.911 282.212 58.74C283.592 58.5689 284.994 58.728 286.302 59.2041C291.922 61.1015 293.341 64.8219 293.774 64.6356C294.075 64.5114 293.279 62.2276 291 60.5854C285.244 56.3283 279.793 57.3854 277.811 59.9769C275.387 59.0468 273.246 58.2561 271.522 57.6531C273.094 54.195 275.939 53.0993 279.612 52.1692C280.243 52.5022 280.909 52.765 281.598 52.953C283.728 55.5225 286.567 55.7778 289.68 56.2649C291.34 56.5699 293.043 56.5586 294.699 56.2318C297.394 59.4856 297.999 64.1719 298.247 68.4028C292.337 65.7699 284.547 62.5726 278.359 60.188Z" fill="#402E32"/>
    <path d="M306.368 26.5742C306.678 25.8001 268.986 9.9777 268.65 10.7325C268.068 12.0421 305.843 27.8741 306.368 26.5742Z" fill="#402E32"/>
    <path d="M52.7435 266.236C52.1168 259.186 53.9856 228.204 53.0361 226.501C52.5185 225.576 49.9996 224.623 43.8342 221.809C41.6949 220.834 39.3168 220.442 37.1899 219.409C33.5296 217.635 31.0025 216.236 27.3988 214.346C25.679 213.448 22.43 213.329 20.8304 212.235C15.8145 209.072 10.4399 206.516 4.81998 204.622C2.77313 204.004 2.01678 204.944 1.6248 206.968C1.40121 208.119 1.67035 207.639 1.64275 208.791C1.44262 217.07 1.07134 211.171 1.42882 224.333C1.63033 231.741 1.92845 233.092 1.2066 235.03C2.95946 255.005 -2.17214 260.421 5.70469 265.655C11.1827 269.293 26.4299 272.206 37.6702 278.122C41.9489 280.375 46.3214 282.66 51.0927 283.459C52.0975 283.628 52.8511 283.401 53.0568 281.432C53.4952 278.959 53.7036 276.451 53.6792 273.939C53.4667 271.396 52.7435 268.79 52.7435 266.236Z" fill="white"/>
    <path d="M9.38396 260.562C5.98866 259.156 6.99897 258.841 7.71529 213.049C9.39776 212.954 10.76 214.464 12.252 215.245C32.4168 225.799 46.1388 228.964 46.6633 229.762C46.9242 230.159 46.1733 273.092 45.9732 273.749C45.2555 276.136 44.4439 274.439 43.6268 274.301C42.1853 273.973 40.7931 273.457 39.4862 272.766C35.0917 270.869 30.3438 269.505 25.9492 267.608C17.0565 263.772 22.1881 265.868 9.38396 260.562Z" fill="#FFF4CC"/>
    <path d="M15.6161 246.464C15.6658 245.897 15.8162 243.437 15.3497 243.099C14.6855 242.909 14.0656 242.59 13.5263 242.158C12.987 241.727 12.539 241.192 12.2084 240.586C11.9581 240.131 11.8273 239.62 11.8281 239.101C11.829 238.582 11.9614 238.072 12.2132 237.617C12.4649 237.163 12.8277 236.781 13.2676 236.505C13.7075 236.229 14.2102 236.069 14.7286 236.04C15.1123 235.971 16.7092 235.902 16.781 236.105C14.1807 228.857 12.011 225.262 18.371 229.385C19.7332 226.505 19.7388 226.404 20.0479 226.166C21.9443 224.699 23.1479 229.738 24.8787 227.503C25.4307 226.796 25.4749 225.383 25.7854 224.96C26.1402 224.477 27.363 224.438 27.6239 226.242C27.7936 227.421 27.403 230.09 28.8302 230.328C29.4204 230.321 29.9933 230.127 30.4671 229.776C32.5609 228.698 34.0943 230.079 33.8528 231.017C33.7741 231.322 33.4387 231.674 33.6361 231.992C34.5125 231.436 35.5709 231.244 36.5869 231.455C36.8444 231.674 37.024 231.97 37.0986 232.299C37.1733 232.629 37.139 232.974 37.001 233.282C36.4586 234.568 35.2067 234.662 35.2233 235.569C35.2233 235.844 35.2012 235.74 36.4034 238.217C36.7787 238.547 37.0145 239.008 37.0631 239.505C39.0092 239.505 39.2259 239.242 40.1285 240.505C40.4393 240.98 40.6378 241.52 40.7087 242.084C40.7797 242.648 40.7215 243.22 40.5383 243.758C40.3552 244.296 40.0519 244.785 39.6517 245.188C39.2514 245.591 38.7645 245.898 38.228 246.085C35.5159 246.978 39.0879 247.219 38.2597 252.685C37.9589 254.665 38.0582 257.409 36.2281 258.205C35.6015 258.481 35.2316 258.695 35.9244 259.648C36.8685 260.947 37.4082 260.643 38.1328 263.58C38.5517 264.879 38.6585 266.259 38.4447 267.608C38.2487 270.462 39.68 272.62 38.453 272.287C35.9642 271.765 33.5924 270.791 31.4553 269.413C31.3173 269.351 22.2576 266.256 12.0151 261.441C8.87241 259.963 13.7528 255.286 18.3641 254.955C19.9444 254.842 18.9755 253.875 17.95 252.815C14.8653 249.6 15.4781 248.051 15.6161 246.464Z" fill="#FFF9EA"/>
    <path d="M15.7416 238.167C14.2855 238.131 13.5651 239.537 13.8728 239.673C14.055 239.774 14.6816 238.958 15.7196 238.983C15.9318 238.988 16.1404 239.039 16.331 239.133C16.076 239.212 15.8488 239.362 15.6765 239.566C15.5042 239.769 15.3939 240.018 15.3587 240.283C15.3236 240.547 15.365 240.816 15.4782 241.058C15.5913 241.3 15.7713 241.504 15.997 241.646C16.4593 241.9 16.7878 241.767 16.7823 241.666C16.7989 241.461 15.7734 241.067 16.2302 240.16C16.3614 239.884 16.4317 239.947 16.5394 239.982C18.7008 240.969 18.3337 241.047 17.9928 239.902C17.842 239.416 17.5448 238.989 17.1418 238.678C16.7389 238.368 16.2499 238.189 15.7416 238.167Z" fill="#402E32"/>
    <path d="M54.7268 227.508C54.7268 222.663 51.9664 224.444 6.30232 203.386C5.67186 203.093 4.97776 202.963 4.28403 203.009C3.5903 203.055 2.91927 203.275 2.33285 203.648C-0.3972 205.374 0.510977 203.242 0.000301349 261.255C-0.00966528 262.082 0.227795 262.894 0.682238 263.585C1.13668 264.277 1.78739 264.817 2.55092 265.137C52.2645 286.023 50.306 286.062 52.9602 284.302C55.6143 282.543 54.7434 284.672 54.7268 227.508ZM50.1652 282.005C0.422643 261.103 3.48394 262.483 3.16925 262.09C4.7413 261.444 6.80057 259.698 6.40583 259.192C6.01109 258.685 3.4729 260.308 2.89735 260.723C3.31141 203.456 3.2562 207.061 3.34868 206.768C3.91732 208.079 6.60458 212.869 7.30711 212.408C7.95166 211.984 5.53354 207.653 4.18922 205.947C4.78409 205.762 1.46332 204.429 50.7021 226.175C49.6725 226.589 46.1737 228.349 46.4773 229.011C46.8113 229.737 50.6607 227.812 51.7649 227.104C51.8601 227.392 51.8725 223.589 51.9236 280.833C51.9236 281.661 51.9167 280.742 49.8174 278.394C47.0791 275.314 42.8612 272.736 48.7381 279.36C49.6794 280.412 50.5476 281.349 51.2142 281.981C51.0516 282.062 50.8735 282.105 50.6923 282.109C50.5111 282.113 50.3312 282.078 50.1652 282.005Z" fill="#402E32"/>
    <path d="M8.30109 236.039C8.53296 205.427 6.83117 205.366 6.60205 235.981C6.47369 240.383 6.5151 258.93 6.68487 258.95C7.98226 259.12 8.28591 236.529 8.30109 236.039Z" fill="#402E32"/>
    <path d="M45.9158 274.403C47.1097 274.541 47.3982 252.92 47.4216 252.039C47.6494 222.167 45.9476 222.106 45.7226 251.983C45.6467 254.755 45.5887 274.368 45.9158 274.403Z" fill="#402E32"/>
    <path d="M39.2617 271.866C39.7576 267.971 39.018 264.018 37.1473 260.565C35.8154 258.408 35.433 259.079 36.2501 258.633C38.3522 257.487 38.6531 255.575 38.6282 253.204C38.9622 252.182 39.0855 251.102 38.9906 250.03C38.8957 248.959 38.5846 247.918 38.0761 246.97C37.7711 246.463 38.5689 247.108 40.0678 245.708C43.0863 242.994 40.6074 237.608 37.4026 238.867C37.0037 236.492 35.295 236.638 36.1425 235.744C36.4389 235.497 36.7119 235.224 36.9582 234.927C38.7 232.621 37.6096 230.202 34.8285 230.989C33.8058 231.346 34.4434 231.437 34.3551 230.361C34.2447 228.872 32.2158 227.495 29.1849 229.56C28.481 230.064 28.6645 230.112 28.4948 229.171C28.2035 227.533 27.8405 225.22 27.0428 224.537C26.6122 224.097 25.9096 223.972 25.2223 224.922C24.8181 225.578 24.4977 226.282 24.2686 227.017C23.8214 228.104 23.6392 227.14 22.3873 225.855C21.2652 224.703 19.903 224.686 19.137 226.079C18.8476 226.698 18.6224 227.345 18.4648 228.011C18.4281 228.178 18.3587 228.337 18.2605 228.478C17.3165 228.26 16.3752 226.864 15.024 226.709C12.0496 226.524 14.4125 231.047 16.0343 235.364C10.8682 234.416 9.22985 241.911 15.1137 243.899C14.4001 247.815 15.2172 251.837 18.2881 254.304C14.6803 254.765 11.4492 256.76 10.628 260.348C-6.9006 254.384 44.6197 276.508 45.256 274.989C45.3471 274.752 43.0311 273.566 39.2617 271.866ZM35.5573 257.418C32.8465 258.916 21.7649 257.824 21.6407 252.924C21.5799 250.526 22.6068 248.293 25.6805 246.459C25.5708 246.858 25.5875 247.281 25.7281 247.67C25.8687 248.059 26.1265 248.395 26.4659 248.631C28.4879 249.712 29.4568 248.394 29.9481 250.653C30.0254 250.993 30.162 251.177 30.2587 251.154C30.3553 251.13 30.4229 250.964 30.5112 250.662C31.6389 246.798 25.3244 248.519 27.3616 246.247C28.2684 245.199 33.6871 245.054 35.4013 246.431C37.2039 247.891 33.32 247.712 32.5981 249.404C32.3221 250.063 32.409 251.391 32.6409 251.457C32.9556 251.548 33.1502 250.332 33.487 249.909C34.1591 249.063 36.6725 249.531 37.2135 247.563C37.6452 248.658 37.8007 249.843 37.6662 251.013C37.346 255.088 35.001 254.51 31.2441 254.338C12.7963 253.04 33.1391 256.706 36.2308 255.638C37.2246 255.321 37.3515 254.761 37.0589 255.638C36.9377 256.019 36.7426 256.371 36.4849 256.676C36.2273 256.981 35.912 257.231 35.5573 257.414V257.418ZM24.2479 245.642C23.7879 245.381 23.3938 245.018 23.0955 244.581C22.7972 244.145 22.6027 243.646 22.5267 243.122C25.185 242.922 24.8137 242.895 24.8234 243.028C24.8772 243.803 24.7475 244.19 25.7205 244.065C26.6936 243.939 26.4976 243.551 26.4507 242.944C28.2242 243.128 28.3346 243.465 28.935 243.22C28.6907 244.395 28.6783 244.141 28.0006 244.312C27.2935 244.46 26.6565 244.841 26.1912 245.394C25.7661 245.552 25.3512 245.736 24.949 245.946C24.708 245.861 24.4736 245.758 24.2479 245.638V245.642ZM31.3504 243.992C28.572 244.014 29.6707 244.476 29.494 242.976C29.8032 243.031 31.7355 242.846 32.449 242.802C32.3911 242.94 32.4725 243.166 32.525 243.648C32.5622 243.988 34.206 244.174 34.1495 243.51C34.1274 243.269 34.0942 243.055 34.0666 242.86C34.6546 242.936 35.8278 243.201 35.8733 243.202C34.6284 245.348 35.2398 244.057 31.3504 243.992ZM36.2322 240.923C36.6545 241.843 36.1963 242.528 35.8181 242.401C34.2355 241.985 32.5787 241.938 30.975 242.263C28.6093 242.522 30.445 242.65 29.6141 240.745C29.9489 240.153 30.4384 239.663 31.0302 239.328C31.622 238.994 32.2938 238.826 32.9736 238.844C33.6534 238.861 34.3156 239.064 34.8891 239.429C35.4627 239.794 35.926 240.309 36.2294 240.917L36.2322 240.923ZM29.0027 241.889C28.9516 242.855 28.1607 242.352 27.0773 242.223C24.7806 241.916 22.4108 242.653 22.1389 242.442C21.5689 242.134 22.3349 238.905 25.5729 238.925C27.5935 238.922 29.1421 240.745 29.0041 241.878L29.0027 241.889ZM38.5123 240.035C40.6833 240.782 40.6102 245.17 37.1804 245.93C37.0824 245.849 35.9023 245.007 35.6732 244.882C36.1962 244.354 36.5384 243.674 36.6504 242.94C36.7211 242.885 36.7858 242.822 36.8436 242.754C36.886 242.892 36.9691 243.014 37.0818 243.103C37.1946 243.193 37.3319 243.247 37.4758 243.258C37.5392 243.216 37.6883 243.517 37.6027 243.695C37.4357 244.099 36.7194 244.462 36.8257 244.678C36.9195 244.953 37.9864 244.833 38.366 243.988C38.4306 243.839 38.4623 243.677 38.4588 243.515C38.4554 243.353 38.4169 243.193 38.346 243.047C38.2751 242.901 38.1734 242.772 38.048 242.668C37.9226 242.565 37.7763 242.49 37.6193 242.449C37.7573 242.25 38.3577 242.104 38.5675 242.424C38.9194 242.994 39.1499 242.761 39.1196 242.252C39.0671 241.366 37.9119 241.197 37.219 241.711C37.2287 241.321 37.1455 240.935 36.9761 240.585C36.8974 240.422 37.7366 239.758 38.5095 240.024L38.5123 240.035ZM19.7429 228.398C19.8491 228.038 20.2218 226.389 20.5917 226.308C21.6338 225.55 23.7455 231.828 25.5411 226.682C25.588 226.544 26.0932 225.14 26.2878 225.175C26.7957 224.377 27.9689 232.519 27.6542 233.809C27.6238 233.947 27.6169 233.856 17.674 235.546C17.7678 235.809 17.2599 234.518 17.155 234.241C17.431 234.198 26.7516 232.393 26.7101 232.057C26.6591 231.615 20.5185 232.377 16.9907 233.819C12.0855 221.177 18.0576 234.114 19.7429 228.398ZM16.1267 244.112C18.2619 244.341 19.0583 242.862 18.3599 243.096C15.7251 243.983 12.0192 241.302 12.9882 238.275C13.6783 236.119 16.389 236.276 18.0549 237.454C19.4351 238.448 19.6007 239.69 19.8119 239.644C19.903 239.637 19.9996 239.326 19.9044 238.76C19.7235 238.038 19.3745 237.369 18.8858 236.808C28.7418 235.029 28.4009 235.097 28.6466 234.738C29.0043 233.666 29.0672 232.517 28.8288 231.412C30.26 230.584 31.2469 229.618 32.5995 230.054C34.2847 230.706 30.4712 233.714 31.1862 234.153C31.3311 234.325 32.2765 233.551 33.8596 232.657C35.3985 231.84 36.9154 231.724 36.2446 233.31C35.7726 234.473 34.9596 234.514 34.5442 235.551C33.8417 237.258 35.8126 237.271 36.1687 239.414C35.7065 238.932 35.1402 238.563 34.5131 238.333C33.886 238.103 33.2147 238.02 32.5505 238.089C31.8862 238.159 31.2466 238.379 30.6806 238.733C30.1145 239.087 29.6369 239.566 29.2842 240.133C28.8195 239.409 28.1487 238.84 27.3579 238.499C26.5672 238.159 25.6927 238.062 24.8468 238.223C24.0009 238.383 23.2223 238.793 22.6111 239.399C22 240.005 21.5841 240.781 21.4171 241.625C21.3867 242.039 21.2942 242.781 21.9208 243.045C21.8737 243.729 22.0421 244.41 22.4023 244.993C22.7625 245.576 23.2964 246.032 23.929 246.296C24.4411 246.503 24.172 246.102 22.6013 247.621C21.879 248.303 21.307 249.129 20.9218 250.045C20.5366 250.961 20.3466 251.947 20.364 252.941C20.3543 254.3 21.1562 254.772 19.7539 253.734C16.6857 251.497 15.9832 247.902 16.1267 244.112ZM18.3585 263.188C19.5102 262.407 20.8307 261.911 22.2116 261.74C23.5925 261.569 24.9942 261.728 26.3016 262.204C31.9218 264.101 33.3407 267.822 33.774 267.636C34.0749 267.511 33.2785 265.228 30.9998 263.585C25.2444 259.328 19.7926 260.385 17.8106 262.977C15.3869 262.047 13.2463 261.256 11.5224 260.653C13.0944 257.195 15.939 256.099 19.6118 255.169C20.2432 255.502 20.9092 255.765 21.5979 255.953C23.7275 258.522 26.5666 258.778 29.6804 259.265C31.3403 259.57 33.043 259.559 34.6988 259.232C37.3943 262.486 37.9988 267.172 38.2473 271.403C32.3372 268.77 24.5474 265.573 18.3585 263.188Z" fill="#402E32"/>
    <path d="M46.3685 229.574C46.6776 228.8 8.98561 212.978 8.65022 213.732C8.06777 215.042 45.8426 230.874 46.3685 229.574Z" fill="#402E32"/>
    <path d="M115.158 259.029C115.504 267.074 116.368 275.993 122.337 281.394C127.345 285.918 134.583 286.694 140.998 288.773C156.967 293.948 156.023 300.859 219.562 323.059C233.576 327.956 236.093 326.519 245.861 322.161C259.611 316.024 272.581 311.243 285.557 303.61C292.081 299.769 300.309 297.374 306.967 293.767C318.253 287.653 331.718 286.329 342.773 279.807C346.574 277.566 347.708 273.904 348.973 269.688C349.766 266.398 349.79 262.971 349.042 259.67C346.247 242.08 350.47 224.501 348.92 206.757C347.136 186.308 352.683 165.817 348.648 145.695C347.736 143.333 346.235 141.244 344.287 139.624C342.191 137.646 338.943 137.625 336.352 136.36C334.019 135.501 331.796 134.369 329.729 132.987C322.647 127.186 304.391 126.216 266.697 107.589C259.33 103.948 244.526 98.0791 236.384 96.9196C223.635 95.1045 218.948 100.366 207.159 105.542C181.416 116.848 165.162 123.899 151.009 130.565C136.543 137.381 120.069 137.056 117.537 150.048C116.836 153.632 115.183 186.065 114.94 192.702C114.155 214.312 114.184 236.452 115.158 259.029Z" fill="#FFF4CC"/>
    <path d="M248.54 296.592C244.159 297.068 243.209 298.523 243.012 301.337C242.732 305.343 243.969 309.702 244.721 310.309C244.997 310.467 245.306 310.561 245.624 310.583C245.941 310.604 246.26 310.554 246.555 310.436C259.71 307.261 259.393 306.768 259.395 303.199C259.395 301.748 259.376 296.356 258.411 295.26C256.496 293.078 248.91 295.841 246.254 297.368L248.54 296.592Z" fill="#FFAA9C"/>
    <path d="M351.988 149.614C352.105 146.839 351.363 144.095 349.862 141.756C348.361 139.417 346.174 137.597 343.599 136.544L239.188 95.0728C231.885 92.1721 236.587 91.9107 123.133 138.215C120.526 139.233 118.274 140.988 116.653 143.267C115.033 145.545 114.114 148.247 114.011 151.039V271.138C113.9 273.867 114.618 276.566 116.071 278.881C117.523 281.195 119.643 283.017 122.151 284.107L226.566 327.916C228.302 328.64 230.165 329.009 232.046 329C233.927 328.991 235.787 328.605 237.516 327.866L343.107 282.427C345.648 281.375 347.834 279.617 349.406 277.363C350.977 275.108 351.869 272.452 351.975 269.707L351.988 149.614ZM346.777 235.697L313.183 250.093V211.462L346.777 196.945V235.697ZM270.666 268.389V229.756L309.579 213.005C310.461 213.349 310.233 205.964 310.233 251.356L270.666 268.389ZM310.233 254.571V290.963L270.666 307.992V271.598L310.233 254.571ZM232.043 285.014C193.547 268.87 197.394 271.124 197.394 269.037L232.928 254.535L267.615 268.311C267.769 267.93 267.717 267.759 267.717 269.661L232.043 285.014ZM234.197 128.847L268.825 144.462C260.782 148.229 250.916 152.894 235.301 160.302C232.064 161.835 238.399 163.665 197.392 145.027L234.197 128.847ZM193.8 143.393C183.074 138.525 171.444 133.289 160.607 128.491L197.881 113.279L230.084 127.439L193.8 143.393ZM237.121 126.933L269.119 112.509L306.367 127.3C290.721 134.355 282.685 137.998 272.36 142.815L237.121 126.933ZM310.233 209.522C309.233 209.944 313.453 211.382 273.437 195.487V146.536L310.233 163.125V209.522ZM267.717 265.177L234.395 251.942V215.05L267.717 228.283V265.177ZM197.455 183.021C198.707 180.175 194.621 183.854 226.218 167.993C228.329 166.938 230.098 166.009 231.517 165.315V211.595C231.517 212.073 234.171 210.791 197.394 225.801C197.394 181.141 197.244 182.929 197.455 183.021ZM234.471 210.216V163.924C243.827 159.497 261.194 151.292 270.487 146.939V195.508L234.471 210.216ZM234.395 211.786L234.442 211.905L234.395 211.886V211.786ZM197.394 228.982L231.446 215.086V251.959L197.394 265.853V228.982ZM270.968 226.421L236.266 212.64L271.961 198.073L305.694 211.472L270.968 226.421ZM273.352 146.498C271.029 146.498 271.006 146.696 272.372 146.058L273.352 146.498ZM229.6 163.011C223.143 166.19 210.538 172.746 196.009 179.168L157.881 162.41L193.777 146.625C209.913 153.942 223.823 160.346 229.6 163.011ZM194.444 181.697V227.401L155.688 211.139V164.655L194.444 181.697ZM152.738 209.902L119.29 195.866C119.636 146.918 119.501 150.438 119.892 148.916L152.738 163.359V209.902ZM119.125 199.051L152.738 213.096V251.742L119.125 237.581V199.051ZM155.688 214.333L194.444 230.595C194.444 270.382 194.357 267.567 194.444 267.778C194.444 269.874 200.293 271.697 155.688 252.979V214.333ZM194.444 272.435V308.846L155.688 292.586V256.175L194.444 272.435ZM346.937 193.728L313.183 208.253V162.573L346.982 147.337C347.379 148.918 347.279 145.571 346.937 193.728ZM345.791 144.643C307.748 161.793 311.464 159.821 311.817 160.608L275.896 144.413C285.709 139.853 294.045 136.082 310.168 128.813C344.883 142.594 343.757 141.58 345.791 144.643ZM230.681 99.8941C235.115 98.0874 235.453 99.1373 265.309 110.995L233.065 125.541L201.676 111.729L230.681 99.8941ZM156.819 130.04C167.571 134.785 179.269 140.043 190.181 144.987L154.224 160.798L121.095 146.228C123.103 143.245 121.925 144.28 156.819 130.038V130.04ZM118.868 271.174V240.767L152.746 254.938V291.349L124.146 279.356C122.549 278.674 121.193 277.53 120.252 276.072C119.311 274.614 118.829 272.908 118.868 271.174ZM197.394 310.084V273.674L230.736 287.721V323.74C229.222 323.502 231.384 324.347 197.394 310.084ZM233.688 323.713V287.453L267.727 272.875V309.262C232.641 324.354 235.126 323.453 233.688 323.713ZM341.07 277.695L313.183 289.694V253.302L346.509 238.914V269.669C346.474 271.388 345.942 273.06 344.977 274.484C344.012 275.909 342.655 277.023 341.07 277.695Z" fill="#402E32"/>
    <path d="M260.072 297.772C260.133 296.538 259.818 295.314 259.169 294.262C258.767 293.802 258.242 293.466 257.656 293.294C257.07 293.121 256.447 293.119 255.86 293.288C256.411 285.277 243.29 286.344 244.582 296.646C241.033 298.432 241.607 303.114 242.023 307.303C242.025 308.169 242.288 309.014 242.778 309.728C243.267 310.442 243.961 310.993 244.768 311.308C246.773 311.619 248.824 311.298 250.638 310.391C258.786 307.56 260.868 307.982 260.072 297.772ZM247.013 293.459C248.068 290.718 253.586 288.431 253.892 293.83C245.007 296.404 248.077 295.493 246.447 295.938C246.523 295.09 246.713 294.256 247.013 293.459ZM249.969 308.134C247.448 308.861 245.676 309.624 244.901 308.334C244.479 307.642 243.48 300.437 245.535 299.058C245.927 298.812 255.19 295.896 255.583 295.78C257.752 294.952 257.722 295.742 258.026 297.987C259.228 306.753 257.802 305.747 249.977 308.134H249.969Z" fill="#402E32"/>
    <path d="M251.558 299.889C249.835 299.842 250.122 305.323 251.834 305.096C253.547 304.868 253.285 299.937 251.558 299.889Z" fill="#402E32"/>
    <path d="M194.88 242.771C193.921 232.001 196.78 184.67 195.327 182.068C194.536 180.656 190.682 179.199 181.25 174.901C177.977 173.41 174.339 172.812 171.086 171.235C165.486 168.524 161.62 166.386 156.107 163.5C153.476 162.128 148.505 161.946 146.058 160.275C138.385 155.442 130.162 151.537 121.565 148.644C118.434 147.7 117.277 149.135 116.677 152.228C116.335 153.986 116.747 153.253 116.704 155.013C116.398 167.661 115.83 158.649 116.377 178.756C116.685 190.073 117.141 192.137 116.037 195.099C118.719 225.614 110.868 233.888 122.918 241.884C131.299 247.441 154.624 251.891 171.82 260.929C178.366 264.371 185.055 267.862 192.354 269.083C193.892 269.34 195.045 268.994 195.359 265.986C196.03 262.208 196.349 258.376 196.311 254.539C195.986 250.654 194.88 246.674 194.88 242.771Z" fill="white"/>
    <path d="M128.547 234.103C123.353 231.955 124.899 231.474 125.994 161.519C128.568 161.373 130.652 163.679 132.935 164.873C163.784 180.996 184.776 185.832 185.578 187.05C185.977 187.657 184.829 253.245 184.523 254.248C183.425 257.895 182.183 255.302 180.933 255.092C178.728 254.591 176.598 253.803 174.599 252.747C167.876 249.849 160.612 247.766 153.889 244.867C140.285 239.007 148.136 242.209 128.547 234.103Z" fill="#FFAA9C"/>
    <path d="M138.081 212.566C138.157 211.7 138.388 207.941 137.674 207.425C136.658 207.135 135.709 206.647 134.884 205.988C134.059 205.329 133.374 204.512 132.868 203.586C132.485 202.891 132.285 202.111 132.286 201.318C132.288 200.524 132.49 199.745 132.875 199.051C133.261 198.357 133.816 197.773 134.489 197.351C135.162 196.93 135.931 196.686 136.724 196.642C137.311 196.536 139.754 196.431 139.863 196.741C135.885 185.667 132.566 180.175 142.296 186.474C144.38 182.075 144.388 181.921 144.861 181.556C147.762 179.315 149.604 187.014 152.252 183.599C153.096 182.52 153.164 180.361 153.639 179.714C154.181 178.976 156.052 178.917 156.451 181.672C156.711 183.474 156.113 187.552 158.297 187.914C159.2 187.904 160.076 187.608 160.801 187.071C164.004 185.424 166.35 187.535 165.98 188.968C165.86 189.434 165.347 189.972 165.649 190.457C166.99 189.608 168.609 189.314 170.163 189.637C170.557 189.971 170.832 190.423 170.946 190.927C171.06 191.43 171.008 191.957 170.797 192.428C169.967 194.392 168.052 194.536 168.077 195.921C168.077 196.342 168.043 196.182 169.882 199.966C170.457 200.471 170.817 201.175 170.892 201.935C173.869 201.935 174.2 201.533 175.581 203.462C176.057 204.188 176.36 205.013 176.469 205.874C176.578 206.735 176.488 207.61 176.208 208.431C175.928 209.253 175.464 210 174.852 210.616C174.239 211.232 173.495 211.701 172.674 211.987C168.525 213.351 173.989 213.72 172.722 222.07C172.262 225.095 172.414 229.286 169.614 230.502C168.656 230.924 168.09 231.251 169.15 232.707C170.594 234.691 171.42 234.227 172.528 238.713C173.169 240.699 173.332 242.807 173.005 244.867C172.705 249.227 174.895 252.524 173.018 252.016C169.211 251.218 165.582 249.73 162.313 247.624C162.102 247.53 148.242 242.801 132.572 235.446C127.765 233.188 135.231 226.044 142.285 225.538C144.703 225.365 143.221 223.887 141.652 222.268C136.933 217.356 137.87 214.991 138.081 212.566Z" fill="#FFF9EA"/>
    <path d="M138.273 199.89C136.046 199.836 134.944 201.984 135.414 202.19C135.693 202.344 136.652 201.098 138.24 201.136C138.564 201.145 138.883 201.223 139.175 201.366C138.785 201.486 138.437 201.715 138.174 202.027C137.91 202.338 137.741 202.718 137.688 203.122C137.634 203.526 137.697 203.937 137.87 204.306C138.043 204.675 138.319 204.987 138.664 205.205C139.371 205.593 139.874 205.388 139.865 205.234C139.891 204.922 138.322 204.319 139.021 202.934C139.221 202.513 139.329 202.61 139.494 202.662C142.8 204.17 142.239 204.29 141.717 202.54C141.486 201.798 141.032 201.145 140.415 200.671C139.799 200.197 139.051 199.924 138.273 199.89Z" fill="#402E32"/>
    <path d="M197.914 183.607C197.914 176.206 193.691 178.925 123.833 146.755C122.868 146.308 121.807 146.11 120.745 146.18C119.684 146.25 118.657 146.586 117.76 147.156C113.584 149.793 114.973 146.536 114.192 235.161C114.177 236.425 114.54 237.665 115.235 238.722C115.93 239.778 116.926 240.603 118.094 241.091C194.147 273 191.151 273.059 195.212 270.371C199.272 267.683 197.94 270.936 197.914 183.607ZM190.936 266.861C114.838 234.929 119.521 237.037 119.04 236.437C121.445 235.45 124.595 232.783 123.991 232.01C123.387 231.236 119.504 233.715 118.624 234.35C119.257 146.863 119.173 152.369 119.314 151.922C120.184 153.925 124.295 161.242 125.37 160.538C126.356 159.891 122.657 153.274 120.6 150.668C121.51 150.386 116.43 148.349 191.757 181.571C190.182 182.203 184.829 184.891 185.294 185.903C185.805 187.012 191.694 184.071 193.383 182.99C193.529 183.43 193.548 177.62 193.626 265.071C193.626 266.336 193.615 264.932 190.404 261.344C186.215 256.639 179.762 252.701 188.753 262.82C190.193 264.428 191.521 265.86 192.541 266.825C192.292 266.948 192.019 267.014 191.742 267.021C191.465 267.027 191.19 266.972 190.936 266.861Z" fill="#402E32"/>
    <path d="M126.891 196.64C127.245 149.873 124.642 149.781 124.291 196.551C124.095 203.276 124.158 231.609 124.418 231.641C126.403 231.9 126.867 197.388 126.891 196.64Z" fill="#402E32"/>
    <path d="M184.435 255.247C186.261 255.458 186.702 222.428 186.738 221.083C187.087 175.447 184.483 175.354 184.139 220.997C184.023 225.232 183.934 255.195 184.435 255.247Z" fill="#402E32"/>
    <path d="M174.255 251.373C175.014 245.421 173.883 239.383 171.021 234.107C168.983 230.812 168.398 231.837 169.648 231.156C172.864 229.406 173.324 226.484 173.286 222.863C173.797 221.3 173.986 219.651 173.841 218.014C173.695 216.377 173.22 214.786 172.442 213.338C171.975 212.564 173.195 213.549 175.489 211.411C180.106 207.265 176.314 199.037 171.411 200.959C170.801 197.331 168.187 197.555 169.483 196.189C169.937 195.812 170.355 195.394 170.731 194.941C173.396 191.418 171.728 187.722 167.473 188.924C165.909 189.47 166.884 189.609 166.749 187.965C166.58 185.69 163.476 183.586 158.839 186.742C157.763 187.512 158.043 187.585 157.784 186.148C157.338 183.645 156.783 180.112 155.562 179.069C154.904 178.396 153.829 178.204 152.777 179.657C152.159 180.659 151.669 181.734 151.318 182.857C150.634 184.518 150.356 183.045 148.44 181.082C146.724 179.322 144.64 179.296 143.468 181.423C143.025 182.37 142.681 183.359 142.44 184.375C142.383 184.631 142.277 184.874 142.127 185.089C140.683 184.756 139.243 182.623 137.176 182.387C132.625 182.104 136.24 189.013 138.721 195.609C130.818 194.161 128.312 205.61 137.313 208.648C136.221 214.63 137.471 220.773 142.169 224.543C136.65 225.247 131.707 228.295 130.451 233.776C103.635 224.665 182.452 258.464 183.426 256.143C183.565 255.781 180.022 253.97 174.255 251.373ZM168.588 229.301C164.441 231.588 147.488 229.921 147.298 222.435C147.205 218.771 148.776 215.36 153.478 212.558C153.311 213.167 153.336 213.814 153.551 214.408C153.766 215.002 154.161 215.515 154.68 215.876C157.773 217.527 159.255 215.514 160.007 218.965C160.125 219.485 160.334 219.766 160.482 219.73C160.63 219.694 160.733 219.441 160.869 218.979C162.594 213.077 152.934 215.706 156.05 212.234C157.437 210.633 165.727 210.412 168.35 212.516C171.107 214.746 165.165 214.472 164.061 217.057C163.639 218.065 163.772 220.093 164.127 220.194C164.608 220.333 164.906 218.476 165.421 217.828C166.449 216.536 170.294 217.251 171.122 214.245C171.782 215.918 172.02 217.728 171.815 219.515C171.325 225.74 167.737 224.857 161.99 224.596C133.768 222.612 164.889 228.213 169.619 226.581C171.139 226.096 171.333 225.241 170.885 226.581C170.7 227.162 170.402 227.701 170.007 228.166C169.613 228.632 169.131 229.015 168.588 229.294V229.301ZM151.287 211.31C150.583 210.911 149.98 210.357 149.524 209.69C149.067 209.023 148.77 208.26 148.654 207.461C152.72 207.155 152.152 207.113 152.167 207.317C152.25 208.5 152.051 209.092 153.54 208.901C155.028 208.709 154.728 208.116 154.657 207.189C157.37 207.469 157.539 207.984 158.457 207.61C158.084 209.404 158.065 209.017 157.028 209.278C155.946 209.505 154.972 210.087 154.26 210.931C153.609 211.172 152.975 211.454 152.359 211.774C151.991 211.644 151.632 211.487 151.287 211.304V211.31ZM162.152 208.789C157.902 208.823 159.583 209.529 159.312 207.237C159.785 207.322 162.742 207.039 163.833 206.972C163.744 207.182 163.869 207.528 163.949 208.264C164.006 208.783 166.521 209.067 166.434 208.053C166.401 207.684 166.35 207.357 166.308 207.06C167.207 207.176 169.002 207.581 169.072 207.583C167.167 210.861 168.103 208.888 162.152 208.789ZM169.621 204.1C170.267 205.507 169.566 206.552 168.987 206.358C166.566 205.723 164.031 205.651 161.578 206.147C157.959 206.544 160.767 206.74 159.496 203.828C160.008 202.924 160.757 202.176 161.663 201.665C162.568 201.153 163.596 200.897 164.636 200.924C165.676 200.951 166.689 201.261 167.566 201.819C168.443 202.377 169.152 203.162 169.616 204.092L169.621 204.1ZM158.561 205.576C158.483 207.052 157.273 206.284 155.615 206.086C152.102 205.618 148.476 206.744 148.06 206.421C147.188 205.951 148.36 201.018 153.314 201.048C156.405 201.044 158.774 203.828 158.563 205.559L158.561 205.576ZM173.109 202.745C176.43 203.885 176.318 210.589 171.071 211.751C170.921 211.626 169.116 210.34 168.766 210.149C169.566 209.343 170.089 208.304 170.26 207.182C170.369 207.098 170.468 207.003 170.556 206.898C170.621 207.108 170.748 207.295 170.921 207.432C171.093 207.569 171.303 207.651 171.523 207.667C171.62 207.604 171.848 208.064 171.717 208.336C171.462 208.953 170.366 209.508 170.529 209.837C170.672 210.258 172.304 210.075 172.885 208.783C172.984 208.555 173.032 208.309 173.027 208.061C173.022 207.813 172.963 207.569 172.854 207.345C172.746 207.122 172.59 206.925 172.399 206.767C172.207 206.61 171.983 206.495 171.743 206.432C171.954 206.128 172.872 205.905 173.193 206.394C173.732 207.265 174.084 206.908 174.038 206.131C173.958 204.777 172.19 204.52 171.13 205.304C171.145 204.709 171.018 204.12 170.759 203.584C170.638 203.335 171.922 202.321 173.105 202.728L173.109 202.745ZM144.395 184.967C144.557 184.417 145.128 181.898 145.693 181.773C147.288 180.616 150.518 190.206 153.265 182.345C153.337 182.134 154.11 179.99 154.407 180.043C155.185 178.824 156.979 191.262 156.498 193.233C156.451 193.444 156.441 193.305 141.23 195.887C141.373 196.288 140.596 194.317 140.436 193.893C140.858 193.828 155.117 191.07 155.054 190.556C154.975 189.881 145.581 191.045 140.185 193.248C132.68 173.935 141.817 193.699 144.395 184.967ZM138.863 208.972C142.129 209.322 143.348 207.062 142.279 207.421C138.248 208.776 132.579 204.68 134.061 200.055C135.117 196.762 139.264 197.002 141.812 198.801C143.924 200.321 144.177 202.218 144.5 202.146C144.64 202.136 144.788 201.661 144.642 200.797C144.365 199.694 143.831 198.672 143.084 197.814C158.162 195.097 157.64 195.2 158.016 194.652C158.563 193.014 158.66 191.259 158.295 189.571C160.484 188.306 161.994 186.831 164.063 187.497C166.641 188.492 160.807 193.088 161.901 193.758C162.123 194.022 163.569 192.839 165.991 191.473C168.345 190.225 170.666 190.048 169.64 192.47C168.918 194.247 167.674 194.31 167.038 195.894C165.964 198.501 168.979 198.522 169.524 201.796C168.816 201.06 167.95 200.495 166.991 200.144C166.031 199.793 165.004 199.666 163.988 199.772C162.972 199.878 161.994 200.214 161.128 200.755C160.262 201.297 159.531 202.028 158.992 202.895C158.281 201.788 157.254 200.918 156.045 200.398C154.835 199.878 153.497 199.731 152.203 199.976C150.909 200.221 149.718 200.847 148.783 201.773C147.848 202.699 147.212 203.883 146.956 205.173C146.91 205.806 146.768 206.94 147.727 207.343C147.655 208.387 147.912 209.428 148.463 210.319C149.014 211.21 149.831 211.906 150.799 212.309C151.582 212.626 151.171 212.012 148.768 214.333C147.663 215.376 146.788 216.637 146.198 218.036C145.609 219.436 145.318 220.942 145.345 222.46C145.33 224.536 146.557 225.257 144.412 223.672C139.718 220.255 138.643 214.763 138.863 208.972ZM142.277 238.115C144.039 236.922 146.059 236.164 148.172 235.903C150.284 235.641 152.428 235.884 154.429 236.612C163.027 239.51 165.197 245.194 165.86 244.909C166.32 244.72 165.102 241.231 161.616 238.722C152.811 232.218 144.471 233.833 141.439 237.792C137.731 236.371 134.456 235.163 131.819 234.242C134.224 228.959 138.576 227.285 144.194 225.865C145.16 226.373 146.179 226.775 147.233 227.062C150.491 230.987 154.834 231.377 159.597 232.121C162.137 232.587 164.742 232.57 167.275 232.071C171.399 237.042 172.323 244.201 172.703 250.664C163.662 246.642 151.745 241.758 142.277 238.115Z" fill="#402E32"/>
    <path d="M185.127 186.763C185.6 185.581 127.938 161.409 127.425 162.562C126.534 164.563 184.323 188.749 185.127 186.763Z" fill="#402E32"/>
</svg>
