<svg width="49" height="48" viewBox="0 0 49 48" fill="none" xmlns="http://www.w3.org/2000/svg">
    <circle cx="24.5" cy="24" r="24" fill="black"/>
    <path d="M33.7411 15.5218C32.0415 14.7419 30.2189 14.1674 28.3132 13.8383C28.2785 13.8319 28.2438 13.8478 28.226 13.8796C27.9916 14.2965 27.7319 14.8404 27.5501 15.2678C25.5004 14.961 23.4613 14.961 21.4537 15.2678C21.2718 14.8309 21.0028 14.2965 20.7673 13.8796C20.7494 13.8489 20.7147 13.833 20.68 13.8383C18.7754 14.1663 16.9528 14.7409 15.2521 15.5218C15.2374 15.5282 15.2248 15.5388 15.2164 15.5525C11.7593 20.7173 10.8123 25.7552 11.2769 30.7307C11.279 30.755 11.2926 30.7783 11.3115 30.7931C13.5924 32.4681 15.8019 33.485 17.9703 34.1591C18.005 34.1697 18.0418 34.157 18.0639 34.1284C18.5768 33.4279 19.034 32.6893 19.4261 31.9126C19.4492 31.8671 19.4271 31.8132 19.3798 31.7952C18.6546 31.5201 17.964 31.1846 17.2997 30.8037C17.2471 30.773 17.2429 30.6979 17.2913 30.6619C17.4311 30.5571 17.5709 30.4481 17.7044 30.3381C17.7285 30.318 17.7622 30.3137 17.7906 30.3264C22.1547 32.319 26.8795 32.319 31.1922 30.3264C31.2206 30.3127 31.2542 30.3169 31.2794 30.337C31.4129 30.4471 31.5527 30.5571 31.6936 30.6619C31.7419 30.6979 31.7388 30.773 31.6862 30.8037C31.0219 31.192 30.3313 31.5201 29.605 31.7941C29.5577 31.8121 29.5367 31.8671 29.5598 31.9126C29.9603 32.6882 30.4175 33.4268 30.921 34.1273C30.942 34.157 30.9798 34.1697 31.0145 34.1591C33.1935 33.485 35.4029 32.4681 37.6838 30.7931C37.7038 30.7783 37.7164 30.7561 37.7185 30.7317C38.2745 24.9796 36.7872 19.983 33.7758 15.5536C33.7684 15.5388 33.7558 15.5282 33.7411 15.5218ZM20.0778 27.7012C18.7639 27.7012 17.6812 26.4949 17.6812 25.0135C17.6812 23.532 18.7429 22.3258 20.0778 22.3258C21.4232 22.3258 22.4953 23.5426 22.4743 25.0135C22.4743 26.4949 21.4127 27.7012 20.0778 27.7012ZM28.9386 27.7012C27.6247 27.7012 26.5421 26.4949 26.5421 25.0135C26.5421 23.532 27.6037 22.3258 28.9386 22.3258C30.284 22.3258 31.3561 23.5426 31.3351 25.0135C31.3351 26.4949 30.284 27.7012 28.9386 27.7012Z" fill="white"/>
</svg>
