<svg width="163" height="300" viewBox="0 0 163 300" fill="none" xmlns="http://www.w3.org/2000/svg">
    <path d="M144.597 206.654C142.342 210.127 140.722 213.971 139.812 218.008C138.052 226.023 140.267 230.184 140.736 240.402C141.077 247.836 141.405 254.681 138.527 261.874C133.689 274.037 122.741 279.747 121.422 280.408C103.575 289.391 85.4929 278.845 84.2549 278.097C84.2549 269.936 84.2549 261.774 84.2549 253.613C85.8208 254.828 92.747 259.924 101.721 258.568C108.808 257.5 113.098 253.032 115.701 250.313C127.914 237.57 125.07 219.591 124.835 218.202C124.094 214.015 122.658 209.981 120.586 206.267L144.597 206.654Z" fill="#FFF9EA"/>
    <path d="M144.597 206.654C142.342 210.127 140.722 213.971 139.812 218.008C138.052 226.023 140.267 230.184 140.736 240.402C141.077 247.836 141.405 254.681 138.527 261.874C133.689 274.037 122.741 279.747 121.422 280.408C103.575 289.391 85.4929 278.845 84.2549 278.097C84.2549 269.936 84.2549 261.774 84.2549 253.613C85.8208 254.828 92.747 259.924 101.721 258.568C108.808 257.5 113.098 253.032 115.701 250.313C127.914 237.57 125.07 219.591 124.835 218.202C124.094 214.015 122.658 209.981 120.586 206.267L144.597 206.654Z" stroke="#402E32" stroke-width="4" stroke-miterlimit="10"/>
    <path d="M136.801 184.294C146.986 188.775 165.088 208.337 160.169 214.081C156.154 216.479 148.264 213.974 130.008 213.921C113.064 213.867 105.843 215.985 102.39 213.754C97.5787 208.598 124.447 178.864 136.801 184.294Z" fill="#FFC43B"/>
    <path opacity="0.4" d="M102.39 213.754C97.706 208.758 122.808 180.68 135.61 183.886C135.233 186.097 134.976 188.326 134.84 190.565C134.394 198.517 135.417 206.484 137.858 214.068C128.675 215.301 119.382 215.507 110.153 214.682C107.47 214.462 104.873 214.141 102.39 213.754Z" fill="#FFC43B"/>
    <path d="M136.801 184.294C146.986 188.775 165.088 208.337 160.169 214.081C156.154 216.479 148.264 213.974 130.008 213.921C113.064 213.867 105.843 215.985 102.39 213.754C97.5787 208.598 124.447 178.864 136.801 184.294Z" stroke="#402E32" stroke-width="4" stroke-miterlimit="10"/>
    <path d="M17.7561 169.894C19.7575 173.97 21.155 178.314 21.9052 182.791C23.431 191.874 21.5103 196.589 21.1088 208.17C20.8077 216.599 20.54 224.353 23.0228 232.508C27.2187 246.299 36.7147 252.764 37.859 253.519C53.3444 263.704 69.0372 251.749 70.1079 250.901V223.151C68.7695 224.527 62.7467 230.297 54.9505 228.761C48.8072 227.552 45.0864 222.49 42.8245 219.411C32.1708 204.964 34.6736 184.554 34.8476 183.011C35.4579 178.356 36.696 173.804 38.5282 169.48L17.7561 169.894Z" fill="#FFF9EA"/>
    <path d="M17.7562 169.894C19.7575 173.97 21.155 178.314 21.9052 182.791C23.431 191.874 21.5103 196.589 21.1088 208.17C20.8077 216.599 20.54 224.353 23.0228 232.508C27.2187 246.299 36.7147 252.764 37.859 253.519C53.3444 263.704 69.0372 251.749 70.1079 250.901V223.151C68.7695 224.527 62.7467 230.297 54.9505 228.761C48.8072 227.552 45.0864 222.49 42.8245 219.411C32.1708 204.964 34.6736 184.554 34.8476 183.011C35.4579 178.356 36.696 173.804 38.5282 169.48L17.7562 169.894Z" stroke="#402E32" stroke-width="4" stroke-miterlimit="10"/>
    <path d="M22.9961 129.988C14.1626 136.861 -1.54356 166.855 2.71926 175.665C6.19912 179.338 13.0517 175.498 28.8918 175.411C43.6143 175.331 49.858 178.583 52.856 175.164C57.0251 167.256 33.7101 121.653 22.9961 129.988Z" fill="#FFC43B"/>
    <path d="M52.8558 175.164C56.871 167.503 35.1353 124.452 24.0332 129.361C24.341 132.573 24.5753 136.006 24.7024 139.653C25.1034 151.722 24.2264 163.799 22.0858 175.685C29.514 174.449 34.7271 175.017 38.2136 175.805C40.788 176.494 43.4558 176.769 46.1169 176.62C48.4223 176.465 50.6925 175.974 52.8558 175.164Z" fill="#FFC43B"/>
    <path d="M22.9961 129.988C14.1626 136.861 -1.54356 166.855 2.71926 175.665C6.19912 179.338 13.0517 175.498 28.8918 175.411C43.6143 175.331 49.858 178.583 52.856 175.164C57.0251 167.256 33.7101 121.653 22.9961 129.988Z" stroke="#402E32" stroke-width="4" stroke-miterlimit="10"/>
    <path d="M77.3754 58.6992C76.5589 70.0532 75.4079 88.2796 74.7789 110.76C73.5676 153.725 75.5217 167.022 75.2005 188.348C75.0666 197.645 74.5714 204.47 74.2435 209.613C72.3162 239.768 67.8325 270.604 64.9081 288.87C66.9626 293.439 66.5477 295.168 65.8316 295.91C64.7207 297.079 62.9407 295.522 57.8681 295.723C54.4603 295.807 51.067 296.198 47.7297 296.892C45.8626 297.306 44.8789 297.813 43.1055 297.753C41.201 297.611 39.3541 297.038 37.705 296.077C31.2003 292.176 37.096 261.567 37.096 261.567C40.2279 245.305 39.987 228.554 42.5032 212.191C42.5032 212.191 50.0986 162.835 52.0126 109.391C52.4877 96.2874 52.7353 79.0428 52.0126 58.6992H77.3754Z" fill="#FFF9EA"/>
    <path opacity="0.6" d="M58.4841 58.6992C57.8149 68.4035 48.7271 207.416 48.7807 239.995C48.7807 242.186 48.7807 244.37 48.7807 244.37C48.8744 265.241 49.3428 282.719 49.8246 296.023C40.8707 296.912 40.2818 298.888 38.7226 297.092C26.7505 283.273 48.861 208.511 51.25 106.539C51.7653 84.7398 48.7405 69.806 48.4795 58.6992H58.4841Z" fill="#FFF9EA"/>
    <path d="M77.3754 58.6992C76.5723 70.2335 75.4615 88.4065 74.7789 110.76C71.6537 210.982 80.4604 286.252 69.5725 295.743C68.6289 296.558 68.3077 296.224 65.8316 295.93C63.1836 295.702 60.5239 295.64 57.8681 295.743C47.7631 295.936 41.3321 297.526 38.7155 296.651C25.1507 292.13 48.3922 199.742 52.0126 109.411C52.8825 87.8454 52.4743 70.1467 52.0126 58.7193L77.3754 58.6992Z" stroke="#402E32" stroke-width="4" stroke-miterlimit="10"/>
    <path d="M73.7484 4.38048C90.8197 20.5298 121.175 90.9777 112.924 111.669C106.198 120.304 92.9679 111.274 62.3652 111.081C33.9575 110.894 21.8583 118.521 16.063 110.486C7.99912 91.9194 53.0499 -15.2017 73.7484 4.38048Z" fill="#F9E1AB"/>
    <path opacity="0.4" d="M16.0632 110.486C18.1845 70.8041 34.3234 33.155 61.6159 4.22018C65.0891 2.55716 69.2315 1.14794 71.2859 2.88442C77.0745 7.80001 57.7345 30.5947 55.8942 57.1629C54.9707 70.4804 58.1762 88.4998 74.7858 110.76C62.3453 109.291 52.9765 110.473 46.6124 111.882C41.9279 112.917 36.5743 114.594 29.0926 113.886C24.5923 113.472 20.1906 112.324 16.0632 110.486Z" fill="#FFC43B"/>
    <path d="M73.7484 4.38048C90.8197 20.5298 121.175 90.9777 112.924 111.669C106.198 120.304 92.9679 111.274 62.3652 111.081C33.9575 110.894 21.8583 118.521 16.063 110.486C7.99912 91.9194 53.0499 -15.2017 73.7484 4.38048Z" stroke="#402E32" stroke-width="4" stroke-miterlimit="10"/>
    <path d="M106.037 135.124C105.234 142.972 104.123 155.341 103.434 170.522C100.349 238.712 109.122 289.925 98.2278 296.37C96.6953 297.279 96.7957 296.09 86.5234 296.37C73.2197 296.724 72.6709 298.721 70.9176 297.299C61.9302 290.012 78.2789 238.973 80.6746 169.594C81.1832 154.76 80.9356 142.645 80.6746 135.098L106.037 135.124Z" fill="#FFF9EA"/>
    <path opacity="0.6" d="M90.6725 135.125C90.0033 141.73 80.9156 236.315 80.9691 258.475C80.9691 259.971 80.9691 261.454 80.9691 261.454C81.0561 275.653 81.5245 287.548 82.0131 296.604C73.0524 297.205 72.4301 298.568 70.9043 297.326C61.9169 290.039 78.2655 239 80.6613 169.62C81.1698 154.787 80.9222 142.672 80.6613 135.125H90.6725Z" fill="#FFF9EA"/>
    <path d="M106.037 135.131C105.234 142.972 104.123 155.341 103.434 170.529C100.349 238.719 109.122 289.932 98.2278 296.377C98.015 296.495 97.7908 296.591 97.5586 296.664C94.4468 297.953 91.7365 298 88.9861 298C82.5684 298 79.363 298 75.4548 297.292C74.8592 297.185 71.0715 296.49 69.7867 295.923C58.9255 291.154 77.7167 230.504 80.6679 169.573C81.4174 154.052 80.9891 141.643 80.6679 135.084L106.037 135.131Z" stroke="#402E32" stroke-width="4" stroke-miterlimit="10"/>
    <path d="M102.404 98.164C119.475 109.157 149.823 157.091 141.579 171.17C134.853 177.047 121.623 170.903 91.0205 170.769C62.6129 170.642 50.5137 175.825 44.7251 170.368C36.6612 157.725 81.6919 84.8465 102.404 98.164Z" fill="#F9E1AB"/>
    <path opacity="0.4" d="M44.7251 170.368C36.9088 158.12 78.9548 89.3147 100.403 97.1689C95.8002 102.11 91.8695 107.634 88.7118 113.599C77.4156 135.145 80.2464 156.477 84.6966 170.829C60.7859 171.384 50.0653 175.404 44.7251 170.368Z" fill="#FFC43B"/>
    <path d="M102.404 98.164C119.475 109.157 149.823 157.091 141.579 171.17C134.853 177.047 121.623 170.903 91.0205 170.769C62.6129 170.642 50.5137 175.825 44.7251 170.368C36.6612 157.725 81.6919 84.8465 102.404 98.164Z" stroke="#402E32" stroke-width="4" stroke-miterlimit="10"/>
    <path d="M20.444 40.2318C21.6152 39.6284 22.1045 38.1228 21.5133 36.9419L20.571 35.0598C19.333 32.5873 19.09 31.3662 19.4137 29.7139L19.6475 28.5256C20.1148 26.0565 19.9986 24.4451 18.7976 22.0464C17.0053 18.4667 13.9217 17.6415 10.2252 19.5461C6.52862 21.4507 5.56954 24.7768 7.36181 28.3564L7.91613 29.4635C8.61825 30.8659 9.97705 31.3728 11.2214 30.7316C12.4658 30.0905 12.8453 28.6415 12.2171 27.3867L11.9215 26.7963C11.09 25.1356 11.2698 24.2073 12.2946 23.6793C13.2462 23.189 14.1093 23.5335 14.6636 24.6406C15.4581 26.2275 15.424 26.895 15.1532 28.0094L14.6657 29.9783C14.1782 31.9472 14.4414 33.6685 15.6609 36.1041L17.1945 39.1671C17.7858 40.348 19.2729 40.8353 20.444 40.2318ZM23.6775 46.69C25.1049 45.9545 25.6667 44.2259 24.9461 42.7867C24.2255 41.3474 22.5181 40.788 21.0907 41.5235C19.6634 42.2589 19.1016 43.9875 19.8222 45.4268C20.5428 46.866 22.2501 47.4254 23.6775 46.69Z" fill="#3A5AFF"/>
</svg>
