<svg xmlns="http://www.w3.org/2000/svg" width="20" height="20" viewBox="0 0 20 20" fill="none">
    <path d="M12.7737 10.2892L9.91158 10.9C9.61347 10.9637 9.30706 11.028 8.99753 11.0088C8.688 10.9897 8.36982 10.8682 8.2553 10.6578C8.19007 10.538 8.19685 10.4047 8.20476 10.2759C8.26001 9.3768 8.32703 8.47677 8.49612 7.58524C8.56619 7.21576 8.49598 7.5082 8.73166 6.40003M17.6059 13.7839C18.9081 11.6803 19.5247 9.05976 18.4496 6.85415C18.1524 6.24437 17.7364 5.68648 17.2737 5.16733C14.9251 2.53216 11.2079 0.87292 7.46253 1.0077C6.96618 1.02556 6.46645 1.07428 5.99609 1.21839C5.27766 1.43851 4.66322 1.86965 4.10206 2.33031C3.13074 3.12769 2.26131 4.05374 1.73915 5.14077C1.10377 6.46348 1.0168 7.94221 1.00219 9.3837C0.988843 10.7007 1.02908 12.0272 1.33309 13.3153C1.63711 14.6035 2.21885 15.8603 3.18405 16.8485C5.09622 18.8061 8.36562 19.4335 11.1438 18.7073C12.7557 18.2859 14.1977 17.463 15.3999 16.4013C16.2696 15.6333 17.0139 14.7402 17.6059 13.7839Z" stroke="black" stroke-opacity="0.5" stroke-width="2" stroke-linecap="round" stroke-linejoin="round"/>
</svg>