<svg width="280" height="127" viewBox="0 0 280 127" fill="none" xmlns="http://www.w3.org/2000/svg">
    <rect y="7" width="215" height="113" rx="20" fill="#FFC43B"/>
    <path d="M35.968 38.42L35.0811 38.8819L35.0848 38.8891L35.0887 38.8963L35.968 38.42ZM31.36 38.42L30.4731 37.9581L30.4693 37.9654L30.4656 37.9728L31.36 38.42ZM31.36 47.252L30.4734 47.7146L30.4795 47.7262L30.4858 47.7376L31.36 47.252ZM35.968 47.252L35.0974 46.7599L35.0938 46.7664L35.968 47.252ZM30.208 52.372L29.8301 53.2979L29.8366 53.3005L30.208 52.372ZM27.488 50.452L26.7274 51.1013L26.7359 51.1112L26.7447 51.121L27.488 50.452ZM25.728 47.252L24.7747 47.5539L24.7777 47.5635L24.7809 47.573L25.728 47.252ZM25.728 38.42L24.7793 38.1038L24.7761 38.1135L25.728 38.42ZM27.488 35.22L26.7366 34.5602L26.7354 34.5615L27.488 35.22ZM30.208 33.236L29.8208 32.314L29.8141 32.3169L30.208 33.236ZM37.12 33.236L36.7261 34.1552L36.7328 34.158L37.12 33.236ZM39.84 35.22L39.0794 35.8693L39.0879 35.8792L39.0967 35.889L39.84 35.22ZM41.632 38.42L40.6833 38.7362L40.6849 38.741L41.632 38.42ZM41.632 47.252L42.5791 47.573L42.5807 47.5682L41.632 47.252ZM39.84 50.452L39.0886 49.7922L39.0874 49.7935L39.84 50.452ZM37.12 52.372L36.7486 51.4435L36.7421 51.4462L37.12 52.372ZM37.8 42.772C37.8 40.8194 37.5155 39.1773 36.8473 37.9437L35.0887 38.8963C35.5299 39.7107 35.8 40.9699 35.8 42.772H37.8ZM36.8549 37.9581C36.5296 37.3335 36.1018 36.806 35.5467 36.4359C34.9842 36.061 34.345 35.884 33.664 35.884V37.884C33.9857 37.884 34.2318 37.963 34.4373 38.1C34.6502 38.242 34.873 38.4824 35.0811 38.8819L36.8549 37.9581ZM33.664 35.884C32.983 35.884 32.3438 36.061 31.7813 36.4359C31.2262 36.806 30.7984 37.3335 30.4731 37.9581L32.2469 38.8819C32.455 38.4824 32.6778 38.242 32.8907 38.1C33.0962 37.963 33.3423 37.884 33.664 37.884V35.884ZM30.4656 37.9728C29.8534 39.1972 29.592 40.8272 29.592 42.772H31.592C31.592 40.9622 31.8426 39.6908 32.2544 38.8672L30.4656 37.9728ZM29.592 42.772C29.592 44.8275 29.8485 46.5169 30.4734 47.7146L32.2466 46.7894C31.8475 46.0245 31.592 44.7272 31.592 42.772H29.592ZM30.4858 47.7376C31.175 48.9781 32.2577 49.692 33.664 49.692V47.692C33.0649 47.692 32.6117 47.4459 32.2342 46.7664L30.4858 47.7376ZM33.664 49.692C35.0703 49.692 36.153 48.9781 36.8422 47.7376L35.0938 46.7664C34.7163 47.4459 34.2631 47.692 33.664 47.692V49.692ZM36.8386 47.7441C37.521 46.5367 37.8 44.8342 37.8 42.772H35.8C35.8 44.7205 35.5244 46.0046 35.0974 46.7599L36.8386 47.7441ZM33.696 52.012C32.5524 52.012 31.5171 51.8186 30.5794 51.4435L29.8366 53.3005C31.0322 53.7787 32.3223 54.012 33.696 54.012V52.012ZM30.5859 51.4462C29.6826 51.0775 28.9002 50.5262 28.2313 49.783L26.7447 51.121C27.6118 52.0844 28.6428 52.8132 29.8301 53.2978L30.5859 51.4462ZM28.2486 49.8027C27.5961 49.0385 27.0672 48.0879 26.6751 46.931L24.7809 47.573C25.2421 48.9335 25.8865 50.1162 26.7274 51.1013L28.2486 49.8027ZM26.6813 46.9501C26.314 45.7901 26.12 44.4026 26.12 42.772H24.12C24.12 44.5547 24.3313 46.1539 24.7747 47.5539L26.6813 46.9501ZM26.12 42.772C26.12 41.2093 26.3131 39.8655 26.6799 38.7265L24.7761 38.1135C24.3323 39.4918 24.12 41.0494 24.12 42.772H26.12ZM26.6767 38.7362C27.0692 37.5587 27.5963 36.6148 28.2406 35.8785L26.7354 34.5615C25.8864 35.5319 25.2401 36.7213 24.7793 38.1038L26.6767 38.7362ZM28.2394 35.8798C28.9115 35.1144 29.6969 34.543 30.6019 34.1551L29.8141 32.3169C28.6285 32.825 27.6005 33.5762 26.7366 34.5602L28.2394 35.8798ZM30.5952 34.158C31.5289 33.7659 32.5585 33.564 33.696 33.564V31.564C32.3161 31.564 31.0205 31.8101 29.8208 32.314L30.5952 34.158ZM33.696 33.564C34.8099 33.564 35.8158 33.765 36.7261 34.1551L37.5139 32.3169C36.3335 31.811 35.0567 31.564 33.696 31.564V33.564ZM36.7328 34.158C37.6563 34.5459 38.4348 35.1142 39.0794 35.8693L40.6006 34.5707C39.7518 33.5765 38.717 32.8221 37.5072 32.314L36.7328 34.158ZM39.0967 35.889C39.758 36.6238 40.2926 37.5641 40.6833 38.7362L42.5807 38.1038C42.1181 36.7159 41.458 35.5229 40.5833 34.551L39.0967 35.889ZM40.6849 38.741C41.0694 39.8752 41.272 41.2138 41.272 42.772H43.272C43.272 41.0449 43.0479 39.4821 42.5791 38.099L40.6849 38.741ZM41.272 42.772C41.272 44.3983 41.0684 45.7806 40.6833 46.9358L42.5807 47.5682C43.049 46.1634 43.272 44.559 43.272 42.772H41.272ZM40.6849 46.931C40.2946 48.0825 39.7582 49.0295 39.0886 49.7922L40.5914 51.1118C41.4578 50.1252 42.1161 48.9388 42.5791 47.573L40.6849 46.931ZM39.0874 49.7935C38.4461 50.5264 37.6707 51.0747 36.7486 51.4435L37.4914 53.3005C38.7026 52.816 39.7405 52.0843 40.5926 51.1105L39.0874 49.7935ZM36.7421 51.4462C35.8278 51.8193 34.8162 52.012 33.696 52.012V54.012C35.0504 54.012 36.3216 53.778 37.4979 53.2978L36.7421 51.4462ZM44.8538 39.22L44.299 40.052L44.6951 40.3161L45.1498 40.1752L44.8538 39.22ZM43.8937 38.324L43.1255 38.9642L43.8937 38.324ZM45.7498 34.036L46.0621 34.986L46.071 34.983L45.7498 34.036ZM49.3337 32.82V31.82H49.1687L49.0125 31.873L49.3337 32.82ZM52.6938 33.62L53.4009 32.9129L53.4009 32.9129L52.6938 33.62ZM53.4938 52.468L53.7569 53.4328L54.4938 53.2318V52.468H53.4938ZM52.4697 52.66L52.3283 51.67L52.3214 51.6711L52.4697 52.66ZM48.7577 52.244L48.1463 53.0353L48.1578 53.0442L48.1696 53.0527L48.7577 52.244ZM48.0537 38.228H49.0537V36.8711L47.7577 37.2728L48.0537 38.228ZM45.4084 38.3879C45.1883 38.2412 44.9378 38.0148 44.662 37.6838L43.1255 38.9642C43.4897 39.4012 43.8792 39.7722 44.299 40.052L45.4084 38.3879ZM44.662 37.6838C44.5385 37.5357 44.4137 37.2581 44.4137 36.724H42.4137C42.4137 37.5552 42.609 38.3443 43.1255 38.9642L44.662 37.6838ZM44.4137 36.724C44.4137 36.3046 44.5342 35.9992 44.7525 35.748C44.9868 35.4784 45.3922 35.2062 46.0621 34.986L45.4374 33.086C44.55 33.3778 43.7873 33.8096 43.243 34.436C42.6826 35.0808 42.4137 35.8634 42.4137 36.724H44.4137ZM46.071 34.983L49.655 33.767L49.0125 31.873L45.4285 33.089L46.071 34.983ZM49.3337 33.82H50.5177V31.82H49.3337V33.82ZM50.5177 33.82C51.231 33.82 51.68 34.0205 51.9866 34.3271L53.4009 32.9129C52.6408 32.1528 51.6392 31.82 50.5177 31.82V33.82ZM51.9866 34.3271C52.2932 34.6337 52.4938 35.0828 52.4938 35.796H54.4938C54.4938 34.6746 54.1609 33.673 53.4009 32.9129L51.9866 34.3271ZM52.4938 35.796V52.468H54.4938V35.796H52.4938ZM53.2306 51.5032C53.0565 51.5507 52.7638 51.6078 52.3283 51.67L52.6112 53.65C53.0717 53.5842 53.4617 53.5133 53.7569 53.4328L53.2306 51.5032ZM52.3214 51.6711C51.9519 51.7265 51.533 51.756 51.0618 51.756V53.756C51.6145 53.756 52.1343 53.7215 52.6181 53.6489L52.3214 51.6711ZM51.0618 51.756C50.0527 51.756 49.5519 51.5851 49.3459 51.4353L48.1696 53.0527C48.9022 53.5856 49.9375 53.756 51.0618 53.756V51.756ZM49.3692 51.4527C49.2731 51.3785 49.0537 51.0984 49.0537 50.196H47.0537C47.0537 51.2989 47.3037 52.3842 48.1463 53.0353L49.3692 51.4527ZM49.0537 50.196V38.228H47.0537V50.196H49.0537ZM47.7577 37.2728L44.5577 38.2648L45.1498 40.1752L48.3498 39.1832L47.7577 37.2728ZM67.6243 38.42L66.7373 38.8819L66.7411 38.8891L66.745 38.8963L67.6243 38.42ZM63.0163 38.42L62.1293 37.9581L62.1255 37.9654L62.1218 37.9728L63.0163 38.42ZM63.0163 47.252L62.1297 47.7146L62.1357 47.7262L62.1421 47.7376L63.0163 47.252ZM67.6243 47.252L66.7537 46.7599L66.7501 46.7664L67.6243 47.252ZM61.8643 52.372L61.4863 53.2979L61.4929 53.3005L61.8643 52.372ZM59.1442 50.452L58.3837 51.1013L58.3922 51.1112L58.401 51.121L59.1442 50.452ZM57.3843 47.252L56.4309 47.5539L56.4339 47.5635L56.4372 47.573L57.3843 47.252ZM57.3843 38.42L56.4355 38.1038L56.4324 38.1135L57.3843 38.42ZM59.1442 35.22L58.3928 34.5602L58.3917 34.5615L59.1442 35.22ZM61.8643 33.236L61.477 32.314L61.4703 32.3169L61.8643 33.236ZM68.7763 33.236L68.3823 34.1552L68.389 34.158L68.7763 33.236ZM71.4963 35.22L70.7357 35.8693L70.7442 35.8792L70.753 35.889L71.4963 35.22ZM73.2882 38.42L72.3396 38.7362L72.3412 38.741L73.2882 38.42ZM73.2882 47.252L74.2353 47.573L74.2369 47.5682L73.2882 47.252ZM71.4963 50.452L70.7448 49.7922L70.7437 49.7935L71.4963 50.452ZM68.7763 52.372L68.4049 51.4435L68.3984 51.4462L68.7763 52.372ZM69.4562 42.772C69.4562 40.8194 69.1717 39.1773 68.5035 37.9437L66.745 38.8963C67.1861 39.7107 67.4562 40.9699 67.4562 42.772H69.4562ZM68.5112 37.9581C68.1859 37.3335 67.758 36.806 67.2029 36.4359C66.6405 36.061 66.0012 35.884 65.3203 35.884V37.884C65.642 37.884 65.888 37.963 66.0936 38.1C66.3065 38.242 66.5293 38.4824 66.7373 38.8819L68.5112 37.9581ZM65.3203 35.884C64.6393 35.884 64 36.061 63.4375 36.4359C62.8825 36.806 62.4546 37.3335 62.1293 37.9581L63.9032 38.8819C64.1112 38.4824 64.334 38.242 64.547 38.1C64.7525 37.963 64.9985 37.884 65.3203 37.884V35.884ZM62.1218 37.9728C61.5096 39.1972 61.2482 40.8272 61.2482 42.772H63.2482C63.2482 40.9622 63.4989 39.6908 63.9107 38.8672L62.1218 37.9728ZM61.2482 42.772C61.2482 44.8275 61.5048 46.5169 62.1297 47.7146L63.9028 46.7894C63.5037 46.0245 63.2482 44.7272 63.2482 42.772H61.2482ZM62.1421 47.7376C62.8312 48.9781 63.914 49.692 65.3203 49.692V47.692C64.7212 47.692 64.2679 47.4459 63.8904 46.7664L62.1421 47.7376ZM65.3203 49.692C66.7265 49.692 67.8093 48.9781 68.4984 47.7376L66.7501 46.7664C66.3726 47.4459 65.9193 47.692 65.3203 47.692V49.692ZM68.4948 47.7441C69.1772 46.5367 69.4562 44.8342 69.4562 42.772H67.4562C67.4562 44.7205 67.1806 46.0046 66.7537 46.7599L68.4948 47.7441ZM65.3522 52.012C64.2086 52.012 63.1734 51.8186 62.2356 51.4435L61.4929 53.3005C62.6885 53.7787 63.9786 54.012 65.3522 54.012V52.012ZM62.2421 51.4462C61.3388 51.0775 60.5564 50.5262 59.8875 49.783L58.401 51.121C59.2681 52.0844 60.299 52.8132 61.4864 53.2978L62.2421 51.4462ZM59.9048 49.8027C59.2524 49.0385 58.7235 48.0879 58.3313 46.931L56.4372 47.573C56.8983 48.9335 57.5428 50.1162 58.3837 51.1013L59.9048 49.8027ZM58.3376 46.9501C57.9702 45.7901 57.7762 44.4026 57.7762 42.772H55.7763C55.7763 44.5547 55.9876 46.1539 56.4309 47.5539L58.3376 46.9501ZM57.7762 42.772C57.7762 41.2093 57.9693 39.8655 58.3361 38.7265L56.4324 38.1135C55.9885 39.4918 55.7763 41.0494 55.7763 42.772H57.7762ZM58.3329 38.7362C58.7254 37.5587 59.2526 36.6148 59.8968 35.8785L58.3917 34.5615C57.5426 35.5319 56.8964 36.7213 56.4356 38.1038L58.3329 38.7362ZM59.8957 35.8798C60.5677 35.1144 61.3531 34.543 62.2582 34.1551L61.4703 32.3169C60.2847 32.825 59.2568 33.5762 58.3928 34.5602L59.8957 35.8798ZM62.2515 34.158C63.1851 33.7659 64.2148 33.564 65.3522 33.564V31.564C63.9724 31.564 62.6767 31.8101 61.477 32.314L62.2515 34.158ZM65.3522 33.564C66.4662 33.564 67.4721 33.765 68.3823 34.1551L69.1702 32.3169C67.9898 31.811 66.713 31.564 65.3522 31.564V33.564ZM68.389 34.158C69.3125 34.5459 70.0911 35.1142 70.7357 35.8693L72.2568 34.5707C71.4081 33.5765 70.3733 32.8221 69.1635 32.314L68.389 34.158ZM70.753 35.889C71.4143 36.6238 71.9489 37.5641 72.3396 38.7362L74.2369 38.1038C73.7743 36.7159 73.1142 35.5229 72.2395 34.551L70.753 35.889ZM72.3412 38.741C72.7256 39.8752 72.9283 41.2138 72.9283 42.772H74.9283C74.9283 41.0449 74.7042 39.4821 74.2353 38.099L72.3412 38.741ZM72.9283 42.772C72.9283 44.3983 72.7246 45.7806 72.3396 46.9358L74.2369 47.5682C74.7052 46.1634 74.9283 44.559 74.9283 42.772H72.9283ZM72.3412 46.931C71.9508 48.0825 71.4145 49.0295 70.7448 49.7922L72.2477 51.1118C73.114 50.1252 73.7723 48.9388 74.2353 47.573L72.3412 46.931ZM70.7437 49.7935C70.1024 50.5264 69.3269 51.0747 68.4049 51.4435L69.1476 53.3005C70.3589 52.816 71.3968 52.0843 72.2488 51.1105L70.7437 49.7935ZM68.3984 51.4462C67.484 51.8193 66.4725 52.012 65.3522 52.012V54.012C66.7067 54.012 67.9778 53.778 69.1541 53.2978L68.3984 51.4462ZM76.51 39.22L75.9553 40.052L76.3514 40.3161L76.8061 40.1752L76.51 39.22ZM75.55 38.324L74.7818 38.9642L75.55 38.324ZM77.406 34.036L77.7183 34.986L77.7273 34.983L77.406 34.036ZM80.99 32.82V31.82H80.825L80.6687 31.873L80.99 32.82ZM84.35 33.62L85.0571 32.9129V32.9129L84.35 33.62ZM85.15 52.468L85.4131 53.4328L86.15 53.2318V52.468H85.15ZM84.126 52.66L83.9846 51.67L83.9777 51.6711L84.126 52.66ZM80.414 52.244L79.8026 53.0353L79.8141 53.0442L79.8258 53.0527L80.414 52.244ZM79.71 38.228H80.71V36.8711L79.4139 37.2728L79.71 38.228ZM77.0647 38.3879C76.8445 38.2412 76.594 38.0148 76.3182 37.6838L74.7818 38.9642C75.146 39.4012 75.5355 39.7722 75.9553 40.052L77.0647 38.3879ZM76.3182 37.6838C76.1948 37.5357 76.07 37.2581 76.07 36.724H74.07C74.07 37.5552 74.2652 38.3443 74.7818 38.9642L76.3182 37.6838ZM76.07 36.724C76.07 36.3046 76.1905 35.9992 76.4088 35.748C76.6431 35.4784 77.0485 35.2062 77.7183 34.986L77.0937 33.086C76.2062 33.3778 75.4436 33.8096 74.8992 34.436C74.3388 35.0808 74.07 35.8634 74.07 36.724H76.07ZM77.7273 34.983L81.3113 33.767L80.6687 31.873L77.0847 33.089L77.7273 34.983ZM80.99 33.82H82.174V31.82H80.99V33.82ZM82.174 33.82C82.8872 33.82 83.3363 34.0205 83.6429 34.3271L85.0571 32.9129C84.297 32.1528 83.2954 31.82 82.174 31.82V33.82ZM83.6429 34.3271C83.9495 34.6337 84.15 35.0828 84.15 35.796H86.15C86.15 34.6746 85.8172 33.673 85.0571 32.9129L83.6429 34.3271ZM84.15 35.796V52.468H86.15V35.796H84.15ZM84.8869 51.5032C84.7127 51.5507 84.42 51.6078 83.9846 51.67L84.2674 53.65C84.728 53.5842 85.1179 53.5133 85.4131 53.4328L84.8869 51.5032ZM83.9777 51.6711C83.6082 51.7265 83.1892 51.756 82.718 51.756V53.756C83.2708 53.756 83.7905 53.7215 84.2743 53.6489L83.9777 51.6711ZM82.718 51.756C81.7089 51.756 81.2082 51.5851 81.0022 51.4353L79.8258 53.0527C80.5585 53.5856 81.5937 53.756 82.718 53.756V51.756ZM81.0254 51.4527C80.9293 51.3785 80.71 51.0984 80.71 50.196H78.71C78.71 51.2989 78.96 52.3842 79.8026 53.0353L81.0254 51.4527ZM80.71 50.196V38.228H78.71V50.196H80.71ZM79.4139 37.2728L76.2139 38.2648L76.8061 40.1752L80.0061 39.1832L79.4139 37.2728ZM99.2805 38.42L98.3936 38.8819L98.3973 38.8891L98.4012 38.8963L99.2805 38.42ZM94.6725 38.42L93.7856 37.9581L93.7818 37.9654L93.7781 37.9728L94.6725 38.42ZM94.6725 47.252L93.7859 47.7146L93.792 47.7262L93.7983 47.7376L94.6725 47.252ZM99.2805 47.252L98.4099 46.7599L98.4063 46.7664L99.2805 47.252ZM93.5205 52.372L93.1426 53.2979L93.1491 53.3005L93.5205 52.372ZM90.8005 50.452L90.0399 51.1013L90.0484 51.1112L90.0572 51.121L90.8005 50.452ZM89.0405 47.252L88.0872 47.5539L88.0902 47.5635L88.0934 47.573L89.0405 47.252ZM89.0405 38.42L88.0918 38.1038L88.0886 38.1135L89.0405 38.42ZM90.8005 35.22L90.0491 34.5602L90.0479 34.5615L90.8005 35.22ZM93.5205 33.236L93.1333 32.314L93.1266 32.3169L93.5205 33.236ZM100.433 33.236L100.039 34.1552L100.045 34.158L100.433 33.236ZM103.153 35.22L102.392 35.8693L102.4 35.8792L102.409 35.889L103.153 35.22ZM104.945 38.42L103.996 38.7362L103.997 38.741L104.945 38.42ZM104.945 47.252L105.892 47.573L105.893 47.5682L104.945 47.252ZM103.153 50.452L102.401 49.7922L102.4 49.7935L103.153 50.452ZM100.433 52.372L100.061 51.4435L100.055 51.4462L100.433 52.372ZM101.113 42.772C101.113 40.8194 100.828 39.1773 100.16 37.9437L98.4012 38.8963C98.8424 39.7107 99.1125 40.9699 99.1125 42.772H101.113ZM100.167 37.9581C99.8421 37.3335 99.4143 36.806 98.8592 36.4359C98.2967 36.061 97.6575 35.884 96.9765 35.884V37.884C97.2982 37.884 97.5443 37.963 97.7498 38.1C97.9627 38.242 98.1855 38.4824 98.3936 38.8819L100.167 37.9581ZM96.9765 35.884C96.2955 35.884 95.6563 36.061 95.0938 36.4359C94.5387 36.806 94.1109 37.3335 93.7856 37.9581L95.5594 38.8819C95.7675 38.4824 95.9903 38.242 96.2032 38.1C96.4087 37.963 96.6548 37.884 96.9765 37.884V35.884ZM93.7781 37.9728C93.1659 39.1972 92.9045 40.8272 92.9045 42.772H94.9045C94.9045 40.9622 95.1551 39.6908 95.5669 38.8672L93.7781 37.9728ZM92.9045 42.772C92.9045 44.8275 93.161 46.5169 93.7859 47.7146L95.5591 46.7894C95.16 46.0245 94.9045 44.7272 94.9045 42.772H92.9045ZM93.7983 47.7376C94.4875 48.9781 95.5702 49.692 96.9765 49.692V47.692C96.3774 47.692 95.9242 47.4459 95.5467 46.7664L93.7983 47.7376ZM96.9765 49.692C98.3828 49.692 99.4655 48.9781 100.155 47.7376L98.4063 46.7664C98.0288 47.4459 97.5756 47.692 96.9765 47.692V49.692ZM100.151 47.7441C100.833 46.5367 101.113 44.8342 101.113 42.772H99.1125C99.1125 44.7205 98.8369 46.0046 98.4099 46.7599L100.151 47.7441ZM97.0085 52.012C95.8649 52.012 94.8296 51.8186 93.8919 51.4435L93.1491 53.3005C94.3447 53.7787 95.6348 54.012 97.0085 54.012V52.012ZM93.8984 51.4462C92.9951 51.0775 92.2127 50.5262 91.5438 49.783L90.0572 51.121C90.9243 52.0844 91.9553 52.8132 93.1426 53.2978L93.8984 51.4462ZM91.5611 49.8027C90.9086 49.0385 90.3797 48.0879 89.9876 46.931L88.0934 47.573C88.5546 48.9335 89.199 50.1162 90.0399 51.1013L91.5611 49.8027ZM89.9938 46.9501C89.6265 45.7901 89.4325 44.4026 89.4325 42.772H87.4325C87.4325 44.5547 87.6438 46.1539 88.0872 47.5539L89.9938 46.9501ZM89.4325 42.772C89.4325 41.2093 89.6256 39.8655 89.9924 38.7265L88.0886 38.1135C87.6448 39.4918 87.4325 41.0494 87.4325 42.772H89.4325ZM89.9892 38.7362C90.3817 37.5587 90.9088 36.6148 91.5531 35.8785L90.0479 34.5615C89.1989 35.5319 88.5527 36.7213 88.0918 38.1038L89.9892 38.7362ZM91.5519 35.8798C92.224 35.1144 93.0094 34.543 93.9144 34.1551L93.1266 32.3169C91.9409 32.825 90.913 33.5762 90.0491 34.5602L91.5519 35.8798ZM93.9077 34.158C94.8414 33.7659 95.871 33.564 97.0085 33.564V31.564C95.6286 31.564 94.333 31.8101 93.1333 32.314L93.9077 34.158ZM97.0085 33.564C98.1224 33.564 99.1283 33.765 100.039 34.1551L100.826 32.3169C99.646 31.811 98.3692 31.564 97.0085 31.564V33.564ZM100.045 34.158C100.969 34.5459 101.747 35.1142 102.392 35.8693L103.913 34.5707C103.064 33.5765 102.03 32.8221 100.82 32.314L100.045 34.158ZM102.409 35.889C103.071 36.6238 103.605 37.5641 103.996 38.7362L105.893 38.1038C105.431 36.7159 104.77 35.5229 103.896 34.551L102.409 35.889ZM103.997 38.741C104.382 39.8752 104.585 41.2138 104.585 42.772H106.585C106.585 41.0449 106.36 39.4821 105.892 38.099L103.997 38.741ZM104.585 42.772C104.585 44.3983 104.381 45.7806 103.996 46.9358L105.893 47.5682C106.361 46.1634 106.585 44.559 106.585 42.772H104.585ZM103.997 46.931C103.607 48.0825 103.071 49.0295 102.401 49.7922L103.904 51.1118C104.77 50.1252 105.429 48.9388 105.892 47.573L103.997 46.931ZM102.4 49.7935C101.759 50.5264 100.983 51.0747 100.061 51.4435L100.804 53.3005C102.015 52.816 103.053 52.0843 103.905 51.1105L102.4 49.7935ZM100.055 51.4462C99.1403 51.8193 98.1287 52.012 97.0085 52.012V54.012C98.3629 54.012 99.6341 53.778 100.81 53.2978L100.055 51.4462ZM118.687 38.42L117.8 38.8819L117.804 38.8891L117.807 38.8963L118.687 38.42ZM114.079 38.42L113.192 37.9581L113.188 37.9654L113.184 37.9728L114.079 38.42ZM114.079 47.252L113.192 47.7146L113.198 47.7262L113.205 47.7376L114.079 47.252ZM118.687 47.252L117.816 46.7599L117.813 46.7664L118.687 47.252ZM112.927 52.372L112.549 53.2979L112.555 53.3005L112.927 52.372ZM110.207 50.452L109.446 51.1013L109.455 51.1112L109.463 51.121L110.207 50.452ZM108.447 47.252L107.493 47.5539L107.496 47.5635L107.5 47.573L108.447 47.252ZM108.447 38.42L107.498 38.1038L107.495 38.1135L108.447 38.42ZM110.207 35.22L109.455 34.5602L109.454 34.5615L110.207 35.22ZM112.927 33.236L112.54 32.314L112.533 32.3169L112.927 33.236ZM119.839 33.236L119.445 34.1552L119.452 34.158L119.839 33.236ZM122.559 35.22L121.798 35.8693L121.807 35.8792L121.815 35.889L122.559 35.22ZM124.351 38.42L123.402 38.7362L123.404 38.741L124.351 38.42ZM124.351 47.252L125.298 47.573L125.299 47.5682L124.351 47.252ZM122.559 50.452L121.807 49.7922L121.806 49.7935L122.559 50.452ZM119.839 52.372L119.467 51.4435L119.461 51.4462L119.839 52.372ZM120.519 42.772C120.519 40.8194 120.234 39.1773 119.566 37.9437L117.807 38.8963C118.249 39.7107 118.519 40.9699 118.519 42.772H120.519ZM119.574 37.9581C119.248 37.3335 118.821 36.806 118.265 36.4359C117.703 36.061 117.064 35.884 116.383 35.884V37.884C116.704 37.884 116.951 37.963 117.156 38.1C117.369 38.242 117.592 38.4824 117.8 38.8819L119.574 37.9581ZM116.383 35.884C115.702 35.884 115.063 36.061 114.5 36.4359C113.945 36.806 113.517 37.3335 113.192 37.9581L114.966 38.8819C115.174 38.4824 115.397 38.242 115.609 38.1C115.815 37.963 116.061 37.884 116.383 37.884V35.884ZM113.184 37.9728C112.572 39.1972 112.311 40.8272 112.311 42.772H114.311C114.311 40.9622 114.561 39.6908 114.973 38.8672L113.184 37.9728ZM112.311 42.772C112.311 44.8275 112.567 46.5169 113.192 47.7146L114.965 46.7894C114.566 46.0245 114.311 44.7272 114.311 42.772H112.311ZM113.205 47.7376C113.894 48.9781 114.976 49.692 116.383 49.692V47.692C115.784 47.692 115.33 47.4459 114.953 46.7664L113.205 47.7376ZM116.383 49.692C117.789 49.692 118.872 48.9781 119.561 47.7376L117.813 46.7664C117.435 47.4459 116.982 47.692 116.383 47.692V49.692ZM119.557 47.7441C120.24 46.5367 120.519 44.8342 120.519 42.772H118.519C118.519 44.7205 118.243 46.0046 117.816 46.7599L119.557 47.7441ZM116.415 52.012C115.271 52.012 114.236 51.8186 113.298 51.4435L112.555 53.3005C113.751 53.7787 115.041 54.012 116.415 54.012V52.012ZM113.305 51.4462C112.401 51.0775 111.619 50.5262 110.95 49.783L109.463 51.121C110.331 52.0844 111.362 52.8132 112.549 53.2978L113.305 51.4462ZM110.967 49.8027C110.315 49.0385 109.786 48.0879 109.394 46.931L107.5 47.573C107.961 48.9335 108.605 50.1162 109.446 51.1013L110.967 49.8027ZM109.4 46.9501C109.033 45.7901 108.839 44.4026 108.839 42.772H106.839C106.839 44.5547 107.05 46.1539 107.493 47.5539L109.4 46.9501ZM108.839 42.772C108.839 41.2093 109.032 39.8655 109.399 38.7265L107.495 38.1135C107.051 39.4918 106.839 41.0494 106.839 42.772H108.839ZM109.395 38.7362C109.788 37.5587 110.315 36.6148 110.959 35.8785L109.454 34.5615C108.605 35.5319 107.959 36.7213 107.498 38.1038L109.395 38.7362ZM110.958 35.8798C111.63 35.1144 112.416 34.543 113.321 34.1551L112.533 32.3169C111.347 32.825 110.319 33.5762 109.455 34.5602L110.958 35.8798ZM113.314 34.158C114.248 33.7659 115.277 33.564 116.415 33.564V31.564C115.035 31.564 113.739 31.8101 112.54 32.314L113.314 34.158ZM116.415 33.564C117.529 33.564 118.535 33.765 119.445 34.1551L120.233 32.3169C119.052 31.811 117.775 31.564 116.415 31.564V33.564ZM119.452 34.158C120.375 34.5459 121.154 35.1142 121.798 35.8693L123.319 34.5707C122.471 33.5765 121.436 32.8221 120.226 32.314L119.452 34.158ZM121.815 35.889C122.477 36.6238 123.011 37.5641 123.402 38.7362L125.299 38.1038C124.837 36.7159 124.177 35.5229 123.302 34.551L121.815 35.889ZM123.404 38.741C123.788 39.8752 123.991 41.2138 123.991 42.772H125.991C125.991 41.0449 125.767 39.4821 125.298 38.099L123.404 38.741ZM123.991 42.772C123.991 44.3983 123.787 45.7806 123.402 46.9358L125.299 47.5682C125.768 46.1634 125.991 44.559 125.991 42.772H123.991ZM123.404 46.931C123.013 48.0825 122.477 49.0295 121.807 49.7922L123.31 51.1118C124.177 50.1252 124.835 48.9388 125.298 47.573L123.404 46.931ZM121.806 49.7935C121.165 50.5264 120.389 51.0747 119.467 51.4435L120.21 53.3005C121.421 52.816 122.459 52.0843 123.311 51.1105L121.806 49.7935ZM119.461 51.4462C118.547 51.8193 117.535 52.012 116.415 52.012V54.012C117.769 54.012 119.04 53.778 120.217 53.2978L119.461 51.4462ZM127.573 39.22L127.018 40.052L127.414 40.3161L127.869 40.1752L127.573 39.22ZM126.613 38.324L125.844 38.9642L126.613 38.324ZM128.468 34.036L128.781 34.986L128.79 34.983L128.468 34.036ZM132.052 32.82V31.82H131.887L131.731 31.873L132.052 32.82ZM135.412 33.62L136.12 32.9129V32.9129L135.412 33.62ZM136.213 52.468L136.476 53.4328L137.213 53.2318V52.468H136.213ZM135.188 52.66L135.047 51.67L135.04 51.6711L135.188 52.66ZM131.477 52.244L130.865 53.0353L130.877 53.0442L130.888 53.0527L131.477 52.244ZM130.772 38.228H131.772V36.8711L130.476 37.2728L130.772 38.228ZM128.127 38.3879C127.907 38.2412 127.657 38.0148 127.381 37.6838L125.844 38.9642C126.208 39.4012 126.598 39.7722 127.018 40.052L128.127 38.3879ZM127.381 37.6838C127.257 37.5357 127.132 37.2581 127.132 36.724H125.132C125.132 37.5552 125.328 38.3443 125.844 38.9642L127.381 37.6838ZM127.132 36.724C127.132 36.3046 127.253 35.9992 127.471 35.748C127.706 35.4784 128.111 35.2062 128.781 34.986L128.156 33.086C127.269 33.3778 126.506 33.8096 125.962 34.436C125.401 35.0808 125.132 35.8634 125.132 36.724H127.132ZM128.79 34.983L132.374 33.767L131.731 31.873L128.147 33.089L128.79 34.983ZM132.052 33.82H133.237V31.82H132.052V33.82ZM133.237 33.82C133.95 33.82 134.399 34.0205 134.705 34.3271L136.12 32.9129C135.36 32.1528 134.358 31.82 133.237 31.82V33.82ZM134.705 34.3271C135.012 34.6337 135.213 35.0828 135.213 35.796H137.213C137.213 34.6746 136.88 33.673 136.12 32.9129L134.705 34.3271ZM135.213 35.796V52.468H137.213V35.796H135.213ZM135.949 51.5032C135.775 51.5507 135.483 51.6078 135.047 51.67L135.33 53.65C135.79 53.5842 136.18 53.5133 136.476 53.4328L135.949 51.5032ZM135.04 51.6711C134.671 51.7265 134.252 51.756 133.781 51.756V53.756C134.333 53.756 134.853 53.7215 135.337 53.6489L135.04 51.6711ZM133.781 51.756C132.771 51.756 132.271 51.5851 132.065 51.4353L130.888 53.0527C131.621 53.5856 132.656 53.756 133.781 53.756V51.756ZM132.088 51.4527C131.992 51.3785 131.772 51.0984 131.772 50.196H129.772C129.772 51.2989 130.022 52.3842 130.865 53.0353L132.088 51.4527ZM131.772 50.196V38.228H129.772V50.196H131.772ZM130.476 37.2728L127.276 38.2648L127.869 40.1752L131.069 39.1832L130.476 37.2728ZM140.135 39.22L139.58 40.052L139.976 40.3161L140.431 40.1752L140.135 39.22ZM139.175 38.324L138.407 38.9642L139.175 38.324ZM141.031 34.036L141.343 34.986L141.352 34.983L141.031 34.036ZM144.615 32.82V31.82H144.45L144.294 31.873L144.615 32.82ZM147.975 33.62L148.682 32.9129V32.9129L147.975 33.62ZM148.775 52.468L149.038 53.4328L149.775 53.2318V52.468H148.775ZM147.751 52.66L147.61 51.67L147.603 51.6711L147.751 52.66ZM144.039 52.244L143.428 53.0353L143.439 53.0442L143.451 53.0527L144.039 52.244ZM143.335 38.228H144.335V36.8711L143.039 37.2728L143.335 38.228ZM140.69 38.3879C140.47 38.2412 140.219 38.0148 139.943 37.6838L138.407 38.9642C138.771 39.4012 139.16 39.7722 139.58 40.052L140.69 38.3879ZM139.943 37.6838C139.82 37.5357 139.695 37.2581 139.695 36.724H137.695C137.695 37.5552 137.89 38.3443 138.407 38.9642L139.943 37.6838ZM139.695 36.724C139.695 36.3046 139.815 35.9992 140.034 35.748C140.268 35.4784 140.673 35.2062 141.343 34.986L140.719 33.086C139.831 33.3778 139.069 33.8096 138.524 34.436C137.964 35.0808 137.695 35.8634 137.695 36.724H139.695ZM141.352 34.983L144.936 33.767L144.294 31.873L140.71 33.089L141.352 34.983ZM144.615 33.82H145.799V31.82H144.615V33.82ZM145.799 33.82C146.512 33.82 146.961 34.0205 147.268 34.3271L148.682 32.9129C147.922 32.1528 146.92 31.82 145.799 31.82V33.82ZM147.268 34.3271C147.574 34.6337 147.775 35.0828 147.775 35.796H149.775C149.775 34.6746 149.442 33.673 148.682 32.9129L147.268 34.3271ZM147.775 35.796V52.468H149.775V35.796H147.775ZM148.512 51.5032C148.338 51.5507 148.045 51.6078 147.61 51.67L147.892 53.65C148.353 53.5842 148.743 53.5133 149.038 53.4328L148.512 51.5032ZM147.603 51.6711C147.233 51.7265 146.814 51.756 146.343 51.756V53.756C146.896 53.756 147.416 53.7215 147.899 53.6489L147.603 51.6711ZM146.343 51.756C145.334 51.756 144.833 51.5851 144.627 51.4353L143.451 53.0527C144.184 53.5856 145.219 53.756 146.343 53.756V51.756ZM144.65 51.4527C144.554 51.3785 144.335 51.0984 144.335 50.196H142.335C142.335 51.2989 142.585 52.3842 143.428 53.0353L144.65 51.4527ZM144.335 50.196V38.228H142.335V50.196H144.335ZM143.039 37.2728L139.839 38.2648L140.431 40.1752L143.631 39.1832L143.039 37.2728Z" fill="black"/>
    <path d="M35.968 78.42L35.0811 78.8819L35.0848 78.8891L35.0887 78.8963L35.968 78.42ZM31.36 78.42L30.4731 77.9581L30.4693 77.9654L30.4656 77.9728L31.36 78.42ZM31.36 87.252L30.4734 87.7146L30.4795 87.7262L30.4858 87.7376L31.36 87.252ZM35.968 87.252L35.0974 86.7599L35.0938 86.7664L35.968 87.252ZM30.208 92.372L29.8301 93.2979L29.8366 93.3005L30.208 92.372ZM27.488 90.452L26.7274 91.1013L26.7359 91.1112L26.7447 91.121L27.488 90.452ZM25.728 87.252L24.7747 87.5539L24.7777 87.5635L24.7809 87.573L25.728 87.252ZM25.728 78.42L24.7793 78.1038L24.7761 78.1135L25.728 78.42ZM27.488 75.22L26.7366 74.5602L26.7354 74.5615L27.488 75.22ZM30.208 73.236L29.8208 72.314L29.8141 72.3169L30.208 73.236ZM37.12 73.236L36.7261 74.1552L36.7328 74.158L37.12 73.236ZM39.84 75.22L39.0794 75.8693L39.0879 75.8792L39.0967 75.889L39.84 75.22ZM41.632 78.42L40.6833 78.7362L40.6849 78.741L41.632 78.42ZM41.632 87.252L42.5791 87.573L42.5807 87.5682L41.632 87.252ZM39.84 90.452L39.0886 89.7922L39.0874 89.7935L39.84 90.452ZM37.12 92.372L36.7486 91.4435L36.7421 91.4462L37.12 92.372ZM37.8 82.772C37.8 80.8194 37.5155 79.1773 36.8473 77.9437L35.0887 78.8963C35.5299 79.7107 35.8 80.9699 35.8 82.772H37.8ZM36.8549 77.9581C36.5296 77.3335 36.1018 76.806 35.5467 76.4359C34.9842 76.061 34.345 75.884 33.664 75.884V77.884C33.9857 77.884 34.2318 77.963 34.4373 78.1C34.6502 78.242 34.873 78.4824 35.0811 78.8819L36.8549 77.9581ZM33.664 75.884C32.983 75.884 32.3438 76.061 31.7813 76.4359C31.2262 76.806 30.7984 77.3335 30.4731 77.9581L32.2469 78.8819C32.455 78.4824 32.6778 78.242 32.8907 78.1C33.0962 77.963 33.3423 77.884 33.664 77.884V75.884ZM30.4656 77.9728C29.8534 79.1972 29.592 80.8272 29.592 82.772H31.592C31.592 80.9622 31.8426 79.6908 32.2544 78.8672L30.4656 77.9728ZM29.592 82.772C29.592 84.8275 29.8485 86.5169 30.4734 87.7146L32.2466 86.7894C31.8475 86.0245 31.592 84.7272 31.592 82.772H29.592ZM30.4858 87.7376C31.175 88.9781 32.2577 89.692 33.664 89.692V87.692C33.0649 87.692 32.6117 87.4459 32.2342 86.7664L30.4858 87.7376ZM33.664 89.692C35.0703 89.692 36.153 88.9781 36.8422 87.7376L35.0938 86.7664C34.7163 87.4459 34.2631 87.692 33.664 87.692V89.692ZM36.8386 87.7441C37.521 86.5367 37.8 84.8342 37.8 82.772H35.8C35.8 84.7205 35.5244 86.0046 35.0974 86.7599L36.8386 87.7441ZM33.696 92.012C32.5524 92.012 31.5171 91.8186 30.5794 91.4435L29.8366 93.3005C31.0322 93.7787 32.3223 94.012 33.696 94.012V92.012ZM30.5859 91.4462C29.6826 91.0775 28.9002 90.5262 28.2313 89.783L26.7447 91.121C27.6118 92.0844 28.6428 92.8132 29.8301 93.2978L30.5859 91.4462ZM28.2486 89.8027C27.5961 89.0385 27.0672 88.0879 26.6751 86.931L24.7809 87.573C25.2421 88.9335 25.8865 90.1162 26.7274 91.1013L28.2486 89.8027ZM26.6813 86.9501C26.314 85.7901 26.12 84.4026 26.12 82.772H24.12C24.12 84.5547 24.3313 86.1539 24.7747 87.5539L26.6813 86.9501ZM26.12 82.772C26.12 81.2093 26.3131 79.8655 26.6799 78.7265L24.7761 78.1135C24.3323 79.4918 24.12 81.0494 24.12 82.772H26.12ZM26.6767 78.7362C27.0692 77.5587 27.5963 76.6148 28.2406 75.8785L26.7354 74.5615C25.8864 75.5319 25.2401 76.7213 24.7793 78.1038L26.6767 78.7362ZM28.2394 75.8798C28.9115 75.1144 29.6969 74.543 30.6019 74.1551L29.8141 72.3169C28.6285 72.825 27.6005 73.5762 26.7366 74.5602L28.2394 75.8798ZM30.5952 74.158C31.5289 73.7659 32.5585 73.564 33.696 73.564V71.564C32.3161 71.564 31.0205 71.8101 29.8208 72.314L30.5952 74.158ZM33.696 73.564C34.8099 73.564 35.8158 73.765 36.7261 74.1551L37.5139 72.3169C36.3335 71.811 35.0567 71.564 33.696 71.564V73.564ZM36.7328 74.158C37.6563 74.5459 38.4348 75.1142 39.0794 75.8693L40.6006 74.5707C39.7518 73.5765 38.717 72.8221 37.5072 72.314L36.7328 74.158ZM39.0967 75.889C39.758 76.6238 40.2926 77.5641 40.6833 78.7362L42.5807 78.1038C42.1181 76.7159 41.458 75.5229 40.5833 74.551L39.0967 75.889ZM40.6849 78.741C41.0694 79.8752 41.272 81.2138 41.272 82.772H43.272C43.272 81.0449 43.0479 79.4821 42.5791 78.099L40.6849 78.741ZM41.272 82.772C41.272 84.3983 41.0684 85.7806 40.6833 86.9358L42.5807 87.5682C43.049 86.1634 43.272 84.559 43.272 82.772H41.272ZM40.6849 86.931C40.2946 88.0825 39.7582 89.0295 39.0886 89.7922L40.5914 91.1118C41.4578 90.1252 42.1161 88.9388 42.5791 87.573L40.6849 86.931ZM39.0874 89.7935C38.4461 90.5264 37.6707 91.0747 36.7486 91.4435L37.4914 93.3005C38.7026 92.816 39.7405 92.0843 40.5926 91.1105L39.0874 89.7935ZM36.7421 91.4462C35.8278 91.8193 34.8162 92.012 33.696 92.012V94.012C35.0504 94.012 36.3216 93.778 37.4979 93.2978L36.7421 91.4462ZM44.8538 79.22L44.299 80.052L44.6951 80.3161L45.1498 80.1752L44.8538 79.22ZM43.8937 78.324L43.1255 78.9642L43.8937 78.324ZM45.7498 74.036L46.0621 74.986L46.071 74.983L45.7498 74.036ZM49.3337 72.82V71.82H49.1687L49.0125 71.873L49.3337 72.82ZM52.6938 73.62L53.4009 72.9129L53.4009 72.9129L52.6938 73.62ZM53.4938 92.468L53.7569 93.4328L54.4938 93.2318V92.468H53.4938ZM52.4697 92.66L52.3283 91.67L52.3214 91.6711L52.4697 92.66ZM48.7577 92.244L48.1463 93.0353L48.1578 93.0442L48.1696 93.0527L48.7577 92.244ZM48.0537 78.228H49.0537V76.8711L47.7577 77.2728L48.0537 78.228ZM45.4084 78.3879C45.1883 78.2412 44.9378 78.0148 44.662 77.6838L43.1255 78.9642C43.4897 79.4012 43.8792 79.7722 44.299 80.052L45.4084 78.3879ZM44.662 77.6838C44.5385 77.5357 44.4137 77.2581 44.4137 76.724H42.4137C42.4137 77.5552 42.609 78.3443 43.1255 78.9642L44.662 77.6838ZM44.4137 76.724C44.4137 76.3046 44.5342 75.9992 44.7525 75.748C44.9868 75.4784 45.3922 75.2062 46.0621 74.986L45.4374 73.086C44.55 73.3778 43.7873 73.8096 43.243 74.436C42.6826 75.0808 42.4137 75.8634 42.4137 76.724H44.4137ZM46.071 74.983L49.655 73.767L49.0125 71.873L45.4285 73.089L46.071 74.983ZM49.3337 73.82H50.5177V71.82H49.3337V73.82ZM50.5177 73.82C51.231 73.82 51.68 74.0205 51.9866 74.3271L53.4009 72.9129C52.6408 72.1528 51.6392 71.82 50.5177 71.82V73.82ZM51.9866 74.3271C52.2932 74.6337 52.4938 75.0828 52.4938 75.796H54.4938C54.4938 74.6746 54.1609 73.673 53.4009 72.9129L51.9866 74.3271ZM52.4938 75.796V92.468H54.4938V75.796H52.4938ZM53.2306 91.5032C53.0565 91.5507 52.7638 91.6078 52.3283 91.67L52.6112 93.65C53.0717 93.5842 53.4617 93.5133 53.7569 93.4328L53.2306 91.5032ZM52.3214 91.6711C51.9519 91.7265 51.533 91.756 51.0618 91.756V93.756C51.6145 93.756 52.1343 93.7215 52.6181 93.6489L52.3214 91.6711ZM51.0618 91.756C50.0527 91.756 49.5519 91.5851 49.3459 91.4353L48.1696 93.0527C48.9022 93.5856 49.9375 93.756 51.0618 93.756V91.756ZM49.3692 91.4527C49.2731 91.3785 49.0537 91.0984 49.0537 90.196H47.0537C47.0537 91.2989 47.3037 92.3842 48.1463 93.0353L49.3692 91.4527ZM49.0537 90.196V78.228H47.0537V90.196H49.0537ZM47.7577 77.2728L44.5577 78.2648L45.1498 80.1752L48.3498 79.1832L47.7577 77.2728ZM67.6243 78.42L66.7373 78.8819L66.7411 78.8891L66.745 78.8963L67.6243 78.42ZM63.0163 78.42L62.1293 77.9581L62.1255 77.9654L62.1218 77.9728L63.0163 78.42ZM63.0163 87.252L62.1297 87.7146L62.1357 87.7262L62.1421 87.7376L63.0163 87.252ZM67.6243 87.252L66.7537 86.7599L66.7501 86.7664L67.6243 87.252ZM61.8643 92.372L61.4863 93.2979L61.4929 93.3005L61.8643 92.372ZM59.1442 90.452L58.3837 91.1013L58.3922 91.1112L58.401 91.121L59.1442 90.452ZM57.3843 87.252L56.4309 87.5539L56.4339 87.5635L56.4372 87.573L57.3843 87.252ZM57.3843 78.42L56.4355 78.1038L56.4324 78.1135L57.3843 78.42ZM59.1442 75.22L58.3928 74.5602L58.3917 74.5615L59.1442 75.22ZM61.8643 73.236L61.477 72.314L61.4703 72.3169L61.8643 73.236ZM68.7763 73.236L68.3823 74.1552L68.389 74.158L68.7763 73.236ZM71.4963 75.22L70.7357 75.8693L70.7442 75.8792L70.753 75.889L71.4963 75.22ZM73.2882 78.42L72.3396 78.7362L72.3412 78.741L73.2882 78.42ZM73.2882 87.252L74.2353 87.573L74.2369 87.5682L73.2882 87.252ZM71.4963 90.452L70.7448 89.7922L70.7437 89.7935L71.4963 90.452ZM68.7763 92.372L68.4049 91.4435L68.3984 91.4462L68.7763 92.372ZM69.4562 82.772C69.4562 80.8194 69.1717 79.1773 68.5035 77.9437L66.745 78.8963C67.1861 79.7107 67.4562 80.9699 67.4562 82.772H69.4562ZM68.5112 77.9581C68.1859 77.3335 67.758 76.806 67.2029 76.4359C66.6405 76.061 66.0012 75.884 65.3203 75.884V77.884C65.642 77.884 65.888 77.963 66.0936 78.1C66.3065 78.242 66.5293 78.4824 66.7373 78.8819L68.5112 77.9581ZM65.3203 75.884C64.6393 75.884 64 76.061 63.4375 76.4359C62.8825 76.806 62.4546 77.3335 62.1293 77.9581L63.9032 78.8819C64.1112 78.4824 64.334 78.242 64.547 78.1C64.7525 77.963 64.9985 77.884 65.3203 77.884V75.884ZM62.1218 77.9728C61.5096 79.1972 61.2482 80.8272 61.2482 82.772H63.2482C63.2482 80.9622 63.4989 79.6908 63.9107 78.8672L62.1218 77.9728ZM61.2482 82.772C61.2482 84.8275 61.5048 86.5169 62.1297 87.7146L63.9028 86.7894C63.5037 86.0245 63.2482 84.7272 63.2482 82.772H61.2482ZM62.1421 87.7376C62.8312 88.9781 63.914 89.692 65.3203 89.692V87.692C64.7212 87.692 64.2679 87.4459 63.8904 86.7664L62.1421 87.7376ZM65.3203 89.692C66.7265 89.692 67.8093 88.9781 68.4984 87.7376L66.7501 86.7664C66.3726 87.4459 65.9193 87.692 65.3203 87.692V89.692ZM68.4948 87.7441C69.1772 86.5367 69.4562 84.8342 69.4562 82.772H67.4562C67.4562 84.7205 67.1806 86.0046 66.7537 86.7599L68.4948 87.7441ZM65.3522 92.012C64.2086 92.012 63.1734 91.8186 62.2356 91.4435L61.4929 93.3005C62.6885 93.7787 63.9786 94.012 65.3522 94.012V92.012ZM62.2421 91.4462C61.3388 91.0775 60.5564 90.5262 59.8875 89.783L58.401 91.121C59.2681 92.0844 60.299 92.8132 61.4864 93.2978L62.2421 91.4462ZM59.9048 89.8027C59.2524 89.0385 58.7235 88.0879 58.3313 86.931L56.4372 87.573C56.8983 88.9335 57.5428 90.1162 58.3837 91.1013L59.9048 89.8027ZM58.3376 86.9501C57.9702 85.7901 57.7762 84.4026 57.7762 82.772H55.7763C55.7763 84.5547 55.9876 86.1539 56.4309 87.5539L58.3376 86.9501ZM57.7762 82.772C57.7762 81.2093 57.9693 79.8655 58.3361 78.7265L56.4324 78.1135C55.9885 79.4918 55.7763 81.0494 55.7763 82.772H57.7762ZM58.3329 78.7362C58.7254 77.5587 59.2526 76.6148 59.8968 75.8785L58.3917 74.5615C57.5426 75.5319 56.8964 76.7213 56.4356 78.1038L58.3329 78.7362ZM59.8957 75.8798C60.5677 75.1144 61.3531 74.543 62.2582 74.1551L61.4703 72.3169C60.2847 72.825 59.2568 73.5762 58.3928 74.5602L59.8957 75.8798ZM62.2515 74.158C63.1851 73.7659 64.2148 73.564 65.3522 73.564V71.564C63.9724 71.564 62.6767 71.8101 61.477 72.314L62.2515 74.158ZM65.3522 73.564C66.4662 73.564 67.4721 73.765 68.3823 74.1551L69.1702 72.3169C67.9898 71.811 66.713 71.564 65.3522 71.564V73.564ZM68.389 74.158C69.3125 74.5459 70.0911 75.1142 70.7357 75.8693L72.2568 74.5707C71.4081 73.5765 70.3733 72.8221 69.1635 72.314L68.389 74.158ZM70.753 75.889C71.4143 76.6238 71.9489 77.5641 72.3396 78.7362L74.2369 78.1038C73.7743 76.7159 73.1142 75.5229 72.2395 74.551L70.753 75.889ZM72.3412 78.741C72.7256 79.8752 72.9283 81.2138 72.9283 82.772H74.9283C74.9283 81.0449 74.7042 79.4821 74.2353 78.099L72.3412 78.741ZM72.9283 82.772C72.9283 84.3983 72.7246 85.7806 72.3396 86.9358L74.2369 87.5682C74.7052 86.1634 74.9283 84.559 74.9283 82.772H72.9283ZM72.3412 86.931C71.9508 88.0825 71.4145 89.0295 70.7448 89.7922L72.2477 91.1118C73.114 90.1252 73.7723 88.9388 74.2353 87.573L72.3412 86.931ZM70.7437 89.7935C70.1024 90.5264 69.3269 91.0747 68.4049 91.4435L69.1476 93.3005C70.3589 92.816 71.3968 92.0843 72.2488 91.1105L70.7437 89.7935ZM68.3984 91.4462C67.484 91.8193 66.4725 92.012 65.3522 92.012V94.012C66.7067 94.012 67.9778 93.778 69.1541 93.2978L68.3984 91.4462ZM87.0305 78.42L86.1436 78.8819L86.1473 78.8891L86.1512 78.8963L87.0305 78.42ZM82.4225 78.42L81.5356 77.9581L81.5318 77.9654L81.5281 77.9728L82.4225 78.42ZM82.4225 87.252L81.5359 87.7146L81.542 87.7262L81.5483 87.7376L82.4225 87.252ZM87.0305 87.252L86.1599 86.7599L86.1563 86.7664L87.0305 87.252ZM81.2705 92.372L80.8926 93.2979L80.8991 93.3005L81.2705 92.372ZM78.5505 90.452L77.7899 91.1013L77.7984 91.1112L77.8072 91.121L78.5505 90.452ZM76.7905 87.252L75.8372 87.5539L75.8402 87.5635L75.8434 87.573L76.7905 87.252ZM76.7905 78.42L75.8418 78.1038L75.8386 78.1135L76.7905 78.42ZM78.5505 75.22L77.7991 74.5602L77.7979 74.5615L78.5505 75.22ZM81.2705 73.236L80.8833 72.314L80.8766 72.3169L81.2705 73.236ZM88.1825 73.236L87.7886 74.1552L87.7953 74.158L88.1825 73.236ZM90.9025 75.22L90.1419 75.8693L90.1504 75.8792L90.1592 75.889L90.9025 75.22ZM92.6945 78.42L91.7458 78.7362L91.7474 78.741L92.6945 78.42ZM92.6945 87.252L93.6416 87.573L93.6432 87.5682L92.6945 87.252ZM90.9025 90.452L90.1511 89.7922L90.1499 89.7935L90.9025 90.452ZM88.1825 92.372L87.8111 91.4435L87.8046 91.4462L88.1825 92.372ZM88.8625 82.772C88.8625 80.8194 88.578 79.1773 87.9098 77.9437L86.1512 78.8963C86.5924 79.7107 86.8625 80.9699 86.8625 82.772H88.8625ZM87.9174 77.9581C87.5921 77.3335 87.1643 76.806 86.6092 76.4359C86.0467 76.061 85.4075 75.884 84.7265 75.884V77.884C85.0482 77.884 85.2943 77.963 85.4998 78.1C85.7127 78.242 85.9355 78.4824 86.1436 78.8819L87.9174 77.9581ZM84.7265 75.884C84.0455 75.884 83.4063 76.061 82.8438 76.4359C82.2887 76.806 81.8609 77.3335 81.5356 77.9581L83.3094 78.8819C83.5175 78.4824 83.7403 78.242 83.9532 78.1C84.1587 77.963 84.4048 77.884 84.7265 77.884V75.884ZM81.5281 77.9728C80.9159 79.1972 80.6545 80.8272 80.6545 82.772H82.6545C82.6545 80.9622 82.9051 79.6908 83.3169 78.8672L81.5281 77.9728ZM80.6545 82.772C80.6545 84.8275 80.911 86.5169 81.5359 87.7146L83.3091 86.7894C82.91 86.0245 82.6545 84.7272 82.6545 82.772H80.6545ZM81.5483 87.7376C82.2375 88.9781 83.3202 89.692 84.7265 89.692V87.692C84.1274 87.692 83.6742 87.4459 83.2967 86.7664L81.5483 87.7376ZM84.7265 89.692C86.1328 89.692 87.2155 88.9781 87.9047 87.7376L86.1563 86.7664C85.7788 87.4459 85.3256 87.692 84.7265 87.692V89.692ZM87.9011 87.7441C88.5835 86.5367 88.8625 84.8342 88.8625 82.772H86.8625C86.8625 84.7205 86.5869 86.0046 86.1599 86.7599L87.9011 87.7441ZM84.7585 92.012C83.6149 92.012 82.5796 91.8186 81.6419 91.4435L80.8991 93.3005C82.0947 93.7787 83.3848 94.012 84.7585 94.012V92.012ZM81.6484 91.4462C80.7451 91.0775 79.9627 90.5262 79.2938 89.783L77.8072 91.121C78.6743 92.0844 79.7052 92.8132 80.8926 93.2978L81.6484 91.4462ZM79.3111 89.8027C78.6586 89.0385 78.1297 88.0879 77.7376 86.931L75.8434 87.573C76.3046 88.9335 76.949 90.1162 77.7899 91.1013L79.3111 89.8027ZM77.7438 86.9501C77.3765 85.7901 77.1825 84.4026 77.1825 82.772H75.1825C75.1825 84.5547 75.3938 86.1539 75.8372 87.5539L77.7438 86.9501ZM77.1825 82.772C77.1825 81.2093 77.3756 79.8655 77.7424 78.7265L75.8386 78.1135C75.3948 79.4918 75.1825 81.0494 75.1825 82.772H77.1825ZM77.7392 78.7362C78.1317 77.5587 78.6588 76.6148 79.3031 75.8785L77.7979 74.5615C76.9489 75.5319 76.3027 76.7213 75.8418 78.1038L77.7392 78.7362ZM79.3019 75.8798C79.974 75.1144 80.7594 74.543 81.6644 74.1551L80.8766 72.3169C79.691 72.825 78.663 73.5762 77.7991 74.5602L79.3019 75.8798ZM81.6577 74.158C82.5914 73.7659 83.621 73.564 84.7585 73.564V71.564C83.3786 71.564 82.083 71.8101 80.8833 72.314L81.6577 74.158ZM84.7585 73.564C85.8724 73.564 86.8783 73.765 87.7886 74.1551L88.5764 72.3169C87.396 71.811 86.1192 71.564 84.7585 71.564V73.564ZM87.7953 74.158C88.7188 74.5459 89.4973 75.1142 90.1419 75.8693L91.6631 74.5707C90.8143 73.5765 89.7795 72.8221 88.5697 72.314L87.7953 74.158ZM90.1592 75.889C90.8205 76.6238 91.3551 77.5641 91.7458 78.7362L93.6432 78.1038C93.1806 76.7159 92.5205 75.5229 91.6458 74.551L90.1592 75.889ZM91.7474 78.741C92.1319 79.8752 92.3345 81.2138 92.3345 82.772H94.3345C94.3345 81.0449 94.1104 79.4821 93.6416 78.099L91.7474 78.741ZM92.3345 82.772C92.3345 84.3983 92.1309 85.7806 91.7458 86.9358L93.6432 87.5682C94.1115 86.1634 94.3345 84.559 94.3345 82.772H92.3345ZM91.7474 86.931C91.3571 88.0825 90.8207 89.0295 90.1511 89.7922L91.6539 91.1118C92.5203 90.1252 93.1786 88.9388 93.6416 87.573L91.7474 86.931ZM90.1499 89.7935C89.5086 90.5264 88.7332 91.0747 87.8111 91.4435L88.5539 93.3005C89.7651 92.816 90.803 92.0843 91.6551 91.1105L90.1499 89.7935ZM87.8046 91.4462C86.8903 91.8193 85.8787 92.012 84.7585 92.012V94.012C86.1129 94.012 87.3841 93.778 88.5604 93.2978L87.8046 91.4462ZM106.437 78.42L105.55 78.8819L105.554 78.8891L105.557 78.8963L106.437 78.42ZM101.829 78.42L100.942 77.9581L100.938 77.9654L100.934 77.9728L101.829 78.42ZM101.829 87.252L100.942 87.7146L100.948 87.7262L100.955 87.7376L101.829 87.252ZM106.437 87.252L105.566 86.7599L105.563 86.7664L106.437 87.252ZM100.677 92.372L100.299 93.2979L100.305 93.3005L100.677 92.372ZM97.9567 90.452L97.1962 91.1013L97.2047 91.1112L97.2135 91.121L97.9567 90.452ZM96.1967 87.252L95.2434 87.5539L95.2465 87.5635L95.2497 87.573L96.1967 87.252ZM96.1967 78.42L95.248 78.1038L95.2449 78.1135L96.1967 78.42ZM97.9567 75.22L97.2053 74.5602L97.2042 74.5615L97.9567 75.22ZM100.677 73.236L100.29 72.314L100.283 72.3169L100.677 73.236ZM107.589 73.236L107.195 74.1552L107.202 74.158L107.589 73.236ZM110.309 75.22L109.548 75.8693L109.557 75.8792L109.565 75.889L110.309 75.22ZM112.101 78.42L111.152 78.7362L111.154 78.741L112.101 78.42ZM112.101 87.252L113.048 87.573L113.049 87.5682L112.101 87.252ZM110.309 90.452L109.557 89.7922L109.556 89.7935L110.309 90.452ZM107.589 92.372L107.217 91.4435L107.211 91.4462L107.589 92.372ZM108.269 82.772C108.269 80.8194 107.984 79.1773 107.316 77.9437L105.557 78.8963C105.999 79.7107 106.269 80.9699 106.269 82.772H108.269ZM107.324 77.9581C106.998 77.3335 106.571 76.806 106.015 76.4359C105.453 76.061 104.814 75.884 104.133 75.884V77.884C104.454 77.884 104.701 77.963 104.906 78.1C105.119 78.242 105.342 78.4824 105.55 78.8819L107.324 77.9581ZM104.133 75.884C103.452 75.884 102.813 76.061 102.25 76.4359C101.695 76.806 101.267 77.3335 100.942 77.9581L102.716 78.8819C102.924 78.4824 103.147 78.242 103.359 78.1C103.565 77.963 103.811 77.884 104.133 77.884V75.884ZM100.934 77.9728C100.322 79.1972 100.061 80.8272 100.061 82.772H102.061C102.061 80.9622 102.311 79.6908 102.723 78.8672L100.934 77.9728ZM100.061 82.772C100.061 84.8275 100.317 86.5169 100.942 87.7146L102.715 86.7894C102.316 86.0245 102.061 84.7272 102.061 82.772H100.061ZM100.955 87.7376C101.644 88.9781 102.726 89.692 104.133 89.692V87.692C103.534 87.692 103.08 87.4459 102.703 86.7664L100.955 87.7376ZM104.133 89.692C105.539 89.692 106.622 88.9781 107.311 87.7376L105.563 86.7664C105.185 87.4459 104.732 87.692 104.133 87.692V89.692ZM107.307 87.7441C107.99 86.5367 108.269 84.8342 108.269 82.772H106.269C106.269 84.7205 105.993 86.0046 105.566 86.7599L107.307 87.7441ZM104.165 92.012C103.021 92.012 101.986 91.8186 101.048 91.4435L100.305 93.3005C101.501 93.7787 102.791 94.012 104.165 94.012V92.012ZM101.055 91.4462C100.151 91.0775 99.3689 90.5262 98.7 89.783L97.2135 91.121C98.0806 92.0844 99.1115 92.8132 100.299 93.2978L101.055 91.4462ZM98.7173 89.8027C98.0649 89.0385 97.536 88.0879 97.1438 86.931L95.2497 87.573C95.7108 88.9335 96.3553 90.1162 97.1962 91.1013L98.7173 89.8027ZM97.1501 86.9501C96.7827 85.7901 96.5888 84.4026 96.5888 82.772H94.5888C94.5888 84.5547 94.8001 86.1539 95.2434 87.5539L97.1501 86.9501ZM96.5888 82.772C96.5888 81.2093 96.7818 79.8655 97.1486 78.7265L95.2449 78.1135C94.801 79.4918 94.5888 81.0494 94.5888 82.772H96.5888ZM97.1454 78.7362C97.5379 77.5587 98.0651 76.6148 98.7093 75.8785L97.2042 74.5615C96.3551 75.5319 95.7089 76.7213 95.2481 78.1038L97.1454 78.7362ZM98.7082 75.8798C99.3802 75.1144 100.166 74.543 101.071 74.1551L100.283 72.3169C99.0972 72.825 98.0693 73.5762 97.2053 74.5602L98.7082 75.8798ZM101.064 74.158C101.998 73.7659 103.027 73.564 104.165 73.564V71.564C102.785 71.564 101.489 71.8101 100.29 72.314L101.064 74.158ZM104.165 73.564C105.279 73.564 106.285 73.765 107.195 74.1551L107.983 72.3169C106.802 71.811 105.525 71.564 104.165 71.564V73.564ZM107.202 74.158C108.125 74.5459 108.904 75.1142 109.548 75.8693L111.069 74.5707C110.221 73.5765 109.186 72.8221 107.976 72.314L107.202 74.158ZM109.565 75.889C110.227 76.6238 110.761 77.5641 111.152 78.7362L113.049 78.1038C112.587 76.7159 111.927 75.5229 111.052 74.551L109.565 75.889ZM111.154 78.741C111.538 79.8752 111.741 81.2138 111.741 82.772H113.741C113.741 81.0449 113.517 79.4821 113.048 78.099L111.154 78.741ZM111.741 82.772C111.741 84.3983 111.537 85.7806 111.152 86.9358L113.049 87.5682C113.518 86.1634 113.741 84.559 113.741 82.772H111.741ZM111.154 86.931C110.763 88.0825 110.227 89.0295 109.557 89.7922L111.06 91.1118C111.927 90.1252 112.585 88.9388 113.048 87.573L111.154 86.931ZM109.556 89.7935C108.915 90.5264 108.139 91.0747 107.217 91.4435L107.96 93.3005C109.171 92.816 110.209 92.0843 111.061 91.1105L109.556 89.7935ZM107.211 91.4462C106.297 91.8193 105.285 92.012 104.165 92.012V94.012C105.519 94.012 106.79 93.778 107.967 93.2978L107.211 91.4462ZM115.323 79.22L114.768 80.052L115.164 80.3161L115.619 80.1752L115.323 79.22ZM114.363 78.324L113.594 78.9642L114.363 78.324ZM116.218 74.036L116.531 74.986L116.54 74.983L116.218 74.036ZM119.802 72.82V71.82H119.637L119.481 71.873L119.802 72.82ZM123.162 73.62L123.87 72.9129V72.9129L123.162 73.62ZM123.963 92.468L124.226 93.4328L124.963 93.2318V92.468H123.963ZM122.938 92.66L122.797 91.67L122.79 91.6711L122.938 92.66ZM119.227 92.244L118.615 93.0353L118.627 93.0442L118.638 93.0527L119.227 92.244ZM118.522 78.228H119.522V76.8711L118.226 77.2728L118.522 78.228ZM115.877 78.3879C115.657 78.2412 115.407 78.0148 115.131 77.6838L113.594 78.9642C113.958 79.4012 114.348 79.7722 114.768 80.052L115.877 78.3879ZM115.131 77.6838C115.007 77.5357 114.882 77.2581 114.882 76.724H112.882C112.882 77.5552 113.078 78.3443 113.594 78.9642L115.131 77.6838ZM114.882 76.724C114.882 76.3046 115.003 75.9992 115.221 75.748C115.456 75.4784 115.861 75.2062 116.531 74.986L115.906 73.086C115.019 73.3778 114.256 73.8096 113.712 74.436C113.151 75.0808 112.882 75.8634 112.882 76.724H114.882ZM116.54 74.983L120.124 73.767L119.481 71.873L115.897 73.089L116.54 74.983ZM119.802 73.82H120.987V71.82H119.802V73.82ZM120.987 73.82C121.7 73.82 122.149 74.0205 122.455 74.3271L123.87 72.9129C123.11 72.1528 122.108 71.82 120.987 71.82V73.82ZM122.455 74.3271C122.762 74.6337 122.963 75.0828 122.963 75.796H124.963C124.963 74.6746 124.63 73.673 123.87 72.9129L122.455 74.3271ZM122.963 75.796V92.468H124.963V75.796H122.963ZM123.699 91.5032C123.525 91.5507 123.233 91.6078 122.797 91.67L123.08 93.65C123.54 93.5842 123.93 93.5133 124.226 93.4328L123.699 91.5032ZM122.79 91.6711C122.421 91.7265 122.002 91.756 121.531 91.756V93.756C122.083 93.756 122.603 93.7215 123.087 93.6489L122.79 91.6711ZM121.531 91.756C120.521 91.756 120.021 91.5851 119.815 91.4353L118.638 93.0527C119.371 93.5856 120.406 93.756 121.531 93.756V91.756ZM119.838 91.4527C119.742 91.3785 119.522 91.0984 119.522 90.196H117.522C117.522 91.2989 117.772 92.3842 118.615 93.0353L119.838 91.4527ZM119.522 90.196V78.228H117.522V90.196H119.522ZM118.226 77.2728L115.026 78.2648L115.619 80.1752L118.819 79.1832L118.226 77.2728ZM138.093 78.42L137.206 78.8819L137.21 78.8891L137.214 78.8963L138.093 78.42ZM133.485 78.42L132.598 77.9581L132.594 77.9654L132.591 77.9728L133.485 78.42ZM133.485 87.252L132.598 87.7146L132.604 87.7262L132.611 87.7376L133.485 87.252ZM138.093 87.252L137.222 86.7599L137.219 86.7664L138.093 87.252ZM132.333 92.372L131.955 93.2979L131.962 93.3005L132.333 92.372ZM129.613 90.452L128.852 91.1013L128.861 91.1112L128.87 91.121L129.613 90.452ZM127.853 87.252L126.9 87.5539L126.903 87.5635L126.906 87.573L127.853 87.252ZM127.853 78.42L126.904 78.1038L126.901 78.1135L127.853 78.42ZM129.613 75.22L128.862 74.5602L128.86 74.5615L129.613 75.22ZM132.333 73.236L131.946 72.314L131.939 72.3169L132.333 73.236ZM139.245 73.236L138.851 74.1552L138.858 74.158L139.245 73.236ZM141.965 75.22L141.204 75.8693L141.213 75.8792L141.222 75.889L141.965 75.22ZM143.757 78.42L142.808 78.7362L142.81 78.741L143.757 78.42ZM143.757 87.252L144.704 87.573L144.706 87.5682L143.757 87.252ZM141.965 90.452L141.214 89.7922L141.212 89.7935L141.965 90.452ZM139.245 92.372L138.874 91.4435L138.867 91.4462L139.245 92.372ZM139.925 82.772C139.925 80.8194 139.64 79.1773 138.972 77.9437L137.214 78.8963C137.655 79.7107 137.925 80.9699 137.925 82.772H139.925ZM138.98 77.9581C138.655 77.3335 138.227 76.806 137.672 76.4359C137.109 76.061 136.47 75.884 135.789 75.884V77.884C136.111 77.884 136.357 77.963 136.562 78.1C136.775 78.242 136.998 78.4824 137.206 78.8819L138.98 77.9581ZM135.789 75.884C135.108 75.884 134.469 76.061 133.906 76.4359C133.351 76.806 132.923 77.3335 132.598 77.9581L134.372 78.8819C134.58 78.4824 134.803 78.242 135.016 78.1C135.221 77.963 135.467 77.884 135.789 77.884V75.884ZM132.591 77.9728C131.978 79.1972 131.717 80.8272 131.717 82.772H133.717C133.717 80.9622 133.968 79.6908 134.379 78.8672L132.591 77.9728ZM131.717 82.772C131.717 84.8275 131.974 86.5169 132.598 87.7146L134.372 86.7894C133.972 86.0245 133.717 84.7272 133.717 82.772H131.717ZM132.611 87.7376C133.3 88.9781 134.383 89.692 135.789 89.692V87.692C135.19 87.692 134.737 87.4459 134.359 86.7664L132.611 87.7376ZM135.789 89.692C137.195 89.692 138.278 88.9781 138.967 87.7376L137.219 86.7664C136.841 87.4459 136.388 87.692 135.789 87.692V89.692ZM138.964 87.7441C139.646 86.5367 139.925 84.8342 139.925 82.772H137.925C137.925 84.7205 137.649 86.0046 137.222 86.7599L138.964 87.7441ZM135.821 92.012C134.677 92.012 133.642 91.8186 132.704 91.4435L131.962 93.3005C133.157 93.7787 134.447 94.012 135.821 94.012V92.012ZM132.711 91.4462C131.808 91.0775 131.025 90.5262 130.356 89.783L128.87 91.121C129.737 92.0844 130.768 92.8132 131.955 93.2978L132.711 91.4462ZM130.374 89.8027C129.721 89.0385 129.192 88.0879 128.8 86.931L126.906 87.573C127.367 88.9335 128.012 90.1162 128.852 91.1013L130.374 89.8027ZM128.806 86.9501C128.439 85.7901 128.245 84.4026 128.245 82.772H126.245C126.245 84.5547 126.456 86.1539 126.9 87.5539L128.806 86.9501ZM128.245 82.772C128.245 81.2093 128.438 79.8655 128.805 78.7265L126.901 78.1135C126.457 79.4918 126.245 81.0494 126.245 82.772H128.245ZM128.802 78.7362C129.194 77.5587 129.721 76.6148 130.366 75.8785L128.86 74.5615C128.011 75.5319 127.365 76.7213 126.904 78.1038L128.802 78.7362ZM130.364 75.8798C131.036 75.1144 131.822 74.543 132.727 74.1551L131.939 72.3169C130.753 72.825 129.726 73.5762 128.862 74.5602L130.364 75.8798ZM132.72 74.158C133.654 73.7659 134.684 73.564 135.821 73.564V71.564C134.441 71.564 133.145 71.8101 131.946 72.314L132.72 74.158ZM135.821 73.564C136.935 73.564 137.941 73.765 138.851 74.1551L139.639 72.3169C138.459 71.811 137.182 71.564 135.821 71.564V73.564ZM138.858 74.158C139.781 74.5459 140.56 75.1142 141.204 75.8693L142.726 74.5707C141.877 73.5765 140.842 72.8221 139.632 72.314L138.858 74.158ZM141.222 75.889C141.883 76.6238 142.418 77.5641 142.808 78.7362L144.706 78.1038C144.243 76.7159 143.583 75.5229 142.708 74.551L141.222 75.889ZM142.81 78.741C143.194 79.8752 143.397 81.2138 143.397 82.772H145.397C145.397 81.0449 145.173 79.4821 144.704 78.099L142.81 78.741ZM143.397 82.772C143.397 84.3983 143.193 85.7806 142.808 86.9358L144.706 87.5682C145.174 86.1634 145.397 84.559 145.397 82.772H143.397ZM142.81 86.931C142.42 88.0825 141.883 89.0295 141.214 89.7922L142.716 91.1118C143.583 90.1252 144.241 88.9388 144.704 87.573L142.81 86.931ZM141.212 89.7935C140.571 90.5264 139.796 91.0747 138.874 91.4435L139.616 93.3005C140.828 92.816 141.866 92.0843 142.718 91.1105L141.212 89.7935ZM138.867 91.4462C137.953 91.8193 136.941 92.012 135.821 92.012V94.012C137.175 94.012 138.447 93.778 139.623 93.2978L138.867 91.4462ZM157.499 78.42L156.612 78.8819L156.616 78.8891L156.62 78.8963L157.499 78.42ZM152.891 78.42L152.004 77.9581L152.001 77.9654L151.997 77.9728L152.891 78.42ZM152.891 87.252L152.005 87.7146L152.011 87.7262L152.017 87.7376L152.891 87.252ZM157.499 87.252L156.629 86.7599L156.625 86.7664L157.499 87.252ZM151.739 92.372L151.361 93.2979L151.368 93.3005L151.739 92.372ZM149.019 90.452L148.259 91.1013L148.267 91.1112L148.276 91.121L149.019 90.452ZM147.259 87.252L146.306 87.5539L146.309 87.5635L146.312 87.573L147.259 87.252ZM147.259 78.42L146.311 78.1038L146.307 78.1135L147.259 78.42ZM149.019 75.22L148.268 74.5602L148.267 74.5615L149.019 75.22ZM151.739 73.236L151.352 72.314L151.345 72.3169L151.739 73.236ZM158.651 73.236L158.257 74.1552L158.264 74.158L158.651 73.236ZM161.371 75.22L160.611 75.8693L160.619 75.8792L160.628 75.889L161.371 75.22ZM163.163 78.42L162.215 78.7362L162.216 78.741L163.163 78.42ZM163.163 87.252L164.11 87.573L164.112 87.5682L163.163 87.252ZM161.371 90.452L160.62 89.7922L160.619 89.7935L161.371 90.452ZM158.651 92.372L158.28 91.4435L158.273 91.4462L158.651 92.372ZM159.331 82.772C159.331 80.8194 159.047 79.1773 158.379 77.9437L156.62 78.8963C157.061 79.7107 157.331 80.9699 157.331 82.772H159.331ZM158.386 77.9581C158.061 77.3335 157.633 76.806 157.078 76.4359C156.515 76.061 155.876 75.884 155.195 75.884V77.884C155.517 77.884 155.763 77.963 155.969 78.1C156.181 78.242 156.404 78.4824 156.612 78.8819L158.386 77.9581ZM155.195 75.884C154.514 75.884 153.875 76.061 153.313 76.4359C152.757 76.806 152.33 77.3335 152.004 77.9581L153.778 78.8819C153.986 78.4824 154.209 78.242 154.422 78.1C154.627 77.963 154.874 77.884 155.195 77.884V75.884ZM151.997 77.9728C151.385 79.1972 151.123 80.8272 151.123 82.772H153.123C153.123 80.9622 153.374 79.6908 153.786 78.8672L151.997 77.9728ZM151.123 82.772C151.123 84.8275 151.38 86.5169 152.005 87.7146L153.778 86.7894C153.379 86.0245 153.123 84.7272 153.123 82.772H151.123ZM152.017 87.7376C152.706 88.9781 153.789 89.692 155.195 89.692V87.692C154.596 87.692 154.143 87.4459 153.765 86.7664L152.017 87.7376ZM155.195 89.692C156.602 89.692 157.684 88.9781 158.373 87.7376L156.625 86.7664C156.248 87.4459 155.794 87.692 155.195 87.692V89.692ZM158.37 87.7441C159.052 86.5367 159.331 84.8342 159.331 82.772H157.331C157.331 84.7205 157.056 86.0046 156.629 86.7599L158.37 87.7441ZM155.227 92.012C154.084 92.012 153.048 91.8186 152.111 91.4435L151.368 93.3005C152.563 93.7787 153.854 94.012 155.227 94.012V92.012ZM152.117 91.4462C151.214 91.0775 150.431 90.5262 149.763 89.783L148.276 91.121C149.143 92.0844 150.174 92.8132 151.361 93.2978L152.117 91.4462ZM149.78 89.8027C149.127 89.0385 148.598 88.0879 148.206 86.931L146.312 87.573C146.773 88.9335 147.418 90.1162 148.259 91.1013L149.78 89.8027ZM148.213 86.9501C147.845 85.7901 147.651 84.4026 147.651 82.772H145.651C145.651 84.5547 145.863 86.1539 146.306 87.5539L148.213 86.9501ZM147.651 82.772C147.651 81.2093 147.844 79.8655 148.211 78.7265L146.307 78.1135C145.864 79.4918 145.651 81.0494 145.651 82.772H147.651ZM148.208 78.7362C148.6 77.5587 149.128 76.6148 149.772 75.8785L148.267 74.5615C147.418 75.5319 146.771 76.7213 146.311 78.1038L148.208 78.7362ZM149.771 75.8798C150.443 75.1144 151.228 74.543 152.133 74.1551L151.345 72.3169C150.16 72.825 149.132 73.5762 148.268 74.5602L149.771 75.8798ZM152.126 74.158C153.06 73.7659 154.09 73.564 155.227 73.564V71.564C153.847 71.564 152.552 71.8101 151.352 72.314L152.126 74.158ZM155.227 73.564C156.341 73.564 157.347 73.765 158.257 74.1551L159.045 72.3169C157.865 71.811 156.588 71.564 155.227 71.564V73.564ZM158.264 74.158C159.188 74.5459 159.966 75.1142 160.611 75.8693L162.132 74.5707C161.283 73.5765 160.248 72.8221 159.038 72.314L158.264 74.158ZM160.628 75.889C161.289 76.6238 161.824 77.5641 162.215 78.7362L164.112 78.1038C163.649 76.7159 162.989 75.5229 162.115 74.551L160.628 75.889ZM162.216 78.741C162.601 79.8752 162.803 81.2138 162.803 82.772H164.803C164.803 81.0449 164.579 79.4821 164.11 78.099L162.216 78.741ZM162.803 82.772C162.803 84.3983 162.6 85.7806 162.215 86.9358L164.112 87.5682C164.58 86.1634 164.803 84.559 164.803 82.772H162.803ZM162.216 86.931C161.826 88.0825 161.289 89.0295 160.62 89.7922L162.123 91.1118C162.989 90.1252 163.647 88.9388 164.11 87.573L162.216 86.931ZM160.619 89.7935C159.977 90.5264 159.202 91.0747 158.28 91.4435L159.023 93.3005C160.234 92.816 161.272 92.0843 162.124 91.1105L160.619 89.7935ZM158.273 91.4462C157.359 91.8193 156.347 92.012 155.227 92.012V94.012C156.582 94.012 157.853 93.778 159.029 93.2978L158.273 91.4462Z" fill="black"/>
    <path d="M216.184 54.5837C216.328 55.484 216.384 56.3965 216.349 57.3077C216.206 61.1781 214.457 63.8063 213.108 66.3037C212.595 67.2583 211.499 70.1785 209.307 76.0145C206.888 82.4521 205.679 85.673 204.957 89.5259C204.195 93.6404 203.186 99.0711 205.1 105.552C206.445 110.095 208.914 114.224 212.278 117.556C219.207 124.294 227.576 125.083 230.512 125.318C235.637 125.737 240.786 124.866 245.49 122.786C250.194 120.706 254.306 117.482 257.451 113.406C261.212 108.494 263.474 102.597 263.963 96.4255C264.642 87.4164 261.14 80.5212 257.486 73.3253C254.359 67.1711 252.88 66.4389 249.221 59.8575C245.864 53.8125 243.211 47.4013 241.313 40.7497L211.508 47.8672L216.184 54.5837Z" fill="#FFF9EA"/>
    <path d="M237.533 100.81C237.773 102.597 238.21 104.351 238.838 106.04C239.321 107.348 240.499 110.53 241.448 110.399C242.144 110.303 242.431 108.451 242.753 106.258C243.092 103.95 243.238 101.617 243.188 99.2846" stroke="black" stroke-width="2" stroke-miterlimit="10" stroke-linecap="round"/>
    <path d="M202.616 101.303C199.321 100.584 196.171 99.3139 193.298 97.5456C194.168 97.258 195.134 96.9877 196.139 96.7524C198.631 96.1667 201.179 95.8539 203.738 95.8197C203.808 96.0768 204.995 100.706 203.638 101.381C203.473 101.445 203.295 101.472 203.118 101.458C202.941 101.445 202.77 101.391 202.616 101.303Z" fill="#FFF9EA"/>
    <path d="M204.408 101.935C201.88 101.668 199.396 101.082 197.014 100.191C195.583 99.6552 192.533 98.5089 192.664 97.5761C192.764 96.8788 194.608 96.5911 196.8 96.2686C199.104 95.9282 201.432 95.7824 203.76 95.8327" stroke="black" stroke-width="2" stroke-miterlimit="10" stroke-linecap="round"/>
    <path opacity="0.3" d="M223.713 124.224C225.518 124.721 239.455 128.299 251.579 119.295C252.553 118.571 261.583 111.641 263.724 99.5288C263.724 99.5288 266.103 86.0173 256.181 71.2986C256.076 71.1461 256.042 71.0894 255.746 70.6492C253.24 67.0142 250.161 63.7453 247.268 57.0593C245.739 53.5143 244.603 49.8122 243.879 46.0192L234.479 45.5833C219.689 50.0944 216.566 52.1996 216.758 53.2761C217.11 55.2244 228.011 51.8422 238.355 57.2642C251.07 63.9327 254.845 79.6539 255.824 83.7378C257.177 89.3778 259.021 97.0531 255.824 104.959C251.292 116.109 238.594 123.274 223.713 124.224Z" fill="#FFF4CC"/>
    <path d="M245.95 4.13379C245.48 3.95509 244.928 3.74588 244.297 3.52795C243.862 13.9143 241.061 26.554 232.252 37.9603C227.731 43.7909 222.143 48.7061 215.788 52.4436C222.6 52.0557 224.54 50.5651 234.083 50.831C247.311 51.1971 249.386 54.235 258.665 52.9536C263.097 52.339 275.029 50.6915 278.161 43.6089C283.046 32.6124 265.298 11.4343 245.95 4.13379Z" fill="#1636DE"/>
    <path d="M215.687 52.4611C215.213 52.4872 214.713 52.509 214.187 52.5221C214.717 52.509 215.213 52.4872 215.687 52.4611Z" fill="#A37C4F"/>
    <path d="M232.252 37.9733C241.061 26.554 243.853 13.9143 244.297 3.54102C243.805 3.36668 243.262 3.18362 242.679 3.00056L242.505 2.94826C241.944 2.76956 241.33 2.59522 240.695 2.42524L240.36 2.33807C239.716 2.17245 239.034 2.01118 238.32 1.86299L237.972 1.79325C237.22 1.6407 236.437 1.50123 235.614 1.38355H235.532C234.731 1.27023 233.892 1.18306 233.026 1.11768L232.644 1.08717C231.774 1.03051 230.904 1 229.999 1H229.477C228.557 1 227.616 1.04504 226.654 1.13512L226.219 1.1787C225.192 1.27895 224.152 1.4097 223.082 1.61455C221.181 1.95452 214.718 3.26643 206.988 8.40949C193.268 17.5232 178.861 36.4784 184.103 45.7794C187.705 52.1734 199.693 52.3783 211.225 52.57C211.803 52.57 212.342 52.57 212.864 52.57H213.486C213.734 52.57 213.978 52.57 214.213 52.57C214.739 52.57 215.239 52.5352 215.714 52.509H215.814C222.164 48.7534 227.743 43.8203 232.252 37.9733Z" fill="#3A5AFF"/>
    <path d="M232.208 50.8135C231.143 50.8135 229.046 50.8484 226.388 51.0838C223.734 51.3226 221.094 51.7038 218.48 52.2257C213.225 53.1977 208.684 52.8141 202.277 52.278C193.385 51.5327 188.94 51.1622 186.295 48.2725C182.993 44.6724 183.093 39.6078 183.098 39.3855C183.176 37.0232 183.968 35.2405 184.838 33.4884C187.901 27.445 191.861 21.9018 196.583 17.0481C199.694 13.7647 203.177 10.8567 206.961 8.38333C209.741 6.59634 213.765 4.02481 219.411 2.46446C229.363 -0.329351 237.815 1.70172 241.317 2.59086C248.79 4.48246 253.766 7.74699 257.412 10.1355C263.315 14.2497 268.572 19.2255 273.006 24.8978C275.035 27.468 276.639 30.3479 277.756 33.4274C278.583 35.7418 279.126 37.3108 278.974 39.4552C278.613 44.5634 274.685 47.7364 274.041 48.242C272.763 49.2401 271.466 49.859 269.222 50.6087C265.433 51.8727 260.13 53.6597 252.879 53.2238C248.159 52.9579 248.238 52.0906 239.899 51.2145C237.345 50.9377 234.777 50.8039 232.208 50.8135Z" stroke="black" stroke-width="2" stroke-miterlimit="10"/>
    <path d="M215.5 52.4044C216.188 54.3265 216.805 56.0089 216.031 59.0294C215.412 61.1279 214.615 63.1693 213.647 65.1313C212.354 67.8808 211.204 70.6958 210.202 73.565C206.792 82.853 205.087 87.5123 204.547 92.0452C204.112 95.6584 203.19 103.499 207.305 111.096C212.26 120.249 222.678 125.636 232.783 125.758C243.253 125.88 250.617 120.306 253.475 117.765C254.698 116.68 262.319 109.728 263.95 98.195C265.555 86.8629 260.409 77.8146 258.395 74.2842C256.729 71.364 256.076 71.0676 252.779 65.8287C249.932 61.3619 247.361 56.7244 245.08 51.9424" stroke="black" stroke-width="2" stroke-miterlimit="10"/>
</svg>
