<svg xmlns="http://www.w3.org/2000/svg" width="106" height="112" viewBox="0 0 106 112" fill="none">
    <path d="M70.7142 48.723L70.7143 48.723L70.7198 48.7285C74.1827 52.1419 77.8613 55.814 79.2318 60.6796C82.4259 59.7685 85.4824 58.4307 88.3169 56.7015L88.3221 56.6984C88.3825 56.662 88.4311 56.6106 88.4634 56.5501C88.4957 56.4897 88.5107 56.4222 88.5073 56.3547C88.5039 56.2871 88.4822 56.2213 88.4439 56.1641C88.4055 56.1069 88.3517 56.0603 88.2876 56.03L88.27 56.0217L88.2528 56.0127L66.5582 44.6899L70.7142 48.723Z" fill="#FFC43B" stroke="#402E32" stroke-width="2"/>
    <path d="M51.6795 90.5618L51.6824 90.5519L51.6856 90.542C52.3348 88.513 52.4915 87.5178 53.1266 83.4824C53.2332 82.805 53.3533 82.0419 53.4915 81.1738C51.7114 80.1024 50.1152 78.7656 48.7636 77.2111C46.246 74.6183 43.7508 72.0028 41.2781 69.3647C43.9076 75.274 46.5386 81.1803 49.1711 87.0837L49.1716 87.0848C49.4409 87.6908 50.2527 89.2388 51.0718 90.2168C51.2719 90.4556 51.4506 90.6337 51.5998 90.7504C51.6038 90.7535 51.6078 90.7566 51.6116 90.7595C51.6326 90.7072 51.6556 90.6421 51.6795 90.5618Z" fill="#FFC43B" stroke="#402E32" stroke-width="2"/>
    <mask id="path-3-inside-1_1391_884" fill="white">
        <path d="M60.15 84.1877H60.9211C60.9211 84.5972 60.9211 85.0067 60.9211 85.4085C60.9068 86.6396 61.15 87.8604 61.6354 88.9952C62.1209 90.13 62.8384 91.1546 63.7433 92.0054C64.3501 92.5436 65.0176 93.0117 65.7327 93.4006C66.0539 93.551 66.3268 93.7856 66.5213 94.0785C66.7158 94.3715 66.8245 94.7115 66.8353 95.0612C66.8353 95.5996 66.6502 96.1228 66.604 96.6612C66.5112 97.63 66.5501 98.6066 66.7196 99.5653C66.7952 100.46 67.1979 101.298 67.8531 101.924C68.186 102.157 68.5967 102.257 69.002 102.204C69.7731 102.121 70.2743 101.605 70.9606 101.446C72.6339 100.953 73.8522 102.598 74.2763 103.948C74.4807 104.946 74.8204 105.913 75.2864 106.822C75.6338 107.355 76.0908 107.812 76.628 108.162C77.1652 108.511 77.7707 108.747 78.4059 108.854C79.0411 108.96 79.6918 108.935 80.3165 108.779C80.9411 108.624 81.5259 108.342 82.0334 107.952C81.4665 107.921 80.9125 107.774 80.4066 107.521C79.9007 107.268 79.4542 106.913 79.0955 106.481C78.0931 105.002 79.2343 102.735 80.9076 103.228C81.5112 103.47 82.025 103.888 82.3804 104.426C82.5906 104.755 82.8663 105.039 83.191 105.26C83.5156 105.482 83.8825 105.636 84.2695 105.715C86.3437 105.859 86.1355 103.046 87.7857 102.045C89.0502 101.287 90.4536 102.121 91.1707 103.205C92.096 104.593 91.8339 106.375 92.6281 107.808C92.9558 108.366 93.451 108.812 94.0458 109.083C94.6406 109.354 95.3061 109.439 95.9514 109.324C97.5881 109.151 99.1308 108.487 100.37 107.421C101.02 106.758 101.478 105.936 101.696 105.04C99.5987 105.283 97.7481 103.106 97.9871 100.801C98.0719 99.08 98.8199 97.5028 99.2285 95.8498C99.5006 95.0338 99.5648 94.1646 99.4156 93.3185C99.2664 92.4724 98.9082 91.6752 98.3726 90.997C97.0001 89.0482 94.1394 87.653 94.8102 84.8854C95.4194 83.1034 98.3726 83.2248 99.5524 84.8247C99.7729 83.5873 99.6312 82.3137 99.1439 81.1524C98.6565 79.9911 97.8435 78.99 96.7996 78.2657C95.8021 77.6574 94.664 77.3078 93.4917 77.2496C92.3455 77.2245 91.2043 77.0925 90.0835 76.8553C88.9635 76.5749 87.9836 75.9074 87.323 74.9749C86.4902 73.8678 86.336 72.3588 85.2488 71.4186C84.2362 70.6754 83.0307 70.2286 81.7712 70.1296C81.0849 70.0158 80.3987 69.9172 79.7201 69.8187C79.7741 69.5457 79.8204 69.2803 79.8589 69.0073C80.3755 69.0907 80.8922 69.1741 81.4011 69.2272C82.7229 69.3473 84.0086 69.7181 85.1871 70.3191C85.7036 70.6315 86.1496 71.0443 86.4979 71.5323C86.8788 72.1714 87.2038 72.841 87.4695 73.5342C87.723 74.1492 88.1216 74.6962 88.6324 75.13C89.1432 75.5637 89.7516 75.8718 90.4073 76.0288C91.591 76.2309 92.7856 76.3651 93.9852 76.4307C99.0281 76.7416 101.95 82.2238 99.8146 86.6369C99.7412 86.8429 99.6373 87.0371 99.5061 87.2132C99.244 87.6151 98.5808 87.2132 98.843 86.8265C98.9124 86.6976 98.9972 86.5384 99.0589 86.4095C99.1292 86.2146 99.1582 86.0076 99.1442 85.8013C99.1301 85.595 99.0734 85.3937 98.9773 85.2098C98.8813 85.0258 98.748 84.8632 98.5856 84.7317C98.4233 84.6003 98.2354 84.5029 98.0334 84.4456C97.2623 84.1271 95.9206 84.0664 95.6045 85.0446C95.0184 88.2824 100.1 89.1468 100.293 93.9163C100.193 95.4327 99.8526 96.9245 99.2825 98.3369C98.843 99.7625 98.4112 101.575 99.2825 102.932C99.9148 103.925 101.326 104.638 102.429 103.925C102.791 103.698 103.2 104.251 102.891 104.524C102.861 104.558 102.832 104.593 102.806 104.631H102.768C102.136 105.449 102.336 105.988 101.519 107.216C100.595 108.278 99.3877 109.066 98.0334 109.491C96.9207 109.958 95.6969 110.108 94.5018 109.923C93.8929 109.812 93.323 109.55 92.8465 109.161C92.37 108.772 92.0028 108.27 91.7799 107.701C91.1861 106.321 91.3558 104.668 90.4382 103.395C90.2561 103.09 89.9921 102.84 89.6752 102.673C89.3583 102.505 89.0007 102.427 88.6416 102.447C88.375 102.523 88.1288 102.656 87.9209 102.837C87.7129 103.018 87.5482 103.242 87.4387 103.493C86.9143 104.418 86.5828 105.563 85.5881 106.117C84.3698 106.799 82.8893 106.162 82.0411 105.207C81.6401 104.737 81.1389 103.872 80.4141 103.91C79.8281 103.91 79.5351 104.615 79.4965 105.108C79.3731 106.799 81.6401 107.171 82.9047 107.292C82.9802 107.293 83.0536 107.316 83.1161 107.358C83.1785 107.399 83.227 107.458 83.2558 107.527C83.2845 107.595 83.2921 107.671 83.2777 107.744C83.2633 107.816 83.2274 107.884 83.1746 107.937C80.0902 111.098 74.5847 109.764 73.7365 104.782C73.5903 103.848 73.1056 102.997 72.3717 102.386C72.2048 102.264 72.0119 102.181 71.8076 102.143C71.6032 102.104 71.3927 102.113 71.1919 102.166C70.7447 102.295 70.3746 102.621 69.9273 102.788C69.4378 102.978 68.9059 103.038 68.3852 102.962C66.2955 102.598 65.91 99.8535 65.8406 98.1701C65.7953 97.1382 65.8756 96.1047 66.0796 95.0916C66.0796 94.1362 64.9693 93.8253 64.2984 93.3703C63.2065 92.6216 62.2834 91.6594 61.5868 90.5439C60.8903 89.4283 60.4353 88.1835 60.2502 86.8872C60.1601 85.9903 60.1266 85.0887 60.15 84.1877Z"/>
    </mask>
    <path d="M60.15 84.1877H60.9211C60.9211 84.5972 60.9211 85.0067 60.9211 85.4085C60.9068 86.6396 61.15 87.8604 61.6354 88.9952C62.1209 90.13 62.8384 91.1546 63.7433 92.0054C64.3501 92.5436 65.0176 93.0117 65.7327 93.4006C66.0539 93.551 66.3268 93.7856 66.5213 94.0785C66.7158 94.3715 66.8245 94.7115 66.8353 95.0612C66.8353 95.5996 66.6502 96.1228 66.604 96.6612C66.5112 97.63 66.5501 98.6066 66.7196 99.5653C66.7952 100.46 67.1979 101.298 67.8531 101.924C68.186 102.157 68.5967 102.257 69.002 102.204C69.7731 102.121 70.2743 101.605 70.9606 101.446C72.6339 100.953 73.8522 102.598 74.2763 103.948C74.4807 104.946 74.8204 105.913 75.2864 106.822C75.6338 107.355 76.0908 107.812 76.628 108.162C77.1652 108.511 77.7707 108.747 78.4059 108.854C79.0411 108.96 79.6918 108.935 80.3165 108.779C80.9411 108.624 81.5259 108.342 82.0334 107.952C81.4665 107.921 80.9125 107.774 80.4066 107.521C79.9007 107.268 79.4542 106.913 79.0955 106.481C78.0931 105.002 79.2343 102.735 80.9076 103.228C81.5112 103.47 82.025 103.888 82.3804 104.426C82.5906 104.755 82.8663 105.039 83.191 105.26C83.5156 105.482 83.8825 105.636 84.2695 105.715C86.3437 105.859 86.1355 103.046 87.7857 102.045C89.0502 101.287 90.4536 102.121 91.1707 103.205C92.096 104.593 91.8339 106.375 92.6281 107.808C92.9558 108.366 93.451 108.812 94.0458 109.083C94.6406 109.354 95.3061 109.439 95.9514 109.324C97.5881 109.151 99.1308 108.487 100.37 107.421C101.02 106.758 101.478 105.936 101.696 105.04C99.5987 105.283 97.7481 103.106 97.9871 100.801C98.0719 99.08 98.8199 97.5028 99.2285 95.8498C99.5006 95.0338 99.5648 94.1646 99.4156 93.3185C99.2664 92.4724 98.9082 91.6752 98.3726 90.997C97.0001 89.0482 94.1394 87.653 94.8102 84.8854C95.4194 83.1034 98.3726 83.2248 99.5524 84.8247C99.7729 83.5873 99.6312 82.3137 99.1439 81.1524C98.6565 79.9911 97.8435 78.99 96.7996 78.2657C95.8021 77.6574 94.664 77.3078 93.4917 77.2496C92.3455 77.2245 91.2043 77.0925 90.0835 76.8553C88.9635 76.5749 87.9836 75.9074 87.323 74.9749C86.4902 73.8678 86.336 72.3588 85.2488 71.4186C84.2362 70.6754 83.0307 70.2286 81.7712 70.1296C81.0849 70.0158 80.3987 69.9172 79.7201 69.8187C79.7741 69.5457 79.8204 69.2803 79.8589 69.0073C80.3755 69.0907 80.8922 69.1741 81.4011 69.2272C82.7229 69.3473 84.0086 69.7181 85.1871 70.3191C85.7036 70.6315 86.1496 71.0443 86.4979 71.5323C86.8788 72.1714 87.2038 72.841 87.4695 73.5342C87.723 74.1492 88.1216 74.6962 88.6324 75.13C89.1432 75.5637 89.7516 75.8718 90.4073 76.0288C91.591 76.2309 92.7856 76.3651 93.9852 76.4307C99.0281 76.7416 101.95 82.2238 99.8146 86.6369C99.7412 86.8429 99.6373 87.0371 99.5061 87.2132C99.244 87.6151 98.5808 87.2132 98.843 86.8265C98.9124 86.6976 98.9972 86.5384 99.0589 86.4095C99.1292 86.2146 99.1582 86.0076 99.1442 85.8013C99.1301 85.595 99.0734 85.3937 98.9773 85.2098C98.8813 85.0258 98.748 84.8632 98.5856 84.7317C98.4233 84.6003 98.2354 84.5029 98.0334 84.4456C97.2623 84.1271 95.9206 84.0664 95.6045 85.0446C95.0184 88.2824 100.1 89.1468 100.293 93.9163C100.193 95.4327 99.8526 96.9245 99.2825 98.3369C98.843 99.7625 98.4112 101.575 99.2825 102.932C99.9148 103.925 101.326 104.638 102.429 103.925C102.791 103.698 103.2 104.251 102.891 104.524C102.861 104.558 102.832 104.593 102.806 104.631H102.768C102.136 105.449 102.336 105.988 101.519 107.216C100.595 108.278 99.3877 109.066 98.0334 109.491C96.9207 109.958 95.6969 110.108 94.5018 109.923C93.8929 109.812 93.323 109.55 92.8465 109.161C92.37 108.772 92.0028 108.27 91.7799 107.701C91.1861 106.321 91.3558 104.668 90.4382 103.395C90.2561 103.09 89.9921 102.84 89.6752 102.673C89.3583 102.505 89.0007 102.427 88.6416 102.447C88.375 102.523 88.1288 102.656 87.9209 102.837C87.7129 103.018 87.5482 103.242 87.4387 103.493C86.9143 104.418 86.5828 105.563 85.5881 106.117C84.3698 106.799 82.8893 106.162 82.0411 105.207C81.6401 104.737 81.1389 103.872 80.4141 103.91C79.8281 103.91 79.5351 104.615 79.4965 105.108C79.3731 106.799 81.6401 107.171 82.9047 107.292C82.9802 107.293 83.0536 107.316 83.1161 107.358C83.1785 107.399 83.227 107.458 83.2558 107.527C83.2845 107.595 83.2921 107.671 83.2777 107.744C83.2633 107.816 83.2274 107.884 83.1746 107.937C80.0902 111.098 74.5847 109.764 73.7365 104.782C73.5903 103.848 73.1056 102.997 72.3717 102.386C72.2048 102.264 72.0119 102.181 71.8076 102.143C71.6032 102.104 71.3927 102.113 71.1919 102.166C70.7447 102.295 70.3746 102.621 69.9273 102.788C69.4378 102.978 68.9059 103.038 68.3852 102.962C66.2955 102.598 65.91 99.8535 65.8406 98.1701C65.7953 97.1382 65.8756 96.1047 66.0796 95.0916C66.0796 94.1362 64.9693 93.8253 64.2984 93.3703C63.2065 92.6216 62.2834 91.6594 61.5868 90.5439C60.8903 89.4283 60.4353 88.1835 60.2502 86.8872C60.1601 85.9903 60.1266 85.0887 60.15 84.1877Z" stroke="#402E32" stroke-width="8" mask="url(#path-3-inside-1_1391_884)"/>
    <path d="M81.7777 77.2536L81.7748 77.2526C80.6008 76.853 79.3926 76.5622 78.1655 76.3835C75.6984 79.7619 72.2531 82.3104 68.2921 83.6893C68.3482 84.5448 68.7246 85.3518 69.3518 85.949C70.0152 86.5806 70.905 86.9257 71.8259 86.9066L72.9123 86.8841L72.8447 87.9685C72.7594 89.3395 72.8729 90.7157 73.1819 92.0546L73.1889 92.0849L73.194 92.1155C73.2426 92.4076 73.3591 92.6847 73.5346 92.9247C73.6669 93.0558 73.8945 93.1548 74.2924 93.1503C74.7161 93.1455 75.2111 93.0191 75.6588 92.8307C75.6906 92.8173 75.7231 92.8036 75.7561 92.7897C76.2473 92.5825 76.8635 92.3226 77.4859 92.16C78.1451 91.9878 78.9528 91.884 79.7356 92.161C80.4887 92.4275 81.014 92.9401 81.4059 93.4026C81.585 93.614 81.7538 93.8368 81.9036 94.0347C81.9175 94.053 81.9312 94.0711 81.9447 94.089C82.1106 94.3077 82.2562 94.4969 82.4059 94.6668C83.2329 95.5838 84.3632 96.1782 85.5938 96.3414C86.2991 96.4349 87.0101 96.3831 87.6846 96.1958C87.5862 96.1443 87.4857 96.0931 87.381 96.0397C87.2413 95.9684 87.0941 95.8934 86.9344 95.809C86.1398 95.3891 85.0402 94.7495 84.6808 93.4552L84.6662 93.4029L84.6575 93.3493C84.5533 92.7133 84.6198 92.0612 84.8502 91.4591C85.0801 90.8584 85.4648 90.3291 85.9649 89.9242C86.7291 89.2978 87.5431 88.7342 88.3991 88.239L88.3991 88.239L88.4088 88.2335C88.8269 87.9978 89.1397 87.6173 89.2891 87.1677C89.341 86.8666 89.2273 86.5355 88.7693 86.1508C88.2844 85.7436 87.5527 85.4171 86.8286 85.2472C86.0068 85.0543 84.9846 84.7983 84.1176 84.3452C83.236 83.8843 82.3705 83.1416 82.1164 81.9222C82.0004 81.3721 82.0474 80.8458 82.1318 80.3947C82.1967 80.0476 82.2963 79.6898 82.3807 79.3867C82.4024 79.3089 82.423 79.2346 82.4418 79.1651C82.6487 78.4011 82.6635 78.0545 82.5333 77.8037C82.3451 77.5486 82.0817 77.3561 81.7777 77.2536Z" fill="#FFC43B" stroke="#402E32" stroke-width="2"/>
    <path d="M69.5514 49.5709L42.3158 23.0338C41.445 28.0568 38.9283 32.6777 35.1277 36.1649C31.0427 39.9131 25.7554 42.094 20.2147 42.3385C29.7083 54.0552 39.6303 65.3937 49.9808 76.3539L50.0001 76.3744L50.0183 76.396C51.3657 77.9945 52.9895 79.3435 54.8142 80.3801C56.728 81.1928 58.8136 81.5324 60.8906 81.3688L60.9019 81.368L60.9132 81.3673C63.5679 81.2186 66.1637 80.5351 68.5417 79.3589C70.9158 78.1846 73.0228 76.5441 74.7344 74.5379C76.3754 72.5058 77.4776 70.1011 77.9419 67.5418C78.4061 64.9827 78.218 62.3493 77.3944 59.8802C75.9463 55.9047 72.8152 52.7493 69.5516 49.571L69.5514 49.5709Z" fill="#FFF9EA" stroke="#402E32" stroke-width="2"/>
    <path d="M56.6212 56.0123C57.1384 58.1351 58.0262 61.7789 56.2555 63.2583C55.3403 64.0224 54.5185 63.5369 50.5226 63.4996C45.6985 63.4536 44.569 64.1387 43.8134 63.2583C43.0577 62.3778 43.9262 61.4112 45.5213 55.5297C46.4526 52.0912 46.6605 50.5717 48.204 49.2503C48.7406 48.7921 49.8701 47.8255 51.2541 47.9217C54.7087 48.1601 56.3231 54.7857 56.6212 56.0123Z" fill="#FFF9EA"/>
    <path d="M5.06865 3.00696L5.01587 3.00808L4.96326 3.00364C4.8053 2.99032 4.64636 3.01363 4.49878 3.0718C4.36992 3.1226 4.25268 3.19881 4.15397 3.29575C4.12607 3.34768 4.07805 3.46536 4.04305 3.68971C4.00027 3.96392 3.98701 4.33138 4.01408 4.7988C4.06822 5.73403 4.27591 6.95089 4.61298 8.39028C5.28557 11.2624 6.43798 14.8751 7.7416 18.6063C9.04314 22.3316 10.4851 26.146 11.7295 29.4168C11.8507 29.7351 11.97 30.0486 12.0873 30.3566C13.1688 33.197 14.0722 35.5697 14.5306 36.9659L14.5307 36.9658L14.5333 36.9743C15.0947 38.7364 15.768 40.3116 16.9559 41.1506C18.0438 41.7788 19.2948 42.0666 20.5478 41.9765L20.581 41.9741L20.6144 41.974C25.8848 41.9471 30.9565 39.9555 34.8402 36.3872C38.724 32.8189 41.1413 27.9298 41.6203 22.6732C41.8512 20.137 41.48 17.6791 39.8893 16.4108C39.1476 15.8349 38.3098 15.3953 37.4149 15.1125L37.3791 15.1012L37.3442 15.0872C36.2339 14.6422 34.5789 13.9549 32.583 13.1261C29.1432 11.6977 24.6911 9.84884 20.2707 8.09555C16.8049 6.72091 13.4138 5.4278 10.6512 4.4849C9.26899 4.01314 8.05687 3.63346 7.07811 3.37543C6.06621 3.10865 5.4029 2.99982 5.06865 3.00696Z" fill="#FFAA9C" stroke="#402E32" stroke-width="2"/>
</svg>