<svg width="182" height="182" viewBox="0 0 182 182" fill="none" xmlns="http://www.w3.org/2000/svg">
    <path d="M158.878 128.583C159.724 131.19 162.063 140.56 161.798 145.344C161.616 148.739 160.327 149.797 160.378 150.312C160.429 150.827 162.078 152.223 162.966 153.117C167.008 157.186 167.361 162.121 165.268 165.311C162.993 168.769 155.904 171.732 151.646 172.4C147.584 173.037 135.069 176.611 130.111 169.422C129.126 167.993 129.545 166.274 130.143 161.251C130.312 159.824 129.991 159.533 129.068 159.085C121.028 155.184 122.226 148.768 120.946 143.897C119.883 139.849 119.901 139.811 119.672 139.475C117.799 136.758 105.931 131.484 106.497 125.998C106.799 123.086 108.67 121.796 108.791 121.393C108.904 121.008 101.784 112.839 113.621 110.976C113.035 108.033 109.291 105.392 116.502 101.131C118.747 99.8051 121.962 100.279 124.564 100.465C128.333 100.738 131.935 102.051 135.484 103.356C139.376 104.788 140.832 105.411 146.204 109.604C151.97 114.114 156.5 121.265 158.878 128.583Z" fill="white"/>
    <path d="M128.76 152.445C125.5 149.376 124.72 145.396 125.211 145.256C125.666 145.127 126.824 148.426 129.852 151.282C132.879 154.138 136.248 155.095 136.147 155.554C136.051 156 132.149 155.635 128.76 152.445Z" fill="#402E32"/>
    <path d="M161.149 150.097C166.913 139.256 158.298 117.026 145.576 107.469C138.449 102.153 121.047 96.2998 114.09 101.183C112.872 101.952 111.94 103.1 111.438 104.45C110.936 105.8 110.891 107.278 111.31 108.656C112.07 110.897 112.75 110.051 110.873 110.54C105.712 111.88 103.695 117.314 107.652 121.237C104.999 123.087 105.237 126.864 106.686 129.741C109.205 134.837 118.926 138.7 119.319 141.04C120.488 148.695 121.369 156.918 129.439 160.194C128.631 165.138 127.757 169.528 131.873 172.179C137.529 175.904 145.881 175.178 152.501 173.319C168.293 168.96 173.199 160.711 161.149 150.097ZM151.901 171.166C145.942 172.841 138.058 173.734 132.916 170.513C129.896 168.693 130.351 165.298 130.85 160.685C133.618 161.48 137.616 161.579 137.616 161.16C137.621 160.866 134.691 160.773 131.473 159.562C123.192 156.519 122.646 148.967 121.483 140.691C120.841 136.678 111.104 133.577 108.615 128.775C107.47 126.551 107.068 123.76 109.316 122.514C110.788 123.319 112.389 123.864 114.048 124.123L114.379 122.724C111.53 121.893 108.715 120.726 107.82 117.88C107.006 115.466 108.997 113.294 111.43 112.693C116.754 111.361 127.874 116.424 134.175 118.586C133.606 119.694 133.138 120.851 132.777 122.044L134.612 122.6C136.614 115.972 140.42 112.653 139.968 112.173C139.677 111.85 136.949 113.902 134.888 117.308C130.258 115.235 125.708 113.017 120.762 111.552C118.589 110.929 111.347 110.484 113.528 105.252C116.38 98.3774 131.596 102.711 138.308 105.763C155.649 113.746 164.224 138.705 159.747 148.772C157.29 154.338 149.759 158.34 143.889 160.014C141.145 160.786 139.543 160.924 139.558 161.106C139.576 162.107 154.496 160.003 160.367 151.394C170.546 161.573 165.847 167.137 151.901 171.166V171.166Z" fill="#402E32"/>
    <path d="M42.608 37.0962C42.133 32.507 44.2697 27.573 48.281 25.298C53.6054 22.275 62.8837 23.4835 91.0692 19.6915C102.026 18.2173 106.158 16.9433 111.349 16.6385C117.425 16.2817 118.77 18.1008 120.874 19.4431C123.731 21.2631 124.925 26.1962 125.412 29.5514L137.03 139.039C137.03 139.039 135.017 144.281 132.564 145.627C130.112 146.973 66.612 154.755 66.612 154.755C66.612 154.755 58.0435 155.891 55.9304 149.232C54.368 144.301 54.8048 156 42.608 37.0962Z" fill="#FFAA9C"/>
    <path d="M56.8577 42.3741C55.6747 38.3601 57.5166 34.5809 60.6688 33.3305C63.4652 32.2222 67.4174 31.9537 109.313 27.0433C109.313 27.0433 114.918 26.2171 116.314 29.1764C118.407 33.6145 117.763 31.6334 128.704 131.813C129.077 135.227 127.367 138.631 123.739 139.435C123.547 139.477 125.591 139.222 73.9757 145.451C73.9757 145.451 70.2102 145.44 69.1072 143.176C66.9205 138.684 68.6986 150.095 56.8577 42.3741Z" fill="white"/>
    <path d="M137.774 135.272L125.853 26.4018C125.14 19.8981 119.648 15.1178 113.499 15.8558L51.627 23.3015C45.5428 24.0295 41.1757 29.9445 41.89 36.4855L53.811 145.356C54.4671 151.351 59.2246 155.978 64.913 155.978C65.8312 155.978 61.8136 156.433 128.035 148.457C134.121 147.724 138.489 141.809 137.774 135.272ZM54.5345 24.883C117.617 17.29 113.951 17.694 114.746 17.694C119.518 17.694 123.406 21.6444 123.949 26.6066L135.67 133.668C135.119 138.437 131.631 142.352 127.036 142.906L70.485 149.711C64.9695 150.373 60.1556 146.006 59.5258 140.247L48.1299 36.157C47.8228 33.8366 48.2823 31.4794 49.4385 29.4442C50.5946 27.4091 52.3841 25.8074 54.5345 24.883V24.883ZM127.809 146.55L65.9359 153.999C60.8053 154.616 56.3063 150.541 55.7157 145.148L43.7965 36.2772C43.2177 30.9864 46.5438 26.188 51.2922 25.2925C49.6876 26.6059 48.4402 28.3028 47.6654 30.2262C46.8906 32.1496 46.6134 34.2373 46.8595 36.2963L58.2555 140.391C58.9635 146.858 64.4198 151.733 70.6369 150.984L127.189 144.178C129.085 143.92 130.883 143.177 132.408 142.022C133.933 140.866 135.134 139.336 135.895 137.58C135.51 142.191 132.201 146.024 127.809 146.553V146.55Z" fill="#402E32"/>
    <path d="M121.225 57.8168C118.279 30.9609 118.495 32.5106 118.177 31.4141C117.807 29.9949 117.003 28.7268 115.877 27.7867C114.752 26.8465 113.361 26.2812 111.898 26.1697C111.068 26.1497 114.517 25.9158 61.8673 32.1257C58.2382 32.5543 55.4509 36.3408 56.0314 40.7607C56.0314 40.7607 66.5874 136.839 66.9041 139.478C67.0574 140.888 67.606 142.226 68.4867 143.338C69.3674 144.45 70.5443 145.29 71.8818 145.762C73.1795 146.085 74.5348 146.101 75.8394 145.807C75.9304 145.797 123.432 139.716 123.401 139.487C123.369 139.224 75.2625 144.801 73.8902 144.856C70.8453 144.972 68.4457 142.256 68.1135 139.317C67.8141 136.682 57.2991 40.6214 57.2991 40.6214C56.8004 36.7821 59.1555 33.7336 62.0174 33.3942C115.095 27.1088 112.048 26.9496 114.081 28.0816C114.949 28.5952 115.684 29.3056 116.227 30.1556C116.77 31.0056 117.105 31.9712 117.206 32.9747C117.234 33.1858 116.86 29.3766 128.408 131.948C128.601 133.315 128.378 134.708 127.768 135.947C127.159 137.185 126.191 138.212 124.99 138.893C124.042 139.362 122.673 139.599 123.842 139.473C124.894 139.276 125.877 138.807 126.691 138.112C127.506 137.417 128.124 136.52 128.483 135.512C129.327 133.435 130.022 138.018 121.225 57.8168Z" fill="#402E32"/>
    <path d="M112.91 38.1854C112.34 36.1731 110.999 34.4667 109.179 33.4361C106.959 32.2686 108.566 32.3978 69.3047 37.2709C66.4882 37.6212 64.4517 40.1328 63.8775 42.9565C63.624 44.2693 63.6052 45.6166 63.822 46.936C71.142 113.738 70.6561 109.744 71.1165 111.171C72.3678 115.044 75.3835 116.764 77.8451 116.506C85.1178 115.744 112.621 111.877 113.419 111.738C121.171 110.392 90.2838 114.143 77.7468 115.332C75.7866 115.514 73.3369 114.089 72.2959 110.801C71.8982 109.545 72.4924 114.108 65.0905 46.7958C64.8921 45.6119 64.9038 44.4022 65.1251 43.2223C65.5801 40.97 67.1635 38.8306 69.4567 38.5394C108.386 33.6054 106.35 34.0213 107.011 34.0913C108.831 34.2852 110.788 35.7457 111.69 38.5694C112.06 39.7288 111.486 35.7357 119.3 103.543C119.71 107.092 117.991 110.025 115.77 111.033C115.07 111.349 114.112 111.536 114.947 111.467C117.394 111.406 120.412 108.065 120.012 103.477C119.838 101.478 113.621 40.4085 112.91 38.1854Z" fill="#402E32"/>
    <path d="M74.1095 130.706C74.1095 119.53 76.3763 123.565 113.729 118.273C114.728 118.039 115.771 118.079 116.748 118.388C123.855 121.397 123.573 133.409 116.919 135.305C115.121 135.818 120.094 134.793 80.1974 139.946C80.1974 139.946 76.2034 140.921 75.267 137.927C74.5003 135.597 74.1096 133.159 74.1095 130.706Z" fill="#3A5AFF"/>
    <path d="M75.3079 123.626C73.9532 125.182 73.249 127.199 73.3414 129.26C73.1804 143.939 78.7532 140.551 86.2744 139.634C113.119 136.358 116.054 135.695 116.031 135.502C115.994 135.185 100.069 136.63 86.1215 138.366C81.4696 138.944 77.6885 140.472 76.0887 138.042C74.489 135.611 74.4253 129.488 74.782 127.521C74.9199 126.392 75.425 125.34 76.2197 124.526C77.0144 123.712 78.0546 123.182 79.18 123.017L114.909 118.831C121.443 118.649 124.174 131.254 118.172 134.619C116.947 135.306 115.01 135.649 116.658 135.529C125.604 134.861 123.896 116.608 114.095 117.628C75.8794 121.592 77.3354 121.53 75.3079 123.626Z" fill="#402E32"/>
    <path d="M115.727 18.0754C113.825 20.3859 109.891 21.1366 111.228 21.6244C113.953 22.6199 115.975 22.1577 118.337 26.6167C119.008 28.091 119.795 29.5096 120.691 30.8591C120.929 28.9374 121.545 27.0818 122.503 25.3994C123.462 23.717 124.744 22.241 126.276 21.0566C127.033 20.4623 127.899 20.0207 128.824 19.7562C130.122 18.5058 122.435 19.5114 119.987 11.8829C118.377 6.86966 118.571 11.7564 118.376 12.6254C117.932 14.6242 117.024 16.4909 115.727 18.0754Z" fill="white"/>
    <path d="M128.916 18.8206C126.807 18.0171 124.111 17.4848 122.384 15.4018C119.563 12.0057 119.363 7.23817 118.725 7.32189C117.702 7.36193 119.122 15.7776 113.397 19.4704C111.361 20.8691 109.246 21.2121 109.313 21.5852C109.307 21.9492 111.351 22.012 113.545 22.932C120.09 25.4655 119.74 33.4826 120.734 33.3224C121.451 33.1559 121.061 25.7621 126.344 21.7317C129.297 19.5113 131.658 19.848 128.916 18.8206ZM120.534 29.5532C120.013 27.7355 119.099 26.0543 117.858 24.6283C114.908 21.2968 111.505 21.5461 112.292 21.2959C116.449 19.4522 118.48 15.8186 119.047 11.5206C120.489 16.2262 123.56 18.8234 128.298 19.5368C124.256 20.627 121.31 25.4118 120.534 29.5532V29.5532Z" fill="#402E32"/>
    <path d="M66.895 171.584C68.078 172.295 69.1764 175.375 73.1158 176.687C76.491 177.812 79.0126 176.695 81.1847 174.632C85.073 170.924 87.828 166.188 89.129 160.975C90.211 156.599 93.6272 151.136 88.7714 145.96C85.6865 142.673 81.9464 143.24 78.756 142.675C75.0714 142.024 78.5976 140.347 71.5114 134.973C68.4116 132.656 65.1971 130.495 61.88 128.501C59.696 126.681 59.1409 127.022 52.8464 122.145C43.6482 115.019 41.2803 112.076 36.0169 113.363C34.4007 113.759 33.2286 114.294 32.75 117.041C32.2577 119.922 32.7657 122.885 34.1896 125.438C32.4106 124.582 31.0137 123.017 29.1573 122.344C26.1152 121.252 22.4388 123.135 21.2567 126.145C20.7294 127.679 20.6924 129.34 21.1509 130.896C21.6094 132.452 22.5407 133.827 23.8156 134.83C16.1616 131.944 13.4544 137.725 16.218 142.989C18.969 148.229 25.3353 151.033 32.1194 154.734C30.9036 156.425 28.5922 157.05 27.3619 158.73C26.4055 160.038 25.3417 164.042 26.0142 166.122C27.0152 169.202 30.7935 170.664 33.7592 170.654C35.8849 170.647 37.9816 170.167 40.1037 170.033C46.9214 169.601 53.5016 172.731 60.3812 172.586C66.0014 172.471 65.4872 170.738 66.895 171.584Z" fill="white"/>
    <path d="M65.9231 146.692C62.5315 140.558 63.9457 137.228 63.2286 137.107C62.2467 136.89 60.8999 146.905 69.9025 153.609C67.9043 152.979 65.8007 152.754 63.7145 152.946C58.715 153.439 55.8658 156.607 56.136 156.922C56.5 157.364 59.0144 155.023 63.8711 154.536C68.2855 154.11 71.9246 155.287 72.0884 154.758C72.4178 154.321 68.6968 151.582 65.9231 146.692Z" fill="#402E32"/>
    <path d="M91.9336 150.749C90.9154 141.339 80.3994 142.325 77.4701 141.831C74.6136 133.406 68.25 131.705 55.2233 122.543C48.7551 117.936 44.7538 113.149 39.9435 112.086C34.3179 110.803 29.9272 115.019 32.2358 121.988C32.6399 123.139 32.7063 122.308 30.0518 121.411C23.63 119.292 17.4847 125.983 20.3858 131.876C20.92 132.968 21.163 133.041 21.0337 133.021C14.0267 132.089 10.0873 142.148 21.0092 149.597C33.3915 157.669 31.5715 152.364 27.4183 157.261C22.264 163.148 25.0232 170.754 32.1203 171.624C34.0461 171.781 35.9836 171.718 37.8951 171.436C47.35 169.872 57.1143 176.474 66.5346 172.164C78.7687 190.554 93.3378 163.372 91.9336 150.749ZM21.6935 128.791C21.7337 127.93 21.9695 127.089 22.3831 126.332C22.7967 125.575 23.3771 124.923 24.0804 124.423C30.444 119.796 32.7418 128.55 47.6494 134.16C45.2567 137.627 43.3069 141.38 41.8454 145.331C36.3126 141.976 30.9755 137.873 25.2343 134.697C23.832 133.922 21.5415 131.343 21.6935 128.791ZM89.6277 154.956C88.6649 160.567 86.5474 166.611 83.1221 171.127C77.8214 178.176 73.0684 178.225 67.8805 171.461C74.2815 167.639 76.318 159.771 75.8048 159.582C75.2342 159.354 73.1039 165.868 67.3418 169.367C58.503 174.704 48.9098 167.779 37.6594 169.215C35.2024 169.479 32.285 169.843 30.121 168.754C23.518 165.446 27.2372 153.771 42.5944 154.05C46.4882 154.094 48.7951 155.029 48.9361 154.695C49.4467 153.911 40.4877 150.327 32.2904 153.849C27.6212 151.541 19.5559 147.362 17.3018 142.685C15.1642 138.375 17.3164 134.768 20.7507 135.223C24.0804 135.655 34.3598 143.168 41.3649 146.758C41.1338 147.49 40.1055 151.002 40.5541 151.14C41.0919 151.304 43.164 145.533 46.8805 139.021C50.5732 132.501 54.2587 127.587 53.8192 127.215C53.558 126.994 51.2485 129.175 48.5612 132.875C45.8826 131.642 43.2926 130.225 40.8098 128.634C37.3446 126.404 35.4854 125.267 34.196 121.332C33.3242 118.619 33.3852 115.963 35.8949 114.553C39.0508 113.03 42.5507 115.388 45.3398 117.532C51.1183 122.057 47.5084 120.364 66.5929 132.386C70.1018 134.596 72.9629 136.358 75.2379 140.547C79.0453 147.491 76.4818 155.577 77.0015 155.707C77.2526 155.771 79.4202 149.683 77.9242 143.394C83.4406 144.407 91.4177 144.114 89.6277 154.956Z" fill="#402E32"/>
    <path d="M63.882 69.16C65.065 77.6785 65.0422 78.169 65.591 79.17C67.2408 82.193 73.5862 82.861 76.9268 81.2785C78.0352 80.7884 78.984 79.9976 79.6656 78.9957C80.3473 77.9938 80.7345 76.8209 80.7834 75.6101C80.7153 74.5713 80.4917 73.5486 80.12 72.5761C73.295 51.7007 73.5817 55.985 74.8111 51.3322C76.4338 49.9237 77.8863 48.3304 79.1391 46.5847C79.3046 46.4032 79.423 46.1838 79.4839 45.9458C79.5449 45.7078 79.5464 45.4585 79.4885 45.2197C78.968 40.728 78.4875 43.437 82.6735 39.1537C83.3433 38.4675 83.2386 37.8624 82.4733 37.31C81.3294 36.4828 81.0874 36.764 80.7316 34.762C80.5756 33.8882 80.3124 33.037 79.948 32.2277C77.7181 33.0833 75.5422 34.0737 73.4324 35.1933C73.245 34.3507 74.1495 32.9957 74.4726 32.2222C76.4837 27.4174 78.0389 28.8552 72.6225 26.4683C71.1574 30.0876 69.534 33.6366 67.7522 37.1153C67.2293 35.684 66.9822 34.1667 67.0242 32.6435C67.1953 31.7335 67.441 32.0602 68.8442 27.614C68.9907 27.1489 68.998 27.2991 65.0313 26.4837C63.2836 30.3113 62.5767 34.5323 62.982 38.7205C61.9501 37.1344 59.9472 36.6885 59.2328 34.2206C58.9935 33.3934 58.8315 33.1158 57.9115 33.2559C55.6783 33.5972 55.6419 33.5754 55.5027 33.6946C54.8657 34.2406 56.8968 38.5349 57.4565 39.5049C62.2604 47.8433 59.7442 39.3275 63.882 69.16Z" fill="white"/>
    <path d="M103.592 75.0131C102.978 72.0302 101.26 71.8563 98.4957 73.1658C98.1117 73.3478 98.0571 73.4971 98.1071 73.8665C98.2081 74.6208 98.3555 75.3681 98.5485 76.1042C95.1123 77.4574 95.1815 77.2981 95.3061 77.7786C97.7295 86.9924 97.6721 86.5374 97.5311 86.7658C96.7722 87.2184 95.948 87.5514 95.0877 87.7531C94.5672 87.8942 94.3788 88.017 94.3224 88.6094C94.2311 89.5783 94.3593 90.5552 94.6973 91.4678L95.3207 113.482L109.493 111.844C110.445 109.511 111.615 113.987 103.592 75.0131Z" fill="white"/>
    <path d="M88.0198 41.1639C87.9169 41.9247 87.6157 42.8811 86.8495 42.9211C86.2707 42.9521 85.085 41.9602 84.701 43.5873C84.6536 43.9953 84.5405 44.3929 84.3661 44.7648C81.3531 44.9095 83.0921 43.3088 81.7462 48.5522C84.7219 49.4813 83.3788 48.6095 83.083 51.2158C83.0484 51.5215 85.4426 51.7263 85.6947 52.1631C85.9095 52.5344 85.9058 52.1221 83.983 62.5517C83.5198 65.0669 83.4634 66.0242 84.893 69.6597C89.6796 81.8537 88.897 81.9974 91.5287 84.0231C92.5643 84.8203 93.9857 85.3453 94.3916 86.5866C94.6036 87.2327 94.6063 87.6422 95.3389 87.6676C96.1864 87.6304 97.0137 87.3971 97.7558 86.9861L95.2078 77.4165C95.944 77.219 98.4292 76.3773 98.7223 75.9468C99.0508 75.4664 98.5548 73.8739 98.2136 73.2068C103.174 72.2841 99.9371 72.7846 101.717 67.8952C102.584 65.5119 102.593 65.3699 102.83 65.2116C103.267 64.9204 105.891 65.3645 106.399 65.4618C107.461 55.4327 108.551 54.7757 109.493 46.3637C109.904 42.6718 109.485 41.9738 104.808 39.1501C102.38 37.6832 101.612 37.4047 98.3328 37.1945C93.6745 36.8969 88.6113 36.7886 88.0198 41.1639Z" fill="white"/>
    <path d="M103.064 61.5998L93.5398 60.4195L93.8365 58.0853L95.0714 58.2418L94.9321 59.3375L103.217 60.364L103.064 61.5998Z" fill="#402E32"/>
    <path d="M96.2568 62.0112L96.0885 63.2456L99.8078 63.7528L99.9761 62.5185L96.2568 62.0112Z" fill="#402E32"/>
    <path d="M108.328 48.6067L108.525 47.4665L102.161 46.3645L101.963 47.5047L101.144 47.3628L100.916 48.6759L99.4794 48.4411L99.7214 47.0443L98.9024 46.9023L99.1099 45.6729L85.0613 43.1667L84.8939 44.1113L92.5934 45.4836C92.5197 45.9058 92.7017 45.8285 91.7189 45.6583L91.0555 49.4803L91.8745 49.6223L91.678 50.7616L98.0425 51.87L98.24 50.7316L99.059 50.8726L99.2774 49.6114L100.714 49.8452L100.48 51.1911L101.299 51.334L101.102 52.4733L107.471 53.5717L107.668 52.4324L108.487 52.5734L109.15 48.7514L108.328 48.6067Z" fill="#402E32"/>
    <path d="M85.399 83.9839L74.8348 54.5445C75.4718 51.5852 74.5208 53.306 80.1883 46.2717L79.8543 43.0094L84.4043 38.4266C81.0774 34.8366 82.0283 36.431 80.4295 31.2995L74.529 33.8693L77.5957 28.2182L72.7727 25.1051C68.0662 34.3571 68.9352 32.5671 67.9725 34.7966C67.7204 32.5161 67.4119 34.0932 70.0582 26.916L64.7802 25.2289C61.8281 32.8101 62.3232 30.061 62.3232 37.2736C60.2629 34.9895 60.9272 36.1625 59.4885 31.9456L54.3543 32.7891C55.4709 37.8633 54.4735 35.4982 59.0754 43.4189C61.0255 48.3001 59.7688 41.1439 65.1979 86.0915L68.0471 85.6128L69.3739 91.1711L73.7018 89.8434L74.5035 92.9593L83.4215 89.8962L82.2922 85.631L85.399 83.9839ZM60.4941 42.7864C56.0997 35.2889 56.8987 37.1326 56.2225 34.0595L58.4347 33.6955C59.5386 36.9306 58.3984 35.2525 63.8738 41.3259C63.8738 29.9408 63.4015 33.0521 65.6938 27.1581L68.0261 27.9034L66.187 32.8911L67.0615 40.8081C68.9002 36.1997 71.0065 31.7027 73.3697 27.3401L75.5318 28.7351C71.2111 36.6985 72.2231 34.2324 70.8089 39.7616C76.2198 34.3016 74.2451 35.6793 79.4539 33.4116L80.1583 35.6702L71.2284 42.2695L70.8016 44.5564L67.6703 44.1014L66.6584 51.1921L68.2 51.4114L68.9908 45.8658L72.0584 46.3117L72.6462 43.1577L80.9682 37.007L82.2422 38.3811L78.2263 42.427L78.5694 45.7849C72.9274 52.7919 74.0331 50.8445 73.2159 54.6401L79.362 72.072L76.8795 72.7755L77.5165 74.8894L74.6701 75.7375L75.53 78.4184L72.8692 79.3047L71.8682 77.0879L68.5248 77.9888L67.9497 75.9868L65.7166 76.784C61.3859 41.719 62.4888 47.8733 60.4941 42.7864Z" fill="#402E32"/>
    <path d="M116.947 109.77L116.426 100.428L105.631 67.5939L103.044 67.1762L103.241 65.8494L106.918 66.1497L111.616 36.835L109.705 36.4228L110.206 33.5208L107.622 33.0103L108.019 30.6834L94.2132 28.2792L93.7282 30.7362L91.1356 30.2602L90.6806 32.7955L88.4966 32.4361L86.814 42.0302L84.2433 41.4769L83.7946 43.9448L81.8218 43.4898L80.7088 49.15L82.7381 49.605L82.2431 51.9055L84.7611 52.6117L82.5043 66.9041L80.5933 67.6567L86.9633 84.8366L83.8347 86.359L85.136 90.7416L74.438 94.4116L75.5555 114.867C75.5798 115.318 75.7764 115.742 76.1045 116.051C76.4326 116.36 76.8672 116.531 77.3182 116.529C77.4929 116.529 76.248 116.677 96.1688 114.181L95.7247 107.356L100.247 106.881L95.6965 88.3173L98.3683 87.5338L95.9613 77.6403L99.4403 76.5301L98.7805 73.7046L100.307 73.3014L101.171 77.5893L97.734 78.7259L104.328 105.727L106.958 105.501L108.626 112.34L115.968 111.09C116.27 111.04 116.541 110.874 116.724 110.628C116.907 110.381 116.987 110.074 116.947 109.77ZM101.549 66.6475L93.1986 65.581L93.5189 63.1941L90.4067 62.7554L90.545 61.7617L88.998 61.5542L88.6595 64.0813L91.6862 64.5081C91.3722 66.8186 91.01 69.625 90.7052 71.9346L92.2895 72.1439L92.5934 69.8389L99.7751 70.6761L100.057 72.0784L97.2899 72.8064L97.9633 75.6911L94.4726 76.804L96.8741 86.6702L95.3953 87.1034L93.4843 79.312L91.4769 79.767L89.8216 73.2723L87.8596 73.7437L84.8921 65.9659L84.1832 66.2453L86.5128 51.4915L84.0713 50.8062L84.5827 48.4293L82.5261 47.9661L83.0375 45.369L85.0322 45.824L85.4872 43.3333L86.5283 43.5581L85.6765 47.8496L89.3611 48.5458L90.8344 40.5314L93.2441 41.0019L93.5799 39.1701L100.223 40.4331L100.059 41.86L104.2 42.5662L103.889 44.0504L108.747 44.8985L106.614 58.2127L105.391 58.0635L105.691 55.8458L91.9764 54.1951L91.657 56.5465L89.7815 56.2835L89.4175 58.8488L90.96 59.0654L91.1038 58.0416L92.9847 58.3046L93.3096 55.9232L103.932 57.2026L103.632 59.4176L106.362 59.7515L105.604 64.4835L101.92 64.1787L101.549 66.6475Z" fill="#402E32"/>
    <path d="M93.2171 46.3159L92.9882 47.6357L94.308 47.8647L94.5369 46.5449L93.2171 46.3159Z" fill="white"/>
    <path d="M94.3068 47.8649L94.0783 49.1848L95.3981 49.4133L95.6266 48.0934L94.3068 47.8649Z" fill="white"/>
    <path d="M102.641 48.0213L102.413 49.3412L103.732 49.5696L103.961 48.2497L102.641 48.0213Z" fill="white"/>
    <path d="M103.732 49.5698L103.504 50.8896L104.824 51.1181L105.052 49.7982L103.732 49.5698Z" fill="white"/>
    <path d="M49.2829 129.113C50.3821 128.306 58.3528 122.486 58.2555 122.379C61.5114 126.069 61.0837 127.463 62.1894 126.389C62.7354 125.859 65.1342 123.75 65.8767 123.92C67.32 124.245 72.6599 133.305 75.8521 136.769C76.1479 137.09 76.1688 137.284 75.7921 137.594C72.2203 140.542 72.072 140.563 72.0665 140.923C72.0593 141.32 72.8046 141.911 74.3616 144.724C75.2652 146.356 68.1099 148.851 64.9949 152.117C64.5734 152.558 64.1092 152.957 63.609 153.307C61.1656 155.02 59.6541 149.878 58.1899 149.561C57.6248 149.438 57.4174 149.666 53.6645 151.901C53.1677 152.198 52.8892 152.216 52.406 151.602C50.6888 149.429 45.2543 142.168 44.1659 140.266C44.1125 140.198 44.088 140.113 44.0977 140.027C44.1074 139.942 44.1506 139.864 44.2178 139.811C46.1506 137.565 46.9842 137.844 47.2335 137.193C47.6139 136.202 42.9138 133.617 45.4527 131.65C46.6721 130.704 47.9051 130.123 49.2829 129.113Z" fill="#FFF4CC"/>
    <path d="M42.1639 76.7131C42.0074 76.8605 42.1266 76.5165 40.4995 83.2487C40.2265 84.3871 41.7044 83.7237 41.9956 84.3598C42.0581 85.0404 42.0349 85.7262 41.9264 86.4009C43.5126 86.9024 46.4764 87.4238 46.8404 87.2591C47.1343 87.1271 47.5684 85.4746 47.6394 85.1852C47.9897 83.7538 49.5094 86.1862 49.9208 84.0613C50.7935 79.5559 51.2048 78.4594 50.4158 78.2683C49.4821 78.0417 49.4812 78.868 49.8552 75.8786C44.7729 74.5236 44.2642 74.4972 44.013 75.8122C43.7173 77.3437 42.921 76.0015 42.1639 76.7131Z" fill="#FFF4CC"/>
    <path d="M62.0674 67.957C62.1166 68.2818 61.7098 68.402 60.5104 69.1655C60.3503 69.2665 60.3284 69.3429 60.4358 69.5049C61.5597 71.2666 61.6488 71.3413 61.6288 71.5642C61.577 72.1184 56.8386 74.6218 56.3508 74.8739C56.1251 74.9913 56.0114 74.9831 55.8267 74.7237C53.9603 72.092 54.6264 72.2613 52.9438 73.3396C52.4451 73.659 52.1366 73.6781 51.6625 72.9938C51.1019 72.1839 47.785 67.0788 47.7986 66.5101C47.8178 65.7757 49.5895 65.9331 48.8779 64.9158C48.1981 63.9421 47.8041 63.4852 47.795 63.0421C47.7877 62.719 48.0598 62.3705 48.3783 62.426C50.6479 61.4678 53.0484 58.2127 54.2023 59.655C55.4472 61.2084 55.5209 61.3613 55.682 61.3731C55.8003 61.3822 55.773 61.3731 57.229 60.3348C59.1258 62.6837 60.7491 65.2409 62.0674 67.957Z" fill="#FFF4CC"/>
    <path d="M67.6476 59.1919C64.8138 60.0855 66.2371 60.4986 66.359 61.4177C66.45 62.1375 65.6838 61.9373 65.6456 62.3013C65.6347 62.4069 65.5637 62.2012 67.117 65.7712C67.754 67.2345 68.3728 65.9459 68.8797 66.2444C69.0126 66.3226 69.0144 66.3663 69.7042 67.6285C69.9198 68.0234 72.6617 66.7185 73.0648 66.5083C73.4534 66.3044 73.3305 66.2407 72.7245 64.924C74.4662 64.034 73.9912 64.5682 72.8209 62.0948C71.4204 59.1373 71.8472 59.3994 70.6433 59.8198C70.474 59.8789 70.4158 59.8535 70.3275 59.7151C69.281 58.0799 69.9854 58.4548 67.6476 59.1919Z" fill="#FFF4CC"/>
    <path d="M33.0093 99.5003C32.9829 99.6823 32.9438 99.5249 34.9795 103.805C32.2349 106.016 32.0875 106.08 32.0001 106.329C31.678 107.254 34.4389 111.042 35.1851 112.465C36.1534 114.311 37.3619 118.227 38.5794 118.38C39.7624 118.529 42.1803 115.3 43.1549 116.761C44.8885 119.361 45.8176 121.23 46.8195 120.712C47.32 120.453 47.0925 119.974 48.8861 119.009C57.0934 114.6 57.1571 114.585 57.2699 114.251C57.4601 113.691 56.6484 113.222 55.3289 110.086C55.2024 109.785 55.2379 109.657 55.5446 109.478C58.1535 107.964 58.9644 107.476 58.9371 106.776C58.9125 106.131 52.3359 94.4762 52.001 93.8884C51.769 93.4798 51.5952 93.4488 51.2366 93.6154C50.0181 94.1892 48.8387 94.8425 47.7058 95.571L45.2543 91.476C35.824 97.3227 33.0712 99.0699 33.0093 99.5003Z" fill="#FFF4CC"/>
    <path d="M59.5267 106.253C51.9191 92.1913 52.4487 92.0839 50.768 93.1659C50.768 93.1659 48.1208 94.8521 48.1053 94.864C47.5195 93.8969 46.9952 92.8939 46.5356 91.8609C45.9896 90.7608 45.3416 90.6079 44.3516 91.3859C44.1559 91.5361 45.1342 90.8618 32.8073 98.6204C32.5779 98.7683 32.4122 98.9967 32.3429 99.2606C32.2735 99.5245 32.3054 99.8049 32.4324 100.046L34.3225 103.801C32.1648 105.21 30.8162 105.698 31.4305 106.878C38.0735 119.618 37.5611 119.064 38.1881 119.232C38.7396 119.379 38.6677 119.297 42.6471 116.971C45.3826 121.484 45.2224 121.404 45.753 121.546C46.3417 121.702 45.7348 122.136 57.4319 114.951C57.6578 114.809 57.8229 114.588 57.8952 114.331C57.9675 114.074 57.9418 113.799 57.8232 113.56C57.7914 113.487 57.0406 111.75 56.0778 109.891L59.0371 108.135C59.3435 107.943 59.5648 107.641 59.6558 107.291C59.7468 106.941 59.7006 106.57 59.5267 106.253V106.253ZM52.78 106.144L54.7119 109.816L46.5438 114.991C43.8138 109.799 44.9649 110.168 40.2648 113.146L35.581 104.25C35.6811 103.982 35.217 104.341 38.857 102.034C39.787 101.444 38.9334 100.534 37.2599 97.3528C46.2353 91.7372 45.2889 92.2168 45.3753 92.4033C45.4618 92.5899 45.3753 92.4233 46.9878 95.4928C47.6367 96.9342 48.3938 96.2208 51.5997 94.1505C51.6243 94.1978 56.2953 102.992 56.2953 102.992C53.1085 105.014 52.2968 105.228 52.78 106.144ZM33.6418 99.6105L36.4464 97.8615L38.2482 101.287L35.399 103.093L33.6418 99.6105ZM56.602 113.962L46.0969 120.211C42.5307 114.327 44.0249 114.69 38.5503 117.891L32.6353 106.434L34.8785 104.969C39.8316 114.381 39.5195 114.025 40.0009 114.154C40.4431 114.274 40.394 114.2 43.8793 111.992C45.439 114.954 45.8995 116.532 46.8914 115.905L55.0368 110.745C55.783 112.141 56.4009 113.512 56.602 113.962ZM58.3847 107.041C55.3708 108.817 55.3971 108.806 55.3025 108.879L53.6754 105.785L56.7576 103.833C58.4857 107.016 58.513 106.966 58.3829 107.041H58.3847Z" fill="#402E32"/>
    <path d="M68.2682 116.496C68.189 117.079 68.2946 117.335 68.9634 117.49C71.0728 117.982 72.1129 117.521 72.3186 118.218C72.4233 118.575 72.0674 119.179 72.0329 121.203C71.9992 123.182 77.8296 122.392 81.263 123.283C82.8755 123.702 83.9366 123.847 84.1959 122.154C84.691 118.922 84.6509 118.854 84.8748 118.653C85.1724 118.38 85.3352 118.49 89.3702 119.108C89.9344 115.068 90.3639 110.959 90.8016 106.903C89.6766 106.945 88.552 106.811 87.4683 106.506C87.5174 105.717 88.1799 102.725 87.5283 102.21C87.3326 102.082 87.1076 102.004 86.8741 101.986C74.8184 100.026 75.5436 100.101 75.2406 100.194C73.5653 100.704 75.7766 104.592 73.1076 104.181C68.9516 103.542 70.2456 101.93 68.2682 116.496Z" fill="#FFF4CC"/>
    <path d="M88.1581 105.917L88.563 102.431C88.5994 102.167 88.5298 101.899 88.3694 101.686C88.209 101.473 87.9708 101.331 87.7067 101.293C73.9912 99.3766 74.8257 99.382 74.3698 99.8871C74.0685 100.222 74.1304 100.297 73.6782 103.687C70.8854 103.281 69.7051 102.838 69.4257 104.101C69.4048 104.192 69.5304 103.703 67.6257 116.691C67.5996 116.859 67.6074 117.03 67.6488 117.195C67.6901 117.359 67.7642 117.514 67.8665 117.649C67.9688 117.785 68.0972 117.898 68.2443 117.983C68.3913 118.068 68.5538 118.122 68.7223 118.143L71.6671 118.477C71.4186 120.194 71.3294 121.785 71.3304 121.804C71.3122 121.936 71.3203 122.07 71.3542 122.199C71.388 122.327 71.4471 122.448 71.5278 122.554C71.6086 122.66 71.7095 122.749 71.8247 122.816C71.94 122.883 72.0673 122.926 72.1994 122.944C84.2433 124.491 83.6026 124.372 84.0558 124.029C84.4817 123.707 84.3834 123.688 85.2388 119.355C89.3129 119.791 89.261 119.876 89.6796 119.56C90.1583 119.196 89.9062 119.8 91.5223 107.449C91.6962 106.135 90.1328 106.227 88.1581 105.917ZM84.4944 102.146L87.2663 102.523L86.8932 105.731L84.0649 105.327L84.4944 102.146ZM70.7698 104.559C73.4543 104.97 74.8166 105.568 74.9449 103.862C74.9449 103.862 75.3371 100.885 75.3389 100.859C75.9977 100.998 74.236 100.743 83.5444 102.022C82.8837 106.916 82.2886 106.046 87.0342 106.724C87.1252 106.861 87.1935 106.1 85.9422 115.353C81.0282 114.65 81.9291 113.971 81.2503 119.003L72.8983 117.809C73.5717 112.824 74.2478 113.681 69.4776 112.999C70.5505 105.95 70.5023 104.515 70.7698 104.559ZM72.0101 117.238C71.9191 117.219 71.8227 117.212 68.8897 116.885L69.3356 113.945L72.396 114.382L72.0101 117.238ZM88.8406 118.458C83.3187 117.867 84.3961 117.051 83.2322 122.927L72.618 121.705C72.6508 121.227 72.7418 120.031 72.9183 118.774C82.0028 120.073 81.3267 119.982 81.4195 119.982C82.3295 119.982 82.2021 119.137 82.6471 115.845L86.0032 116.324C87.0752 116.482 86.8495 115.828 88.0161 107.187L90.2274 107.535L88.8406 118.458Z" fill="#402E32"/>
    <path d="M61.8654 95.732C62.0638 92.4788 62.1148 92.4678 61.9564 92.3277C61.8418 92.2276 61.7553 92.2513 59.2492 91.9983C58.9714 91.9283 58.7149 91.7914 58.5021 91.5997C60.8308 76.0669 60.3994 77.977 60.6806 77.6621C61.3431 76.9196 62.972 77.6021 63.8228 77.6312C64.6737 77.6603 64.3743 76.7412 64.3798 76.238C64.3917 75.3293 64.4831 74.4235 64.6528 73.5307C64.8775 73.2759 64.398 73.2978 75.1678 74.7246C76.3508 74.8812 76.5237 75.3871 75.7393 79.5231C76.6002 79.7378 77.4628 79.9429 78.3273 80.1382C77.3118 90.2438 77.38 93.0985 75.9531 92.9074C73.4206 92.5679 73.4261 92.5333 73.1958 92.6726C72.274 93.2304 72.4678 97.8113 71.1729 97.7549C67.9515 97.6157 66.1069 96.9942 64.8466 96.9132C63.7246 96.8377 60.7953 96.9987 61.8654 95.732Z" fill="#FFF4CC"/>
    <path d="M76.238 79.049C76.6429 75.6429 77.1134 74.3033 75.8794 74.135C63.973 72.477 64.701 72.4633 64.2715 73.0466C64.0458 73.3515 64.1004 73.2578 63.5963 77.0725C61.0282 76.6238 60.0709 76.2626 59.8498 78.0143C58.0671 92.1648 57.8041 91.4769 58.2819 92.0938C58.6586 92.5798 58.8615 92.5033 61.4787 92.7809C61.2157 94.6218 61.0947 96.3354 61.0938 96.3672C61.0695 96.4972 61.0716 96.6307 61.0999 96.7599C61.1282 96.889 61.1822 97.0112 61.2585 97.1191C61.3349 97.227 61.4322 97.3186 61.5445 97.3882C61.6569 97.4579 61.7821 97.5043 61.9128 97.5247C70.3084 98.5694 71.5169 98.563 71.6143 98.563C72.7463 98.563 72.6544 97.2217 73.3724 93.3333L76.4719 93.6372C76.6025 93.6505 76.7345 93.6376 76.8601 93.5993C76.9857 93.5611 77.1024 93.4982 77.2035 93.4143C77.3046 93.3304 77.3879 93.2273 77.4487 93.1109C77.5095 92.9945 77.5464 92.8672 77.5575 92.7363L79.1145 80.535C79.2883 79.2401 77.9715 79.3256 76.238 79.049ZM62.6726 92.1484C63.3815 86.855 63.9466 87.7195 59.8907 87.1434C59.8907 87.1434 61.1302 78.0644 61.1374 78.0134C63.4643 78.3492 64.7156 78.9544 64.8684 77.2072C64.8684 77.2072 65.287 74.014 65.2916 73.9685C65.5318 74.0394 65.0386 73.9612 72.2385 74.9358C71.5542 80.0391 70.9645 79.2201 75.0741 79.8043C75.2242 80.0691 75.3162 78.9343 73.9876 89.15C69.6723 88.5357 70.4968 87.8178 69.8325 93.1686L62.6726 92.1484ZM74.9704 78.8816L72.6571 78.553L73.1258 75.0532L75.3899 75.3553L74.9704 78.8816ZM59.2792 91.263C59.3229 91.172 59.4758 89.9508 59.7588 88.0298L62.2704 88.3865L61.8481 91.5378C61.7826 91.526 61.1875 91.465 59.2792 91.263ZM76.3235 92.3395C71.5315 91.87 72.5015 91.0246 71.3522 97.2535L62.3805 96.2871C62.4196 95.7894 62.5334 94.4553 62.729 93.0612C70.0564 94.1031 69.8653 94.084 69.9608 94.084C70.8835 94.084 70.737 92.8319 71.1329 89.6469L74.024 90.0582C75.0077 90.2038 74.822 89.3811 76.0378 80.3093L77.8187 80.5942L76.3235 92.3395Z" fill="#402E32"/>
    <path d="M62.4442 67.4847C56.8504 58.7842 58.0343 59.1837 55.4882 60.8171C54.3962 59.0754 54.1031 58.0607 53.0394 58.938C47.36 62.5216 46.8313 62.5443 47.3582 63.3806L48.5776 65.3826C46.4846 66.7749 46.4328 65.6611 51.4714 73.7118C51.9437 74.4671 52.5006 73.9302 54.0877 73.0057L55.6538 75.2379C56.1798 76.0724 56.6102 75.6228 61.8973 72.3568C62.0494 72.2563 62.1553 72.0994 62.1919 71.9208C62.2284 71.7421 62.1925 71.5563 62.092 71.4041C62.0702 71.364 61.5688 70.4431 60.9463 69.4676C61.9337 68.887 63.063 68.4529 62.4442 67.4847ZM59.9381 69.383L56.147 71.8163C54.3343 68.9389 54.9331 69.1464 52.6808 70.5905L49.595 65.6875C49.676 65.4372 49.3711 65.6875 51.051 64.6137C51.6043 64.2597 51.0155 63.6645 49.9727 62.0092C52.5143 60.4049 53.5653 59.7461 53.6481 59.6815C55.3653 62.4242 54.9067 62.3305 57.1162 60.9136L60.2102 65.7639C58.028 67.158 58.149 66.5392 59.9381 69.383ZM48.2901 63.0694L49.4285 62.3505L50.5696 64.1614L49.4085 64.9058L48.2901 63.0694ZM61.152 71.6853L56.3381 74.5463C54.0385 71.2703 54.7511 71.5124 52.1667 73.0166L48.27 66.7376L49.14 66.1634C52.4533 71.4232 52.2431 71.2093 52.5434 71.2767C52.8164 71.3367 52.8446 71.2466 54.4053 70.2456C55.4563 71.9137 55.803 72.7937 56.3563 72.4424L60.151 70.0063C60.5887 70.6906 60.97 71.3604 61.152 71.6853ZM60.2911 68.7432L59.271 67.1234L60.5496 66.3044L61.607 67.9625C61.5897 67.977 60.3093 68.7314 60.2911 68.7432Z" fill="#402E32"/>
    <path d="M50.1528 77.8861C50.7689 74.8895 51.4823 75.6575 44.8302 74.3371C43.8802 74.0204 43.8438 74.6192 43.4452 76.4174C42.0602 76.1343 41.6643 75.9196 41.4341 76.9916C39.757 84.823 39.2911 84.1651 41.6343 84.5591C40.9909 87.4511 40.677 86.7022 46.6994 87.8151C46.8669 87.8456 47.0398 87.8098 47.1814 87.7152C47.323 87.6206 47.4223 87.4747 47.4583 87.3082L48.018 85.2717C50.697 85.7012 49.8926 86.4192 51.536 78.8871C51.7135 78.0726 50.778 78.0253 50.1528 77.8861ZM42.568 84.0841C43.1422 81.4833 43.3069 81.8801 41.4068 81.4924L42.3741 77.1845C44.368 77.5958 44.125 77.7915 44.6792 75.2981L47.9679 75.9451C47.5757 77.7132 47.5202 77.745 47.6658 77.9698C47.9106 78.3475 49.0381 78.2101 49.2792 78.5276L48.3101 82.9011C46.2034 82.4707 46.5811 82.1804 46.0078 84.7875L42.568 84.0841ZM49.2001 77.7642L48.2618 77.5721L48.5949 76.0688L49.5113 76.2508L49.2001 77.7642ZM40.9391 83.4771L41.2603 82.1121L42.3013 82.3251L42.0065 83.6546L40.9391 83.4771ZM49.3475 84.5182C46.9305 84.1314 47.4037 83.8921 46.5975 86.8296L42.3114 86.1016C42.3614 85.8031 42.4551 85.2826 42.578 84.7366C47.0934 85.6593 46.3636 86.1361 46.996 83.2806C49.241 83.7356 48.634 84.3789 49.8716 78.8043L50.5414 78.9526L49.3475 84.5182Z" fill="#402E32"/>
    <path d="M74.1286 63.9657C71.5424 58.4548 72.1266 58.7869 70.5796 59.4685C69.7306 57.6167 70.5104 57.7486 65.7621 59.7897C65.1942 60.1446 65.6146 60.6233 66.0451 61.6006C65.5191 61.8418 64.9704 61.9828 65.2188 62.527C67.5939 67.744 66.8941 67.2308 68.6932 66.531C69.311 67.714 69.4867 68.3565 70.0127 68.1363C73.3596 66.733 73.8847 66.7713 73.6026 66.1652C73.0666 64.7611 72.8873 65.1433 73.861 64.7574C73.9324 64.725 73.9963 64.6783 74.0488 64.6202C74.1013 64.5621 74.1414 64.4938 74.1665 64.4196C74.1915 64.3454 74.2011 64.2668 74.1946 64.1887C74.1881 64.1107 74.1656 64.0348 74.1286 63.9657ZM72.1202 64.4717L70.1128 65.3507C69.3784 63.7473 69.5959 63.8347 68.2828 64.4098L67.067 61.7499C68.3865 61.172 68.2855 61.3577 67.5675 59.7906L69.5422 58.9416C70.2911 60.5796 70.0937 60.5296 71.445 59.9381L72.618 62.5079C71.2958 63.0894 71.394 62.8856 72.1202 64.4717ZM66.9405 60.06L67.3227 60.8954L66.6411 61.1948L66.2689 60.3485L66.9405 60.06ZM69.9435 67.3964C68.8879 65.3717 69.2346 65.5555 67.6394 66.1761L65.9513 62.426L66.5092 62.1712C68.1017 65.6465 67.6703 65.4208 69.1081 64.7902C69.5895 65.8394 69.6951 66.2762 70.161 66.0724C72.7144 64.9567 72.345 65.0577 72.4196 65.2188C72.6062 65.6137 72.7663 66.0023 72.8582 66.2325L69.9435 67.3964ZM72.8346 64.3934L72.3614 63.3606L72.9647 63.0958L73.4625 64.1441L72.8346 64.3934Z" fill="#402E32"/>
    <path d="M76.5483 136.455C76.5483 136.455 67.0898 123.618 66.9806 123.487C66.3963 122.815 65.6556 122.803 64.7056 123.499C64.7056 123.499 61.8845 125.549 61.8227 125.6C59.5577 122.468 58.9434 120.653 56.9751 122.394C56.7795 122.567 57.8187 121.752 44.2542 131.537C43.9704 131.742 43.7792 132.051 43.7223 132.396C43.6653 132.741 43.7473 133.095 43.9503 133.381L46.4692 136.994C43.8975 138.913 43.4279 139.072 43.3078 139.823C43.1868 140.591 42.8801 139.997 52.0238 152.701C52.227 152.983 52.5333 153.174 52.8763 153.232C53.2193 153.291 53.5715 153.212 53.8565 153.012L57.8815 150.295C61.4496 154.607 61.3968 154.796 62.2331 154.796C62.8118 154.796 61.9155 155.55 75.0395 146.29C75.3194 146.093 75.5111 145.795 75.5735 145.459C75.6359 145.123 75.5641 144.776 75.3735 144.492C75.3289 144.418 74.2942 142.721 73.0002 140.969C76.3781 138.659 76.7075 138.619 76.8568 137.713C76.8923 137.493 76.8833 137.269 76.8303 137.053C76.7773 136.836 76.6814 136.633 76.5483 136.455V136.455ZM68.5467 137.349L71.1547 140.944L62.2322 147.42C58.4502 142.209 59.8425 142.461 54.6664 146.219L48.2864 137.429C48.3829 137.07 47.8633 137.536 51.7835 134.686C51.8874 134.611 51.9754 134.516 52.0425 134.406C52.1095 134.297 52.1544 134.175 52.1744 134.049C52.1944 133.922 52.1893 133.792 52.1592 133.668C52.1291 133.543 52.0748 133.425 51.9992 133.321L49.5095 129.891C59.2628 122.89 58.1699 123.49 58.4083 123.818C61.85 128.569 60.818 128.519 65.8276 124.807C65.8412 124.827 72.1894 133.497 72.1894 133.497L68.7632 135.983C68.6591 136.058 68.5708 136.154 68.5035 136.263C68.4362 136.373 68.3912 136.494 68.3711 136.621C68.351 136.748 68.3561 136.878 68.3862 137.003C68.4164 137.128 68.4709 137.245 68.5467 137.349ZM45.5737 132.708L48.533 130.591L50.8945 133.846L47.8915 136.03L45.5737 132.708ZM73.7364 145.107L62.3013 152.947C57.4638 147.102 59.1673 147.36 53.2013 151.39L45.1624 140.118L47.4947 138.377C54.3325 147.798 53.8966 147.405 54.4662 147.497C54.994 147.58 54.8148 147.597 58.7869 144.713C60.9372 147.676 61.668 149.318 62.7591 148.524L71.6716 142.055C72.5816 143.299 73.3724 144.53 73.7364 145.108V145.107ZM71.9164 139.634C71.7016 139.781 72.082 140.176 69.6505 136.825L72.9092 134.459L75.1351 137.432L71.9164 139.634Z" fill="#402E32"/>
    <path d="M81.172 102.3C81.991 102.713 82.3113 103.574 83.2031 105.438C83.5526 104.676 83.7701 102.363 86.2826 101.633C86.5556 101.555 86.7021 101.371 86.4573 101.224C85.864 100.867 84.084 100.662 83.3815 98.6168C82.3013 95.4736 83.5316 100.697 79.5649 101.576C80.0566 101.905 80.5998 102.15 81.172 102.3Z" fill="white"/>
    <path d="M34.3316 94.68C34.9559 93.4173 35.4681 92.1022 35.8622 90.7498C36.2907 91.9329 36.872 93.055 37.5912 94.0876C38.5585 95.2415 40.9646 95.7156 41.1102 96.0177C41.2922 96.3981 39.3812 96.6629 38.3965 97.8696C38.2801 98.0116 36.9114 100.242 36.8495 100.41C36.6375 100.965 36.633 101.667 36.1452 102.005C35.7503 101.186 35.6756 100.244 35.2579 99.4393C34.4107 97.8104 32.659 97.4373 31.7999 97.0297C30.4941 96.4118 33.124 96.4755 34.3316 94.68Z" fill="white"/>
    <path d="M39.534 95.0605C38.791 94.7493 38.1338 94.2639 37.6179 93.6453C37.102 93.0266 36.7427 92.2928 36.5702 91.506C35.6429 88.3783 36.0242 88.1627 35.2261 91.6279C34.0904 96.6957 30.1956 96.1352 30.2602 96.7376C30.3121 97.2172 34.2069 96.875 35.5237 101.143C35.925 102.417 36.0633 103.526 36.2517 103.519C36.44 103.512 36.5611 102.427 36.9751 101.153C39.0854 94.5791 45.0532 97.3773 39.534 95.0605ZM36.2471 101.43C36.0497 100.483 35.6387 99.5938 35.0452 98.8297C34.4517 98.0656 33.6916 97.4471 32.8228 97.0215C31.4114 96.3618 31.5151 97.0397 32.891 96.208C33.7043 95.6717 34.3937 94.9681 34.9131 94.144C35.4326 93.32 35.7701 92.3945 35.9031 91.4296C36.1376 92.6179 36.7334 93.7047 37.6091 94.5415C38.4848 95.3782 39.5976 95.924 40.7953 96.1042C38.523 96.6065 36.7813 99.1846 36.2471 101.432V101.43Z" fill="#402E32"/>
    <path d="M54.7119 124.05C57.4801 124.16 57.7568 124.625 59.3866 126.484C59.5686 123.338 60.1146 122.662 61.3986 121.396C61.0519 120.948 59.6177 121.524 58.3492 120.698C57.6048 120.213 56.9842 119.14 56.7166 118.964C56.2161 118.639 56.6038 119.997 56.5847 120.362C56.4181 121.775 55.7542 123.082 54.7119 124.05Z" fill="white"/>
    <path d="M85.5582 100.456C82.4642 99.1009 83.4315 93.4543 82.3641 98.0853C81.5697 101.623 78.8715 101.179 78.9316 101.734C78.9097 102.231 81.6406 101.869 82.577 104.895C83.2978 107.176 83.0939 107.05 83.7928 104.901C85.196 100.531 89.4139 102.077 85.5582 100.456ZM83.1858 104.702C83.0111 104.085 82.7075 103.511 82.2952 103.02C81.8828 102.528 81.371 102.129 80.7934 101.85C80.1919 101.571 80.2256 101.823 80.8508 101.446C81.389 101.098 81.8523 100.646 82.2136 100.117C82.5749 99.5878 82.8268 98.9917 82.9547 98.3638C83.1551 99.0906 83.5514 99.7483 84.1003 100.265C84.6491 100.782 85.3294 101.138 86.0669 101.295C84.6764 101.738 83.6517 103.266 83.1858 104.702Z" fill="#402E32"/>
    <path d="M60.0545 120.83C56.5756 120.557 55.6419 114.747 56.1679 119.6C56.5929 123.308 53.8156 123.772 54.064 124.295C54.2078 124.78 56.7358 123.501 58.6695 126.125C61.3995 129.786 58.5385 125.462 60.737 122.463C61.7681 121.04 62.9638 121.014 60.0545 120.83ZM59.1973 125.765C58.8221 125.219 58.3341 124.76 57.7662 124.419C57.1984 124.078 56.564 123.863 55.9058 123.788C55.1988 123.716 55.3207 123.963 55.8194 123.363C56.2261 122.841 56.5238 122.243 56.6948 121.604C56.8658 120.965 56.9067 120.298 56.8149 119.643C57.2552 120.29 57.8663 120.801 58.5801 121.121C59.294 121.44 60.0826 121.555 60.8581 121.453C59.6569 122.333 59.1363 124.215 59.1973 125.762V125.765Z" fill="#402E32"/>
    <path d="M61.0437 56.1471C62.4861 57.4611 63.8238 57.1681 63.902 57.3983C63.9748 57.6113 63.3487 58.3302 63.1931 58.6869C62.9374 59.2729 63.0785 59.9891 62.7563 60.5406C61.6762 58.8116 60.01 59.2893 60.0054 58.959C60.0054 58.8152 60.7598 58.14 60.9554 57.3547C61.0028 57.1672 61.213 56.3054 61.0437 56.1471Z" fill="white"/>
    <path d="M64.4435 57.3055C64.4371 56.9542 63.0048 57.1371 62.3368 56.6685C61.5178 56.0979 61.0792 54.9322 60.7753 55.0569C60.2557 55.2279 61.2931 57.0015 60.1556 58.3247C59.7779 58.7633 59.342 59.0672 59.4175 59.2447C59.4721 59.4267 59.9845 59.3867 60.5414 59.4613C62.244 59.6324 62.5297 61.4633 63.0393 61.3805C63.5289 61.2485 62.7418 59.5987 63.7937 58.2173C64.1277 57.7741 64.5072 57.4784 64.4435 57.3055ZM62.5752 59.9154C62.0841 59.3159 61.382 58.9274 60.6133 58.8297C61.0928 58.2024 61.3536 57.4353 61.3559 56.6457C61.6109 56.9583 61.9334 57.2091 62.2992 57.3794C62.665 57.5496 63.0646 57.6347 63.468 57.6285C62.907 58.2598 62.5904 59.071 62.5752 59.9154V59.9154Z" fill="#402E32"/>
    <path d="M129.741 91.4113C131.537 93.0493 133.91 93.8747 136.212 94.6564C140.26 96.0323 145.118 94.2014 147.759 90.8344C151.359 86.2498 151.49 80.8317 150.464 79.4958C149.493 81.4805 147.124 83.8638 144.988 83.3578C144.467 83.2322 144.011 82.9193 143.707 82.4788C143.403 82.0383 143.271 81.5012 143.338 80.97C143.716 78.8688 146.807 75.4708 146.505 74.0694C146.373 73.4616 146.888 72.608 146.778 71.536C146.713 70.9227 146.498 70.5496 145.367 68.0962C145.281 67.8511 145.147 67.6254 144.973 67.4321C144.8 67.2387 144.59 67.0816 144.355 66.9696C143.674 66.4992 143.068 65.7575 142.24 65.7657C144.624 74.5927 134.355 69.4912 133.704 74.5517C133.426 76.7175 135.749 77.5975 134.945 81.0491C134.79 81.7107 134.628 81.9337 133.906 82.0574C133.188 82.2487 132.435 82.2619 131.71 82.0961C130.986 81.9302 130.313 81.5902 129.75 81.1056C128.975 80.312 127.582 77.2326 127.839 75.4408C128.112 73.5225 125.186 78.3838 125.928 85.055C125.474 84.903 127.352 89.23 129.741 91.4113Z" fill="#FFF4CC"/>
    <path d="M76.0278 11.5333C74.7201 11.6061 74.8675 20.6333 81.7453 21.9474C84.0421 22.3842 86.0769 22.4934 88.6877 20.6625C90.7379 19.2274 91.1565 17.8051 91.4969 15.3098C91.7517 14.3243 91.6182 13.2786 91.1238 12.3887C89.9917 15.0805 86.804 14.7647 86.4828 12.7637C86.4819 11.9653 86.6584 11.1768 86.9996 10.455C87.2905 9.37502 87.2144 8.22902 86.7834 7.19697C86.3523 6.16491 85.5907 5.30523 84.6182 4.75293C84.5099 5.42724 84.8693 6.14887 84.6127 6.78223C84.2196 7.75593 83.0057 7.64309 81.1738 8.87523C79.6023 9.93538 79.696 10.839 80.4404 12.4643C80.8954 13.4571 81.1356 14.7274 80.4049 15.1087C79.8625 15.1812 79.3106 15.1204 78.797 14.9315C78.2834 14.7427 77.8236 14.4315 77.4574 14.0249C76.8738 13.2606 76.3931 12.4229 76.0278 11.5333Z" fill="#FFF4CC"/>
    <path d="M45.773 31.1876C45.5819 30.8709 45.4363 30.6042 44.9959 30.5506C45.2656 31.705 45.3676 32.8923 45.2989 34.0759C45.3095 34.5051 45.2294 34.9318 45.064 35.328C44.8986 35.7242 44.6515 36.0812 44.3388 36.3755C44.1765 36.646 43.9319 36.8574 43.6408 36.9789C43.3497 37.1004 43.0273 37.1256 42.7209 37.0507C39.4894 36.6557 40.5196 33.3133 39.4021 31.3705C38.5085 29.8153 38.4011 29.1128 36.744 28.3165C34.7147 27.3437 31.9082 27.1544 33.0603 27.9907C33.6521 28.3767 34.1159 28.9298 34.3928 29.5798C34.6697 30.2298 34.7472 30.9475 34.6155 31.6416C34.135 33.347 32.1266 34.1796 31.6662 35.3608C31.5353 35.847 31.5569 36.3616 31.7282 36.8351C31.8994 37.3086 32.2119 37.718 32.6235 38.008C34.4926 39.5141 37.1671 39.0773 36.42 41.911C36.3888 42.141 36.2906 42.3567 36.1377 42.5313C35.9848 42.7059 35.7839 42.8316 35.5601 42.8929C33.1349 43.8739 32.4233 42.9893 31.5024 42.5908C31.1329 42.4306 30.7343 42.3414 30.3749 42.1612C29.5404 41.7417 29.0044 40.8791 28.1854 40.4322C28.1888 40.8894 28.2263 41.3456 28.2974 41.7972C29.5941 45.4691 30.9455 46.8177 33.3788 48.1181C37.8878 50.5269 40.0746 49.9854 43.0066 48.5886C46.2762 47.0297 47.3882 44.8039 48.3756 42.0411C49.1298 39.7311 49.0132 37.2251 48.048 34.995C47.4893 33.6168 46.722 32.3326 45.773 31.1876Z" fill="#FFF4CC"/>
    <path d="M150.765 79.3675C150.401 78.4748 150.432 78.9762 149.893 79.8808C148.082 82.9657 143.075 83.9403 144.139 80.5633C144.664 78.9253 146.165 77.3683 146.968 75.531C147.485 74.2733 147.661 72.9011 147.477 71.5537C147.293 70.2062 146.755 68.9314 145.919 67.8588C144.493 66.0388 142.248 65.2261 142.143 65.5738C141.846 65.7002 143.095 68.1454 141.233 69.9554C138.535 72.6936 135.386 69.3393 133.316 73.3543C131.78 76.3045 134.607 78.2473 134.499 80.2939C134.412 82.0347 131.363 82.5361 129.27 79.1428C127.802 76.694 128.217 74.5081 127.861 74.4781C127.669 74.3553 125.308 77.3237 125.087 81.5606C124.463 93.1631 137.801 99.4985 145.988 93.3988C150.737 89.8653 152.412 83.4298 150.765 79.3675ZM149.734 86.1206C146.028 96.3572 133.47 96.3035 128.531 88.8861C127.292 87.0754 126.52 84.9858 126.285 82.8042C126.051 80.6225 126.36 78.4167 127.185 76.3836C127.703 75.0359 127.549 75.4036 127.52 75.8568C127.254 81.3559 132.309 84.6473 135.073 82.3851C135.364 82.1384 135.602 81.8352 135.772 81.4939C135.942 81.1525 136.041 80.7802 136.062 80.3995C136.253 77.5275 132.739 75.0896 135.531 73.0867C136.681 72.2559 138.129 72.8556 139.695 72.3223C142.445 71.4442 143.981 68.4257 142.491 65.9387C145.214 67.9052 146.163 70.3067 146.083 72.5434C145.987 76.148 142.009 78.5849 142.498 81.8318C143.026 85.7885 149.537 83.9994 150.506 79.9463C150.729 82.0364 150.465 84.1497 149.734 86.1206V86.1206Z" fill="#402E32"/>
    <path d="M91.1001 11.6262C90.8398 11.598 89.9335 14.7111 87.9406 13.772C86.046 12.9329 89.3465 9.73975 87.6557 6.78043C86.7621 5.20795 84.5617 4.30523 84.4525 4.55002C84.1795 4.52909 84.4316 5.80491 84.2851 6.22715C84.0467 6.93877 83.1121 7.18174 82.3923 7.39468C79.5649 8.2519 78.3246 10.364 79.9298 12.69C80.3585 13.3115 80.5923 13.7428 80.4968 13.9913C80.3339 14.7921 78.5949 14.9176 77.4155 13.3033C76.42 11.9183 76.6029 10.6743 76.3818 10.6643C76.3181 10.607 75.9049 10.8882 75.5072 11.6653C74.4635 13.7083 74.7128 17.3628 77.1088 20.1747C81.9537 25.8413 90.8771 23.0667 91.9 16.3736C92.3431 13.6273 91.3412 11.5215 91.1001 11.6262ZM75.985 15.0869C75.7619 14.038 75.7743 12.9527 76.0214 11.9092C76.0246 12.9141 76.4029 13.8816 77.082 14.6222C77.7612 15.3628 78.6924 15.8232 79.6932 15.9132C80.0581 15.9312 80.4215 15.8551 80.7486 15.6923C81.0756 15.5294 81.3553 15.2853 81.5608 14.9833C81.7664 14.6812 81.8909 14.3315 81.9224 13.9675C81.9539 13.6035 81.8913 13.2376 81.7407 12.9047C81.2503 11.7727 79.6887 10.6852 81.4259 9.28839C82.6598 8.28739 85.9313 8.00711 84.8702 5.28439C84.7246 4.9668 84.7401 5.0214 84.8347 5.1306C85.3935 5.7676 85.6183 5.91138 86.0177 6.4046C88.1107 8.9799 85.3416 11.0547 85.9914 13.4416C86.5747 15.8022 90.4258 15.8913 91.1656 12.8902C92.0237 23.5472 77.8696 24.9813 75.985 15.0869Z" fill="#402E32"/>
    <path d="M44.6228 30.0482C44.4298 30.1192 45.0505 31.4232 44.914 33.5536C44.641 36.9333 42.0393 38.0462 41.0583 34.4836C40.3303 31.8664 39.888 28.7242 35.8322 27.4638C33.8802 26.8632 32.0502 27.4174 32.1194 27.6577C32.0775 27.8488 34.3443 28.4312 34.2251 30.7098C34.1477 32.376 32.8874 32.8847 31.7754 34.1514C30.2839 35.8613 30.5924 38.3502 33.6372 39.5131C34.4936 39.7208 35.279 40.1534 35.9122 40.7662C36.6721 41.6708 35.8758 42.9748 33.7419 42.8001C30.1456 42.5034 28.3647 40.0364 28.1718 40.2302C28.0153 40.2257 27.7168 43.0621 30.1155 46.0934C37.6212 55.4827 53.2013 47.5166 48.4184 34.944C47.1871 31.8209 44.8011 29.8144 44.6228 30.0482ZM47.9688 41.5224C46.8322 46.5666 41.0355 50.0546 36.1334 48.7624C34.207 48.2745 32.4555 47.2574 31.0769 45.8262C29.6982 44.395 28.7474 42.6067 28.3319 40.6634C30.3794 43.9949 36.7367 45.2716 37.3655 41.7954C37.6949 39.9936 35.8185 38.9608 34.0804 38.3374C31.9192 37.5576 31.7035 36.0315 32.6654 34.8794C33.5362 33.7801 35.227 32.8183 35.1105 30.7007C35.0947 30.0561 34.8882 29.4306 34.5169 28.9034C34.1456 28.3761 33.6264 27.9708 33.0248 27.7387C33.8871 27.7679 34.7368 27.9548 35.5319 28.2901C38.9544 29.7461 39.1719 32.3114 39.8553 34.823C41.6498 40.9983 47.9543 36.8387 45.207 30.8718C45.1114 30.667 49.3429 35.5465 47.9688 41.5224V41.5224Z" fill="#402E32"/>
    <path d="M114.028 123.487C114.392 131.662 122.721 135.713 129.24 138.963C130.287 139.485 130.585 139.814 130.464 141.633C130.046 147.901 134.675 154.795 136.482 155.966C139.507 157.927 145.779 153.288 147.289 149.714C149.035 145.578 147.764 139.961 146.449 135.686C145.948 134.055 144.337 128.985 143.331 127.618C141.915 125.693 135.403 122.447 133.158 121.592C130.32 120.512 127.179 119.899 124.911 117.881C122.454 115.697 120.661 113.776 117.506 116.045C116.369 116.913 115.458 118.043 114.853 119.339C114.247 120.635 113.964 122.058 114.028 123.487Z" fill="white"/>
    <path d="M146.109 131.559C143.652 122.246 133.65 121.831 127.323 118.043C125.104 116.759 123.977 115.008 121.919 114.271C118.793 113.06 113.121 116.792 113.28 123.199C113.57 130.89 121.997 138.446 129.478 140.125C129.093 149.46 135.332 156.29 135.978 155.731C136.419 155.367 133.466 151.552 132.037 145.963C130.519 140.399 131.167 135.614 130.603 135.523C130.395 135.484 129.994 136.35 129.721 137.889C120.146 135.576 111.027 123.465 117.891 117.549C121.622 114.439 122.251 117.755 126.182 119.954C132.968 123.965 141.911 123.828 144.594 131.998C148.967 146.946 149.435 145.941 146.109 131.559Z" fill="#402E32"/>
    <path d="M116.546 114.576C117.466 115.741 120.646 115.208 122.362 113.934C123.942 116.769 127.744 116.497 127.897 115.918C127.988 115.575 127.026 115.034 126.363 114.298C124.755 112.513 124.887 109.475 124.101 108.409C123.268 109.094 122.835 110.166 122.026 110.879C120.901 111.812 119.473 112.297 118.013 112.244C116.998 112.115 113.017 110.012 112.654 109.884C113.031 113.226 114.814 113.488 113.683 115.919C112.711 118.012 110.306 120.104 110.159 120.358C113.481 120.164 116.004 119.842 116.374 116.172C116.484 115.647 116.542 115.113 116.546 114.576Z" fill="#FFF4CC"/>
    <path d="M123.957 109.225C124.589 111.058 124.056 112.42 125.667 114.13C126.192 114.627 126.68 115.159 127.129 115.725C126.651 115.84 126.155 115.858 125.67 115.775C125.186 115.693 124.723 115.512 124.311 115.245C123.898 114.978 123.545 114.629 123.272 114.22C122.999 113.812 122.812 113.351 122.723 112.868C121.915 113.867 120.757 114.521 119.484 114.697C118.212 114.873 116.92 114.558 115.871 113.815C116.627 116.648 114.863 120.234 111.214 119.892C113.065 117.878 114.374 116.976 114.286 114.198C114.238 112.659 113.409 111.767 113.075 110.461C115.965 111.553 118.878 114.889 122.927 110.693C123.134 110.121 123.489 109.615 123.957 109.225V109.225ZM124.421 107.633C123.329 108.504 122.648 108.907 122.112 110.156C118.702 113.534 117.132 110.965 111.691 108.915C112.74 113.019 113.329 113.018 113.329 114.228C113.5 116.617 112.094 117.52 109.2 120.669L111.126 120.851C114.71 121.184 116.891 118.375 116.992 115.405C118.283 115.828 119.68 115.792 120.947 115.302C123.111 114.468 121.743 114.096 122.967 115.372C125.047 117.539 127.375 116.655 128.694 116.282C126.187 112.733 125.712 113.563 125.333 111.216C125.205 109.983 124.898 108.776 124.421 107.633Z" fill="#402E32"/>
</svg>
