<svg width="182" height="182" viewBox="0 0 182 182" fill="none" xmlns="http://www.w3.org/2000/svg">
    <path d="M163.127 128.939C157.451 123.282 150.769 123.782 149.987 123.593C149.519 115.327 142.828 100.895 137.547 93.6952C129.659 82.9408 122.288 80.2672 111.105 77.7029C107.738 76.9303 104.226 76.1559 100.852 76.9157C98.4914 77.4946 96.3635 78.7809 94.7535 80.6023C93.1435 82.4237 92.1282 84.6934 91.8435 87.1077C90.0056 87.2754 88.2579 87.9813 86.819 89.137C85.3802 90.2928 84.3141 91.8471 83.754 93.6057C83.1939 95.3642 83.1647 97.2488 83.6701 99.0238C84.1756 100.799 85.1931 102.385 86.5955 103.585C83.2412 104.732 81.9982 109.181 83.2212 112.508C85.7565 119.402 94.3232 121.089 98.7667 126.569C102.333 130.964 102.963 137.524 107.7 140.998C110.283 142.965 113.097 144.609 116.08 145.89C116.814 146.187 125.485 148.445 125.473 147.928C125.564 151.899 127.822 153.924 126.67 152.933C132.21 163.756 137.576 164.727 147.54 159.238C151.121 157.265 154.724 155.188 157.542 152.225C162.201 147.321 168.246 134.043 163.127 128.939Z" fill="white"/>
    <path d="M121.156 92.3293C121.611 92.5195 119.959 96.4425 119.882 100.58C119.769 106.683 122.184 105.005 118.899 106.204C116.502 99.5975 120.623 92.1036 121.156 92.3293Z" fill="#1E1E1E"/>
    <path d="M165.802 132.335C164.182 127.111 156.395 123.434 150.257 123.019C149.546 113.676 144.879 103.937 139.941 95.9693C133.147 84.8755 123.005 78.6693 110.233 76.4953C104.56 75.5134 97.9696 75.3869 93.8682 79.5047C92.9208 80.4224 92.1782 81.5302 91.6891 82.7552C91.1999 83.9802 90.9753 85.2948 91.0299 86.6127C83.962 87.5172 77.9187 96.1376 85.2969 103.116C80.2992 105.04 81.6224 112.164 84.7291 116.596C87.8586 120.944 91.9782 120.31 97.0432 126.208C102.295 132.239 100.661 136.225 107.514 141.86C112.398 145.818 118.028 148.321 124.629 148.389C124.453 149.656 124.689 150.947 125.301 152.071C128.751 159.099 133.461 164.72 141.072 163.196C158.526 159.681 168.049 139.829 165.802 132.335ZM163.643 137.765C162.452 142.457 160.239 146.829 157.164 150.569C154.088 154.308 150.225 157.323 145.85 159.397C138.233 162.791 132.976 163.05 126.706 151.38C126.138 150.482 125.918 149.408 126.086 148.359C133.521 147.983 139.256 143.796 139.046 143.489C138.836 143.163 134.418 146.42 127.576 146.911C117.141 147.73 107.137 141.275 103.756 134.218C102.409 131.424 101.465 128.453 98.4528 124.993C93.3204 119.019 88.8896 119.199 86.2488 115.522C83.5807 111.729 82.1301 105.239 87.0869 104.572C88.5629 105.62 94.2504 108.981 95.8175 109.9C97.9496 111.123 98.5475 110.163 96.5354 108.769C91.06 105.018 88.957 103.781 87.6466 102.736C79.9807 96.6136 85.1732 89.1771 91.2556 87.8739C92.3931 92.9936 101.783 94.6325 111.124 100.871C110.127 102.09 109.285 103.427 108.617 104.852L110.3 105.64C113.228 99.38 117.724 96.9039 117.378 96.3424C117.175 95.992 114.588 97.2642 112.379 99.4773C106.665 95.6098 99.0935 92.6988 95.074 90.077C91.7871 87.9031 92.4787 83.525 95.185 80.8178C101.205 74.5943 117.48 79.1798 124.996 83.6388C133.111 88.4236 137.281 94.5588 141.483 102.051C145.487 109.201 150.44 120.95 148.991 128.987C147.921 134.72 144.077 138.692 144.328 138.901C144.542 139.083 149.793 133.56 150.3 127.314C150.343 126.794 150.365 125.335 150.336 124.443C154.38 124.937 158.195 126.59 161.321 129.204C164.299 131.796 164.52 133.944 163.64 137.765H163.643Z" fill="#1E1E1E"/>
    <path d="M91.405 161.689C88.129 152.513 80.4195 153.836 83.124 150.921C89.5914 143.947 86.6493 130.446 70.2357 123.348C72.8747 121.059 75.5401 118.733 77.4674 115.823C82.9447 107.555 78.5786 99.4955 72.417 99.551C73.0614 98.2283 73.3159 96.7494 73.1506 95.2873C72.9854 93.8252 72.4072 92.4404 71.4837 91.2949C70.5602 90.1494 69.3297 89.2905 67.9359 88.8188C66.5422 88.347 65.043 88.2819 63.6136 88.631C62.255 88.9696 62.0266 88.5983 61.9847 87.5936C61.8719 84.8782 59.3102 82.747 56.6303 82.2929C50.5642 81.2637 34.6274 88.4035 25.1388 105.862C23.9945 107.829 23.1498 109.955 22.6327 112.171C20.9455 120.512 28.0017 142.449 45.9287 157.428C40.9965 158.81 40.587 168.687 43.2105 172.154C44.0867 173.219 45.1852 174.081 46.4292 174.678C53.6655 178.494 62.386 177.621 70.4805 176.433C77.027 175.473 90.3785 172.187 91.84 165.695C92.0736 164.346 91.9229 162.958 91.405 161.689Z" fill="white"/>
    <path d="M75.3118 142.044C75.6494 146.398 73.4918 149.272 73.2533 149.116C72.9312 148.908 74.7376 146.673 74.3854 142.116C74.0805 138.172 72.3206 135.299 72.5936 135.164C72.8275 135.02 75.0015 138.035 75.3118 142.044Z" fill="#1E1E1E"/>
    <path d="M92.6171 162.156C92.0012 159.898 90.8639 157.816 89.2967 156.077C87.7294 154.339 85.776 152.992 83.5936 152.146C91.2803 144.658 85.9814 128.747 71.3614 123.481C72.9139 122.35 74.3216 121.032 75.5528 119.557C85.0632 108.683 80.3503 99.9351 73.6354 99.2935C75.2161 91.088 68.7751 86.0294 62.8456 87.9249C62.5234 83.6006 58.14 80.8687 53.4043 81.3729C40.8773 82.727 24.4172 100.834 22.0366 111.72C19.8463 121.671 30.0537 146.761 44.7866 156.983C41.9238 158.948 40.5515 161.497 40.5833 165.34C40.6853 169.604 41.982 173.234 45.8395 174.975C55.7412 179.511 70.1966 177.676 80.6206 174.987C88.2082 173.034 94.4135 169.72 92.6171 162.156ZM86.6503 170.474C80.2903 173.917 59.4631 177.894 48.3948 173.75C45.6175 172.628 43.6364 171.442 42.9557 167.884C41.8155 162.307 43.5436 159.245 48.301 156.879C51.9001 155.095 56.2672 154.322 56.2026 153.932C56.1452 153.588 50.2193 153.974 45.9387 156.291C31.8291 146.27 21.7418 121.521 23.8402 112.126C26.7841 98.7493 51.3222 75.8583 59.9718 85.1084C61.6762 86.903 61.6289 88.6775 60.5369 90.8587C58.5791 94.4667 55.8603 97.6059 52.5689 100.059L53.276 101.023C57.0425 98.3144 61.9092 93.0819 62.74 89.268C67.2809 87.903 72.5243 91.1891 71.9738 97.7201C71.5925 103.241 67.1226 107.244 63.3006 110.787L64.0632 111.708C68.0453 108.692 71.961 105.247 73.3524 100.479C74.805 100.714 76.1397 101.42 77.1506 102.49C78.1615 103.559 78.7922 104.931 78.9453 106.394C79.6533 111.84 75.6329 117.16 71.9256 121.211C70.5424 122.805 69.697 122.762 69.767 122.959C69.3839 122.843 65.49 121.761 65.3745 122.134C65.1069 123.022 76.3918 124.979 82.2022 133.85C85.9832 139.541 86.9287 147.301 81.4096 151.595C75.5164 150.536 63.4644 152.651 63.5062 153.004C63.5718 153.558 72.8028 153.013 76.3372 153.08C78.762 153.016 81.1757 153.43 83.4407 154.298C89.3093 156.9 94.7538 166.177 86.6503 170.474Z" fill="#1E1E1E"/>
    <path d="M120.243 133.747C121.49 132.648 122.325 131.155 122.609 129.516C125.118 119.441 120.822 109.764 118.431 102.469C116.485 96.5326 101.912 54.5061 100.748 51.8334C99.3164 48.5446 98.7832 45.2859 96.3562 42.4049C94.5595 40.1837 92.0532 38.6484 89.2582 38.0569C85.014 37.2752 70.3193 39.7777 65.2733 41.1372C52.5579 44.5643 39.6022 45.2013 34.8948 47.9086C33.2715 48.9434 31.8975 50.325 30.8715 51.9539C29.8455 53.5828 29.193 55.4187 28.9607 57.3298C28.2327 63 33.3442 76.0694 33.9284 79.3845C34.0804 80.2454 33.9484 81.0917 34.1104 81.9507C34.7741 85.4008 37.4056 89.8469 38.81 93.1598C39.671 95.1908 39.9813 97.427 40.4937 99.5727C40.7351 100.584 41.0081 101.584 41.4213 102.559C41.3977 102.493 41.4941 102.437 41.5569 102.468C41.9082 102.635 42.6544 106.909 43.9038 109.333C47.501 116.312 47.5293 118.276 49.2728 122.917C50.413 125.958 51.9173 128.858 52.9492 131.937C53.6963 134.166 54.1932 136.487 55.1159 138.645C57.7695 144.865 61.7808 145.337 67.8778 144.596C69.0544 144.453 70.1289 144.325 71.1121 144.208C79.0092 143.269 88.2926 141.546 96.1126 140.1C99.5952 139.456 104.116 138.622 110.004 137.553C113.37 136.944 117.61 136.029 120.243 133.747Z" fill="url(#paint0_angular_2979_359)"/>
    <path d="M109.614 104.704C107.703 99.5602 111.359 107.616 101.293 81.6359C99.1473 76.0958 92.7345 56.4289 91.2103 53.4395C90.8197 52.7843 90.5618 52.0586 90.4513 51.3038C90.2254 50.6389 89.834 50.0426 89.3138 49.5708C88.7937 49.0991 88.1621 48.7676 87.4784 48.6074C86.1884 48.3855 84.865 48.4567 83.6063 48.8158C48.1718 56.1513 47.2063 54.9128 44.015 59.2945C42.1422 61.868 43.9103 61.4002 55.986 99.9169C56.4055 101.255 57.3264 102.465 57.7987 103.814C58.7797 106.616 57.8633 105.172 61.6398 115.694C64.8831 124.734 63.65 123.386 64.7493 125.453C65.3612 126.578 66.3397 127.46 67.5221 127.951C68.9145 128.451 70.4354 128.463 71.8355 127.985C75.844 127.013 88.3274 125.346 88.7278 125.284C90.4277 125.037 90.4768 124.588 101.559 122.7C110.357 121.2 110.67 121.107 111.316 120.711C112.301 119.925 113.03 118.864 113.409 117.662C113.685 116.025 110.182 106.23 109.614 104.704Z" fill="white"/>
    <path d="M77.0087 56.2214C81.5724 54.9747 80.7334 55.7582 83.4597 55.2805C84.2551 55.1412 84.6427 54.4615 86.5792 55.7427C88.5694 57.0522 90.8316 67.5818 93.9748 74.9055C94.5708 76.2942 94.7674 77.6674 95.2679 79.0915C97.8332 86.3979 99.1263 88.3735 98.8842 90.0279C98.4456 93.0309 95.1532 92.9199 92.5452 93.6907C88.2378 94.9649 83.6613 95.1623 79.37 96.4791C79.139 96.5499 78.903 96.6069 78.6617 96.6204C78.4491 96.6323 78.2367 96.6491 78.0298 96.6992C76.5323 97.0613 70.4509 98.6732 64.7947 99.5811C60.8635 100.213 59.5495 93.2939 58.1845 88.419C57.7213 86.7616 52.2562 72.8314 51.3428 69.2884C51.2343 68.8676 50.6167 68.4854 50.7916 68.8831C50.8881 69.1025 51.3058 68.9641 51.2521 68.7303C50.6924 66.3169 49.504 64.9438 50.6797 62.7579C52.3177 59.7131 55.4781 60.8051 66.4072 58.3799C72.9356 56.933 73.5344 57.1696 77.0087 56.2214Z" fill="url(#paint1_angular_2979_359)"/>
    <path d="M90.6256 99.5718C95.4652 98.5512 102.181 98.7877 103.707 103.492C109.329 120.817 108.872 113.664 73.8993 122.011C72.0593 122.45 70.6051 122.477 69.2429 120.538C68.1982 119.053 66.6703 113.819 66.0424 111.74C63.1395 102.123 70.0564 104.551 78.1945 102.217C78.2212 102.21 84.8871 100.782 90.6256 99.5718Z" fill="url(#paint2_angular_2979_359)"/>
    <path d="M60.4057 97.3397L49.6859 65.851C49.5143 65.3085 49.458 64.7361 49.5207 64.1706C49.5833 63.605 49.7635 63.0588 50.0497 62.5671C50.336 62.0753 50.7218 61.6488 51.1826 61.3149C51.6434 60.9811 52.1689 60.7473 52.7253 60.6285L83.5816 54.5825C84.5479 54.3796 85.555 54.5337 86.4164 55.0162C87.2779 55.4987 87.9354 56.277 88.2672 57.2069C100.204 91.1936 99.8297 89.3927 98.6894 91.4229C97.4427 93.6479 98.1635 93.0509 65.1459 100.106C64.153 100.322 63.1152 100.157 62.2377 99.6451C61.3601 99.1329 60.7064 98.3103 60.4057 97.3397ZM50.8507 63.0327C49.8215 64.7945 50.2137 63.2038 61.2902 97.054C61.524 97.8027 62.0281 98.4376 62.7044 98.8349C63.3807 99.2323 64.1806 99.3636 64.9485 99.2034L95.7738 92.5186C96.2135 92.4258 96.6282 92.2402 96.9903 91.9742C97.3524 91.7081 97.6535 91.3677 97.8733 90.9758C98.0931 90.5839 98.2266 90.1495 98.2649 89.7018C98.3032 89.2541 98.2453 88.8034 98.0952 88.3799C90.7824 67.6128 106.222 111.139 87.3854 57.5118C87.1264 56.7951 86.6175 56.196 85.9521 55.8245C85.2867 55.453 84.5096 55.3342 83.7636 55.4898C50.8935 62.2056 51.8699 61.2846 50.8498 63.03L50.8507 63.0327Z" fill="#1E1E1E"/>
    <path d="M90.4148 50.1044C89.293 49.0064 87.7979 48.3726 86.2288 48.3299C85.3807 48.3026 87.6211 47.7156 49.058 55.3878C47.715 55.5115 46.4299 55.9936 45.337 56.7838C44.5143 57.425 43.8736 58.2701 43.4783 59.2354C43.0831 60.2007 42.9471 61.2525 43.0839 62.2865C43.2113 63.2794 63.9374 125.052 64.2022 125.532C64.8758 126.899 66.0454 127.958 67.4728 128.494C69.4566 129.243 70.7351 128.788 72.9328 128.391C104.419 122.685 117.099 119.774 86.4654 125.059C68.8769 128.094 69.574 128.223 67.8368 127.554C65.7592 126.753 65.155 125.279 64.6718 123.823C44.5317 63.0628 44.2978 63.1865 44.1659 62.1337C44.057 61.2905 44.1696 60.4335 44.4928 59.6471C44.8159 58.8608 45.3383 58.1722 46.0086 57.6492C47.4082 56.5899 45.0504 57.2761 82.607 50.0052C84.6499 49.6102 86.6028 48.9778 88.2217 49.8878C90.1172 50.9543 89.4529 50.2236 92.0309 57.2706C115.058 120.213 113.533 116.785 112.796 118.464C111.753 120.845 109.626 120.907 108.538 121.169C97.4209 123.85 110.159 121.437 111.144 120.962C112.184 120.439 112.996 119.553 113.428 118.472C113.86 117.391 113.881 116.189 113.487 115.093C105.486 91.6222 90.9944 50.8797 90.4148 50.1044Z" fill="#1E1E1E"/>
    <path d="M72.4898 122.696C71.5011 122.696 70.5392 122.375 69.748 121.782C68.9568 121.189 68.3789 120.356 68.1009 119.407L64.965 109.611C64.7686 109.005 64.7021 108.364 64.7698 107.73C64.8375 107.096 65.0378 106.483 65.3578 105.932C65.6778 105.38 66.1103 104.903 66.6271 104.529C67.1439 104.156 67.7334 103.896 68.3575 103.765L97.816 97.8011C98.9188 97.5881 100.061 97.7822 101.032 98.3475C102.003 98.9127 102.735 99.8108 103.094 100.875C104.782 105.718 104.063 103.432 106.679 111.027C106.884 111.623 106.961 112.255 106.903 112.883C106.845 113.51 106.655 114.118 106.345 114.666C106.034 115.214 105.611 115.691 105.103 116.063C104.595 116.436 104.014 116.696 103.398 116.827C99.9581 117.558 73.4089 122.696 72.4898 122.696ZM98.7205 98.6438C98.1818 98.6438 100.194 98.308 68.5413 104.679C68.0448 104.784 67.5759 104.992 67.1652 105.29C66.7545 105.588 66.4112 105.97 66.1576 106.409C65.904 106.849 65.7459 107.337 65.6934 107.842C65.641 108.346 65.6954 108.857 65.8532 109.339L68.9881 119.135C69.2497 120.02 69.835 120.775 70.6276 121.248C71.4201 121.721 72.3618 121.878 73.2651 121.689C103.319 115.707 97.9734 117.032 103.204 115.921C103.691 115.817 104.151 115.611 104.553 115.316C104.955 115.022 105.29 114.645 105.535 114.211C105.78 113.778 105.931 113.297 105.976 112.8C106.022 112.304 105.962 111.804 105.799 111.333C103.177 103.72 103.908 106.038 102.216 101.184C101.97 100.449 101.501 99.8103 100.874 99.3551C100.248 98.8999 99.4949 98.6512 98.7205 98.6438Z" fill="#1E1E1E"/>
    <path d="M124.422 120.335C123.543 111.152 116.742 96.3706 102.388 53.8982C99.8726 46.4735 98.0107 42.0063 93.6017 38.9933C88.2701 35.3278 83.5772 36.6955 42.761 45.0784C38.696 45.912 35.8158 46.2187 32.4161 49.1316C30.9167 50.3535 29.7519 51.9359 29.0309 53.7307C27.5667 58.47 29.1173 65.7709 30.3258 70.5657C32.9202 80.7068 50.2885 128.608 55.0878 140.561C55.8868 142.378 57.2422 143.893 58.9583 144.89C60.6745 145.886 62.6628 146.312 64.6364 146.105C71.0064 145.28 113.641 137.946 114.024 137.843C120.651 136.173 125.382 130.053 124.422 120.335ZM37.8351 48.1961C39.8171 46.8238 38.8962 47.2443 54.0022 44.1721C59.7588 43.0027 84.9795 37.2279 90.4677 38.8632C92.9054 40.0594 95.0041 41.8477 96.572 44.0647C99.3302 48.3235 102.448 59.5993 104.417 65.063C117.243 101.202 126.923 125.619 121.188 127.255C110.279 129.465 78.5167 135.278 67.5794 136.802C61.2276 137.712 60.4013 133.257 58.9844 129.496C55.8977 121.312 33.1923 62.6769 34.5127 53.8954C34.5986 52.7558 34.9423 51.6507 35.5179 50.6634C36.0935 49.676 36.8858 48.8324 37.8351 48.1961ZM106.165 137.352C61.1202 145.162 62.9084 145.259 59.8216 143.473C56.7604 141.736 56.3163 139.185 54.6292 134.803C29.6524 68.9523 23.4844 53.9491 36.5657 48.0796C30.3358 53.3194 34.5637 63.3458 44.0031 91.2737C50.5924 110.276 59.4422 133.658 60.323 134.885C61.1051 136.078 62.2232 137.014 63.5362 137.573C64.8493 138.133 66.2986 138.291 67.7013 138.028C76.461 136.775 121.868 127.97 121.96 127.952C119.218 136.556 111.803 136.336 106.165 137.352Z" fill="#1E1E1E"/>
    <path d="M55.5328 77.0704C56.2344 78.9641 57.0425 81.2346 59.2028 81.8643C59.8174 82.0362 60.4661 82.046 61.0857 81.8928C61.7052 81.7395 62.2745 81.4284 62.7382 80.9898C63.154 86.2168 63.1022 86.8265 63.5863 87.5236C63.7535 87.7947 64.0172 87.9924 64.3244 88.0768C64.6315 88.1612 64.9593 88.1261 65.2416 87.9786C63.5817 89.1416 61.5879 95.7209 62.6745 98.7694C62.9983 99.0048 63.3702 99.1657 63.7635 99.2404C64.1568 99.3152 64.5618 99.3019 64.9495 99.2016C98.5794 92.0217 96.1879 92.535 96.9323 92.0126C96.6366 89.5729 95.0213 86.8747 91.3358 84.901C90.303 84.3468 92.1712 83.9054 90.4331 80.0998C90.0031 79.1057 89.5129 78.1387 88.9653 77.2042C88.0616 75.7318 89.1846 75.8683 89.5431 74.9956C89.7585 74.3406 89.7224 73.6289 89.4418 72.9991C89.1612 72.3693 88.6562 71.8665 88.0252 71.5886C89.2738 70.1917 90.6733 69.876 89.9644 66.8466C89.2628 63.8518 87.3409 61.6341 84.3388 62.7852C83.9284 61.3948 82.4924 60.6331 81.3276 59.7713C81.011 59.5356 81.0009 59.4128 81.081 59.0433C81.317 58.0457 81.1946 56.9968 80.7352 56.0804C80.1492 56.195 80.3184 56.3333 80.1592 55.5216C79.3184 55.0666 78.8024 55.5216 78.361 56.3097C76.1243 60.2946 77.9306 57.4617 77.1143 55.4379C77.0754 55.3042 77.0091 55.18 76.9194 55.0734C76.8298 54.9668 76.719 54.88 76.5939 54.8187C76.4689 54.7574 76.3324 54.7228 76.1932 54.7173C76.0541 54.7117 75.9153 54.7352 75.7857 54.7863C73.6927 55.2304 73.2277 57.3343 67.7186 61.2728C64.3725 63.6652 58.8561 65.3915 59.7015 71.1873C57.1735 70.6567 54.1396 73.3094 55.5328 77.0704Z" fill="white"/>
    <path d="M86.1232 89.8104C84.4115 90.6121 83.4943 91.857 80.7178 92.4176C78.2954 92.9072 76.753 92.2165 74.6545 92.4176C70.7861 92.7934 70.5195 96.9002 70.9144 96.7856C71.0646 96.7919 71.1874 93.3858 74.7173 93.0327C76.6429 92.8398 78.3792 93.5205 80.838 93.0209C85.2751 92.1191 86.8958 88.1424 90.0235 91.0571C90.8052 91.7851 91.1665 92.3866 91.2511 92.3311C91.4549 92.231 89.4529 88.2498 86.1232 89.8104Z" fill="#1E1E1E"/>
    <path d="M91.395 84.4605C91.951 81.6314 90.5623 78.5574 88.9125 76.2214C89.3319 75.9712 89.6731 75.6087 89.8973 75.1748C90.1216 74.741 90.2201 74.253 90.1817 73.7661C90.1432 73.2792 89.9694 72.8128 89.6799 72.4195C89.3903 72.0262 88.9965 71.7217 88.543 71.5404C92.7809 68.9924 89.1655 60.2727 84.6837 62.4304C84.1124 61.5552 83.4028 60.7785 82.5825 60.1308C81.2949 59.138 81.4978 59.7995 81.5297 58.5028C81.6152 54.9538 79.0945 53.5087 77.6276 57.0641C77.6255 56.5436 77.5669 56.0249 77.4529 55.5171C77.4039 55.2858 77.304 55.0684 77.1604 54.8807C77.0168 54.6929 76.8331 54.5396 76.6228 54.4318C76.4124 54.3241 76.1806 54.2646 75.9444 54.2578C75.7081 54.2509 75.4733 54.2969 75.257 54.3923C73.9776 54.8473 73.1731 55.9675 72.2022 56.8648C67.0916 61.5913 63.3697 63.3258 61.7372 64.6389C60.7845 65.3515 60.051 66.3172 59.62 67.4261C59.189 68.535 59.0779 69.7426 59.2993 70.9116C55.8831 70.6158 52.416 74.2558 56.4555 80.2345C58.3156 82.9445 61.0374 83.0127 62.3705 81.6723C62.5582 83.2428 62.6558 84.8227 62.6626 86.4043C62.6768 86.8947 62.8705 87.3628 63.207 87.7198C63.5435 88.0767 63.9994 88.2977 64.4881 88.3408C64.7848 88.3535 64.5654 88.1852 63.7601 89.5838C61.7026 93.0719 62.2058 96.721 62.4861 96.7009C62.8992 96.6718 62.4179 91.847 66.1479 87.9376C66.461 91.7533 70.2721 92.059 71.1793 87.0349C71.7645 88.1802 72.7748 89.0509 73.9938 89.4608C75.2129 89.8707 76.544 89.7871 77.7022 89.228C82.8828 92.13 89.5977 89.592 91.1702 85.2886C94.5727 86.6063 96.2262 90.7341 96.4537 90.674C97.0188 90.563 95.2343 85.6308 91.395 84.4605ZM87.7886 71.2355C86.8705 70.9234 87.0079 70.9989 86.9769 70.7059C88.695 69.7431 88.7805 66.2633 86.4364 66.114C85.9814 66.114 86.2353 66.3224 85.8476 65.022C85.9676 64.9248 86.109 64.8575 86.2601 64.8259C86.4113 64.7942 86.5678 64.7991 86.7167 64.84C86.9897 64.8992 87.1344 65.0011 87.1589 64.9683C87.2681 64.8682 86.4209 64.274 85.7375 64.6744C85.5549 64.0924 85.3144 63.5303 85.0195 62.9964C88.7851 61.8279 91.3904 69.137 87.7886 71.2355ZM86.9096 70.189C86.7594 69.1816 86.4446 67.5982 86.2353 66.59C88.0453 66.5772 88.0689 69.1207 86.9096 70.189ZM84.8239 64.6435C85.4436 66.1905 86.0742 69.1734 86.7349 70.8424C84.9485 70.0625 85.8904 69.3464 84.6783 68.5392C84.822 67.0213 83.7683 64.8273 83.1668 63.8845C84.5955 63.9673 84.175 63.0073 84.8239 64.6435ZM60.4468 67.8858C61.5752 64.7627 64.2806 64.8828 70.7516 59.4028C73.7783 56.8493 75.227 54.5325 76.309 55.1349C77.8915 55.8001 76.1989 63.3922 77.31 59.552C77.7313 58.0696 77.2117 58.551 78.483 56.6082C79.484 55.1012 80.7662 55.6745 80.6351 58.4764C80.5751 59.7504 80.3949 59.7413 81.0747 60.2191C82.2827 60.9668 83.3087 61.9747 84.0777 63.1693C83.6373 63.2584 83.1893 63.3044 82.74 63.3067C80.2902 60.5012 77.7195 63.2512 75.4272 64.1493C71.992 65.5244 68.4648 65.7482 67.158 67.5354C65.0775 69.1036 62.755 70.3217 60.2821 71.1418C60.0394 70.0617 60.0964 68.9359 60.4468 67.8858ZM60.5678 75.0748C60.9873 76.266 61.3814 77.4726 61.7117 78.6893C61.5078 78.8493 61.2679 78.9571 61.0129 79.0032C60.7579 79.0494 60.4954 79.0325 60.2484 78.9541C58.706 78.46 58.5321 75.4779 60.5678 75.0748ZM62.2195 80.8779C61.8097 81.3411 61.2495 81.6448 60.6378 81.7355C60.026 81.8263 59.4018 81.6982 58.8752 81.3738C57.5748 80.6731 56.6976 79.0424 55.9769 77.3234C54.4981 73.7043 56.9424 71.4312 59.4285 71.5758C60.2257 75.0712 60.9455 73.9992 59.0272 74.2067C56.8787 74.4114 57.0616 76.6354 57.3064 76.5344C57.4283 76.5444 56.8241 74.335 60.0409 74.6353C60.1174 74.6425 60.1574 74.7008 60.0946 74.689C58.0972 75.1039 57.9652 78.7749 60.0946 79.4373C60.3872 79.5259 60.6959 79.5479 60.9981 79.5016C61.3003 79.4553 61.5883 79.3419 61.8409 79.1698C62.0059 79.7289 62.1323 80.2987 62.2195 80.8751V80.8779ZM60.3876 71.5959C61.6699 71.2651 62.9133 70.7987 64.0968 70.2045C67.4592 68.5037 66.5538 67.7475 66.4337 69.8587C66.3581 71.8161 66.6357 74.3177 67.9215 75.8046C66.5871 77.6234 64.9568 79.2051 63.0985 80.4838C62.2823 76.4844 60.879 73.5615 60.3876 71.5922V71.5959ZM77.1526 87.9158C70.4895 82.8835 75.3153 76.0667 75.0359 75.8974C74.2271 76.9492 73.6484 78.1594 73.3375 79.4493C73.0266 80.7392 72.9905 82.0801 73.2314 83.3849C73.7349 85.5368 75.0177 87.4259 76.8322 88.6875C76.2375 88.8457 75.6168 88.8815 75.0078 88.7927C74.3987 88.7038 73.8141 88.4922 73.2893 88.1706C72.7646 87.8491 72.3106 87.4242 71.9549 86.922C71.5993 86.4197 71.3493 85.8504 71.2203 85.2486C70.9828 83.9983 70.8872 85.8592 70.5287 86.9721C70.2448 87.8203 69.5513 89.4874 68.7223 89.8159C67.8323 90.1699 67.2099 89.1197 67.0725 88.1506C66.6175 85.2286 67.0234 87.0586 67.5539 84.2904C67.6758 83.5869 67.6367 83.1884 67.5785 83.1829C67.5202 83.1774 67.4265 83.5533 67.2035 84.2012C66.9582 85.0334 66.5615 85.8133 66.0333 86.5017V86.5226C64.873 88.0887 63.6418 87.7702 63.5026 86.2896C63.5665 84.5073 63.4604 82.7229 63.1859 80.9607C65.2616 79.8202 67.0098 78.1657 68.2628 76.1559C68.8444 76.7082 69.5925 77.0522 70.3904 77.1341C71.6789 77.216 72.3469 76.3151 73.2032 75.5416C73.4825 75.2823 73.7828 75.0402 74.0486 74.7517C74.1151 74.9809 74.2331 75.1918 74.3937 75.3683C74.5543 75.5448 74.7531 75.6822 74.9749 75.77C76.5465 76.3315 77.9616 75.2495 78.6914 75.0803C79.8043 74.8236 80.414 75.9748 80.5378 75.8729C80.428 75.4575 80.1709 75.0961 79.8145 74.8562C79.4581 74.6163 79.0265 74.5142 78.6004 74.5688C77.7887 74.6671 76.3691 75.5507 75.278 75.0612C75.0412 74.9052 74.8717 74.666 74.8027 74.3911C74.7338 74.1161 74.7706 73.8252 74.9058 73.576C75.3908 72.2429 77.4811 71.3784 78.7651 70.634C80.3676 69.7049 81.9355 68.9259 83.4307 69.0369C84.1696 69.0433 84.6273 69.3955 84.7047 69.9633C84.8921 71.3511 83.4962 71.9844 82.9147 72.5177C82.7433 72.6527 82.6063 72.8264 82.5148 73.0245C82.4234 73.2227 82.3801 73.4396 82.3885 73.6577C82.3969 73.8757 82.4568 74.0886 82.5633 74.2791C82.6698 74.4696 82.8198 74.6322 83.0011 74.7536C83.083 74.7163 82.8191 74.3677 82.7554 73.7653C82.659 72.5778 85.1742 72.5941 85.4563 70.381C86.3427 72.0108 90.1228 71.928 89.2465 74.5006C88.584 76.4398 77.3428 80.128 76.188 84.7527C76.0551 85.2823 76.006 85.2531 76.3454 84.7936C78.0671 82.464 76.4965 84.2003 80.0573 86.0776C84.994 88.6702 90.4695 84.9028 87.3182 79.6303C87.6025 79.4022 87.8244 79.1058 87.963 78.7688C88.1016 78.4317 88.1524 78.065 88.1108 77.7029C88.0862 76.6282 87.8596 76.9121 88.24 76.6791C95.5946 87.5163 83.7482 92.2938 77.1526 87.9158ZM86.7494 84.4396C85.3762 86.1986 82.9274 86.3397 80.8599 85.5134C82.0101 83.6816 85.9514 83.1793 86.7494 84.4396ZM80.9409 80.7596C82.0957 80.0316 83.0576 79.5029 84.2551 78.8704C84.8011 79.6566 84.105 80.9516 83.3051 81.2746C82.9022 81.4178 82.4673 81.4455 82.0495 81.3544C81.6317 81.2634 81.2477 81.0574 80.9409 80.7596ZM84.7966 78.5847C85.7421 78.0869 86.6875 77.5909 87.6176 77.0504C87.8951 79.6612 85.9504 80.1553 84.7966 78.5847ZM78.1436 83.6461C77.9952 83.4887 77.8596 83.3321 77.7377 83.1783C78.5462 82.4139 79.4263 81.7289 80.3658 81.1327C80.5662 81.4525 80.6578 81.8286 80.6268 82.2048C80.5959 82.581 80.444 82.9371 80.194 83.2199C79.944 83.5027 79.6092 83.697 79.2396 83.7738C78.8701 83.8506 78.4856 83.8058 78.1436 83.6461Z" fill="url(#paint3_linear_2979_359)"/>
    <path d="M27.4537 85.3487C29.7177 85.5188 39.655 79.2338 40.3746 77.0805C43.687 67.1678 34.9508 48.5639 23.5444 52.0181C20.4473 53.187 17.6717 55.0738 15.4454 57.5236C12.9256 60.5366 12.8974 62.9763 13.3933 66.0412C14.1098 70.5851 15.7718 74.9281 18.2718 78.7894C19.8962 81.008 23.9757 85.0912 27.4537 85.3487Z" fill="url(#paint4_angular_2979_359)"/>
    <path fill-rule="evenodd" clip-rule="evenodd" d="M27.0512 63.5589L31.043 66.0004L29.6025 66.3719L31.0401 70.4931L29.5996 70.8646L27.0512 63.5589ZM35.0158 69.4678L31.024 67.0262L32.4645 66.6547L31.0269 62.5336L32.4673 62.1621L35.0158 69.4678Z" fill="#1E1E1E"/>
    <path d="M23.6701 69.41C17.6322 55.3742 28.6141 48.0196 35.5228 61.3857C35.9423 62.0789 36.2494 62.8341 36.4328 63.6233C36.3655 63.6534 36.0078 62.8726 35.207 61.5622C29.6042 52.3885 23.468 54.0365 22.912 60.4311C22.3578 66.7847 27.9225 78.9113 34.1469 77.9376C36.4474 77.5736 37.3546 75.2723 37.7141 72.9872C38.5695 67.5591 36.3545 64.4332 36.7185 64.2922C37.1293 64.9887 37.4596 65.7297 37.7032 66.5008C41.8682 79.501 30.3294 84.891 23.6701 69.41Z" fill="#1E1E1E"/>
    <path d="M41.628 69.4956C40.2266 58.9951 32.801 48.4746 23.0813 51.3738C19.5796 52.4203 14.0168 56.3297 12.8957 59.8095C9.6861 69.2508 21.6635 91.0535 32.6008 84.8409C37.7514 81.9953 43.0622 80.6358 41.628 69.4956ZM20.5997 54.0738C22.7901 52.8471 19.2429 54.2167 19.0527 60.6258C18.7015 60.8214 19.4377 60.3528 13.7201 64.2139C13.5591 60.6695 14.3899 57.6555 20.5997 54.0738ZM13.8321 65.5534C15.8095 63.3531 16.361 62.9144 19.0518 61.9134C19.1096 63.9351 19.4121 65.9423 19.9527 67.8912C19.2347 68.3399 18.2538 69.1316 17.4411 69.7185C17.3501 69.7185 15.2872 71.0944 15.1962 71.1572C14.5338 69.346 14.0763 67.4664 13.8321 65.5534ZM19.313 78.9741C17.8085 76.908 16.5685 74.6616 15.622 72.2874C17.3893 70.2463 17.7378 69.9214 20.2876 69.0114C20.987 71.2132 22.0038 73.3012 23.3061 75.2094C21.5916 77.448 22.0503 77.6073 19.3084 78.9741H19.313ZM20.001 79.8359C20.961 78.9586 21.6863 78.0987 21.7782 78.0987C22.5135 77.4753 23.5145 76.7537 24.0532 76.2177C25.3711 77.9272 27.0193 79.3541 28.8998 80.4137C27.139 82.7797 27.0962 82.706 24.5637 83.6406C22.824 82.6585 21.2766 81.3695 19.9964 79.8359H20.001ZM31.9611 83.6897C31.0461 84.2337 30.0195 84.5629 28.9588 84.6524C27.8981 84.742 26.8309 84.5895 25.8377 84.2066C26.3518 83.8099 26.9233 83.3221 27.4174 82.9326C30.3477 80.8742 30.0837 81.0799 29.8808 80.9024C35.3208 83.3421 37.8269 80.1098 31.9565 83.6897H31.9611ZM31.0811 80.4811C20.2703 76.5308 16.4447 57.0431 23.408 52.8526C39.9309 47.9923 47.7878 87.1996 31.0766 80.4811H31.0811Z" fill="#1E1E1E"/>
    <path d="M149.405 111.281C154.254 106.425 156.255 102.371 152.922 96.882C150.932 93.606 149.162 90.0288 145.733 88.3208C140.916 85.9229 135.105 83.5278 130.287 86.6973C128.096 88.1378 120.86 96.1249 123.798 101.828C125.584 105.297 127.402 108.481 130.236 111.162C133.996 114.716 138.881 116.792 143.977 116.167C147.833 115.688 148.067 112.62 149.405 111.281Z" fill="url(#paint5_angular_2979_359)"/>
    <path fill-rule="evenodd" clip-rule="evenodd" d="M135.787 96.2688L140.973 96.8036L139.704 97.8696L143.13 101.321L141.861 102.387L135.787 96.2688ZM146.633 98.3786L141.447 97.8438L142.716 96.7778L139.29 93.3268L140.559 92.2608L146.633 98.3786Z" fill="#1E1E1E"/>
    <path d="M155.064 100.779C152.365 87.6019 134.225 77.8412 125.607 90.2054C119.194 99.3199 123.001 104.219 130.612 112.123C132.185 113.612 134.031 114.783 136.049 115.57C138.773 116.642 141.691 117.135 144.616 117.016C147.477 116.693 148.529 114.488 151.502 110.373C153.972 106.925 155.894 104.846 155.064 100.779ZM152.488 97.9686C154.512 102.389 153.927 104.339 151.965 107.196C144.799 116.213 130.37 104.028 127.879 96.1686C123.865 83.2066 144.977 81.5067 152.483 97.9686H152.488ZM127.056 90.5976C126.364 92.9576 126.539 95.4875 127.551 97.7292C126.215 100.782 126.59 100.264 124.457 102.422C122.592 98.2352 124.287 94.244 127.051 90.5967L127.056 90.5976ZM125.036 103.58C125.408 102.986 126.353 101.157 126.616 100.893C127.078 100.288 127.697 99.5966 128.157 99.0069C129.022 100.594 130.074 102.071 131.292 103.407C130.109 105.191 131.14 104.76 128.107 107.963C126.949 106.6 125.92 105.133 125.034 103.579L125.036 103.58ZM128.871 108.863C129.019 108.601 129.998 106.652 130.217 106.433C130.781 105.668 131.664 104.861 132.143 104.315C133.605 105.8 135.214 107.135 136.943 108.298C135.951 110.993 135.971 110.953 133.723 113.093C131.915 111.916 130.28 110.492 128.867 108.862L128.871 108.863ZM134.765 113.672C135.51 112.549 136.148 111.215 136.24 111.215C136.758 110.468 137.469 109.594 137.917 108.924C139.556 110.021 141.398 110.779 143.335 111.153C142.274 113.623 142.619 113.099 140.713 115.498C138.642 115.219 136.631 114.602 134.761 113.671L134.765 113.672ZM148.481 112.125C146.082 115.5 145.767 115.965 141.866 115.63C143.128 112.602 143.059 113.493 144.605 111.298C149.818 111.583 151.606 107.696 148.476 112.121L148.481 112.125Z" fill="#1E1E1E"/>
    <path d="M135.135 103.537C128.091 97.5072 127.811 89.5229 132.578 88.0823C138.962 85.6818 145.773 91.9225 145.602 92.1155C145.431 92.3084 138.88 86.3943 132.849 88.804C127.788 90.3146 129.782 100.698 140.902 106.441C147.892 110.051 155.462 105.141 147.705 94.5552C146.76 93.2666 146.099 92.6578 146.15 92.6023C146.443 92.2383 153.56 99.7913 151.113 105.226C150.408 106.478 149.305 107.459 147.979 108.011C143.301 109.655 139 106.847 135.135 103.537Z" fill="#1E1E1E"/>
    <path d="M38.2255 134.332C37.9443 131.771 37.1026 119.408 37.9707 117.497C38.8006 115.669 45.1033 111.775 47.694 107.112C48.918 104.91 49.9563 100.985 53.0558 100.077C56.3682 99.107 58.9808 101.988 60.9937 104.536C62.4406 106.093 63.3359 108.082 63.5417 110.197C64.6883 117.15 64.661 119.884 59.696 129.653C68.3765 134.557 72.1767 144.017 71.7008 144.395C71.6098 144.468 71.4705 144.272 71.5852 144.254C72.2674 145.363 72.763 146.577 73.0521 147.847C73.4562 149.628 72.5425 150.184 70.6806 150.036C66.8514 149.731 56.5429 148.912 52.9857 147.567C49.1291 146.113 38.675 138.411 38.2255 134.332Z" fill="white"/>
    <path d="M60.7752 129.364C67.5711 118.005 65.9859 103.496 57.2599 100.086C55.6641 99.3894 53.8869 99.2226 52.1894 99.6102C47.8487 100.805 49.3047 105.275 43.3423 110.959C41.4577 112.752 39.8106 113.531 38.6003 115.164C38.3364 115.51 38.594 115.45 38.037 114.319C37.3239 112.884 36.1868 111.705 34.7801 110.939C33.0129 109.961 30.7425 109.799 30.7079 110.152C30.6487 110.477 34.8429 111.288 36.4582 115.049C37.1262 116.893 37.4333 118.848 37.3627 120.808C37.6448 135.972 38.3119 134.974 38.8569 118.401C39.4029 115.172 41.8217 114.736 44.508 112.213C51.7398 105.612 49.1663 99.4546 56.1024 101.622C65.2105 105.301 64.6709 118.887 59.4075 128.022C58.8788 125.679 57.0324 124.193 56.8112 124.453C56.5919 124.682 57.5939 125.792 58.6131 128.227C57.7941 127.847 53.6008 126.196 53.4315 126.715C53.1585 127.479 65.1559 131.223 70.5795 142.653C71.8626 144.982 72.9829 148.96 73.3387 148.895C74.0685 148.785 72.7999 136.38 60.7752 129.364Z" fill="#1E1E1E"/>
    <path d="M134.737 141.771C131.387 144.529 118.208 138.532 115.824 126.66C98.1637 125.441 92.3333 109.042 100.482 104.975C103.155 103.641 106.047 104.561 108.796 105.106C116.296 106.593 119.449 105.457 123.442 107.454C125.374 108.808 126.318 111.154 127.864 112.938C129.255 114.341 130.773 115.611 132.4 116.732C135.884 119.494 142.741 132.077 134.603 141.928C134.458 141.526 134.579 142.169 134.737 141.771Z" fill="white"/>
    <path d="M128.836 112.749C124.993 108.35 124.888 105.439 117.715 105.036C114.562 105.019 111.419 104.692 108.33 104.058C104.963 103.371 101.204 102.663 98.3411 105.142C92.3014 110.428 98.2846 126.448 115.238 127.132C116.13 131.04 118.102 134.619 120.93 137.46C125.79 142.364 132.074 142.92 132.161 142.374C132.308 141.598 120.612 139.486 117.289 127.662C119.584 129.344 122.573 128.785 122.458 128.39C122.4 128.009 120.638 128.352 117.897 127.103C120.381 126.95 121.81 126.522 121.786 126.338C121.731 125.846 116.177 126.492 110.411 124.708C98.1263 120.952 95.8513 109.804 99.5686 106.546C101.802 104.589 105.257 105.324 107.959 105.884C116.575 107.71 120.545 105.745 123.826 109.132C125.077 110.406 125.743 111.637 127.894 113.666C130.498 116.096 132.497 117.057 132.62 116.866C132.783 116.632 131.085 115.301 128.836 112.749Z" fill="#1E1E1E"/>
    <path d="M85.3065 16.5388C86.6218 16.8565 87.8673 17.4183 89.0153 18.1346C94.5622 21.596 95.5447 24.7515 94.0831 32.2047C93.3983 35.5283 91.9099 38.6337 89.7481 41.2496C87.5863 43.8654 84.8168 45.912 81.6816 47.2106C80.6673 47.6849 79.5675 47.9491 78.4484 47.9874C77.3293 48.0258 76.2141 47.8373 75.1697 47.4335C64.3115 44.1084 62.9866 38.5747 66.3745 28.7376C68.8716 21.4967 76.3818 16.2615 80.262 15.9293C81.9638 15.9352 83.6568 16.1403 85.3065 16.5388Z" fill="url(#paint6_angular_2979_359)"/>
    <path fill-rule="evenodd" clip-rule="evenodd" d="M76.3914 25.436L77.1214 30.058L75.9045 29.2023L73.6996 32.9692L72.4827 32.1135L76.3914 25.436ZM77.0582 35.3307L76.3283 30.7087L77.5452 31.5643L79.7501 27.7975L80.967 28.6532L77.0582 35.3307Z" fill="#1E1E1E"/>
    <path d="M95.4681 25.1449C93.5225 18.5256 83.3996 10.2846 73.0229 18.531C65.975 24.2413 60.1673 38.3353 67.067 44.0283C69.5958 46.0612 75.5527 48.9132 78.2763 48.8877C88.1389 48.8358 97.3754 33.5369 95.4681 25.1449ZM94.1349 26.8639C92.8127 26.1486 92.1538 25.8884 92.061 25.7955C91.161 25.2659 90.059 24.5407 89.2901 24.1803C89.3559 22.9917 89.1802 21.8022 88.7736 20.6834C88.3669 19.5647 87.7378 18.5399 86.9241 17.6711C90.2774 19.3282 94.185 23.1939 94.1349 26.8639ZM66.703 41.7915C63.9347 37.3908 65.4617 31.1755 67.7385 26.7583C71.9546 18.5783 80.5195 14.254 85.3479 17.3708C95.1459 23.5879 78.5457 54.8873 66.703 41.7915ZM72.5151 45.6354C74.7214 45.7738 76.9121 45.1846 78.7514 43.9582C79.975 44.7816 81.2423 45.538 82.5479 46.2241C78.6895 48.1233 76.44 47.4563 72.5169 45.6354H72.5151ZM83.7855 45.5444C81.6652 45.1676 81.0964 45.0357 79.7241 43.253C81.165 42.0676 82.4523 40.7069 83.5562 39.2026C85.903 40.4056 84.7865 39.2071 88.0679 41.8525C86.8344 43.2899 85.3913 44.5332 83.7873 45.5407L83.7855 45.5444ZM88.816 40.9498C84.8957 39.2071 87.2289 40.3983 84.266 38.2079C85.5457 36.3417 86.6237 34.3449 87.4819 32.2511C91.0364 33.9537 89.3246 32.8562 92.2476 35.1858C91.3512 37.2441 90.1982 39.1808 88.816 40.9498ZM92.6889 34.1248C88.8669 32.4076 90.1628 32.7243 87.9269 31.1127C88.6141 29.2708 89.055 27.3462 89.2382 25.3888C91.7534 26.0121 92.2021 26.3425 94.1031 28.1907C93.9203 30.2267 93.4434 32.2256 92.6871 34.1248H92.6889Z" fill="#1E1E1E"/>
    <path d="M83.386 34.2849C78.078 43.4887 70.9017 43.6434 68.4693 40.3128C65.0577 35.6472 69.8343 26.4062 70.2247 26.63C70.3157 26.6828 65.8367 35.5398 69.0817 39.845C70.6005 41.8598 74.62 42.4422 78.6749 38.7603C85.0568 32.97 88.634 20.4893 81.172 19.3C77.9551 18.7867 75.772 20.3801 73.7637 22.3203C72.5056 23.6309 71.3461 25.0328 70.2948 26.5144C71.0178 24.808 72.069 23.2602 73.3888 21.959C81.2939 13.658 91.2329 20.6777 83.386 34.2849Z" fill="#1E1E1E"/>
    <defs>
        <radialGradient id="paint0_angular_2979_359" cx="0" cy="0" r="1" gradientUnits="userSpaceOnUse" gradientTransform="translate(74.7128 91.3847) rotate(90) scale(53.4759 45.8229)">
            <stop offset="0.0729167" stop-color="#FBFBFD"/>
            <stop offset="0.244792" stop-color="#C8D4DA"/>
            <stop offset="0.434957" stop-color="white"/>
            <stop offset="0.532623" stop-color="#AEC0CE"/>
            <stop offset="0.658692" stop-color="#E3E9EE"/>
            <stop offset="0.708863" stop-color="#FAFBFC"/>
            <stop offset="0.861413" stop-color="#D6DFE6"/>
            <stop offset="0.921875" stop-color="#B8C9D3"/>
        </radialGradient>
        <radialGradient id="paint1_angular_2979_359" cx="0" cy="0" r="1" gradientUnits="userSpaceOnUse" gradientTransform="translate(73.8148 77.2987) rotate(90) scale(22.3228 23.6361)">
            <stop offset="0.362857" stop-color="#D6DFE6"/>
            <stop offset="0.370506" stop-color="#FAFBFC"/>
            <stop offset="0.865074" stop-color="#D7E0E7"/>
            <stop offset="0.871776" stop-color="#F7F8F9"/>
        </radialGradient>
        <radialGradient id="paint2_angular_2979_359" cx="0" cy="0" r="1" gradientUnits="userSpaceOnUse" gradientTransform="translate(85.2567 110.1) rotate(90) scale(12.1547 19.8888)">
            <stop offset="0.362857" stop-color="#D6DFE6"/>
            <stop offset="0.370506" stop-color="#FAFBFC"/>
            <stop offset="0.865074" stop-color="#D7E0E7"/>
            <stop offset="0.871776" stop-color="#F7F8F9"/>
        </radialGradient>
        <linearGradient id="paint3_linear_2979_359" x1="75.5961" y1="54.2571" x2="75.5961" y2="96.701" gradientUnits="userSpaceOnUse">
            <stop stop-color="#1E1E1E"/>
            <stop offset="1" stop-color="#545454"/>
        </linearGradient>
        <radialGradient id="paint4_angular_2979_359" cx="0" cy="0" r="1" gradientUnits="userSpaceOnUse" gradientTransform="translate(26.6937 68.48) rotate(90) scale(16.8837 13.5521)">
            <stop offset="0.362857" stop-color="#D6DFE6"/>
            <stop offset="0.370506" stop-color="#FAFBFC"/>
            <stop offset="0.865074" stop-color="#D7E0E7"/>
            <stop offset="0.871776" stop-color="#F7F8F9"/>
        </radialGradient>
        <radialGradient id="paint5_angular_2979_359" cx="0" cy="0" r="1" gradientUnits="userSpaceOnUse" gradientTransform="translate(138.366 100.726) rotate(90) scale(15.5509 15.2597)">
            <stop offset="0.362857" stop-color="#D6DFE6"/>
            <stop offset="0.370506" stop-color="#FAFBFC"/>
            <stop offset="0.865074" stop-color="#D7E0E7"/>
            <stop offset="0.871776" stop-color="#F7F8F9"/>
        </radialGradient>
        <radialGradient id="paint6_angular_2979_359" cx="0" cy="0" r="1" gradientUnits="userSpaceOnUse" gradientTransform="translate(79.259 31.9608) rotate(90) scale(16.0315 14.5329)">
            <stop offset="0.362857" stop-color="#D6DFE6"/>
            <stop offset="0.370506" stop-color="#FAFBFC"/>
            <stop offset="0.865074" stop-color="#D7E0E7"/>
            <stop offset="0.871776" stop-color="#F7F8F9"/>
        </radialGradient>
    </defs>
</svg>
