<svg width="182" height="182" viewBox="0 0 182 182" fill="none" xmlns="http://www.w3.org/2000/svg">
    <path d="M158.878 128.583C159.724 131.19 162.063 140.56 161.798 145.344C161.616 148.738 160.328 149.797 160.378 150.312C160.429 150.827 162.078 152.223 162.967 153.116C167.008 157.186 167.361 162.121 165.268 165.31C162.993 168.768 155.904 171.731 151.646 172.4C147.584 173.037 135.069 176.611 130.111 169.422C129.126 167.993 129.545 166.274 130.143 161.251C130.312 159.824 129.991 159.533 129.068 159.085C121.028 155.184 122.226 148.767 120.946 143.897C119.883 139.849 119.901 139.811 119.672 139.475C117.799 136.758 105.931 131.484 106.497 125.997C106.8 123.085 108.67 121.796 108.791 121.393C108.904 121.008 101.784 112.839 113.621 110.976C113.035 108.033 109.291 105.391 116.502 101.131C118.747 99.8049 121.962 100.279 124.565 100.465C128.333 100.738 131.936 102.051 135.485 103.356C139.376 104.788 140.832 105.41 146.204 109.604C151.97 114.114 156.5 121.265 158.878 128.583Z" fill="white"/>
    <path d="M161.149 150.097C166.913 139.256 158.298 117.026 145.576 107.469C138.449 102.153 121.047 96.2996 114.09 101.183C112.872 101.951 111.94 103.099 111.438 104.449C110.936 105.8 110.891 107.277 111.31 108.656C112.07 110.897 112.75 110.051 110.873 110.54C105.712 111.88 103.695 117.313 107.652 121.236C104.999 123.086 105.237 126.864 106.686 129.741C109.205 134.837 118.926 138.7 119.319 141.04C120.488 148.695 121.369 156.917 129.439 160.193C128.631 165.137 127.757 169.527 131.873 172.179C137.529 175.904 145.881 175.177 152.501 173.318C168.293 168.959 173.199 160.711 161.149 150.097ZM151.901 171.165C145.942 172.841 138.058 173.733 132.916 170.513C129.896 168.693 130.351 165.298 130.85 160.685C133.618 161.48 137.616 161.578 137.616 161.16C137.621 160.866 134.691 160.773 131.473 159.562C123.192 156.519 122.646 148.967 121.483 140.69C120.841 136.678 111.104 133.577 108.615 128.775C107.47 126.551 107.068 123.76 109.316 122.514C110.788 123.319 112.389 123.863 114.048 124.123L114.379 122.723C111.53 121.892 108.715 120.726 107.82 117.88C107.006 115.466 108.997 113.294 111.43 112.693C116.754 111.361 127.874 116.424 134.175 118.585C133.606 119.694 133.138 120.851 132.777 122.043L134.612 122.6C136.614 115.972 140.42 112.652 139.968 112.173C139.677 111.85 136.949 113.902 134.888 117.308C130.258 115.235 125.708 113.016 120.762 111.552C118.589 110.929 111.347 110.484 113.528 105.251C116.38 98.3771 131.596 102.711 138.308 105.763C155.649 113.746 164.224 138.705 159.747 148.772C157.29 154.338 149.759 158.34 143.889 160.014C141.145 160.786 139.543 160.924 139.558 161.106C139.576 162.107 154.496 160.003 160.367 151.394C170.546 161.573 165.847 167.137 151.901 171.165Z" fill="#1E1E1E"/>
    <path d="M42.6081 37.0959C42.1331 32.5068 44.2697 27.5728 48.281 25.2978C53.6054 22.2748 62.8838 23.4832 91.0692 19.6913C102.027 18.2171 106.158 16.9431 111.349 16.6382C117.426 16.2815 118.77 18.1006 120.874 19.4428C123.731 21.2628 124.925 26.1959 125.412 29.5511L136.438 133.461C136.827 137.127 136.605 141.031 134.357 143.952C133.807 144.667 133.201 145.278 132.564 145.627C130.16 146.946 69.0931 154.45 66.6852 154.745C66.6085 154.755 66.5767 154.759 66.4998 154.767C65.486 154.872 57.901 155.442 55.9305 149.232C54.368 144.3 54.8048 156 42.6081 37.0959Z" fill="url(#paint0_angular_2979_252)"/>
    <path d="M56.8576 42.3739C55.6746 38.3599 57.5164 34.5806 60.6687 33.3303C63.4651 32.2219 67.4172 31.9535 109.313 27.0431C109.313 27.0431 114.918 26.2168 116.314 29.1761C118.407 33.6142 117.763 31.6331 128.704 131.813C129.077 135.227 127.367 138.631 123.739 139.434C123.547 139.477 125.591 139.222 73.9756 145.45C73.9756 145.45 70.21 145.44 69.1071 143.175C66.9204 138.684 68.6985 150.095 56.8576 42.3739Z" fill="white"/>
    <path d="M137.774 135.272L125.853 26.4016C125.14 19.8978 119.648 15.1176 113.499 15.8556L51.627 23.3012C45.5427 24.0292 41.1757 29.9442 41.89 36.4853L53.811 145.356C54.4671 151.351 59.2246 155.977 64.913 155.977C65.8312 155.977 61.8135 156.432 128.035 148.456C134.121 147.724 138.489 141.809 137.774 135.272ZM54.5345 24.8828C117.617 17.2898 113.951 17.6938 114.746 17.6938C119.518 17.6938 123.406 21.6441 123.949 26.6063L135.67 133.668C135.119 138.436 131.631 142.352 127.036 142.905L70.4849 149.711C64.9694 150.373 60.1555 146.006 59.5258 140.247L48.1299 36.1568C47.8228 33.8364 48.2823 31.4792 49.4384 29.444C50.5946 27.4088 52.3841 25.8072 54.5345 24.8828ZM127.809 146.55L65.9358 153.999C60.8053 154.616 56.3062 150.541 55.7156 145.148L43.7965 36.2769C43.2177 30.9862 46.5437 26.1877 51.2921 25.2923C49.6875 26.6057 48.4401 28.3026 47.6653 30.226C46.8905 32.1494 46.6134 34.2371 46.8595 36.296L58.2554 140.391C58.9634 146.857 64.4198 151.733 70.6369 150.983L127.189 144.177C129.085 143.92 130.883 143.177 132.408 142.021C133.933 140.866 135.134 139.336 135.895 137.58C135.51 142.191 132.201 146.024 127.809 146.553V146.55Z" fill="#1E1E1E"/>
    <path d="M121.225 57.8166C118.279 30.9606 118.495 32.5104 118.177 31.4138C117.807 29.9947 117.003 28.7266 115.877 27.7864C114.752 26.8463 113.36 26.281 111.898 26.1695C111.068 26.1495 114.517 25.9156 61.8672 32.1254C58.2381 32.554 55.4508 36.3406 56.0314 40.7604C56.0314 40.7604 66.5874 136.839 66.904 139.478C67.0573 140.888 67.6059 142.226 68.4866 143.338C69.3673 144.45 70.5442 145.29 71.8817 145.762C73.1794 146.085 74.5347 146.1 75.8393 145.806C75.9303 145.796 123.432 139.716 123.401 139.486C123.369 139.223 75.2624 144.801 73.8901 144.855C70.8452 144.972 68.4456 142.255 68.1134 139.317C67.814 136.682 57.299 40.6212 57.299 40.6212C56.8003 36.7819 59.1554 33.7334 62.0173 33.394C115.095 27.1086 112.048 26.9494 114.081 28.0814C114.949 28.5949 115.684 29.3054 116.227 30.1553C116.77 31.0053 117.105 31.971 117.206 32.9745C117.234 33.1856 116.86 29.3763 128.408 131.948C128.601 133.315 128.378 134.708 127.768 135.947C127.159 137.185 126.191 138.212 124.99 138.893C124.042 139.362 122.672 139.599 123.842 139.473C124.894 139.276 125.877 138.807 126.691 138.112C127.506 137.417 128.123 136.52 128.483 135.511C129.327 133.435 130.022 138.018 121.225 57.8166Z" fill="#1E1E1E"/>
    <path d="M112.91 38.1852C112.34 36.1729 110.999 34.4665 109.179 33.4359C106.959 32.2684 108.566 32.3976 69.3045 37.2706C66.4881 37.621 64.4515 40.1326 63.8773 42.9563C63.6238 44.2691 63.605 45.6164 63.8218 46.9357C71.1418 113.738 70.6559 109.744 71.1164 111.171C72.3676 115.044 75.3833 116.764 77.8449 116.506C85.1176 115.744 112.621 111.877 113.419 111.738C121.171 110.392 90.2837 114.143 77.7466 115.332C75.7865 115.514 73.3368 114.088 72.2957 110.8C71.898 109.545 72.4923 114.107 65.0903 46.7956C64.892 45.6116 64.9037 44.4019 65.1249 43.222C65.5799 40.9698 67.1633 38.8304 69.4565 38.5392C108.386 33.6051 106.35 34.021 107.01 34.0911C108.83 34.2849 110.788 35.7455 111.69 38.5692C112.06 39.7285 111.486 35.7354 119.3 103.543C119.709 107.092 117.99 110.025 115.77 111.032C115.07 111.349 114.112 111.536 114.947 111.467C117.394 111.406 120.412 108.065 120.012 103.477C119.838 101.477 113.621 40.4083 112.91 38.1852Z" fill="#1E1E1E"/>
    <path d="M74.1096 130.706C74.1096 119.53 76.3764 123.565 113.729 118.273C114.728 118.039 115.771 118.079 116.749 118.388C123.855 121.397 123.574 133.409 116.919 135.305C115.121 135.817 120.095 134.793 80.1975 139.946C80.1975 139.946 76.2035 140.921 75.2671 137.927C74.5005 135.596 74.1097 133.159 74.1096 130.706Z" fill="url(#paint1_angular_2979_252)"/>
    <path d="M75.3081 123.626C73.9533 125.182 73.2492 127.199 73.3416 129.26C73.1805 143.939 78.7533 140.551 86.2745 139.634C113.119 136.358 116.054 135.694 116.031 135.502C115.994 135.185 100.069 136.63 86.1216 138.365C81.4697 138.944 77.6886 140.472 76.0889 138.041C74.4891 135.611 74.4254 129.487 74.7821 127.521C74.92 126.392 75.4252 125.339 76.2198 124.526C77.0145 123.712 78.0547 123.182 79.1801 123.017L114.909 118.831C121.443 118.649 124.174 131.254 118.172 134.619C116.947 135.306 115.01 135.649 116.658 135.529C125.604 134.861 123.896 116.608 114.095 117.627C75.8796 121.592 77.3356 121.529 75.3081 123.626Z" fill="#1E1E1E"/>
    <path d="M66.895 171.584C68.078 172.295 69.1764 175.375 73.1158 176.687C76.491 177.812 79.0126 176.695 81.1847 174.632C85.073 170.924 87.828 166.187 89.129 160.974C90.211 156.599 93.6272 151.135 88.7714 145.959C85.6865 142.672 81.9464 143.239 78.756 142.675C75.0714 142.024 78.5976 140.346 71.5114 134.973C68.4116 132.655 65.1971 130.495 61.88 128.501C59.696 126.681 59.1409 127.021 52.8464 122.145C43.6482 115.018 41.2803 112.075 36.0169 113.363C34.4007 113.759 33.2286 114.294 32.75 117.04C32.2577 119.922 32.7657 122.885 34.1896 125.438C32.4106 124.582 31.0137 123.016 29.1573 122.344C26.1152 121.252 22.4388 123.135 21.2567 126.145C20.7294 127.679 20.6924 129.339 21.1509 130.896C21.6094 132.452 22.5407 133.827 23.8156 134.83C16.1616 131.943 13.4544 137.725 16.218 142.989C18.969 148.229 25.3353 151.033 32.1194 154.734C30.9036 156.425 28.5922 157.049 27.3619 158.73C26.4055 160.038 25.3417 164.042 26.0142 166.122C27.0152 169.202 30.7935 170.664 33.7592 170.654C35.8849 170.647 37.9816 170.167 40.1037 170.032C46.9214 169.601 53.5016 172.731 60.3812 172.586C66.0014 172.471 65.4872 170.738 66.895 171.584Z" fill="white"/>
    <path d="M91.9336 150.749C90.9153 141.339 80.3993 142.325 77.47 141.831C74.6135 133.406 68.2499 131.705 55.2232 122.543C48.755 117.936 44.7537 113.149 39.9434 112.085C34.3178 110.802 29.9271 115.019 32.2357 121.988C32.6398 123.139 32.7062 122.307 30.0517 121.411C23.6299 119.292 17.4846 125.983 20.3857 131.876C20.9199 132.968 21.1629 133.041 21.0336 133.021C14.0266 132.089 10.0872 142.148 21.0091 149.597C33.3914 157.669 31.5714 152.364 27.4182 157.261C22.264 163.148 25.0231 170.754 32.1202 171.624C34.046 171.781 35.9835 171.717 37.895 171.436C47.3499 169.872 57.1142 176.474 66.5345 172.164C78.7686 190.554 93.3377 163.372 91.9336 150.749ZM21.6934 128.791C21.7336 127.93 21.9694 127.089 22.383 126.332C22.7966 125.575 23.377 124.922 24.0803 124.423C30.4439 119.796 32.7417 128.55 47.6493 134.16C45.2566 137.627 43.3068 141.38 41.8453 145.33C36.3125 141.976 30.9754 137.873 25.2342 134.697C23.8319 133.922 21.5414 131.343 21.6934 128.791ZM89.6276 154.955C88.6648 160.567 86.5473 166.611 83.122 171.127C77.8213 178.176 73.0683 178.225 67.8804 171.461C74.2814 167.639 76.318 159.771 75.8047 159.582C75.2341 159.354 73.1038 165.868 67.3417 169.366C58.5029 174.703 48.9097 167.778 37.6593 169.214C35.2023 169.479 32.2849 169.843 30.1209 168.754C23.5179 165.446 27.2371 153.771 42.5943 154.05C46.4882 154.094 48.795 155.028 48.9361 154.694C49.4466 153.911 40.4876 150.326 32.2903 153.849C27.6211 151.541 19.5558 147.362 17.3017 142.685C15.1641 138.374 17.3163 134.768 20.7506 135.223C24.0803 135.654 34.3597 143.167 41.3649 146.757C41.1337 147.49 40.1054 151.002 40.554 151.14C41.0919 151.304 43.1639 145.532 46.8804 139.02C50.5731 132.5 54.2586 127.586 53.8191 127.215C53.5579 126.994 51.2484 129.175 48.5611 132.874C45.8825 131.642 43.2925 130.225 40.8098 128.634C37.3445 126.403 35.4853 125.267 34.1959 121.332C33.3241 118.619 33.3851 115.963 35.8948 114.552C39.0507 113.03 42.5506 115.388 45.3397 117.532C51.1182 122.056 47.5083 120.364 66.5928 132.386C70.1017 134.596 72.9628 136.358 75.2378 140.547C79.0452 147.491 76.4818 155.577 77.0014 155.707C77.2525 155.771 79.4201 149.683 77.9241 143.394C83.4405 144.407 91.4176 144.114 89.6276 154.955Z" fill="#1E1E1E"/>
    <path d="M63.882 69.1598C65.065 77.6783 65.0422 78.1688 65.5909 79.1698C67.2408 82.1928 73.5862 82.8607 76.9268 81.2782C78.0351 80.7882 78.9839 79.9974 79.6656 78.9955C80.3473 77.9936 80.7345 76.8207 80.7834 75.6098C80.7153 74.571 80.4916 73.5483 80.12 72.5759C73.295 51.7005 73.5817 55.9848 74.8111 51.3319C76.4338 49.9235 77.8863 48.3302 79.139 46.5845C79.3046 46.4029 79.423 46.1835 79.4839 45.9455C79.5448 45.7075 79.5464 45.4582 79.4885 45.2195C78.9679 40.7277 78.4875 43.4368 82.6735 39.1534C83.3432 38.4673 83.2386 37.8621 82.4733 37.3098C81.3294 36.4826 81.0873 36.7638 80.7315 34.7618C80.5756 33.888 80.3124 33.0368 79.948 32.2274C77.7181 33.0831 75.5422 34.0735 73.4324 35.1931C73.245 34.3504 74.1495 32.9954 74.4725 32.2219C76.4836 27.4171 78.0388 28.8549 72.6225 26.468C71.1574 30.0874 69.534 33.6364 67.7522 37.115C67.2292 35.6838 66.9822 34.1665 67.0242 32.6433C67.1953 31.7333 67.441 32.06 68.8442 27.6137C68.9907 27.1487 68.998 27.2988 65.0313 26.4835C63.2836 30.3111 62.5767 34.5321 62.982 38.7203C61.95 37.1341 59.9471 36.6882 59.2328 34.2203C58.9934 33.3931 58.8315 33.1156 57.9115 33.2557C55.6783 33.597 55.6419 33.5751 55.5027 33.6943C54.8657 34.2403 56.8968 38.5346 57.4565 39.5047C62.2603 47.843 59.7442 39.3272 63.882 69.1598Z" fill="white"/>
    <path d="M103.592 75.0129C102.978 72.0299 101.26 71.8561 98.4955 73.1656C98.1115 73.3476 98.0569 73.4968 98.107 73.8663C98.208 74.6205 98.3554 75.3679 98.5483 76.104C95.1122 77.4572 95.1813 77.2979 95.306 77.7784C97.7293 86.9921 97.672 86.5371 97.5309 86.7655C96.772 87.2181 95.9479 87.5512 95.0876 87.7529C94.5671 87.8939 94.3787 88.0168 94.3223 88.6092C94.231 89.578 94.3591 90.555 94.6972 91.4675L95.3206 113.481L109.493 111.843C110.445 109.511 111.615 113.986 103.592 75.0129Z" fill="white"/>
    <path d="M88.0196 41.1637C87.9168 41.9244 87.6156 42.8808 86.8494 42.9209C86.2706 42.9518 85.0849 41.9599 84.7009 43.587C84.6535 43.995 84.5404 44.3927 84.366 44.7645C81.353 44.9092 83.092 43.3085 81.7461 48.552C84.7218 49.4811 83.3786 48.6093 83.0829 51.2155C83.0483 51.5213 85.4425 51.726 85.6946 52.1628C85.9093 52.5341 85.9057 52.1219 83.9829 62.5514C83.5197 65.0666 83.4633 66.024 84.8929 69.6594C89.6795 81.8534 88.8969 81.9972 91.5286 84.0229C92.5642 84.82 93.9856 85.3451 94.3915 86.5863C94.6035 87.2324 94.6062 87.6419 95.3388 87.6674C96.1863 87.6302 97.0136 87.3968 97.7557 86.9858L95.2077 77.4163C95.9439 77.2188 98.4291 76.377 98.7221 75.9466C99.0507 75.4661 98.5547 73.8736 98.2135 73.2066C103.174 72.2839 99.937 72.7844 101.717 67.8949C102.584 65.5116 102.593 65.3697 102.83 65.2113C103.267 64.9201 105.891 65.3642 106.399 65.4616C107.461 55.4325 108.551 54.7755 109.493 46.3634C109.904 42.6715 109.485 41.9736 104.808 39.1498C102.379 37.6829 101.611 37.4045 98.3327 37.1943C93.6744 36.8967 88.6111 36.7884 88.0196 41.1637Z" fill="white"/>
    <path d="M103.064 61.5995L93.5398 60.4192L93.8365 58.0851L95.0713 58.2416L94.9321 59.3372L103.217 60.3637L103.064 61.5995Z" fill="#1E1E1E"/>
    <path d="M96.2567 62.011L96.0884 63.2454L99.8077 63.7526L99.976 62.5182L96.2567 62.011Z" fill="#1E1E1E"/>
    <path d="M108.328 48.6065L108.525 47.4663L102.161 46.3642L101.963 47.5045L101.144 47.3625L100.916 48.6756L99.4793 48.4409L99.7213 47.044L98.9023 46.9021L99.1098 45.6726L85.0612 43.1665L84.8938 44.1111L92.5933 45.4834C92.5196 45.9056 92.7016 45.8283 91.7188 45.6581L91.0554 49.4801L91.8744 49.622L91.6779 50.7614L98.0424 51.8697L98.2399 50.7313L99.0589 50.8724L99.2773 49.6111L100.714 49.845L100.48 51.1909L101.299 51.3338L101.102 52.4731L107.471 53.5714L107.668 52.4321L108.487 52.5732L109.15 48.7512L108.328 48.6065Z" fill="#1E1E1E"/>
    <path d="M85.3989 83.9837L74.8347 54.5443C75.4717 51.5849 74.5208 53.3058 80.1882 46.2715L79.8543 43.0091L84.4043 38.4263C81.0773 34.8364 82.0283 36.4307 80.4294 31.2992L74.5289 33.8691L77.5956 28.218L72.7726 25.1049C68.0661 34.3568 68.9352 32.5669 67.9724 34.7964C67.7203 32.5159 67.4118 34.0929 70.0581 26.9158L64.7801 25.2286C61.8281 32.8098 62.3231 30.0607 62.3231 37.2734C60.2629 34.9893 60.9272 36.1623 59.4885 31.9453L54.3542 32.7889C55.4708 37.8631 54.4735 35.498 59.0753 43.4186C61.0255 48.2998 59.7688 41.1436 65.1978 86.0912L68.047 85.6126L69.3738 91.1709L73.7018 89.8432L74.5035 92.959L83.4215 89.896L82.2922 85.6308L85.3989 83.9837ZM60.494 42.7862C56.0996 35.2887 56.8986 37.1323 56.2225 34.0593L58.4347 33.6953C59.5385 36.9303 58.3983 35.2523 63.8738 41.3256C63.8738 29.9406 63.4015 33.0519 65.6938 27.1578L68.0261 27.9031L66.187 32.8908L67.0615 40.8078C68.9001 36.1995 71.0064 31.7025 73.3696 27.3398L75.5318 28.7348C71.2111 36.6983 72.223 34.2322 70.8089 39.7613C76.2197 34.3013 74.245 35.6791 79.4539 33.4113L80.1582 35.67L71.2284 42.2693L70.8016 44.5561L67.6703 44.1011L66.6584 51.1918L68.1999 51.4111L68.9907 45.8656L72.0583 46.3115L72.6462 43.1574L80.9681 37.0067L82.2421 38.3808L78.2263 42.4267L78.5693 45.7846C72.9273 52.7916 74.033 50.8442 73.2158 54.6398L79.362 72.0718L76.8795 72.7752L77.5165 74.8891L74.67 75.7373L75.5299 78.4181L72.8691 79.3045L71.8681 77.0877L68.5248 77.9886L67.9496 75.9866L65.7165 76.7838C61.3858 41.7187 62.4887 47.8731 60.494 42.7862Z" fill="#1E1E1E"/>
    <path d="M116.947 109.769L116.597 103.494C116.484 101.458 116.104 99.4466 115.467 97.51L105.943 68.5425C105.751 67.9596 105.251 67.5323 104.645 67.4345L103.724 67.2858C103.347 67.2249 103.089 66.8723 103.145 66.4947C103.199 66.1315 103.526 65.8724 103.892 65.9023L105.09 66.0002C106.121 66.0844 107.044 65.3606 107.208 64.3386L111.462 37.794C111.549 37.2561 111.199 36.7448 110.666 36.6299C110.129 36.514 109.779 35.995 109.872 35.4534L109.982 34.8199C110.107 34.0973 109.632 33.4071 108.913 33.265L108.767 33.2362C108.13 33.1103 107.709 32.4998 107.818 31.8597C107.929 31.2093 107.493 30.5916 106.843 30.4784L95.4412 28.4928C94.7586 28.3739 94.106 28.822 93.9718 29.5018C93.8367 30.186 93.1769 30.6347 92.4909 30.5088L92.414 30.4947C91.7088 30.3652 91.0326 30.8336 90.906 31.5393L90.8757 31.7081C90.7675 32.3111 90.1952 32.7154 89.5907 32.6159C88.9846 32.5161 88.4111 32.923 88.305 33.528L87.0418 40.7309C86.9174 41.4401 86.2286 41.9039 85.5246 41.7524L85.4603 41.7386C84.7946 41.5953 84.1424 42.0315 84.0206 42.7016L83.977 42.9414C83.8777 43.4877 83.3421 43.8402 82.8011 43.7154C82.2654 43.5919 81.7339 43.9364 81.6278 44.4758L80.9076 48.1386C80.797 48.7013 81.1548 49.2498 81.7144 49.3753C82.2812 49.5023 82.6396 50.0625 82.5174 50.6304L82.484 50.7854C82.3486 51.4147 82.7262 52.0408 83.346 52.2146L83.537 52.2681C84.2349 52.4639 84.6758 53.1511 84.5628 53.8671L82.6223 66.1563C82.5491 66.6195 82.2363 67.0094 81.8 67.1812C81.1296 67.4452 80.7937 68.197 81.0441 68.8726L86.3382 83.1505C86.6928 84.1071 86.2639 85.1767 85.3465 85.6231C84.4743 86.0475 84.0371 87.0407 84.3132 87.9706L84.4453 88.4153C84.8313 89.7154 84.1236 91.0886 82.8408 91.5287L79.1544 92.7933C76.3641 93.7506 74.5491 96.4446 74.71 99.3902L75.5555 114.867C75.5798 115.318 75.7763 115.741 76.1045 116.051C76.4326 116.36 76.8672 116.531 77.3181 116.529C77.4824 116.529 76.3923 116.66 92.8053 114.603C94.6921 114.366 96.0724 112.7 95.949 110.803L95.8594 109.426C95.7842 108.27 96.6352 107.26 97.7874 107.139C99.0881 107.003 99.9692 105.75 99.6579 104.48L96.0282 89.6704C95.8426 88.9133 96.2856 88.1443 97.0335 87.925C97.7805 87.7059 98.2235 86.9385 98.0395 86.1821L96.3949 79.4224C96.1507 78.4184 96.7245 77.3965 97.7089 77.0824L98.0932 76.9597C98.8538 76.717 99.3003 75.9305 99.1187 75.1529L98.952 74.439C98.8565 74.0298 99.1037 73.6189 99.5099 73.5116C99.942 73.3975 100.381 73.6708 100.469 74.1089L100.821 75.8509C101.021 76.8429 100.448 77.8281 99.4876 78.1458C98.4973 78.4733 97.9247 79.5067 98.1722 80.5199L104.015 104.444C104.195 105.182 104.886 105.678 105.643 105.613C106.399 105.549 107.091 106.045 107.271 106.783L107.757 108.777C108.246 110.784 110.204 112.071 112.24 111.724L115.968 111.09C116.27 111.04 116.541 110.874 116.724 110.627C116.907 110.381 116.987 110.074 116.947 109.769ZM101.738 65.3854C101.633 66.0868 100.987 66.5755 100.283 66.4856L94.4008 65.7343C93.738 65.6496 93.2709 65.0417 93.3597 64.3795C93.4478 63.7234 92.9897 63.1192 92.3342 63.0269L90.9017 62.825C90.6282 62.7864 90.4375 62.5336 90.4756 62.26C90.5139 61.9851 90.3212 61.7315 90.0461 61.6946L89.7696 61.6575C89.3435 61.6003 88.9517 61.8995 88.8946 62.3256L88.8281 62.822C88.7348 63.5188 89.2212 64.1603 89.9173 64.2584L90.1714 64.2943C91.0092 64.4124 91.5941 65.1851 91.4824 66.0238C91.2591 67.7013 91.0238 69.5105 90.8094 71.1426C90.7519 71.5801 91.0597 71.9812 91.4972 72.039C91.9347 72.0968 92.3362 71.7889 92.3939 71.3513L92.4426 70.9823C92.5262 70.3479 93.1036 69.8981 93.7392 69.9722L99.157 70.6038C99.5256 70.6467 99.8247 70.9221 99.8979 71.286C99.9873 71.7308 99.7146 72.1683 99.2758 72.2837L98.6949 72.4365C97.9127 72.6423 97.4363 73.4332 97.6202 74.2209L97.6353 74.2856C97.8205 75.0791 97.3648 75.8817 96.5885 76.1292L96.2262 76.2447C95.2385 76.5596 94.6627 77.5849 94.9079 78.5922L96.7001 85.9553C96.7974 86.3552 96.5632 86.7611 96.1682 86.8768C95.747 87.0001 95.308 86.7472 95.2035 86.321L93.7306 80.3158C93.5939 79.7584 93.0357 79.4134 92.476 79.5403C91.9199 79.6663 91.3646 79.3265 91.2238 78.7739L90.0851 74.306C89.9389 73.7327 89.3593 73.3831 88.7841 73.5213C88.2553 73.6484 87.7145 73.3632 87.5206 72.8551L84.9916 66.2264C84.9368 66.0829 84.7754 66.0117 84.6324 66.068C84.4337 66.1463 84.2252 65.979 84.2585 65.7681L86.3205 52.7088C86.4301 52.0145 86.0027 51.3481 85.3259 51.1581L85.2112 51.1259C84.5706 50.9461 84.1803 50.299 84.3203 49.6485L84.359 49.4686C84.4829 48.8929 84.1199 48.3248 83.5454 48.1954C82.978 48.0677 82.6156 47.5113 82.7279 46.9407L82.8412 46.3655C82.9486 45.8199 83.4858 45.471 84.028 45.5947C84.5754 45.7195 85.1164 45.3628 85.2173 44.8105L85.3892 43.8697C85.4428 43.5761 85.7287 43.3852 86.0204 43.4482C86.3022 43.509 86.4832 43.7846 86.4271 44.0674L86.0423 46.0065C85.8408 47.0215 86.5058 48.0061 87.5227 48.1982C88.5365 48.3898 89.5128 47.7202 89.6993 46.7055L90.6125 41.7382C90.7346 41.0737 91.3758 40.6369 92.0389 40.7663L92.3279 40.8228C92.8322 40.9212 93.3197 40.5888 93.4124 40.0835C93.5047 39.5798 93.9894 39.2477 94.4924 39.3433L99.5241 40.3C99.918 40.3749 100.187 40.7411 100.142 41.1395C100.095 41.5435 100.373 41.9133 100.774 41.9817L103.451 42.4382C103.86 42.508 104.129 42.9034 104.044 43.3095C103.959 43.7145 104.227 44.1091 104.635 44.1803L106.375 44.4842C107.69 44.7138 108.577 45.9571 108.366 47.2752L106.709 57.6196C106.656 57.9505 106.35 58.1803 106.018 58.1397C105.673 58.0976 105.429 57.7817 105.475 57.4373L105.541 56.9553C105.623 56.3451 105.191 55.7853 104.579 55.7117L93.1429 54.3352C92.4958 54.2573 91.906 54.7132 91.8183 55.3591L91.7848 55.6052C91.7143 56.1243 91.2353 56.4871 90.7165 56.4144C90.1999 56.3419 89.7222 56.7015 89.6489 57.218L89.527 58.0769C89.4665 58.5029 89.7632 58.8971 90.1893 58.9569L90.4479 58.9932C90.7307 59.0329 90.9921 58.8359 91.0319 58.5531C91.0716 58.2704 91.3328 58.0734 91.6155 58.1129L92.0424 58.1726C92.5623 58.2453 93.0423 57.8818 93.1133 57.3616L93.1487 57.1023C93.2379 56.448 93.8357 55.9863 94.4914 56.0653L102.821 57.0686C103.432 57.1422 103.864 57.7013 103.782 58.3109C103.699 58.9196 104.13 59.4783 104.74 59.5529L104.98 59.5823C105.735 59.6746 106.262 60.3749 106.142 61.1255L105.895 62.6672C105.73 63.6918 104.805 64.4172 103.771 64.3316L103.136 64.2791C102.452 64.2224 101.841 64.7062 101.738 65.3854Z" fill="url(#paint2_angular_2979_252)"/>
    <path d="M93.217 46.3157L92.988 47.6355L94.3078 47.8644L94.5368 46.5446L93.217 46.3157Z" fill="white"/>
    <path d="M94.3066 47.8647L94.0781 49.1846L95.398 49.4131L95.6265 48.0932L94.3066 47.8647Z" fill="white"/>
    <path d="M102.641 48.021L102.412 49.3409L103.732 49.5694L103.961 48.2495L102.641 48.021Z" fill="white"/>
    <path d="M103.732 49.5695L103.504 50.8894L104.824 51.1178L105.052 49.7979L103.732 49.5695Z" fill="white"/>
    <path d="M49.2827 129.112C50.382 128.305 58.3527 122.486 58.2553 122.378C61.5113 126.068 61.0836 127.463 62.1892 126.389C62.7352 125.859 65.134 123.75 65.8766 123.92C67.3198 124.245 72.6597 133.305 75.852 136.769C76.1477 137.089 76.1687 137.283 75.7919 137.594C72.2202 140.542 72.0718 140.563 72.0664 140.922C72.0591 141.32 72.8044 141.911 74.3614 144.723C75.265 146.356 68.1097 148.851 64.9948 152.116C64.5733 152.558 64.109 152.957 63.6088 153.307C61.1655 155.02 59.654 149.878 58.1898 149.561C57.6247 149.438 57.4172 149.666 53.6644 151.901C53.1675 152.197 52.889 152.215 52.4058 151.602C50.7483 149.505 45.6271 142.666 44.2945 140.483C44.2064 140.338 44.0784 140.195 44.0975 140.027C44.1167 139.859 44.2729 139.745 44.3854 139.619C46.199 137.58 46.9914 137.825 47.2334 137.192C47.6138 136.201 42.9136 133.617 45.4525 131.649C46.6719 130.704 47.905 130.123 49.2827 129.112Z" fill="url(#paint3_angular_2979_252)"/>
    <path d="M-nan -nanL62.0675 67.9567C62.1166 68.2816 61.7099 68.4017 60.5105 69.1652C60.3503 69.2662 60.3285 69.3427 60.4359 69.5046C61.5597 71.2664 61.6489 71.341 61.6289 71.564C61.577 72.1182 56.8386 74.6216 56.3509 74.8736C56.1252 74.991 56.0115 74.9828 55.8267 74.7235C53.9603 72.0918 54.6264 72.261 52.9438 73.3394C52.4452 73.6588 52.1367 73.6779 51.6626 72.9936C51.102 72.1837 47.7851 67.0786 47.7987 66.5098C47.8178 65.7755 49.5896 65.9329 48.878 64.9155C48.1982 63.9418 47.8042 63.485 47.7951 63.0418C47.781 62.4166 48.6931 62.3084 49.2241 61.9779C51.2228 60.734 53.1912 58.3909 54.2024 59.6548C55.4473 61.2082 55.521 61.3611 55.682 61.3729C56.7317 61.4536 57.7497 60.9706 58.3717 61.8198C59.785 63.7491 61.0221 65.803 62.0675 67.9567L-nan -nanZ" fill="url(#paint4_angular_2979_252)"/>
    <path d="M33.0093 99.5001C32.995 99.5991 32.9768 99.5977 33.2913 100.265C34.2704 102.344 32.76 104.16 32.0001 106.329C31.678 107.254 34.4389 111.042 35.1851 112.465C36.1534 114.31 37.3619 118.227 38.5794 118.38C39.7624 118.529 42.1803 115.3 43.1549 116.761C44.8885 119.361 45.8176 121.23 46.8195 120.711C47.32 120.453 47.0925 119.973 48.8861 119.009C57.0934 114.6 57.1571 114.585 57.2699 114.25C57.4601 113.691 56.6484 113.222 55.3289 110.086C55.2024 109.785 55.2379 109.657 55.5446 109.477C58.1535 107.964 58.9644 107.475 58.9371 106.776C58.9125 106.13 52.3359 94.476 52.001 93.8881C51.769 93.4795 51.5952 93.4486 51.2366 93.6151C50.744 93.8471 50.2578 94.0921 49.7784 94.3498C48.6191 94.973 47.146 94.6356 46.47 93.5063C45.8016 92.39 44.3441 92.0398 43.2387 92.7262C35.4252 97.5777 33.0666 99.102 33.0093 99.5001Z" fill="url(#paint5_angular_2979_252)"/>
    <path d="M59.5267 106.252C51.9191 92.1909 52.4487 92.0835 50.7679 93.1655C50.7679 93.1655 48.1207 94.8518 48.1053 94.8636C47.5194 93.8966 46.9951 92.8936 46.5355 91.8606C45.9895 90.7604 45.3416 90.6075 44.3515 91.3856C44.1559 91.5357 45.1341 90.8614 32.8072 98.6201C32.5779 98.7679 32.4122 98.9963 32.3428 99.2602C32.2734 99.5241 32.3053 99.8045 32.4323 100.046L34.3224 103.801C32.1648 105.209 30.8162 105.698 31.4304 106.877C38.0734 119.617 37.5611 119.064 38.1881 119.232C38.7395 119.379 38.6676 119.296 42.6471 116.971C45.3825 121.484 45.2224 121.404 45.7529 121.546C46.3417 121.701 45.7347 122.135 57.4318 114.951C57.6578 114.809 57.8228 114.588 57.8951 114.33C57.9674 114.073 57.9418 113.799 57.8231 113.56C57.7913 113.487 57.0405 111.75 56.0778 109.89L59.0371 108.135C59.3434 107.943 59.5647 107.641 59.6557 107.291C59.7467 106.941 59.7006 106.569 59.5267 106.252ZM52.7799 106.144L54.7119 109.816L46.5437 114.991C43.8137 109.799 44.9648 110.168 40.2647 113.145L35.5809 104.249C35.681 103.982 35.2169 104.34 38.8569 102.033C39.7869 101.444 38.9334 100.534 37.2599 97.3524C46.2352 91.7368 45.2888 92.2164 45.3753 92.4029C45.4617 92.5895 45.3753 92.423 46.9878 95.4924C47.6366 96.9338 48.3937 96.2204 51.5997 94.1501C51.6242 94.1975 56.2953 102.992 56.2953 102.992C53.1084 105.014 52.2967 105.228 52.7799 106.144ZM33.6417 99.6101L36.4463 97.8611L38.2481 101.286L35.3989 103.093L33.6417 99.6101ZM56.6019 113.962L46.0969 120.211C42.5306 114.327 44.0248 114.69 38.5503 117.89L32.6353 106.433L34.8784 104.968C39.8315 114.38 39.5194 114.025 40.0008 114.154C40.4431 114.274 40.3939 114.199 43.8792 111.992C45.439 114.954 45.8994 116.532 46.8913 115.905L55.0367 110.745C55.7829 112.141 56.4008 113.511 56.6019 113.962ZM58.3846 107.04C55.3707 108.817 55.3971 108.806 55.3024 108.878L53.6754 105.784L56.7575 103.833C58.4856 107.016 58.5129 106.966 58.3828 107.04H58.3846Z" fill="#1E1E1E"/>
    <path d="M68.2682 116.495C68.189 117.079 68.2946 117.334 68.9634 117.49C71.0728 117.981 72.1129 117.521 72.3186 118.218C72.4233 118.575 72.0674 119.179 72.0329 121.203C71.9992 123.182 77.8296 122.392 81.263 123.283C82.8755 123.702 83.9366 123.847 84.1959 122.154C84.691 118.921 84.6509 118.854 84.8748 118.653C86.7301 116.951 89.6555 117.069 89.9523 114.568C90.1774 112.672 90.3849 110.77 90.5891 108.876C90.7013 107.835 89.8586 106.947 88.8234 106.795C88.0233 106.677 87.5419 105.933 87.6538 105.132C87.8151 103.978 87.9598 102.551 87.5283 102.21C87.3326 102.081 87.1076 102.004 86.8741 101.985C74.8184 100.026 75.5436 100.101 75.2406 100.194C73.5653 100.704 75.7766 104.592 73.1076 104.18C68.9516 103.541 70.2456 101.93 68.2682 116.495Z" fill="url(#paint6_angular_2979_252)"/>
    <path d="M88.158 105.916L88.563 102.431C88.5994 102.167 88.5298 101.899 88.3694 101.686C88.209 101.472 87.9708 101.331 87.7067 101.293C73.9912 99.3763 74.8256 99.3818 74.3697 99.8868C74.0685 100.222 74.1304 100.297 73.6781 103.687C70.8853 103.281 69.7051 102.838 69.4257 104.101C69.4048 104.192 69.5303 103.702 67.6257 116.691C67.5996 116.859 67.6074 117.03 67.6487 117.194C67.6901 117.359 67.7641 117.514 67.8664 117.649C67.9687 117.784 68.0972 117.898 68.2442 117.983C68.3913 118.067 68.5538 118.122 68.7223 118.142L71.667 118.476C71.4186 120.193 71.3294 121.785 71.3303 121.803C71.3121 121.935 71.3202 122.07 71.3541 122.198C71.388 122.327 71.447 122.448 71.5278 122.554C71.6086 122.66 71.7095 122.749 71.8247 122.816C71.94 122.883 72.0673 122.926 72.1994 122.943C84.2432 124.49 83.6026 124.371 84.0558 124.029C84.4816 123.707 84.3834 123.688 85.2388 119.354C89.3128 119.791 89.261 119.876 89.6796 119.56C90.1582 119.196 89.9062 119.799 91.5223 107.449C91.6961 106.135 90.1327 106.227 88.158 105.916ZM84.4944 102.145L87.2662 102.523L86.8931 105.731L84.0649 105.327L84.4944 102.145ZM70.7698 104.559C73.4543 104.97 74.8165 105.568 74.9448 103.862C74.9448 103.862 75.3371 100.885 75.3389 100.859C75.9977 100.998 74.236 100.743 83.5443 102.022C82.8837 106.916 82.2885 106.046 87.0342 106.724C87.1252 106.861 87.1934 106.099 85.9422 115.352C81.0282 114.65 81.9291 113.971 81.2502 119.002L72.8983 117.808C73.5717 112.823 74.2478 113.681 69.4776 112.999C70.5505 105.95 70.5022 104.515 70.7698 104.559ZM72.0101 117.238C71.9191 117.219 71.8226 117.211 68.8897 116.885L69.3356 113.945L72.3959 114.382L72.0101 117.238ZM88.8405 118.458C83.3187 117.867 84.3961 117.051 83.2322 122.927L72.618 121.705C72.6507 121.227 72.7417 120.031 72.9183 118.774C82.0028 120.072 81.3267 119.981 81.4195 119.981C82.3295 119.981 82.2021 119.137 82.6471 115.845L86.0032 116.324C87.0751 116.482 86.8495 115.827 88.0161 107.187L90.2274 107.534L88.8405 118.458Z" fill="#1E1E1E"/>
    <path d="M64.2827 96.8905C62.0521 96.8288 63.6273 93.8063 61.9563 92.3274C61.8433 92.2287 61.7576 92.2504 59.3529 92.0085C59.2849 92.0017 59.2152 91.9905 59.15 91.97C58.7019 91.8287 58.5458 91.3074 58.6153 90.8426C60.8166 76.1293 60.404 77.9715 60.6805 77.6619C61.343 76.9193 62.9719 77.6018 63.8227 77.6309C64.6736 77.6601 64.3742 76.741 64.3796 76.2377C64.4031 74.4545 65.5458 73.4368 67.3137 73.6719C68.8302 73.8735 71.2575 74.2063 75.1677 74.7244C76.2069 74.8619 76.4667 75.2691 75.9826 78.1701C75.8557 78.9305 76.324 79.6697 77.0741 79.8477C77.7889 80.0174 78.2713 80.6922 78.1999 81.4234C77.3148 90.4876 77.3175 93.0899 75.953 92.9071C73.4205 92.5677 73.4259 92.5331 73.1957 92.6723C72.2739 93.2302 72.4677 97.8111 71.1728 97.7547C67.9514 97.6155 66.1068 96.9939 64.8465 96.9129C64.6888 96.9023 64.4955 96.8964 64.2827 96.8905Z" fill="url(#paint7_angular_2979_252)"/>
    <path d="M76.2379 79.0487C76.6428 75.6426 77.1133 74.3031 75.8794 74.1348C63.9729 72.4767 64.7009 72.4631 64.2714 73.0464C64.0457 73.3512 64.1003 73.2575 63.5962 77.0722C61.0282 76.6236 60.0708 76.2623 59.8497 78.0141C58.067 92.1646 57.804 91.4766 58.2818 92.0936C58.6585 92.5795 58.8614 92.5031 61.4786 92.7807C61.2156 94.6216 61.0946 96.3351 61.0937 96.367C61.0694 96.4969 61.0715 96.6305 61.0998 96.7596C61.1281 96.8888 61.1821 97.0109 61.2585 97.1189C61.3348 97.2268 61.4321 97.3183 61.5444 97.388C61.6568 97.4577 61.782 97.5041 61.9127 97.5245C70.3083 98.5692 71.5168 98.5628 71.6142 98.5628C72.7462 98.5628 72.6543 97.2215 73.3723 93.333L76.4718 93.637C76.6024 93.6502 76.7344 93.6374 76.86 93.5991C76.9856 93.5608 77.1024 93.4979 77.2034 93.4141C77.3045 93.3302 77.3878 93.2271 77.4486 93.1107C77.5094 92.9943 77.5463 92.8669 77.5574 92.7361L79.1144 80.5348C79.2882 79.2399 77.9714 79.3254 76.2379 79.0487ZM62.6725 92.1482C63.3814 86.8547 63.9465 87.7192 59.8907 87.1432C59.8907 87.1432 61.1301 78.0641 61.1373 78.0132C63.4642 78.349 64.7155 78.9541 64.8683 77.2069C64.8683 77.2069 65.287 74.0137 65.2915 73.9682C65.5317 74.0392 65.0385 73.9609 72.2384 74.9356C71.5541 80.0388 70.9644 79.2198 75.074 79.804C75.2242 80.0689 75.3161 78.9341 73.9875 89.1498C69.6722 88.5355 70.4967 87.8175 69.8324 93.1683L62.6725 92.1482ZM74.9703 78.8813L72.657 78.5528L73.1257 75.0529L75.3898 75.3551L74.9703 78.8813ZM59.2791 91.2628C59.3228 91.1718 59.4757 89.9506 59.7587 88.0295L62.2703 88.3863L61.8481 91.5376C61.7825 91.5258 61.1874 91.4648 59.2791 91.2628ZM76.3234 92.3393C71.5314 91.8697 72.5014 91.0244 71.3521 97.2533L62.3804 96.2869C62.4195 95.7891 62.5333 94.455 62.7289 93.0609C70.0563 94.1029 69.8652 94.0838 69.9607 94.0838C70.8835 94.0838 70.7369 92.8316 71.1328 89.6466L74.0239 90.0579C75.0076 90.2035 74.8219 89.3809 76.0377 80.3091L77.8186 80.5939L76.3234 92.3393Z" fill="#1E1E1E"/>
    <path d="M62.4441 67.4845C56.8503 58.784 58.0342 59.1834 55.488 60.8169C54.396 59.0752 54.103 58.0605 53.0392 58.9377C47.3599 62.5213 46.8312 62.5441 47.3581 63.3804L48.5775 65.3824C46.4845 66.7747 46.4326 65.6608 51.4713 73.7116C51.9436 74.4669 52.5005 73.93 54.0875 73.0054L55.6536 75.2377C56.1796 76.0721 56.61 75.6226 61.8971 72.3566C62.0492 72.256 62.1552 72.0992 62.1917 71.9205C62.2282 71.7419 62.1923 71.556 62.0919 71.4038C62.07 71.3638 61.5686 70.4429 60.9462 69.4674C61.9335 68.8868 63.0629 68.4527 62.4441 67.4845ZM59.9379 69.3827L56.1469 71.8161C54.3341 68.9386 54.9329 69.1461 52.6807 70.5903L49.5948 65.6872C49.6758 65.437 49.371 65.6872 51.0508 64.6134C51.6041 64.2594 51.0154 63.6643 49.9725 62.009C52.5141 60.4047 53.5652 59.7458 53.648 59.6812C55.3652 62.424 54.9065 62.3302 57.116 60.9134L60.21 65.7637C58.0278 67.1578 58.1488 66.539 59.9379 69.3827ZM48.2899 63.0691L49.4283 62.3502L50.5695 64.1611L49.4083 64.9055L48.2899 63.0691ZM61.1518 71.685L56.3379 74.5461C54.0384 71.2701 54.7509 71.5121 52.1665 73.0164L48.2699 66.7374L49.1398 66.1631C52.4532 71.4229 52.243 71.2091 52.5433 71.2764C52.8163 71.3365 52.8445 71.2464 54.4051 70.2454C55.4562 71.9134 55.8029 72.7934 56.3561 72.4421L60.1508 70.0061C60.5886 70.6904 60.9698 71.3602 61.1518 71.685ZM60.291 68.743L59.2709 67.1232L60.5494 66.3042L61.6068 67.9622C61.5896 67.9768 60.3092 68.7312 60.291 68.743Z" fill="#1E1E1E"/>
    <path d="M76.5482 136.454C76.5482 136.454 67.0896 123.618 66.9804 123.487C66.3962 122.814 65.6555 122.802 64.7054 123.499C64.7054 123.499 61.8844 125.549 61.8225 125.6C59.5576 122.468 58.9433 120.653 56.975 122.394C56.7793 122.567 57.8185 121.751 44.2541 131.537C43.9703 131.742 43.7791 132.05 43.7222 132.396C43.6652 132.741 43.7472 133.095 43.9502 133.38L46.469 136.994C43.8974 138.913 43.4278 139.071 43.3077 139.823C43.1867 140.59 42.88 139.997 52.0237 152.701C52.2269 152.983 52.5332 153.174 52.8762 153.232C53.2192 153.29 53.5714 153.211 53.8564 153.012L57.8813 150.295C61.4494 154.607 61.3967 154.795 62.233 154.795C62.8117 154.795 61.9154 155.55 75.0394 146.29C75.3192 146.093 75.5109 145.795 75.5734 145.459C75.6358 145.123 75.564 144.775 75.3734 144.491C75.3288 144.418 74.2941 142.721 73.0001 140.969C76.378 138.659 76.7074 138.618 76.8567 137.713C76.8922 137.493 76.8832 137.268 76.8302 137.052C76.7772 136.836 76.6813 136.633 76.5482 136.454ZM68.5465 137.349L71.1546 140.943L62.232 147.42C58.4501 142.209 59.8424 142.46 54.6663 146.219L48.2863 137.429C48.3828 137.069 47.8631 137.535 51.7834 134.686C51.8873 134.611 51.9753 134.516 52.0423 134.406C52.1094 134.297 52.1542 134.175 52.1743 134.048C52.1943 133.922 52.1891 133.792 52.1591 133.667C52.129 133.543 52.0747 133.425 51.9991 133.321L49.5093 129.89C59.2627 122.89 58.1698 123.49 58.4082 123.818C61.8498 128.568 60.8179 128.519 65.8275 124.807C65.8411 124.827 72.1893 133.497 72.1893 133.497L68.7631 135.983C68.659 136.058 68.5707 136.153 68.5034 136.263C68.4361 136.372 68.3911 136.494 68.371 136.621C68.3508 136.748 68.356 136.877 68.3861 137.002C68.4162 137.127 68.4708 137.245 68.5465 137.349ZM45.5736 132.708L48.5329 130.59L50.8944 133.845L47.8914 136.029L45.5736 132.708ZM73.7363 145.107L62.3012 152.947C57.4636 147.101 59.1672 147.36 53.2012 151.39L45.1623 140.118L47.4946 138.377C54.3323 147.797 53.8964 147.404 54.4661 147.496C54.9939 147.58 54.8146 147.596 58.7868 144.713C60.9371 147.676 61.6679 149.318 62.7589 148.524L71.6715 142.054C72.5815 143.298 73.3723 144.53 73.7363 145.108V145.107ZM71.9163 139.634C71.7015 139.78 72.0819 140.175 69.6504 136.825L72.9091 134.459L75.1349 137.432L71.9163 139.634Z" fill="#1E1E1E"/>
    <path d="M81.1718 102.3C81.9908 102.712 82.3111 103.574 83.2029 105.438C83.5523 104.675 83.7698 102.363 86.2823 101.633C86.5553 101.555 86.7018 101.371 86.457 101.224C85.8637 100.867 84.0838 100.661 83.3812 98.6165C82.3011 95.4734 83.5314 100.697 79.5647 101.576C80.0564 101.905 80.5995 102.15 81.1718 102.3Z" fill="white"/>
    <path d="M85.558 100.456C82.464 99.1007 83.4314 93.4541 82.3639 98.0851C81.5695 101.623 78.8713 101.179 78.9314 101.733C78.9096 102.231 81.6405 101.869 82.5769 104.895C83.2976 107.176 83.0937 107.05 83.7926 104.901C85.1958 100.531 89.4137 102.076 85.558 100.456ZM83.1857 104.702C83.0109 104.084 82.7074 103.511 82.295 103.019C81.8826 102.528 81.3708 102.129 80.7933 101.85C80.1918 101.57 80.2254 101.822 80.8506 101.446C81.3888 101.098 81.8522 100.646 82.2134 100.117C82.5747 99.5876 82.8267 98.9915 82.9545 98.3636C83.155 99.0903 83.5513 99.7481 84.1001 100.265C84.6489 100.782 85.3292 101.138 86.0667 101.295C84.6762 101.738 83.6516 103.266 83.1857 104.702Z" fill="#1E1E1E"/>
    <path d="M114.028 123.487C114.392 131.662 122.721 135.713 129.24 138.963C130.287 139.485 130.585 139.814 130.464 141.633C130.046 147.901 134.675 154.794 136.482 155.966C139.507 157.927 145.779 153.287 147.289 149.714C149.035 145.578 147.764 139.961 146.449 135.686C145.948 134.055 144.337 128.985 143.331 127.617C141.915 125.693 135.403 122.447 133.158 121.592C130.32 120.512 127.179 119.899 124.911 117.88C122.454 115.696 120.661 113.775 117.506 116.045C116.369 116.913 115.458 118.043 114.853 119.339C114.247 120.635 113.964 122.058 114.028 123.487Z" fill="white"/>
    <path d="M146.109 131.559C143.652 122.246 133.65 121.831 127.323 118.043C125.104 116.759 123.977 115.007 121.919 114.27C118.793 113.06 113.121 116.792 113.28 123.198C113.57 130.89 121.997 138.445 129.478 140.124C129.093 149.46 135.331 156.29 135.978 155.731C136.419 155.367 133.466 151.552 132.037 145.963C130.519 140.398 131.167 135.613 130.603 135.522C130.395 135.483 129.994 136.35 129.72 137.888C120.146 135.575 111.027 123.465 117.89 117.549C121.621 114.439 122.251 117.755 126.182 119.953C132.968 123.965 141.911 123.828 144.593 131.998C148.967 146.946 149.435 145.941 146.109 131.559Z" fill="#1E1E1E"/>
    <defs>
        <radialGradient id="paint0_angular_2979_252" cx="0" cy="0" r="1" gradientUnits="userSpaceOnUse" gradientTransform="translate(88.3689 85.7104) rotate(90) scale(69.1176 45.8262)">
            <stop offset="0.0729167" stop-color="#FBFBFD"/>
            <stop offset="0.244792" stop-color="#C8D4DA"/>
            <stop offset="0.434957" stop-color="white"/>
            <stop offset="0.532623" stop-color="#AEC0CE"/>
            <stop offset="0.658692" stop-color="#E3E9EE"/>
            <stop offset="0.708863" stop-color="#FAFBFC"/>
            <stop offset="0.861413" stop-color="#D6DFE6"/>
            <stop offset="0.921875" stop-color="#B8C9D3"/>
        </radialGradient>
        <radialGradient id="paint1_angular_2979_252" cx="0" cy="0" r="1" gradientUnits="userSpaceOnUse" gradientTransform="translate(106.5 145.5) rotate(-149.486) scale(10.64 22.4896)">
            <stop offset="0.0422458" stop-color="#D6DFE6"/>
            <stop offset="0.370506" stop-color="#FAFBFC"/>
            <stop offset="0.865074" stop-color="#D7E0E7"/>
        </radialGradient>
        <radialGradient id="paint2_angular_2979_252" cx="0" cy="0" r="1" gradientUnits="userSpaceOnUse" gradientTransform="translate(95.0596 72.4048) rotate(90) scale(44.1258 20.6216)">
            <stop offset="0.0729167" stop-color="#5A5A5A"/>
            <stop offset="0.244792"/>
            <stop offset="0.40625" stop-color="#3A3A3A"/>
            <stop offset="0.567708"/>
            <stop offset="0.744792" stop-color="#5E5E5E"/>
            <stop offset="0.921875"/>
        </radialGradient>
        <radialGradient id="paint3_angular_2979_252" cx="0" cy="0" r="1" gradientUnits="userSpaceOnUse" gradientTransform="translate(59.6052 138.017) rotate(90) scale(15.6384 15.5098)">
            <stop offset="0.362857" stop-color="#D6DFE6"/>
            <stop offset="0.370506" stop-color="#FAFBFC"/>
            <stop offset="0.865074" stop-color="#D7E0E7"/>
            <stop offset="0.871776" stop-color="#F7F8F9"/>
        </radialGradient>
        <radialGradient id="paint4_angular_2979_252" cx="0" cy="0" r="1" gradientUnits="userSpaceOnUse" gradientTransform="translate(54.719 67.1189) rotate(90) scale(7.82731 6.92411)">
            <stop offset="0.362857" stop-color="#D6DFE6"/>
            <stop offset="0.370506" stop-color="#FAFBFC"/>
            <stop offset="0.865074" stop-color="#D7E0E7"/>
            <stop offset="0.871776" stop-color="#F7F8F9"/>
        </radialGradient>
        <radialGradient id="paint5_angular_2979_252" cx="0" cy="0" r="1" gradientUnits="userSpaceOnUse" gradientTransform="translate(45.0515 106.137) rotate(90) scale(14.6612 13.0773)">
            <stop offset="0.362857" stop-color="#D6DFE6"/>
            <stop offset="0.370506" stop-color="#FAFBFC"/>
            <stop offset="0.865074" stop-color="#D7E0E7"/>
            <stop offset="0.871776" stop-color="#F7F8F9"/>
        </radialGradient>
        <radialGradient id="paint6_angular_2979_252" cx="0" cy="0" r="1" gradientUnits="userSpaceOnUse" gradientTransform="translate(79.1853 111.856) rotate(90) scale(11.7 10.9397)">
            <stop offset="0.362857" stop-color="#D6DFE6"/>
            <stop offset="0.370506" stop-color="#FAFBFC"/>
            <stop offset="0.865074" stop-color="#D7E0E7"/>
            <stop offset="0.871776" stop-color="#F7F8F9"/>
        </radialGradient>
        <radialGradient id="paint7_angular_2979_252" cx="0" cy="0" r="1" gradientUnits="userSpaceOnUse" gradientTransform="translate(68.1172 85.5807) rotate(90) scale(12.1745 9.61525)">
            <stop offset="0.362857" stop-color="#D6DFE6"/>
            <stop offset="0.370506" stop-color="#FAFBFC"/>
            <stop offset="0.865074" stop-color="#D7E0E7"/>
            <stop offset="0.871776" stop-color="#F7F8F9"/>
        </radialGradient>
    </defs>
</svg>
