<svg width="182" height="182" viewBox="0 0 182 182" fill="none" xmlns="http://www.w3.org/2000/svg">
    <path d="M163.128 128.939C157.451 123.282 150.769 123.782 149.987 123.593C149.519 115.327 142.828 100.895 137.547 93.6954C129.659 82.941 122.289 80.2675 111.105 77.7031C107.738 76.9305 104.226 76.1561 100.853 76.9159C98.4915 77.4949 96.3636 78.7811 94.7536 80.6025C93.1436 82.4239 92.1283 84.6937 91.8436 87.1079C90.0057 87.2756 88.258 87.9815 86.8191 89.1373C85.3803 90.293 84.3142 91.8474 83.7541 93.6059C83.194 95.3644 83.1648 97.249 83.6703 99.024C84.1757 100.799 85.1932 102.386 86.5956 103.585C83.2413 104.732 81.9983 109.181 83.2213 112.508C85.7566 119.402 94.3233 121.089 98.7669 126.569C102.333 130.964 102.963 137.525 107.7 140.998C110.283 142.966 113.097 144.609 116.081 145.89C116.814 146.187 125.485 148.446 125.474 147.929C125.565 151.899 127.822 153.925 126.67 152.934C132.21 163.756 137.576 164.727 147.54 159.238C151.121 157.265 154.725 155.189 157.542 152.225C162.201 147.321 168.246 134.043 163.128 128.939Z" fill="white"/>
    <path d="M123.52 141.141C120.634 140.383 118.477 138.553 118.665 138.305C118.832 138.083 120.871 139.484 123.756 140.242C126.642 141 129.104 140.783 129.142 141.061C129.176 141.318 126.61 141.955 123.52 141.141Z" fill="#402E32"/>
    <path d="M121.156 92.3296C121.611 92.5198 119.959 96.4428 119.882 100.581C119.769 106.683 122.184 105.005 118.899 106.204C116.502 99.5977 120.623 92.1039 121.156 92.3296Z" fill="#402E32"/>
    <path d="M165.802 132.335C164.182 127.112 156.395 123.434 150.257 123.019C149.546 113.676 144.879 103.937 139.941 95.9695C133.148 84.8757 123.005 78.6695 110.233 76.4955C104.56 75.5136 97.9697 75.3872 93.8683 79.5049C92.9209 80.4227 92.1783 81.5304 91.6891 82.7554C91.2 83.9804 90.9754 85.295 91.03 86.6129C83.9621 87.5175 77.9188 96.1379 85.297 103.117C80.2993 105.04 81.6225 112.164 84.7292 116.597C87.8587 120.944 91.9783 120.31 97.0433 126.208C102.295 132.239 100.661 136.225 107.514 141.86C112.398 145.818 118.028 148.321 124.629 148.389C124.454 149.657 124.689 150.947 125.301 152.071C128.751 159.099 133.462 164.72 141.072 163.196C158.527 159.681 168.049 139.829 165.802 132.335ZM163.643 137.765C162.452 142.458 160.239 146.83 157.164 150.569C154.088 154.308 150.225 157.323 145.85 159.397C138.233 162.792 132.976 163.05 126.707 151.38C126.138 150.483 125.918 149.408 126.086 148.359C133.522 147.983 139.256 143.796 139.046 143.49C138.836 143.163 134.418 146.42 127.576 146.911C117.141 147.73 107.137 141.276 103.756 134.218C102.409 131.424 101.465 128.453 98.4529 124.993C93.3205 119.019 88.8897 119.199 86.2489 115.522C83.5808 111.729 82.1302 105.239 87.087 104.573C88.563 105.62 94.2505 108.982 95.8175 109.901C97.9497 111.123 98.5475 110.164 96.5355 108.77C91.0601 105.019 88.9571 103.781 87.6467 102.736C79.9808 96.6138 85.1733 89.1773 91.2557 87.8742C92.3932 92.9938 101.784 94.6327 111.124 100.871C110.128 102.09 109.286 103.427 108.617 104.852L110.3 105.64C113.228 99.3802 117.724 96.9041 117.378 96.3426C117.175 95.9923 114.588 97.2645 112.38 99.4776C106.665 95.6101 99.0935 92.699 95.0741 90.0773C91.7872 87.9033 92.4788 83.5253 95.1851 80.818C101.205 74.5945 117.48 79.18 124.996 83.639C133.111 88.4238 137.281 94.559 141.483 102.051C145.487 109.201 150.44 120.95 148.991 128.987C147.921 134.72 144.077 138.692 144.328 138.902C144.543 139.084 149.793 133.56 150.3 127.314C150.343 126.794 150.365 125.335 150.336 124.443C154.38 124.937 158.195 126.591 161.321 129.205C164.299 131.796 164.52 133.945 163.64 137.765H163.643Z" fill="#402E32"/>
    <path d="M91.405 161.69C88.129 152.513 80.4194 153.836 83.124 150.921C89.5913 143.947 86.6493 130.446 70.2356 123.348C72.8746 121.059 75.54 118.733 77.4674 115.823C82.9447 107.556 78.5785 99.4958 72.4169 99.5513C73.0614 98.2285 73.3158 96.7496 73.1506 95.2875C72.9853 93.8255 72.4071 92.4407 71.4836 91.2952C70.5602 90.1496 69.3296 89.2908 67.9359 88.819C66.5422 88.3473 65.0429 88.2822 63.6135 88.6313C62.2549 88.9698 62.0265 88.5985 61.9846 87.5939C61.8718 84.8784 59.3102 82.7472 56.6302 82.2931C50.5641 81.2639 34.6273 88.4038 25.1387 105.862C23.9944 107.829 23.1498 109.955 22.6326 112.171C20.9455 120.512 28.0016 142.45 45.9286 157.428C40.9964 158.81 40.5869 168.688 43.2104 172.154C44.0866 173.22 45.1851 174.081 46.4291 174.678C53.6654 178.495 62.386 177.621 70.4804 176.434C77.0269 175.473 90.3785 172.187 91.8399 165.696C92.0735 164.346 91.9228 162.958 91.405 161.69Z" fill="white"/>
    <path d="M75.3116 142.045C75.6492 146.398 73.4916 149.272 73.2532 149.116C72.9311 148.908 74.7374 146.673 74.3852 142.117C74.0804 138.173 72.3204 135.299 72.5934 135.164C72.8273 135.02 75.0013 138.035 75.3116 142.045Z" fill="#402E32"/>
    <path d="M28.8252 126.433C29.1355 126.314 31.1848 131.943 35.9432 139.271C40.778 146.718 45.0159 150.755 44.7702 150.996C44.6883 151.078 43.4207 150.004 41.5852 148.046C32.7227 138.577 28.4466 126.581 28.8252 126.433Z" fill="#402E32"/>
    <path d="M92.6171 162.156C92.0012 159.898 90.8639 157.816 89.2966 156.078C87.7294 154.339 85.776 152.993 83.5935 152.146C91.2803 144.658 85.9814 128.748 71.3613 123.481C72.9139 122.35 74.3216 121.032 75.5528 119.558C85.0632 108.683 80.3503 99.9352 73.6354 99.2937C75.2161 91.0882 68.7751 86.0295 62.8455 87.9251C62.5234 83.6007 58.1399 80.8689 53.4043 81.3731C40.8772 82.7271 24.4171 100.834 22.0366 111.721C19.8462 121.672 30.0537 146.761 44.7866 156.983C41.9237 158.948 40.5514 161.497 40.5833 165.341C40.6852 169.604 41.9819 173.234 45.8394 174.975C55.7411 179.511 70.1965 177.677 80.6205 174.988C88.2081 173.034 94.4134 169.72 92.6171 162.156ZM86.6502 170.474C80.2902 173.917 59.463 177.894 48.3947 173.75C45.6174 172.628 43.6363 171.442 42.9556 167.884C41.8154 162.308 43.5435 159.245 48.301 156.879C51.9 155.095 56.2671 154.322 56.2025 153.932C56.1452 153.588 50.2193 153.974 45.9386 156.292C31.8291 146.27 21.7417 121.521 23.8402 112.127C26.784 98.7495 51.3222 75.8585 59.9717 85.1086C61.6762 86.9031 61.6288 88.6776 60.5368 90.8589C58.579 94.4668 55.8603 97.606 52.5689 100.059L53.276 101.023C57.0424 98.3145 61.9091 93.082 62.74 89.2682C67.2809 87.9032 72.5243 91.1892 71.9737 97.7203C71.5924 103.241 67.1225 107.244 63.3005 110.787L64.0631 111.708C68.0453 108.692 71.961 105.247 73.3524 100.479C74.8049 100.714 76.1397 101.421 77.1506 102.49C78.1615 103.559 78.7922 104.931 78.9452 106.394C79.6532 111.84 75.6328 117.161 71.9255 121.211C70.5423 122.805 69.6969 122.763 69.767 122.959C69.3839 122.844 65.49 121.761 65.3744 122.134C65.1069 123.022 76.3918 124.979 82.2021 133.85C85.9832 139.541 86.9287 147.301 81.4095 151.595C75.5164 150.536 63.4643 152.652 63.5062 153.004C63.5717 153.558 72.8027 153.013 76.3372 153.08C78.762 153.017 81.1756 153.431 83.4406 154.299C89.3092 156.9 94.7538 166.177 86.6502 170.474Z" fill="#402E32"/>
    <path d="M28.6723 27.8259C29.2163 29.2296 30.2874 30.3651 31.6571 30.99C32.2392 30.9763 32.7984 30.7604 33.2387 30.3794C33.7587 29.6935 34.088 28.8822 34.1933 28.0279C33.9335 26.3111 33.5034 24.6245 32.9092 22.9929C34.3621 23.7439 35.5936 24.8612 36.4819 26.2343C39.5759 31.0318 39.6469 33.6272 38.9125 36.8158C37.4693 43.0802 31.2685 46.8367 24.7347 45.439C19.7243 44.367 16.5584 39.2146 16.6157 37.5265C17.6859 38.4163 18.9543 39.0358 20.3139 39.3329C21.0562 39.6206 21.85 39.7511 22.6453 39.7161C23.4405 39.6812 24.2199 39.4816 24.934 39.1299C25.2865 38.9842 25.59 38.7407 25.8088 38.4282C26.0276 38.1158 26.1526 37.7473 26.169 37.3662C26.1855 36.9851 26.0927 36.6073 25.9016 36.2771C25.7106 35.947 25.4291 35.6783 25.0905 35.5027C23.4352 34.3879 20.839 34.9785 19.8171 33.366C19.5585 32.7934 19.448 32.1649 19.4957 31.5384C19.5434 30.9119 19.7478 30.3075 20.0901 29.7806C20.5696 28.9743 24.5491 25.4499 18.7842 22.4633L19.5377 22.0665C21.0729 22.3659 22.7964 21.9337 24.1905 22.6416C24.7214 22.9663 25.2264 23.3314 25.7011 23.7336C26.5878 24.2077 27.3265 24.9171 27.836 25.7839C28.2421 26.4051 28.526 27.0982 28.6723 27.8259Z" fill="#FFC43B"/>
    <path d="M37.765 27.4501C35.581 23.9138 32.7036 22.6025 32.6199 22.7718C32.4379 22.8773 34.1951 25.752 33.6873 28.4911C33.3615 30.2829 31.9583 30.9236 30.9919 30.3357C29.2174 29.2919 28.8679 25.6465 26.5948 23.6709C22.8365 20.2766 18.0826 22.2576 18.2874 22.6626C18.2874 22.7627 18.7615 22.7854 19.4704 23.134C19.8747 23.3224 20.2353 23.5929 20.5295 23.9283C20.8236 24.2636 21.0448 24.6565 21.179 25.0819C21.3132 25.5073 21.3574 25.9559 21.3089 26.3993C21.2604 26.8428 21.1202 27.2712 20.8972 27.6576C20.2602 28.8196 18.8661 29.9326 18.746 31.647C18.5212 35.4226 22.9675 35.4071 23.9831 35.7165C27.2108 36.7002 25.7694 39.9162 20.8472 39.099C18.0107 38.6358 16.6348 37.198 16.4655 37.3891C16.3209 37.41 16.5638 40.5841 19.848 43.4406C30.03 52.2203 45.5309 40.3548 37.765 27.4501ZM38.7332 34.802C38.5067 40.6769 32.7382 45.7466 27.0134 45.2979C24.7522 45.1463 22.5805 44.356 20.7507 43.019C18.9209 41.682 17.5082 39.8531 16.6767 37.7449C19.5086 40.9672 26.9023 41.222 26.8878 37.2608C26.8878 35.2452 24.6128 34.5081 22.6108 34.1823C19.9954 33.75 19.4258 32.0256 20.2885 30.5186C21.041 29.1172 22.6972 27.734 22.1567 25.4435C22.0061 24.7113 21.6336 24.0432 21.09 23.53C20.5464 23.0168 19.8579 22.6834 19.1182 22.5752C20.1393 22.3861 21.1877 22.4006 22.2031 22.618C26.3372 23.5171 27.1262 26.3745 28.3838 28.9971C31.5506 35.3362 37.5075 29.6696 33.4034 23.5881C32.8874 22.8227 39.039 27.8059 38.7351 34.802H38.7332Z" fill="#402E32"/>
    <path d="M54.7329 20.7908C55.3699 21.395 55.2133 22.4015 55.1797 23.144C54.8912 29.5432 59.9626 27.3464 59.918 23.8493C60.9846 24.6528 61.0337 26.0806 61.2739 27.0516C61.6565 28.2161 61.7704 29.4522 61.607 30.667C61.0853 32.313 60.198 33.8196 59.0117 35.0741C51.0264 42.9493 41.4232 32.5261 43.6327 27.5939C44.3288 28.0489 44.5581 28.9426 45.0204 29.6323C46.2944 31.527 50.1801 30.7152 50.0573 29.3348C49.9663 28.2883 48.4238 27.795 47.7186 26.6257C47.4105 26.0269 47.3161 25.3409 47.451 24.6811C47.5859 24.0214 47.9419 23.4274 48.4602 22.9975C49.9162 21.7617 52.75 21.2157 50.4058 18.0835C51.3558 17.5339 54.0076 20.1001 54.7329 20.7908Z" fill="#FFC43B"/>
    <path d="M61.9419 28.16C61.5779 25.1497 59.898 23.1914 59.7142 23.347C59.4994 23.387 59.7069 24.681 59.0053 25.804C58.1526 27.169 55.7721 27.533 55.7384 24.6728C55.6756 21.5788 55.834 18.8334 51.1675 17.8952C50.3212 17.7132 50.1273 17.8151 50.5814 18.8488C51.597 21.1666 49.14 21.1575 47.6021 23.1504C47.1529 23.6665 46.8827 24.314 46.8319 24.9963C46.781 25.6786 46.9522 26.3591 47.32 26.936C48.0107 27.8979 49.3839 28.4903 49.3502 29.2356C49.4203 30.8736 45.8176 31.1111 44.1477 27.8014C43.9057 27.3 43.8138 26.9824 43.7209 26.9943C43.6591 26.9633 43.3333 27.401 43.1804 28.3438C42.3459 33.5171 48.3374 39.5641 54.7265 38.0708C56.9484 37.6159 58.9202 36.3473 60.255 34.5138C61.5899 32.6803 62.1915 30.4142 61.9419 28.16V28.16ZM48.2163 35.7867C46.9081 35.0213 45.8082 33.9457 45.0138 32.6549C44.2193 31.364 43.7547 29.8975 43.6609 28.3847C43.6518 26.3955 43.3497 30.071 46.602 31.2521C48.8861 32.0484 50.5014 30.8044 50.5641 29.2401C50.5805 27.3428 48.1426 26.8951 48.0389 25.4627C47.7368 22.4797 53.3578 21.8619 50.9982 18.6059C50.4795 17.9689 50.5077 18.0599 50.9982 18.3483C51.9555 18.8825 52.1621 18.9289 52.7072 19.2856C55.8795 21.3286 53.6172 24.5737 55.0086 26.8132C56.3818 29.1482 60.5705 27.7623 60.0573 24.1996C64.2005 33.1149 55.085 40.0264 48.2163 35.7867Z" fill="#402E32"/>
    <path d="M24.4926 90.2429C23.4471 88.6049 22.1785 87.0306 20.2857 86.5847C22.0047 90.4321 19.9436 92.0565 18.6259 91.0136C16.9806 89.7114 16.3281 84.609 12.3332 84.9803C11.5452 85.0531 10.6688 84.7446 9.83345 85.6319C9.66055 85.8139 9.8016 85.9395 10.0428 86.0068C11.7809 86.4909 12.7327 88.7796 11.4259 91.0564C11.0774 91.6634 10.5897 92.2949 10.7289 92.981C11.0811 94.71 14.4472 94.4116 15.2416 95.2324C17.0425 97.0933 12.6617 99.6504 9.30019 97.279C9.25909 97.568 9.33185 97.8616 9.50312 98.098C11.1256 100.935 15.1324 103.44 20.2411 101.637C25.3781 99.827 26.5365 93.457 24.4926 90.2429Z" fill="#FFC43B"/>
    <path d="M26.208 94.246C26.0151 88.1026 20.1192 85.8385 19.9663 86.3053C19.8143 86.4782 20.6543 87.1553 20.5423 88.8679C20.4905 89.6259 20.0646 90.798 19.4749 90.8553C18.6796 91.0574 18.0325 89.5113 17.7332 88.7487C17.1872 87.3646 16.7695 86.2835 15.4582 85.4163C14.6822 84.8793 13.7705 84.5719 12.8278 84.5294C11.8851 84.4869 10.9494 84.711 10.1283 85.176C9.12183 85.8267 9.62779 85.8285 10.3358 86.2553C10.8561 86.5578 11.2501 87.0374 11.4457 87.6066C11.6414 88.1757 11.6257 88.7963 11.4014 89.3547C11.0811 90.2302 9.25469 91.5451 10.364 93.5526C11.5315 95.7985 14.7056 94.6018 14.914 96.0924C15.0532 97.2208 13.003 98.6586 9.83891 97.2262C8.9462 96.804 8.56491 96.4719 9.37299 98.2109C10.0896 99.6347 11.179 100.838 12.5251 101.691C13.8711 102.545 15.4235 103.018 17.017 103.059C21.658 103.294 26.4419 99.19 26.208 94.246ZM22.6171 99.6696C19.0954 102.97 13.1468 102.946 9.53406 97.593C11.698 99.3966 14.7047 98.968 15.7503 97.3382C16.038 96.9202 16.1578 96.4091 16.0858 95.9068C16.0138 95.4045 15.7553 94.9477 15.3617 94.6273C13.933 93.4789 12.1485 94.2924 11.435 92.9784C10.707 91.6207 11.9974 90.9964 12.3751 89.6851C12.5308 89.2697 12.5913 88.8246 12.5522 88.3827C12.513 87.9409 12.3753 87.5134 12.149 87.1318C11.9228 86.7502 11.6138 86.4242 11.2449 86.1779C10.8759 85.9315 10.4564 85.7711 10.0173 85.7084C10.805 85.4105 11.6543 85.3128 12.489 85.4239C13.3238 85.5351 14.1179 85.8517 14.8002 86.3454C16.6766 87.7504 16.4992 90.838 18.4866 91.8254C19.9845 92.5998 21.5479 91.0919 21.4187 88.8633C21.2994 87.0106 20.1319 86.4227 21.0729 87.0524C25.4308 89.9817 26.6229 96.0159 22.6162 99.6696H22.6171Z" fill="#402E32"/>
    <path d="M120.243 133.747C121.49 132.648 122.325 131.155 122.609 129.517C125.118 119.441 120.823 109.764 118.431 102.469C116.485 96.5328 101.912 54.5063 100.748 51.8336C99.3165 48.5449 98.7832 45.2862 96.3563 42.4051C94.5596 40.1839 92.0532 38.6487 89.2583 38.0571C85.014 37.2754 70.3194 39.7779 65.2734 41.1375C52.558 44.5645 39.6023 45.2015 34.8949 47.9088C33.2716 48.9437 31.8976 50.3252 30.8716 51.9541C29.8456 53.5831 29.193 55.419 28.9608 57.33C28.2328 63.0002 33.3442 76.0697 33.9285 79.3848C34.0804 80.2456 33.9485 81.0919 34.1105 81.951C35.0277 86.7194 39.7042 93.3906 39.7042 96.3426C40.3139 98.4356 40.5705 100.552 41.4214 102.559C41.3977 102.493 41.4942 102.437 41.557 102.468C41.9082 102.635 42.6544 106.91 43.9039 109.333C47.5011 116.313 47.5293 118.276 49.2729 122.917C50.4131 125.959 51.9173 128.858 52.9493 131.937C53.6964 134.166 54.1932 136.487 55.116 138.645C57.7695 144.866 61.7808 145.337 67.8778 144.596C79.9199 143.134 81.2694 143.171 83.5735 141.842C84.6764 142.414 84.1514 142.246 110.004 137.553C113.371 136.944 117.61 136.03 120.243 133.747Z" fill="#FFAA9C"/>
    <path d="M109.614 104.705C107.703 99.5604 111.358 107.617 101.293 81.6361C99.1472 76.096 92.7344 56.4291 91.2102 53.4397C90.8196 52.7845 90.5617 52.0588 90.4513 51.304C90.2253 50.6391 89.8339 50.0427 89.3138 49.571C88.7936 49.0993 88.162 48.7677 87.4783 48.6076C86.1883 48.3857 84.8649 48.4569 83.6062 48.816C48.1717 56.1515 47.2062 54.913 44.0149 59.2947C42.1421 61.8681 43.9102 61.4004 55.9859 99.9171C56.4054 101.255 57.3263 102.465 57.7986 103.815C58.7796 106.616 57.8632 105.172 61.6397 115.695C64.883 124.734 63.6499 123.386 64.7492 125.453C65.3611 126.578 66.3396 127.46 67.522 127.951C68.9144 128.451 70.4353 128.463 71.8354 127.985C75.8439 127.013 88.3273 125.346 88.7277 125.284C90.4276 125.038 90.4767 124.588 101.559 122.7C110.357 121.2 110.67 121.107 111.316 120.711C112.301 119.926 113.03 118.864 113.409 117.662C113.684 116.025 110.182 106.23 109.614 104.705Z" fill="#FFF4CC"/>
    <path d="M77.0087 56.2217C81.5724 54.975 80.7334 55.7585 83.4597 55.2807C84.2551 55.1415 84.6427 54.4617 86.5792 55.743C88.5694 57.0525 90.8316 67.5821 93.9748 74.9058C94.5708 76.2945 94.7674 77.6676 95.2679 79.0918C97.8332 86.3982 99.1263 88.3738 98.8842 90.0282C98.4456 93.0312 95.1532 92.9202 92.5452 93.6909C88.1217 94.9995 83.4142 95.1724 79.0235 96.5884C78.7973 96.6161 78.5697 96.6298 78.3419 96.6293C77.7959 96.7203 71.0364 98.5794 64.7947 99.5814C60.8635 100.213 59.5495 93.2942 58.1845 88.4193C57.684 86.6284 51.344 70.5096 51.2157 68.6468C51.0792 68.4493 50.6952 68.6641 50.7916 68.8834C50.8881 69.1027 51.3058 68.9644 51.2521 68.7305C50.6924 66.3172 49.504 64.944 50.6797 62.7582C52.3177 59.7133 55.4781 60.8053 66.4072 58.3802C72.9356 56.9333 73.5344 57.1699 77.0087 56.2217Z" fill="#FFC43B"/>
    <path d="M98.5139 97.946C99.2792 98.947 101.74 97.4301 103.707 103.492C109.329 120.817 108.872 113.664 73.8993 122.011C72.0593 122.451 70.6051 122.477 69.2428 120.539C68.1981 119.054 66.6702 113.819 66.0423 111.741C63.1394 102.123 70.0564 104.552 78.1945 102.218C78.2382 102.205 96.1069 98.3801 98.5139 97.946Z" fill="#3A5AFF"/>
    <path d="M60.4058 97.34L49.686 65.8513C49.5144 65.3088 49.4581 64.7364 49.5207 64.1708C49.5834 63.6053 49.7636 63.0591 50.0498 62.5673C50.336 62.0755 50.7219 61.649 51.1827 61.3152C51.6434 60.9813 52.1689 60.7475 52.7254 60.6288L83.5817 54.5827C84.548 54.3799 85.5551 54.534 86.4165 55.0165C87.278 55.499 87.9354 56.2772 88.2673 57.2072C100.204 91.1938 99.8297 89.393 98.6895 91.4232C97.4428 93.6481 98.1635 93.0512 65.146 100.106C64.153 100.322 63.1153 100.157 62.2377 99.6453C61.3601 99.1332 60.7065 98.3106 60.4058 97.34ZM50.8508 63.033C49.8216 64.7947 50.2138 63.2041 61.2903 97.0542C61.5241 97.803 62.0282 98.4378 62.7045 98.8352C63.3807 99.2325 64.1807 99.3639 64.9485 99.2037L95.7739 92.5188C96.2135 92.4261 96.6283 92.2405 96.9904 91.9744C97.3525 91.7083 97.6535 91.3679 97.8734 90.976C98.0932 90.5841 98.2267 90.1498 98.265 89.7021C98.3032 89.2544 98.2454 88.8037 98.0953 88.3801C90.7825 67.613 106.222 111.139 87.3855 57.512C87.1265 56.7953 86.6175 56.1962 85.9521 55.8247C85.2868 55.4533 84.5097 55.3344 83.7637 55.49C50.8936 62.2058 51.87 61.2849 50.8499 63.0303L50.8508 63.033Z" fill="#402E32"/>
    <path d="M90.4149 50.1046C89.2931 49.0067 87.798 48.3729 86.2289 48.3301C85.3808 48.3028 87.6212 47.7159 49.0581 55.3881C47.7151 55.5117 46.43 55.9938 45.3371 56.784C44.5144 57.4252 43.8737 58.2704 43.4784 59.2356C43.0832 60.2009 42.9472 61.2527 43.084 62.2868C43.2114 63.2796 63.9375 125.052 64.2023 125.532C64.8759 126.899 66.0455 127.959 67.4729 128.494C69.4567 129.243 70.7352 128.789 72.9329 128.391C104.419 122.685 117.099 119.774 86.4655 125.059C68.877 128.094 69.574 128.224 67.8369 127.554C65.7593 126.753 65.1551 125.279 64.6719 123.823C44.5318 63.063 44.2979 63.1868 44.1659 62.1339C44.057 61.2907 44.1697 60.4338 44.4928 59.6474C44.816 58.861 45.3384 58.1724 46.0087 57.6494C47.4083 56.5902 45.0505 57.2763 82.6071 50.0054C84.65 49.6105 86.6029 48.978 88.2218 49.888C90.1173 50.9546 89.453 50.2238 92.031 57.2709C115.059 120.213 113.533 116.785 112.796 118.464C111.753 120.845 109.626 120.907 108.538 121.169C97.421 123.85 110.159 121.438 111.144 120.963C112.184 120.439 112.996 119.553 113.428 118.472C113.86 117.391 113.881 116.189 113.487 115.093C105.486 91.6225 90.9945 50.8799 90.4149 50.1046Z" fill="#402E32"/>
    <path d="M72.4897 122.696C71.501 122.696 70.5391 122.375 69.7479 121.782C68.9567 121.189 68.3788 120.356 68.1008 119.407L64.9649 109.611C64.7685 109.005 64.702 108.364 64.7697 107.73C64.8374 107.096 65.0377 106.483 65.3577 105.932C65.6777 105.381 66.1102 104.903 66.627 104.529C67.1438 104.156 67.7334 103.896 68.3574 103.765L97.8159 97.8013C98.9187 97.5883 100.061 97.7824 101.032 98.3477C102.002 98.9129 102.735 99.811 103.094 100.875C104.782 105.718 104.063 103.432 106.679 111.027C106.884 111.623 106.96 112.255 106.903 112.883C106.845 113.51 106.655 114.118 106.345 114.666C106.034 115.215 105.611 115.691 105.103 116.063C104.595 116.436 104.014 116.696 103.398 116.828C99.958 117.558 73.4088 122.696 72.4897 122.696ZM98.7204 98.644C98.1817 98.644 100.194 98.3082 68.5412 104.679C68.0447 104.784 67.5758 104.992 67.1651 105.29C66.7544 105.589 66.4111 105.97 66.1575 106.409C65.9039 106.849 65.7458 107.337 65.6933 107.842C65.6409 108.347 65.6953 108.857 65.8531 109.339L68.988 119.135C69.2496 120.021 69.8349 120.775 70.6275 121.248C71.42 121.721 72.3617 121.878 73.265 121.689C103.319 115.707 97.9733 117.032 103.204 115.921C103.691 115.817 104.151 115.611 104.553 115.317C104.955 115.022 105.289 114.645 105.535 114.211C105.78 113.778 105.931 113.297 105.976 112.801C106.022 112.304 105.961 111.804 105.799 111.333C103.177 103.72 103.908 106.038 102.216 101.184C101.969 100.45 101.5 99.8105 100.874 99.3553C100.248 98.9 99.4948 98.6514 98.7204 98.644V98.644Z" fill="#402E32"/>
    <path d="M124.422 120.335C123.543 111.152 116.742 96.3708 102.388 53.8984C99.8725 46.4737 98.0106 42.0065 93.6017 38.9935C88.27 35.328 83.5771 36.6958 42.7609 45.0787C38.6959 45.9123 35.8158 46.2189 32.416 49.1318C30.9166 50.3537 29.7518 51.9362 29.0308 53.731C27.5666 58.4703 29.1173 65.7712 30.3257 70.566C32.9201 80.707 50.2884 128.609 55.0878 140.561C55.8868 142.378 57.2421 143.894 58.9583 144.89C60.6745 145.886 62.6627 146.312 64.6364 146.105C71.0064 145.281 113.641 137.946 114.024 137.843C120.651 136.173 125.382 130.054 124.422 120.335ZM37.8351 48.1964C39.817 46.8241 38.8961 47.2445 54.0021 44.1723C59.7588 43.003 84.9794 37.2281 90.4676 38.8634C92.9053 40.0596 95.0041 41.848 96.5719 44.065C99.3301 48.3238 102.448 59.5996 104.417 65.0632C117.243 101.202 126.923 125.619 121.188 127.255C110.279 129.465 78.5166 135.278 67.5793 136.802C61.2275 137.712 60.4012 133.258 58.9844 129.496C55.8977 121.312 33.1922 62.6772 34.5126 53.8957C34.5986 52.7561 34.9423 51.6509 35.5178 50.6636C36.0934 49.6763 36.8857 48.8326 37.8351 48.1964V48.1964ZM106.165 137.353C61.1201 145.162 62.9083 145.259 59.8216 143.473C56.7603 141.736 56.3163 139.185 54.6291 134.803C29.6523 68.9525 23.4844 53.9494 36.5656 48.0799C30.3357 53.3197 34.5636 63.346 44.003 91.2739C50.5924 110.277 59.4421 133.658 60.323 134.885C61.105 136.079 62.2231 137.014 63.5362 137.574C64.8492 138.133 66.2985 138.291 67.7013 138.028C76.4609 136.775 121.868 127.971 121.96 127.952C119.218 136.556 111.803 136.336 106.165 137.353V137.353Z" fill="#402E32"/>
    <path d="M55.5327 77.0706C56.2344 78.9643 57.0424 81.2348 59.2028 81.8645C59.8174 82.0364 60.4661 82.0462 61.0857 81.893C61.7052 81.7397 62.2745 81.4286 62.7381 80.99C63.154 86.217 63.1021 86.8267 63.5862 87.5238C63.7535 87.7949 64.0172 87.9926 64.3244 88.077C64.6315 88.1614 64.9592 88.1263 65.2415 87.9788C63.5817 89.1418 61.5879 95.7211 62.6744 98.7696C62.9982 99.005 63.3701 99.1659 63.7635 99.2406C64.1568 99.3154 64.5618 99.3021 64.9494 99.2018C98.5794 92.0219 96.1879 92.5352 96.9323 92.0128C96.6365 89.5731 95.0213 86.875 91.3358 84.9012C90.3029 84.347 92.1712 83.9056 90.4331 80.1C90.0031 79.1059 89.5129 78.1389 88.9652 77.2044C88.0616 75.732 89.1845 75.8685 89.5431 74.9958C89.7585 74.3408 89.7223 73.6291 89.4417 72.9993C89.1612 72.3695 88.6562 71.8667 88.0252 71.5888C89.2737 70.1919 90.6733 69.8762 89.9644 66.8468C89.2628 63.852 87.3409 61.6343 84.3388 62.7855C83.9284 61.395 82.4924 60.6333 81.3276 59.7715C81.0109 59.5358 81.0009 59.413 81.081 59.0435C81.317 58.0459 81.1946 56.997 80.7352 56.0806C80.1492 56.1952 80.3184 56.3335 80.1592 55.5218C79.3183 55.0668 78.8024 55.5218 78.361 56.3099C76.1242 60.2948 77.9306 57.462 77.1143 55.4381C77.0754 55.3044 77.009 55.1802 76.9194 55.0736C76.8298 54.967 76.7189 54.8803 76.5939 54.8189C76.4688 54.7576 76.3324 54.7231 76.1932 54.7175C76.0541 54.7119 75.9153 54.7354 75.7857 54.7866C73.6927 55.2306 73.2277 57.3345 67.7186 61.273C64.3725 63.6654 58.8561 65.3917 59.7015 71.1875C57.1735 70.6569 54.1395 73.3096 55.5327 77.0706Z" fill="white"/>
    <path d="M86.1233 89.8106C84.4116 90.6123 83.4943 91.8572 80.7179 92.4178C78.2955 92.9073 76.753 92.2166 74.6546 92.4178C70.7862 92.7936 70.5195 96.9004 70.9145 96.7858C71.0646 96.7921 71.1875 93.386 74.7174 93.0329C76.6429 92.84 78.3792 93.5207 80.838 93.0211C85.2752 92.1193 86.8959 88.1426 90.0236 91.0573C90.8053 91.7853 91.1665 92.3868 91.2512 92.3313C91.455 92.2312 89.453 88.25 86.1233 89.8106Z" fill="#402E32"/>
    <path d="M91.3949 84.4608C91.951 81.6316 90.5623 78.5576 88.9125 76.2216C89.3319 75.9714 89.673 75.6089 89.8973 75.175C90.1216 74.7412 90.2201 74.2532 90.1816 73.7663C90.1432 73.2795 89.9694 72.813 89.6798 72.4197C89.3903 72.0264 88.9965 71.7219 88.543 71.5406C92.7809 68.9926 89.1654 60.273 84.6837 62.4306C84.1124 61.5554 83.4027 60.7788 82.5825 60.131C81.2949 59.1382 81.4978 59.7998 81.5296 58.503C81.6152 54.954 79.0945 53.5089 77.6276 57.0643C77.6255 56.5438 77.5669 56.0251 77.4528 55.5173C77.4039 55.286 77.304 55.0686 77.1604 54.8809C77.0168 54.6931 76.8331 54.5398 76.6227 54.432C76.4124 54.3243 76.1806 54.2648 75.9443 54.258C75.7081 54.2512 75.4733 54.2971 75.257 54.3925C73.9775 54.8475 73.1731 55.9677 72.2021 56.865C67.0916 61.5915 63.3697 63.326 61.7371 64.6391C60.7845 65.3518 60.0509 66.3174 59.62 67.4263C59.189 68.5352 59.0779 69.7428 59.2992 70.9118C55.8831 70.616 52.416 74.256 56.4555 80.2347C58.3155 82.9447 61.0373 83.0129 62.3705 81.6725C62.5582 83.243 62.6557 84.8229 62.6626 86.4045C62.6768 86.8949 62.8705 87.363 63.207 87.72C63.5435 88.0769 63.9994 88.2979 64.4881 88.341C64.7847 88.3537 64.5654 88.1854 63.7601 89.5841C61.7026 93.0721 62.2058 96.7212 62.4861 96.7012C62.8992 96.672 62.4178 91.8472 66.1479 87.9379C66.4609 91.7535 70.272 92.0593 71.1793 87.0351C71.7645 88.1804 72.7747 89.0511 73.9938 89.461C75.2129 89.8709 76.5439 89.7873 77.7022 89.2282C82.8828 92.1302 89.5977 89.5922 91.1702 85.2889C94.5727 86.6065 96.2261 90.7343 96.4536 90.6742C97.0187 90.5632 95.2342 85.631 91.3949 84.4608ZM87.7886 71.2357C86.8704 70.9236 87.0078 70.9991 86.9769 70.7061C88.695 69.7433 88.7805 66.2635 86.4364 66.1142C85.9814 66.1142 86.2352 66.3226 85.8476 65.0222C85.9675 64.925 86.1089 64.8577 86.2601 64.8261C86.4112 64.7944 86.5677 64.7993 86.7166 64.8402C86.9896 64.8994 87.1343 65.0013 87.1589 64.9686C87.2681 64.8685 86.4209 64.2742 85.7375 64.6746C85.5549 64.0927 85.3144 63.5305 85.0195 62.9966C88.7851 61.8281 91.3904 69.1373 87.7886 71.2357ZM86.9096 70.1892C86.7594 69.1819 86.4445 67.5985 86.2352 66.5902C88.0452 66.5774 88.0689 69.1209 86.9096 70.1892V70.1892ZM84.8238 64.6437C85.4435 66.1907 86.0742 69.1737 86.7348 70.8426C84.9485 70.0627 85.8904 69.3466 84.6782 68.5394C84.822 67.0215 83.7682 64.8275 83.1667 63.8847C84.5954 63.9676 84.175 63.0075 84.8238 64.6437V64.6437ZM60.4468 67.886C61.5752 64.7629 64.2806 64.883 70.7516 59.403C73.7783 56.8495 75.227 54.5327 76.309 55.1351C77.8915 55.8003 76.1989 63.3924 77.31 59.5522C77.7313 58.0698 77.2117 58.5512 78.483 56.6084C79.484 55.1014 80.7661 55.6747 80.6351 58.4766C80.575 59.7506 80.3949 59.7415 81.0746 60.2193C82.2827 60.967 83.3086 61.9749 84.0776 63.1695C83.6372 63.2586 83.1892 63.3046 82.7399 63.3069C80.2902 60.5014 77.7195 63.2514 75.4272 64.1496C71.9919 65.5246 68.4648 65.7484 67.158 67.5357C65.0775 69.1038 62.755 70.3219 60.2821 71.142C60.0394 70.0619 60.0963 68.9361 60.4468 67.886V67.886ZM60.5678 75.075C60.9873 76.2662 61.3813 77.4729 61.7117 78.6895C61.5078 78.8495 61.2679 78.9573 61.0129 79.0035C60.7578 79.0496 60.4954 79.0327 60.2484 78.9543C58.7059 78.4602 58.5321 75.4781 60.5678 75.075V75.075ZM62.2194 80.8781C61.8096 81.3413 61.2495 81.645 60.6377 81.7357C60.026 81.8265 59.4018 81.6984 58.8752 81.374C57.5748 80.6733 56.6976 79.0426 55.9768 77.3236C54.4981 73.7046 56.9423 71.4314 59.4285 71.5761C60.2256 75.0714 60.9454 73.9994 59.0272 74.2069C56.8786 74.4116 57.0616 76.6357 57.3063 76.5347C57.4283 76.5447 56.824 74.3352 60.0409 74.6355C60.1173 74.6428 60.1574 74.701 60.0946 74.6892C58.0971 75.1041 57.9652 78.7751 60.0946 79.4376C60.3872 79.5262 60.6959 79.5481 60.9981 79.5018C61.3003 79.4555 61.5882 79.3421 61.8409 79.17C62.0058 79.7292 62.1323 80.2989 62.2194 80.8754V80.8781ZM60.3876 71.5961C61.6699 71.2653 62.9133 70.7989 64.0968 70.2047C67.4592 68.5039 66.5538 67.7477 66.4336 69.8589C66.3581 71.8163 66.6357 74.3179 67.9215 75.8048C66.5871 77.6236 64.9568 79.2053 63.0985 80.4841C62.2822 76.4846 60.879 73.5617 60.3876 71.5924V71.5961ZM77.1525 87.916C70.4895 82.8837 75.3152 76.0669 75.0359 75.8977C74.227 76.9495 73.6484 78.1596 73.3375 79.4495C73.0266 80.7395 72.9904 82.0803 73.2313 83.3851C73.7349 85.537 75.0177 87.4261 76.8322 88.6877C76.2374 88.8459 75.6167 88.8817 75.0077 88.7929C74.3987 88.704 73.8141 88.4924 73.2893 88.1708C72.7645 87.8493 72.3106 87.4245 71.9549 86.9222C71.5992 86.4199 71.3493 85.8506 71.2202 85.2488C70.9827 83.9985 70.8872 85.8594 70.5286 86.9724C70.2447 87.8205 69.5513 89.4876 68.7223 89.8161C67.8323 90.1701 67.2099 89.12 67.0725 88.1508C66.6175 85.2288 67.0233 87.0588 67.5539 84.2906C67.6758 83.5872 67.6367 83.1886 67.5784 83.1831C67.5202 83.1777 67.4265 83.5535 67.2035 84.2014C66.9582 85.0336 66.5614 85.8135 66.0332 86.5019V86.5228C64.873 88.0889 63.6418 87.7704 63.5025 86.2899C63.5664 84.5075 63.4604 82.7231 63.1859 80.9609C65.2616 79.8204 67.0097 78.1659 68.2627 76.1561C68.8443 76.7084 69.5925 77.0524 70.3903 77.1343C71.6789 77.2162 72.3468 76.3153 73.2031 75.5418C73.4825 75.2825 73.7828 75.0404 74.0485 74.752C74.1151 74.9811 74.2331 75.192 74.3937 75.3685C74.5542 75.545 74.7531 75.6824 74.9749 75.7703C76.5465 76.3317 77.9615 75.2497 78.6913 75.0805C79.8043 74.8239 80.414 75.975 80.5377 75.8731C80.428 75.4577 80.1709 75.0964 79.8145 74.8564C79.458 74.6165 79.0265 74.5144 78.6003 74.5691C77.7886 74.6673 76.369 75.5509 75.2779 75.0614C75.0412 74.9054 74.8716 74.6663 74.8027 74.3913C74.7338 74.1163 74.7706 73.8254 74.9057 73.5762C75.3908 72.2431 77.481 71.3786 78.7651 70.6342C80.3676 69.7051 81.9355 68.9261 83.4306 69.0372C84.1695 69.0435 84.6273 69.3957 84.7046 69.9635C84.8921 71.3513 83.4961 71.9847 82.9147 72.5179C82.7432 72.653 82.6062 72.8266 82.5148 73.0248C82.4233 73.2229 82.3801 73.4398 82.3885 73.6579C82.3969 73.8759 82.4568 74.0889 82.5633 74.2793C82.6698 74.4698 82.8198 74.6324 83.0011 74.7538C83.083 74.7165 82.8191 74.3679 82.7554 73.7655C82.6589 72.578 85.1742 72.5944 85.4563 70.3812C86.3426 72.011 90.1228 71.9282 89.2464 74.5008C88.584 76.44 77.3427 80.1282 76.1879 84.7529C76.0551 85.2825 76.0059 85.2534 76.3454 84.7938C78.0671 82.4642 76.4964 84.2005 80.0573 86.0778C84.994 88.6704 90.4695 84.903 87.3181 79.6305C87.6025 79.4025 87.8243 79.106 87.9629 78.769C88.1016 78.4319 88.1524 78.0652 88.1108 77.7031C88.0862 76.6284 87.8596 76.9123 88.24 76.6793C95.5946 87.5165 83.7482 92.294 77.1525 87.916ZM86.7494 84.4398C85.3762 86.1989 82.9274 86.3399 80.8599 85.5136C82.0101 83.6818 85.9513 83.1795 86.7494 84.4398V84.4398ZM80.9409 80.7598C82.0957 80.0318 83.0575 79.5031 84.2551 78.8706C84.8011 79.6569 84.1049 80.9518 83.305 81.2748C82.9021 81.418 82.4672 81.4457 82.0495 81.3547C81.6317 81.2636 81.2477 81.0576 80.9409 80.7598V80.7598ZM84.7965 78.5849C85.742 78.0871 86.6875 77.5912 87.6175 77.0506C87.8951 79.6614 85.9504 80.1555 84.7965 78.5849V78.5849ZM78.1435 83.6463C77.9952 83.4889 77.8596 83.3324 77.7377 83.1786C78.5462 82.4141 79.4263 81.7291 80.3657 81.1329C80.5662 81.4527 80.6578 81.8289 80.6268 82.2051C80.5958 82.5812 80.444 82.9373 80.194 83.2201C79.944 83.5029 79.6092 83.6972 79.2396 83.774C78.87 83.8508 78.4855 83.806 78.1435 83.6463Z" fill="#402E32"/>
    <path d="M87.2581 17.108C94.347 21.021 95.6874 24.024 94.0831 32.2049C93.3982 35.5286 91.9099 38.634 89.7481 41.2498C87.5863 43.8656 84.8168 45.9122 81.6816 47.2108C80.6673 47.6851 79.5675 47.9494 78.4484 47.9877C77.3293 48.026 76.214 47.8376 75.1696 47.4338C64.3115 44.1086 62.9866 38.5749 66.3745 28.7378C68.8715 21.4969 76.3818 16.2617 80.262 15.9296C82.6427 15.9377 85.006 16.3358 87.2581 17.108Z" fill="#FFF4CC"/>
    <path fill-rule="evenodd" clip-rule="evenodd" d="M76.3914 25.4363L77.1214 30.0582L75.9045 29.2026L73.6996 32.9694L72.4827 32.1138L76.3914 25.4363ZM77.0582 35.331L76.3282 30.709L77.5451 31.5646L79.7501 27.7978L80.967 28.6534L77.0582 35.331Z" fill="#402E32"/>
    <path d="M95.4681 25.1452C93.5225 18.5258 83.3997 10.2849 73.023 18.5313C65.975 24.2415 60.1674 38.3356 67.067 44.0286C69.5959 46.0615 75.5528 48.9135 78.2764 48.888C88.139 48.8361 97.3755 33.5372 95.4681 25.1452ZM94.135 26.8642C92.8127 26.1489 92.1539 25.8886 92.0611 25.7958C91.1611 25.2662 90.0591 24.5409 89.2901 24.1806C89.356 22.992 89.1803 21.8025 88.7736 20.6837C88.367 19.5649 87.7378 18.5402 86.9241 17.6713C90.2775 19.3285 94.185 23.1941 94.135 26.8642ZM66.703 41.7918C63.9348 37.391 65.4618 31.1757 67.7386 26.7586C71.9546 18.5786 80.5195 14.2543 85.348 17.371C95.146 23.5882 78.5458 54.8876 66.703 41.7918ZM72.5152 45.6356C74.7214 45.7741 76.9122 45.1849 78.7514 43.9585C79.975 44.7819 81.2424 45.5383 82.5479 46.2244C78.6895 48.1236 76.44 47.4565 72.517 45.6356H72.5152ZM83.7855 45.5446C81.6652 45.1679 81.0965 45.0359 79.7242 43.2533C81.1651 42.0678 82.4524 40.7072 83.5562 39.2029C85.9031 40.4059 84.7865 39.2074 88.068 41.8528C86.8344 43.2902 85.3914 44.5335 83.7874 45.541L83.7855 45.5446ZM88.816 40.95C84.8957 39.2074 87.229 40.3986 84.266 38.2082C85.5458 36.342 86.6238 34.3452 87.482 32.2514C91.0364 33.954 89.3247 32.8565 92.2476 35.1861C91.3513 37.2444 90.1982 39.181 88.816 40.95ZM92.689 34.125C88.867 32.4079 90.1628 32.7246 87.927 31.1129C88.6142 29.271 89.0551 27.3464 89.2383 25.389C91.7535 26.0124 92.2021 26.3427 94.1031 28.1909C93.9204 30.227 93.4435 32.2258 92.6872 34.125H92.689Z" fill="#402E32"/>
    <path d="M83.386 34.2853C78.078 43.489 70.9018 43.6437 68.4693 40.3131C65.0577 35.6475 69.8343 26.4065 70.2247 26.6303C70.3157 26.6831 65.8367 35.5402 69.0818 39.8454C70.6005 41.8601 74.62 42.4425 78.675 38.7606C85.0568 32.9703 88.634 20.4897 81.172 19.3003C77.9552 18.7871 75.7721 20.3805 73.7637 22.3206C72.5056 23.6312 71.3461 25.0331 70.2948 26.5148C71.0178 24.8083 72.069 23.2605 73.3888 21.9593C81.294 13.6583 91.233 20.678 83.386 34.2853Z" fill="#402E32"/>
    <path d="M34.7857 82.6279C48.2537 78.9561 38.0617 47.622 23.5444 52.0182C20.4474 53.1871 17.6717 55.0739 15.4454 57.5237C12.9256 60.5367 12.8974 62.9765 13.3934 66.0413C14.1098 70.5852 15.7718 74.9282 18.2719 78.7895C19.8962 81.0081 23.9758 85.0913 27.4538 85.3488C31.2075 85.6309 35.5583 81.8408 34.7857 82.6279Z" fill="#FFF4CC"/>
    <path fill-rule="evenodd" clip-rule="evenodd" d="M27.0512 63.5591L31.043 66.0006L29.6025 66.3721L31.0401 70.4933L29.5996 70.8648L27.0512 63.5591ZM35.0158 69.468L31.024 67.0264L32.4645 66.6549L31.0269 62.5338L32.4673 62.1623L35.0158 69.468Z" fill="#402E32"/>
    <path d="M23.67 69.4102C17.6321 55.3744 28.614 48.0198 35.5227 61.3859C35.9422 62.0791 36.2493 62.8343 36.4327 63.6236C36.3654 63.6536 36.0078 62.8728 35.207 61.5624C29.6041 52.3887 23.468 54.0367 22.912 60.4313C22.3578 66.7849 27.9224 78.9116 34.1468 77.9379C36.4473 77.5739 37.3546 75.2725 37.714 72.9875C38.5694 67.5593 36.3545 64.4335 36.7185 64.2924C37.1292 64.989 37.4595 65.7299 37.7031 66.501C41.8682 79.5012 30.3294 84.8912 23.67 69.4102Z" fill="#402E32"/>
    <path d="M41.6279 69.4957C40.2265 58.9953 32.8009 48.4747 23.0812 51.374C19.5796 52.4205 14.0167 56.3299 12.8956 59.8097C9.68604 69.2509 21.6635 91.0536 32.6008 84.8411C37.7513 81.9955 43.0621 80.636 41.6279 69.4957ZM20.5997 54.074C22.79 52.8473 19.2429 54.2168 19.0527 60.626C18.7014 60.8216 19.4376 60.353 13.7201 64.2141C13.559 60.6697 14.3898 57.6557 20.5997 54.074ZM13.832 65.5536C15.8094 63.3532 16.3609 62.9146 19.0518 61.9136C19.1095 63.9353 19.412 65.9425 19.9527 67.8914C19.2347 68.34 18.2537 69.1317 17.4411 69.7187C17.3501 69.7187 15.2871 71.0946 15.1961 71.1574C14.5337 69.3462 14.0762 67.4666 13.832 65.5536V65.5536ZM19.3129 78.9743C17.8084 76.9081 16.5685 74.6618 15.622 72.2876C17.3892 70.2465 17.7377 69.9216 20.2875 69.0116C20.9869 71.2134 22.0038 73.3014 23.306 75.2096C21.5916 77.4482 22.0502 77.6075 19.3084 78.9743H19.3129ZM20.0009 79.8361C20.9609 78.9588 21.6862 78.0989 21.7781 78.0989C22.5134 77.4755 23.5144 76.7539 24.0531 76.2179C25.371 77.9274 27.0193 79.3543 28.8998 80.4139C27.1389 82.7799 27.0962 82.7062 24.5636 83.6408C22.824 82.6587 21.2766 81.3697 19.9963 79.8361H20.0009ZM31.961 83.6899C31.046 84.2339 30.0195 84.5631 28.9588 84.6526C27.8981 84.7421 26.8309 84.5897 25.8376 84.2068C26.3518 83.81 26.9233 83.3223 27.4174 82.9328C30.3476 80.8744 30.0837 81.08 29.8808 80.9026C35.3207 83.3423 37.8269 80.11 31.9565 83.6899H31.961ZM31.081 80.4813C20.2702 76.531 16.4446 57.0433 23.4079 52.8528C39.9308 47.9924 47.7877 87.1998 31.0765 80.4813H31.081Z" fill="#402E32"/>
    <path d="M149.405 111.281C154.254 106.425 156.255 102.371 152.922 96.8822C150.933 93.6062 149.163 90.029 145.733 88.321C140.916 85.9231 135.105 83.528 130.287 86.6975C128.096 88.1381 120.86 96.1251 123.798 101.828C125.585 105.297 127.402 108.481 130.236 111.162C133.996 114.716 138.881 116.792 143.977 116.167C147.833 115.688 148.067 112.62 149.405 111.281Z" fill="#FFF4CC"/>
    <path fill-rule="evenodd" clip-rule="evenodd" d="M135.787 96.2691L140.973 96.8039L139.704 97.8699L143.13 101.321L141.861 102.387L135.787 96.2691ZM146.633 98.3789L141.447 97.8441L142.716 96.7781L139.29 93.327L140.559 92.261L146.633 98.3789Z" fill="#402E32"/>
    <path d="M155.064 100.779C152.365 87.6021 134.225 77.8414 125.607 90.2056C119.194 99.3202 123.001 104.22 130.612 112.123C132.185 113.613 134.031 114.783 136.05 115.57C138.774 116.642 141.691 117.135 144.616 117.016C147.477 116.693 148.529 114.488 151.502 110.373C153.972 106.925 155.894 104.847 155.064 100.779ZM152.488 97.9688C154.513 102.39 153.927 104.339 151.965 107.196C144.799 116.213 130.37 104.029 127.88 96.1688C123.866 83.2068 144.977 81.5069 152.483 97.9688H152.488ZM127.056 90.5978C126.364 92.9578 126.539 95.4878 127.551 97.7295C126.215 100.783 126.59 100.264 124.457 102.422C122.592 98.2355 124.287 94.2442 127.051 90.5969L127.056 90.5978ZM125.036 103.58C125.408 102.987 126.353 101.157 126.616 100.894C127.078 100.288 127.698 99.5968 128.157 99.0071C129.022 100.594 130.074 102.071 131.292 103.407C130.109 105.192 131.14 104.76 128.107 107.963C126.949 106.601 125.92 105.133 125.034 103.579L125.036 103.58ZM128.871 108.863C129.019 108.601 129.998 106.652 130.217 106.434C130.781 105.668 131.664 104.861 132.143 104.315C133.605 105.8 135.214 107.135 136.943 108.298C135.951 110.993 135.971 110.954 133.723 113.093C131.915 111.916 130.281 110.492 128.867 108.862L128.871 108.863ZM134.766 113.672C135.51 112.549 136.148 111.215 136.24 111.215C136.758 110.469 137.469 109.594 137.917 108.924C139.556 110.021 141.398 110.779 143.335 111.153C142.274 113.624 142.619 113.099 140.713 115.498C138.642 115.219 136.632 114.602 134.761 113.671L134.766 113.672ZM148.481 112.125C146.082 115.5 145.767 115.965 141.866 115.63C143.128 112.603 143.059 113.493 144.605 111.299C149.818 111.583 151.606 107.697 148.476 112.121L148.481 112.125Z" fill="#402E32"/>
    <path d="M135.135 103.537C128.091 97.5075 127.811 89.5231 132.578 88.0826C138.962 85.682 145.773 91.9228 145.602 92.1157C145.431 92.3087 138.881 86.3946 132.849 88.8042C127.789 90.3148 129.782 100.698 140.902 106.441C147.892 110.051 155.462 105.141 147.705 94.5554C146.76 93.2669 146.099 92.6581 146.151 92.6026C146.444 92.2386 153.56 99.7916 151.113 105.226C150.408 106.478 149.305 107.459 147.979 108.012C143.301 109.655 139 106.847 135.135 103.537Z" fill="#402E32"/>
    <path d="M153.784 10.1575C140.862 16.9916 129.341 13.0021 125.301 4.99048C125.696 9.34066 124.403 13.6763 121.688 17.0986C118.974 20.521 115.047 22.7675 110.721 23.3725C108.224 23.7701 103.259 23.5982 101.771 22.5134C98.5193 20.1392 99.2309 20.3613 99.4048 21.6762C99.4521 22.0357 99.3547 21.2995 99.4321 24.7702C99.5376 29.5259 99.7096 30.4859 99.3684 34.0158C98.7368 40.5323 96.9878 42.3287 94.9712 45.409C92.4469 49.2665 90.302 51.4414 82.588 53.4762C84.7019 54.5172 87.4628 54.337 89.0162 56.2244C94.6091 63.0157 97.1498 64.1032 97.1288 74.4553C97.1288 75.51 97.0042 76.5684 96.9951 77.6139C97.0728 78.7234 97.0402 79.8379 96.8977 80.9409C96.7102 81.8509 96.3517 82.6999 96.1852 83.6036C95.5382 87.1362 93.3642 87.8005 99.1436 84.6865C100.111 84.165 102.602 84.2724 101.898 84.216C104.956 83.3419 108.223 83.5699 111.13 84.8603C112.239 85.2376 113.212 85.9341 113.927 86.8623C117.385 90.374 116.118 88.5913 117.61 91.2421C117.98 91.9335 118.422 92.5836 118.93 93.1813C119.646 89.8371 120.534 88.0726 123.753 85.5237C129.991 80.5896 135.352 81.2549 136.011 80.5114C138.361 79.7615 141.526 81.1793 144.059 81.4669C144.719 81.4845 145.363 81.6693 145.932 82.0038C148.331 83.215 149.226 83.6481 150.027 84.1414C152.278 85.5264 150.937 85.5546 151.469 82.8965C153.921 70.6961 169.167 68.5513 169.439 68.4275C171.09 67.6995 174.214 69.8307 171.357 67.2227C166.305 62.6108 166.852 51.5242 168.129 44.9031C168.477 43.0949 168.235 43.529 168.487 42.8738C169.144 41.2701 169.887 39.7035 170.714 38.1809C170.714 37.5439 167.216 37.3619 165.301 36.289C164.903 36.0323 164.491 35.7957 164.068 35.5801C163.562 35.3599 163.006 35.2826 162.481 35.1124C160.804 34.5709 159.962 33.2533 158.734 32.1303C158.192 31.7132 157.679 31.2592 157.199 30.7717C147.845 19.7152 153.994 13.3634 153.928 10.3822C153.78 10.465 153.937 10.0765 153.784 10.1575Z" fill="#FFC43B"/>
    <path d="M172.827 68.4029C167.443 62.8392 167.175 49.6924 169.203 42.427C170.969 35.8859 172.843 39.1273 165.622 36.0005C155.984 31.7781 151.955 23.6018 153.077 15.4564C153.987 8.71327 156.686 9.43126 149.666 11.507C129.986 17.1926 126.107 4.16782 125.261 4.55002C124.871 4.56822 125.372 9.95451 121.973 15.5428C119.853 18.9826 116.687 21.8464 110.185 22.983C102.865 24.1933 99.6195 20.101 99.2492 20.6297C98.4238 20.6834 100.593 32.5252 96.9742 41.2449C92.1512 52.5134 81.4605 53.1204 81.4887 53.5699C81.3977 54.0449 87.4037 54.2924 91.8581 59.9217C96.3481 65.5255 97.4 74.0085 96.2261 81.0765C95.2652 86.9596 93.9029 87.7013 96.0605 86.6075C103.303 82.9675 109.184 84.2069 114.339 88.0807C117.789 91.01 118.687 93.9393 119.084 93.7874C119.477 93.781 119.064 91.3467 121.16 88.5913C123.981 84.6391 132.098 80.829 140.225 81.3058C147.922 81.8017 150.947 85.6319 151.327 85.1715C151.594 85.1715 151.591 83.7155 152.601 80.9709C154.564 76.0323 159.446 72.153 164.139 70.4149C165.595 69.838 167.105 69.4111 168.647 69.1409C172.182 68.533 173.588 69.1882 172.827 68.4029ZM168.514 68.0535C166.217 68.0698 162.029 69.2046 158.204 71.8545C153.165 75.2634 150.807 80.7243 151.111 83.9512C151.196 86.167 151.888 84.0795 146.626 81.5515C135.472 76.2826 119.04 83.589 118.871 92.1858C118.84 93.1258 119.129 92.3787 117.473 89.7333C110.93 80.8417 100.494 81.9628 95.7238 86.1051C94.8138 86.9032 96.1506 86.0369 97.2972 81.2921C99.766 71.162 96.399 58.7241 87.5502 54.8375C82.4032 52.4379 82.3559 54.7684 87.6958 52.5452C94.5081 49.6596 99.5349 43.4016 100.287 33.6172C100.531 29.3678 100.233 25.1046 99.4029 20.93C104.706 27.4656 122.465 25.7721 125.356 10.314C125.613 8.84247 125.7 7.34628 125.615 5.85496C126.471 7.75342 127.737 9.43894 129.322 10.7908C130.057 11.4481 130.881 12 131.768 12.4306C138.716 16.2654 149.104 14.0832 153.888 10.5387C149.933 16.1025 150.607 27.9033 159.694 34.2269C163.851 37.128 168.994 38.2655 170.597 38.0125C165.362 42.1985 164.52 62.962 171.78 68.1654C172.289 68.543 171.486 67.8523 168.514 68.0535V68.0535Z" fill="#402E32"/>
    <path d="M38.2255 134.332C37.9443 131.772 37.1025 119.408 37.9707 117.497C38.8006 115.669 45.1032 111.775 47.694 107.112C48.918 104.91 49.9563 100.985 53.0557 100.077C56.3681 99.1072 58.9807 101.988 60.9937 104.536C62.4406 106.093 63.3358 108.082 63.5417 110.197C64.6883 117.151 64.661 119.884 59.696 129.653C68.3765 134.557 72.1767 144.018 71.7007 144.395C71.6097 144.468 71.4705 144.272 71.5852 144.254C72.2674 145.363 72.763 146.577 73.0521 147.847C73.4561 149.629 72.5425 150.185 70.6806 150.036C66.8513 149.731 56.5429 148.912 52.9857 147.567C49.1291 146.113 38.675 138.411 38.2255 134.332Z" fill="white"/>
    <path d="M49.6751 112.609C46.9706 115.703 44.0904 117.439 43.9657 117.237C43.8029 117.014 46.3572 114.993 48.9753 111.997C51.5934 109.002 53.2523 106.199 53.4962 106.33C53.7128 106.426 52.3796 109.513 49.6751 112.609Z" fill="#402E32"/>
    <path d="M60.7753 129.365C67.5712 118.005 65.9859 103.496 57.2599 100.086C55.6641 99.3896 53.887 99.2228 52.1894 99.6105C47.8487 100.805 49.3047 105.275 43.3424 110.959C41.4578 112.753 39.8107 113.532 38.6004 115.164C38.3365 115.51 38.594 115.45 38.0371 114.319C37.3239 112.885 36.1869 111.705 34.7802 110.939C33.013 109.962 30.7425 109.799 30.708 110.152C30.6488 110.478 34.843 111.288 36.4582 115.05C37.1263 116.893 37.4334 118.848 37.3628 120.808C37.6449 135.972 38.3119 134.974 38.857 118.401C39.403 115.172 41.8218 114.736 44.5081 112.213C51.7399 105.612 49.1664 99.4548 56.1024 101.622C65.2106 105.302 64.671 118.887 59.4075 128.022C58.8788 125.679 57.0324 124.193 56.8113 124.453C56.592 124.682 57.5939 125.792 58.6131 128.227C57.7941 127.847 53.6008 126.196 53.4316 126.715C53.1586 127.479 65.156 131.223 70.5796 142.653C71.8627 144.982 72.9829 148.961 73.3387 148.895C74.0686 148.785 72.8 136.38 60.7753 129.365Z" fill="#402E32"/>
    <path d="M103.649 97.5838C104.577 99.1927 104.356 100.626 106.18 101.94C106.77 102.316 107.333 102.734 107.864 103.189C107.43 103.387 106.961 103.494 106.485 103.504C106.008 103.514 105.535 103.427 105.093 103.248C104.651 103.07 104.251 102.803 103.915 102.464C103.58 102.125 103.317 101.722 103.143 101.278C102.555 102.376 101.573 103.21 100.394 103.611C99.2154 104.012 97.9284 103.951 96.7931 103.44C97.1386 104.21 97.3255 105.042 97.3425 105.887C97.3595 106.731 97.2063 107.57 96.8921 108.354C96.5779 109.137 96.1091 109.85 95.5136 110.448C94.9181 111.047 94.2081 111.52 93.4261 111.838C97.3818 113.314 99.0053 118.611 97.1325 121.934C96.844 120.878 96.6393 119.629 96.319 118.493C95.2916 114.853 92.7781 112.679 91.041 112.288C88.5112 112.19 92.5106 112.041 94.6072 108.658C95.2048 107.725 95.5197 106.639 95.5141 105.531C95.5084 104.423 95.1824 103.341 94.5754 102.414C92.8673 99.9271 93.0839 100.705 96.7457 101.671C99.0717 102.285 100.956 101.944 102.702 99.5112C103.189 98.8415 102.926 98.4292 103.649 97.5838ZM103.797 95.9813C102.955 96.7341 102.352 97.7171 102.063 98.8087C99.4548 102.658 97.4219 100.485 91.9109 99.5431C93.6836 103.299 94.2005 103.092 94.4471 104.301C95.186 107.097 93.0238 109.987 90.6669 110.853C89.9335 111.126 89.7351 111.371 88.2873 112.673C89.145 112.93 90.0244 113.108 90.9145 113.205C92.5042 113.602 94.2897 115.753 94.9112 117.253C95.6392 119.008 95.4572 119.298 96.8349 124.351C97.916 122.432 99.8561 119.786 98.24 115.524C97.8095 114.456 97.1661 113.488 96.349 112.678C94.7811 111.115 95.166 112.609 96.895 110.252C97.821 108.98 98.311 107.443 98.2918 105.869C98.2691 104.399 97.8796 104.777 98.8633 104.777C99.9375 104.786 100.991 104.485 101.899 103.91C103.81 102.715 102.437 102.619 103.836 103.606C104.601 104.142 105.513 104.43 106.448 104.43C107.524 104.37 108.563 104.021 109.457 103.42C106.444 100.53 106.11 101.363 105.324 99.2136C104.972 98.0693 104.459 96.9809 103.8 95.9813H103.797Z" fill="#402E32"/>
    <path d="M106.182 101.94C104.362 100.648 104.567 99.1718 103.652 97.5839C102.907 98.4511 103.217 98.8042 102.708 99.5121C99.6332 103.8 96.2471 101.227 93.5171 100.761C94.0512 101.892 95.0568 102.763 95.358 104.095C96.602 109.6 90.4631 111.975 90.232 112.183C90.6442 112.28 92.871 112.136 95.1505 115.72C96.4054 117.674 96.6548 120.159 97.1398 121.935C97.9819 120.215 98.1317 118.238 97.5584 116.411C96.985 114.585 95.7322 113.048 94.0585 112.118C93.1221 111.622 93.2286 112.1 94.4362 111.314C95.6863 110.509 96.6132 109.29 97.0542 107.871C97.4952 106.451 97.4221 104.921 96.8477 103.55C96.7212 103.268 96.743 103.574 98.0043 103.784C99.0161 103.963 100.059 103.818 100.983 103.368C101.907 102.918 102.664 102.187 103.147 101.279C103.321 101.723 103.584 102.126 103.92 102.464C104.255 102.802 104.656 103.069 105.097 103.248C105.539 103.427 106.012 103.514 106.488 103.504C106.965 103.494 107.434 103.387 107.868 103.19C107.335 102.736 106.772 102.318 106.182 101.94Z" fill="#FFC43B"/>
    <path d="M134.736 141.772C131.387 144.529 118.208 138.532 115.824 126.66C98.1635 125.442 92.3331 109.043 100.482 104.975C103.155 103.641 106.047 104.561 108.796 105.106C116.296 106.593 119.449 105.457 123.441 107.454C125.374 108.808 126.318 111.155 127.864 112.938C129.255 114.341 130.773 115.611 132.4 116.732C135.884 119.494 142.741 132.077 134.603 141.928C134.458 141.526 134.579 142.169 134.736 141.772Z" fill="white"/>
    <path d="M115.239 110.299C108.476 110.169 102.431 108.427 102.499 108.13C102.565 107.857 108.184 109.222 115.256 109.37C120.219 109.475 120.489 109.615 123.609 112.721C125.467 114.571 128.537 117.703 123.161 113.202C119.856 110.432 120.508 110.401 115.239 110.299Z" fill="#402E32"/>
    <path d="M128.836 112.749C124.993 108.35 124.887 105.439 117.715 105.036C114.562 105.019 111.419 104.692 108.33 104.059C104.963 103.371 101.204 102.663 98.341 105.142C92.3013 110.429 98.2845 126.448 115.238 127.132C116.13 131.04 118.102 134.619 120.93 137.46C125.79 142.364 132.074 142.92 132.161 142.374C132.308 141.598 120.612 139.487 117.289 127.662C119.584 129.344 122.572 128.785 122.458 128.39C122.4 128.009 120.638 128.352 117.897 127.103C120.381 126.95 121.81 126.522 121.786 126.338C121.731 125.846 116.177 126.492 110.411 124.708C98.1262 120.953 95.8512 109.804 99.5686 106.546C101.802 104.589 105.257 105.324 107.959 105.884C116.575 107.71 120.545 105.745 123.826 109.133C125.077 110.407 125.743 111.637 127.894 113.666C130.498 116.096 132.497 117.057 132.62 116.866C132.783 116.632 131.085 115.302 128.836 112.749Z" fill="#402E32"/>
</svg>
