<svg width="446" height="175" viewBox="0 0 446 175" fill="none" xmlns="http://www.w3.org/2000/svg">
    <path d="M81.1734 37.8784C75.7294 32.2167 69.3732 27.3446 62.3028 23.4135C54.9838 19.4058 47.4184 15.264 38.4355 16.6674C38.1217 16.7165 37.8079 16.7655 37.4903 16.8367C30.4474 18.2451 23.8047 22.9799 18.2802 30.5255C13.8888 36.5384 10.2667 44.2396 8.07486 52.2102C6.62107 57.5116 5.92739 62.383 6.07577 66.2941C6.24727 70.8578 7.53907 73.971 9.91976 75.5523C10.956 76.2553 12.229 76.6264 13.5526 76.6114C21.8564 76.9757 30.2215 76.572 38.5203 75.4064C38.5276 75.4607 38.5044 75.5167 38.498 75.5701C37.3502 83.8521 34.9577 91.1425 32.6486 98.1918C28.6481 110.398 24.8698 121.925 30.4397 133.496C34.2195 141.316 39.1252 145.423 45.0579 145.692C46.0034 145.734 46.9563 145.68 47.8993 145.531C57.7869 143.987 65.8815 132.798 68.7776 127.096C74.6877 115.479 71.2714 105.448 63.7913 83.4644C62.3706 79.293 60.9148 75.0378 59.449 70.7841C63.4456 69.4719 67.3334 67.868 71.0733 65.9888C71.5199 65.7866 71.9664 65.5844 72.4121 65.3761C76.5415 63.442 80.5427 61.2733 84.3907 58.8833C85.9288 58.0466 87.1422 56.7806 87.8394 55.2852C90.0062 50.7475 87.7686 44.8891 81.1734 37.8784Z" fill="white"/>
    <path d="M81.3933 54.5701C81.5486 56.1787 79.5299 57.6648 77.7277 58.886C56.2192 73.4515 30.9407 73.3865 19.5398 73.3623C18.466 73.3606 16.2595 73.3264 15.0461 71.9848C12.4585 69.1202 15.8243 61.8442 19.7225 57.5843C28.3878 48.1278 44.4093 48.4222 56.1636 48.6407C64.5722 48.7935 80.9698 50.1597 81.3933 54.5701Z" fill="#C29A6C"/>
    <path d="M75.0678 60.3184C73.111 60.0963 71.1216 59.8936 69.0996 59.7104C60.8183 58.9585 53.7108 58.698 51.8712 58.705C41.007 58.6925 28.2977 67.4283 21.6461 72.5774" stroke="#A8825D" stroke-miterlimit="10"/>
    <path d="M68.1304 63.6236C66.5399 63.0505 64.8823 62.5023 63.1576 61.9789C58.8172 60.6514 52.7076 58.7654 49.2195 58.6541C40.401 58.3682 32.3972 68.8643 30.0225 72.1868" stroke="#A8825D" stroke-miterlimit="10"/>
    <path d="M60.1451 66.7412C59.4721 65.8787 58.7237 65.0686 57.9067 64.3182C56.6077 63.1255 52.8842 59.6466 49.594 59.5876C45.6582 59.5186 40.9646 64.3248 38.9071 71.344" stroke="#A8825D" stroke-miterlimit="10"/>
    <path d="M82.789 55.8987C78.9574 58.3022 74.9653 60.476 70.8396 62.4054C48.903 72.6537 27.6812 73.8342 13.6992 73.2459" stroke="black" stroke-width="4" stroke-miterlimit="10"/>
    <path d="M38.0112 50.6203C39.6302 53.7554 40.8444 57.0653 41.6304 60.4867C42.7547 65.492 42.9367 70.6761 42.1687 75.8224C38.9071 99.2598 25.8951 115.517 33.8408 132.025C34.9504 134.316 38.6614 142.03 45.4321 142.346C53.1698 142.705 61.6591 133.258 65.4371 125.828C70.595 115.687 67.979 107.322 60.2528 84.6243C54.81 68.6315 50.3854 55.9734 47.7611 48.5086L38.0112 50.6203Z" fill="#FFF9EA"/>
    <path opacity="0.6" d="M41.6304 60.4867C40.8444 57.0652 39.6302 53.7553 38.0113 50.6203L41.2596 49.9125C42.0047 51.2092 42.6704 52.545 43.2538 53.9142C44.2494 56.2449 47.1929 63.8785 45.2543 78.8925C43.9795 88.7872 41.1591 97.3798 39.4902 102.4C36.3668 111.78 34.8037 113.537 35.1299 118.11C35.1948 118.997 36.4017 132.312 47.2055 134.989C51.5285 136.061 56.4676 135.203 60.881 132.769C56.6035 138.059 50.8335 142.593 45.4284 142.344C38.6597 142.018 34.9504 134.316 33.8408 132.025C25.8951 115.517 38.9071 99.2598 42.1687 75.8223C42.9367 70.676 42.7547 65.492 41.6304 60.4867Z" fill="#EFD0A9"/>
    <path d="M38.0112 50.6203C39.6302 53.7554 40.8444 57.0653 41.6304 60.4867C42.7547 65.492 42.9367 70.6761 42.1687 75.8224C38.9071 99.2598 25.8951 115.517 33.8408 132.025C34.9504 134.316 38.6614 142.03 45.4321 142.346C53.1698 142.705 61.6591 133.258 65.4371 125.828C70.595 115.687 67.979 107.322 60.2528 84.6243C54.81 68.6315 50.3854 55.9734 47.7611 48.5086L38.0112 50.6203Z" stroke="black" stroke-width="4" stroke-miterlimit="10"/>
    <path d="M12.1928 72.7911C15.5629 75.0373 20.2098 68.3653 35.1249 62.6461C62.3059 52.2377 80.9838 61.2981 84.4457 54.0779C87.8118 47.0821 72.7689 33.1746 60.2816 26.3235C53.0438 22.3616 46.0777 18.5451 38.1034 20.1237C15.7383 24.5576 4.48322 67.6798 12.1928 72.7911Z" fill="#3A5AFF"/>
    <path opacity="0.4" d="M33.7262 21.5346C31.382 25.372 29.5808 29.4459 28.3677 33.654C24.6394 46.6154 42.0697 52.2075 44.8868 59.1306C33.0463 62.0927 15.1755 74.7682 12.1928 72.791C5.00329 68.0237 14.3053 30.2161 33.7262 21.5346Z" fill="#3A5AFF"/>
    <path d="M12.1928 72.7911C15.5629 75.0373 20.2098 68.3653 35.1249 62.6461C62.3059 52.2377 80.9838 61.2981 84.4457 54.0779C87.8118 47.0821 72.7689 33.1746 60.2816 26.3235C53.0438 22.3616 46.0777 18.5451 38.1034 20.1237C15.7383 24.5576 4.48322 67.6798 12.1928 72.7911Z" stroke="black" stroke-width="4" stroke-miterlimit="10"/>
    <path d="M173.993 87.7408C171.024 90.0727 159.915 99.3444 159.821 112.763C159.812 114.111 159.941 118.441 160.219 120.748C160.286 121.304 160.619 121.785 161.103 122.07C170.102 127.372 186.438 132.266 208.34 134.065C235.201 136.265 250.783 133.606 260.472 129.621C261.133 129.349 261.575 128.728 261.626 128.011C261.79 125.663 262.004 121.432 261.94 119.884C261.401 106.795 254.432 97.088 250.213 92.1978L173.993 87.7408Z" stroke="white" stroke-width="8" stroke-miterlimit="10"/>
    <path d="M217.238 43.1443C199.814 41.2467 186.799 49.7693 180.439 53.9369C163.819 64.8227 153.022 86.6183 150.689 91.6481C150.431 92.2035 150.739 92.8392 151.335 92.9941C157.994 94.7251 192.689 103.56 211.424 104.716C231.161 105.937 250.961 104.664 270.42 100.925C270.959 100.821 271.308 100.304 271.193 99.764C269.419 91.4884 264.091 72.5302 247.801 58.0833C242.818 53.643 232.589 44.817 217.238 43.1443Z" stroke="white" stroke-width="8" stroke-miterlimit="10"/>
    <path d="M164.959 97.3307C164.063 98.6135 163.27 99.977 162.591 101.406C161.266 104.24 160.375 107.287 159.95 110.427C159.44 114.15 159.573 117.943 160.343 121.615C161.526 122.305 163.29 123.292 165.486 124.349C170.516 126.734 175.769 128.532 181.155 129.711C195.259 133.01 209.725 134.17 210.344 134.22C210.344 134.22 228.166 135.6 243.205 133.88C248.701 133.326 254.112 132.044 259.316 130.062C260.241 129.715 261 129.383 261.511 129.162C261.623 128.024 261.744 126.466 261.8 124.616C261.905 121.359 261.766 118.099 261.384 114.866C260.367 106.947 256.386 99.5056 255.125 97.2422L168.01 92.494C167.002 94.1084 165.985 95.7206 164.959 97.3307Z" fill="#FFF9EA"/>
    <path d="M173.993 87.7408C171.024 90.0727 159.915 99.3444 159.821 112.763C159.812 114.111 159.941 118.441 160.219 120.748C160.286 121.304 160.619 121.785 161.103 122.07C170.102 127.372 186.438 132.266 208.34 134.065C235.201 136.265 250.783 133.606 260.472 129.621C261.133 129.349 261.575 128.728 261.626 128.011C261.79 125.663 262.004 121.432 261.94 119.884C261.401 106.795 254.432 97.088 250.213 92.1978L173.993 87.7408Z" stroke="black" stroke-width="4" stroke-miterlimit="10"/>
    <path d="M195.876 45.8245L187.714 49.5097L176.099 57.0205L166.374 66.0244L156.422 79.7152L150.213 92.7005L164.883 97.1296L175.419 99.6912L189.852 102.386L207.795 104.461L221.038 105.11L235.195 104.974L249.059 104.013L270.889 100.821L270.706 97.6038L264.919 81.1666L254.1 64.4526L240.414 52.1373L231.187 46.9088L220.216 43.3714L209.252 42.9729L195.876 45.8245Z" fill="#FFC43B"/>
    <path d="M260.237 89.9525C262.667 88.8861 264.731 87.0356 266.145 84.6552L264.915 81.1662L254.1 64.4525L240.41 52.1369L235.113 49.1406C232.553 55.2839 232.539 63.8678 235.63 72.2784C240.585 85.7208 251.595 93.6323 260.237 89.9525Z" fill="#FFF9EA"/>
    <path d="M193.372 46.9747C193.791 48.5128 194.486 49.948 195.416 51.1996C198.227 55.0299 202.418 56.5127 204.778 54.5078C207.138 52.503 206.778 47.8951 204.071 44.0986L195.875 45.8456L193.372 46.9747Z" fill="#FFF9EA"/>
    <path d="M168.728 97.8259C169.756 96.7044 170.494 95.3124 170.866 93.7885C171.239 92.2646 171.235 90.662 170.853 89.1403C170.472 87.6186 169.727 86.231 168.692 85.1155C167.658 84 166.37 83.1956 164.957 82.7825C163.544 82.3694 162.056 82.3619 160.64 82.7609C159.224 83.1598 157.93 83.9512 156.886 85.0563C155.843 86.1614 155.087 87.5415 154.693 89.0593C154.3 90.5771 154.282 92.1796 154.643 93.7072L166.365 97.2469L168.728 97.8259Z" fill="#FFF9EA"/>
    <path d="M231.864 105.006C231.956 103.455 231.755 101.901 231.273 100.436C230.79 98.9713 230.037 97.6269 229.059 96.4843C228.081 95.3416 226.898 94.4243 225.581 93.7878C224.264 93.1514 222.841 92.809 221.398 92.7813C219.955 92.7537 218.522 93.0414 217.185 93.627C215.849 94.2127 214.637 95.0841 213.622 96.1886C212.607 97.2931 211.811 98.6078 211.282 100.053C210.753 101.498 210.501 103.044 210.543 104.598L221.038 105.11L231.864 105.006Z" fill="#FFF9EA"/>
    <path d="M194.481 83.0558C197.257 81.8737 198.418 77.9545 197.075 74.3019C195.732 70.6493 192.393 68.6466 189.617 69.8287C186.842 71.0107 185.68 74.93 187.023 78.5826C188.366 82.2351 191.705 84.2379 194.481 83.0558Z" fill="#FFF9EA"/>
    <path d="M217.238 43.1443C199.814 41.2467 186.799 49.7693 180.439 53.9369C163.819 64.8227 153.022 86.6183 150.689 91.6481C150.431 92.2035 150.739 92.8392 151.335 92.9941C157.994 94.7251 192.689 103.56 211.424 104.716C231.161 105.937 250.961 104.664 270.42 100.925C270.959 100.821 271.308 100.304 271.193 99.764C269.419 91.4884 264.091 72.5302 247.801 58.0833C242.818 53.643 232.589 44.817 217.238 43.1443Z" stroke="black" stroke-width="4" stroke-miterlimit="10"/>
    <path fill-rule="evenodd" clip-rule="evenodd" d="M256.557 23.5864C252.683 21.4363 247.829 22.8107 245.708 26.6584L236.509 43.3417C234.281 47.382 235.961 52.496 240.167 54.4805L243.195 55.9093L244.646 60.9284C244.816 61.5137 245.462 61.8189 246.017 61.5751L250.773 59.4847L277.897 72.283C282.016 74.2267 286.894 72.3754 288.641 68.2051L294.98 53.0734C296.556 49.3096 295.023 44.9361 291.427 42.9404L256.557 23.5864Z" fill="#3A5AFF"/>
    <path d="M245.708 26.6584L247.462 27.6364L245.708 26.6584ZM256.557 23.5864L255.599 25.3324L256.557 23.5864ZM236.509 43.3417L234.755 42.3637L236.509 43.3417ZM240.167 54.4805L241.007 52.6738L240.167 54.4805ZM243.195 55.9093L245.116 55.371L244.862 54.4931L244.035 54.1025L243.195 55.9093ZM244.646 60.9284L246.568 60.3902L246.568 60.3902L244.646 60.9284ZM246.017 61.5751L246.837 63.4068L246.837 63.4068L246.017 61.5751ZM250.773 59.4847L251.612 57.6779L250.784 57.2874L249.953 57.653L250.773 59.4847ZM277.897 72.283L277.057 74.0897L277.897 72.283ZM288.641 68.2051L286.795 67.4178L288.641 68.2051ZM294.98 53.0734L293.133 52.2861L294.98 53.0734ZM291.427 42.9404L292.386 41.1944L291.427 42.9404ZM247.462 27.6364C249.053 24.7506 252.693 23.7198 255.599 25.3324L257.515 21.8405C252.673 19.1528 246.605 20.8709 243.954 25.6804L247.462 27.6364ZM238.263 44.3196L247.462 27.6364L243.954 25.6804L234.755 42.3637L238.263 44.3196ZM241.007 52.6738C237.852 51.1854 236.593 47.3499 238.263 44.3196L234.755 42.3637C231.97 47.4141 234.07 53.8066 239.327 56.2873L241.007 52.6738ZM244.035 54.1025L241.007 52.6738L239.327 56.2873L242.355 57.716L244.035 54.1025ZM246.568 60.3902L245.116 55.371L241.274 56.4475L242.725 61.4667L246.568 60.3902ZM245.197 59.7435C245.752 59.4997 246.398 59.8049 246.568 60.3902L242.725 61.4666C243.233 63.2226 245.173 64.1381 246.837 63.4068L245.197 59.7435ZM249.953 57.653L245.197 59.7435L246.837 63.4068L251.592 61.3163L249.953 57.653ZM278.737 70.4762L251.612 57.6779L249.933 61.2914L277.057 74.0897L278.737 70.4762ZM286.795 67.4178C285.484 70.5455 281.826 71.934 278.737 70.4762L277.057 74.0897C282.207 76.5193 288.304 74.2052 290.487 68.9924L286.795 67.4178ZM293.133 52.2861L286.795 67.4178L290.487 68.9924L296.826 53.8606L293.133 52.2861ZM290.469 44.6864C293.166 46.1831 294.316 49.4632 293.133 52.2861L296.826 53.8606C298.797 49.1559 296.88 43.6891 292.386 41.1944L290.469 44.6864ZM255.599 25.3324L290.469 44.6864L292.386 41.1944L257.515 21.8405L255.599 25.3324Z" fill="white"/>
    <mask id="path-26-inside-1_821_336" fill="white">
        <path fill-rule="evenodd" clip-rule="evenodd" d="M256.557 23.5864C252.683 21.4363 247.829 22.8107 245.708 26.6584L236.509 43.3417C234.281 47.382 235.961 52.496 240.167 54.4805L243.195 55.9093L244.646 60.9284C244.816 61.5137 245.462 61.8189 246.017 61.5751L250.773 59.4847L277.897 72.283C282.016 74.2267 286.894 72.3754 288.641 68.2051L294.98 53.0734C296.556 49.3096 295.023 44.9361 291.427 42.9404L256.557 23.5864Z"/>
    </mask>
    <path fill-rule="evenodd" clip-rule="evenodd" d="M256.557 23.5864C252.683 21.4363 247.829 22.8107 245.708 26.6584L236.509 43.3417C234.281 47.382 235.961 52.496 240.167 54.4805L243.195 55.9093L244.646 60.9284C244.816 61.5137 245.462 61.8189 246.017 61.5751L250.773 59.4847L277.897 72.283C282.016 74.2267 286.894 72.3754 288.641 68.2051L294.98 53.0734C296.556 49.3096 295.023 44.9361 291.427 42.9404L256.557 23.5864Z" fill="#3A5AFF"/>
    <path d="M245.708 26.6584L249.216 28.6143L245.708 26.6584ZM256.557 23.5864L254.641 27.0783L256.557 23.5864ZM236.509 43.3417L233.001 41.3857L236.509 43.3417ZM240.167 54.4805L241.846 50.8671L240.167 54.4805ZM243.195 55.9093L247.037 54.8328L246.53 53.0769L244.874 52.2958L243.195 55.9093ZM244.646 60.9284L248.489 59.8519L248.489 59.8519L244.646 60.9284ZM246.017 61.5751L247.657 65.2384L247.657 65.2384L246.017 61.5751ZM250.773 59.4847L252.452 55.8712L250.796 55.0901L249.133 55.8214L250.773 59.4847ZM277.897 72.283L276.218 75.8965L277.897 72.283ZM288.641 68.2051L284.948 66.6306L288.641 68.2051ZM294.98 53.0734L291.287 51.4988L291.287 51.4988L294.98 53.0734ZM291.427 42.9404L293.344 39.4485L291.427 42.9404ZM249.216 28.6143C250.277 26.6905 252.704 26.0033 254.641 27.0783L258.474 20.0945C252.663 16.8694 245.382 18.931 242.2 24.7024L249.216 28.6143ZM240.017 45.2976L249.216 28.6143L242.2 24.7024L233.001 41.3857L240.017 45.2976ZM241.846 50.8671C239.743 49.8748 238.904 47.3178 240.017 45.2976L233.001 41.3857C229.659 47.4462 232.178 55.1172 238.487 58.094L241.846 50.8671ZM244.874 52.2958L241.846 50.8671L238.487 58.094L241.515 59.5228L244.874 52.2958ZM248.489 59.8519L247.037 54.8328L239.352 56.9857L240.804 62.0049L248.489 59.8519ZM244.377 57.9118C246.041 57.1805 247.981 58.096 248.489 59.8519L240.804 62.0049C241.65 64.9314 244.884 66.4573 247.657 65.2384L244.377 57.9118ZM249.133 55.8214L244.377 57.9118L247.657 65.2384L252.412 63.148L249.133 55.8214ZM279.576 68.6695L252.452 55.8712L249.093 63.0982L276.218 75.8965L279.576 68.6695ZM284.948 66.6306C284.075 68.7157 281.636 69.6413 279.576 68.6695L276.218 75.8965C282.397 78.812 289.713 76.0351 292.333 69.7797L284.948 66.6306ZM291.287 51.4988L284.948 66.6306L292.333 69.7797L298.672 54.6479L291.287 51.4988ZM289.511 46.4323C291.309 47.4302 292.075 49.6169 291.287 51.4988L298.672 54.6479C301.037 49.0023 298.737 42.442 293.344 39.4485L289.511 46.4323ZM254.641 27.0783L289.511 46.4323L293.344 39.4485L258.474 20.0945L254.641 27.0783Z" fill="black" mask="url(#path-26-inside-1_821_336)"/>
    <path d="M261.054 50.354C262.134 46.2058 267.955 47.7448 269.158 45.1349C269.887 43.5553 269.298 41.8797 266.973 40.7745C265.4 40.0268 263.647 40.031 261.692 40.7762L261.001 39.0801C263.245 38.1927 265.519 37.9619 267.981 39.1321C271.195 40.6599 272.498 43.3171 271.284 45.9498C269.689 49.4067 263.914 47.5268 262.923 51.2425L261.054 50.354ZM259.437 56.4517C258.616 56.0617 258.242 55.1859 258.664 54.2702C259.087 53.3545 260.033 53.0506 260.831 53.4298C261.628 53.809 262.004 54.7414 261.582 55.6571C261.16 56.5728 260.235 56.831 259.437 56.4517Z" fill="white"/>
    <path fill-rule="evenodd" clip-rule="evenodd" d="M260.128 50.7863L260.295 50.1473C260.956 47.6079 263.11 46.8629 264.855 46.4019C265.107 46.3352 265.349 46.2748 265.581 46.2168C266.203 46.0613 266.753 45.9239 267.246 45.7303C267.901 45.473 268.269 45.1808 268.446 44.7964C268.728 44.1862 268.735 43.6179 268.499 43.1047C268.255 42.5727 267.697 41.9911 266.643 41.49C265.304 40.8536 263.778 40.8297 261.975 41.5169L261.258 41.7898L259.973 38.6341L260.709 38.3431C263.093 37.4002 265.6 37.1285 268.311 38.4167C270.033 39.2357 271.322 40.3939 271.997 41.783C272.682 43.1923 272.698 44.7658 271.996 46.2885C271.5 47.3647 270.677 48.0084 269.781 48.4303C268.973 48.811 268.059 49.0304 267.247 49.2256C267.186 49.2402 267.126 49.2546 267.066 49.269C266.167 49.4861 265.409 49.6866 264.813 50.0248C264.256 50.3405 263.866 50.7626 263.681 51.454L263.44 52.3603L260.128 50.7863ZM261.054 50.3541C261.663 48.0126 263.784 47.4831 265.731 46.9967C267.234 46.6213 268.634 46.2717 269.159 45.135C269.887 43.5553 269.298 41.8797 266.973 40.7745C265.4 40.0269 263.647 40.0311 261.692 40.7762L261.001 39.0802C261.247 38.9831 261.492 38.8939 261.739 38.8135C263.744 38.1591 265.788 38.09 267.981 39.1322C271.195 40.6599 272.498 43.3171 271.284 45.9499C270.511 47.625 268.757 48.047 267.041 48.4597C265.476 48.8362 263.943 49.2049 263.216 50.5094C263.095 50.7265 262.996 50.9694 262.923 51.2426L261.054 50.3541ZM257.851 55.8328C257.625 55.2323 257.661 54.5633 257.952 53.9317C258.553 52.628 259.962 52.1448 261.161 52.7144C262.359 53.2841 262.896 54.6922 262.294 55.9958C261.68 57.3286 260.276 57.7229 259.107 57.1672C258.53 56.893 258.074 56.4285 257.851 55.8328ZM258.664 54.2703C258.242 55.186 258.616 56.0617 259.437 56.4518C260.235 56.831 261.16 56.5729 261.582 55.6572C262.004 54.7414 261.628 53.8091 260.831 53.4299C260.033 53.0506 259.087 53.3545 258.664 54.2703Z" fill="white"/>
    <path d="M439.106 94.773C437.43 92.3608 435.527 90.0934 433.417 87.9957C431.54 86.1481 429.287 83.935 426.589 82.4147L426.754 82.3933C427.358 82.316 427.931 82.0794 428.403 81.7124C429.128 81.1472 431.625 79.1759 433.482 77.5084C434.181 76.8833 434.809 76.1945 435.356 75.4537C435.942 74.7389 436.394 73.9414 436.692 73.0959C437.217 71.371 437.024 69.5521 436.151 68.0016C435.5 66.749 434.384 65.7628 432.996 65.2145C432.031 64.8591 430.971 64.7477 429.923 64.8915C429.235 64.989 428.559 65.1613 427.909 65.4045C426.853 65.7769 425.878 66.3332 425.039 67.0419C424.069 66.5668 423 66.2739 421.892 66.1797C421.207 66.1083 420.513 66.1127 419.823 66.1927C418.773 66.3186 417.767 66.6962 416.907 67.2873C416.575 67.5165 416.269 67.7764 415.994 68.0627C413.003 62.8058 407.965 56.7502 400.842 49.8367C392.99 42.2308 385.595 35.0443 375.307 36.1385L374.882 36.1932C363.659 37.6389 357.241 47.8984 352.085 56.1402C351.257 57.46 346.999 64.4242 344.123 72.0642C340.126 82.6955 340.441 90.2067 345.057 94.3877C348.014 97.0686 351.433 97.254 355.658 96.7098L355.796 96.692C355.129 99.9649 354.572 103.435 354.143 107.05C352.863 117.61 350.689 135.292 360.752 141.991C363.927 144.104 366.939 144.063 369.702 143.707C371.246 143.508 372.96 143.169 375.134 142.738C378.24 142.123 382.494 141.282 388.264 140.481L390.229 140.228C397.162 139.335 402.232 139.057 405.937 138.847C407.869 138.742 409.548 138.648 411.029 138.486C411.46 138.473 411.89 138.438 412.318 138.381C413.195 138.268 414.161 138.073 415.316 137.837C417.097 137.473 419.54 136.972 422.901 136.539L423.864 136.415C426.686 136.077 428.802 135.949 430.354 135.855C431.436 135.79 432.373 135.733 433.219 135.624C434.915 135.406 436.883 134.924 438.63 133.017C443.49 127.718 440.3 118.838 438.393 113.534C438.029 112.522 437.653 111.537 437.261 110.59C438.893 110.114 440.297 109.102 441.199 107.752C443.432 104.48 442.719 100.11 439.106 94.773Z" fill="white"/>
    <path d="M415.831 71.6573C416.028 70.8687 416.547 70.1486 417.3 69.6213C418.443 68.8992 419.742 68.9666 420.558 69.0281C421.85 69.1404 423.066 69.5365 424.083 70.176C424.496 70.4081 424.883 70.67 425.239 70.9589C425.513 70.5905 425.82 70.2393 426.159 69.9086C426.982 69.0335 428.057 68.3425 429.277 67.905C430.069 67.65 431.298 67.2433 432.58 67.6531C433.442 67.9712 434.128 68.5365 434.517 69.2503C435.113 70.1937 435.256 71.3045 434.918 72.3682C434.678 72.9538 434.321 73.5058 433.863 74.0006C433.361 74.6188 432.784 75.1946 432.143 75.7186C429.979 77.5176 426.89 79.7452 426.413 80.0787C425.88 79.8753 422.315 78.5048 419.77 77.3124C419.016 76.97 418.312 76.5589 417.671 76.0864C417.101 75.7241 416.614 75.2807 416.232 74.7753C415.636 73.8318 415.493 72.7211 415.831 71.6573Z" fill="#FF3B53"/>
    <path d="M357.936 107.316C356.756 116.977 354.726 133.569 363.065 139.122C367.374 141.991 370.67 139.394 387.826 137.014C408.529 134.141 413.736 136.542 416.55 132.232C419.365 127.922 415.157 124.137 405.415 99.0362C399.722 84.3642 398.089 77.7641 390.801 72.7814C388.273 71.0531 382.942 67.4102 377.024 68.6059C362.308 71.5671 358.619 101.733 357.936 107.316Z" fill="#FAF1D8"/>
    <path opacity="0.3" d="M377.041 68.6037C366.785 70.676 361.884 85.9169 359.621 96.8734C368.035 95.3466 376.978 93.9699 386.417 92.8374C391.91 92.1811 397.249 91.6388 402.434 91.2106C398.854 81.8155 396.626 76.7747 390.801 72.7815C388.273 71.0532 382.942 67.4103 377.041 68.6037Z" fill="#EBD08F"/>
    <path d="M357.936 107.316C356.756 116.977 354.726 133.569 363.065 139.122C367.374 141.991 370.67 139.394 387.826 137.014C408.529 134.141 413.736 136.542 416.55 132.232C419.365 127.922 415.157 124.137 405.415 99.0362C399.722 84.3642 398.089 77.7641 390.801 72.7814C388.273 71.0531 382.942 67.4102 377.024 68.6059C362.308 71.5671 358.619 101.733 357.936 107.316Z" stroke="black" stroke-width="4" stroke-miterlimit="10"/>
    <path d="M375.615 39.6358C366.124 40.6466 360.205 50.1067 355.385 57.811C354.062 59.9071 339.228 84.0789 347.799 91.8458C351.986 95.6392 357.836 91.9713 382.896 88.5184C405.534 85.3968 411.583 86.8994 414.361 82.4815C419.954 73.5929 402.367 56.5054 398.048 52.3182C390.511 45.0152 384.05 38.7385 375.615 39.6358Z" fill="#FFC43B"/>
    <path d="M354.248 69.7811C356.306 70.6397 358.607 70.9414 360.889 70.6522C368.447 69.6786 373.858 62.4631 372.977 54.5336C372.459 49.8696 369.873 46.0144 366.297 43.8145C361.83 47.5095 358.393 53.0007 355.385 57.8109C353.497 60.8751 351.782 64.0228 350.248 67.2409C351.403 68.2996 352.756 69.159 354.248 69.7811Z" fill="white"/>
    <path d="M375.615 39.6358C366.124 40.6466 360.205 50.1067 355.385 57.811C354.062 59.9071 339.228 84.0789 347.799 91.8458C351.986 95.6392 357.836 91.9713 382.896 88.5184C405.534 85.3968 411.583 86.8994 414.361 82.4815C419.954 73.5929 402.367 56.5054 398.048 52.3182C390.511 45.0152 384.05 38.7385 375.615 39.6358Z" stroke="black" stroke-width="4" stroke-miterlimit="10"/>
    <path d="M399.556 69.3653C401.733 69.0849 403.318 67.2412 403.096 65.2473C402.875 63.2533 400.931 61.8642 398.754 62.1446C396.578 62.425 394.992 64.2688 395.214 66.2627C395.435 68.2567 397.379 69.6458 399.556 69.3653Z" fill="white"/>
    <path d="M396.734 82.2585C400.828 81.7311 403.874 78.8428 403.537 75.8073C403.2 72.7718 399.608 70.7386 395.514 71.266C391.42 71.7934 388.374 74.6817 388.711 77.7172C389.048 80.7527 392.64 82.7859 396.734 82.2585Z" fill="white"/>
    <path d="M434.753 114.764C436.381 119.298 439.176 127.08 435.742 130.828C433.966 132.764 432.086 131.922 423.51 132.943C413.157 134.174 410.903 135.995 409.068 134.264C407.233 132.533 408.858 130.164 410.839 116.766C411.994 108.934 412.068 105.529 415.054 102.191C416.092 101.034 418.277 98.5923 421.268 98.4221C428.732 97.9933 433.814 112.144 434.753 114.764Z" fill="#FAF1D8"/>
    <path opacity="0.3" d="M421.268 98.4224C426.466 98.1282 430.504 104.894 432.796 109.916C428.55 110.242 424.07 110.72 419.368 111.354C416.635 111.732 413.991 112.15 411.43 112.595C412.139 107.59 412.674 104.864 415.053 102.179C416.092 101.034 418.277 98.5926 421.268 98.4224Z" fill="#EBD08F"/>
    <path d="M434.753 114.764C436.381 119.298 439.176 127.08 435.742 130.828C433.966 132.764 432.086 131.922 423.51 132.943C413.157 134.174 410.903 135.995 409.068 134.264C407.233 132.533 408.858 130.164 410.839 116.766C411.994 108.934 412.068 105.529 415.054 102.191C416.092 101.034 418.277 98.5923 421.268 98.4221C428.732 97.9933 433.814 112.144 434.753 114.764Z" stroke="black" stroke-width="4" stroke-miterlimit="10"/>
    <path d="M418.796 84.205C423.506 83.4923 427.407 87.3257 430.585 90.45C431.454 91.3009 441.284 101.133 437.979 105.981C436.364 108.349 433.127 107.312 420.603 108.813C409.293 110.168 406.523 111.664 404.695 109.874C401.013 106.276 407.684 95.7656 409.314 93.1902C412.165 88.6988 414.612 84.837 418.796 84.205Z" fill="#3A5AFF"/>
    <path d="M434.103 94.3682C433.593 95.162 432.896 95.8449 432.067 96.365C431.237 96.885 430.297 97.2285 429.318 97.3693C425.549 97.8548 422.14 95.0428 421.701 91.0907C421.565 90.0226 421.678 88.9312 422.034 87.8893C422.391 86.8473 422.981 85.8786 423.766 85.0476C426.334 86.2734 428.599 88.501 430.585 90.4501C431.832 91.6971 433.007 93.0049 434.103 94.3682Z" fill="white"/>
    <path d="M418.796 84.205C423.506 83.4923 427.407 87.3257 430.585 90.45C431.454 91.3009 441.284 101.133 437.979 105.981C436.364 108.349 433.127 107.312 420.603 108.813C409.293 110.168 406.523 111.664 404.695 109.874C401.013 106.276 407.684 95.7656 409.314 93.1902C412.165 88.6988 414.612 84.837 418.796 84.205Z" stroke="black" stroke-width="4" stroke-miterlimit="10"/>
    <path d="M410.438 101.644C411.524 101.504 412.314 100.584 412.204 99.5899C412.093 98.5956 411.124 97.9029 410.039 98.0427C408.953 98.1825 408.163 99.102 408.273 100.096C408.383 101.091 409.353 101.783 410.438 101.644Z" fill="white"/>
    <path d="M413.216 107.535C415.257 107.272 416.776 105.832 416.607 104.318C416.439 102.805 414.648 101.791 412.607 102.054C410.566 102.317 409.047 103.757 409.215 105.27C409.383 106.784 411.174 107.798 413.216 107.535Z" fill="white"/>
</svg>
