<svg viewBox="0 0 510 459" fill="none" xmlns="http://www.w3.org/2000/svg">
    <rect x="62.5" y="76.5" width="110.025" height="15.5405" rx="7.77027" fill="white" stroke="black"/>
    <rect x="91.0493" y="241.905" width="110.025" height="15.5405" rx="7.77027" fill="white" stroke="black"/>
    <rect x="146.562" y="200.554" width="110.025" height="15.5405" rx="7.77027" fill="white" stroke="black"/>
    <rect x="146.562" y="283.257" width="110.025" height="15.5405" rx="7.77027" fill="white" stroke="black"/>
    <rect x="186.213" y="76.5" width="110.025" height="15.5405" rx="7.77027" fill="#3A5AFF" stroke="black"/>
    <rect x="214.762" y="241.905" width="110.025" height="15.5405" rx="7.77027" fill="#3A5AFF" stroke="black"/>
    <rect x="214.762" y="365.959" width="110.025" height="15.5405" rx="7.77027" fill="#3A5AFF" stroke="black"/>
    <rect x="146.562" y="159.203" width="54.5123" height="15.5405" rx="7.77027" fill="#3A5AFF" stroke="black"/>
    <rect x="91.0493" y="117.851" width="110.025" height="15.5405" rx="7.77027" fill="#FFC43B" stroke="black"/>
    <rect x="91.0493" y="365.959" width="110.025" height="15.5405" rx="7.77027" fill="#FFC43B" stroke="black"/>
    <rect x="270.274" y="200.554" width="110.025" height="15.5405" rx="7.77027" fill="#FFC43B" stroke="black"/>
    <rect x="146.562" y="324.608" width="233.738" height="15.5405" rx="7.77027" fill="#FFC43B" stroke="black"/>
    <rect x="214.762" y="117.851" width="110.025" height="15.5405" rx="7.77027" fill="#3A5AFF" stroke="black"/>
    <rect x="338.476" y="117.851" width="54.5123" height="15.5405" rx="7.77027" fill="#3A5AFF" stroke="black"/>
    <rect x="393.988" y="200.554" width="54.5123" height="15.5405" rx="7.77027" fill="#3A5AFF" stroke="black"/>
    <g filter="url(#filter0_b_980_2283)">
        <rect x="48" y="48" width="219" height="58" rx="29" fill="white" fill-opacity="0.7"/>
        <circle cx="76" cy="77" r="20" fill="#FFC43B"/>
        <path d="M67 76.5L74.6311 84.1311C75.0794 84.5794 75.8264 84.5027 76.1742 83.9726L86 69" stroke="black" stroke-width="4" stroke-linecap="round"/>
        <path d="M112.888 71.816C112.776 71.64 112.672 71.4 112.576 71.096C112.48 70.792 112.432 70.472 112.432 70.136C112.432 69.512 112.568 69.064 112.84 68.792C113.128 68.52 113.496 68.384 113.944 68.384H124.408C124.52 68.56 124.624 68.8 124.72 69.104C124.816 69.408 124.864 69.728 124.864 70.064C124.864 70.688 124.72 71.136 124.432 71.408C124.16 71.68 123.8 71.816 123.352 71.816H120.688V82.904C120.512 82.952 120.232 83 119.848 83.048C119.48 83.096 119.112 83.12 118.744 83.12C118.376 83.12 118.048 83.088 117.76 83.024C117.488 82.976 117.256 82.88 117.064 82.736C116.872 82.592 116.728 82.392 116.632 82.136C116.536 81.88 116.488 81.544 116.488 81.128V71.816H112.888ZM137.226 77.168C137.226 78.16 137.074 79.048 136.77 79.832C136.466 80.6 136.034 81.248 135.474 81.776C134.93 82.304 134.274 82.704 133.506 82.976C132.738 83.248 131.882 83.384 130.938 83.384C129.994 83.384 129.138 83.24 128.37 82.952C127.602 82.664 126.938 82.256 126.378 81.728C125.834 81.184 125.41 80.528 125.106 79.76C124.802 78.992 124.65 78.128 124.65 77.168C124.65 76.224 124.802 75.368 125.106 74.6C125.41 73.832 125.834 73.184 126.378 72.656C126.938 72.112 127.602 71.696 128.37 71.408C129.138 71.12 129.994 70.976 130.938 70.976C131.882 70.976 132.738 71.128 133.506 71.432C134.274 71.72 134.93 72.136 135.474 72.68C136.034 73.208 136.466 73.856 136.77 74.624C137.074 75.392 137.226 76.24 137.226 77.168ZM128.826 77.168C128.826 78.144 129.01 78.896 129.378 79.424C129.762 79.936 130.29 80.192 130.962 80.192C131.634 80.192 132.146 79.928 132.498 79.4C132.866 78.872 133.05 78.128 133.05 77.168C133.05 76.208 132.866 75.472 132.498 74.96C132.13 74.432 131.61 74.168 130.938 74.168C130.266 74.168 129.746 74.432 129.378 74.96C129.01 75.472 128.826 76.208 128.826 77.168ZM150.617 80.888C150.537 81.64 150.313 82.216 149.945 82.616C149.593 83.016 149.073 83.216 148.385 83.216C147.873 83.216 147.417 83.096 147.017 82.856C146.617 82.6 146.185 82.176 145.721 81.584L143.345 78.608V82.976C143.169 83.008 142.905 83.048 142.553 83.096C142.217 83.16 141.873 83.192 141.521 83.192C141.169 83.192 140.849 83.168 140.561 83.12C140.289 83.072 140.057 82.976 139.865 82.832C139.673 82.688 139.521 82.496 139.409 82.256C139.313 82 139.265 81.672 139.265 81.272V67.376C139.441 67.328 139.697 67.28 140.033 67.232C140.385 67.168 140.737 67.136 141.089 67.136C141.441 67.136 141.753 67.16 142.025 67.208C142.313 67.256 142.553 67.352 142.745 67.496C142.937 67.64 143.081 67.84 143.177 68.096C143.289 68.336 143.345 68.656 143.345 69.056V75.392L147.473 71.168C148.305 71.168 148.969 71.352 149.465 71.72C149.977 72.088 150.233 72.552 150.233 73.112C150.233 73.352 150.193 73.576 150.113 73.784C150.033 73.976 149.905 74.176 149.729 74.384C149.569 74.592 149.353 74.816 149.081 75.056C148.825 75.28 148.521 75.544 148.169 75.848L146.777 77.048L150.617 80.888ZM158.158 83.384C157.214 83.384 156.334 83.256 155.518 83C154.718 82.728 154.014 82.328 153.406 81.8C152.814 81.272 152.342 80.608 151.99 79.808C151.654 79.008 151.486 78.072 151.486 77C151.486 75.944 151.654 75.04 151.99 74.288C152.342 73.52 152.798 72.896 153.358 72.416C153.918 71.92 154.558 71.56 155.278 71.336C155.998 71.096 156.734 70.976 157.486 70.976C158.334 70.976 159.102 71.104 159.79 71.36C160.494 71.616 161.094 71.968 161.59 72.416C162.102 72.864 162.494 73.4 162.766 74.024C163.054 74.648 163.198 75.328 163.198 76.064C163.198 76.608 163.046 77.024 162.742 77.312C162.438 77.6 162.014 77.784 161.47 77.864L155.542 78.752C155.718 79.28 156.078 79.68 156.622 79.952C157.166 80.208 157.79 80.336 158.494 80.336C159.15 80.336 159.766 80.256 160.342 80.096C160.934 79.92 161.414 79.72 161.782 79.496C162.038 79.656 162.254 79.88 162.43 80.168C162.606 80.456 162.694 80.76 162.694 81.08C162.694 81.8 162.358 82.336 161.686 82.688C161.174 82.96 160.598 83.144 159.958 83.24C159.318 83.336 158.718 83.384 158.158 83.384ZM157.486 73.952C157.102 73.952 156.766 74.016 156.478 74.144C156.206 74.272 155.982 74.44 155.806 74.648C155.63 74.84 155.494 75.064 155.398 75.32C155.318 75.56 155.27 75.808 155.254 76.064L159.358 75.392C159.31 75.072 159.134 74.752 158.83 74.432C158.526 74.112 158.078 73.952 157.486 73.952ZM172.554 75.608C172.554 75.112 172.41 74.752 172.122 74.528C171.85 74.288 171.474 74.168 170.994 74.168C170.674 74.168 170.354 74.208 170.034 74.288C169.73 74.368 169.466 74.488 169.242 74.648V82.976C169.082 83.024 168.826 83.072 168.474 83.12C168.138 83.168 167.786 83.192 167.418 83.192C167.066 83.192 166.746 83.168 166.458 83.12C166.186 83.072 165.954 82.976 165.762 82.832C165.57 82.688 165.418 82.496 165.306 82.256C165.21 82 165.162 81.672 165.162 81.272V74.072C165.162 73.64 165.25 73.288 165.426 73.016C165.618 72.744 165.874 72.496 166.194 72.272C166.738 71.888 167.418 71.576 168.234 71.336C169.066 71.096 169.986 70.976 170.994 70.976C172.802 70.976 174.194 71.376 175.17 72.176C176.146 72.96 176.634 74.056 176.634 75.464V82.976C176.474 83.024 176.218 83.072 175.866 83.12C175.53 83.168 175.178 83.192 174.81 83.192C174.458 83.192 174.138 83.168 173.85 83.12C173.578 83.072 173.346 82.976 173.154 82.832C172.962 82.688 172.81 82.496 172.698 82.256C172.602 82 172.554 81.672 172.554 81.272V75.608ZM191.226 77.168C191.226 78.16 191.074 79.048 190.77 79.832C190.466 80.6 190.034 81.248 189.474 81.776C188.93 82.304 188.274 82.704 187.506 82.976C186.738 83.248 185.882 83.384 184.938 83.384C183.994 83.384 183.138 83.24 182.37 82.952C181.602 82.664 180.938 82.256 180.378 81.728C179.834 81.184 179.41 80.528 179.106 79.76C178.802 78.992 178.65 78.128 178.65 77.168C178.65 76.224 178.802 75.368 179.106 74.6C179.41 73.832 179.834 73.184 180.378 72.656C180.938 72.112 181.602 71.696 182.37 71.408C183.138 71.12 183.994 70.976 184.938 70.976C185.882 70.976 186.738 71.128 187.506 71.432C188.274 71.72 188.93 72.136 189.474 72.68C190.034 73.208 190.466 73.856 190.77 74.624C191.074 75.392 191.226 76.24 191.226 77.168ZM182.826 77.168C182.826 78.144 183.01 78.896 183.378 79.424C183.762 79.936 184.29 80.192 184.962 80.192C185.634 80.192 186.146 79.928 186.498 79.4C186.866 78.872 187.05 78.128 187.05 77.168C187.05 76.208 186.866 75.472 186.498 74.96C186.13 74.432 185.61 74.168 184.938 74.168C184.266 74.168 183.746 74.432 183.378 74.96C183.01 75.472 182.826 76.208 182.826 77.168ZM198.809 70.976C199.465 70.976 200.105 71.072 200.729 71.264C201.369 71.44 201.921 71.712 202.385 72.08C202.865 71.76 203.401 71.496 203.993 71.288C204.601 71.08 205.329 70.976 206.177 70.976C206.785 70.976 207.377 71.056 207.953 71.216C208.545 71.376 209.065 71.632 209.513 71.984C209.977 72.32 210.345 72.776 210.617 73.352C210.889 73.912 211.025 74.6 211.025 75.416V82.976C210.865 83.024 210.609 83.072 210.257 83.12C209.921 83.168 209.569 83.192 209.201 83.192C208.849 83.192 208.529 83.168 208.241 83.12C207.969 83.072 207.737 82.976 207.545 82.832C207.353 82.688 207.201 82.496 207.089 82.256C206.993 82 206.945 81.672 206.945 81.272V75.536C206.945 75.056 206.809 74.712 206.537 74.504C206.265 74.28 205.897 74.168 205.433 74.168C205.209 74.168 204.969 74.224 204.713 74.336C204.457 74.432 204.265 74.536 204.137 74.648C204.153 74.712 204.161 74.776 204.161 74.84C204.161 74.888 204.161 74.936 204.161 74.984V82.976C203.985 83.024 203.721 83.072 203.369 83.12C203.033 83.168 202.689 83.192 202.337 83.192C201.985 83.192 201.665 83.168 201.377 83.12C201.105 83.072 200.873 82.976 200.681 82.832C200.489 82.688 200.337 82.496 200.225 82.256C200.129 82 200.081 81.672 200.081 81.272V75.536C200.081 75.056 199.929 74.712 199.625 74.504C199.337 74.28 198.985 74.168 198.569 74.168C198.281 74.168 198.033 74.216 197.825 74.312C197.617 74.392 197.441 74.472 197.297 74.552V82.976C197.137 83.024 196.881 83.072 196.529 83.12C196.193 83.168 195.841 83.192 195.473 83.192C195.121 83.192 194.801 83.168 194.513 83.12C194.241 83.072 194.009 82.976 193.817 82.832C193.625 82.688 193.473 82.496 193.361 82.256C193.265 82 193.217 81.672 193.217 81.272V74.024C193.217 73.592 193.305 73.248 193.481 72.992C193.673 72.736 193.929 72.496 194.249 72.272C194.793 71.888 195.465 71.576 196.265 71.336C197.081 71.096 197.929 70.976 198.809 70.976ZM213.418 68.096C213.418 67.488 213.618 66.976 214.018 66.56C214.434 66.144 214.978 65.936 215.65 65.936C216.322 65.936 216.858 66.144 217.258 66.56C217.674 66.976 217.882 67.488 217.882 68.096C217.882 68.704 217.674 69.216 217.258 69.632C216.858 70.048 216.322 70.256 215.65 70.256C214.978 70.256 214.434 70.048 214.018 69.632C213.618 69.216 213.418 68.704 213.418 68.096ZM217.69 82.976C217.514 83.008 217.25 83.048 216.898 83.096C216.562 83.16 216.218 83.192 215.866 83.192C215.514 83.192 215.194 83.168 214.906 83.12C214.634 83.072 214.402 82.976 214.21 82.832C214.018 82.688 213.866 82.496 213.754 82.256C213.658 82 213.61 81.672 213.61 81.272V71.504C213.786 71.472 214.042 71.432 214.378 71.384C214.73 71.32 215.082 71.288 215.434 71.288C215.786 71.288 216.098 71.312 216.37 71.36C216.658 71.408 216.898 71.504 217.09 71.648C217.282 71.792 217.426 71.992 217.522 72.248C217.634 72.488 217.69 72.808 217.69 73.208V82.976ZM226.863 74.192C226.463 74.192 226.079 74.256 225.711 74.384C225.359 74.512 225.047 74.704 224.775 74.96C224.519 75.2 224.311 75.504 224.151 75.872C223.991 76.24 223.911 76.672 223.911 77.168C223.911 78.16 224.191 78.904 224.751 79.4C225.327 79.896 226.023 80.144 226.839 80.144C227.319 80.144 227.735 80.088 228.087 79.976C228.439 79.864 228.751 79.744 229.023 79.616C229.343 79.84 229.583 80.088 229.743 80.36C229.903 80.616 229.983 80.928 229.983 81.296C229.983 81.952 229.671 82.464 229.047 82.832C228.423 83.184 227.559 83.36 226.455 83.36C225.447 83.36 224.535 83.216 223.719 82.928C222.903 82.624 222.199 82.208 221.607 81.68C221.031 81.136 220.583 80.488 220.263 79.736C219.943 78.984 219.783 78.152 219.783 77.24C219.783 76.184 219.951 75.264 220.287 74.48C220.639 73.68 221.111 73.024 221.703 72.512C222.295 72 222.975 71.616 223.743 71.36C224.527 71.104 225.351 70.976 226.215 70.976C227.367 70.976 228.255 71.184 228.879 71.6C229.503 72.016 229.815 72.552 229.815 73.208C229.815 73.512 229.743 73.8 229.599 74.072C229.455 74.328 229.287 74.552 229.095 74.744C228.823 74.616 228.495 74.496 228.111 74.384C227.727 74.256 227.311 74.192 226.863 74.192ZM241.635 79.52C241.635 80.736 241.179 81.688 240.267 82.376C239.355 83.064 238.011 83.408 236.235 83.408C235.563 83.408 234.939 83.36 234.363 83.264C233.787 83.168 233.291 83.024 232.875 82.832C232.475 82.624 232.155 82.368 231.915 82.064C231.691 81.76 231.579 81.4 231.579 80.984C231.579 80.6 231.659 80.28 231.819 80.024C231.979 79.752 232.171 79.528 232.395 79.352C232.859 79.608 233.387 79.84 233.979 80.048C234.587 80.24 235.283 80.336 236.067 80.336C236.563 80.336 236.939 80.264 237.195 80.12C237.467 79.976 237.603 79.784 237.603 79.544C237.603 79.32 237.507 79.144 237.315 79.016C237.123 78.888 236.803 78.784 236.355 78.704L235.635 78.56C234.243 78.288 233.203 77.864 232.515 77.288C231.843 76.696 231.507 75.856 231.507 74.768C231.507 74.176 231.635 73.64 231.891 73.16C232.147 72.68 232.507 72.28 232.971 71.96C233.435 71.64 233.987 71.392 234.627 71.216C235.283 71.04 236.003 70.952 236.787 70.952C237.379 70.952 237.931 71 238.443 71.096C238.971 71.176 239.427 71.304 239.811 71.48C240.195 71.656 240.499 71.888 240.723 72.176C240.947 72.448 241.059 72.776 241.059 73.16C241.059 73.528 240.987 73.848 240.843 74.12C240.715 74.376 240.547 74.592 240.339 74.768C240.211 74.688 240.019 74.608 239.763 74.528C239.507 74.432 239.227 74.352 238.923 74.288C238.619 74.208 238.307 74.144 237.987 74.096C237.683 74.048 237.403 74.024 237.147 74.024C236.619 74.024 236.211 74.088 235.923 74.216C235.635 74.328 235.491 74.512 235.491 74.768C235.491 74.944 235.571 75.088 235.731 75.2C235.891 75.312 236.195 75.416 236.643 75.512L237.387 75.68C238.923 76.032 240.011 76.52 240.651 77.144C241.307 77.752 241.635 78.544 241.635 79.52Z" fill="black"/>
        <rect x="48.5" y="48.5" width="218" height="57" rx="28.5" stroke="black"/>
    </g>
    <g filter="url(#filter1_b_980_2283)">
        <rect x="177" y="353" width="285" height="58" rx="29" fill="white" fill-opacity="0.7"/>
        <circle cx="205" cy="382" r="20" fill="#FFC43B"/>
        <path d="M196 381.5L203.631 389.131C204.079 389.579 204.826 389.503 205.174 388.973L215 374" stroke="black" stroke-width="4" stroke-linecap="round"/>
        <path d="M246.736 384.88C246.912 384.912 247.128 384.944 247.384 384.976C247.64 384.992 247.88 385 248.104 385C248.648 385 249.144 384.92 249.592 384.76C250.056 384.6 250.448 384.352 250.768 384.016C251.104 383.68 251.36 383.248 251.536 382.72C251.728 382.176 251.824 381.528 251.824 380.776C251.824 379.336 251.488 378.256 250.816 377.536C250.144 376.8 249.248 376.432 248.128 376.432C247.904 376.432 247.672 376.44 247.432 376.456C247.208 376.472 246.976 376.496 246.736 376.528V384.88ZM248.08 388.384C247.808 388.384 247.496 388.376 247.144 388.36C246.792 388.344 246.424 388.312 246.04 388.264C245.672 388.216 245.296 388.152 244.912 388.072C244.544 388.008 244.2 387.912 243.88 387.784C243 387.448 242.56 386.864 242.56 386.032V374.824C242.56 374.488 242.648 374.232 242.824 374.056C243.016 373.864 243.272 373.712 243.592 373.6C244.28 373.376 245.008 373.232 245.776 373.168C246.544 373.088 247.232 373.048 247.84 373.048C249.088 373.048 250.216 373.2 251.224 373.504C252.248 373.808 253.12 374.28 253.84 374.92C254.576 375.544 255.144 376.336 255.544 377.296C255.944 378.256 256.144 379.392 256.144 380.704C256.144 381.984 255.952 383.104 255.568 384.064C255.184 385.008 254.632 385.808 253.912 386.464C253.208 387.104 252.36 387.584 251.368 387.904C250.376 388.224 249.28 388.384 248.08 388.384ZM259.775 385.024C259.599 384.624 259.407 384.176 259.199 383.68C259.007 383.184 258.799 382.616 258.575 381.976C258.367 381.336 258.143 380.608 257.903 379.792C257.679 378.96 257.439 378.008 257.183 376.936C257.407 376.712 257.703 376.52 258.071 376.36C258.455 376.184 258.871 376.096 259.319 376.096C259.879 376.096 260.343 376.216 260.711 376.456C261.079 376.68 261.351 377.112 261.527 377.752L263.423 384.352H263.519C263.711 383.808 263.895 383.216 264.071 382.576C264.263 381.936 264.447 381.28 264.623 380.608C264.799 379.92 264.959 379.24 265.103 378.568C265.263 377.88 265.399 377.208 265.511 376.552C266.087 376.248 266.719 376.096 267.407 376.096C267.967 376.096 268.431 376.216 268.799 376.456C269.167 376.696 269.351 377.112 269.351 377.704C269.351 378.136 269.295 378.64 269.183 379.216C269.071 379.776 268.919 380.376 268.727 381.016C268.551 381.656 268.335 382.32 268.079 383.008C267.839 383.68 267.583 384.344 267.311 385C267.039 385.656 266.759 386.28 266.471 386.872C266.183 387.448 265.903 387.968 265.631 388.432C265.183 389.216 264.767 389.856 264.383 390.352C263.999 390.848 263.631 391.232 263.279 391.504C262.927 391.792 262.575 391.984 262.223 392.08C261.871 392.192 261.503 392.248 261.119 392.248C260.447 392.248 259.903 392.048 259.487 391.648C259.071 391.248 258.823 390.728 258.743 390.088C259.255 389.688 259.767 389.24 260.279 388.744C260.791 388.264 261.255 387.768 261.671 387.256C261.399 387.176 261.103 386.992 260.783 386.704C260.479 386.4 260.143 385.84 259.775 385.024ZM278.398 380.608C278.398 380.112 278.254 379.752 277.966 379.528C277.694 379.288 277.318 379.168 276.838 379.168C276.518 379.168 276.198 379.208 275.878 379.288C275.574 379.368 275.31 379.488 275.086 379.648V387.976C274.926 388.024 274.67 388.072 274.318 388.12C273.982 388.168 273.63 388.192 273.262 388.192C272.91 388.192 272.59 388.168 272.302 388.12C272.03 388.072 271.798 387.976 271.606 387.832C271.414 387.688 271.262 387.496 271.15 387.256C271.054 387 271.006 386.672 271.006 386.272V379.072C271.006 378.64 271.094 378.288 271.27 378.016C271.462 377.744 271.718 377.496 272.038 377.272C272.582 376.888 273.262 376.576 274.078 376.336C274.91 376.096 275.83 375.976 276.838 375.976C278.646 375.976 280.038 376.376 281.014 377.176C281.99 377.96 282.478 379.056 282.478 380.464V387.976C282.318 388.024 282.062 388.072 281.71 388.12C281.374 388.168 281.022 388.192 280.654 388.192C280.302 388.192 279.982 388.168 279.694 388.12C279.422 388.072 279.19 387.976 278.998 387.832C278.806 387.688 278.654 387.496 278.542 387.256C278.446 387 278.398 386.672 278.398 386.272V380.608ZM289.99 385.408C290.262 385.408 290.558 385.384 290.878 385.336C291.214 385.272 291.462 385.192 291.622 385.096V383.176L289.894 383.32C289.446 383.352 289.078 383.448 288.79 383.608C288.502 383.768 288.358 384.008 288.358 384.328C288.358 384.648 288.478 384.912 288.718 385.12C288.974 385.312 289.398 385.408 289.99 385.408ZM289.798 375.976C290.662 375.976 291.446 376.064 292.15 376.24C292.87 376.416 293.478 376.688 293.974 377.056C294.486 377.408 294.878 377.864 295.15 378.424C295.422 378.968 295.558 379.616 295.558 380.368V385.744C295.558 386.16 295.438 386.504 295.198 386.776C294.974 387.032 294.702 387.256 294.382 387.448C293.342 388.072 291.878 388.384 289.99 388.384C289.142 388.384 288.374 388.304 287.686 388.144C287.014 387.984 286.43 387.744 285.934 387.424C285.454 387.104 285.078 386.696 284.806 386.2C284.55 385.704 284.422 385.128 284.422 384.472C284.422 383.368 284.75 382.52 285.406 381.928C286.062 381.336 287.078 380.968 288.454 380.824L291.598 380.488V380.32C291.598 379.856 291.39 379.528 290.974 379.336C290.574 379.128 289.99 379.024 289.222 379.024C288.614 379.024 288.022 379.088 287.446 379.216C286.87 379.344 286.35 379.504 285.886 379.696C285.678 379.552 285.502 379.336 285.358 379.048C285.214 378.744 285.142 378.432 285.142 378.112C285.142 377.696 285.238 377.368 285.43 377.128C285.638 376.872 285.95 376.656 286.366 376.48C286.83 376.304 287.374 376.176 287.998 376.096C288.638 376.016 289.238 375.976 289.798 375.976ZM303.645 375.976C304.301 375.976 304.941 376.072 305.565 376.264C306.205 376.44 306.757 376.712 307.221 377.08C307.701 376.76 308.237 376.496 308.829 376.288C309.437 376.08 310.165 375.976 311.013 375.976C311.621 375.976 312.213 376.056 312.789 376.216C313.381 376.376 313.901 376.632 314.349 376.984C314.813 377.32 315.181 377.776 315.453 378.352C315.725 378.912 315.861 379.6 315.861 380.416V387.976C315.701 388.024 315.445 388.072 315.093 388.12C314.757 388.168 314.405 388.192 314.037 388.192C313.685 388.192 313.365 388.168 313.077 388.12C312.805 388.072 312.573 387.976 312.381 387.832C312.189 387.688 312.037 387.496 311.925 387.256C311.829 387 311.781 386.672 311.781 386.272V380.536C311.781 380.056 311.645 379.712 311.373 379.504C311.101 379.28 310.733 379.168 310.269 379.168C310.045 379.168 309.805 379.224 309.549 379.336C309.293 379.432 309.101 379.536 308.973 379.648C308.989 379.712 308.997 379.776 308.997 379.84C308.997 379.888 308.997 379.936 308.997 379.984V387.976C308.821 388.024 308.557 388.072 308.205 388.12C307.869 388.168 307.525 388.192 307.173 388.192C306.821 388.192 306.501 388.168 306.213 388.12C305.941 388.072 305.709 387.976 305.517 387.832C305.325 387.688 305.173 387.496 305.061 387.256C304.965 387 304.917 386.672 304.917 386.272V380.536C304.917 380.056 304.765 379.712 304.461 379.504C304.173 379.28 303.821 379.168 303.405 379.168C303.117 379.168 302.869 379.216 302.661 379.312C302.453 379.392 302.277 379.472 302.133 379.552V387.976C301.973 388.024 301.717 388.072 301.365 388.12C301.029 388.168 300.677 388.192 300.309 388.192C299.957 388.192 299.637 388.168 299.349 388.12C299.077 388.072 298.845 387.976 298.653 387.832C298.461 387.688 298.309 387.496 298.197 387.256C298.101 387 298.053 386.672 298.053 386.272V379.024C298.053 378.592 298.141 378.248 298.317 377.992C298.509 377.736 298.765 377.496 299.085 377.272C299.629 376.888 300.301 376.576 301.101 376.336C301.917 376.096 302.765 375.976 303.645 375.976ZM318.254 373.096C318.254 372.488 318.454 371.976 318.854 371.56C319.27 371.144 319.814 370.936 320.486 370.936C321.158 370.936 321.694 371.144 322.094 371.56C322.51 371.976 322.718 372.488 322.718 373.096C322.718 373.704 322.51 374.216 322.094 374.632C321.694 375.048 321.158 375.256 320.486 375.256C319.814 375.256 319.27 375.048 318.854 374.632C318.454 374.216 318.254 373.704 318.254 373.096ZM322.526 387.976C322.35 388.008 322.086 388.048 321.734 388.096C321.398 388.16 321.054 388.192 320.702 388.192C320.35 388.192 320.03 388.168 319.742 388.12C319.47 388.072 319.238 387.976 319.046 387.832C318.854 387.688 318.702 387.496 318.59 387.256C318.494 387 318.446 386.672 318.446 386.272V376.504C318.622 376.472 318.878 376.432 319.214 376.384C319.566 376.32 319.918 376.288 320.27 376.288C320.622 376.288 320.934 376.312 321.206 376.36C321.494 376.408 321.734 376.504 321.926 376.648C322.118 376.792 322.262 376.992 322.358 377.248C322.47 377.488 322.526 377.808 322.526 378.208V387.976ZM331.699 379.192C331.299 379.192 330.915 379.256 330.547 379.384C330.195 379.512 329.883 379.704 329.611 379.96C329.355 380.2 329.147 380.504 328.987 380.872C328.827 381.24 328.747 381.672 328.747 382.168C328.747 383.16 329.027 383.904 329.587 384.4C330.163 384.896 330.859 385.144 331.675 385.144C332.155 385.144 332.571 385.088 332.923 384.976C333.275 384.864 333.587 384.744 333.859 384.616C334.179 384.84 334.419 385.088 334.579 385.36C334.739 385.616 334.819 385.928 334.819 386.296C334.819 386.952 334.507 387.464 333.883 387.832C333.259 388.184 332.395 388.36 331.291 388.36C330.283 388.36 329.371 388.216 328.555 387.928C327.739 387.624 327.035 387.208 326.443 386.68C325.867 386.136 325.419 385.488 325.099 384.736C324.779 383.984 324.619 383.152 324.619 382.24C324.619 381.184 324.787 380.264 325.123 379.48C325.475 378.68 325.947 378.024 326.539 377.512C327.131 377 327.811 376.616 328.579 376.36C329.363 376.104 330.187 375.976 331.051 375.976C332.203 375.976 333.091 376.184 333.715 376.6C334.339 377.016 334.651 377.552 334.651 378.208C334.651 378.512 334.579 378.8 334.435 379.072C334.291 379.328 334.123 379.552 333.931 379.744C333.659 379.616 333.331 379.496 332.947 379.384C332.563 379.256 332.147 379.192 331.699 379.192ZM348.246 379.192C347.846 379.192 347.462 379.256 347.094 379.384C346.742 379.512 346.43 379.704 346.158 379.96C345.902 380.2 345.694 380.504 345.534 380.872C345.374 381.24 345.294 381.672 345.294 382.168C345.294 383.16 345.574 383.904 346.134 384.4C346.71 384.896 347.406 385.144 348.222 385.144C348.702 385.144 349.118 385.088 349.47 384.976C349.822 384.864 350.134 384.744 350.406 384.616C350.726 384.84 350.966 385.088 351.126 385.36C351.286 385.616 351.366 385.928 351.366 386.296C351.366 386.952 351.054 387.464 350.43 387.832C349.806 388.184 348.942 388.36 347.838 388.36C346.83 388.36 345.918 388.216 345.102 387.928C344.286 387.624 343.582 387.208 342.99 386.68C342.414 386.136 341.966 385.488 341.646 384.736C341.326 383.984 341.166 383.152 341.166 382.24C341.166 381.184 341.334 380.264 341.67 379.48C342.022 378.68 342.494 378.024 343.086 377.512C343.678 377 344.358 376.616 345.126 376.36C345.91 376.104 346.734 375.976 347.598 375.976C348.75 375.976 349.638 376.184 350.262 376.6C350.886 377.016 351.198 377.552 351.198 378.208C351.198 378.512 351.126 378.8 350.982 379.072C350.838 379.328 350.67 379.552 350.478 379.744C350.206 379.616 349.878 379.496 349.494 379.384C349.11 379.256 348.694 379.192 348.246 379.192ZM365.133 382.168C365.133 383.16 364.981 384.048 364.677 384.832C364.373 385.6 363.941 386.248 363.381 386.776C362.837 387.304 362.181 387.704 361.413 387.976C360.645 388.248 359.789 388.384 358.845 388.384C357.901 388.384 357.045 388.24 356.277 387.952C355.509 387.664 354.845 387.256 354.285 386.728C353.741 386.184 353.317 385.528 353.013 384.76C352.709 383.992 352.557 383.128 352.557 382.168C352.557 381.224 352.709 380.368 353.013 379.6C353.317 378.832 353.741 378.184 354.285 377.656C354.845 377.112 355.509 376.696 356.277 376.408C357.045 376.12 357.901 375.976 358.845 375.976C359.789 375.976 360.645 376.128 361.413 376.432C362.181 376.72 362.837 377.136 363.381 377.68C363.941 378.208 364.373 378.856 364.677 379.624C364.981 380.392 365.133 381.24 365.133 382.168ZM356.733 382.168C356.733 383.144 356.917 383.896 357.285 384.424C357.669 384.936 358.197 385.192 358.868 385.192C359.541 385.192 360.053 384.928 360.405 384.4C360.773 383.872 360.957 383.128 360.957 382.168C360.957 381.208 360.773 380.472 360.405 379.96C360.037 379.432 359.517 379.168 358.845 379.168C358.173 379.168 357.653 379.432 357.285 379.96C356.917 380.472 356.733 381.208 356.733 382.168ZM374.515 380.608C374.515 380.112 374.371 379.752 374.083 379.528C373.811 379.288 373.435 379.168 372.955 379.168C372.635 379.168 372.315 379.208 371.995 379.288C371.691 379.368 371.427 379.488 371.203 379.648V387.976C371.043 388.024 370.787 388.072 370.435 388.12C370.099 388.168 369.747 388.192 369.379 388.192C369.027 388.192 368.707 388.168 368.419 388.12C368.147 388.072 367.915 387.976 367.723 387.832C367.531 387.688 367.379 387.496 367.267 387.256C367.171 387 367.123 386.672 367.123 386.272V379.072C367.123 378.64 367.211 378.288 367.387 378.016C367.579 377.744 367.835 377.496 368.155 377.272C368.699 376.888 369.379 376.576 370.195 376.336C371.027 376.096 371.947 375.976 372.955 375.976C374.763 375.976 376.155 376.376 377.131 377.176C378.107 377.96 378.595 379.056 378.595 380.464V387.976C378.435 388.024 378.179 388.072 377.827 388.12C377.491 388.168 377.139 388.192 376.771 388.192C376.419 388.192 376.099 388.168 375.811 388.12C375.539 388.072 375.307 387.976 375.115 387.832C374.923 387.688 374.771 387.496 374.659 387.256C374.563 387 374.515 386.672 374.515 386.272V380.608ZM385.195 383.992C385.195 384.408 385.323 384.704 385.579 384.88C385.851 385.056 386.227 385.144 386.707 385.144C386.947 385.144 387.195 385.128 387.451 385.096C387.707 385.048 387.931 384.992 388.123 384.928C388.267 385.104 388.387 385.304 388.483 385.528C388.595 385.736 388.651 385.992 388.651 386.296C388.651 386.904 388.419 387.4 387.955 387.784C387.507 388.168 386.707 388.36 385.555 388.36C384.147 388.36 383.059 388.04 382.291 387.4C381.539 386.76 381.163 385.72 381.163 384.28V374.008C381.339 373.96 381.587 373.912 381.907 373.864C382.243 373.8 382.595 373.768 382.963 373.768C383.667 373.768 384.211 373.896 384.595 374.152C384.995 374.392 385.195 374.912 385.195 375.712V377.248H388.339C388.435 377.424 388.523 377.648 388.603 377.92C388.699 378.176 388.747 378.464 388.747 378.784C388.747 379.344 388.619 379.752 388.363 380.008C388.123 380.248 387.795 380.368 387.379 380.368H385.195V383.992ZM396.752 388.384C395.808 388.384 394.928 388.256 394.112 388C393.312 387.728 392.608 387.328 392 386.8C391.408 386.272 390.936 385.608 390.584 384.808C390.248 384.008 390.08 383.072 390.08 382C390.08 380.944 390.248 380.04 390.584 379.288C390.936 378.52 391.392 377.896 391.952 377.416C392.512 376.92 393.152 376.56 393.872 376.336C394.592 376.096 395.328 375.976 396.08 375.976C396.928 375.976 397.696 376.104 398.384 376.36C399.088 376.616 399.688 376.968 400.184 377.416C400.696 377.864 401.088 378.4 401.36 379.024C401.648 379.648 401.792 380.328 401.792 381.064C401.792 381.608 401.64 382.024 401.336 382.312C401.032 382.6 400.608 382.784 400.064 382.864L394.136 383.752C394.312 384.28 394.672 384.68 395.216 384.952C395.76 385.208 396.384 385.336 397.088 385.336C397.744 385.336 398.36 385.256 398.936 385.096C399.528 384.92 400.008 384.72 400.376 384.496C400.632 384.656 400.848 384.88 401.024 385.168C401.2 385.456 401.288 385.76 401.288 386.08C401.288 386.8 400.952 387.336 400.28 387.688C399.768 387.96 399.192 388.144 398.552 388.24C397.912 388.336 397.312 388.384 396.752 388.384ZM396.08 378.952C395.696 378.952 395.36 379.016 395.072 379.144C394.8 379.272 394.576 379.44 394.4 379.648C394.224 379.84 394.088 380.064 393.992 380.32C393.912 380.56 393.864 380.808 393.848 381.064L397.952 380.392C397.904 380.072 397.728 379.752 397.424 379.432C397.12 379.112 396.672 378.952 396.08 378.952ZM411.148 380.608C411.148 380.112 411.004 379.752 410.716 379.528C410.444 379.288 410.068 379.168 409.588 379.168C409.268 379.168 408.948 379.208 408.628 379.288C408.324 379.368 408.06 379.488 407.836 379.648V387.976C407.676 388.024 407.42 388.072 407.068 388.12C406.732 388.168 406.38 388.192 406.012 388.192C405.66 388.192 405.34 388.168 405.052 388.12C404.78 388.072 404.548 387.976 404.356 387.832C404.164 387.688 404.012 387.496 403.9 387.256C403.804 387 403.756 386.672 403.756 386.272V379.072C403.756 378.64 403.844 378.288 404.02 378.016C404.212 377.744 404.468 377.496 404.788 377.272C405.332 376.888 406.012 376.576 406.828 376.336C407.66 376.096 408.58 375.976 409.588 375.976C411.396 375.976 412.788 376.376 413.764 377.176C414.74 377.96 415.228 379.056 415.228 380.464V387.976C415.068 388.024 414.812 388.072 414.46 388.12C414.124 388.168 413.772 388.192 413.404 388.192C413.052 388.192 412.732 388.168 412.444 388.12C412.172 388.072 411.94 387.976 411.748 387.832C411.556 387.688 411.404 387.496 411.292 387.256C411.196 387 411.148 386.672 411.148 386.272V380.608ZM421.828 383.992C421.828 384.408 421.956 384.704 422.212 384.88C422.484 385.056 422.86 385.144 423.34 385.144C423.58 385.144 423.828 385.128 424.084 385.096C424.34 385.048 424.564 384.992 424.756 384.928C424.9 385.104 425.02 385.304 425.116 385.528C425.228 385.736 425.284 385.992 425.284 386.296C425.284 386.904 425.052 387.4 424.588 387.784C424.14 388.168 423.34 388.36 422.188 388.36C420.78 388.36 419.692 388.04 418.924 387.4C418.172 386.76 417.796 385.72 417.796 384.28V374.008C417.972 373.96 418.22 373.912 418.54 373.864C418.876 373.8 419.228 373.768 419.596 373.768C420.3 373.768 420.844 373.896 421.228 374.152C421.628 374.392 421.828 374.912 421.828 375.712V377.248H424.972C425.068 377.424 425.156 377.648 425.236 377.92C425.332 378.176 425.38 378.464 425.38 378.784C425.38 379.344 425.252 379.752 424.996 380.008C424.756 380.248 424.428 380.368 424.012 380.368H421.828V383.992ZM437.197 384.52C437.197 385.736 436.741 386.688 435.829 387.376C434.917 388.064 433.573 388.408 431.797 388.408C431.125 388.408 430.501 388.36 429.925 388.264C429.349 388.168 428.853 388.024 428.437 387.832C428.037 387.624 427.717 387.368 427.477 387.064C427.253 386.76 427.141 386.4 427.141 385.984C427.141 385.6 427.221 385.28 427.381 385.024C427.541 384.752 427.733 384.528 427.957 384.352C428.421 384.608 428.949 384.84 429.541 385.048C430.149 385.24 430.845 385.336 431.629 385.336C432.125 385.336 432.501 385.264 432.757 385.12C433.029 384.976 433.165 384.784 433.165 384.544C433.165 384.32 433.069 384.144 432.877 384.016C432.685 383.888 432.365 383.784 431.917 383.704L431.197 383.56C429.805 383.288 428.765 382.864 428.077 382.288C427.405 381.696 427.069 380.856 427.069 379.768C427.069 379.176 427.197 378.64 427.453 378.16C427.709 377.68 428.069 377.28 428.533 376.96C428.997 376.64 429.549 376.392 430.189 376.216C430.845 376.04 431.565 375.952 432.349 375.952C432.941 375.952 433.493 376 434.005 376.096C434.533 376.176 434.989 376.304 435.373 376.48C435.757 376.656 436.061 376.888 436.285 377.176C436.509 377.448 436.621 377.776 436.621 378.16C436.621 378.528 436.549 378.848 436.405 379.12C436.277 379.376 436.109 379.592 435.901 379.768C435.773 379.688 435.581 379.608 435.325 379.528C435.069 379.432 434.789 379.352 434.485 379.288C434.181 379.208 433.869 379.144 433.549 379.096C433.245 379.048 432.965 379.024 432.709 379.024C432.181 379.024 431.773 379.088 431.485 379.216C431.197 379.328 431.053 379.512 431.053 379.768C431.053 379.944 431.133 380.088 431.293 380.2C431.453 380.312 431.757 380.416 432.205 380.512L432.949 380.68C434.485 381.032 435.573 381.52 436.213 382.144C436.869 382.752 437.197 383.544 437.197 384.52Z" fill="black"/>
        <rect x="177.5" y="353.5" width="284" height="57" rx="28.5" stroke="black"/>
    </g>
    <g filter="url(#filter2_b_980_2283)">
        <rect x="117" y="200" width="277" height="58" rx="29" fill="white" fill-opacity="0.7"/>
        <circle cx="145" cy="229" r="20" fill="#FFC43B"/>
        <path d="M136 228.5L143.631 236.131C144.079 236.579 144.826 236.503 145.174 235.973L155 221" stroke="black" stroke-width="4" stroke-linecap="round"/>
        <path d="M181.84 227.704C181.84 226.456 182.032 225.352 182.416 224.392C182.816 223.432 183.352 222.632 184.024 221.992C184.712 221.336 185.512 220.84 186.424 220.504C187.352 220.168 188.352 220 189.424 220C190.496 220 191.488 220.168 192.4 220.504C193.328 220.84 194.136 221.336 194.824 221.992C195.512 222.632 196.048 223.432 196.432 224.392C196.832 225.352 197.032 226.456 197.032 227.704C197.032 228.952 196.84 230.064 196.456 231.04C196.072 232 195.536 232.808 194.848 233.464C194.176 234.104 193.376 234.592 192.448 234.928C191.52 235.264 190.512 235.432 189.424 235.432C188.336 235.432 187.328 235.264 186.4 234.928C185.472 234.576 184.672 234.072 184 233.416C183.328 232.76 182.8 231.952 182.416 230.992C182.032 230.032 181.84 228.936 181.84 227.704ZM186.16 227.704C186.16 229.16 186.456 230.248 187.048 230.968C187.64 231.688 188.432 232.048 189.424 232.048C190.432 232.048 191.232 231.688 191.824 230.968C192.416 230.248 192.712 229.16 192.712 227.704C192.712 226.264 192.416 225.184 191.824 224.464C191.248 223.744 190.456 223.384 189.448 223.384C188.456 223.384 187.656 223.744 187.048 224.464C186.456 225.168 186.16 226.248 186.16 227.704ZM206.515 227.608C206.515 227.112 206.371 226.752 206.083 226.528C205.811 226.288 205.435 226.168 204.955 226.168C204.635 226.168 204.315 226.208 203.995 226.288C203.691 226.368 203.427 226.488 203.203 226.648V234.976C203.043 235.024 202.787 235.072 202.435 235.12C202.099 235.168 201.747 235.192 201.379 235.192C201.027 235.192 200.707 235.168 200.419 235.12C200.147 235.072 199.915 234.976 199.723 234.832C199.531 234.688 199.379 234.496 199.267 234.256C199.171 234 199.123 233.672 199.123 233.272V226.072C199.123 225.64 199.211 225.288 199.387 225.016C199.579 224.744 199.835 224.496 200.155 224.272C200.699 223.888 201.379 223.576 202.195 223.336C203.027 223.096 203.947 222.976 204.955 222.976C206.763 222.976 208.155 223.376 209.131 224.176C210.107 224.96 210.595 226.056 210.595 227.464V234.976C210.435 235.024 210.179 235.072 209.827 235.12C209.491 235.168 209.139 235.192 208.771 235.192C208.419 235.192 208.099 235.168 207.811 235.12C207.539 235.072 207.307 234.976 207.115 234.832C206.923 234.688 206.771 234.496 206.659 234.256C206.563 234 206.515 233.672 206.515 233.272V227.608ZM213.043 230.536C212.931 230.36 212.827 230.128 212.731 229.84C212.635 229.552 212.587 229.248 212.587 228.928C212.587 228.336 212.723 227.912 212.995 227.656C213.267 227.384 213.619 227.248 214.051 227.248H219.187C219.283 227.424 219.379 227.656 219.475 227.944C219.587 228.232 219.643 228.536 219.643 228.856C219.643 229.448 219.507 229.88 219.235 230.152C218.963 230.408 218.611 230.536 218.179 230.536H213.043ZM228.246 226.192C227.846 226.192 227.462 226.256 227.094 226.384C226.742 226.512 226.43 226.704 226.158 226.96C225.902 227.2 225.694 227.504 225.534 227.872C225.374 228.24 225.294 228.672 225.294 229.168C225.294 230.16 225.574 230.904 226.134 231.4C226.71 231.896 227.406 232.144 228.222 232.144C228.702 232.144 229.118 232.088 229.47 231.976C229.822 231.864 230.134 231.744 230.406 231.616C230.726 231.84 230.966 232.088 231.126 232.36C231.286 232.616 231.366 232.928 231.366 233.296C231.366 233.952 231.054 234.464 230.43 234.832C229.806 235.184 228.942 235.36 227.838 235.36C226.83 235.36 225.918 235.216 225.102 234.928C224.286 234.624 223.582 234.208 222.99 233.68C222.414 233.136 221.966 232.488 221.646 231.736C221.326 230.984 221.166 230.152 221.166 229.24C221.166 228.184 221.334 227.264 221.67 226.48C222.022 225.68 222.494 225.024 223.086 224.512C223.678 224 224.358 223.616 225.126 223.36C225.91 223.104 226.734 222.976 227.598 222.976C228.75 222.976 229.638 223.184 230.262 223.6C230.886 224.016 231.198 224.552 231.198 225.208C231.198 225.512 231.126 225.8 230.982 226.072C230.838 226.328 230.67 226.552 230.478 226.744C230.206 226.616 229.878 226.496 229.494 226.384C229.11 226.256 228.694 226.192 228.246 226.192ZM244.932 234.976C244.772 235.024 244.516 235.072 244.164 235.12C243.828 235.168 243.476 235.192 243.108 235.192C242.756 235.192 242.436 235.168 242.148 235.12C241.876 235.072 241.644 234.976 241.452 234.832C241.26 234.688 241.108 234.496 240.996 234.256C240.9 234 240.852 233.672 240.852 233.272V227.944C240.852 227.288 240.684 226.832 240.348 226.576C240.028 226.304 239.628 226.168 239.148 226.168C238.828 226.168 238.524 226.208 238.236 226.288C237.948 226.368 237.716 226.464 237.54 226.576V234.976C237.38 235.024 237.124 235.072 236.772 235.12C236.436 235.168 236.084 235.192 235.716 235.192C235.364 235.192 235.044 235.168 234.756 235.12C234.484 235.072 234.252 234.976 234.06 234.832C233.868 234.688 233.716 234.496 233.604 234.256C233.508 234 233.46 233.672 233.46 233.272V219.352C233.636 219.32 233.892 219.28 234.228 219.232C234.58 219.168 234.932 219.136 235.284 219.136C235.636 219.136 235.948 219.16 236.22 219.208C236.508 219.256 236.748 219.352 236.94 219.496C237.132 219.64 237.276 219.84 237.372 220.096C237.484 220.336 237.54 220.656 237.54 221.056V223.408C237.748 223.328 238.06 223.24 238.476 223.144C238.908 223.032 239.38 222.976 239.892 222.976C241.476 222.976 242.708 223.376 243.588 224.176C244.484 224.96 244.932 226.136 244.932 227.704V234.976ZM252.443 232.408C252.715 232.408 253.011 232.384 253.331 232.336C253.667 232.272 253.915 232.192 254.075 232.096V230.176L252.347 230.32C251.899 230.352 251.531 230.448 251.243 230.608C250.955 230.768 250.811 231.008 250.811 231.328C250.811 231.648 250.931 231.912 251.171 232.12C251.427 232.312 251.851 232.408 252.443 232.408ZM252.251 222.976C253.115 222.976 253.899 223.064 254.603 223.24C255.323 223.416 255.931 223.688 256.427 224.056C256.939 224.408 257.331 224.864 257.603 225.424C257.875 225.968 258.011 226.616 258.011 227.368V232.744C258.011 233.16 257.891 233.504 257.651 233.776C257.427 234.032 257.155 234.256 256.835 234.448C255.795 235.072 254.331 235.384 252.443 235.384C251.595 235.384 250.827 235.304 250.139 235.144C249.467 234.984 248.883 234.744 248.387 234.424C247.907 234.104 247.531 233.696 247.259 233.2C247.003 232.704 246.875 232.128 246.875 231.472C246.875 230.368 247.203 229.52 247.859 228.928C248.515 228.336 249.531 227.968 250.907 227.824L254.051 227.488V227.32C254.051 226.856 253.843 226.528 253.427 226.336C253.027 226.128 252.443 226.024 251.675 226.024C251.067 226.024 250.475 226.088 249.899 226.216C249.323 226.344 248.803 226.504 248.339 226.696C248.131 226.552 247.955 226.336 247.811 226.048C247.667 225.744 247.595 225.432 247.595 225.112C247.595 224.696 247.691 224.368 247.883 224.128C248.091 223.872 248.403 223.656 248.819 223.48C249.283 223.304 249.827 223.176 250.451 223.096C251.091 223.016 251.691 222.976 252.251 222.976ZM260.41 220.096C260.41 219.488 260.61 218.976 261.01 218.56C261.426 218.144 261.97 217.936 262.642 217.936C263.314 217.936 263.85 218.144 264.25 218.56C264.666 218.976 264.874 219.488 264.874 220.096C264.874 220.704 264.666 221.216 264.25 221.632C263.85 222.048 263.314 222.256 262.642 222.256C261.97 222.256 261.426 222.048 261.01 221.632C260.61 221.216 260.41 220.704 260.41 220.096ZM264.682 234.976C264.506 235.008 264.242 235.048 263.89 235.096C263.554 235.16 263.21 235.192 262.858 235.192C262.506 235.192 262.186 235.168 261.898 235.12C261.626 235.072 261.394 234.976 261.202 234.832C261.01 234.688 260.858 234.496 260.746 234.256C260.65 234 260.602 233.672 260.602 233.272V223.504C260.778 223.472 261.034 223.432 261.37 223.384C261.722 223.32 262.074 223.288 262.426 223.288C262.778 223.288 263.09 223.312 263.362 223.36C263.65 223.408 263.89 223.504 264.082 223.648C264.274 223.792 264.418 223.992 264.514 224.248C264.626 224.488 264.682 224.808 264.682 225.208V234.976ZM274.671 227.608C274.671 227.112 274.527 226.752 274.239 226.528C273.967 226.288 273.591 226.168 273.111 226.168C272.791 226.168 272.471 226.208 272.151 226.288C271.847 226.368 271.583 226.488 271.359 226.648V234.976C271.199 235.024 270.943 235.072 270.591 235.12C270.255 235.168 269.903 235.192 269.535 235.192C269.183 235.192 268.863 235.168 268.575 235.12C268.303 235.072 268.071 234.976 267.879 234.832C267.687 234.688 267.535 234.496 267.423 234.256C267.327 234 267.279 233.672 267.279 233.272V226.072C267.279 225.64 267.367 225.288 267.543 225.016C267.735 224.744 267.991 224.496 268.311 224.272C268.855 223.888 269.535 223.576 270.351 223.336C271.183 223.096 272.103 222.976 273.111 222.976C274.919 222.976 276.311 223.376 277.287 224.176C278.263 224.96 278.751 226.056 278.751 227.464V234.976C278.591 235.024 278.335 235.072 277.983 235.12C277.647 235.168 277.295 235.192 276.927 235.192C276.575 235.192 276.255 235.168 275.967 235.12C275.695 235.072 275.463 234.976 275.271 234.832C275.079 234.688 274.927 234.496 274.815 234.256C274.719 234 274.671 233.672 274.671 233.272V227.608ZM295.916 231.52C295.916 232.736 295.46 233.688 294.548 234.376C293.636 235.064 292.292 235.408 290.516 235.408C289.844 235.408 289.22 235.36 288.644 235.264C288.068 235.168 287.572 235.024 287.156 234.832C286.756 234.624 286.436 234.368 286.196 234.064C285.972 233.76 285.86 233.4 285.86 232.984C285.86 232.6 285.94 232.28 286.1 232.024C286.26 231.752 286.452 231.528 286.676 231.352C287.14 231.608 287.668 231.84 288.26 232.048C288.868 232.24 289.564 232.336 290.348 232.336C290.844 232.336 291.22 232.264 291.476 232.12C291.748 231.976 291.884 231.784 291.884 231.544C291.884 231.32 291.788 231.144 291.596 231.016C291.404 230.888 291.084 230.784 290.636 230.704L289.916 230.56C288.524 230.288 287.484 229.864 286.796 229.288C286.124 228.696 285.788 227.856 285.788 226.768C285.788 226.176 285.916 225.64 286.172 225.16C286.428 224.68 286.788 224.28 287.252 223.96C287.716 223.64 288.268 223.392 288.908 223.216C289.564 223.04 290.284 222.952 291.068 222.952C291.66 222.952 292.212 223 292.724 223.096C293.252 223.176 293.708 223.304 294.092 223.48C294.476 223.656 294.78 223.888 295.004 224.176C295.228 224.448 295.34 224.776 295.34 225.16C295.34 225.528 295.268 225.848 295.124 226.12C294.996 226.376 294.828 226.592 294.62 226.768C294.492 226.688 294.3 226.608 294.044 226.528C293.788 226.432 293.508 226.352 293.204 226.288C292.9 226.208 292.588 226.144 292.268 226.096C291.964 226.048 291.684 226.024 291.428 226.024C290.9 226.024 290.492 226.088 290.204 226.216C289.916 226.328 289.772 226.512 289.772 226.768C289.772 226.944 289.852 227.088 290.012 227.2C290.172 227.312 290.476 227.416 290.924 227.512L291.668 227.68C293.204 228.032 294.292 228.52 294.932 229.144C295.588 229.752 295.916 230.544 295.916 231.52ZM301.969 230.992C301.969 231.408 302.097 231.704 302.353 231.88C302.625 232.056 303.001 232.144 303.481 232.144C303.721 232.144 303.969 232.128 304.225 232.096C304.481 232.048 304.705 231.992 304.897 231.928C305.041 232.104 305.161 232.304 305.257 232.528C305.369 232.736 305.425 232.992 305.425 233.296C305.425 233.904 305.193 234.4 304.729 234.784C304.281 235.168 303.481 235.36 302.329 235.36C300.921 235.36 299.833 235.04 299.065 234.4C298.313 233.76 297.937 232.72 297.937 231.28V221.008C298.113 220.96 298.361 220.912 298.681 220.864C299.017 220.8 299.369 220.768 299.737 220.768C300.441 220.768 300.985 220.896 301.369 221.152C301.769 221.392 301.969 221.912 301.969 222.712V224.248H305.113C305.209 224.424 305.297 224.648 305.377 224.92C305.473 225.176 305.521 225.464 305.521 225.784C305.521 226.344 305.393 226.752 305.137 227.008C304.897 227.248 304.569 227.368 304.153 227.368H301.969V230.992ZM319.429 229.168C319.429 230.16 319.277 231.048 318.973 231.832C318.669 232.6 318.237 233.248 317.677 233.776C317.133 234.304 316.477 234.704 315.709 234.976C314.941 235.248 314.085 235.384 313.141 235.384C312.197 235.384 311.341 235.24 310.573 234.952C309.805 234.664 309.141 234.256 308.581 233.728C308.037 233.184 307.613 232.528 307.309 231.76C307.005 230.992 306.853 230.128 306.853 229.168C306.853 228.224 307.005 227.368 307.309 226.6C307.613 225.832 308.037 225.184 308.581 224.656C309.141 224.112 309.805 223.696 310.573 223.408C311.341 223.12 312.197 222.976 313.141 222.976C314.085 222.976 314.941 223.128 315.709 223.432C316.477 223.72 317.133 224.136 317.677 224.68C318.237 225.208 318.669 225.856 318.973 226.624C319.277 227.392 319.429 228.24 319.429 229.168ZM311.029 229.168C311.029 230.144 311.213 230.896 311.581 231.424C311.965 231.936 312.493 232.192 313.165 232.192C313.837 232.192 314.349 231.928 314.701 231.4C315.069 230.872 315.253 230.128 315.253 229.168C315.253 228.208 315.069 227.472 314.701 226.96C314.333 226.432 313.813 226.168 313.141 226.168C312.469 226.168 311.949 226.432 311.581 226.96C311.213 227.472 311.029 228.208 311.029 229.168ZM325.5 234.976C325.34 235.024 325.084 235.072 324.732 235.12C324.396 235.168 324.044 235.192 323.676 235.192C323.324 235.192 323.004 235.168 322.716 235.12C322.444 235.072 322.212 234.976 322.02 234.832C321.828 234.688 321.676 234.496 321.564 234.256C321.468 234 321.42 233.672 321.42 233.272V226.072C321.42 225.704 321.484 225.392 321.612 225.136C321.756 224.864 321.956 224.624 322.212 224.416C322.468 224.208 322.78 224.024 323.148 223.864C323.532 223.688 323.94 223.536 324.372 223.408C324.804 223.28 325.252 223.184 325.716 223.12C326.18 223.04 326.644 223 327.108 223C327.876 223 328.484 223.152 328.932 223.456C329.38 223.744 329.604 224.224 329.604 224.896C329.604 225.12 329.572 225.344 329.508 225.568C329.444 225.776 329.364 225.968 329.268 226.144C328.932 226.144 328.588 226.16 328.236 226.192C327.884 226.224 327.54 226.272 327.204 226.336C326.868 226.4 326.548 226.472 326.244 226.552C325.956 226.616 325.708 226.696 325.5 226.792V234.976ZM335.928 232.408C336.2 232.408 336.496 232.384 336.816 232.336C337.152 232.272 337.4 232.192 337.56 232.096V230.176L335.832 230.32C335.384 230.352 335.016 230.448 334.728 230.608C334.44 230.768 334.296 231.008 334.296 231.328C334.296 231.648 334.416 231.912 334.656 232.12C334.912 232.312 335.336 232.408 335.928 232.408ZM335.736 222.976C336.6 222.976 337.384 223.064 338.088 223.24C338.808 223.416 339.416 223.688 339.912 224.056C340.424 224.408 340.816 224.864 341.088 225.424C341.36 225.968 341.496 226.616 341.496 227.368V232.744C341.496 233.16 341.376 233.504 341.136 233.776C340.912 234.032 340.64 234.256 340.32 234.448C339.28 235.072 337.816 235.384 335.928 235.384C335.08 235.384 334.312 235.304 333.624 235.144C332.952 234.984 332.368 234.744 331.872 234.424C331.392 234.104 331.016 233.696 330.744 233.2C330.488 232.704 330.36 232.128 330.36 231.472C330.36 230.368 330.688 229.52 331.344 228.928C332 228.336 333.016 227.968 334.392 227.824L337.536 227.488V227.32C337.536 226.856 337.328 226.528 336.912 226.336C336.512 226.128 335.928 226.024 335.16 226.024C334.552 226.024 333.96 226.088 333.384 226.216C332.808 226.344 332.288 226.504 331.824 226.696C331.616 226.552 331.44 226.336 331.296 226.048C331.152 225.744 331.08 225.432 331.08 225.112C331.08 224.696 331.176 224.368 331.368 224.128C331.576 223.872 331.888 223.656 332.304 223.48C332.768 223.304 333.312 223.176 333.936 223.096C334.576 223.016 335.176 222.976 335.736 222.976ZM349.678 222.976C350.59 222.976 351.414 223.096 352.15 223.336C352.902 223.56 353.534 223.856 354.046 224.224C354.366 224.448 354.614 224.696 354.79 224.968C354.982 225.24 355.078 225.592 355.078 226.024V234.424C355.078 235.272 354.918 236 354.598 236.608C354.278 237.232 353.838 237.744 353.278 238.144C352.734 238.56 352.086 238.864 351.334 239.056C350.598 239.248 349.806 239.344 348.958 239.344C347.502 239.344 346.358 239.144 345.526 238.744C344.694 238.36 344.278 237.728 344.278 236.848C344.278 236.48 344.35 236.152 344.494 235.864C344.654 235.592 344.83 235.384 345.022 235.24C345.486 235.496 346.006 235.712 346.582 235.888C347.174 236.064 347.782 236.152 348.406 236.152C349.27 236.152 349.958 236.008 350.47 235.72C350.982 235.432 351.238 234.968 351.238 234.328V233.944C350.582 234.232 349.782 234.376 348.838 234.376C348.118 234.376 347.43 234.272 346.774 234.064C346.134 233.84 345.566 233.504 345.07 233.056C344.59 232.592 344.198 232 343.894 231.28C343.606 230.56 343.462 229.704 343.462 228.712C343.462 227.736 343.614 226.888 343.918 226.168C344.238 225.448 344.67 224.856 345.214 224.392C345.774 223.912 346.43 223.56 347.182 223.336C347.95 223.096 348.782 222.976 349.678 222.976ZM351.166 226.456C351.054 226.392 350.886 226.328 350.662 226.264C350.454 226.2 350.19 226.168 349.87 226.168C349.086 226.168 348.494 226.392 348.094 226.84C347.71 227.272 347.518 227.896 347.518 228.712C347.518 229.64 347.71 230.312 348.094 230.728C348.494 231.128 348.998 231.328 349.606 231.328C350.262 231.328 350.782 231.176 351.166 230.872V226.456ZM363.775 235.384C362.831 235.384 361.951 235.256 361.135 235C360.335 234.728 359.631 234.328 359.023 233.8C358.431 233.272 357.959 232.608 357.607 231.808C357.271 231.008 357.103 230.072 357.103 229C357.103 227.944 357.271 227.04 357.607 226.288C357.959 225.52 358.415 224.896 358.975 224.416C359.535 223.92 360.175 223.56 360.895 223.336C361.615 223.096 362.351 222.976 363.103 222.976C363.951 222.976 364.719 223.104 365.407 223.36C366.111 223.616 366.711 223.968 367.207 224.416C367.719 224.864 368.111 225.4 368.383 226.024C368.671 226.648 368.815 227.328 368.815 228.064C368.815 228.608 368.663 229.024 368.359 229.312C368.055 229.6 367.631 229.784 367.087 229.864L361.159 230.752C361.335 231.28 361.695 231.68 362.239 231.952C362.783 232.208 363.407 232.336 364.111 232.336C364.767 232.336 365.383 232.256 365.959 232.096C366.551 231.92 367.031 231.72 367.399 231.496C367.655 231.656 367.871 231.88 368.047 232.168C368.223 232.456 368.311 232.76 368.311 233.08C368.311 233.8 367.975 234.336 367.303 234.688C366.791 234.96 366.215 235.144 365.575 235.24C364.935 235.336 364.335 235.384 363.775 235.384ZM363.103 225.952C362.719 225.952 362.383 226.016 362.095 226.144C361.823 226.272 361.599 226.44 361.423 226.648C361.247 226.84 361.111 227.064 361.015 227.32C360.935 227.56 360.887 227.808 360.871 228.064L364.975 227.392C364.927 227.072 364.751 226.752 364.447 226.432C364.143 226.112 363.695 225.952 363.103 225.952Z" fill="black"/>
        <rect x="117.5" y="200.5" width="276" height="57" rx="28.5" stroke="black"/>
    </g>
    <defs>
        <filter id="filter0_b_980_2283" x="38" y="38" width="239" height="78" filterUnits="userSpaceOnUse" color-interpolation-filters="sRGB">
            <feFlood flood-opacity="0" result="BackgroundImageFix"/>
            <feGaussianBlur in="BackgroundImageFix" stdDeviation="5"/>
            <feComposite in2="SourceAlpha" operator="in" result="effect1_backgroundBlur_980_2283"/>
            <feBlend mode="normal" in="SourceGraphic" in2="effect1_backgroundBlur_980_2283" result="shape"/>
        </filter>
        <filter id="filter1_b_980_2283" x="167" y="343" width="305" height="78" filterUnits="userSpaceOnUse" color-interpolation-filters="sRGB">
            <feFlood flood-opacity="0" result="BackgroundImageFix"/>
            <feGaussianBlur in="BackgroundImageFix" stdDeviation="5"/>
            <feComposite in2="SourceAlpha" operator="in" result="effect1_backgroundBlur_980_2283"/>
            <feBlend mode="normal" in="SourceGraphic" in2="effect1_backgroundBlur_980_2283" result="shape"/>
        </filter>
        <filter id="filter2_b_980_2283" x="113" y="196" width="285" height="66" filterUnits="userSpaceOnUse" color-interpolation-filters="sRGB">
            <feFlood flood-opacity="0" result="BackgroundImageFix"/>
            <feGaussianBlur in="BackgroundImageFix" stdDeviation="2"/>
            <feComposite in2="SourceAlpha" operator="in" result="effect1_backgroundBlur_980_2283"/>
            <feBlend mode="normal" in="SourceGraphic" in2="effect1_backgroundBlur_980_2283" result="shape"/>
        </filter>
    </defs>
</svg>
